<?xml version="1.0" encoding="utf-8"?>
<!-- Generator: Adobe Illustrator 16.0.0, SVG Export Plug-In . SVG Version: 6.00 Build 0)  -->
<!DOCTYPE svg PUBLIC "-//W3C//DTD SVG 1.1//EN" "http://www.w3.org/Graphics/SVG/1.1/DTD/svg11.dtd">
<svg version="1.1" id="图层_1" xmlns="http://www.w3.org/2000/svg" xmlns:xlink="http://www.w3.org/1999/xlink" x="0px" y="0px"
	 width="290.891px" height="307.34px" viewBox="0 0 290.891 307.34" enable-background="new 0 0 290.891 307.34"
	 xml:space="preserve">
<g id="图层_1_1_" display="none">
</g>
<g id="图层_8">
	<path fill="#D4EBF9" d="M184.842,219.424c-9.771,0-19.227-1.332-28.207-3.812l-0.15,0.027l16.733,91.701l74.967-108.432
		l-1.031,0.188C229.683,211.875,208.146,219.424,184.842,219.424z"/>
</g>
<g id="图层_9">
	<path fill="#D4EBF9" d="M79.176,113.758c0-14.14,2.785-27.628,7.824-39.955L0,171.575l93.056-5.425v-0.012
		C84.225,150.7,79.176,132.819,79.176,113.758z"/>
</g>
<g id="图层_4" display="none">
	<circle display="inline" fill="#FFFFFF" stroke="#231815" stroke-miterlimit="10" cx="184.724" cy="113.758" r="105.667"/>
</g>
<g id="图层_6" display="none">
	<polygon display="inline" fill="#3095D3" points="156.486,215.639 173.219,307.34 248.186,198.909 	"/>
</g>
<g id="图层_7" display="none">
	<polygon display="inline" fill="#3095D3" points="93.056,166.15 87.63,73.094 0,171.575 	"/>
</g>
<g id="图层_5" display="none">
	<path display="inline" fill="#3095D3" d="M179.161,168.329c0.066,0.032,0.127,0.075,0.191,0.108
		c0.979-1.551,2.438-2.819,4.35-3.444c0.629-0.205,1.262-0.388,1.893-0.584c-1.816-1.027-3.575-2.104-5.239-3.076
		c-0.826-0.481-1.646-0.976-2.469-1.465c-2.466,0.069-4.924,0.102-7.363,0.104c0.109,0.163,0.223,0.327,0.329,0.491
		C173.762,162.954,176.568,165.549,179.161,168.329z"/>
	<path display="inline" fill="#3095D3" d="M232.174,29.211c7.666,5.456,14.927,11.444,20.891,18.691
		c4.67,4.478,9.128,9.195,13.379,14.099c1.19,0.645,2.243,1.734,3.021,3.359c0.065,0.141,0.128,0.283,0.195,0.424
		c1.748,2.102,3.472,4.225,5.15,6.378c4.399,5.635,7.897,11.506,10.396,17.795L275.01,0l-85.098,9.644
		c6.557,2.284,12.886,5.356,19.19,8.354C217.424,20.07,225.186,24.237,232.174,29.211z"/>
	<path display="inline" fill="#3095D3" d="M185.801,56.492c-1.951,0.074-3.87,0.105-5.701,0.132c2.438,1.614,4.85,3.267,7.256,4.926
		C186.882,59.853,186.373,58.165,185.801,56.492z"/>
	<path display="inline" fill="#3095D3" d="M205.285,66.513c-0.597-0.686-1.201-1.366-1.81-2.046
		c-0.771,2.286-2.604,3.966-4.768,4.838c1.313,0.879,2.629,1.762,3.955,2.614c4.473,2.875,8.877,5.869,13.358,8.731
		C212.722,75.726,209.159,70.977,205.285,66.513z"/>
</g>
<g id="图层_10">
	<path fill="#D4EBF9" d="M283.702,76.696L275.01,0l-77.854,8.823C237.011,13.495,270.083,40.341,283.702,76.696z"/>
</g>
<g id="图层_3">
	<circle fill="none" stroke="#D4EBF9" stroke-width="21" stroke-miterlimit="10" cx="184.841" cy="112.014" r="73.349"/>
</g>
<g id="图层_2">
	<circle fill="none" stroke="#D4EBF9" stroke-width="21" stroke-miterlimit="10" cx="184.725" cy="112.896" r="32.534"/>
</g>
</svg>
