<?xml version="1.0" encoding="utf-8"?>
<!-- Generator: Adobe Illustrator 16.0.0, SVG Export Plug-In . SVG Version: 6.00 Build 0)  -->
<!DOCTYPE svg PUBLIC "-//W3C//DTD SVG 1.1//EN" "http://www.w3.org/Graphics/SVG/1.1/DTD/svg11.dtd">
<svg version="1.1" xmlns="http://www.w3.org/2000/svg" xmlns:xlink="http://www.w3.org/1999/xlink" x="0px" y="0px"
	 width="122.28px" height="122.28px" viewBox="0 0 122.28 122.28" enable-background="new 0 0 122.28 122.28" xml:space="preserve">
<g>
	<g>
		<path fill="#ACE028" d="M111.188,49.646c0,27.419-39.156,72.634-50.048,72.634c-10.893,0-50.048-45.214-50.048-72.634
			C11.092,22.228,33.5,0,61.14,0S111.188,22.228,111.188,49.646z"/>
		<path opacity="0.4" fill="#FFFFFF" d="M40.922,25.114c-3.821,3.93-9.047,5.079-11.672,2.566
			c-2.625-2.512-1.655-7.733,2.165-11.663c3.821-3.929,9.047-5.078,11.672-2.566C45.712,15.964,44.743,21.185,40.922,25.114z"/>
		<path opacity="0.4" fill="#FFFFFF" d="M40.089,35.226c-1.94,1.997-4.466,2.704-5.64,1.581s-0.553-3.652,1.389-5.648
			s4.467-2.704,5.64-1.58C42.653,30.701,42.031,33.23,40.089,35.226z"/>
	</g>
	<g>
		<g>
			<g>
				<path fill="#2A4547" d="M46.927,53.851c10.098,8.86,9.563,25.822,9.563,25.822s-16.905,2.596-27.003-6.265
					s-9.563-25.822-9.563-25.822S36.83,44.991,46.927,53.851z"/>
				<path fill="#36595D" d="M44.553,56.513c9.385,8.235,10.647,22.028,10.647,22.028s-13.954,0.44-23.34-7.795
					c-9.385-8.235-10.646-22.028-10.646-22.028S35.168,48.277,44.553,56.513z"/>
			</g>
			<ellipse opacity="0.4" fill="#FFFFFF" cx="28.983" cy="55.251" rx="2.71" ry="2.496"/>
			<ellipse opacity="0.4" fill="#FFFFFF" cx="33.569" cy="56.477" rx="1.251" ry="1.152"/>
		</g>
		<g>
			<g>
				<path fill="#2A4547" d="M75.353,53.851c-10.098,8.86-9.563,25.822-9.563,25.822s16.905,2.596,27.002-6.265
					c10.098-8.86,9.563-25.822,9.563-25.822S85.45,44.991,75.353,53.851z"/>
				<path fill="#36595D" d="M77.726,56.513c-9.385,8.235-10.647,22.028-10.647,22.028s13.954,0.44,23.34-7.795
					c9.385-8.235,10.647-22.028,10.647-22.028S87.112,48.277,77.726,56.513z"/>
			</g>
			<ellipse opacity="0.4" fill="#FFFFFF" cx="93.296" cy="55.251" rx="2.71" ry="2.496"/>
			<ellipse opacity="0.4" fill="#FFFFFF" cx="88.71" cy="56.477" rx="1.251" ry="1.152"/>
		</g>
	</g>
	<g>
		<ellipse fill="#7DA31D" cx="58.411" cy="92.818" rx="1.017" ry="2.844"/>
		<ellipse fill="#7DA31D" cx="63.869" cy="92.634" rx="1.018" ry="2.844"/>
	</g>
	<path fill="#7DA31D" d="M50.987,107.633c0,0,10.678,6.379,23.605-6.633C74.592,101,62.543,116.298,50.987,107.633z"/>
	<path fill="#7DA31D" d="M56.661,112.029c1.285,0.483,6.861,4.685,13.979-4.851C70.639,107.178,64.423,114.949,56.661,112.029z"/>
	<g>
		<path opacity="0.4" fill="#7DA31D" d="M57.213,80.532c0,0-16.518,9.959-23.951,1.469C33.262,82.001,39.664,93.501,57.213,80.532z"
			/>
		<path opacity="0.4" fill="#7DA31D" d="M65.679,80.532c0,0,16.519,9.959,23.951,1.469C89.63,82.001,83.23,93.501,65.679,80.532z"/>
	</g>
</g>
</svg>
