<?xml version="1.0" encoding="utf-8"?>
<!-- Generator: Adobe Illustrator 16.0.0, SVG Export Plug-In . SVG Version: 6.00 Build 0)  -->
<!DOCTYPE svg PUBLIC "-//W3C//DTD SVG 1.1//EN" "http://www.w3.org/Graphics/SVG/1.1/DTD/svg11.dtd">
<svg version="1.1" id="图层_1" xmlns="http://www.w3.org/2000/svg" xmlns:xlink="http://www.w3.org/1999/xlink" x="0px" y="0px"
	 width="263.528px" height="265.077px" viewBox="0 0 263.528 265.077" enable-background="new 0 0 263.528 265.077"
	 xml:space="preserve">
<path fill="#F59326" d="M177.104,7.933C108.801-16.92,33.129,18.722,8.086,87.546c-25.042,68.82,10.029,144.761,78.336,169.618
	c68.301,24.854,143.979-10.788,169.02-79.612S245.415,32.791,177.104,7.933z"/>
<path fill="#191919" d="M69.549,249.877c15.995-5.533,51.6-54.719,67.698-78.335c16.812-24.641,36.814-52.153,23.961-95.081
	C148.6,34.382,74.873,31.069,29.48,49.321c-0.098,0.122-3.4,4.312-3.4,4.312c45.493-17.608,117.801-13.921,130.272,27.714
	c12.855,42.921-10.82,68.82-27.631,93.468c-15.131,22.183-45.623,64.106-62.272,73.409L69.549,249.877z"/>
<path fill="#191919" d="M252.721,78.538C162.215,54.42,41.524,121.824,3.787,165.151c-0.106-0.249-1.139-4.502-1.156-4.807
	c37.74-43.333,157.088-111.043,247.604-86.931L252.721,78.538z"/>
<path fill="#191919" d="M208.084,24.032c-0.984,30.75,30.783,93.783,44.01,112.154c5.926,8.235,8.045,14.966,9.068,21.399
	c0,0,0.959-5.424,0.99-5.822c-1.566-4.877-3.465-10.013-7.771-15.993c-13.299-18.479-44.859-79.311-43.459-109.759L208.084,24.032z"
	/>
<path fill="#191919" d="M127.655,0c41.295,5.302,134.305,164.432,50.299,256.696c0,0,6.178-2.429,6.318-2.558
	c78.748-88.769-3.281-237.876-46.322-254.09L127.655,0z"/>
</svg>
