<?xml version="1.0" encoding="utf-8"?>
<!-- Generator: Adobe Illustrator 16.0.0, SVG Export Plug-In . SVG Version: 6.00 Build 0)  -->
<!DOCTYPE svg PUBLIC "-//W3C//DTD SVG 1.1//EN" "http://www.w3.org/Graphics/SVG/1.1/DTD/svg11.dtd">
<svg version="1.1" id="图层_1" xmlns="http://www.w3.org/2000/svg" xmlns:xlink="http://www.w3.org/1999/xlink" x="0px" y="0px"
	 width="111.139px" height="111.139px" viewBox="0 0 111.139 111.139" enable-background="new 0 0 111.139 111.139"
	 xml:space="preserve">
<g>
	<g>
		<path fill="#F2EFEF" d="M55.57,111.139c18.689,0,35.213-9.238,45.286-23.387H10.284C20.355,101.901,36.88,111.139,55.57,111.139z"
			/>
		<path fill="#F2EFEF" d="M55.57,0C36.88,0,20.355,9.238,10.284,23.386h90.572C90.783,9.238,74.26,0,55.57,0z"/>
		<path fill="#BF2026" d="M100.856,23.386H10.284C3.816,32.469,0,43.569,0,55.569s3.816,23.103,10.284,32.183h90.572
			c6.466-9.08,10.282-20.183,10.282-32.183S107.322,32.469,100.856,23.386z"/>
	</g>
	<circle fill="#F2EFEF" cx="55.569" cy="55.569" r="29.14"/>
	<g>
		<path fill="#353231" d="M67.991,45.968c-3.16,3.609-5.342,7.131-6.544,10.566c-1.203,3.434-2.052,7.559-2.544,12.372L58.6,71.971
			h-7.35l0.283-3.064c0.436-4.523,1.426-8.72,2.978-12.59s3.696-7.319,6.436-10.349H45.163v-5.652h22.828V45.968z"/>
	</g>
</g>
</svg>
