<?xml version="1.0" encoding="utf-8"?>
<!-- Generator: Adobe Illustrator 16.0.0, SVG Export Plug-In . SVG Version: 6.00 Build 0)  -->
<!DOCTYPE svg PUBLIC "-//W3C//DTD SVG 1.1//EN" "http://www.w3.org/Graphics/SVG/1.1/DTD/svg11.dtd">
<svg version="1.1" xmlns="http://www.w3.org/2000/svg" xmlns:xlink="http://www.w3.org/1999/xlink" x="0px" y="0px"
	 width="104.69px" height="104.69px" viewBox="0 0 104.69 104.69" enable-background="new 0 0 104.69 104.69" xml:space="preserve">
<g>
	<path display="none" fill="#FFFFFF" d="M88.151,16.423c-0.324-0.038-0.656-0.062-1.006-0.062c-3.012,0-6.025,0-9.038,0
		c-2.004-3.885-4.209-8.095-7.506-10.453c-4.982-3.565-12.447-2.396-18.256-2.396c-5.784,0-13.301-1.176-18.255,2.395
		c-2.197,1.583-3.908,3.976-5.399,6.546c-2.336-0.589-4.863-0.422-7.249-0.422c-5.727,0-10.562,1.717-12.786,6.034
		C-1.563,21.953-7.439,31.964-7.499,43.062c-0.047,8.767,0,17.535,0,26.302c0,10.054,0.93,19.551,9.533,26.346
		c6.571,5.189,13.955,5.47,21.823,5.47c18.014,0,36.027,0,54.041,0c6.646,0,13.315,0.512,19.553-2.281
		c10.814-4.842,14.737-15.224,14.737-26.317c0-9.681,0-19.361,0-29.041C112.189,29.096,102.796,17.482,88.151,16.423z"/>
	<g>
		<g>
			<g>
				<path fill="#794833" d="M27.627,26.971H16.241v-4.318c0-0.95,0.771-1.722,1.721-1.722h7.943c0.951,0,1.722,0.771,1.722,1.722
					V26.971z"/>
				<path fill="#462B17" d="M29.028,28.372H14.839v-5.72c0-1.722,1.401-3.122,3.123-3.122h7.943c1.722,0,3.123,1.4,3.123,3.122
					V28.372z M17.642,25.569h8.583v-2.917c0-0.177-0.143-0.319-0.32-0.319h-7.943c-0.177,0-0.32,0.143-0.32,0.319V25.569z"/>
			</g>
			<g>
				<path fill="#FB796B" d="M73.241,26.021H31.45l6.888-11.961c0.586-1.019,1.672-1.646,2.848-1.646h22.32
					c1.175,0,2.261,0.627,2.847,1.646L73.241,26.021z"/>
				<path fill="#462B17" d="M75.665,27.422h-46.64l8.098-14.062c0.834-1.448,2.391-2.349,4.062-2.349h22.319
					c1.672,0,3.229,0.9,4.062,2.35L75.665,27.422z M33.874,24.619h36.942l-5.678-9.86c-0.335-0.582-0.961-0.944-1.633-0.944H41.186
					c-0.671,0-1.297,0.362-1.633,0.944L33.874,24.619z"/>
			</g>
			<g>
				<path fill="#F6D436" d="M87.145,92.277h-69.6c-8.915,0-16.142-7.228-16.142-16.143v-34.73c0-8.916,7.227-16.143,16.142-16.143
					h69.6c8.915,0,16.143,7.227,16.143,16.143v34.73C103.288,85.05,96.06,92.277,87.145,92.277z"/>
				<path fill="#462B17" d="M87.145,93.679h-69.6c-9.674,0-17.544-7.87-17.544-17.544v-34.73c0-9.674,7.87-17.544,17.544-17.544
					h69.6c9.674,0,17.544,7.87,17.544,17.544v34.73C104.689,85.809,96.819,93.679,87.145,93.679z M17.545,26.663
					c-8.128,0-14.741,6.612-14.741,14.741v34.73c0,8.128,6.613,14.741,14.741,14.741h69.6c8.128,0,14.741-6.613,14.741-14.741
					v-34.73c0-8.129-6.613-14.741-14.741-14.741H17.545z"/>
			</g>
			<g>
				<g>
					<circle fill="#B0E2F1" cx="52.345" cy="58.77" r="25.654"/>
					<path fill="#462B17" d="M52.346,85.824c-14.919,0-27.056-12.137-27.056-27.056c0-14.918,12.137-27.055,27.056-27.055
						c14.918,0,27.055,12.137,27.055,27.055C79.401,73.688,67.264,85.824,52.346,85.824z M52.346,34.517
						c-13.374,0-24.253,10.879-24.253,24.252s10.88,24.254,24.253,24.254c13.373,0,24.252-10.881,24.252-24.254
						S65.718,34.517,52.346,34.517z"/>
				</g>
				<g>
					<circle fill="#FFFFFF" cx="52.345" cy="58.77" r="16.346"/>
					<path fill="#462B17" d="M52.346,76.518c-9.786,0-17.748-7.962-17.748-17.749c0-9.786,7.962-17.747,17.748-17.747
						s17.748,7.961,17.748,17.747C70.093,68.556,62.132,76.518,52.346,76.518z M52.346,43.824c-8.241,0-14.945,6.704-14.945,14.944
						c0,8.241,6.704,14.946,14.945,14.946c8.241,0,14.944-6.705,14.944-14.946C67.29,50.528,60.586,43.824,52.346,43.824z"/>
				</g>
			</g>
			<g>
				<path fill="#FFFDFB" d="M90.578,38.829H77.842c-1.487,0-2.692-1.206-2.692-2.692v-2.888c0-1.487,1.205-2.692,2.692-2.692h12.736
					c1.487,0,2.692,1.205,2.692,2.692v2.888C93.27,37.623,92.065,38.829,90.578,38.829z"/>
				<path fill="#462B17" d="M90.578,40.23H77.843c-2.257,0-4.094-1.837-4.094-4.094v-2.888c0-2.258,1.836-4.094,4.094-4.094h12.735
					c2.257,0,4.094,1.836,4.094,4.094v2.888C94.671,38.394,92.834,40.23,90.578,40.23z M77.843,31.958
					c-0.712,0-1.291,0.579-1.291,1.291v2.888c0,0.712,0.579,1.291,1.291,1.291h12.735c0.711,0,1.291-0.579,1.291-1.291v-2.888
					c0-0.712-0.58-1.291-1.291-1.291H77.843z"/>
			</g>
			<g>
				<path fill="#FFFFFF" d="M58.713,21.501H45.978c-1.487,0-2.692-1.205-2.692-2.692l0,0c0-1.486,1.206-2.692,2.692-2.692h12.735
					c1.487,0,2.692,1.206,2.692,2.692l0,0C61.405,20.296,60.2,21.501,58.713,21.501z"/>
				<path fill="#462B17" d="M58.713,22.902H45.978c-2.257,0-4.094-1.836-4.094-4.093c0-2.258,1.836-4.095,4.094-4.095h12.735
					c2.257,0,4.094,1.837,4.094,4.095C62.807,21.066,60.97,22.902,58.713,22.902z M45.978,17.519c-0.712,0-1.291,0.579-1.291,1.291
					c0,0.711,0.579,1.29,1.291,1.29h12.735c0.712,0,1.291-0.579,1.291-1.29c0-0.712-0.579-1.291-1.291-1.291H45.978z"/>
			</g>
			<g>
				<circle fill="#A0D29D" cx="26.691" cy="34.692" r="4.778"/>
				<path fill="#462B17" d="M26.691,40.872c-3.407,0-6.179-2.772-6.179-6.18s2.772-6.179,6.179-6.179
					c3.408,0,6.179,2.771,6.179,6.179S30.099,40.872,26.691,40.872z M26.691,31.316c-1.861,0-3.376,1.515-3.376,3.376
					c0,1.862,1.515,3.377,3.376,3.377c1.862,0,3.376-1.515,3.376-3.377C30.067,32.831,28.553,31.316,26.691,31.316z"/>
			</g>
		</g>
		<path fill="#FDFAF3" d="M7.722,79.635L7.722,79.635c-0.774,0-1.401-0.627-1.401-1.401V60.171c0-0.774,0.627-1.401,1.401-1.401l0,0
			c0.774,0,1.401,0.627,1.401,1.401v18.062C9.124,79.008,8.496,79.635,7.722,79.635z"/>
		<path fill="#FDFAF3" d="M7.722,53.557L7.722,53.557c-0.774,0-1.401-0.628-1.401-1.401v-8.331c0-0.774,0.627-1.401,1.401-1.401l0,0
			c0.774,0,1.401,0.627,1.401,1.401v8.331C9.124,52.929,8.496,53.557,7.722,53.557z"/>
	</g>
</g>
</svg>
