<?xml version="1.0" encoding="utf-8"?>
<!-- Generator: Adobe Illustrator 16.0.0, SVG Export Plug-In . SVG Version: 6.00 Build 0)  -->
<!DOCTYPE svg PUBLIC "-//W3C//DTD SVG 1.1//EN" "http://www.w3.org/Graphics/SVG/1.1/DTD/svg11.dtd">
<svg version="1.1" xmlns="http://www.w3.org/2000/svg" xmlns:xlink="http://www.w3.org/1999/xlink" x="0px" y="0px"
	 width="668.21px" height="668.21px" viewBox="0 0 668.21 668.21" enable-background="new 0 0 668.21 668.21" xml:space="preserve">
<g>
	<path fill="#6CBD45" d="M582.593,214.954c-1.958-18.216-17.927-31.355-35.672-29.361l-29.729,3.366l11.748-12.915l101.378-11.47
		c17.745-2.041,30.544-18.428,28.589-36.63c-1.955-18.222-17.92-31.381-35.665-29.367l-26.599,3.015l21.615-23.781
		c12.192-13.392,11.487-34.39-1.567-46.907c-13.04-12.503-33.492-11.782-45.694,1.61L545.51,60.583l-0.68-28.228
		c-0.454-18.328-15.29-32.806-33.131-32.342c-17.834,0.451-31.945,15.691-31.498,34.006l2.319,95.073
		c-0.265,0.497-0.5,1.021-0.719,1.517l-12.689,13.968l-0.603-25.206c-0.451-18.335-15.277-32.82-33.115-32.349
		c-17.857,0.457-31.975,15.677-31.508,34.005c0,0,1.136,104.436,1.255,111.38c0.365,21.761,19.316,33.84,33.138,32.29
		l115.724-13.113C571.762,249.569,584.555,233.163,582.593,214.954z"/>
	<path fill="#F6921E" d="M398.385,476.219C281.19,593.331,53,698.423,16.797,660.23c-38.204-40.322,72.329-269.549,189.52-386.681
		c117.201-117.118,181.87-93.396,234.899-37.425C494.266,292.083,515.585,359.107,398.385,476.219z"/>
	<path fill="#4D4E4E" d="M447.929,379.602c-5.557,5.679-27.711-8.004-49.511-30.534c-21.811-22.529-34.987-45.383-29.441-51.042
		c5.55-5.672,27.722,8.011,49.522,30.547C440.309,351.096,453.475,373.943,447.929,379.602z"/>
	<path fill="#4D4E4E" d="M298.925,349.565c-5.559,5.665-23.215-3.36-39.462-20.144c-16.241-16.791-24.921-34.987-19.365-40.645
		c5.543-5.659,23.211,3.365,39.459,20.15C295.804,325.711,304.471,343.913,298.925,349.565z"/>
	<path fill="#4D4E4E" d="M135.403,600.984c-5.559,5.666-23.211-3.359-39.456-20.137c-16.254-16.791-24.924-34.992-19.378-40.646
		c5.55-5.658,23.219,3.354,39.469,20.131C132.279,577.123,140.946,595.326,135.403,600.984z"/>
	<path fill="#4D4E4E" d="M316.627,496.144c-5.562,5.672-23.208-3.359-39.456-20.137c-16.254-16.791-24.928-34.98-19.378-40.639
		c5.549-5.672,23.215,3.36,39.465,20.137C313.497,472.303,322.167,490.492,316.627,496.144z"/>
	<path fill="#4D4E4E" d="M212.241,505.222c-5.556,5.658-27.134-7.422-48.219-29.215c-21.101-21.793-33.701-44.044-28.155-49.71
		c5.55-5.652,27.148,7.402,48.232,29.222C205.19,477.306,217.791,499.564,212.241,505.222z"/>
</g>
</svg>
