<?xml version="1.0" encoding="utf-8"?>
<!-- Generator: Adobe Illustrator 16.0.0, SVG Export Plug-In . SVG Version: 6.00 Build 0)  -->
<!DOCTYPE svg PUBLIC "-//W3C//DTD SVG 1.1//EN" "http://www.w3.org/Graphics/SVG/1.1/DTD/svg11.dtd">
<svg version="1.1" xmlns="http://www.w3.org/2000/svg" xmlns:xlink="http://www.w3.org/1999/xlink" x="0px" y="0px"
	 width="188.06px" height="188.06px" viewBox="0 0 188.06 188.06" enable-background="new 0 0 188.06 188.06" xml:space="preserve">
<g>
	<polygon fill="#D6D2CE" points="92.589,23.239 124.28,29.333 103.406,58.13 81.618,58.13 67.525,44.036 74.001,27.2 	"/>
	<rect x="76.929" y="22.485" fill="#EAE5DF" width="33.769" height="17.476"/>
	<g>
		<path fill="#F2EEEB" d="M147.258,37.946c-2.652-5.299-37.973-15.014-37.973-15.014L94.03,38.536L78.774,22.933
			c0,0-35.32,9.715-37.972,15.014c-3.018,6.035-2.931,6.115-39.019,109.951l27.263,10.926l23.43-72.567v75.472h41.404h0.298h41.404
			V86.256l23.429,72.567l27.264-10.926C150.188,44.062,150.274,43.981,147.258,37.946z"/>
		<g opacity="0.3">
			<polygon fill="#EAE5DF" points="52.477,110.687 52.477,110.687 56.882,76.948 45.866,70.901 17.69,152.571 19.218,153.37 
				29.047,158.823 52.477,86.256 			"/>
		</g>
		<g opacity="0.3">
			<polygon fill="#EAE5DF" points="135.583,110.687 135.583,110.687 131.178,76.948 142.193,70.901 170.37,152.571 168.841,153.37 
				159.012,158.823 135.583,86.256 			"/>
		</g>
	</g>
	<polygon fill="#5B96DD" points="97.692,36.341 102.873,31.695 107.901,41.218 95.864,44.95 	"/>
	<polygon fill="#5B96DD" points="90.075,36.341 84.896,31.695 79.868,41.218 91.903,44.95 	"/>
	<g>
		<g>
			<polygon fill="#F7F4F2" points="94.028,41.884 85.833,33.065 87.81,31.302 94.028,37.907 101.16,30.267 103.136,32.03 			"/>
		</g>
		<rect x="91.711" y="39.233" fill="#F7F4F2" width="4.471" height="122.816"/>
		<g opacity="0.8">
			<g>
				<path fill="#EAE5DF" d="M78.19,23.315c0,0-5.904,1.545-11.961,3.428l13.33,23.505l13.576-14.505l0.893,2.164L86.76,30.05
					L78.19,23.315z"/>
			</g>
			<g>
				<path fill="#EAE5DF" d="M109.882,23.315l-8.325,6.559l-7.699,8.262l1.063-2.393l13.58,14.505l13.417-23.505
					C115.978,24.898,109.882,23.315,109.882,23.315z"/>
			</g>
		</g>
		<rect x="76.313" y="17.874" fill="#EAE5DF" width="35.517" height="9.189"/>
		<polygon fill="#F7F6F5" points="67.372,25.491 79.56,46.619 89.75,33.409 76.313,17.874 		"/>
		<polygon fill="#EFEAE6" points="120.688,25.491 108.501,46.619 98.035,33.694 111.747,17.874 		"/>
	</g>
	<g>
		<circle fill="#D5D4DD" cx="93.922" cy="41.751" r="1.429"/>
		<circle fill="#D5D4DD" cx="93.922" cy="58.239" r="1.429"/>
		<circle fill="#D5D4DD" cx="93.922" cy="74.726" r="1.429"/>
		<circle fill="#D5D4DD" cx="93.922" cy="91.214" r="1.429"/>
		<circle fill="#D5D4DD" cx="93.922" cy="107.702" r="1.429"/>
		<circle fill="#D5D4DD" cx="93.922" cy="124.19" r="1.429"/>
		<circle fill="#D5D4DD" cx="93.922" cy="140.677" r="1.429"/>
		<circle fill="#D5D4DD" cx="93.922" cy="157.165" r="1.429"/>
	</g>
	<g>
		
			<rect x="167.844" y="138.675" transform="matrix(0.372 0.9283 -0.9283 0.372 250.7855 -63.9391)" fill="#F7F4F2" width="9.599" height="29.371"/>
	</g>
	<g>
		
			<rect x="0.73" y="148.561" transform="matrix(0.9282 0.372 -0.372 0.9282 58.1561 5.2716)" fill="#F7F4F2" width="29.371" height="9.599"/>
	</g>
	<g>
		<rect x="52.477" y="160.587" fill="#F7F4F2" width="83.106" height="9.6"/>
	</g>
	<g>
		<path fill="#6A9EEA" d="M99.717,56.556c-0.438-2.752-2.458-11.143-3.447-11.138l-0.888,0.003l-3.709,0.018h-0.116
			c-0.991,0.004-2.935,8.411-3.351,11.168c-0.412,2.755-3.962,73.896-3.962,73.896c-0.063,0.986,0.566,2.23,1.403,2.76l7.027,6.775
			c0.434,0.273,1.007,0.402,1.575,0.391c0.569,0.008,1.142-0.127,1.572-0.404l6.97-6.836c0.83-0.539,1.451-1.787,1.377-2.773
			C104.169,130.415,100.155,59.307,99.717,56.556z"/>
		<path opacity="0.2" fill="#9D3559" d="M96.27,45.418l-0.888,0.003l-3.709,0.018h-0.116c-0.646,0.003-1.697,3.572-2.464,6.823
			c0.289,0.009,2.445-4.243,2.661-4.239c1.476,0.02,3.14,0.096,4.557-0.021c0.264-0.021,2.095,3.985,2.42,3.967
			C97.941,48.794,96.898,45.415,96.27,45.418z"/>
		<path fill="#6A9EEA" d="M97.268,44.552c-0.169,0.809-0.985,1.474-1.812,1.477l-3.178,0.015c-0.828,0.005-1.649-0.653-1.827-1.462
			l-1.586-7.225c-0.178-0.81,0.354-1.475,1.18-1.477l7.554-0.033c0.827-0.004,1.364,0.656,1.194,1.465L97.268,44.552z"/>
	</g>
</g>
</svg>
