<?xml version="1.0" encoding="utf-8"?>
<!-- Generator: Adobe Illustrator 16.0.0, SVG Export Plug-In . SVG Version: 6.00 Build 0)  -->
<!DOCTYPE svg PUBLIC "-//W3C//DTD SVG 1.1//EN" "http://www.w3.org/Graphics/SVG/1.1/DTD/svg11.dtd">
<svg version="1.1" xmlns="http://www.w3.org/2000/svg" xmlns:xlink="http://www.w3.org/1999/xlink" x="0px" y="0px"
	 width="125.91px" height="120.448px" viewBox="0 0 125.91 120.448" enable-background="new 0 0 125.91 120.448"
	 xml:space="preserve">
<g>
	<g>
		<circle fill="#F2EFEF" cx="60.224" cy="60.224" r="60.224"/>
		<circle fill="#BF2026" cx="60.224" cy="60.224" r="56.38"/>
		<circle fill="#F2EFEF" cx="60.224" cy="60.224" r="42.285"/>
		<circle fill="#721012" cx="60.224" cy="60.224" r="28.272"/>
		<circle fill="#F2EFEF" cx="60.224" cy="60.224" r="9.692"/>
	</g>
	<g>
		<path fill="#3D3938" d="M67.634,54.22c-0.033,0.019-0.073,0.043-0.101,0.071l-8.024,6.418c-0.718,0.616,0.097,2.024,0.989,1.708
			l9.563-3.757c0.038-0.01,0.079-0.032,0.112-0.053l5.625-3.108l-2.651-4.586L67.634,54.22z"/>
		<path fill="#FAAB18" d="M72.987,50.522l0.209,0.36l-0.05,0.029l2.651,4.586l0.053-0.029l0.195,0.341
			c0.48,0.829,1.42,1.18,2.101,0.786l10.692-6.187c0.665-0.426,0.821-1.423,0.348-2.242l-0.052-0.09L89.2,48.04l-2.909-5.029
			l-0.065,0.038l-0.081-0.139c-0.48-0.83-1.417-1.182-2.101-0.786L73.353,48.31C72.672,48.705,72.508,49.693,72.987,50.522z"/>
		<path fill="#3D3938" d="M89.2,48.04l15.068-8.333l-1.089-0.463c-0.758-0.322-1.388-0.918-1.805-1.637
			c-0.416-0.72-0.62-1.563-0.52-2.38l0.12-1.044l-14.683,8.827L89.2,48.04z"/>
		<path fill="#FAAB18" d="M99.509,34.938l-0.469,4.007l3.839,1.646l5.545,2.381c0.333,0.141,0.678,0.128,0.957-0.033l16.018-9.267
			c0.592-0.343,0.645-1.161,0.286-1.78c-0.162-0.281-0.405-0.513-0.718-0.652l-6.189-2.663c-0.307-0.129-0.556-0.37-0.724-0.66
			c-0.167-0.291-0.253-0.627-0.214-0.958l0.779-6.693c0.041-0.345-0.047-0.667-0.209-0.945c-0.357-0.621-1.094-0.981-1.686-0.64
			l-16.017,9.268c-0.279,0.162-0.463,0.453-0.506,0.813L99.509,34.938z"/>
	</g>
</g>
</svg>
