<?xml version="1.0" encoding="utf-8"?>
<!-- Generator: Adobe Illustrator 16.0.0, SVG Export Plug-In . SVG Version: 6.00 Build 0)  -->
<!DOCTYPE svg PUBLIC "-//W3C//DTD SVG 1.1//EN" "http://www.w3.org/Graphics/SVG/1.1/DTD/svg11.dtd">
<svg version="1.1" xmlns="http://www.w3.org/2000/svg" xmlns:xlink="http://www.w3.org/1999/xlink" x="0px" y="0px"
	 width="263.83px" height="263.83px" viewBox="0 0 263.83 263.83" enable-background="new 0 0 263.83 263.83" xml:space="preserve">
<g>
	<g>
		<g>
			<path fill="#F4C9D5" d="M157.082,3.124c0,0-32.768,36.7-81.521,48.731c0,0-3.52,21.907,18.152,34.68
				c0,0,10.867,18.179,4.377,39.631c0,0-79.75,59.649-98.092,115.436c0,0,27.377,19.104,130.439,19.104c0,0,77.842,0,133.395-14.99
				c0,0-38.696-76.717-101.481-120.455c0,0-3.541-19.488,5.117-39.357c0.67-1.534,9.066-2.353,12.504-16.902
				c0.951-4.02,2.688-11.883-5.564-24.082c0,0-13.398-24.212-2.99-37.365L157.082,3.124z"/>
			<g>
				<defs>
					<path id="SVGID_1_" d="M157.082,3.124c0,0-32.768,36.7-81.521,48.731c0,0-3.52,21.907,18.152,34.68
						c0,0,10.867,18.179,4.377,39.631c0,0-79.75,59.649-98.092,115.436c0,0,27.377,19.104,130.439,19.104
						c0,0,77.842,0,133.395-14.99c0,0-38.696-76.717-101.481-120.455c0,0-3.541-19.488,5.117-39.357
						c0.67-1.534,9.066-2.353,12.504-16.902c0.951-4.02,2.688-11.883-5.564-24.082c0,0-13.398-24.212-2.99-37.365L157.082,3.124z"/>
				</defs>
				<clipPath id="SVGID_2_">
					<use xlink:href="#SVGID_1_"  overflow="visible"/>
				</clipPath>
				<g clip-path="url(#SVGID_2_)">
					<g>
						<g>
							<circle fill="#EEEDE7" cx="-48.743" cy="-46.066" r="4.898"/>
							<circle fill="#EEEDE7" cx="-12.009" cy="-46.066" r="4.897"/>
							<circle fill="#EEEDE7" cx="24.722" cy="-46.066" r="4.898"/>
							<circle fill="#EEEDE7" cx="61.456" cy="-46.066" r="4.897"/>
							<circle fill="#EEEDE7" cx="98.189" cy="-46.066" r="4.898"/>
							<circle fill="#EEEDE7" cx="134.921" cy="-46.066" r="4.896"/>
							<circle fill="#EEEDE7" cx="171.654" cy="-46.066" r="4.898"/>
							<circle fill="#EEEDE7" cx="208.387" cy="-46.066" r="4.897"/>
							<circle fill="#EEEDE7" cx="245.121" cy="-46.066" r="4.898"/>
							<path fill="#EEEDE7" d="M286.75-46.066c0,2.704-2.191,4.896-4.898,4.896c-2.703,0-4.895-2.192-4.895-4.896
								c0-2.706,2.191-4.898,4.895-4.898C284.559-50.965,286.75-48.772,286.75-46.066z"/>
							<circle fill="#EEEDE7" cx="318.585" cy="-46.066" r="4.897"/>
							<circle fill="#EEEDE7" cx="355.318" cy="-46.066" r="4.898"/>
						</g>
						<circle fill="#EEEDE7" cx="392.053" cy="-46.066" r="4.898"/>
					</g>
					<g>
						<g>
							<circle fill="#EEEDE7" cx="-67.109" cy="-21.578" r="4.897"/>
							<circle fill="#EEEDE7" cx="-30.376" cy="-21.578" r="4.897"/>
							<circle fill="#EEEDE7" cx="6.357" cy="-21.578" r="4.896"/>
							<circle fill="#EEEDE7" cx="43.09" cy="-21.578" r="4.897"/>
							<circle fill="#EEEDE7" cx="79.823" cy="-21.578" r="4.897"/>
							<circle fill="#EEEDE7" cx="116.555" cy="-21.578" r="4.897"/>
							<circle fill="#EEEDE7" cx="153.289" cy="-21.578" r="4.896"/>
							<circle fill="#EEEDE7" cx="190.02" cy="-21.578" r="4.897"/>
							<circle fill="#EEEDE7" cx="226.754" cy="-21.578" r="4.897"/>
							<circle fill="#EEEDE7" cx="263.487" cy="-21.578" r="4.897"/>
							<circle fill="#EEEDE7" cx="300.221" cy="-21.578" r="4.896"/>
							<circle fill="#EEEDE7" cx="336.951" cy="-21.578" r="4.898"/>
						</g>
						<circle fill="#EEEDE7" cx="373.686" cy="-21.578" r="4.898"/>
					</g>
					<g>
						<g>
							<circle fill="#EEEDE7" cx="-48.743" cy="2.909" r="4.898"/>
							<circle fill="#EEEDE7" cx="-12.009" cy="2.909" r="4.897"/>
							<circle fill="#EEEDE7" cx="24.722" cy="2.909" r="4.898"/>
							<circle fill="#EEEDE7" cx="61.456" cy="2.909" r="4.897"/>
							<circle fill="#EEEDE7" cx="98.189" cy="2.909" r="4.898"/>
							<circle fill="#EEEDE7" cx="134.921" cy="2.909" r="4.896"/>
							<circle fill="#EEEDE7" cx="171.654" cy="2.909" r="4.898"/>
							<circle fill="#EEEDE7" cx="208.387" cy="2.909" r="4.897"/>
							<circle fill="#EEEDE7" cx="245.121" cy="2.909" r="4.898"/>
							<path fill="#EEEDE7" d="M286.75,2.909c0,2.705-2.191,4.897-4.898,4.897c-2.703,0-4.895-2.192-4.895-4.897
								c0-2.704,2.191-4.896,4.895-4.896C284.559-1.987,286.75,0.205,286.75,2.909z"/>
							<circle fill="#EEEDE7" cx="318.585" cy="2.909" r="4.897"/>
							<circle fill="#EEEDE7" cx="355.318" cy="2.909" r="4.898"/>
						</g>
						<circle fill="#EEEDE7" cx="392.053" cy="2.909" r="4.898"/>
					</g>
					<g>
						<g>
							<circle fill="#EEEDE7" cx="-67.109" cy="27.399" r="4.897"/>
							<circle fill="#EEEDE7" cx="-30.376" cy="27.399" r="4.897"/>
							<circle fill="#EEEDE7" cx="6.357" cy="27.399" r="4.896"/>
							<circle fill="#EEEDE7" cx="43.09" cy="27.399" r="4.897"/>
							<circle fill="#EEEDE7" cx="79.823" cy="27.399" r="4.897"/>
							<circle fill="#EEEDE7" cx="116.555" cy="27.399" r="4.897"/>
							<circle fill="#EEEDE7" cx="153.289" cy="27.399" r="4.896"/>
							<circle fill="#EEEDE7" cx="190.02" cy="27.399" r="4.897"/>
							<circle fill="#EEEDE7" cx="226.754" cy="27.399" r="4.897"/>
							<circle fill="#EEEDE7" cx="263.487" cy="27.399" r="4.897"/>
							<circle fill="#EEEDE7" cx="300.221" cy="27.399" r="4.896"/>
							<circle fill="#EEEDE7" cx="336.951" cy="27.399" r="4.898"/>
						</g>
						<circle fill="#EEEDE7" cx="373.686" cy="27.399" r="4.898"/>
					</g>
					<g>
						<g>
							<circle fill="#EEEDE7" cx="-48.743" cy="51.887" r="4.898"/>
							<circle fill="#EEEDE7" cx="-12.009" cy="51.887" r="4.897"/>
							<circle fill="#EEEDE7" cx="24.722" cy="51.887" r="4.898"/>
							<circle fill="#EEEDE7" cx="61.456" cy="51.887" r="4.897"/>
							<circle fill="#EEEDE7" cx="98.189" cy="51.887" r="4.898"/>
							<circle fill="#EEEDE7" cx="134.921" cy="51.887" r="4.896"/>
							<circle fill="#EEEDE7" cx="171.654" cy="51.887" r="4.898"/>
							<circle fill="#EEEDE7" cx="208.387" cy="51.887" r="4.897"/>
							<circle fill="#EEEDE7" cx="245.121" cy="51.887" r="4.898"/>
							<path fill="#EEEDE7" d="M286.75,51.887c0,2.703-2.191,4.898-4.898,4.898c-2.703,0-4.895-2.195-4.895-4.898
								c0-2.705,2.191-4.897,4.895-4.897C284.559,46.989,286.75,49.182,286.75,51.887z"/>
							<circle fill="#EEEDE7" cx="318.585" cy="51.887" r="4.897"/>
							<circle fill="#EEEDE7" cx="355.318" cy="51.887" r="4.898"/>
						</g>
						<circle fill="#EEEDE7" cx="392.053" cy="51.887" r="4.898"/>
					</g>
					<g>
						<g>
							<circle fill="#EEEDE7" cx="-67.109" cy="76.376" r="4.897"/>
							<circle fill="#EEEDE7" cx="-30.376" cy="76.376" r="4.897"/>
							<circle fill="#EEEDE7" cx="6.357" cy="76.376" r="4.896"/>
							<circle fill="#EEEDE7" cx="43.09" cy="76.376" r="4.897"/>
							<circle fill="#EEEDE7" cx="79.823" cy="76.376" r="4.897"/>
							<circle fill="#EEEDE7" cx="116.555" cy="76.376" r="4.897"/>
							<circle fill="#EEEDE7" cx="153.289" cy="76.376" r="4.896"/>
							<circle fill="#EEEDE7" cx="190.02" cy="76.376" r="4.897"/>
							<circle fill="#EEEDE7" cx="226.754" cy="76.376" r="4.897"/>
							<circle fill="#EEEDE7" cx="263.487" cy="76.376" r="4.897"/>
							<circle fill="#EEEDE7" cx="300.221" cy="76.376" r="4.896"/>
							<circle fill="#EEEDE7" cx="336.951" cy="76.376" r="4.898"/>
						</g>
						<circle fill="#EEEDE7" cx="373.686" cy="76.376" r="4.898"/>
					</g>
					<g>
						<g>
							<path fill="#EEEDE7" d="M-43.844,100.864c0,2.703-2.193,4.896-4.898,4.896c-2.703,0-4.898-2.193-4.898-4.896
								c0-2.707,2.195-4.898,4.898-4.898C-46.038,95.966-43.844,98.157-43.844,100.864z"/>
							<path fill="#EEEDE7" d="M-7.112,100.864c0,2.703-2.191,4.896-4.898,4.896c-2.705,0-4.896-2.193-4.896-4.896
								c0-2.707,2.191-4.898,4.896-4.898C-9.303,95.966-7.112,98.157-7.112,100.864z"/>
							<path fill="#EEEDE7" d="M29.621,100.864c0,2.703-2.193,4.896-4.898,4.896s-4.898-2.193-4.898-4.896
								c0-2.707,2.193-4.898,4.898-4.898S29.621,98.157,29.621,100.864z"/>
							<path fill="#EEEDE7" d="M66.353,100.864c0,2.703-2.191,4.896-4.896,4.896s-4.898-2.193-4.898-4.896
								c0-2.707,2.193-4.898,4.898-4.898S66.353,98.157,66.353,100.864z"/>
							<path fill="#EEEDE7" d="M103.087,100.864c0,2.703-2.193,4.896-4.898,4.896s-4.898-2.193-4.898-4.896
								c0-2.707,2.193-4.898,4.898-4.898S103.087,98.157,103.087,100.864z"/>
							<path fill="#EEEDE7" d="M139.818,100.864c0,2.703-2.191,4.896-4.896,4.896s-4.896-2.193-4.896-4.896
								c0-2.707,2.191-4.898,4.896-4.898S139.818,98.157,139.818,100.864z"/>
							<path fill="#EEEDE7" d="M176.552,100.864c0,2.703-2.193,4.896-4.898,4.896s-4.898-2.193-4.898-4.896
								c0-2.707,2.193-4.898,4.898-4.898S176.552,98.157,176.552,100.864z"/>
							<path fill="#EEEDE7" d="M213.285,100.864c0,2.703-2.193,4.896-4.896,4.896c-2.707,0-4.898-2.193-4.898-4.896
								c0-2.707,2.191-4.898,4.898-4.898C211.091,95.966,213.285,98.157,213.285,100.864z"/>
							<path fill="#EEEDE7" d="M250.02,100.864c0,2.703-2.193,4.896-4.898,4.896s-4.898-2.193-4.898-4.896
								c0-2.707,2.193-4.898,4.898-4.898S250.02,98.157,250.02,100.864z"/>
							<path fill="#EEEDE7" d="M286.75,100.864c0,2.703-2.191,4.896-4.898,4.896c-2.703,0-4.895-2.193-4.895-4.896
								c0-2.707,2.191-4.898,4.895-4.898C284.559,95.966,286.75,98.157,286.75,100.864z"/>
							<path fill="#EEEDE7" d="M323.482,100.864c0,2.703-2.193,4.896-4.896,4.896c-2.705,0-4.898-2.193-4.898-4.896
								c0-2.707,2.193-4.898,4.898-4.898C321.289,95.966,323.482,98.157,323.482,100.864z"/>
							<path fill="#EEEDE7" d="M360.217,100.864c0,2.703-2.193,4.896-4.898,4.896s-4.898-2.193-4.898-4.896
								c0-2.707,2.193-4.898,4.898-4.898S360.217,98.157,360.217,100.864z"/>
						</g>
						<path fill="#EEEDE7" d="M396.951,100.864c0,2.703-2.195,4.896-4.9,4.896c-2.703,0-4.896-2.193-4.896-4.896
							c0-2.707,2.193-4.898,4.896-4.898C394.756,95.966,396.951,98.157,396.951,100.864z"/>
					</g>
					<g>
						<g>
							<path fill="#EEEDE7" d="M-62.211,125.353c0,2.706-2.191,4.896-4.896,4.896s-4.898-2.19-4.898-4.896
								c0-2.707,2.193-4.897,4.898-4.897S-62.211,122.646-62.211,125.353z"/>
							<path fill="#EEEDE7" d="M-25.479,125.353c0,2.706-2.191,4.896-4.896,4.896c-2.707,0-4.898-2.19-4.898-4.896
								c0-2.707,2.191-4.897,4.898-4.897C-27.67,120.455-25.479,122.646-25.479,125.353z"/>
							<path fill="#EEEDE7" d="M11.253,125.353c0,2.706-2.193,4.896-4.896,4.896c-2.705,0-4.896-2.19-4.896-4.896
								c0-2.707,2.191-4.897,4.896-4.897C9.06,120.455,11.253,122.646,11.253,125.353z"/>
							<path fill="#EEEDE7" d="M47.988,125.353c0,2.706-2.193,4.896-4.898,4.896s-4.896-2.19-4.896-4.896
								c0-2.707,2.191-4.897,4.896-4.897S47.988,122.646,47.988,125.353z"/>
							<path fill="#EEEDE7" d="M84.72,125.353c0,2.706-2.193,4.896-4.898,4.896c-2.703,0-4.896-2.19-4.896-4.896
								c0-2.707,2.193-4.897,4.896-4.897C82.527,120.455,84.72,122.646,84.72,125.353z"/>
							<path fill="#EEEDE7" d="M121.453,125.353c0,2.706-2.191,4.896-4.896,4.896c-2.707,0-4.898-2.19-4.898-4.896
								c0-2.707,2.191-4.897,4.898-4.897C119.261,120.455,121.453,122.646,121.453,125.353z"/>
							<path fill="#EEEDE7" d="M158.185,125.353c0,2.706-2.193,4.896-4.898,4.896c-2.703,0-4.895-2.19-4.895-4.896
								c0-2.707,2.191-4.897,4.895-4.897C155.992,120.455,158.185,122.646,158.185,125.353z"/>
							<path fill="#EEEDE7" d="M194.917,125.353c0,2.706-2.191,4.896-4.896,4.896s-4.898-2.19-4.898-4.896
								c0-2.707,2.193-4.897,4.898-4.897S194.917,122.646,194.917,125.353z"/>
							<path fill="#EEEDE7" d="M231.652,125.353c0,2.706-2.193,4.896-4.898,4.896s-4.896-2.19-4.896-4.896
								c0-2.707,2.191-4.897,4.896-4.897S231.652,122.646,231.652,125.353z"/>
							<path fill="#EEEDE7" d="M268.385,125.353c0,2.706-2.193,4.896-4.898,4.896s-4.896-2.19-4.896-4.896
								c0-2.707,2.191-4.897,4.896-4.897S268.385,122.646,268.385,125.353z"/>
							<path fill="#EEEDE7" d="M305.117,125.353c0,2.706-2.193,4.896-4.898,4.896c-2.703,0-4.895-2.19-4.895-4.896
								c0-2.707,2.191-4.897,4.895-4.897C302.924,120.455,305.117,122.646,305.117,125.353z"/>
							<path fill="#EEEDE7" d="M341.85,125.353c0,2.706-2.193,4.896-4.898,4.896c-2.703,0-4.898-2.19-4.898-4.896
								c0-2.707,2.195-4.897,4.898-4.897C339.656,120.455,341.85,122.646,341.85,125.353z"/>
						</g>
						<path fill="#EEEDE7" d="M378.584,125.353c0,2.706-2.193,4.896-4.898,4.896s-4.898-2.19-4.898-4.896
							c0-2.707,2.193-4.897,4.898-4.897S378.584,122.646,378.584,125.353z"/>
					</g>
					<g>
						<g>
							<circle fill="#EEEDE7" cx="-48.743" cy="149.84" r="4.898"/>
							<circle fill="#EEEDE7" cx="-12.009" cy="149.84" r="4.897"/>
							<circle fill="#EEEDE7" cx="24.722" cy="149.84" r="4.898"/>
							<circle fill="#EEEDE7" cx="61.456" cy="149.84" r="4.897"/>
							<circle fill="#EEEDE7" cx="98.189" cy="149.84" r="4.898"/>
							<circle fill="#EEEDE7" cx="134.921" cy="149.84" r="4.896"/>
							<circle fill="#EEEDE7" cx="171.654" cy="149.84" r="4.898"/>
							<circle fill="#EEEDE7" cx="208.387" cy="149.84" r="4.897"/>
							<circle fill="#EEEDE7" cx="245.121" cy="149.84" r="4.898"/>
							<path fill="#EEEDE7" d="M286.75,149.84c0,2.705-2.191,4.897-4.898,4.897c-2.703,0-4.895-2.192-4.895-4.897
								c0-2.704,2.191-4.896,4.895-4.896C284.559,144.943,286.75,147.136,286.75,149.84z"/>
							<circle fill="#EEEDE7" cx="318.585" cy="149.84" r="4.897"/>
							<circle fill="#EEEDE7" cx="355.318" cy="149.84" r="4.898"/>
						</g>
						<circle fill="#EEEDE7" cx="392.053" cy="149.84" r="4.898"/>
					</g>
					<g>
						<g>
							<path fill="#EEEDE7" d="M-62.211,174.331c0,2.703-2.191,4.896-4.896,4.896s-4.898-2.193-4.898-4.896
								c0-2.707,2.193-4.898,4.898-4.898S-62.211,171.624-62.211,174.331z"/>
							<path fill="#EEEDE7" d="M-25.479,174.331c0,2.703-2.191,4.896-4.896,4.896c-2.707,0-4.898-2.193-4.898-4.896
								c0-2.707,2.191-4.898,4.898-4.898C-27.67,169.432-25.479,171.624-25.479,174.331z"/>
							<path fill="#EEEDE7" d="M11.253,174.331c0,2.703-2.193,4.896-4.896,4.896c-2.705,0-4.896-2.193-4.896-4.896
								c0-2.707,2.191-4.898,4.896-4.898C9.06,169.432,11.253,171.624,11.253,174.331z"/>
							<path fill="#EEEDE7" d="M47.988,174.331c0,2.703-2.193,4.896-4.898,4.896s-4.896-2.193-4.896-4.896
								c0-2.707,2.191-4.898,4.896-4.898S47.988,171.624,47.988,174.331z"/>
							<path fill="#EEEDE7" d="M84.72,174.331c0,2.703-2.193,4.896-4.898,4.896c-2.703,0-4.896-2.193-4.896-4.896
								c0-2.707,2.193-4.898,4.896-4.898C82.527,169.432,84.72,171.624,84.72,174.331z"/>
							<path fill="#EEEDE7" d="M121.453,174.331c0,2.703-2.191,4.896-4.896,4.896c-2.707,0-4.898-2.193-4.898-4.896
								c0-2.707,2.191-4.898,4.898-4.898C119.261,169.432,121.453,171.624,121.453,174.331z"/>
							<path fill="#EEEDE7" d="M158.185,174.331c0,2.703-2.193,4.896-4.898,4.896c-2.703,0-4.895-2.193-4.895-4.896
								c0-2.707,2.191-4.898,4.895-4.898C155.992,169.432,158.185,171.624,158.185,174.331z"/>
							<path fill="#EEEDE7" d="M194.917,174.331c0,2.703-2.191,4.896-4.896,4.896s-4.898-2.193-4.898-4.896
								c0-2.707,2.193-4.898,4.898-4.898S194.917,171.624,194.917,174.331z"/>
							<path fill="#EEEDE7" d="M231.652,174.331c0,2.703-2.193,4.896-4.898,4.896s-4.896-2.193-4.896-4.896
								c0-2.707,2.191-4.898,4.896-4.898S231.652,171.624,231.652,174.331z"/>
							<path fill="#EEEDE7" d="M268.385,174.331c0,2.703-2.193,4.896-4.898,4.896s-4.896-2.193-4.896-4.896
								c0-2.707,2.191-4.898,4.896-4.898S268.385,171.624,268.385,174.331z"/>
							<path fill="#EEEDE7" d="M305.117,174.331c0,2.703-2.193,4.896-4.898,4.896c-2.703,0-4.895-2.193-4.895-4.896
								c0-2.707,2.191-4.898,4.895-4.898C302.924,169.432,305.117,171.624,305.117,174.331z"/>
							<path fill="#EEEDE7" d="M341.85,174.331c0,2.703-2.193,4.896-4.898,4.896c-2.703,0-4.898-2.193-4.898-4.896
								c0-2.707,2.195-4.898,4.898-4.898C339.656,169.432,341.85,171.624,341.85,174.331z"/>
						</g>
						<path fill="#EEEDE7" d="M378.584,174.331c0,2.703-2.193,4.896-4.898,4.896s-4.898-2.193-4.898-4.896
							c0-2.707,2.193-4.898,4.898-4.898S378.584,171.624,378.584,174.331z"/>
					</g>
					<g>
						<g>
							<path fill="#EEEDE7" d="M-43.844,198.819c0,2.701-2.193,4.898-4.898,4.898c-2.703,0-4.898-2.197-4.898-4.898
								c0-2.705,2.195-4.9,4.898-4.9C-46.038,193.918-43.844,196.114-43.844,198.819z"/>
							<path fill="#EEEDE7" d="M-7.112,198.819c0,2.701-2.191,4.898-4.898,4.898c-2.705,0-4.896-2.197-4.896-4.898
								c0-2.705,2.191-4.9,4.896-4.9C-9.303,193.918-7.112,196.114-7.112,198.819z"/>
							<path fill="#EEEDE7" d="M29.621,198.819c0,2.701-2.193,4.898-4.898,4.898s-4.898-2.197-4.898-4.898
								c0-2.705,2.193-4.9,4.898-4.9S29.621,196.114,29.621,198.819z"/>
							<path fill="#EEEDE7" d="M66.353,198.819c0,2.701-2.191,4.898-4.896,4.898s-4.898-2.197-4.898-4.898
								c0-2.705,2.193-4.9,4.898-4.9S66.353,196.114,66.353,198.819z"/>
							<path fill="#EEEDE7" d="M103.087,198.819c0,2.701-2.193,4.898-4.898,4.898s-4.898-2.197-4.898-4.898
								c0-2.705,2.193-4.9,4.898-4.9S103.087,196.114,103.087,198.819z"/>
							<path fill="#EEEDE7" d="M139.818,198.819c0,2.701-2.191,4.898-4.896,4.898s-4.896-2.197-4.896-4.898
								c0-2.705,2.191-4.9,4.896-4.9S139.818,196.114,139.818,198.819z"/>
							<path fill="#EEEDE7" d="M176.552,198.819c0,2.701-2.193,4.898-4.898,4.898s-4.898-2.197-4.898-4.898
								c0-2.705,2.193-4.9,4.898-4.9S176.552,196.114,176.552,198.819z"/>
							<path fill="#EEEDE7" d="M213.285,198.819c0,2.701-2.193,4.898-4.896,4.898c-2.707,0-4.898-2.197-4.898-4.898
								c0-2.705,2.191-4.9,4.898-4.9C211.091,193.918,213.285,196.114,213.285,198.819z"/>
							<path fill="#EEEDE7" d="M250.02,198.819c0,2.701-2.193,4.898-4.898,4.898s-4.898-2.197-4.898-4.898
								c0-2.705,2.193-4.9,4.898-4.9S250.02,196.114,250.02,198.819z"/>
							<path fill="#EEEDE7" d="M286.75,198.819c0,2.701-2.191,4.898-4.898,4.898c-2.703,0-4.895-2.197-4.895-4.898
								c0-2.705,2.191-4.9,4.895-4.9C284.559,193.918,286.75,196.114,286.75,198.819z"/>
							<path fill="#EEEDE7" d="M323.482,198.819c0,2.701-2.193,4.898-4.896,4.898c-2.705,0-4.898-2.197-4.898-4.898
								c0-2.705,2.193-4.9,4.898-4.9C321.289,193.918,323.482,196.114,323.482,198.819z"/>
							<path fill="#EEEDE7" d="M360.217,198.819c0,2.701-2.193,4.898-4.898,4.898s-4.898-2.197-4.898-4.898
								c0-2.705,2.193-4.9,4.898-4.9S360.217,196.114,360.217,198.819z"/>
						</g>
						<path fill="#EEEDE7" d="M396.951,198.819c0,2.701-2.195,4.898-4.9,4.898c-2.703,0-4.896-2.197-4.896-4.898
							c0-2.705,2.193-4.9,4.896-4.9C394.756,193.918,396.951,196.114,396.951,198.819z"/>
					</g>
					<g>
						<g>
							<circle fill="#EEEDE7" cx="-67.109" cy="223.305" r="4.897"/>
							<circle fill="#EEEDE7" cx="-30.376" cy="223.305" r="4.897"/>
							<circle fill="#EEEDE7" cx="6.357" cy="223.305" r="4.896"/>
							<circle fill="#EEEDE7" cx="43.09" cy="223.305" r="4.897"/>
							<circle fill="#EEEDE7" cx="79.823" cy="223.305" r="4.897"/>
							<circle fill="#EEEDE7" cx="116.555" cy="223.305" r="4.897"/>
							<circle fill="#EEEDE7" cx="153.289" cy="223.305" r="4.896"/>
							<circle fill="#EEEDE7" cx="190.02" cy="223.305" r="4.897"/>
							<circle fill="#EEEDE7" cx="226.754" cy="223.305" r="4.897"/>
							<circle fill="#EEEDE7" cx="263.487" cy="223.305" r="4.897"/>
							<circle fill="#EEEDE7" cx="300.221" cy="223.305" r="4.896"/>
							<circle fill="#EEEDE7" cx="336.951" cy="223.305" r="4.898"/>
						</g>
						<circle fill="#EEEDE7" cx="373.686" cy="223.305" r="4.898"/>
					</g>
					<g>
						<g>
							<circle fill="#EEEDE7" cx="-48.743" cy="247.795" r="4.898"/>
							<circle fill="#EEEDE7" cx="-12.009" cy="247.795" r="4.897"/>
							<circle fill="#EEEDE7" cx="24.722" cy="247.795" r="4.898"/>
							<circle fill="#EEEDE7" cx="61.456" cy="247.795" r="4.897"/>
							<circle fill="#EEEDE7" cx="98.189" cy="247.795" r="4.898"/>
							<circle fill="#EEEDE7" cx="134.921" cy="247.795" r="4.896"/>
							<circle fill="#EEEDE7" cx="171.654" cy="247.795" r="4.898"/>
							<circle fill="#EEEDE7" cx="208.387" cy="247.795" r="4.897"/>
							<circle fill="#EEEDE7" cx="245.121" cy="247.795" r="4.898"/>
							<path fill="#EEEDE7" d="M286.75,247.795c0,2.703-2.191,4.896-4.898,4.896c-2.703,0-4.895-2.193-4.895-4.896
								c0-2.705,2.191-4.896,4.895-4.896C284.559,242.899,286.75,245.09,286.75,247.795z"/>
							<circle fill="#EEEDE7" cx="318.585" cy="247.795" r="4.897"/>
							<circle fill="#EEEDE7" cx="355.318" cy="247.795" r="4.898"/>
						</g>
						<circle fill="#EEEDE7" cx="392.053" cy="247.795" r="4.898"/>
					</g>
					<g>
						<g>
							<circle fill="#EEEDE7" cx="-67.109" cy="272.282" r="4.897"/>
							<circle fill="#EEEDE7" cx="-30.376" cy="272.282" r="4.897"/>
							<circle fill="#EEEDE7" cx="6.357" cy="272.282" r="4.896"/>
							<circle fill="#EEEDE7" cx="43.09" cy="272.282" r="4.897"/>
							<circle fill="#EEEDE7" cx="79.823" cy="272.282" r="4.897"/>
							<circle fill="#EEEDE7" cx="116.555" cy="272.282" r="4.897"/>
							<circle fill="#EEEDE7" cx="153.289" cy="272.282" r="4.896"/>
							<circle fill="#EEEDE7" cx="190.02" cy="272.282" r="4.897"/>
							<circle fill="#EEEDE7" cx="226.754" cy="272.282" r="4.897"/>
							<circle fill="#EEEDE7" cx="263.487" cy="272.282" r="4.897"/>
							<circle fill="#EEEDE7" cx="300.221" cy="272.282" r="4.896"/>
							<circle fill="#EEEDE7" cx="336.951" cy="272.282" r="4.898"/>
						</g>
						<circle fill="#EEEDE7" cx="373.686" cy="272.282" r="4.898"/>
					</g>
					<g>
						<g>
							<circle fill="#EEEDE7" cx="-48.743" cy="296.772" r="4.898"/>
							<circle fill="#EEEDE7" cx="-12.009" cy="296.772" r="4.897"/>
							<circle fill="#EEEDE7" cx="24.722" cy="296.772" r="4.898"/>
							<circle fill="#EEEDE7" cx="61.456" cy="296.772" r="4.897"/>
							<circle fill="#EEEDE7" cx="98.189" cy="296.772" r="4.898"/>
							<circle fill="#EEEDE7" cx="134.921" cy="296.772" r="4.896"/>
							<circle fill="#EEEDE7" cx="171.654" cy="296.772" r="4.898"/>
							<circle fill="#EEEDE7" cx="208.387" cy="296.772" r="4.897"/>
							<circle fill="#EEEDE7" cx="245.121" cy="296.772" r="4.898"/>
							<path fill="#EEEDE7" d="M286.75,296.772c0,2.705-2.191,4.896-4.898,4.896c-2.703,0-4.895-2.191-4.895-4.896
								c0-2.703,2.191-4.898,4.895-4.898C284.559,291.874,286.75,294.069,286.75,296.772z"/>
							<circle fill="#EEEDE7" cx="318.585" cy="296.772" r="4.897"/>
							<circle fill="#EEEDE7" cx="355.318" cy="296.772" r="4.898"/>
						</g>
						<circle fill="#EEEDE7" cx="392.053" cy="296.772" r="4.898"/>
					</g>
					<g>
						<g>
							<path fill="#EEEDE7" d="M-62.211,321.262c0,2.703-2.191,4.895-4.896,4.895s-4.898-2.191-4.898-4.895
								c0-2.707,2.193-4.9,4.898-4.9S-62.211,318.555-62.211,321.262z"/>
							<path fill="#EEEDE7" d="M-25.479,321.262c0,2.703-2.191,4.895-4.896,4.895c-2.707,0-4.898-2.191-4.898-4.895
								c0-2.707,2.191-4.9,4.898-4.9C-27.67,316.362-25.479,318.555-25.479,321.262z"/>
							<path fill="#EEEDE7" d="M11.253,321.262c0,2.703-2.193,4.895-4.896,4.895c-2.705,0-4.896-2.191-4.896-4.895
								c0-2.707,2.191-4.9,4.896-4.9C9.06,316.362,11.253,318.555,11.253,321.262z"/>
							<path fill="#EEEDE7" d="M47.988,321.262c0,2.703-2.193,4.895-4.898,4.895s-4.896-2.191-4.896-4.895
								c0-2.707,2.191-4.9,4.896-4.9S47.988,318.555,47.988,321.262z"/>
							<path fill="#EEEDE7" d="M84.72,321.262c0,2.703-2.193,4.895-4.898,4.895c-2.703,0-4.896-2.191-4.896-4.895
								c0-2.707,2.193-4.9,4.896-4.9C82.527,316.362,84.72,318.555,84.72,321.262z"/>
							<path fill="#EEEDE7" d="M121.453,321.262c0,2.703-2.191,4.895-4.896,4.895c-2.707,0-4.898-2.191-4.898-4.895
								c0-2.707,2.191-4.9,4.898-4.9C119.261,316.362,121.453,318.555,121.453,321.262z"/>
							<path fill="#EEEDE7" d="M158.185,321.262c0,2.703-2.193,4.895-4.898,4.895c-2.703,0-4.895-2.191-4.895-4.895
								c0-2.707,2.191-4.9,4.895-4.9C155.992,316.362,158.185,318.555,158.185,321.262z"/>
							<path fill="#EEEDE7" d="M194.917,321.262c0,2.703-2.191,4.895-4.896,4.895s-4.898-2.191-4.898-4.895
								c0-2.707,2.193-4.9,4.898-4.9S194.917,318.555,194.917,321.262z"/>
							<path fill="#EEEDE7" d="M231.652,321.262c0,2.703-2.193,4.895-4.898,4.895s-4.896-2.191-4.896-4.895
								c0-2.707,2.191-4.9,4.896-4.9S231.652,318.555,231.652,321.262z"/>
							<path fill="#EEEDE7" d="M268.385,321.262c0,2.703-2.193,4.895-4.898,4.895s-4.896-2.191-4.896-4.895
								c0-2.707,2.191-4.9,4.896-4.9S268.385,318.555,268.385,321.262z"/>
							<path fill="#EEEDE7" d="M305.117,321.262c0,2.703-2.193,4.895-4.898,4.895c-2.703,0-4.895-2.191-4.895-4.895
								c0-2.707,2.191-4.9,4.895-4.9C302.924,316.362,305.117,318.555,305.117,321.262z"/>
							<path fill="#EEEDE7" d="M341.85,321.262c0,2.703-2.193,4.895-4.898,4.895c-2.703,0-4.898-2.191-4.898-4.895
								c0-2.707,2.195-4.9,4.898-4.9C339.656,316.362,341.85,318.555,341.85,321.262z"/>
						</g>
						<path fill="#EEEDE7" d="M378.584,321.262c0,2.703-2.193,4.895-4.898,4.895s-4.898-2.191-4.898-4.895
							c0-2.707,2.193-4.9,4.898-4.9S378.584,318.555,378.584,321.262z"/>
					</g>
					<g>
						<g>
							<path fill="#EEEDE7" d="M-43.844,345.75c0,2.703-2.193,4.896-4.898,4.896c-2.703,0-4.898-2.193-4.898-4.896
								c0-2.707,2.195-4.9,4.898-4.9C-46.038,340.85-43.844,343.043-43.844,345.75z"/>
							<path fill="#EEEDE7" d="M-7.112,345.75c0,2.703-2.191,4.896-4.898,4.896c-2.705,0-4.896-2.193-4.896-4.896
								c0-2.707,2.191-4.9,4.896-4.9C-9.303,340.85-7.112,343.043-7.112,345.75z"/>
							<path fill="#EEEDE7" d="M29.621,345.75c0,2.703-2.193,4.896-4.898,4.896s-4.898-2.193-4.898-4.896
								c0-2.707,2.193-4.9,4.898-4.9S29.621,343.043,29.621,345.75z"/>
							<path fill="#EEEDE7" d="M66.353,345.75c0,2.703-2.191,4.896-4.896,4.896s-4.898-2.193-4.898-4.896
								c0-2.707,2.193-4.9,4.898-4.9S66.353,343.043,66.353,345.75z"/>
							<path fill="#EEEDE7" d="M103.087,345.75c0,2.703-2.193,4.896-4.898,4.896s-4.898-2.193-4.898-4.896
								c0-2.707,2.193-4.9,4.898-4.9S103.087,343.043,103.087,345.75z"/>
							<path fill="#EEEDE7" d="M139.818,345.75c0,2.703-2.191,4.896-4.896,4.896s-4.896-2.193-4.896-4.896
								c0-2.707,2.191-4.9,4.896-4.9S139.818,343.043,139.818,345.75z"/>
							<path fill="#EEEDE7" d="M176.552,345.75c0,2.703-2.193,4.896-4.898,4.896s-4.898-2.193-4.898-4.896
								c0-2.707,2.193-4.9,4.898-4.9S176.552,343.043,176.552,345.75z"/>
							<path fill="#EEEDE7" d="M213.285,345.75c0,2.703-2.193,4.896-4.896,4.896c-2.707,0-4.898-2.193-4.898-4.896
								c0-2.707,2.191-4.9,4.898-4.9C211.091,340.85,213.285,343.043,213.285,345.75z"/>
							<path fill="#EEEDE7" d="M250.02,345.75c0,2.703-2.193,4.896-4.898,4.896s-4.898-2.193-4.898-4.896
								c0-2.707,2.193-4.9,4.898-4.9S250.02,343.043,250.02,345.75z"/>
							<path fill="#EEEDE7" d="M286.75,345.75c0,2.703-2.191,4.896-4.898,4.896c-2.703,0-4.895-2.193-4.895-4.896
								c0-2.707,2.191-4.9,4.895-4.9C284.559,340.85,286.75,343.043,286.75,345.75z"/>
							<path fill="#EEEDE7" d="M323.482,345.75c0,2.703-2.193,4.896-4.896,4.896c-2.705,0-4.898-2.193-4.898-4.896
								c0-2.707,2.193-4.9,4.898-4.9C321.289,340.85,323.482,343.043,323.482,345.75z"/>
							<path fill="#EEEDE7" d="M360.217,345.75c0,2.703-2.193,4.896-4.898,4.896s-4.898-2.193-4.898-4.896
								c0-2.707,2.193-4.9,4.898-4.9S360.217,343.043,360.217,345.75z"/>
						</g>
						<path fill="#EEEDE7" d="M396.951,345.75c0,2.703-2.195,4.896-4.9,4.896c-2.703,0-4.896-2.193-4.896-4.896
							c0-2.707,2.193-4.9,4.896-4.9C394.756,340.85,396.951,343.043,396.951,345.75z"/>
					</g>
					<g>
						<g>
							<circle fill="#EEEDE7" cx="-67.109" cy="370.237" r="4.897"/>
							<circle fill="#EEEDE7" cx="-30.376" cy="370.237" r="4.897"/>
							<circle fill="#EEEDE7" cx="6.357" cy="370.237" r="4.896"/>
							<circle fill="#EEEDE7" cx="43.09" cy="370.237" r="4.897"/>
							<circle fill="#EEEDE7" cx="79.823" cy="370.237" r="4.897"/>
							<circle fill="#EEEDE7" cx="116.555" cy="370.237" r="4.897"/>
							<circle fill="#EEEDE7" cx="153.289" cy="370.237" r="4.896"/>
							<circle fill="#EEEDE7" cx="190.02" cy="370.237" r="4.897"/>
							<circle fill="#EEEDE7" cx="226.754" cy="370.237" r="4.897"/>
							<circle fill="#EEEDE7" cx="263.487" cy="370.237" r="4.897"/>
							<circle fill="#EEEDE7" cx="300.221" cy="370.237" r="4.896"/>
							<circle fill="#EEEDE7" cx="336.951" cy="370.237" r="4.898"/>
						</g>
						<circle fill="#EEEDE7" cx="373.686" cy="370.237" r="4.898"/>
					</g>
					<g>
						<g>
							<circle fill="#EEEDE7" cx="-48.743" cy="394.725" r="4.898"/>
							<circle fill="#EEEDE7" cx="-12.009" cy="394.725" r="4.897"/>
							<circle fill="#EEEDE7" cx="24.722" cy="394.725" r="4.898"/>
							<circle fill="#EEEDE7" cx="61.456" cy="394.725" r="4.897"/>
							<circle fill="#EEEDE7" cx="98.189" cy="394.725" r="4.898"/>
							<circle fill="#EEEDE7" cx="134.921" cy="394.725" r="4.896"/>
							<circle fill="#EEEDE7" cx="171.654" cy="394.725" r="4.898"/>
							<circle fill="#EEEDE7" cx="208.387" cy="394.725" r="4.897"/>
							<circle fill="#EEEDE7" cx="245.121" cy="394.725" r="4.898"/>
							<path fill="#EEEDE7" d="M286.75,394.725c0,2.705-2.191,4.898-4.898,4.898c-2.703,0-4.895-2.193-4.895-4.898
								s2.191-4.896,4.895-4.896C284.559,389.829,286.75,392.02,286.75,394.725z"/>
							<circle fill="#EEEDE7" cx="318.585" cy="394.725" r="4.897"/>
							<circle fill="#EEEDE7" cx="355.318" cy="394.725" r="4.898"/>
						</g>
						<circle fill="#EEEDE7" cx="392.053" cy="394.725" r="4.898"/>
					</g>
				</g>
			</g>
		</g>
		<path fill="#D5A1B3" d="M95.429,85.402c0,0,22.566,4.938,35.973-3.527c0,0,17.111,8.353,36.158,4.11c0,0-19.229,6.14-36.156-0.936
			C131.404,85.05,113.417,92.81,95.429,85.402z"/>
	</g>
	<g>
		<path fill="#E9B8C7" d="M104.244,125.244c0,0-18.525,29.581-18.525,37.772s20.045-25.941,22.473-39.139L104.244,125.244z"/>
		<path fill="#E9B8C7" d="M115.539,123.877c0,0-14.027,47.331-7.348,54.159c6.682,6.824,10.934-48.243,11.543-55.069
			C120.339,116.141,115.539,123.877,115.539,123.877z"/>
		<path fill="#E9B8C7" d="M129.322,122.208c0,0,8.025,37.056,18.35,42.062c10.328,5.006-7.895-38.269-11.537-42.062
			C132.488,118.416,129.322,122.208,129.322,122.208z"/>
		<path fill="#E9B8C7" d="M147.671,122.208c0,0,19.438,47.179,27.943,48.544c8.502,1.365-18.223-51.915-23.082-50.23
			C147.671,122.208,147.671,122.208,147.671,122.208z"/>
	</g>
	<path fill="#DD96AB" d="M99.423,120.362c0,0,25.055-3.568,62.377-0.155c0,0,0.184,3.378,2.605,6.502c0,0-41.379-2.626-66.998-0.026
		C97.408,126.683,98.869,123.082,99.423,120.362z"/>
</g>
</svg>
