<?xml version="1.0" encoding="utf-8"?>
<!-- Generator: Adobe Illustrator 16.0.0, SVG Export Plug-In . SVG Version: 6.00 Build 0)  -->
<!DOCTYPE svg PUBLIC "-//W3C//DTD SVG 1.1//EN" "http://www.w3.org/Graphics/SVG/1.1/DTD/svg11.dtd">
<svg version="1.1" xmlns="http://www.w3.org/2000/svg" xmlns:xlink="http://www.w3.org/1999/xlink" x="0px" y="0px"
	 width="209.66px" height="209.66px" viewBox="0 0 209.66 209.66" enable-background="new 0 0 209.66 209.66" xml:space="preserve">
<g>
	
		<image overflow="visible" opacity="0.4" width="450" height="390" xlink:href="9DE8AEC3AA6705AF.png"  transform="matrix(0.48 0 0 0.48 -3 14.4453)">
	</image>
	<g>
		<g>
			<path fill="#D15752" d="M15.032,126.742c0,0-9.721-112.296,89.968-112.296c99.697,0,90.455,112.296,90.455,112.296
				s3.427,1.717,3.427,13.354v17.463c0,0,0.68,29.1-19.861,29.445l-0.682-92.782c0,0-13.009-62.997-73.437-62.997
				c-60.43,0-73.437,63.332-73.437,63.332l-0.341,92.447c0,0-15.75,2.393-20.201-22.945V139.07
				C10.924,139.07,10.924,129.14,15.032,126.742"/>
			<path fill="#367A79" d="M72.209,187.513c0,4.252-3.45,7.701-7.708,7.701H46.704c-4.252,0-7.707-3.449-7.707-7.701v-66.42
				c0-4.252,3.455-7.703,7.707-7.703h17.797c4.258,0,7.708,3.451,7.708,7.703V187.513z"/>
			<path fill="#367A79" d="M170.808,187.513c0,4.252-3.448,7.701-7.707,7.701h-17.797c-4.252,0-7.705-3.449-7.705-7.701v-66.42
				c0-4.252,3.453-7.703,7.705-7.703h17.797c4.259,0,7.707,3.451,7.707,7.703V187.513z"/>
			<path fill="#5DB4BA" d="M9.691,135.55v26.92c0,0-9.699-4.182-9.691-13.461C0.008,137.541,9.691,135.55,9.691,135.55z"/>
			<path fill="#5DB4BA" d="M199.97,135.55v26.92c0,0,9.698-4.182,9.69-13.461C209.651,137.541,199.97,135.55,199.97,135.55z"/>
		</g>
	</g>
</g>
</svg>
