<?xml version="1.0" encoding="utf-8"?>
<!-- Generator: Adobe Illustrator 16.0.0, SVG Export Plug-In . SVG Version: 6.00 Build 0)  -->
<!DOCTYPE svg PUBLIC "-//W3C//DTD SVG 1.1//EN" "http://www.w3.org/Graphics/SVG/1.1/DTD/svg11.dtd">
<svg version="1.1" id="图层_1" xmlns="http://www.w3.org/2000/svg" xmlns:xlink="http://www.w3.org/1999/xlink" x="0px" y="0px"
	 width="112.49px" height="112.49px" viewBox="0 0 112.49 112.49" enable-background="new 0 0 112.49 112.49" xml:space="preserve">
<g>
	<g>
		<path fill="#FAF5B2" d="M47.336,4.063C35.994,0.917,21.689,2.134,12.189,17.634c-7.5,13,5.5,21.5,3,33.5c-2.5,13-12,21.5-7.5,36
			c6,18.5,26.185,24.137,44.5,22c20-2.333,25.5-21.5,29.5-27.5c6.5-10.5,23.549-9.499,24-25c0.833-28.667-29.5-34-34-37
			C66.189,15.134,54.336,6.004,47.336,4.063z"/>
		<g>
			<path fill="#FAF5B2" d="M48,1.652c-9.244-2.431-18.712-1.871-26.996,3.173C12.091,10.253,5.762,20.372,7.947,30.87
				c0.978,4.697,3.473,8.966,4.658,13.618c1.588,6.235-1.747,12.927-4.166,18.511c-4.489,10.36-6.09,19.874-0.822,30.337
				c8.868,17.615,36.404,23.41,53.556,16.014c8.249-3.557,13.87-10.288,18.145-17.987c1.467-2.643,2.691-5.42,4.242-8.016
				c2.401-4.018,6.539-6.249,10.518-8.425c3.847-2.104,7.895-4.296,10.592-7.865c3.466-4.584,3.838-10.047,3.316-15.606
				c-0.926-9.864-6.381-17.922-14.136-23.778c-5.873-4.434-12.811-6.8-19.556-9.51c-3.607-1.45-6.913-5.108-10.046-7.388
				C59.271,7.152,53.928,3.501,48,1.652c-3.086-0.962-4.396,3.865-1.329,4.821c5.066,1.58,9.591,4.785,13.9,7.795
				c3.526,2.463,6.829,6.057,10.668,7.97c5.062,2.522,10.514,4,15.492,6.78c7.744,4.323,13.596,10.838,15.749,19.559
				c1.225,4.964,1.32,10.777-1.536,15.171c-2.438,3.751-7.441,5.767-11.205,7.853c-6.963,3.859-10.337,8.81-13.894,15.654
				c-4.493,8.646-10.521,16.006-20.252,18.72c-22.645,6.315-54.12-9.206-44.601-36.122c2.513-7.104,6.385-13.573,7.008-21.242
				c0.542-6.661-3.604-12.839-5.232-19.073c-2.388-9.139,5.574-17.64,12.987-21.683c6.374-3.475,14.108-3.174,20.916-1.384
				C49.793,7.294,51.116,2.472,48,1.652z"/>
		</g>
	</g>
	<path opacity="0.1" fill="#211D1E" d="M51.022,2.523C50.029,2.104,49.026,1.714,48,1.394c-9.244-2.431-18.713-1.871-26.996,3.173
		C12.09,9.995,5.761,20.113,7.946,30.611c0.979,4.697,3.473,8.966,4.658,13.618c1.588,6.235-1.747,12.927-4.166,18.511
		C3.95,73.1,2.349,82.614,7.616,93.077c7.265,14.431,27.057,20.922,43.406,18.733V2.523z"/>
	<circle fill="#FAAD34" cx="51.022" cy="53.801" r="22.833"/>
	<ellipse fill="#FFFFFF" cx="41.189" cy="45.884" rx="4.333" ry="4.25"/>
	<path opacity="0.1" fill="#211D1E" d="M51.022,72.967c-11.993,0-21.818-9.248-22.754-21c-0.048,0.605-0.079,1.216-0.079,1.833
		c0,12.61,10.223,22.833,22.833,22.833s22.833-10.223,22.833-22.833c0-0.618-0.031-1.228-0.079-1.833
		C72.841,63.719,63.016,72.967,51.022,72.967z"/>
</g>
</svg>
