<?xml version="1.0" encoding="utf-8"?>
<!-- Generator: Adobe Illustrator 16.0.0, SVG Export Plug-In . SVG Version: 6.00 Build 0)  -->
<!DOCTYPE svg PUBLIC "-//W3C//DTD SVG 1.1//EN" "http://www.w3.org/Graphics/SVG/1.1/DTD/svg11.dtd">
<svg version="1.1"
	 id="svg2" xmlns:rdf="http://www.w3.org/1999/02/22-rdf-syntax-ns#" xmlns:svg="http://www.w3.org/2000/svg" xmlns:cc="http://creativecommons.org/ns#" xmlns:dc="http://purl.org/dc/elements/1.1/"
	 xmlns="http://www.w3.org/2000/svg" xmlns:xlink="http://www.w3.org/1999/xlink" x="0px" y="0px" width="45px" height="45px"
	 viewBox="0 0 45 45" enable-background="new 0 0 45 45" xml:space="preserve">
<g id="g10" transform="matrix(1.25,0,0,-1.25,0,45)">
	<g id="g12" transform="translate(21.9996,36)">
		<path id="path14" fill="#BB1A34" d="M0,0l-4-8.028L-9-3.01v-7.025l-10,2.007l8-8.028l-11-6.02h12l-5.999-12.042L-4-26.09L6.863-36
			h0.11L4.001-22.076H14l-8,6.02l8,9.031l-11.999-3.01L0,0z"/>
	</g>
	<g id="g16" transform="translate(22.9141,23.0762)">
		<path id="path18" fill="#FCAB40" d="M0,0l1.86,0.467l5.226,1.311L3.705-2.038l-1.319-1.49l1.589-1.195L6.9-6.925H3.244H0.983
			l0.473-2.22l1.551-7.259l-5.845,5.331l-1.058,0.964l-1.187-0.795l-5.24-3.505l2.405,4.827l1.323,2.655h-2.958h-3.799l3.76,2.059
			l2.145,1.172L-9.173-1.96l-3.044,3.054l3.221-0.646l2.186-0.439v2.238v1.991l1.45-1.455l1.795-1.8l1.133,2.277l1.273,2.556"/>
	</g>
	<g id="g20" transform="translate(21.5117,21.6992)">
		<path id="path22" fill="#F5F8FA" d="M0,0l0.768,0.192l2.157,0.541L1.529-0.842L0.984-1.457L1.641-1.95l1.208-0.909h-1.51H0.405
			l0.195-0.916l0.641-2.997l-2.413,2.201l-0.437,0.398l-0.491-0.328l-2.163-1.448l0.993,1.993l0.546,1.097h-1.22h-1.569l1.553,0.849
			l0.885,0.485l-0.713,0.716l-1.256,1.261l1.328-0.267l0.903-0.182v0.924v0.822l0.598-0.6l0.741-0.743l0.467,0.939L-0.48,2.4"/>
	</g>
</g>
</svg>
