<?xml version="1.0" encoding="utf-8"?>
<!-- Generator: Adobe Illustrator 16.0.0, SVG Export Plug-In . SVG Version: 6.00 Build 0)  -->
<!DOCTYPE svg PUBLIC "-//W3C//DTD SVG 1.1//EN" "http://www.w3.org/Graphics/SVG/1.1/DTD/svg11.dtd">
<svg version="1.1" id="图层_1" xmlns="http://www.w3.org/2000/svg" xmlns:xlink="http://www.w3.org/1999/xlink" x="0px" y="0px"
	 width="65.81px" height="65.81px" viewBox="0 0 65.81 65.81" enable-background="new 0 0 65.81 65.81" xml:space="preserve">
<g>
	<path fill="#FFB300" d="M59.204,46.39c-0.69,4.96-4.25,11.86-8.73,15.7c1.311-1.49,3.011-3.77,3.71-6.05
		c2.61-8.44-2.14-16.02-5.439-18.31c0,3.32-3.99,17.7-7.5,13.63c-1.66-1.84-2.21-4.42-2.21-6.66c0-4.23,6.47-15.09-0.41-23.43
		c-1,3.84-3.33,4.09-7.78,9.06c-2.45,2.74-3.62,7.69-3.68,10.94c-0.06,3.54-0.18,6.02-1.13,6.27c-4.87,1.32-2.2-10.18-4.29-17.39
		c-2.87,1.87-5.57,4.47-6.5,5.95c-5.5,8.88-3.44,21.53,4.25,26.79c-9.49-3.18-13.38-13.56-13.38-21c0-5.92,1.16-9.61,4.729-14.12
		c5.17-6.56,10.36-9.37,8.561-18.46c6.899,5.1,8.39,15.82,4.489,23.06c9.721-8.71-3.22-26,17.761-32.37
		c-6.38,12.01,9.64,18.83,2.77,39.73c8.681-12.85-2.06-20.7,5.91-25.87c-0.83,4.41,3.09,7.41,6.65,14.46
		C60.124,34.549,60.034,40.37,59.204,46.39z"/>
	<path fill="#FFD400" d="M54.183,56.04c-0.699,2.28-2.399,4.56-3.71,6.05c0.131-0.59,1.57-4.22,1.75-4.9
		c1.311-5-0.779-9.83-3.369-12.69c0,3.32-5.36,11.64-8.87,7.57c-1.66-1.84-2.771-5.08-3.141-7.29c-0.56-3.88,0.181-9.88,0.74-13.59
		c-4.05,1.8-7.1,4.05-8.41,9.74c-1.149,5.06,0.86,7.34-1.29,8.75c-3.68,2.4-9.08-3.28-7.399-9.22c-6.45,6.61-6.11,14.88-0.99,22.43
		c-7.69-5.26-9.75-17.91-4.25-26.79c0.93-1.48,3.63-4.08,6.5-5.95c2.09,7.21-0.58,18.71,4.29,17.39c0.95-0.25,1.07-2.73,1.13-6.27
		c0.06-3.25,1.229-8.2,3.68-10.94c4.45-4.97,6.78-5.22,7.78-9.06c6.88,8.34,0.41,19.2,0.41,23.43c0,2.24,0.55,4.82,2.21,6.66
		c3.51,4.07,7.5-10.31,7.5-13.63C52.043,40.02,56.793,47.6,54.183,56.04z"/>
	<path fill="#FFF500" d="M52.223,57.189c-0.18,0.68-1.619,4.31-1.75,4.9c-1.29,0.63-2.56,1.17-3.8,1.62
		c1.11-2.47,0.78-5.96-0.63-7.81c-0.67,3.75-5.96,5.12-8.59,2.08c-1.72-2-0.4-8.67-3.32-10.08c-2.97,5.54-9.47,5.87-11.13,10.12
		c-0.649,1.65-0.689,2.12-0.63,3.96c0.03,0.82,0.16,1.37,0.31,1.87c-1.18-0.34-2.239-0.68-3.189-0.96
		c-5.12-7.55-5.46-15.82,0.99-22.43c-1.681,5.94,3.72,11.62,7.399,9.22c2.15-1.41,0.141-3.69,1.29-8.75
		c1.311-5.69,4.36-7.94,8.41-9.74c-0.56,3.71-1.3,9.71-0.74,13.59c0.37,2.21,1.48,5.45,3.141,7.29c3.51,4.07,8.87-4.25,8.87-7.57
		C51.444,47.359,53.534,52.189,52.223,57.189z"/>
	<path fill="#FFFFFF" d="M46.673,63.709c-0.26,0.1-0.53,0.19-0.79,0.28c-0.26,0.09-0.52,0.17-0.779,0.25
		c-0.78,0.25-1.551,0.46-2.301,0.64c-0.26,0.06-0.51,0.12-0.76,0.17c-0.45,0.1-0.91,0.19-1.35,0.27c-0.29,0.05-0.58,0.09-0.87,0.13
		c-0.24,0.04-0.48,0.07-0.72,0.1c-0.601,0.08-1.19,0.14-1.78,0.18c-0.21,0.01-0.42,0.02-0.63,0.03c-0.17,0.01-0.34,0.02-0.511,0.02
		c-0.199,0.01-0.39,0.02-0.579,0.02c-0.66,0.02-1.301,0.01-1.94-0.01c-0.32-0.01-0.65-0.03-0.96-0.05c-0.74-0.05-1.47-0.12-2.18-0.2
		c-0.24-0.03-0.48-0.06-0.721-0.1c-1.069-0.15-2.09-0.34-3.069-0.55c-0.25-0.05-0.49-0.1-0.73-0.16c-0.47-0.11-0.93-0.23-1.38-0.34
		c-0.23-0.06-0.45-0.12-0.67-0.18c-0.44-0.12-0.86-0.24-1.271-0.36c-0.149-0.5-0.279-1.05-0.31-1.87c-0.06-1.84-0.02-2.31,0.63-3.96
		c1.66-4.25,8.16-4.58,11.13-10.12c2.92,1.41,1.601,8.08,3.32,10.08c2.63,3.04,7.92,1.67,8.59-2.08
		C47.454,57.75,47.784,61.239,46.673,63.709z"/>
</g>
</svg>
