<?xml version="1.0" encoding="utf-8"?>
<!-- Generator: Adobe Illustrator 16.0.0, SVG Export Plug-In . SVG Version: 6.00 Build 0)  -->
<!DOCTYPE svg PUBLIC "-//W3C//DTD SVG 1.1//EN" "http://www.w3.org/Graphics/SVG/1.1/DTD/svg11.dtd">
<svg version="1.1" xmlns="http://www.w3.org/2000/svg" xmlns:xlink="http://www.w3.org/1999/xlink" x="0px" y="0px"
	 width="64.55px" height="64.55px" viewBox="0 0 64.55 64.55" enable-background="new 0 0 64.55 64.55" xml:space="preserve">
<path fill-rule="evenodd" clip-rule="evenodd" fill="#E96B41" d="M10.684,18.213h0.338c1.2,0,2.18,0.98,2.18,2.18v23.764
	c0,1.198-0.98,2.181-2.18,2.181h-0.338c-1.198,0-2.18-0.982-2.18-2.181V20.393C8.504,19.193,9.484,18.213,10.684,18.213
	L10.684,18.213z"/>
<polygon fill-rule="evenodd" clip-rule="evenodd" fill="#47B792" points="0,29.332 2.398,29.332 2.398,35.218 0,35.218 0,29.332 "/>
<polygon fill-rule="evenodd" clip-rule="evenodd" fill="#47B792" points="21.92,29.332 42.631,29.332 42.631,35.218 21.92,35.218 
	21.92,29.332 "/>
<path fill-rule="evenodd" clip-rule="evenodd" fill="#E96B41" d="M19.036,18.213h-2.95c-1.199,0-2.181,0.98-2.181,2.18v23.764
	c0,1.198,0.981,2.181,2.181,2.181h2.95c1.198,0,2.18-0.982,2.18-2.181V20.393C21.216,19.193,20.234,18.213,19.036,18.213
	L19.036,18.213z"/>
<polygon fill-rule="evenodd" clip-rule="evenodd" fill="#47B792" points="64.55,29.332 62.151,29.332 62.151,35.218 64.55,35.218 
	64.55,29.332 "/>
<path fill-rule="evenodd" clip-rule="evenodd" fill="#305A75" d="M5.282,22.621H5.62c1.199,0,2.18,0.981,2.18,2.181v14.946
	c0,1.199-0.981,2.18-2.18,2.18H5.282c-1.198,0-2.18-0.98-2.18-2.18V24.802C3.103,23.602,4.083,22.621,5.282,22.621L5.282,22.621z"/>
<path fill-rule="evenodd" clip-rule="evenodd" fill="#E96B41" d="M53.866,18.213h-0.337c-1.2,0-2.181,0.98-2.181,2.18v23.764
	c0,1.198,0.981,2.181,2.181,2.181h0.337c1.199,0,2.18-0.982,2.18-2.181V20.393C56.046,19.193,55.065,18.213,53.866,18.213
	L53.866,18.213z"/>
<path fill-rule="evenodd" clip-rule="evenodd" fill="#E96B41" d="M45.515,18.213h2.95c1.199,0,2.18,0.98,2.18,2.18v23.764
	c0,1.198-0.98,2.181-2.18,2.181h-2.95c-1.199,0-2.18-0.982-2.18-2.181V20.393C43.335,19.193,44.315,18.213,45.515,18.213
	L45.515,18.213z"/>
<path fill-rule="evenodd" clip-rule="evenodd" fill="#305A75" d="M59.269,22.621h-0.338c-1.199,0-2.181,0.981-2.181,2.181v14.946
	c0,1.199,0.982,2.18,2.181,2.18h0.338c1.197,0,2.18-0.98,2.18-2.18V24.802C61.448,23.602,60.468,22.621,59.269,22.621L59.269,22.621
	z"/>
</svg>
