<?xml version="1.0" encoding="utf-8"?>
<!-- Generator: Adobe Illustrator 16.0.0, SVG Export Plug-In . SVG Version: 6.00 Build 0)  -->
<!DOCTYPE svg PUBLIC "-//W3C//DTD SVG 1.1//EN" "http://www.w3.org/Graphics/SVG/1.1/DTD/svg11.dtd">
<svg version="1.1" id="图层_1" xmlns="http://www.w3.org/2000/svg" xmlns:xlink="http://www.w3.org/1999/xlink" x="0px" y="0px"
	 width="200.07px" height="200.07px" viewBox="0 0 200.07 200.07" enable-background="new 0 0 200.07 200.07" xml:space="preserve">
<g>
	<g>
		<path fill="#954C21" d="M197.23,18.479c4.57,19.479,3.566,40.607-2.593,61.285c-2.032,6.834-4.641,13.619-7.793,20.271
			c-9.282,19.602-23.337,38.119-41.814,53.623c-18.477,15.504-39.154,26.131-60.07,31.868c-7.098,1.948-14.232,3.34-21.316,4.154
			c-21.433,2.475-42.415-0.205-60.805-8.088c-4.57-19.479-3.566-40.608,2.593-61.285c2.032-6.835,4.642-13.62,7.793-20.271
			c9.281-19.603,23.337-38.119,41.814-53.623c18.477-15.504,39.153-26.131,60.069-31.868c7.099-1.949,14.233-3.34,21.317-4.154
			C157.859,7.914,178.84,10.594,197.23,18.479z"/>
	</g>
	<g>
		<g>
			<path fill="#EDECF1" d="M136.426,10.39l58.211,69.374c-2.032,6.834-4.641,13.619-7.793,20.271l-71.735-85.491
				C122.208,12.596,129.342,11.204,136.426,10.39z"/>
		</g>
		<g>
			<path fill="#EDECF1" d="M13.225,100.035l71.735,85.491c-7.098,1.948-14.232,3.34-21.316,4.154L5.432,120.307
				C7.464,113.472,10.074,106.687,13.225,100.035z"/>
		</g>
	</g>
	<g>
		<path fill="#231F20" d="M140.019,73.012l-73.54,61.708c-2.115,1.775-5.269,1.5-7.044-0.616c-1.775-2.116-1.499-5.27,0.617-7.044
			l73.54-61.708c2.116-1.775,5.269-1.499,7.044,0.616C142.41,68.083,142.134,71.236,140.019,73.012z"/>
	</g>
	<g>
		<g>
			<path fill="#231F20" d="M143.164,94.571c-2.115,1.775-5.269,1.499-7.044-0.616l-23.831-28.4c-1.775-2.116-1.499-5.27,0.616-7.044
				s5.269-1.5,7.044,0.616l23.831,28.4C145.555,89.643,145.279,92.796,143.164,94.571z"/>
		</g>
		<g>
			<path fill="#231F20" d="M124.497,110.234c-2.115,1.775-5.269,1.499-7.044-0.617l-23.831-28.4
				c-1.775-2.116-1.499-5.269,0.616-7.044s5.269-1.5,7.044,0.616l23.831,28.4C126.889,105.306,126.612,108.459,124.497,110.234z"/>
		</g>
		<g>
			<path fill="#231F20" d="M105.831,125.897c-2.115,1.775-5.269,1.5-7.044-0.616l-23.831-28.4c-1.775-2.116-1.499-5.27,0.616-7.044
				s5.269-1.499,7.044,0.617l23.831,28.4C108.222,120.969,107.946,124.122,105.831,125.897z"/>
		</g>
		<g>
			<path fill="#231F20" d="M87.165,141.56c-2.115,1.775-5.269,1.5-7.044-0.616l-23.831-28.4c-1.775-2.116-1.499-5.27,0.616-7.044
				s5.269-1.499,7.044,0.616l23.831,28.4C89.556,136.631,89.28,139.785,87.165,141.56z"/>
		</g>
	</g>
</g>
</svg>
