<?xml version="1.0" encoding="utf-8"?>
<!-- Generator: Adobe Illustrator 16.0.0, SVG Export Plug-In . SVG Version: 6.00 Build 0)  -->
<!DOCTYPE svg PUBLIC "-//W3C//DTD SVG 1.1//EN" "http://www.w3.org/Graphics/SVG/1.1/DTD/svg11.dtd">
<svg version="1.1" xmlns="http://www.w3.org/2000/svg" xmlns:xlink="http://www.w3.org/1999/xlink" x="0px" y="0px"
	 width="291.057px" height="274.507px" viewBox="0 0 291.057 274.507" enable-background="new 0 0 291.057 274.507"
	 xml:space="preserve">
<path fill="#313D4D" d="M291.058,124.599c0,8.112,0,16.224,0,24.336c-1.449,7.447-2.25,15.093-4.449,22.311
	c-15.764,51.723-50.705,83.775-102.268,98.184c-8.979,2.51-18.4,3.426-27.617,5.078c-8.762,0-17.522,0-26.284,0
	c-1.408-0.305-2.803-0.739-4.229-0.896c-23.646-2.604-45.32-10.583-64.75-24.28c-28.817-20.315-50.3-46.005-58.148-81.341
	C1.985,162.013,1.094,155.938,0,149.908c0-8.436,0-16.872,0-25.309c1.432-7.264,2.314-14.688,4.382-21.765
	c14.784-50.593,49.02-81.698,98.583-96.769C113.1,2.984,123.861,1.968,134.334,0c8.436,0,16.872,0,25.31,0
	c5.711,0.994,11.51,1.637,17.121,3.037c53.443,13.335,91.291,44.297,109,97.501C288.343,108.287,289.333,116.566,291.058,124.599z"
	/>
<path fill="#EDF8FE" d="M220.853,166.945c-1.629,3.295-2.234,6.585-4.207,8.169c-12.371,9.929-24.955,19.603-37.725,29.015
	c-1.844,1.357-5.365,1.785-7.592,1.059c-15.682-5.115-31.221-10.672-46.827-16.023c-2.975-1.02-4.191-2.998-4.725-6.033
	c-2.633-15.002-5.34-29.994-8.291-44.937c-0.727-3.68,0.768-6.054,3.21-8.032c9.317-7.549,18.747-14.96,28.142-22.413
	c0.889-0.705,1.834-1.338,2.752-2.005c11.571-8.397,11.708-8.802,25.336-4.203c12.262,4.138,24.207,9.233,36.217,14.09
	c1.412,0.572,3.09,2.146,3.402,3.536C214.128,135.103,217.472,151.093,220.853,166.945z"/>
<path fill="#EDF8FE" d="M53.656,79.5C51.6,69.112,56.989,62.473,64.19,56.311c9.394-8.038,18.768-16.109,30.688-20.097
	c4.338-1.451,9.191-2.414,13.701-2.091c12.872,0.92,25.287,4.112,36.479,10.788c1.995,1.19,3.958,3.958,4.252,6.216
	c1.631,12.525,2.943,25.104,3.846,37.702c0.156,2.196-1.598,5.266-3.426,6.75c-13.319,10.809-26.849,21.358-40.427,31.839
	c-1.145,0.883-3.299,1.265-4.707,0.876c-14.042-3.879-28.053-7.88-41.988-12.125c-1.558-0.475-3.442-2.52-3.728-4.099
	C56.924,101.253,55.352,90.365,53.656,79.5z"/>
<path fill="#EDF8FE" d="M135.643,262.394c-11.049-0.074-21.468-2.926-31.487-7.35c-4.441-1.961-8.597-4.631-13.128-6.314
	c-9.022-3.351-13.422-10.123-15.164-19.066c-1.112-5.711-2.002-11.464-2.995-17.197c-0.45-2.6,0.382-3.996,3.123-4.961
	c12.827-4.514,25.526-9.391,38.349-13.921c1.749-0.618,4.208-0.632,5.866,0.117c16.285,7.354,32.91,13.638,50.408,17.521
	c1.42,0.314,3.121,2.232,3.533,3.726c2.152,7.8,3.975,15.692,5.822,23.573c1.521,6.487,0.781,8.467-5.189,11.991
	C162.72,257.632,149.688,261.722,135.643,262.394z"/>
<path fill="#EDF8FE" d="M282.511,140.97c-1.543,5.676-2.332,10.677-4.248,15.199c-4.455,10.518-10.662,19.962-18.914,27.999
	c-2.033,1.98-3.658,2.31-6.328,0.944c-8.064-4.125-16.396-7.732-24.447-11.886c-1.594-0.822-3.332-3.134-3.416-4.838
	c-0.791-16.106-3.531-31.853-8.26-47.239c-1.219-3.964-0.705-7.098,1.918-10.329c7.143-8.798,13.99-17.835,21.176-26.596
	c0.896-1.091,3.352-1.858,4.689-1.458c4.477,1.338,8.795,3.228,13.139,4.993c8.6,3.494,14.332,9.236,16.316,18.779
	C276.565,118.218,279.745,129.742,282.511,140.97z"/>
<path fill="#EDF8FE" d="M4.229,133.471c1.631-22.898,8.294-43.801,20.471-62.952c0.854-1.342,2.554-2.963,3.92-3.02
	c5.632-0.235,11.306-0.123,16.92,0.372c1.141,0.1,2.953,2.386,2.99,3.706c0.404,14.597,1,29.136,4.893,43.354
	c0.372,1.357-0.545,3.465-1.512,4.728c-8.547,11.164-15.595,23.05-19.176,36.817c-0.319,1.227-2.409,2.844-3.662,2.832
	c-5.48-0.055-11.008-0.322-16.4-1.222c-1.739-0.29-4.056-2.515-4.492-4.259C6.508,147.13,5.49,140.271,4.229,133.471z"/>
<path fill="#EDF8FE" d="M104.202,27.821c0-5.083-0.271-9.774,0.176-14.395c0.124-1.277,2.271-3.187,3.687-3.383
	c12.794-1.772,25.605-4.203,38.461-4.537c17.407-0.453,34.528,2.443,50.891,8.988c3.812,1.524,5.447,3.419,5.268,7.776
	c-0.48,11.729-0.328,11.186-11.646,12.62c-11.996,1.52-23.838,4.253-35.758,6.396c-1.35,0.243-3.098,0.646-4.111,0.045
	C136.892,32.877,121.17,29.458,104.202,27.821z"/>
<path fill="#EDF8FE" d="M10.144,164.966c7.688,0,14.122-0.095,20.548,0.108c0.914,0.029,2.11,1.341,2.624,2.343
	c7.874,15.354,18.328,28.608,31.69,39.566c0.903,0.741,1.724,1.986,1.928,3.116c1.912,10.603,3.682,21.231,5.576,32.342
	c-7.461,1.079-15.148-1.181-21.146-6.898c-7.476-7.126-14.979-14.532-20.852-22.947c-6.896-9.88-12.555-20.735-17.729-31.651
	C10.576,176.288,10.955,170.405,10.144,164.966z"/>
<path fill="#EDF8FE" d="M209.427,20.2c24.713,11.485,43.58,28.379,57.293,51.033c2.346,3.872,4.557,7.853,6.438,11.962
	c0.574,1.256-0.164,3.113-0.301,4.695c-1.283-0.209-2.68-0.159-3.83-0.668c-7.68-3.4-15.35-6.834-22.926-10.458
	c-1.939-0.927-3.957-2.258-5.219-3.943c-9.609-12.833-18.764-26.035-31.826-35.813c-0.84-0.628-1.512-2.183-1.416-3.231
	C208.028,29.444,208.743,25.142,209.427,20.2z"/>
<path fill="#EDF8FE" d="M137.521,269.208c8.38-2.119,15.889-3.145,22.654-5.955c7.982-3.317,15.299-8.225,22.959-12.337
	c1.625-0.872,3.482-1.805,5.25-1.837c15.922-0.289,31.312-2.773,45.594-10.284c0.357-0.188,0.871-0.076,1.463-0.114
	C220.167,256.438,168.401,272.764,137.521,269.208z"/>
<path fill="#EDF8FE" d="M242.136,232.441c0.85-1.677,1.318-2.779,1.936-3.793c6.322-10.393,12.557-20.801,14.598-33.104
	c0.303-1.825,1.055-4.067,2.385-5.153c9.229-7.539,14.994-17.63,20.926-27.987C283.669,178.697,258.562,223.085,242.136,232.441z"/>
</svg>
