<?xml version="1.0" encoding="utf-8"?>
<!-- Generator: Adobe Illustrator 16.0.0, SVG Export Plug-In . SVG Version: 6.00 Build 0)  -->
<!DOCTYPE svg PUBLIC "-//W3C//DTD SVG 1.1//EN" "http://www.w3.org/Graphics/SVG/1.1/DTD/svg11.dtd">
<svg version="1.1" id="图层_1" xmlns="http://www.w3.org/2000/svg" xmlns:xlink="http://www.w3.org/1999/xlink" x="0px" y="0px"
	 width="134.29px" height="134.29px" viewBox="0 0 134.29 134.29" enable-background="new 0 0 134.29 134.29" xml:space="preserve">
<g>
	<path fill="#205382" d="M99.444,31.502c-5.716,1.963-13.162-1.081-19.146-3.526c-5.081-2.076-9.095-2.98-11.857-1.697
		c-0.769,0.356-1.793,1.116-2.312,2.713c-1.396,4.299-1.256,7.72-0.836,9.964h-3.969c-0.907,0-1.643,0.841-1.643,1.88v3.947
		c0,1.039,0.735,1.88,1.643,1.88h11.641c0.907,0,1.642-0.841,1.642-1.88v-3.947c0-1.039-0.734-1.88-1.642-1.88h-3.908
		c-0.423-1.662-0.766-4.698,0.575-8.826c0.132-0.405,0.279-0.473,0.358-0.51c1.309-0.608,5.349,1.045,8.915,2.502
		c6.553,2.678,14.709,5.273,21.733,2.862L99.444,31.502z"/>
	<path fill="#2A619E" d="M101.393,42.809H30.934v0.063C13.68,43.889,0,58.198,0,75.707c0,18.169,14.729,32.897,32.897,32.897
		c10.471,0,19.792-4.897,25.816-12.52h16.862c6.024,7.623,15.346,12.52,25.816,12.52c18.169,0,32.897-14.728,32.897-32.897
		S119.562,42.809,101.393,42.809z"/>
	<circle fill="#F2EFEF" cx="102.527" cy="75.707" r="22.556"/>
	<g>
		<g>
			<circle fill="#BF2026" cx="90.871" cy="75.719" r="5.782"/>
			<circle fill="#6DAE44" cx="113.997" cy="75.719" r="5.782"/>
		</g>
		<g>
			<circle fill="#FAAB18" cx="102.434" cy="62.376" r="5.781"/>
			<circle fill="#DB6026" cx="102.434" cy="89.037" r="5.781"/>
		</g>
	</g>
	<g>
		<circle fill="#F2EFEF" cx="32.744" cy="76.012" r="22.555"/>
		<path fill="#2A619E" d="M46.595,73.061h-10.9v-10.9c0-0.971-0.854-1.731-1.943-1.731h-2.015c-1.09,0-1.943,0.76-1.943,1.731v10.9
			H18.894c-0.972,0-1.731,0.854-1.731,1.943v2.015c0,1.09,0.76,1.943,1.731,1.943h10.899v10.9c0,0.971,0.854,1.731,1.943,1.731
			h2.015c1.09,0,1.943-0.76,1.943-1.731v-10.9h10.9c0.971,0,1.731-0.854,1.731-1.943v-2.015
			C48.326,73.915,47.565,73.061,46.595,73.061z"/>
	</g>
	<path fill="#DB6026" d="M65.794,61.468c0,2.034-1.648,3.683-3.683,3.683H60.7c-2.034,0-3.683-1.649-3.683-3.683V53.12
		c0-2.034,1.648-3.683,3.683-3.683h1.411c2.034,0,3.683,1.648,3.683,3.683V61.468z"/>
	<path fill="#6DAE44" d="M78.806,61.468c0,2.034-1.648,3.683-3.683,3.683h-1.411c-2.034,0-3.683-1.649-3.683-3.683V53.12
		c0-2.034,1.648-3.683,3.683-3.683h1.411c2.034,0,3.683,1.648,3.683,3.683V61.468z"/>
	<circle fill="#FAAB18" cx="67.145" cy="75.719" r="5.781"/>
</g>
</svg>
