<?xml version="1.0" encoding="utf-8"?>
<!-- Generator: Adobe Illustrator 16.0.0, SVG Export Plug-In . SVG Version: 6.00 Build 0)  -->
<!DOCTYPE svg PUBLIC "-//W3C//DTD SVG 1.1//EN" "http://www.w3.org/Graphics/SVG/1.1/DTD/svg11.dtd">
<svg version="1.1" xmlns="http://www.w3.org/2000/svg" xmlns:xlink="http://www.w3.org/1999/xlink" x="0px" y="0px"
	 width="232.32px" height="232.32px" viewBox="0 0 232.32 232.32" enable-background="new 0 0 232.32 232.32" xml:space="preserve">
<g>
	<g>
		
			<image overflow="visible" opacity="0.15" width="484" height="245" xlink:href="26991FCA17C86042.png"  transform="matrix(0.48 0 0 0.48 0 57.3604)">
		</image>
		<g>
			<path fill="#FF5E43" d="M181.8,59.896c-5.482,0.514-10.561,1.497-14.435,2.407c-0.492,0.116-0.99,0.237-1.492,0.362
				c-0.003,0-0.006,0.001-0.008,0.002l0,0c-9.607,2.396-20.896,6.517-29.567,11.998v-0.001
				c-13.614,8.225-16.406,9.664-24.417,11.547c-8.011,1.883-11.152,1.838-27.005,0.54l0.001,0.001
				c-10.206-1.043-22.148,0.296-31.817,2.432l0,0c-0.002,0-0.005,0.001-0.007,0.001c-0.505,0.112-1.005,0.225-1.497,0.341
				c-3.875,0.911-8.859,2.294-13.996,4.276C18.627,100.385,0,109.659,0,109.659l3.629,15.438c3.687-0.866,5.719,1.573,11.119,15.271
				l0.004-0.006c4.19,12.068,11.97,22.641,19.094,25.818c7.193,3.209,20.911,3.406,33.359,0.48c0.002,0,0.002,0,0.004,0
				c9.672-2.273,22.738-7.373,30.067-18.746c6.372-9.887,9.583-21.66,10.295-31.772l0.013,0.018c0-0.074,0.002-0.141,0.002-0.213
				c0.103-1.533,0.15-3.025,0.14-4.468c0.674-11.253,7.222-12.215,7.222-12.215s6.086-1.734,11.907,7.719
				c0.634,1.296,1.341,2.611,2.117,3.938c0.031,0.065,0.062,0.124,0.096,0.19l0.004-0.021c5.143,8.736,13.263,17.845,23.372,23.857
				c11.629,6.918,25.598,5.662,35.27,3.389c0.002-0.002,0.002-0.002,0.004-0.002c12.449-2.926,24.642-9.215,29.651-15.292
				c4.963-6.019,7.218-18.949,5.594-31.62l0.006,0.003c-1.269-14.669-0.535-17.759,3.151-18.626l-3.629-15.438
				C222.492,57.36,201.684,57.355,181.8,59.896z"/>
		</g>
	</g>
	<g>
		<path fill="#FF5E43" d="M110.902,96.757c0,0-6.548,0.962-7.222,12.215c0.01,1.443-0.037,2.935-0.14,4.468
			c0,0.073-0.002,0.139-0.002,0.213l-0.013-0.017c-0.712,10.112-3.923,21.884-10.295,31.771
			c-7.33,11.375-20.396,16.473-30.067,18.746c-0.002,0-0.002,0-0.004,0c-12.415,2.918-26.089,2.729-33.298-0.455
			c1.333,1.053,2.671,1.895,3.986,2.482c7.193,3.209,20.911,3.406,33.359,0.48c0.002,0,0.002,0,0.004-0.002
			c9.672-2.273,22.738-7.371,30.067-18.744c6.372-9.887,9.583-21.66,10.295-31.772l0.013,0.018c0-0.074,0.002-0.141,0.002-0.213
			c0.103-1.533,0.15-3.025,0.14-4.469c0.674-11.253,7.222-12.215,7.222-12.215s1.599-0.445,3.935,0.378
			C114.543,95.744,110.902,96.757,110.902,96.757z"/>
		<path fill="#FF5E43" d="M18.048,124.133l0.354,1.504c0.302-0.071,0.591-0.116,0.871-0.131
			C18.852,124.919,18.448,124.467,18.048,124.133z"/>
		<path fill="#FF5E43" d="M219.042,57.397l3.031,12.894c-3.687,0.867-4.42,3.957-3.151,18.626l-0.006-0.003
			c1.624,12.67-0.631,25.601-5.594,31.62c-5.01,6.077-17.203,12.366-29.65,15.292c-0.002,0.002-0.003,0.002-0.005,0.002
			c-9.41,2.211-22.882,3.439-34.314-2.867c1.01,0.691,2.037,1.359,3.093,1.986c11.629,6.918,25.598,5.662,35.27,3.389
			c0.002-0.002,0.002-0.002,0.004-0.002c12.449-2.928,24.642-9.215,29.651-15.292c4.963-6.019,7.218-18.949,5.594-31.62l0.006,0.003
			c-1.269-14.669-0.535-17.76,3.151-18.626l-3.629-15.438C222.492,57.36,221.23,57.36,219.042,57.397z"/>
	</g>
	<path fill="#42F6FF" d="M20.413,114.064c-6.241,15.251,6.733,41.353,16.327,45.63c9.593,4.279,42.943,2.414,54.57-15.627
		c11.626-18.041,11.403-42.815,4.849-46.875C81.519,88.126,31.306,96.476,20.413,114.064z"/>
	<g>
		<path fill="#FFFFFF" d="M35.201,102.543l-15.955,26.486c1.135,7.367,4.23,14.961,7.927,20.824l33.028-54.83
			C51.377,96.522,42.502,99.089,35.201,102.543z"/>
		<path fill="#FFFFFF" d="M67.797,93.998L31.015,155.06c1.926,2.191,3.887,3.816,5.725,4.635c0.419,0.188,0.899,0.359,1.405,0.521
			l40.181-66.705C74.99,93.467,71.445,93.632,67.797,93.998z"/>
		<path fill="#FFFFFF" d="M82.29,152.888l16.879-28.02c1.566-6.996,1.846-13.682,1.085-18.793l-31.894,52.948
			C73.309,157.628,78.124,155.623,82.29,152.888z"/>
	</g>
	
		<ellipse transform="matrix(0.9735 -0.2288 0.2288 0.9735 -26.226 4.8591)" fill="#FFE26D" cx="7.845" cy="115.546" rx="3.509" ry="2.014"/>
	<path fill="#42F6FF" d="M206.18,70.397c12.382,10.875,12.395,40.022,5.712,48.127c-6.682,8.104-37.37,21.292-55.816,10.321
		c-18.447-10.972-29.285-33.253-25.225-39.807C139.917,74.399,188.592,59.504,206.18,70.397z"/>
	<g>
		<path fill="#FFFFFF" d="M149.186,75.864l-16.374,27.182c2.348,5.087,6.088,10.724,10.934,15.833l30.586-50.776
			C165.633,69.689,156.743,72.464,149.186,75.864z"/>
		<path fill="#FFFFFF" d="M192.355,66.757c-3.267-0.188-6.77-0.086-10.398,0.272l-33.784,56.083
			c2.202,1.905,4.572,3.667,7.088,5.226L192.355,66.757z"/>
		<path fill="#FFFFFF" d="M213.162,81.182l-30.711,50.983c4.27-0.75,8.438-1.939,12.266-3.371l21.279-35.326
			C215.536,89.236,214.611,85.005,213.162,81.182z"/>
	</g>
	
		<ellipse transform="matrix(-0.9735 0.2289 -0.2289 -0.9735 445.5277 80.5838)" fill="#FFE26D" cx="218.091" cy="66.125" rx="3.509" ry="2.015"/>
	<path opacity="0.3" fill="#29ABE2" d="M22.98,124.989c10.893-17.588,61.106-25.938,75.745-16.872
		c0.71,0.44,1.342,1.136,1.896,2.028c-0.257-6.441-1.857-11.338-4.464-12.953c-14.639-9.066-64.852-0.716-75.745,16.872
		c-2.799,6.841-1.727,15.863,1.167,24.121C21.054,133.443,21.395,128.865,22.98,124.989z"/>
	<path opacity="0.3" fill="#29ABE2" d="M133.418,99.962c9.066-14.639,57.741-29.534,75.329-18.64
		c3.147,2.764,5.491,6.71,7.134,11.189c-1.089-8.682-4.147-17.236-9.701-22.114c-17.588-10.893-66.263,4.002-75.329,18.64
		c-1.615,2.607-0.866,7.704,1.773,13.585C132.724,101.577,132.978,100.673,133.418,99.962z"/>
</g>
</svg>
