<?xml version="1.0" encoding="utf-8"?>
<!-- Generator: Adobe Illustrator 16.0.0, SVG Export Plug-In . SVG Version: 6.00 Build 0)  -->
<!DOCTYPE svg PUBLIC "-//W3C//DTD SVG 1.1//EN" "http://www.w3.org/Graphics/SVG/1.1/DTD/svg11.dtd">
<svg version="1.1" xmlns="http://www.w3.org/2000/svg" xmlns:xlink="http://www.w3.org/1999/xlink" x="0px" y="0px"
	 width="102.34px" height="102.34px" viewBox="0 0 102.34 102.34" enable-background="new 0 0 102.34 102.34" xml:space="preserve">
<g>
	<path fill="#620689" d="M41.38,89.249c0,8.389,5.199,13.091,9.99,13.091V83.789C49.362,87.596,45.64,90.18,41.38,89.249z"/>
	<path fill="#60037F" d="M43.06,69.826c-1.978,3.77-5.555,6.301-9.919,5.479c-0.661,6.641,2.934,12.944,8.24,14.092
		c4.26,0.93,7.981-1.654,9.99-5.461v-8.449C47.91,75.486,44.86,73.235,43.06,69.826z"/>
	<path fill="#5B0477" d="M43.06,60.494c-3.46,0-6.509-2.25-8.299-5.66c-1.8,3.41-4.851,5.66-8.311,5.66c-0.51,0-1.01-0.061-1.5-0.16
		c-0.13,0.799-0.189,1.621-0.189,2.461c0,6.338,3.63,11.599,8.38,12.59c0.53,0.1,1.07,0.18,1.62,0.18c3.46,0,6.509-2.25,8.299-5.661
		c1.8,3.411,4.85,5.661,8.311,5.661v-20.73C49.57,58.244,46.52,60.494,43.06,60.494z"/>
	<path fill="#3F7730" d="M38.273,36.742c-0.21-12.24-3.24-24.49-5.121-36.73c-2.24,0.21-4.33,3.08-5.52,5.05
		c-0.91,1.521-3.24,6.7-1.87,8.421c-1.41-1.761-3.2-3.221-5.21-4.251c-1.64,2.62-1.92,6.04-0.729,8.88
		c-1.32-0.819-2.55-1.779-3.67-2.859c-1.76,2.719-2.03,6.279-0.93,9.319c1.101,3.05,3.47,5.56,6.32,7.08
		c3.29,1.771,7.1,2.251,10.66,3.399c1.29,0.42,2.67,1.021,3.3,2.221c0.28,0.521,0.38,1.1,0.49,1.691
		C36.662,38.092,37.432,37.342,38.273,36.742z"/>
	<path fill="#356627" d="M82.68,10.711c-3.04-1.587-8.189-1.479-10.951-0.869c-7.043,1.586-11.813,8.348-13.17,15.59
		c-0.951-0.264-2.462-0.504-3.85-0.529c1.75-2.891,2.491-6.4,1.9-9.73c-2.39,0.141-4.76,0.55-7.06,1.219
		c0.399-2.509-0.4-5.179-2.11-7.049c-2.05,1.25-3.84,2.9-5.25,4.83c0.81-1.121-1.73-6.16-2.28-7.24
		c-1.13-2.221-2.649-4.44-4.529-6.09c-0.648-0.604-1.418-0.906-2.29-0.83c1.88,12.24,4.91,24.49,5.12,36.73
		c0.92-0.65,1.93-1.121,2.99-1.381c0.8-0.93,1.8-1.74,2.82-2.391c2.44-1.58,5.22-2.619,7.5-4.43c0.611-0.479,1.17-1.01,1.681-1.59
		c1.903-0.155,3.44,0.045,5.069,0.471c-0.291,2.619-0.229,5.26,0.01,7.84c0,0.002,0.001,0.005,0.001,0.008
		c1.079-0.191,1.384-0.129,2.001-0.082c-0.001-0.005-0.002-0.012-0.002-0.016c-0.229-2.35-0.289-4.73-0.06-7.091
		c2.007,0.795,4.329,2.138,6.009,3.29c1.121,0.721,2.281,1.471,3.591,1.971c4.496,1.689,9.673-0.162,13.21-3.529
		c2.851-2.721,4.57-6.23,4.73-9.621C87.951,16.212,85.911,12.402,82.68,10.711z M81.65,28.361c-2.915,2.794-7.304,4.547-11.13,3.109
		c-1.109-0.42-2.12-1.08-3.2-1.779c-1.896-1.214-4.104-2.631-6.829-3.65c1.137-6.709,5.453-12.858,11.68-14.24
		c2.494-0.561,7.121-0.601,9.58,0.682c2.51,1.318,4.16,4.449,4.01,7.619C85.63,22.982,84.13,25.991,81.65,28.361z"/>
	<path fill="#54006A" d="M34.76,40.708c-1.8-3.41-4.851-5.661-8.311-5.661c-5.52,0-10,5.721-10,12.771c0,7.428,4.811,12.77,10,12.77
		c3.46,0,6.51-2.25,8.311-5.66c1.79,3.41,4.839,5.66,8.299,5.66s6.51-2.25,8.311-5.66v-14.22c-1.8-3.41-4.851-5.661-8.311-5.661
		C39.431,35.047,36.482,37.46,34.76,40.708z"/>
	<path fill="#490260" d="M76.292,35.045c-3.471,0-6.51,2.25-8.311,5.66c-2.016-3.82-5.307-5.66-8.311-5.66
		c-3.58,0-6.596,2.414-8.3,5.66v14.22c1.79,3.411,4.841,5.66,8.3,5.66c3.471,0,6.511-2.249,8.311-5.66
		c1.801,3.411,4.84,5.66,8.311,5.66c0.51,0,1.01-0.06,1.5-0.16c4.81-0.93,8.5-6.21,8.5-12.61
		C86.292,40.766,81.811,35.045,76.292,35.045z"/>
	<path fill="#54006A" d="M67.981,54.832c-1.8,3.41-4.84,5.659-8.311,5.659c-3.459,0-6.51-2.249-8.3-5.659v20.729
		c3.461,0,6.511-2.25,8.3-5.658c2.006,3.797,5.59,6.295,9.931,5.479c5.356-1.117,9.297-7.68,8.19-15.049
		C73.714,61.159,70.006,58.668,67.981,54.832z"/>
	<path fill="#5B0477" d="M59.67,69.823c-1.789,3.409-4.839,5.659-8.3,5.659v8.451c2.007,3.822,5.737,6.389,9.989,5.459
		c4.584-0.989,8.861-6.35,8.241-14.09C65.268,76.116,61.68,73.628,59.67,69.823z"/>
	<path fill="#60037F" d="M51.371,83.787v18.549c5.293,0,9.989-5.305,9.989-13.09C57.108,90.176,53.379,87.61,51.371,83.787z"/>
</g>
</svg>
