<?xml version="1.0" encoding="utf-8"?>
<!-- Generator: Adobe Illustrator 16.0.0, SVG Export Plug-In . SVG Version: 6.00 Build 0)  -->
<!DOCTYPE svg PUBLIC "-//W3C//DTD SVG 1.1//EN" "http://www.w3.org/Graphics/SVG/1.1/DTD/svg11.dtd">
<svg version="1.1" id="图层_1" xmlns="http://www.w3.org/2000/svg" xmlns:xlink="http://www.w3.org/1999/xlink" x="0px" y="0px"
	 width="321.474px" height="321.475px" viewBox="0 0 321.474 321.475" enable-background="new 0 0 321.474 321.475"
	 xml:space="preserve">
<g>
	<path fill="#F49908" d="M168.976,162.677L42.859,288.793l-10.179-10.18l126.385-126.394
		C161.502,156.436,164.911,160.016,168.976,162.677z"/>
	<g>
		<path fill="#F43711" d="M129.353,128.469v153.302C56.871,237.049-41.079,153.648,22.824,97.794
			c23.651-20.675,59.407-19.011,81.025,3.786L129.353,128.469z"/>
	</g>
	<path fill="#E52303" d="M129.361,281.779c0,0-0.008,0-0.008-0.009V128.469l0.008,0.009l25.54-26.898
		c21.61-22.797,57.357-24.46,81.008-3.786C299.794,153.622,201.691,237.175,129.361,281.779z"/>
	<polygon fill="#FFFFFF" points="59.152,135.658 71.942,142.653 59.152,149.647 52.158,162.437 45.164,149.647 32.374,142.653 
		45.164,135.658 52.158,122.868 	"/>
	<polygon fill="#FFFFFF" points="80.992,176.261 85.314,178.624 80.992,180.987 78.628,185.31 76.264,180.987 71.942,178.624 
		76.264,176.261 78.628,171.938 	"/>
	<polygon fill="#F43711" points="172.54,181.459 179.58,185.309 172.54,189.16 168.689,196.2 164.838,189.16 157.798,185.309 
		164.838,181.459 168.689,174.418 	"/>
	<polygon fill="#F43711" points="170.878,220.436 185.557,228.462 170.878,236.489 162.85,251.168 154.823,236.489 140.145,228.462 
		154.823,220.436 162.85,205.757 	"/>
	<polygon fill="#F43711" points="209.066,144.933 227.823,155.188 209.066,165.446 198.809,184.203 188.552,165.446 
		169.796,155.188 188.552,144.933 198.809,126.176 	"/>
	<path fill="#F49908" d="M292.609,39.054l-80.693,80.692c-2.653-4.074-6.241-7.474-10.458-9.92l80.962-80.962L292.609,39.054z"/>
	<path fill="#F43711" d="M0.001,321.474c0.099,0.16,26.948-20.13,63.564-30.593l-32.973-32.972
		C20.131,294.525-0.159,321.375,0.001,321.474z"/>
	<path fill="#FFBE08" d="M259.256,14.038c-1.859-2.575-3.198-3.914-3.198-3.914c-42.871,47.438-31.429,76.535-31.429,76.535
		l57.793-57.793C281.116,10.058,271.059,0,271.059,0C266.58,4.901,262.673,9.582,259.256,14.038z"/>
	<path fill="#FFBE08" d="M321.474,50.417c0,0-10.058-10.058-28.867-11.365l-57.793,57.792c0,0,29.097,11.443,76.537-31.427
		c0,0-1.34-1.339-3.915-3.198C311.893,58.801,316.572,54.894,321.474,50.417z"/>
</g>
</svg>
