<?xml version="1.0" encoding="utf-8"?>
<!-- Generator: Adobe Illustrator 16.0.0, SVG Export Plug-In . SVG Version: 6.00 Build 0)  -->
<!DOCTYPE svg PUBLIC "-//W3C//DTD SVG 1.1//EN" "http://www.w3.org/Graphics/SVG/1.1/DTD/svg11.dtd">
<svg version="1.1" id="图层_1" xmlns="http://www.w3.org/2000/svg" xmlns:xlink="http://www.w3.org/1999/xlink" x="0px" y="0px"
	 width="116.91px" height="116.91px" viewBox="0 0 116.91 116.91" enable-background="new 0 0 116.91 116.91" xml:space="preserve">
<g>
	<path fill="#582814" d="M84.737,21.632c1.203-0.269,0.285,0.495,1.466-0.556c0.887-0.786,1.053-2.158,0.372-3.056l-6.551-8.642
		c-0.682-0.901-1.959-0.992-2.843-0.204L64.195,20.703l8.82,3.538L84.737,21.632z"/>
	<path fill="#FFA63A" d="M86.605,29.695l-0.861-6.28c-0.06-0.43-0.44-0.705-0.846-0.613l-9.954,2.215L86.605,29.695z"/>
	<path fill="#642F17" d="M73.015,24.24l1.93,0.777l9.954-2.215c0.406-0.092,0.786,0.184,0.846,0.613l0.861,6.28l1.21,0.486
		l-0.964-7.011c-0.152-1.113-1.15-1.753-2.114-1.538L73.015,24.24z"/>
	<g>
		<path fill="#FFA63A" d="M58.455,54.69v62.212c-0.703,0-1.174,0.09-1.688-0.422c-1.694-1.695-18.636-57.579-19.957-61.78v-0.01
			H58.455z"/>
		<path fill="#E58F30" d="M80.1,54.69c-1.311,4.202-18.259,60.094-19.962,61.788c-0.506,0.516-0.98,0.424-1.682,0.424V99.302h1.176
			v-4.448h4.45V92.51h-4.45v-4.448h-1.176V54.69H80.1z"/>
		<path fill="#582814" d="M80.1,54.69H37.037c-0.073,0-0.156,0-0.227,0.01c1.321,4.202,2.538,8.113,3.674,11.768h16.905v3.188
			c0,1.14,0.925,2.065,2.064,2.065c1.726,0,2.524,0.177,3.31-0.364v4.403c0,1.14,0.924,2.064,2.064,2.064h0.172
			c1.14,0,2.064-0.924,2.064-2.064v-5.772c0.639,0.293,1.157,0.194,2.581,0.194c1.14,0,2.064-0.924,2.064-2.064v-1.65h4.717
			C77.561,62.813,78.789,58.892,80.1,54.69z"/>
		<polygon fill="#E58F30" points="57.173,75.857 52.723,75.857 52.723,71.407 50.377,71.407 50.377,75.857 45.926,75.857 
			45.926,78.203 50.377,78.203 50.377,82.654 52.723,82.654 52.723,78.203 57.173,78.203 		"/>
		<polygon fill="#FFA63A" points="64.081,92.51 64.081,94.854 59.631,94.854 59.631,99.302 58.455,99.302 58.455,88.062 
			59.631,88.062 59.631,92.51 		"/>
		<polygon fill="#E58F30" points="58.455,88.062 58.455,99.302 57.289,99.302 57.289,94.854 52.829,94.854 52.829,92.51 
			57.289,92.51 57.289,88.062 		"/>
	</g>
	<g>
		<circle fill="#FF48A4" cx="58.455" cy="19.25" r="19.249"/>
		<circle fill="#FFB3DF" cx="58.454" cy="19.25" r="12.978"/>
	</g>
	<g>
		<circle fill="#FB9D10" cx="43.713" cy="42.779" r="19.249"/>
		<circle fill="#FFC233" cx="43.713" cy="42.779" r="12.978"/>
		<circle fill="#9ECC2C" cx="73.197" cy="42.779" r="19.249"/>
		<circle fill="#EAEC98" cx="73.197" cy="42.779" r="12.978"/>
	</g>
</g>
</svg>
