<?xml version="1.0" encoding="utf-8"?>
<!-- Generator: Adobe Illustrator 16.0.0, SVG Export Plug-In . SVG Version: 6.00 Build 0)  -->
<!DOCTYPE svg PUBLIC "-//W3C//DTD SVG 1.1//EN" "http://www.w3.org/Graphics/SVG/1.1/DTD/svg11.dtd">
<svg version="1.1" xmlns="http://www.w3.org/2000/svg" xmlns:xlink="http://www.w3.org/1999/xlink" x="0px" y="0px"
	 width="125.76px" height="125.76px" viewBox="0 0 125.76 125.76" enable-background="new 0 0 125.76 125.76" xml:space="preserve">
<g>
	<path fill="#589F44" d="M32.568,35.85l0.291-0.106l0.062-2.659l-0.062,2.659l2.294-0.815c-0.057-0.03-0.117-0.065-0.176-0.091
		c3.604-4.306,10.177-6.305,21.484-3.706l16.451,3.864c0,0-6.572-19.068-45.487-11.583c0,0,15.779-13.918,29.111-13.871
		c0,0-42.078-16.413-43.358,21.438c0,0-29.539,32.902-0.16,45.721c0,0-6.265-27.161,8.472-34.258c0,0-0.921,34.284,16.626,34.345
		c0.163,0.397-10.332-23.327-5.759-37.146c0.143,0.135,0.265,0.274,0.403,0.409l0.099-4.307L32.568,35.85z"/>
	<path fill="#69462C" d="M35.153,34.928l-2.294,0.815l-0.099,4.307c34.082,33.451,21.483,79.616,21.483,79.616l7.869,0.028
		l7.514,0.026l0.123-35.305C60.535,53.25,45.812,40.276,35.153,34.928z"/>
	<path fill="#785033" d="M99.851,50.593l-3.096-1.097c0.07,0.085,0.149,0.161,0.222,0.251c-8.158,3.978-19.285,13.312-27.124,35.001
		c-0.031-0.111-0.067-0.219-0.103-0.332l-0.123,35.305l6.942,0.023l3.999,0.015c0,0-10.241-38.554,18.551-66.029L99.851,50.593z"/>
	<path fill="#61AE46" d="M115.022,46.678c-0.839-31.297-35.718-17.969-35.718-17.969c11.019,0.038,23.982,11.631,23.982,11.631
		c-32.136-6.412-37.674,9.321-37.674,9.321l13.629-3.109c9.134-2.028,14.507-0.473,17.513,2.944l3.096,1.097l0.637-2.745
		l-0.637,2.745l2.01,0.717l-2.01-0.717l-0.731,3.137c0.004,0,0.004-0.006,0.01-0.006c3.694,11.454-5.116,31.014-4.984,30.678
		c14.514,0.051,13.943-28.301,13.943-28.301c12.154,5.954,6.807,28.373,6.807,28.373C139.262,74.054,115.022,46.678,115.022,46.678z
		"/>
	<path fill="#E1AB25" d="M39.641,41.411c-0.016,4.295-3.512,7.769-7.812,7.754c-4.297-0.016-7.771-3.514-7.756-7.809
		c0.015-4.301,3.514-7.773,7.811-7.758C36.184,33.613,39.655,37.11,39.641,41.411z"/>
	<path fill="#FDBB16" d="M106.171,55.649c-0.015,4.299-3.512,7.771-7.809,7.756c-4.301-0.015-7.771-3.512-7.756-7.811
		c0.016-4.297,3.51-7.769,7.811-7.754C102.714,47.856,106.187,51.352,106.171,55.649z"/>
</g>
</svg>
