<?xml version="1.0" encoding="utf-8"?>
<!-- Generator: Adobe Illustrator 16.0.0, SVG Export Plug-In . SVG Version: 6.00 Build 0)  -->
<!DOCTYPE svg PUBLIC "-//W3C//DTD SVG 1.1//EN" "http://www.w3.org/Graphics/SVG/1.1/DTD/svg11.dtd">
<svg version="1.1" xmlns="http://www.w3.org/2000/svg" xmlns:xlink="http://www.w3.org/1999/xlink" x="0px" y="0px"
	 width="300px" height="339.337px" viewBox="0 0 300 339.337" enable-background="new 0 0 300 339.337" xml:space="preserve">
<g>
	<path fill="#1B783C" d="M150,157.843c0,1.578,24.188,13.957,26.206,15.34c20.104,13.78,38.229,30.595,53.153,49.885
		c11.92,15.406,22.718,32.936,29.232,51.378c7.557,21.384,12.362,47.565-10.494,61.384c-9.405,5.685-21.59,5.417-22.444-8.016
		c-0.947-14.905,11.977-9.036,16.898-18.712c3.523-6.928,0.788-16.239-1.541-23.134c-4.153-12.297-10.199-23.365-16.576-34.624
		c-14.136-24.953-32.08-49.028-55.872-65.53c-5.85-4.057-12.046-7.617-18.562-10.49V157.843z"/>
	<path fill="#4BB649" d="M276.212,150c24.228,0,43.534-64.266-13.386-66.519c-25.008-0.969-52.958,11.9-73.696,27.331
		c15.408-20.527,28.37-48.222,27.389-73.639C214.239-20.133,150-0.051,150,23.789c0-24.228-64.266-43.534-66.52,13.385
		c-0.968,25.007,11.9,52.958,27.331,73.695C90.283,95.461,62.59,82.5,37.174,83.481c-57.307,2.279-37.225,66.521-13.385,66.521
		c-24.229,0-43.535,64.265,13.385,66.518c25.006,0.969,52.957-11.899,73.694-27.329c-15.407,20.527-28.369,48.22-27.387,73.636
		c2.279,57.308,66.521,37.225,66.521,13.385c0,24.229,64.264,43.535,66.517-13.385c0.97-25.006-11.898-52.958-27.331-73.695
		c20.528,15.407,48.224,28.37,73.639,27.389C320.133,214.24,300.052,150,276.212,150z"/>
	<path fill="#35A549" d="M150,133.362c-17.407,0-56.67-43.288-55.157-78.709C96.712,11.887,150,26.392,150,44.595
		c0-17.91,53.266-32.999,55.154,10.058C206.701,90.917,166.554,133.362,150,133.362z"/>
	<path fill="#35A549" d="M150.002,166.638c17.404,0,56.667,43.288,55.154,78.709c-1.869,42.766-55.154,28.26-55.154,10.056
		c0,17.912-53.268,33-55.157-10.056C93.298,209.082,133.444,166.638,150.002,166.638z"/>
	<path fill="#35A549" d="M166.639,150c0-17.406,43.287-56.669,78.709-55.156C288.111,96.712,273.606,150,255.403,150
		c17.911,0,33,53.266-10.056,55.155C209.082,206.701,166.639,166.554,166.639,150z"/>
	<path fill="#35A549" d="M133.362,150.001c0,17.405-43.289,56.668-78.71,55.155c-42.765-1.868-28.259-55.155-10.056-55.155
		c-17.912,0-33-53.267,10.056-55.156C90.918,93.298,133.362,133.445,133.362,150.001z"/>
</g>
</svg>
