<?xml version="1.0" encoding="utf-8"?>
<!-- Generator: Adobe Illustrator 16.0.0, SVG Export Plug-In . SVG Version: 6.00 Build 0)  -->
<!DOCTYPE svg PUBLIC "-//W3C//DTD SVG 1.1//EN" "http://www.w3.org/Graphics/SVG/1.1/DTD/svg11.dtd">
<svg version="1.1" xmlns="http://www.w3.org/2000/svg" xmlns:xlink="http://www.w3.org/1999/xlink" x="0px" y="0px"
	 width="300px" height="276.215px" viewBox="0 0 300 276.215" enable-background="new 0 0 300 276.215" xml:space="preserve">
<g>
	<g>
		<polygon fill="#FFC72A" points="150.005,151.862 150.005,184.62 48.314,184.62 0,160.102 15.143,147.121 5.048,129.092 
			20.191,121.161 15.865,95.199 38.22,100.248 43.989,89.431 58.411,100.968 69.228,83.662 106.737,103.131 		"/>
		<polygon fill="#F47E20" points="300,160.102 251.684,184.62 150.005,184.62 150.005,151.862 193.273,103.131 230.771,83.662 
			241.588,100.968 256.011,89.431 261.78,100.248 284.135,95.199 279.809,121.161 294.953,129.092 284.856,147.121 		"/>
	</g>
	<g>
		<polygon fill="#FDDF46" points="150.005,0 150.005,151.862 106.737,103.131 89.42,56.979 111.775,53.375 113.938,31.019 
			138.467,27.414 		"/>
		<polygon fill="#F89C1C" points="210.58,56.979 193.273,103.131 150.005,151.862 150.005,0 161.543,27.414 186.062,31.019 
			188.225,53.375 		"/>
	</g>
	<g>
		<polygon fill="#FDDF46" points="150,184.623 150,227.897 94.468,276.215 81.486,252.056 43.265,252.056 43.265,227.897 
			18.749,208.415 48.309,184.623 		"/>
		<polygon fill="#F89C1C" points="281.251,208.415 256.735,227.897 256.735,252.056 218.514,252.056 205.532,276.215 150,227.897 
			150,184.623 251.681,184.623 		"/>
	</g>
	<path fill="#4F2D11" d="M154.246,270.448c-2.754,0.229-5.737,0.229-8.492,0l0.406-39.211l3.845-3.34l3.835,3.34L154.246,270.448z"
		/>
	<polygon fill="#E76524" points="154.385,186.248 266.649,110.796 153.316,180.97 151.868,41.876 148.142,41.876 146.683,180.969 
		33.351,110.796 145.615,186.248 72.988,233.674 146.583,190.489 146.16,231.237 150.005,227.897 153.84,231.237 153.415,190.489 
		227.011,233.674 	"/>
	<polygon fill="#F5841F" points="150.283,183.196 149.717,183.573 149.717,182.848 	"/>
</g>
</svg>
