<?xml version="1.0" encoding="utf-8"?>
<!-- Generator: Adobe Illustrator 16.0.0, SVG Export Plug-In . SVG Version: 6.00 Build 0)  -->
<!DOCTYPE svg PUBLIC "-//W3C//DTD SVG 1.1//EN" "http://www.w3.org/Graphics/SVG/1.1/DTD/svg11.dtd">
<svg version="1.1" xmlns="http://www.w3.org/2000/svg" xmlns:xlink="http://www.w3.org/1999/xlink" x="0px" y="0px"
	 width="103.71px" height="103.71px" viewBox="0 0 103.71 103.71" enable-background="new 0 0 103.71 103.71" xml:space="preserve">
<g>
	<g>
		<polygon fill="#C7282E" points="62.869,36.721 40.841,36.721 40.841,18.36 62.869,-0.002 		"/>
		<path fill="#D4D4D4" d="M34.436,81.155V39.29c0-3.484,2.825-6.309,6.309-6.309h22.219c3.484,0,6.31,2.825,6.31,6.309v41.865
			H34.436z"/>
		<rect x="34.436" y="47.806" fill="#B3B3B3" width="34.838" height="33.349"/>
		<path fill="#8C3338" d="M29.312,103.712V67.894c0-4.51,3.656-8.165,8.165-8.165h28.756c4.509,0,8.165,3.655,8.165,8.165v35.818
			H29.312L29.312,103.712z"/>
		<rect x="29.312" y="89.227" fill="#592124" width="45.086" height="14.485"/>
	</g>
	<path opacity="0.3" enable-background="new    " d="M69.274,60.32V39.29c0-3.484-2.825-6.309-6.31-6.309h-0.096V-0.002
		L51.747,9.269v94.443h22.651V67.894C74.398,64.46,72.276,61.527,69.274,60.32z"/>
</g>
</svg>
