<?xml version="1.0" encoding="utf-8"?>
<!-- Generator: Adobe Illustrator 16.0.0, SVG Export Plug-In . SVG Version: 6.00 Build 0)  -->
<!DOCTYPE svg PUBLIC "-//W3C//DTD SVG 1.1//EN" "http://www.w3.org/Graphics/SVG/1.1/DTD/svg11.dtd">
<svg version="1.1" xmlns="http://www.w3.org/2000/svg" xmlns:xlink="http://www.w3.org/1999/xlink" x="0px" y="0px"
	 width="205.47px" height="205.471px" viewBox="0 0 205.47 205.471" enable-background="new 0 0 205.47 205.471"
	 xml:space="preserve">
<g id="XMLID_132_">
	<g id="XMLID_34_">
		<path id="XMLID_1_" fill="#E84A3C" d="M102.735,58.312c0,0-9.497-23.31-43.167-11.223c-33.67,12.086-59.57,36.26-59.57,36.26
			h102.736V58.312z"/>
		<path id="XMLID_28_" fill="#D2392C" d="M102.735,58.312c0,0,9.497-23.31,43.167-11.223c33.67,12.086,59.57,36.26,59.57,36.26
			H102.735V58.312z"/>
		<path id="XMLID_29_" fill="#E84A3C" d="M-0.001,83.349c0,0,18.993,17.979,27.626,31.436c8.633,13.457,31.08,29.861,75.11,29.861
			V83.349H-0.001z"/>
		<path id="XMLID_30_" fill="#D2392C" d="M205.471,83.349c0,0-18.993,17.979-27.626,31.436c-8.633,13.457-31.08,29.861-75.11,29.861
			V83.349H205.471z"/>
		<path id="XMLID_31_" fill="#942E25" d="M-0.001,83.349c4.292-0.602,8.583-1.207,12.879-1.756c4.294-0.575,8.593-1.096,12.89-1.629
			c4.297-0.545,8.598-1.043,12.898-1.541c2.137-0.26,4.331-0.478,6.421-0.773c2.141-0.323,4.393-0.527,6.573-0.67
			c4.399-0.286,8.829-0.299,13.24,0.029c4.41,0.339,8.801,0.978,13.135,1.902c2.192,0.469,4.244,0.958,6.364,1.471l6.312,1.521
			l12.622,3.049l-1.176-0.005l12.644-2.942l6.322-1.471l6.359-1.424c2.078-0.456,4.344-0.875,6.507-1.211
			c2.188-0.326,4.386-0.583,6.588-0.777c4.41-0.33,8.834-0.362,13.234-0.109c2.2,0.131,4.394,0.337,6.574,0.637l1.632,0.238
			l0.763,0.114l0.806,0.093l3.225,0.372c4.301,0.485,8.599,1.001,12.896,1.535c4.298,0.521,8.595,1.049,12.888,1.614
			c4.296,0.541,8.586,1.145,12.878,1.732c-4.328-0.186-8.657-0.356-12.98-0.59c-4.326-0.207-8.648-0.453-12.97-0.706
			c-4.323-0.24-8.644-0.498-12.962-0.786l-3.24-0.209l-3.253-0.238c-2.126-0.129-4.252-0.196-6.376-0.23
			c-4.25-0.031-8.492,0.225-12.695,0.74c-2.102,0.252-4.196,0.562-6.277,0.938c-2.102,0.396-4.082,0.82-6.216,1.355l-6.27,1.579
			l-6.306,1.535l-12.613,3.071l-0.588,0.143l-0.588-0.148l-12.593-3.166L76.997,83.45c-4.104-1.006-8.278-1.744-12.488-2.196
			c-2.105-0.218-4.215-0.43-6.334-0.522c-2.118-0.109-4.242-0.156-6.366-0.116c-2.145,0.029-4.213,0.134-6.374,0.288l-6.508,0.418
			c-4.321,0.274-8.642,0.549-12.967,0.777c-4.324,0.238-8.647,0.49-12.975,0.688C8.659,83.011,4.329,83.177-0.001,83.349z"/>
		
			<ellipse id="XMLID_18_" transform="matrix(0.9767 -0.2146 0.2146 0.9767 -10.5266 15.8555)" fill="#FF958C" cx="67.77" cy="56.415" rx="11.223" ry="6.799"/>
		<circle id="XMLID_27_" fill="#FF958C" cx="87.627" cy="56.415" r="4.317"/>
	</g>
</g>
</svg>
