<?xml version="1.0" encoding="utf-8"?>
<!-- Generator: Adobe Illustrator 16.0.0, SVG Export Plug-In . SVG Version: 6.00 Build 0)  -->
<!DOCTYPE svg PUBLIC "-//W3C//DTD SVG 1.1//EN" "http://www.w3.org/Graphics/SVG/1.1/DTD/svg11.dtd">
<svg version="1.1" xmlns="http://www.w3.org/2000/svg" xmlns:xlink="http://www.w3.org/1999/xlink" x="0px" y="0px"
	 width="102.91px" height="102.91px" viewBox="0 0 102.91 102.91" enable-background="new 0 0 102.91 102.91" xml:space="preserve">
<g>
	<path display="none" fill="#FFFFFF" d="M11.192,88.7c0,2.988-0.181,6.068,0.62,8.98c1.956,7.113,7.907,11.439,14.821,12.511
		c0.585,0.139,1.214,0.22,1.896,0.22c0.37,0.025,0.721,0.02,1.062,0c8.41,0,16.819,0,25.229,0c8.992,0,21.654,2.161,29.355-3.076
		c9.455-6.43,7.544-19.003,7.544-28.98c0-11.665,0-23.329,0-34.994c0-4.27,0.388-8.75-1.042-12.824
		c-2.268-6.461-7.152-9.53-12.889-10.782c0-1.823,0-3.646,0-5.468c4.066-7.484-0.004-18.298-8.853-21.043
		c-5.352-1.661-11.977-0.745-17.479-0.745c-5.325,0-11.621-0.864-16.836,0.567C25.462-4.42,20.887,6.649,25.123,14.325
		c0,1.836,0,3.673,0,5.51c-6.927,1.625-12.581,5.854-13.707,14.191c-0.59,4.362-0.224,9.093-0.224,13.492
		C11.192,61.245,11.192,74.973,11.192,88.7z"/>
	<g>
		<g>
			<g>
				<g>
					<path fill="#FFFFFF" d="M60.5,29.567h-4.352v-4.256c0-0.088-0.071-0.159-0.159-0.159h-9.067c-0.088,0-0.159,0.071-0.159,0.159
						v4.256H42.41v-4.256c0-2.488,2.024-4.511,4.512-4.511h9.067c2.488,0,4.511,2.023,4.511,4.511V29.567z"/>
					<path fill="#462B17" d="M61.901,30.969h-7.155v-4.415h-6.583v4.415h-7.155v-5.658c0-3.26,2.652-5.913,5.913-5.913h9.067
						c3.26,0,5.912,2.652,5.912,5.913V30.969z M57.549,28.166h1.549v-2.855c0-1.715-1.395-3.11-3.109-3.11h-9.067
						c-1.715,0-3.11,1.395-3.11,3.11v2.855h1.549v-2.855c0-0.86,0.701-1.56,1.561-1.56h9.067c0.86,0,1.56,0.7,1.56,1.56V28.166z"/>
				</g>
			</g>
			<g>
				<path fill="#B0E2F1" d="M74.381,101.51H28.529c-4.659,0-8.436-3.776-8.436-8.435v-56.72c0-4.659,3.777-8.436,8.436-8.436h45.852
					c4.659,0,8.436,3.777,8.436,8.436v56.72C82.816,97.734,79.04,101.51,74.381,101.51z"/>
				<path fill="#462B17" d="M74.381,102.912H28.528c-5.424,0-9.836-4.413-9.836-9.836v-56.72c0-5.424,4.412-9.837,9.836-9.837
					h45.853c5.424,0,9.837,4.413,9.837,9.837v56.72C84.218,98.499,79.805,102.912,74.381,102.912z M28.528,29.321
					c-3.878,0-7.034,3.155-7.034,7.034v56.72c0,3.878,3.155,7.034,7.034,7.034h45.853c3.878,0,7.035-3.155,7.035-7.034v-56.72
					c0-3.879-3.156-7.034-7.035-7.034H28.528z"/>
			</g>
			<g>
				<g>
					<path fill="#F6D436" d="M30.737,27.92h-2.208c-4.659,0-8.436,3.777-8.436,8.436v2.208
						C25.971,38.563,30.737,33.798,30.737,27.92z"/>
					<path fill="#462B17" d="M20.093,39.965h-1.401v-3.609c0-5.424,4.412-9.837,9.836-9.837h3.609v1.401
						C32.138,34.562,26.734,39.965,20.093,39.965z M28.528,29.321c-3.878,0-7.034,3.155-7.034,7.034v0.701
						c3.976-0.607,7.126-3.758,7.734-7.735H28.528z"/>
				</g>
				<g>
					<path fill="#F6D436" d="M82.816,38.563v-2.208c0-4.659-3.777-8.436-8.436-8.436h-2.208
						C72.173,33.798,76.938,38.563,82.816,38.563z"/>
					<path fill="#462B17" d="M84.218,39.965h-1.401c-6.642,0-12.045-5.403-12.045-12.045v-1.401h3.609
						c5.424,0,9.837,4.413,9.837,9.837V39.965z M73.68,29.321c0.608,3.977,3.758,7.127,7.735,7.735v-0.701
						c0-3.879-3.156-7.034-7.035-7.034H73.68z"/>
				</g>
				<g>
					<path fill="#F6D436" d="M20.093,90.867v2.208c0,4.659,3.777,8.435,8.436,8.435h2.208
						C30.737,95.632,25.971,90.867,20.093,90.867z"/>
					<path fill="#462B17" d="M32.138,102.912h-3.609c-5.424,0-9.836-4.413-9.836-9.836v-3.61h1.401
						c6.641,0,12.044,5.403,12.044,12.045V102.912z M21.495,92.374v0.701c0,3.878,3.155,7.034,7.034,7.034h0.701
						C28.621,96.132,25.471,92.981,21.495,92.374z"/>
				</g>
				<g>
					<path fill="#F6D436" d="M82.816,93.075v-2.208c-5.878,0-10.644,4.765-10.644,10.643h2.208
						C79.04,101.51,82.816,97.734,82.816,93.075z"/>
					<path fill="#462B17" d="M74.381,102.912h-3.609v-1.401c0-6.642,5.403-12.045,12.045-12.045h1.401v3.61
						C84.218,98.499,79.805,102.912,74.381,102.912z M73.68,100.109h0.701c3.878,0,7.035-3.155,7.035-7.034v-0.701
						C77.438,92.981,74.288,96.132,73.68,100.109z"/>
				</g>
			</g>
			<g>
				<g>
					<g>
						<rect x="32.707" y="56.586" fill="#794833" width="9.121" height="44.924"/>
						<path fill="#462B17" d="M43.229,102.912H31.306V55.185h11.923V102.912z M34.108,100.109h6.318V57.987h-6.318V100.109z"/>
					</g>
					<g>
						<path fill="#794833" d="M37.268,71.576L37.268,71.576c-2.519,0-4.561-2.042-4.561-4.56V27.92h9.121v39.096
							C41.828,69.534,39.786,71.576,37.268,71.576z"/>
						<path fill="#462B17" d="M37.268,72.977c-3.287,0-5.962-2.675-5.962-5.962V26.519h11.923v40.497
							C43.229,70.302,40.555,72.977,37.268,72.977z M34.108,29.321v37.694c0,1.742,1.417,3.159,3.159,3.159
							c1.742,0,3.159-1.417,3.159-3.159V29.321H34.108z"/>
					</g>
					<g>
						<path fill="#462B17" d="M37.268,66.26c-3.287,0-5.962-2.675-5.962-5.962v-2.96c0-3.288,2.675-5.961,5.962-5.961
							c3.288,0,5.961,2.674,5.961,5.961v2.96C43.229,63.585,40.555,66.26,37.268,66.26z M37.268,54.179
							c-1.742,0-3.159,1.417-3.159,3.159v2.96c0,1.742,1.417,3.159,3.159,3.159c1.742,0,3.159-1.417,3.159-3.159v-2.96
							C40.426,55.596,39.009,54.179,37.268,54.179z"/>
					</g>
					<g>
						<g>
							<path fill="#462B17" d="M37.268,67.298L37.268,67.298c-0.53,0-0.96-0.43-0.96-0.96v-9.043c0-0.53,0.43-0.96,0.96-0.96l0,0
								c0.53,0,0.96,0.43,0.96,0.96v9.043C38.228,66.869,37.797,67.298,37.268,67.298z"/>
						</g>
					</g>
				</g>
				<g>
					<g>
						<rect x="61.082" y="69.387" fill="#794833" width="9.12" height="32.124"/>
						<path fill="#462B17" d="M71.604,102.912H59.68V67.985h11.924V102.912z M62.483,100.109h6.318V70.788h-6.318V100.109z"/>
					</g>
					<g>
						<path fill="#794833" d="M65.642,84.376L65.642,84.376c-2.519,0-4.56-2.042-4.56-4.561V27.92h9.12v51.896
							C70.202,82.334,68.161,84.376,65.642,84.376z"/>
						<path fill="#462B17" d="M65.643,85.777c-3.288,0-5.962-2.674-5.962-5.961V26.519h11.924v53.297
							C71.604,83.104,68.93,85.777,65.643,85.777z M62.483,29.321v50.495c0,1.742,1.417,3.159,3.16,3.159
							c1.742,0,3.158-1.417,3.158-3.159V29.321H62.483z"/>
					</g>
					<g>
						<path fill="#462B17" d="M65.643,79.06c-3.288,0-5.962-2.674-5.962-5.961v-2.96c0-3.287,2.675-5.961,5.962-5.961
							c3.287,0,5.961,2.674,5.961,5.961v2.96C71.604,76.386,68.93,79.06,65.643,79.06z M65.643,66.979
							c-1.743,0-3.16,1.417-3.16,3.159v2.96c0,1.742,1.417,3.159,3.16,3.159c1.742,0,3.158-1.417,3.158-3.159v-2.96
							C68.801,68.396,67.384,66.979,65.643,66.979z"/>
					</g>
					<g>
						<g>
							<path fill="#462B17" d="M65.642,80.099L65.642,80.099c-0.53,0-0.96-0.43-0.96-0.96v-9.043c0-0.53,0.43-0.96,0.96-0.96l0,0
								c0.53,0,0.96,0.43,0.96,0.96v9.043C66.602,79.669,66.172,80.099,65.642,80.099z"/>
						</g>
					</g>
				</g>
			</g>
			<g>
				<g>
					<rect x="34.025" y="8.351" fill="#FFFFFF" width="3.417" height="19.569"/>
					<path fill="#462B17" d="M38.843,29.321h-6.22V6.95h6.22V29.321z M35.426,26.519h0.614V9.752h-0.614V26.519z"/>
				</g>
				<g>
					<rect x="65.468" y="8.351" fill="#FFFFFF" width="3.417" height="19.569"/>
					<path fill="#462B17" d="M70.287,29.321h-6.22V6.95h6.22V29.321z M66.87,26.519h0.614V9.752H66.87V26.519z"/>
				</g>
			</g>
			<g>
				<g>
					<path fill="#F6D436" d="M69.093,10.896h-3.186c-0.773,0-1.4-0.626-1.4-1.399V7.603c0-0.121-0.098-0.218-0.218-0.218H38.62
						c-0.121,0-0.219,0.098-0.219,0.218v1.894c0,0.773-0.626,1.399-1.399,1.399h-3.186c-0.773,0-1.399-0.626-1.399-1.399V7.603
						c0-3.426,2.777-6.203,6.203-6.203H64.29c3.426,0,6.203,2.777,6.203,6.203v1.894C70.493,10.27,69.866,10.896,69.093,10.896z"/>
					<path fill="#462B17" d="M69.093,12.297h-3.185c-1.544,0-2.801-1.256-2.801-2.801v-0.71H39.803v0.71
						c0,1.544-1.256,2.801-2.801,2.801h-3.186c-1.545,0-2.801-1.256-2.801-2.801V7.603c0-4.193,3.411-7.604,7.604-7.604H64.29
						c4.193,0,7.604,3.412,7.604,7.604v1.894C71.894,11.041,70.638,12.297,69.093,12.297z M38.62,5.983H64.29
						c0.893,0,1.62,0.727,1.62,1.62v1.894l3.185-0.002l-0.003-1.892c0-2.647-2.154-4.802-4.802-4.802H38.62
						c-2.648,0-4.802,2.154-4.802,4.802v1.894l3.184-0.002L37,7.603C37,6.71,37.727,5.983,38.62,5.983z"/>
				</g>
			</g>
		</g>
		<path fill="#FDFAF3" d="M25.362,63.457L25.362,63.457c-0.774,0-1.401-0.627-1.401-1.401V43.993c0-0.774,0.627-1.401,1.401-1.401
			l0,0c0.774,0,1.401,0.627,1.401,1.401v18.063C26.763,62.83,26.136,63.457,25.362,63.457z"/>
		<path fill="#FDFAF3" d="M25.362,75.318L25.362,75.318c-0.774,0-1.401-0.627-1.401-1.401v-5.536c0-0.774,0.627-1.401,1.401-1.401
			l0,0c0.774,0,1.401,0.627,1.401,1.401v5.536C26.763,74.69,26.136,75.318,25.362,75.318z"/>
		<path fill="#FDFAF3" d="M47.286,32.371L47.286,32.371c0-0.774,0.627-1.402,1.401-1.402h5.535c0.774,0,1.402,0.627,1.402,1.402l0,0
			c0,0.774-0.627,1.401-1.402,1.401h-5.535C47.913,33.772,47.286,33.145,47.286,32.371z"/>
	</g>
</g>
</svg>
