<?xml version="1.0" encoding="utf-8"?>
<!-- Generator: Adobe Illustrator 16.0.0, SVG Export Plug-In . SVG Version: 6.00 Build 0)  -->
<!DOCTYPE svg PUBLIC "-//W3C//DTD SVG 1.1//EN" "http://www.w3.org/Graphics/SVG/1.1/DTD/svg11.dtd">
<svg version="1.1" xmlns="http://www.w3.org/2000/svg" xmlns:xlink="http://www.w3.org/1999/xlink" x="0px" y="0px"
	 width="114.48px" height="114.48px" viewBox="0 0 114.48 114.48" enable-background="new 0 0 114.48 114.48" xml:space="preserve">
<g>
	<path fill="#FDCFB7" d="M31.528,20.054c0,0-11.778-5.798-11.778-14.133s-3.922-6.191-5.073-3.625
		c-1.591,3.549-10.872,16.67,3.806,30.441L31.528,20.054z"/>
	<path fill="#FDCFB7" d="M82.16,20.054c0,0,11.777-5.798,11.777-14.133s3.923-6.191,5.073-3.625
		c1.591,3.549,10.872,16.67-3.806,30.441L82.16,20.054z"/>
	<path fill="#FC6A33" d="M111.948,101.626c0.015-0.51,0.023-1.023,0.023-1.537V61.943c0-29.617-24.009-53.625-53.625-53.625h-2.212
		c-29.616,0-53.626,24.009-53.626,53.625v38.146c0,0.514,0.01,1.027,0.024,1.537H111.948z"/>
	<g>
		<defs>
			<path id="XMLID_1_" d="M82.868,59.171v8.35c0,13.488-10.82,23.65-24.309,23.65h-2.645c-13.489,0-25.047-10.162-25.047-23.65
				v-8.35H82.868z"/>
		</defs>
		<use xlink:href="#XMLID_1_"  overflow="visible" fill="#333333"/>
		<clipPath id="XMLID_3_">
			<use xlink:href="#XMLID_1_"  overflow="visible"/>
		</clipPath>
		<ellipse clip-path="url(#XMLID_3_)" fill="#F6FEFF" cx="39.706" cy="89.179" rx="5.56" ry="7.812"/>
		<ellipse clip-path="url(#XMLID_3_)" fill="#F6FEFF" cx="50.763" cy="92.495" rx="5.56" ry="7.812"/>
		<ellipse clip-path="url(#XMLID_3_)" fill="#F6FEFF" cx="75.088" cy="89.179" rx="5.56" ry="7.812"/>
	</g>
	<circle fill="#333333" cx="25.71" cy="45.735" r="5.818"/>
	<circle fill="#F6FEFF" cx="25.71" cy="44.077" r="1.889"/>
	<circle fill="#333333" cx="87.075" cy="45.735" r="5.818"/>
	<circle fill="#F6FEFF" cx="87.075" cy="44.077" r="1.888"/>
	<circle opacity="0.2" fill="#333333" cx="68.57" cy="22.286" r="3.818"/>
	<circle opacity="0.2" fill="#333333" cx="70.229" cy="34.448" r="2.198"/>
	<circle opacity="0.2" fill="#333333" cx="10.522" cy="88.626" r="2.199"/>
	<circle opacity="0.2" fill="#333333" cx="22.132" cy="93.05" r="2.198"/>
	<circle opacity="0.2" fill="#333333" cx="86.813" cy="29.473" r="2.923"/>
	<circle opacity="0.2" fill="#333333" cx="18.262" cy="79.228" r="2.923"/>
	<g>
		<path fill="#F6FEFF" d="M32.288,58.933c-0.002,0.085-0.008,0.167-0.008,0.252c0,4.372,2.133,7.916,4.768,7.916
			c2.633,0,4.767-3.544,4.767-7.916c0-0.085-0.005-0.167-0.007-0.252H32.288z"/>
		<path fill="#F6FEFF" d="M43.245,58.933c-0.001,0.069-0.006,0.137-0.006,0.206c0,3.571,1.744,6.466,3.895,6.466
			s3.895-2.895,3.895-6.466c0-0.069-0.005-0.137-0.006-0.206H43.245z"/>
		<path fill="#F6FEFF" d="M52.46,58.933c-0.001,0.085-0.008,0.167-0.008,0.252c0,4.372,2.134,7.916,4.768,7.916
			s4.768-3.544,4.768-7.916c0-0.085-0.006-0.167-0.007-0.252H52.46z"/>
		<path fill="#F6FEFF" d="M62.921,58.933c-0.001,0.078-0.007,0.154-0.007,0.232c0,4.027,1.966,7.291,4.392,7.291
			s4.392-3.264,4.392-7.291c0-0.078-0.005-0.154-0.007-0.232H62.921z"/>
		<path fill="#F6FEFF" d="M72.632,58.933c-0.001,0.085-0.008,0.167-0.008,0.252c0,4.372,2.135,7.916,4.768,7.916
			s4.769-3.544,4.769-7.916c0-0.085-0.006-0.167-0.008-0.252H72.632z"/>
	</g>
	<g>
		<path fill="#FFAFB2" d="M49.729,84.818c0,0,15.691-12.238,23.799,6.007c9.713,21.854-15.102,31.239-15.852,16.583
			C56.927,92.753,54.903,84.396,49.729,84.818z"/>
		<path fill="#333333" d="M50.1,80.537c0,0,11.136,1.079,12.636,10.831C62.735,91.368,64.335,78.603,50.1,80.537z"/>
	</g>
</g>
</svg>
