<?xml version="1.0" encoding="utf-8"?>
<!-- Generator: Adobe Illustrator 16.0.0, SVG Export Plug-In . SVG Version: 6.00 Build 0)  -->
<!DOCTYPE svg PUBLIC "-//W3C//DTD SVG 1.1//EN" "http://www.w3.org/Graphics/SVG/1.1/DTD/svg11.dtd">
<svg version="1.1" xmlns="http://www.w3.org/2000/svg" xmlns:xlink="http://www.w3.org/1999/xlink" x="0px" y="0px"
	 width="100px" height="103.021px" viewBox="0 0 100 103.021" enable-background="new 0 0 100 103.021" xml:space="preserve">
<g>
	<path fill="#776A47" d="M55.094,74.783v-2.29c0-0.318,0.035-0.629,0.091-0.931h-8.602c0.052,0.302,0.087,0.61,0.087,0.926v2.295
		H55.094z"/>
	<rect x="46.669" y="74.783" fill="#D7B138" width="8.424" height="3.777"/>
	<path fill="#D7B138" d="M46.669,80.115v7.548c0,1.075-0.796,1.976-1.856,2.129c-8.404,1.215-11.19,5.241-12.118,7.659h36.411
		c-0.93-2.418-3.725-6.456-12.153-7.663c-1.062-0.151-1.86-1.057-1.86-2.129v-7.544H46.669z"/>
	<rect x="46.669" y="78.561" fill="#776A47" width="8.424" height="1.555"/>
	<path fill="#D7B138" d="M77.254,22.894c0.136-1.306,0.26-2.583,0.361-3.777H23.077c0.128,1.194,0.279,2.47,0.447,3.777H77.254z"/>
	<path fill="#D7B138" d="M72.889,52.457l0.213-0.068c22.315-8.046,26.151-21.687,26.765-27.176c0.79-7.068-1.972-13.724-7.035-16.96
		C87.052,4.56,81.83,5.731,78.184,7.988c0.004-0.182,0.004-0.785,0.004-1.209h1.263c1.238,0,2.243-1.003,2.243-2.242V2.242
		C81.693,1.005,80.688,0,79.451,0H21.039c-1.238,0-2.241,1.005-2.241,2.242v2.297c0,1.237,1.002,2.24,2.241,2.24h1.211
		c0.002,0.469,0.01,1.185,0.021,1.492c-3.658-2.437-9.08-3.867-15.098-0.019c-5.063,3.236-7.829,9.892-7.04,16.96
		c0.616,5.489,4.45,19.13,26.769,27.176l0.211,0.068c0.575,0.157,0.982,0.418,1.058,0.678c0.021,0.07,0.017,0.146,0.008,0.203
		c-0.084-0.041-0.196-0.107-0.331-0.211c-0.992-0.752-2.371-0.905-3.396-0.198c-1.682,1.157-1.664,3.458-0.205,4.617
		c1.296,1.029,2.729,1.557,4.109,1.557c0.899,0,1.784-0.226,2.596-0.679c0.827-0.465,1.5-1.143,1.999-1.944
		c2.77,4.98,6.252,8.988,10.627,11.115c1.598,0.779,2.703,2.257,3.003,3.968h8.602c0.306-1.72,1.437-3.193,3.042-3.988
		c3.983-1.97,7.174-5.535,9.725-9.983c0.333,0.316,0.692,0.606,1.1,0.833c0.808,0.453,1.692,0.679,2.594,0.679
		c1.283,0,2.61-0.457,3.834-1.346c1.234-0.903,1.742-2.604,0.944-3.91c-0.914-1.497-2.887-1.815-4.212-0.761
		c-0.162,0.126-0.294,0.204-0.387,0.252c-0.012-0.058-0.012-0.133,0.008-0.203C71.909,52.875,72.312,52.614,72.889,52.457z
		 M23.827,25.118c0.961,6.816,2.499,14.687,4.993,21.907c-0.027-0.008-0.049-0.021-0.081-0.03
		C9.517,40.032,6.291,29.003,5.796,24.578c-0.55-4.925,1.192-9.449,4.443-11.526c6.223-3.975,10.682,1.431,11.177,2.075
		c0.358,0.474,0.839,0.802,1.364,0.976c0.021,0.219,0.042,0.455,0.062,0.68h54.952c0.027-0.339,0.051-0.682,0.072-1.009
		c0.262-0.171,0.512-0.378,0.715-0.643c0.488-0.632,4.944-6.063,11.179-2.079c3.249,2.077,4.994,6.602,4.442,11.526
		c-0.482,4.313-3.567,14.904-21.538,21.886c2.228-7.068,3.542-14.705,4.334-21.346H23.827z"/>
	<path fill="#776A47" d="M77,25.118c0.089-0.753,0.178-1.501,0.254-2.225h-53.73c0.093,0.724,0.196,1.472,0.304,2.225H77z"/>
	<path fill="#776A47" d="M77.615,19.116c0.066-0.805,0.13-1.59,0.18-2.334H22.843c0.068,0.744,0.149,1.529,0.233,2.334H77.615z"/>
	<path fill="#776A47" d="M69.106,97.451H32.696c-0.031,0.083-0.066,0.17-0.093,0.248c-0.114,0.329-0.374,0.568-0.686,0.694h37.969
		c-0.312-0.126-0.573-0.365-0.687-0.694C69.172,97.621,69.137,97.534,69.106,97.451z"/>
	<path fill="#D7B138" d="M70.351,98.497c-0.163,0-0.318-0.041-0.465-0.104H31.917c-0.147,0.062-0.302,0.104-0.463,0.104h-0.062
		c-0.827,0-1.497,0.67-1.497,1.496v2.201c0,0.457,0.37,0.827,0.827,0.827h40.321c0.459,0,0.827-0.37,0.827-0.827v-2.201
		c0-0.826-0.669-1.496-1.494-1.496H70.351z"/>
</g>
</svg>
