<?xml version="1.0" encoding="utf-8"?>
<!-- Generator: Adobe Illustrator 16.0.0, SVG Export Plug-In . SVG Version: 6.00 Build 0)  -->
<!DOCTYPE svg PUBLIC "-//W3C//DTD SVG 1.1//EN" "http://www.w3.org/Graphics/SVG/1.1/DTD/svg11.dtd">
<svg version="1.1" xmlns="http://www.w3.org/2000/svg" xmlns:xlink="http://www.w3.org/1999/xlink" x="0px" y="0px"
	 width="101.648px" height="101.647px" viewBox="0 0 101.648 101.647" enable-background="new 0 0 101.648 101.647"
	 xml:space="preserve">
<g>
	<g>
		<g>
			<path fill="#EA4F3D" d="M99.463,59.359l-1.864-0.465l-1.926-0.085l-1.925-0.102l-1.923-0.111l-1.908-0.311l-1.356-1.263
				l-0.461,0.331l-0.95-0.244l0.054-0.253l-1.997-0.503l0.051-0.199l-0.176,0.008l0.157-2.023l0.263-2.022l-0.1-2.036l-0.155-2.026
				l-0.165-2.026l-0.346-2.003l-0.41-1.994l-0.562-1.958l-0.674-1.924l-0.905-1.828l-0.819-1.844l0.199-0.086l-0.216-0.329
				l1.774-1.076l-0.202-0.301l0.691-0.59l0.673,0.216l0.901-1.602l1.701-0.862l1.751-0.799l1.731-0.844l1.759-0.782l1.631-0.993
				l1.36-1.465l-0.304-1.973l-1.667-1.008l-1.906,0.463l-1.636,1.008l-1.401,1.327l-1.439,1.281l-1.579,1.117l-1.493,1.148
				l-1.676,0.275l-0.218,0.494l-0.857,0.477l-0.143-0.237l-1.724,1.144l-0.204-0.27l-0.259,0.155l-1.15-1.719l-1.417-1.467
				l-1.444-1.432l-1.448-1.434l-1.617-1.241l-1.716-1.095l-1.688-1.136l-1.828-0.893l-1.793-0.966l-1.892-0.755l-1.957-0.583
				l-0.006-0.212l-0.028-0.031l0.471-2.027l-0.473-0.112l0.198-0.89l0.556-0.31l-0.461-1.758l0.601-1.801l0.707-1.79l0.664-1.808
				l0.614-1.826l0.414-1.866L63.781,1.26l-1.527-1.234l-1.949,0.406l-1.018,1.732l-0.393,1.883L58.82,5.975l-0.107,1.924
				l-0.307,1.907l-0.205,1.886l-1.037,1.366l0.243,0.556l-0.21,0.878l-0.443-0.085l-0.444,2.03l-0.417-0.053l-0.05,0.152
				l-2.027-0.164l-2.021-0.292l-2.037,0.097l-2.036,0.047l-2.021,0.248l-2.015,0.301l-1.965,0.538l-1.964,0.538l-1.887,0.765
				l-1.85,0.842l-1.863,0.817l0.025-0.093l-0.173,0.153l-1.073-1.758l-0.183,0.138l-0.629-0.741l0.18-0.604l-1.562-0.933
				l-0.974-1.636l-0.822-1.742l-0.642-1.822L27.503,9.48l-0.958-1.672l-1.595-1.225l-1.972,0.223l-1.045,1.688l0.482,1.934
				l1.074,1.592l1.271,1.446l1.284,1.437l1.145,1.554l1.315,1.43l0.116,1.724l0.562,0.245l0.386,0.861l-0.244,0.137l1.06,1.776
				l-0.393,0.318l0.044,0.063l-2.24,1.705l-1.465,1.311l-1.352,1.428l-1.267,1.502l-1.16,1.585l-1.084,1.636l-1.002,1.688
				l-0.912,1.736l-0.81,1.788l-0.754,1.814l-0.6,1.87L15.37,40.7l-0.104,0.317l-0.936-0.288l-0.294-0.426l-1.73,0.379l-1.848-0.44
				l-1.805-0.672l-1.743-0.833L5.1,38.075l-1.876-0.417l-1.954,0.23L0.06,39.402l0.358,1.953l1.77,0.93l1.875,0.371l1.912,0.208
				l1.921,0.16L9.819,43.1l1.882,0.329l1.387,1.201l0.562-0.427l0.846,0.287l-0.115,0.462l2.095,0.292l-0.334,2.138l-0.148,2.088
				l0.101,2.091l-0.087,2.099l0.253,2.082l0.456,2.046l0.527,2.021l0.549,2.017l0.794,1.933l0.749,1.953l0.981,1.886l-1.801,1.052
				l0.212,0.317l-0.845,0.526l-0.502-0.027l-0.855,1.54l-1.72,0.894l-1.756,0.787l-1.83,0.625l-1.667,0.976l-1.752,0.803
				l-1.166,1.626l0.118,1.991l1.742,1.003l1.907-0.519l1.54-1.128l1.548-1.144l1.443-1.278l1.419-1.303l1.541-1.179l1.775-0.091
				l0.188-0.644l0.764-0.421l0.249,0.355l1.716-1.212l1.252,1.792l1.418,1.543l1.398,1.563l1.627,1.322l1.606,1.341l1.741,1.162
				l1.812,1.041l1.771,1.121l1.953,0.759l1.888,0.916l2.075,0.545l-0.52,2.021l0.351,0.069l-0.218,0.967l-0.382,0.34l0.383,1.693
				l-0.61,1.803l-0.689,1.796l-0.669,1.806l-0.628,1.821l-0.583,1.836l0.354,1.957l1.479,1.251l1.941-0.406l1.072-1.711l0.249-1.91
				l0.221-1.911l0.145-1.923l0.16-1.918l0.139-1.938l1.274-1.33l-0.37-0.549l0.294-0.868l0.277,0.052l0.565-1.961l2.03,0.195
				l2.081,0.22l2.093,0.012l2.083-0.188l2.089-0.133l2.066-0.343l2-0.625l2.036-0.486l1.957-0.742l1.954-0.76l1.862-1.076
				l1.061,1.795l0.405-0.22l0.419,0.864l-0.113,0.522l1.6,0.865l0.771,1.765l0.805,1.748l0.791,1.756l0.887,1.711l0.919,1.682
				l1.542,1.269l1.927-0.304l0.966-1.631l-0.336-1.929l-1.104-1.572l-1.3-1.422l-1.188-1.521l-1.317-1.404l-1.054-1.587
				l-0.238-1.704l-0.455-0.197l-0.548-0.833l0.361-0.212l-1.139-1.741l0.123,0.016l-0.066-0.006l1.609-1.25l1.514-1.366l1.426-1.455
				l1.366-1.509l1.258-1.601l1.188-1.653l1.044-1.747l1.03-1.758l0.726-1.905l0.766-1.879l0.689-1.917l0.135-0.016l0.159-0.325
				l2.03,0.433l0.106-0.441l0.904,0.204l0.363,0.46l1.699-0.446l1.821,0.608l1.78,0.731l1.792,0.705l1.803,0.682l1.869,0.463
				l1.95-0.318l1.152-1.498l-0.373-1.867L99.463,59.359z M75.782,53.948l-1.844-0.552l-1.877-0.317l-1.861-0.378l-1.862-0.395
				L66.49,51.83l-1.812-0.523l-0.022-2.09l-0.384-2.118l-0.769-2.074l1.949-1.168l1.938-1.139l1.891-1.225l1.859-1.281l1.96-1.081
				l0.95,1.896l0.799,2.04l0.515,2.129l0.39,2.152l0.146,2.18l-0.005,2.181L75.782,53.948z M70.802,35.431l-1.987,1.098
				l-1.843,1.287l-1.881,1.236l-1.893,1.225l-1.947,1.16l-1.502-1.594l-1.775-1.225l-1.922-0.916l0.321-1.85l0.47-1.827l0.485-1.821
				l0.39-1.847l0.329-1.863l0.539-1.791l1.998,0.694l1.989,0.904l1.848,1.165l1.775,1.267l1.621,1.456l1.514,1.563L70.802,35.431z
				 M40.549,59.516l1.502,1.613l1.816,1.157l1.98,0.969l-0.422,2l-0.502,1.961l-0.558,1.948l-0.42,1.979l-0.43,1.981l-0.361,2.02
				l-1.953-0.678l-1.798-0.868l-1.77-0.917l-1.73-1.004l-1.507-1.316l-1.561-1.249l-1.415-1.417l-1.214-1.623l1.726-1.089
				l1.752-1.038l1.729-1.068l1.735-1.068l1.668-1.18L40.549,59.516z M49.447,56.9l-1.844-0.877l-1.629-1.221l-1.132-1.718
				l-0.534-1.997l0.193-2.054l0.858-1.85l1.274-1.571l1.707-1.098l1.961-0.598l2.046,0.19l1.865,0.819l1.576,1.276l1.168,1.684
				l0.374,2.01l-0.027,2.039l-0.721,1.932l-1.366,1.542l-1.733,1.092l-1.99,0.449L49.447,56.9z M54.355,25.651l-0.55,1.836
				l-0.315,1.87l-0.377,1.853l-0.393,1.854l-0.475,1.838l-0.521,1.803l-2.09,0.022l-2.118,0.384l-2.072,0.771l-1.001-1.683
				l-0.972-1.675l-1.055-1.62l-1.11-1.59l-0.921-1.714l-1.134-1.597l2.025-0.979l2.11-0.653l2.141-0.526l2.185-0.282l2.195-0.128
				l2.196,0.064L54.355,25.651z M35.61,30.204l0.938,1.732l1.128,1.592l1.073,1.624l1.062,1.635l0.995,1.683l0.937,1.691
				l-1.463,1.492l-1.229,1.767l-0.922,2.009l-1.956-0.496l-1.931-0.51l-1.953-0.414l-1.968-0.353L28.4,43.084l-1.988-0.34
				l0.636-1.905l0.893-1.753l0.97-1.708l1.144-1.595l1.234-1.521l1.349-1.418l1.37-1.408L35.61,30.204z M25.405,46.877l1.944,0.575
				l1.981,0.341l1.967,0.403l1.964,0.417l1.949,0.5l1.915,0.546l0.021,2.09l0.384,2.118l0.77,2.073l-1.765,1.053l-1.758,1.024
				l-1.703,1.107L31.4,60.287l-1.796,0.973l-1.678,1.186l-0.932-1.812l-0.64-1.892l-0.548-1.917l-0.34-1.962l-0.22-1.976
				l-0.062-1.985l-0.037-1.992L25.405,46.877z M47.284,76.033l0.577-1.953l0.343-1.99l0.405-1.976l0.419-1.973l0.501-1.958
				l0.548-1.924l2.09-0.021l2.118-0.384l2.072-0.77l1.021,1.714l0.992,1.707l1.075,1.651l1.13,1.622l0.941,1.745l1.154,1.627
				l-1.777,0.964l-1.862,0.678l-1.888,0.59l-1.938,0.385l-1.954,0.268l-1.968,0.113l-1.975,0.089L47.284,76.033z M66.23,70.823
				l-0.943-1.742l-1.135-1.602l-1.08-1.633l-1.069-1.646l-1.001-1.692l-0.943-1.702l1.463-1.492l1.229-1.767l0.92-2.01l1.875,0.477
				l1.849,0.492l1.868,0.394l1.886,0.334l1.839,0.555l1.907,0.321l-0.57,1.903l-0.826,1.761l-0.901,1.72l-1.076,1.615l-1.166,1.547
				l-1.282,1.451l-1.301,1.441L66.23,70.823z"/>
		</g>
	</g>
</g>
</svg>
