<?xml version="1.0" encoding="utf-8"?>
<!-- Generator: Adobe Illustrator 16.0.0, SVG Export Plug-In . SVG Version: 6.00 Build 0)  -->
<!DOCTYPE svg PUBLIC "-//W3C//DTD SVG 1.1//EN" "http://www.w3.org/Graphics/SVG/1.1/DTD/svg11.dtd">
<svg version="1.1" xmlns="http://www.w3.org/2000/svg" xmlns:xlink="http://www.w3.org/1999/xlink" x="0px" y="0px"
	 width="199.29px" height="199.29px" viewBox="0 0 199.29 199.29" enable-background="new 0 0 199.29 199.29" xml:space="preserve">
<path fill="#E6E9EE" d="M134.794,195.002c3.75-1.667,6.131-5.357,6.131-9.404v-35.477c0-3.096-1.548-5.834-3.929-7.798
	c-1.488-1.25-2.381-2.917-2.381-4.702c0-3.155,2.679-5.773,6.31-6.607v-2.381h4.643v2.381c3.631,0.834,6.31,3.452,6.31,6.607
	c0,1.845-0.894,3.512-2.381,4.702c-2.381,1.964-3.929,4.762-3.929,7.798v35.477c0,4.106,2.44,7.797,6.131,9.404l9.762,4.285h-15.893
	h-4.643h-15.893L134.794,195.002z"/>
<path fill="#FFFFFF" d="M172.591,62.919c4.167,10.238,6.607,22.083,6.607,33.333c0,28.928-16.071,43.154-35.952,43.154
	s-35.952-14.227-35.952-43.154c0-11.25,2.439-23.095,6.607-33.333H172.591L172.591,62.919z"/>
<path fill="#FF7058" d="M175.627,86.966c0.476,3.512,0.714,6.964,0.714,10.417c0,24.821-12.678,40.238-33.035,40.238
	s-33.036-15.417-33.036-40.238c0-3.393,0.238-6.905,0.714-10.417H175.627L175.627,86.966z"/>
<path fill="#F1543F" d="M157.294,127.324l0.535-0.536c0.417-0.416,0.953-0.952,1.607-1.726c0.654-0.774,1.429-1.727,2.262-2.857
	c0.834-1.131,1.667-2.44,2.44-3.929c1.607-2.977,3.095-6.607,4.048-10.654c0.477-2.024,0.833-4.107,1.131-6.25
	c0.238-2.203,0.416-4.286,0.416-6.548c0.061-2.619-0.059-5.238-0.297-7.798h-3.154c0.476,2.56,0.773,5.179,0.893,7.857
	c0.119,2.083,0.119,4.345,0.059,6.369c-0.118,2.083-0.297,4.167-0.654,6.131c-0.654,3.988-1.785,7.619-3.154,10.596
	c-0.715,1.487-1.429,2.856-2.143,4.047c-0.715,1.19-1.43,2.143-2.024,2.917c-0.595,0.833-1.131,1.429-1.488,1.786
	C157.532,127.026,157.353,127.205,157.294,127.324z"/>
<path fill="#E6E9EE" d="M163.306,62.919h-5.417c0.238,0.476,0.595,1.071,0.952,1.786c0.893,1.667,2.024,4.167,3.215,7.143
	c1.666,4.167,3.273,9.464,4.227,15.119h3.154c-0.535-6.012-1.846-11.667-3.215-16.131c-1.012-3.214-2.023-5.833-2.797-7.678
	C163.365,63.038,163.365,62.979,163.306,62.919z"/>
<polygon fill="#FF7058" points="45.924,13.871 65.627,13.871 69.377,0.002 42.174,0.002 "/>
<path fill="#324A5E" d="M44.913,41.966V16.669h21.667v25.297c0,5.536,2.857,10.596,7.619,13.453
	c10.298,6.25,17.203,17.56,17.203,30.476v104.881c0,4.523-3.69,8.215-8.214,8.215H28.306c-4.524,0-8.214-3.691-8.214-8.215V85.895
	c0-12.917,6.905-24.226,17.202-30.476C42.056,52.562,44.913,47.443,44.913,41.966z"/>
<path fill="#CED5E0" d="M42.651,18.752h26.19c0.297,0,0.476-0.238,0.476-0.477v-5.595c0-0.297-0.238-0.476-0.476-0.476h-26.19
	c-0.298,0-0.477,0.238-0.477,0.476v5.595C42.174,18.514,42.353,18.752,42.651,18.752z"/>
<rect x="20.151" y="97.502" fill="#FFD05B" width="58.155" height="65.416"/>
</svg>
