<?xml version="1.0" encoding="iso-8859-1"?>
<!-- Generator: Adobe Illustrator 19.0.0, SVG Export Plug-In . SVG Version: 6.00 Build 0)  -->
<svg xmlns="http://www.w3.org/2000/svg" xmlns:xlink="http://www.w3.org/1999/xlink" version="1.1" id="Capa_1" x="0px" y="0px" viewBox="0 0 455 455" style="enable-background:new 0 0 455 455;" xml:space="preserve" width="512" height="512">
<g>
	<path style="fill:#98D9D5;" d="M151.66,20.783c-50.088,0-90.838,40.75-90.838,90.838v275.896l30,0.012V111.621   c0-33.546,27.292-60.838,60.838-60.838s60.838,27.292,60.838,60.838c0,0.029,0.004,0.058,0.004,0.087v-0.087L227.5,61.683   C211.233,37.062,183.314,20.783,151.66,20.783z"/>
	<path style="fill:#C1E8E6;" d="M303.34,20.783c-50.088,0-90.838,40.75-90.838,90.838v89.162H60.822v30h151.68v45H60.822v30h151.68   v81.743h30V111.621c0-33.546,27.292-60.838,60.838-60.838c33.546,0,60.838,27.292,60.838,60.838c0,8.284,6.716,15,15,15   s15-6.716,15-15C394.178,61.533,353.428,20.783,303.34,20.783z"/>
	<path style="fill:#6DA8D6;" d="M417.073,350.783C408.52,362.401,394.71,370,379.178,370c-15.564,0-29.343-7.599-37.927-19.217   C332.666,362.401,318.887,370,303.324,370c-15.568,0-29.306-7.599-37.894-19.217C256.844,362.401,243.066,370,227.502,370   c-15.568,0-29.343-7.599-37.895-19.217C180.986,362.401,167.244,370,151.68,370c-15.567,0-29.342-7.599-37.894-19.217   C105.201,362.401,91.386,370,75.822,370c-15.531,0-29.305-7.599-37.894-19.217C29.343,362.401,15.568,370,0,370v64.217h455V370   C439.436,370,425.658,362.401,417.073,350.783z"/>
</g>















</svg>
