<?xml version="1.0" encoding="utf-8"?>
<!-- Generator: Adobe Illustrator 16.0.0, SVG Export Plug-In . SVG Version: 6.00 Build 0)  -->
<!DOCTYPE svg PUBLIC "-//W3C//DTD SVG 1.1//EN" "http://www.w3.org/Graphics/SVG/1.1/DTD/svg11.dtd">
<svg version="1.1" xmlns="http://www.w3.org/2000/svg" xmlns:xlink="http://www.w3.org/1999/xlink" x="0px" y="0px"
	 width="172.18px" height="172.18px" viewBox="0 0 172.18 172.18" enable-background="new 0 0 172.18 172.18" xml:space="preserve">
<g>
	<rect x="32.944" y="15.18" fill="#F2F2F2" width="22.182" height="30.178"/>
	<polygon fill="#F2F2F2" points="152.563,73.372 86.089,20.93 19.616,73.372 19.616,166.347 152.563,166.347 	"/>
	<path fill="#603813" d="M157.747,169.723c0,0.553-0.447,1-1,1H15.431c-0.553,0-1-0.447-1-1v-5.292c0-0.553,0.447-1,1-1h141.316
		c0.553,0,1,0.447,1,1V169.723z"/>
	<g>
		<g>
			<g>
				<path fill="#8C6239" d="M88.181,141.241c0,0.585,0.475,1.059,1.059,1.059h22.984c0.584,0,1.059-0.474,1.059-1.059v-38.983
					c0-0.585-0.475-1.059-1.059-1.059H89.239c-0.584,0-1.059,0.474-1.059,1.059V141.241z"/>
				<path fill="#8CF0FB" d="M89.702,139.78c0,0.553,0.447,1,1,1h20.061c0.553,0,1-0.447,1-1V103.72c0-0.553-0.447-1-1-1H90.702
					c-0.553,0-1,0.447-1,1V139.78z"/>
				<path opacity="0.5" fill="#8CF0FB" d="M111.763,139.78c0,0.553-0.447,1-1,1H90.702c-0.553,0-1-0.447-1-1
					c0,0,22.061-36.613,22.061-36.061V139.78z"/>
			</g>
			<g>
				<path fill="#8C6239" d="M111.763,141.241c0,0.585,0.475,1.059,1.059,1.059h22.984c0.584,0,1.059-0.474,1.059-1.059v-38.983
					c0-0.585-0.475-1.059-1.059-1.059h-22.984c-0.584,0-1.059,0.474-1.059,1.059V141.241z"/>
				<path fill="#8CF0FB" d="M113.282,139.78c0,0.553,0.447,1,1,1h20.061c0.553,0,1-0.447,1-1V103.72c0-0.553-0.447-1-1-1h-20.061
					c-0.553,0-1,0.447-1,1V139.78z"/>
				<path opacity="0.5" fill="#8CF0FB" d="M135.345,139.78c0,0.553-0.449,1-1,1h-20.062c-0.551,0-1-0.447-1-1
					c0,0,22.062-36.613,22.062-36.061V139.78z"/>
			</g>
		</g>
		<path fill="#603813" d="M85.015,146.478c0,0.552,0.447,1,1,1h53.016c0.553,0,1-0.448,1-1v-6c0-0.553-0.447-1-1-1H86.015
			c-0.553,0-1,0.447-1,1V146.478z"/>
	</g>
	<g>
		<path fill="#603813" d="M67.015,163.681c0,0.553-0.447,1-1,1h-32.07c-0.551,0-1-0.447-1-1v-53.25c0-0.553,0.449-1,1-1h32.07
			c0.553,0,1,0.447,1,1V163.681z"/>
		<rect x="36.067" y="112.235" fill="#8C6239" width="27.826" height="23.07"/>
		<rect x="37.229" y="113.556" fill="#8CF0FB" width="25.5" height="20.43"/>
		<polygon opacity="0.5" fill="#8CF0FB" points="62.729,133.985 37.229,133.985 62.729,113.556 		"/>
		<circle fill="#FBB03B" cx="61.124" cy="143.806" r="2.25"/>
	</g>
	<g>
		<path fill="#76C2E2" d="M68.729,166.347v-2.082c0-0.461-0.447-0.834-1-0.834h-35.5c-0.553,0-1,0.373-1,0.834v2.082H68.729z"/>
		<path fill="#408ABC" d="M71.097,169.265v-2.084c0-0.46-0.504-0.834-1.127-0.834h-39.98c-0.623,0-1.127,0.374-1.127,0.834v2.084
			H71.097z"/>
		<path fill="#256992" d="M73.292,172.181v-2.084c0-0.46-0.557-0.832-1.244-0.832H27.911c-0.688,0-1.244,0.372-1.244,0.832v2.084
			H73.292z"/>
	</g>
	<path fill="#603813" d="M155.304,90.492c0,0.553-0.449,1-1,1H17.876c-0.553,0-1-0.447-1-1v-0.76c0-0.553,0.447-1,1-1h136.428
		c0.551,0,1,0.447,1,1V90.492z"/>
	<g>
		<path fill="#8C6239" d="M98.651,79.212V49.357c0-6.938-5.625-12.562-12.562-12.562S73.528,42.42,73.528,49.357v29.854H98.651z"/>
		<path fill="#8CF0FB" d="M75.528,77.212V49.357c0-5.823,4.738-10.562,10.561-10.562c5.824,0,10.562,4.738,10.562,10.562v27.854
			H75.528z"/>
		<polygon opacity="0.5" fill="#8CF0FB" points="75.528,77.212 96.651,49.357 96.651,77.212 		"/>
		<line fill="none" stroke="#8C6239" stroke-width="2" stroke-miterlimit="10" x1="86.089" y1="38.796" x2="86.089" y2="77.651"/>
		<line fill="none" stroke="#8C6239" stroke-width="2" stroke-miterlimit="10" x1="98.651" y1="58.224" x2="73.528" y2="58.224"/>
	</g>
	<polygon fill="#8C6239" points="86.089,-0.001 6.024,63.252 19.616,73.142 86.089,20.93 152.563,73.142 166.155,63.252 	"/>
	<rect x="26.946" y="4.369" fill="#8C6239" width="34.178" height="12.421"/>
</g>
</svg>
