<?xml version="1.0" encoding="utf-8"?>
<!-- Generator: Adobe Illustrator 16.0.0, SVG Export Plug-In . SVG Version: 6.00 Build 0)  -->
<!DOCTYPE svg PUBLIC "-//W3C//DTD SVG 1.1//EN" "http://www.w3.org/Graphics/SVG/1.1/DTD/svg11.dtd">
<svg version="1.1" xmlns="http://www.w3.org/2000/svg" xmlns:xlink="http://www.w3.org/1999/xlink" x="0px" y="0px"
	 width="86.85px" height="86.748px" viewBox="0 0 86.85 86.748" enable-background="new 0 0 86.85 86.748" xml:space="preserve">
<g>
	<g>
		<g>
			<g>
				<g>
					<g>
						<path fill="#F6D436" d="M25.013,51.32l-4.18,4.181l-8.859-8.859c-1.154-1.154-1.154-3.025,0-4.18l0,0
							c1.155-1.154,3.026-1.154,4.181,0L25.013,51.32z"/>
						<path fill="#462B17" d="M20.833,57.483l-9.85-9.851c-0.823-0.823-1.276-1.917-1.276-3.081c0-1.164,0.454-2.258,1.276-3.082
							c1.7-1.698,4.463-1.698,6.161,0l9.85,9.85L20.833,57.483z M14.063,42.998c-0.398,0-0.795,0.151-1.099,0.454
							c-0.293,0.294-0.455,0.685-0.455,1.1s0.162,0.806,0.455,1.099l7.868,7.868l2.198-2.198l-7.868-7.868
							C14.86,43.149,14.462,42.998,14.063,42.998z"/>
					</g>
					<g>
						<path fill="#F6D436" d="M20.579,66.704l-4.18,4.181L7.54,62.025c-1.154-1.154-1.154-3.026,0-4.181l0,0
							c1.155-1.154,3.026-1.154,4.181,0L20.579,66.704z"/>
						<path fill="#462B17" d="M16.399,72.866l-9.85-9.851c-0.823-0.822-1.276-1.917-1.276-3.08c0-1.164,0.453-2.259,1.276-3.082
							c0.823-0.822,1.917-1.275,3.08-1.275c1.164,0,2.258,0.453,3.081,1.276l9.85,9.85L16.399,72.866z M9.629,58.38
							c-0.414,0-0.805,0.161-1.099,0.455c-0.293,0.294-0.455,0.685-0.455,1.1c0,0.414,0.162,0.805,0.455,1.099l7.868,7.868
							l2.198-2.198l-7.868-7.868C10.435,58.542,10.044,58.38,9.629,58.38z"/>
					</g>
					<g>
						<path fill="#FFFDFB" d="M39.726,46.266l-23.558,35.92c-0.744,1.134-2.341,1.298-3.3,0.34l-2.821-2.821
							c-0.543-0.544-0.753-1.337-0.55-2.078l13.167-47.971c0.093-0.338,0.516-0.45,0.764-0.202l16.239,16.239
							C39.82,45.845,39.845,46.085,39.726,46.266z"/>
						<path fill="#462B17" d="M14.375,84.553c-0.934,0-1.828-0.367-2.498-1.036l-2.821-2.822c-0.898-0.897-1.246-2.215-0.91-3.439
							l13.166-47.971c0.174-0.636,0.679-1.136,1.317-1.305c0.637-0.17,1.323,0.016,1.789,0.481l16.239,16.24
							c0.62,0.619,0.721,1.6,0.241,2.332l-0.001,0.001l-23.558,35.92c-0.586,0.895-1.533,1.471-2.598,1.58
							C14.619,84.546,14.497,84.553,14.375,84.553z M23.585,31.592L10.848,77.998c-0.07,0.255,0.003,0.529,0.19,0.717l2.82,2.82
							c0.217,0.216,0.466,0.225,0.597,0.212c0.13-0.014,0.373-0.074,0.541-0.329L38.133,46.14L23.585,31.592z M38.553,45.499
							c0,0-0.001,0.001-0.001,0.002L38.553,45.499L38.553,45.499z"/>
					</g>
				</g>
				<g>
					<g>
						<path fill="#F6D436" d="M53.617,22.717l4.181-4.18l-8.859-8.859c-1.154-1.155-3.026-1.155-4.18,0l0,0
							c-1.154,1.154-1.154,3.026,0,4.18L53.617,22.717z"/>
						<path fill="#462B17" d="M53.617,24.698l-9.85-9.85c-1.699-1.699-1.699-4.462,0-6.162c1.699-1.699,4.463-1.699,6.162,0
							l9.851,9.85L53.617,24.698z M46.848,10.214c-0.398,0-0.796,0.152-1.1,0.455c-0.606,0.605-0.606,1.591,0,2.198l7.869,7.868
							l2.198-2.198l-7.868-7.868C47.644,10.365,47.247,10.214,46.848,10.214z"/>
					</g>
					<g>
						<path fill="#F6D436" d="M69,18.283l4.181-4.18l-8.859-8.859c-1.154-1.155-3.025-1.155-4.18,0l0,0
							c-1.154,1.154-1.154,3.026,0,4.18L69,18.283z"/>
						<path fill="#462B17" d="M69,20.264l-9.85-9.85c-1.699-1.699-1.699-4.462,0-6.162c1.699-1.699,4.463-1.699,6.162,0l9.85,9.85
							L69,20.264z M62.231,5.78c-0.397,0-0.797,0.151-1.1,0.455c-0.605,0.606-0.605,1.592,0,2.198L69,16.301l2.199-2.198
							l-7.868-7.868C63.028,5.931,62.628,5.78,62.231,5.78z"/>
					</g>
					<g>
						<path fill="#FFFDFB" d="M48.563,37.429l35.92-23.558c1.134-0.744,1.298-2.341,0.339-3.3L82,7.75
							c-0.543-0.543-1.336-0.753-2.077-0.55L31.952,20.367c-0.338,0.093-0.451,0.516-0.203,0.764l16.239,16.239
							C48.142,37.523,48.381,37.548,48.563,37.429z"/>
						<path fill="#462B17" d="M48.315,38.904c-0.483,0-0.961-0.186-1.318-0.544L30.759,22.122c-0.466-0.465-0.651-1.151-0.482-1.79
							c0.168-0.638,0.669-1.143,1.306-1.317L79.551,5.849c1.225-0.336,2.544,0.013,3.44,0.911l2.821,2.821
							c0.756,0.756,1.127,1.801,1.018,2.865c-0.109,1.064-0.686,2.01-1.58,2.597L49.33,38.603
							C49.02,38.805,48.666,38.904,48.315,38.904z M47.797,36.255C47.797,36.256,47.796,36.256,47.797,36.255L47.797,36.255z
							 M33.889,21.289l14.548,14.548l35.277-23.138c0.255-0.167,0.314-0.41,0.328-0.54c0.014-0.13,0.004-0.381-0.211-0.596
							L81.01,8.741c-0.188-0.187-0.462-0.259-0.717-0.189L33.889,21.289z"/>
					</g>
				</g>
			</g>
			<g>
				<path fill="#B0E2F1" d="M8.407,1.76C4.241,0.152,0.15,4.243,1.758,8.408c3.333,8.636,6.876,14.896,14.97,22.99l8.997,8.996
					l38.336,32.02c2.894,2.417,6.293,4.153,9.948,5.08l0,0c2.105,0.534,4.017-1.377,3.482-3.483l0,0
					c-0.927-3.654-2.662-7.054-5.079-9.948l-32.02-38.335l-8.996-8.997C23.302,8.636,17.042,5.093,8.407,1.76z"/>
				<path fill="#462B17" d="M74.729,78.986c-0.354,0-0.71-0.044-1.064-0.134c-3.835-0.973-7.467-2.827-10.502-5.362L24.733,41.385
					l-8.996-8.997C7.257,23.909,3.711,17.359,0.451,8.913C-0.495,6.46,0.07,3.784,1.927,1.928C3.783,0.071,6.46-0.496,8.911,0.453
					l0,0c8.447,3.26,14.997,6.807,23.477,15.287l9.081,9.089l32.02,38.336c2.536,3.036,4.391,6.668,5.363,10.501
					c0.373,1.473-0.046,2.993-1.12,4.067C76.916,78.548,75.842,78.986,74.729,78.986z M26.67,39.358l38.289,31.98
					c2.715,2.268,5.963,3.927,9.395,4.797c0.729,0.186,1.219-0.207,1.396-0.384c0.177-0.178,0.568-0.668,0.384-1.396
					c-0.869-3.43-2.527-6.678-4.797-9.395L39.357,26.673l-8.951-8.953C22.277,9.592,15.999,6.193,7.902,3.067
					C6.478,2.518,4.985,2.833,3.909,3.91C2.832,4.987,2.517,6.479,3.066,7.903C6.191,16,9.59,22.278,17.719,30.407L26.67,39.358z"/>
			</g>
			<g>
				<path fill="#F6D436" d="M84.88,63.102l-12.296,8.86c-0.24,0.173-0.45,0.384-0.624,0.624L63.1,84.881
					c-0.403,0.561-1.213,0.625-1.701,0.138l-3.27-3.271c-1.383-1.383-1.91-3.406-1.377-5.289l3.96-13.974
					c0.243-0.858,0.914-1.529,1.771-1.772l13.975-3.959c1.882-0.533,3.905-0.007,5.289,1.377l3.27,3.27
					C85.505,61.889,85.44,62.698,84.88,63.102z"/>
				<path fill="#462B17" d="M62.19,86.748c-0.666,0-1.307-0.263-1.782-0.738l-3.269-3.27c-1.742-1.74-2.406-4.294-1.734-6.662
					l3.959-13.974c0.379-1.337,1.402-2.36,2.738-2.739l13.974-3.959c2.369-0.669,4.923-0.006,6.662,1.734l3.271,3.27
					c0.523,0.523,0.79,1.247,0.729,1.985c-0.059,0.738-0.438,1.41-1.039,1.844l-12.295,8.86c-0.118,0.086-0.222,0.189-0.308,0.308
					l-8.859,12.294c-0.433,0.601-1.104,0.979-1.843,1.039C62.326,86.746,62.257,86.748,62.19,86.748z M77.928,57.952
					c-0.363,0-0.729,0.05-1.088,0.151l-13.974,3.959c-0.393,0.111-0.695,0.413-0.807,0.807l-3.958,13.973
					c-0.396,1.393-0.005,2.894,1.019,3.916l3.036,3.036l8.667-12.026c0.263-0.364,0.579-0.681,0.941-0.941l12.027-8.668
					l-3.036-3.036C79.997,58.363,78.975,57.952,77.928,57.952z"/>
			</g>
		</g>
		<path fill="#FDFAF3" d="M29.171,22.694L29.171,22.694c0.575-0.519,1.461-0.474,1.979,0.101l15.779,17.47
			c0.519,0.575,0.474,1.46-0.101,1.979l0,0c-0.574,0.519-1.46,0.474-1.979-0.101L29.07,24.674
			C28.552,24.099,28.597,23.213,29.171,22.694z"/>
		<path fill="#FDFAF3" d="M20.95,13.592L20.95,13.592c0.574-0.519,1.46-0.474,1.979,0.101l4.292,4.752
			c0.519,0.574,0.474,1.46-0.101,1.979l0,0c-0.575,0.519-1.46,0.474-1.979-0.101l-4.292-4.752
			C20.331,14.998,20.376,14.111,20.95,13.592z"/>
	</g>
</g>
</svg>
