<?xml version="1.0" encoding="utf-8"?>
<!-- Generator: Adobe Illustrator 16.0.0, SVG Export Plug-In . SVG Version: 6.00 Build 0)  -->
<!DOCTYPE svg PUBLIC "-//W3C//DTD SVG 1.1//EN" "http://www.w3.org/Graphics/SVG/1.1/DTD/svg11.dtd">
<svg version="1.1" xmlns="http://www.w3.org/2000/svg" xmlns:xlink="http://www.w3.org/1999/xlink" x="0px" y="0px"
	 width="185.32px" height="185.32px" viewBox="0 0 185.32 185.32" enable-background="new 0 0 185.32 185.32" xml:space="preserve">
<g>
	<linearGradient id="SVGID_1_" gradientUnits="userSpaceOnUse" x1="47.8745" y1="-83.4736" x2="112.0698" y2="128.1977">
		<stop  offset="0" style="stop-color:#AFC413"/>
		<stop  offset="0.501" style="stop-color:#66A71A"/>
		<stop  offset="1" style="stop-color:#165F2B"/>
	</linearGradient>
	<path fill="url(#SVGID_1_)" d="M161.727,33.825c-2.306-1.439-4.848-2.302-7.47-2.651c-0.146-4.582-2.696-9.145-6.104-12.04
		c-4.061-3.444-9.41-5.74-14.766-5.9c-0.821-1.521-1.844-2.931-3.045-4.164c-1.971-2.023-4.462-3.492-6.95-4.795
		C112.2-1.597,98.485-1.317,87.307,4.463c-1.192,0.622-2.346,1.364-3.447,2.172c-0.023,0.006-0.045,0.019-0.062,0.021
		c-0.105-0.037-0.208-0.069-0.31-0.105c-0.829-0.691-1.706-1.317-2.611-1.859c-4.714-2.808-10.625-2.781-15.722-1.12
		c-4.696,1.538-9.334,4.766-11.836,9.087c-0.143,0.239-0.273,0.494-0.396,0.749c-0.311-0.124-0.616-0.226-0.922-0.303
		c-5.688-1.367-12.21-0.043-16.688,3.784c-3.685,3.15-5.772,7.722-6.198,12.491c-1.647,0.41-3.244,1.062-4.722,1.826
		c-5.18,2.684-9.333,7.431-10.505,13.208c-0.629,3.103-0.626,6.005,0.454,9.017c1.013,2.838,2.831,5.326,5.014,7.374
		c0.149,0.138,0.305,0.273,0.458,0.407c-1.574,2.14-1.979,4.987-1.316,7.569c0.258,0.994,0.636,1.874,1.112,2.651
		c-1.404,1.351-2.492,3.013-3.255,4.82c-2.154,5.093-0.979,11.04,1.771,15.651c2.827,4.748,7.607,8.229,12.809,9.936
		c3.496,1.145,7.188,1.356,10.767,0.753c0.273,0.578,0.608,1.139,1.012,1.662c1.216,1.582,3.008,2.561,4.929,2.931
		c1.04,4.581,4.092,8.681,8.501,10.444c5.772,2.303,12.917,1.761,18.7-0.236c1.601-0.553,3.201-1.258,4.747-2.099
		c1.081,1.415,2.44,2.598,3.977,3.619c4.547,3.031,10.402,3.936,15.731,3.031c5.836-0.986,11.684-3.962,15.661-8.382
		c1.024-1.143,1.832-2.4,2.446-3.74c0.149-0.134,0.295-0.271,0.441-0.407c0.651,0.527,1.343,1.008,2.073,1.444
		c2.546,1.523,5.471,2.318,8.409,2.558c5.682,0.466,11.454-1.419,16.001-4.786c3.911-2.903,6.956-7.04,8.109-11.787
		c2.418-1.088,4.55-2.898,5.877-5.15c1.926-3.263,1.216-7.385-0.381-10.61c-0.299-0.604-0.658-1.193-1.052-1.772
		c1.249-0.697,2.438-1.502,3.55-2.343c4.504-3.403,7.868-8.11,9.761-13.415C173.899,53.195,171.565,39.98,161.727,33.825z"/>
	<linearGradient id="SVGID_2_" gradientUnits="userSpaceOnUse" x1="48.5518" y1="11.5454" x2="53.3698" y2="23.8063">
		<stop  offset="0" style="stop-color:#D2DF93"/>
		<stop  offset="0.0664" style="stop-color:#C2D67C"/>
		<stop  offset="0.1839" style="stop-color:#A9C85A"/>
		<stop  offset="0.3095" style="stop-color:#95BC3D"/>
		<stop  offset="0.4437" style="stop-color:#86B327"/>
		<stop  offset="0.5904" style="stop-color:#7BAD18"/>
		<stop  offset="0.7591" style="stop-color:#74A90F"/>
		<stop  offset="1" style="stop-color:#72A80C"/>
	</linearGradient>
	<path fill="url(#SVGID_2_)" d="M31.02,32.109c0,0-1.36-7.487,4.308-12.928c5.667-5.438,15.87-5.893,18.59-3.854
		c0,0,4.759-11.108,17.457-10.88c0,0-15.189,2.948-15.87,14.733c0,0-3.175-4.303-11.563-1.583
		C35.552,20.319,33.284,22.81,31.02,32.109z"/>
	<g>
		<path fill="#6BAB1F" d="M24.506,78.703c0,0-3.605,0.104-3.907,4.528C20.599,83.231,24.499,83.507,24.506,78.703z"/>
		<path fill="#6BAB1F" d="M27.322,83.656c0,0-2.603,2.495,0.138,5.98C27.459,89.636,30.537,87.228,27.322,83.656z"/>
		<path fill="#6BAB1F" d="M30.43,77.835c0,0,0.154,3.602,4.581,3.849C35.011,81.684,35.236,77.782,30.43,77.835z"/>
	</g>
	<g>
		<path fill="#6BAB1F" d="M35.352,43.989c0,0-3.605,0.109-3.906,4.532C31.446,48.521,35.344,48.797,35.352,43.989z"/>
		<path fill="#6BAB1F" d="M38.168,48.946c0,0-2.602,2.496,0.138,5.98C38.306,54.926,41.388,52.519,38.168,48.946z"/>
		<path fill="#6BAB1F" d="M41.279,43.123c0,0,0.152,3.605,4.579,3.848C45.858,46.97,46.083,43.072,41.279,43.123z"/>
	</g>
	<g>
		<path fill="#6BAB1F" d="M49.014,89.152c0,0-4.263,0.131-4.619,5.369C44.395,94.521,49.011,94.848,49.014,89.152z"/>
		<path fill="#6BAB1F" d="M52.351,95.023c0,0-3.081,2.954,0.163,7.079C52.514,102.102,56.164,99.25,52.351,95.023z"/>
		<path fill="#6BAB1F" d="M56.032,88.134c0,0,0.183,4.26,5.421,4.55C61.453,92.684,61.721,88.065,56.032,88.134z"/>
	</g>
	<g>
		<path fill="#6BAB1F" d="M102.622,59.605c0,0-5.591,0.168-6.057,7.031C96.565,66.636,102.611,67.062,102.622,59.605z"/>
		<path fill="#6BAB1F" d="M106.991,67.295c0,0-4.034,3.872,0.218,9.282C107.208,76.578,111.985,72.834,106.991,67.295z"/>
		<path fill="#6BAB1F" d="M111.817,58.266c0,0,0.236,5.587,7.104,5.969C118.921,64.235,119.274,58.178,111.817,58.266z"/>
	</g>
	<g>
		<path fill="#6BAB1F" d="M143.617,53.349c0,0-4.343,0.13-4.707,5.462C138.91,58.811,143.614,59.143,143.617,53.349z"/>
		<path fill="#6BAB1F" d="M147.014,59.324c0,0-3.14,3.01,0.168,7.214C147.182,66.538,150.896,63.631,147.014,59.324z"/>
		<path fill="#6BAB1F" d="M150.76,52.307c0,0,0.187,4.344,5.526,4.639C156.287,56.946,156.555,52.243,150.76,52.307z"/>
	</g>
	<g>
		<linearGradient id="SVGID_3_" gradientUnits="userSpaceOnUse" x1="-6.4282" y1="-73.2871" x2="155.6656" y2="276.9253">
			<stop  offset="0" style="stop-color:#D2DF93"/>
			<stop  offset="0.0246" style="stop-color:#CCCD84"/>
			<stop  offset="0.0867" style="stop-color:#BEA364"/>
			<stop  offset="0.1503" style="stop-color:#B38149"/>
			<stop  offset="0.2149" style="stop-color:#AA6734"/>
			<stop  offset="0.2807" style="stop-color:#A45425"/>
			<stop  offset="0.3485" style="stop-color:#A0491C"/>
			<stop  offset="0.4216" style="stop-color:#9F4519"/>
			<stop  offset="0.5057" style="stop-color:#903F16"/>
			<stop  offset="0.6357" style="stop-color:#813913"/>
			<stop  offset="0.7858" style="stop-color:#783512"/>
			<stop  offset="1" style="stop-color:#753411"/>
		</linearGradient>
		<path fill="url(#SVGID_3_)" d="M116.975,180.582c-0.025-0.007-0.047-0.021-0.073-0.028c-1.721-0.678-3.415-1.452-5.013-2.391
			c-1.476-0.869-2.931-1.885-3.986-3.263c-2.558-3.34-2.818-7.857-3.427-11.865c-0.731-4.82-1.439-9.644-1.848-14.504
			c-0.774-9.217-0.415-18.664,3.234-27.295c2.812-6.664,7.281-12.38,12.447-17.374l-2.386-2.558l-14.14,14.343l-1.263-15.156
			l-4.922-0.412l-3.648,12.699l-6.15-18.235l-5.732,2.048c0,0,4.023,19.145,4.292,20.051c-0.266-0.644-4.398-9.705-13.758-11.851
			c0,0-2.659,2.255-2.662,2.255c0.506-0.426,3.933,2.659,4.172,2.888c3.871,3.648,6.039,8.646,7.294,13.732
			c2.244,9.115,2.273,18.141,1.324,27.426c-0.739,7.246-0.949,15.289-3.561,22.168c-0.558,1.463-1.842,4.452-3.493,5.089
			c0,0-6.555,2.63-4.71,3.144c1.844,0.508,12.389-2.834,12.389-2.834s-6.718,5.902-4.467,6.107
			c2.252,0.204,12.565-4.233,12.565-4.233s0.614,5.772,2.458,4.645c1.848-1.124,3.961-4.918,3.961-4.918s5.292,3.313,11.338,3.826
			c0,0,3.824,0.545,0.681-1.641c-0.263-0.186-2.593-2.869-2.593-2.869S111.908,180.876,116.975,180.582z"/>
		<linearGradient id="SVGID_4_" gradientUnits="userSpaceOnUse" x1="8.9736" y1="-80.4121" x2="171.0652" y2="269.7952">
			<stop  offset="0" style="stop-color:#D2DF93"/>
			<stop  offset="0.0246" style="stop-color:#CCCD84"/>
			<stop  offset="0.0867" style="stop-color:#BEA364"/>
			<stop  offset="0.1503" style="stop-color:#B38149"/>
			<stop  offset="0.2149" style="stop-color:#AA6734"/>
			<stop  offset="0.2807" style="stop-color:#A45425"/>
			<stop  offset="0.3485" style="stop-color:#A0491C"/>
			<stop  offset="0.4216" style="stop-color:#9F4519"/>
			<stop  offset="0.5057" style="stop-color:#903F16"/>
			<stop  offset="0.6357" style="stop-color:#813913"/>
			<stop  offset="0.7858" style="stop-color:#783512"/>
			<stop  offset="1" style="stop-color:#753411"/>
		</linearGradient>
		<path opacity="0.4" fill="url(#SVGID_4_)" d="M101.902,123.392c-1.823,4.184-2.997,8.557-3.584,13.08
			c-0.604,4.661-0.694,9.381-0.469,14.071c0.226,4.646,0.742,9.271,1.466,13.861c0.309,1.968,0.749,3.886,1.568,5.712
			c0.73,1.627,1.691,3.153,2.872,4.499c2.42,2.762,11.845,6.046,13.22,5.966c-0.025-0.007-0.047-0.021-0.073-0.028
			c-1.721-0.678-3.415-1.452-5.013-2.391c-1.476-0.869-2.931-1.885-3.986-3.263c-2.558-3.34-2.818-7.857-3.427-11.865
			c-0.731-4.82-1.439-9.644-1.848-14.504c-0.774-9.217-0.415-18.664,3.234-27.295c2.812-6.664,7.281-12.38,12.447-17.374
			l-1.008-1.079C110.842,108.534,105.364,115.429,101.902,123.392z"/>
		<linearGradient id="SVGID_5_" gradientUnits="userSpaceOnUse" x1="11.4287" y1="-81.5283" x2="173.5083" y2="268.6532">
			<stop  offset="0" style="stop-color:#D2DF93"/>
			<stop  offset="0.0246" style="stop-color:#CCCD84"/>
			<stop  offset="0.0867" style="stop-color:#BEA364"/>
			<stop  offset="0.1503" style="stop-color:#B38149"/>
			<stop  offset="0.2149" style="stop-color:#AA6734"/>
			<stop  offset="0.2807" style="stop-color:#A45425"/>
			<stop  offset="0.3485" style="stop-color:#A0491C"/>
			<stop  offset="0.4216" style="stop-color:#9F4519"/>
			<stop  offset="0.5057" style="stop-color:#903F16"/>
			<stop  offset="0.6357" style="stop-color:#813913"/>
			<stop  offset="0.7858" style="stop-color:#783512"/>
			<stop  offset="1" style="stop-color:#753411"/>
		</linearGradient>
		<path opacity="0.4" fill="url(#SVGID_5_)" d="M99.543,119.319c0.731-1.247,1.456-2.503,2.238-3.726l-1.26-15.103l-2.742-0.226
			C97.678,103.218,98.857,117.801,99.543,119.319z"/>
		<linearGradient id="SVGID_6_" gradientUnits="userSpaceOnUse" x1="2.3599" y1="-77.3477" x2="164.4497" y2="272.8561">
			<stop  offset="0" style="stop-color:#D2DF93"/>
			<stop  offset="0.0246" style="stop-color:#CCCD84"/>
			<stop  offset="0.0867" style="stop-color:#BEA364"/>
			<stop  offset="0.1503" style="stop-color:#B38149"/>
			<stop  offset="0.2149" style="stop-color:#AA6734"/>
			<stop  offset="0.2807" style="stop-color:#A45425"/>
			<stop  offset="0.3485" style="stop-color:#A0491C"/>
			<stop  offset="0.4216" style="stop-color:#9F4519"/>
			<stop  offset="0.5057" style="stop-color:#903F16"/>
			<stop  offset="0.6357" style="stop-color:#813913"/>
			<stop  offset="0.7858" style="stop-color:#783512"/>
			<stop  offset="1" style="stop-color:#753411"/>
		</linearGradient>
		<path opacity="0.4" fill="url(#SVGID_6_)" d="M90.327,121.097c0.67-2.993,1.043-5.373,1.694-8.319l-6.22-18.235l-2.124,0.761
			C85.969,103.884,87.5,112.666,90.327,121.097z"/>
		<linearGradient id="SVGID_7_" gradientUnits="userSpaceOnUse" x1="-8.1191" y1="-72.5459" x2="154.0051" y2="277.7321">
			<stop  offset="0" style="stop-color:#D2DF93"/>
			<stop  offset="0.0246" style="stop-color:#CCCD84"/>
			<stop  offset="0.0867" style="stop-color:#BEA364"/>
			<stop  offset="0.1503" style="stop-color:#B38149"/>
			<stop  offset="0.2149" style="stop-color:#AA6734"/>
			<stop  offset="0.2807" style="stop-color:#A45425"/>
			<stop  offset="0.3485" style="stop-color:#A0491C"/>
			<stop  offset="0.4216" style="stop-color:#9F4519"/>
			<stop  offset="0.5057" style="stop-color:#903F16"/>
			<stop  offset="0.6357" style="stop-color:#813913"/>
			<stop  offset="0.7858" style="stop-color:#783512"/>
			<stop  offset="1" style="stop-color:#753411"/>
		</linearGradient>
		<path opacity="0.4" fill="url(#SVGID_7_)" d="M73.07,107.417c1.816,1.12,3.391,2.571,4.816,4.146
			c1.714,1.893,3.331,3.906,4.812,5.979c1.135,1.59,2.172,3.26,2.965,5.042c-0.593-2.276-0.724-3.997-1.361-6.257
			c-1.774-3.346-5.831-9.734-13.699-11.537c0,0-0.569,0.486-1.181,1.004C70.696,106.186,71.924,106.714,73.07,107.417z"/>
		<linearGradient id="SVGID_8_" gradientUnits="userSpaceOnUse" x1="75.8403" y1="104.9321" x2="95.8365" y2="108.8064">
			<stop  offset="0" style="stop-color:#D2DF93"/>
			<stop  offset="0.0246" style="stop-color:#CCCD84"/>
			<stop  offset="0.0867" style="stop-color:#BEA364"/>
			<stop  offset="0.1503" style="stop-color:#B38149"/>
			<stop  offset="0.2149" style="stop-color:#AA6734"/>
			<stop  offset="0.2807" style="stop-color:#A45425"/>
			<stop  offset="0.3485" style="stop-color:#A0491C"/>
			<stop  offset="0.4216" style="stop-color:#9F4519"/>
			<stop  offset="0.5057" style="stop-color:#903F16"/>
			<stop  offset="0.6357" style="stop-color:#813913"/>
			<stop  offset="0.7858" style="stop-color:#783512"/>
			<stop  offset="1" style="stop-color:#753411"/>
		</linearGradient>
		<polygon fill="url(#SVGID_8_)" points="81.09,97.719 84.983,116.362 82.117,96.489 		"/>
		<g>
			<linearGradient id="SVGID_9_" gradientUnits="userSpaceOnUse" x1="63.8081" y1="112.3228" x2="87.564" y2="163.6486">
				<stop  offset="0" style="stop-color:#D2DF93"/>
				<stop  offset="0.0246" style="stop-color:#CCCD84"/>
				<stop  offset="0.0867" style="stop-color:#BEA364"/>
				<stop  offset="0.1503" style="stop-color:#B38149"/>
				<stop  offset="0.2149" style="stop-color:#AA6734"/>
				<stop  offset="0.2807" style="stop-color:#A45425"/>
				<stop  offset="0.3485" style="stop-color:#A0491C"/>
				<stop  offset="0.4216" style="stop-color:#9F4519"/>
				<stop  offset="0.5057" style="stop-color:#903F16"/>
				<stop  offset="0.6357" style="stop-color:#813913"/>
				<stop  offset="0.7858" style="stop-color:#783512"/>
				<stop  offset="1" style="stop-color:#753411"/>
			</linearGradient>
			<path fill="url(#SVGID_9_)" d="M83.142,136.957c-0.411-11.68-5.022-19.773-5.022-19.773v0.41c0,0,3.794,6.555,4.1,21.31
				c0.29,14.016-3.023,30.53-3.354,32.137C79.243,169.208,83.536,148.121,83.142,136.957z"/>
			<linearGradient id="SVGID_10_" gradientUnits="userSpaceOnUse" x1="78.8384" y1="171.165" x2="78.8412" y2="171.1712">
				<stop  offset="0" style="stop-color:#D2DF93"/>
				<stop  offset="0.0246" style="stop-color:#CCCD84"/>
				<stop  offset="0.0867" style="stop-color:#BEA364"/>
				<stop  offset="0.1503" style="stop-color:#B38149"/>
				<stop  offset="0.2149" style="stop-color:#AA6734"/>
				<stop  offset="0.2807" style="stop-color:#A45425"/>
				<stop  offset="0.3485" style="stop-color:#A0491C"/>
				<stop  offset="0.4216" style="stop-color:#9F4519"/>
				<stop  offset="0.5057" style="stop-color:#903F16"/>
				<stop  offset="0.6357" style="stop-color:#813913"/>
				<stop  offset="0.7858" style="stop-color:#783512"/>
				<stop  offset="1" style="stop-color:#753411"/>
			</linearGradient>
			<path fill="url(#SVGID_10_)" d="M78.84,171.165v0.007C78.84,171.171,78.84,171.167,78.84,171.165z"/>
			<linearGradient id="SVGID_11_" gradientUnits="userSpaceOnUse" x1="78.8218" y1="171.0352" x2="78.8718" y2="171.1432">
				<stop  offset="0" style="stop-color:#D2DF93"/>
				<stop  offset="0.0246" style="stop-color:#CCCD84"/>
				<stop  offset="0.0867" style="stop-color:#BEA364"/>
				<stop  offset="0.1503" style="stop-color:#B38149"/>
				<stop  offset="0.2149" style="stop-color:#AA6734"/>
				<stop  offset="0.2807" style="stop-color:#A45425"/>
				<stop  offset="0.3485" style="stop-color:#A0491C"/>
				<stop  offset="0.4216" style="stop-color:#9F4519"/>
				<stop  offset="0.5057" style="stop-color:#903F16"/>
				<stop  offset="0.6357" style="stop-color:#813913"/>
				<stop  offset="0.7858" style="stop-color:#783512"/>
				<stop  offset="1" style="stop-color:#753411"/>
			</linearGradient>
			<path fill="url(#SVGID_11_)" d="M78.865,171.04c-0.015,0.069-0.021,0.114-0.024,0.125
				C78.84,171.157,78.846,171.117,78.865,171.04z"/>
		</g>
	</g>
	<g>
		<path fill="#6BAB1F" d="M77.005,87.602c0,0-5.59,0.168-6.06,7.031C70.946,94.633,76.999,95.056,77.005,87.602z"/>
		<path fill="#6BAB1F" d="M81.377,95.292c0,0-4.04,3.874,0.215,9.276C81.592,104.569,86.369,100.833,81.377,95.292z"/>
		<path fill="#6BAB1F" d="M86.198,86.264c0,0,0.24,5.584,7.107,5.965C93.305,92.229,93.656,86.177,86.198,86.264z"/>
	</g>
	<g>
		<path fill="#6BAB1F" d="M70.411,37.71c0,0-3.794,0.112-4.11,4.769C66.3,42.479,70.404,42.766,70.411,37.71z"/>
		<path fill="#6BAB1F" d="M73.372,42.923c0,0-2.734,2.626,0.15,6.293C73.522,49.216,76.758,46.68,73.372,42.923z"/>
		<path fill="#6BAB1F" d="M76.646,36.796c0,0,0.16,3.795,4.819,4.05C81.465,40.846,81.702,36.744,76.646,36.796z"/>
	</g>
	<g>
		<path fill="#6BAB1F" d="M64.18,57.149c0,0-5.248,0.157-5.689,6.599C58.491,63.748,64.173,64.152,64.18,57.149z"/>
		<path fill="#6BAB1F" d="M68.284,64.371c0,0-3.791,3.633,0.199,8.711C68.483,73.082,72.969,69.569,68.284,64.371z"/>
		<path fill="#6BAB1F" d="M72.812,55.891c0,0,0.222,5.245,6.667,5.602C79.479,61.493,79.811,55.811,72.812,55.891z"/>
	</g>
	<g>
		<path fill="#6BAB1F" d="M109.304,20.268c0,0-5.249,0.157-5.69,6.598C103.614,26.866,109.296,27.27,109.304,20.268z"/>
		<path fill="#6BAB1F" d="M113.407,27.488c0,0-3.791,3.638,0.2,8.713C113.607,36.201,118.092,32.691,113.407,27.488z"/>
		<path fill="#6BAB1F" d="M117.936,19.01c0,0,0.221,5.249,6.671,5.605C124.607,24.616,124.937,18.93,117.936,19.01z"/>
	</g>
	<g>
		<path fill="#6BAB1F" d="M138.117,96.449c0,0-4.663,0.142-5.052,5.868C133.065,102.317,138.11,102.668,138.117,96.449z"/>
		<path fill="#6BAB1F" d="M117.175,98.818c0,0-3.364,3.229,0.181,7.74C117.356,106.558,121.339,103.437,117.175,98.818z"/>
		<path fill="#6BAB1F" d="M121.202,91.285c0,0,0.196,4.662,5.926,4.979C127.127,96.263,127.418,91.21,121.202,91.285z"/>
	</g>
</g>
</svg>
