<?xml version="1.0" encoding="utf-8"?>
<!-- Generator: Adobe Illustrator 16.0.0, SVG Export Plug-In . SVG Version: 6.00 Build 0)  -->
<!DOCTYPE svg PUBLIC "-//W3C//DTD SVG 1.1//EN" "http://www.w3.org/Graphics/SVG/1.1/DTD/svg11.dtd">
<svg version="1.1" xmlns="http://www.w3.org/2000/svg" xmlns:xlink="http://www.w3.org/1999/xlink" x="0px" y="0px"
	 width="142.831px" height="183.674px" viewBox="0 0 142.831 183.674" enable-background="new 0 0 142.831 183.674"
	 xml:space="preserve">
<pattern  x="57.383" y="55.337" width="26" height="26" patternUnits="userSpaceOnUse" id="Nuovo_campione_pattern_3" viewBox="0 -26 26 26" overflow="visible">
	<g>
		<polygon fill="none" points="0,0 26,0 26,-26 0,-26 		"/>
		<polygon fill="#FD3B2C" points="26,0 0,0 0,-26 26,-26 		"/>
	</g>
</pattern>
<pattern  x="57.383" y="55.337" width="26" height="26" patternUnits="userSpaceOnUse" id="Nuovo_campione_pattern_4" viewBox="0 -26 26 26" overflow="visible">
	<g>
		<polygon fill="none" points="0,0 26,0 26,-26 0,-26 		"/>
		<polygon fill="#FA5B0E" points="26,0 0,0 0,-26 26,-26 		"/>
	</g>
</pattern>
<pattern  x="57.383" y="55.337" width="26" height="26" patternUnits="userSpaceOnUse" id="Nuovo_campione_pattern_5" viewBox="0 -26 26 26" overflow="visible">
	<g>
		<polygon fill="none" points="0,0 26,0 26,-26 0,-26 		"/>
		<polygon fill="#FAC100" points="26,0 0,0 0,-26 26,-26 		"/>
	</g>
</pattern>
<pattern  x="57.383" y="55.337" width="26" height="26" patternUnits="userSpaceOnUse" id="Nuovo_campione_pattern_6" viewBox="0 -26 26 26" overflow="visible">
	<g>
		<polygon fill="none" points="0,-26 26,-26 26,0 0,0 		"/>
		<polygon fill="#32AE95" points="26,0 0,0 0,-26 26,-26 		"/>
	</g>
</pattern>
<pattern  x="57.383" y="55.337" width="26" height="26" patternUnits="userSpaceOnUse" id="Nuovo_campione_pattern_7" viewBox="0 -26 26 26" overflow="visible">
	<g>
		<polygon fill="none" points="0,0 26,0 26,-26 0,-26 		"/>
		<polygon fill="#173140" points="26,0 0,0 0,-26 26,-26 		"/>
	</g>
</pattern>
<g>
	<g>
		<g>
			<g>
				<g>
					<pattern  id="SVGID_1_" xlink:href="#Nuovo_campione_pattern_7" patternTransform="matrix(1 0 0 1 -8.5059 -2.7749)">
					</pattern>
					<path fill="url(#SVGID_1_)" d="M67.201,65.147c1.076,32.414,4.651,64.631,6.625,96.99c5.454,0,7.797,0,12.171,0
						c-1.405-32.35-4.009-64.627-5.09-96.992c0,0-0.757-7.875-6.969-7.875C68.091,57.271,67.201,65.147,67.201,65.147z"/>
					<pattern  id="SVGID_2_" xlink:href="#Nuovo_campione_pattern_7" patternTransform="matrix(1 0 0 1 -8.5059 -2.7749)">
					</pattern>
					<path fill="url(#SVGID_2_)" d="M121.335,65.14c-0.966,32.396-3.345,64.68-5.691,96.998c4.374,0,6.717,0,12.171,0
						c2.896-32.323,6.26-64.544,7.226-97c0,0-0.536-7.867-6.749-7.867C122.446,57.271,121.335,65.14,121.335,65.14z"/>
					<path fill="#E5E5E5" d="M81.032,65.146c1.078,32.365,3.667,64.643,5.066,96.992c4.366,0,6.303,0,10.136,0
						c-0.2-32.338-1.193-64.66-1.649-96.995c0,0-0.673-7.873-6.886-7.873C81.853,57.271,81.032,65.146,81.032,65.146z"/>
					<pattern  id="SVGID_3_" xlink:href="#Nuovo_campione_pattern_7" patternTransform="matrix(1 0 0 1 -8.5059 -2.7749)">
					</pattern>
					<path fill="url(#SVGID_3_)" d="M94.438,65.144c0.466,32.334,1.478,64.656,1.692,96.994c3.836,0,5.642,0,9.48,0
						c1.178-32.326,1.976-64.65,2.331-96.996c0,0-0.543-7.871-6.756-7.871C95.338,57.271,94.438,65.144,94.438,65.144z"/>
					<path fill="#E5E5E5" d="M107.803,65.142c-0.349,32.345-1.122,64.67-2.293,96.996c3.835,0,5.775,0,10.15,0
						c2.348-32.318,4.729-64.603,5.696-96.998c0,0-0.465-7.869-6.676-7.869C108.833,57.271,107.803,65.142,107.803,65.142z"/>
				</g>
			</g>
			<g>
				<g>
					<pattern  id="SVGID_4_" xlink:href="#Nuovo_campione_pattern_7" patternTransform="matrix(1 0 0 1 -8.5059 -2.7749)">
					</pattern>
					<path fill="none" stroke="url(#SVGID_4_)" stroke-width="2.0465" stroke-linecap="round" stroke-linejoin="round" d="
						M67.201,65.147c1.076,32.414,4.651,64.631,6.625,96.99c5.454,0,7.797,0,12.171,0c-1.405-32.35-4.009-64.627-5.09-96.992
						c0,0-0.757-7.875-6.969-7.875C68.091,57.271,67.201,65.147,67.201,65.147z"/>
					<pattern  id="SVGID_5_" xlink:href="#Nuovo_campione_pattern_7" patternTransform="matrix(1 0 0 1 -8.5059 -2.7749)">
					</pattern>
					<path fill="none" stroke="url(#SVGID_5_)" stroke-width="2.0465" stroke-linecap="round" stroke-linejoin="round" d="
						M121.335,65.14c-0.966,32.396-3.345,64.68-5.691,96.998c4.374,0,6.717,0,12.171,0c2.896-32.323,6.26-64.544,7.226-97
						c0,0-0.536-7.867-6.749-7.867C122.446,57.271,121.335,65.14,121.335,65.14z"/>
					<pattern  id="SVGID_6_" xlink:href="#Nuovo_campione_pattern_7" patternTransform="matrix(1 0 0 1 -8.5059 -2.7749)">
					</pattern>
					<path fill="none" stroke="url(#SVGID_6_)" stroke-width="2.0465" stroke-linecap="round" stroke-linejoin="round" d="
						M81.032,65.146c1.078,32.365,3.667,64.643,5.066,96.992c4.366,0,6.303,0,10.136,0c-0.2-32.338-1.193-64.66-1.649-96.995
						c0,0-0.673-7.873-6.886-7.873C81.853,57.271,81.032,65.146,81.032,65.146z"/>
					<pattern  id="SVGID_7_" xlink:href="#Nuovo_campione_pattern_7" patternTransform="matrix(1 0 0 1 -8.5059 -2.7749)">
					</pattern>
					<path fill="none" stroke="url(#SVGID_7_)" stroke-width="2.0465" stroke-linecap="round" stroke-linejoin="round" d="
						M94.438,65.144c0.466,32.334,1.478,64.656,1.692,96.994c3.836,0,5.642,0,9.48,0c1.178-32.326,1.976-64.65,2.331-96.996
						c0,0-0.543-7.871-6.756-7.871C95.338,57.271,94.438,65.144,94.438,65.144z"/>
					<pattern  id="SVGID_8_" xlink:href="#Nuovo_campione_pattern_7" patternTransform="matrix(1 0 0 1 -8.5059 -2.7749)">
					</pattern>
					<path fill="none" stroke="url(#SVGID_8_)" stroke-width="2.0465" stroke-linecap="round" stroke-linejoin="round" d="
						M107.803,65.142c-0.349,32.345-1.122,64.67-2.293,96.996c3.835,0,5.775,0,10.15,0c2.348-32.318,4.729-64.603,5.696-96.998
						c0,0-0.465-7.869-6.676-7.869C108.833,57.271,107.803,65.142,107.803,65.142z"/>
				</g>
			</g>
		</g>
		<pattern  id="SVGID_9_" xlink:href="#Nuovo_campione_pattern_5" patternTransform="matrix(1 0 0 1 -8.5059 -2.7749)">
		</pattern>
		<path fill="none" stroke="url(#SVGID_9_)" stroke-width="4.9697" stroke-linecap="round" stroke-linejoin="round" d="
			M99.805,54.634l12.568-47.872c0,0,1.397-7.263,7.981-2.861c6.583,4.402,9.576,7.263,9.576,7.263"/>
		<pattern  id="SVGID_10_" xlink:href="#Nuovo_campione_pattern_6" patternTransform="matrix(1 0 0 1 -8.5059 -2.7749)">
		</pattern>
		<pattern  id="SVGID_11_" xlink:href="#Nuovo_campione_pattern_6" patternTransform="matrix(1 0 0 1 -8.5059 -2.7749)">
		</pattern>
		
			<polygon fill="url(#SVGID_10_)" stroke="url(#SVGID_11_)" stroke-width="4.9697" stroke-linecap="round" stroke-linejoin="round" points="
			65.108,63.622 137.125,63.622 130.377,52.892 121.609,52.833 118.737,48.832 83.974,48.596 80.531,52.553 70.188,52.482 		"/>
		<pattern  id="SVGID_12_" xlink:href="#Nuovo_campione_pattern_4" patternTransform="matrix(1 0 0 1 -8.5059 -2.7749)">
		</pattern>
		<circle fill="url(#SVGID_12_)" cx="130.233" cy="11.438" r="2.352"/>
	</g>
	<g>
		<g>
			<g>
				<g>
					<path fill="url(#Nuovo_campione_pattern_3)" d="M3.081,103.295c4.56,26.484,7.18,52.479,6.635,79.368c6.474,0,9.256,0,14.448,0
						c-0.083-26.662-2.154-52.947-5.327-79.41c0,0-1.615-6.808-8.988-6.808C2.908,96.445,3.081,103.295,3.081,103.295z"/>
					<path fill="url(#Nuovo_campione_pattern_3)" d="M65.294,103.129c-3.424,26.476-5.313,52.848-5.94,79.534
						c5.191,0,7.974,0,14.447,0c0.019-26.951,2.369-53.066,7.249-79.576c0,0,0.694-6.642-6.68-6.642
						C67.43,96.445,65.294,103.129,65.294,103.129z"/>
					<path fill="#E5E5E5" d="M18.979,103.252c3.157,26.462,5.218,52.751,5.303,79.41c5.183,0,7.482,0.001,12.032,0.001
						c0.076-26.509-0.717-52.967-1.761-79.453c0,0-0.998-6.765-8.372-6.765C19.242,96.445,18.979,103.252,18.979,103.252z"/>
					<path fill="url(#Nuovo_campione_pattern_3)" d="M34.386,103.211c1.066,26.485,1.877,52.941,1.804,79.451
						c4.553,0,6.696,0.001,11.252,0.001c0.475-26.516,1.158-53.004,2.459-79.493c0,0-0.337-6.725-7.71-6.725
						C35.251,96.445,34.386,103.211,34.386,103.211z"/>
					<path fill="#E5E5E5" d="M49.743,103.17c-1.274,26.49-1.943,52.978-2.417,79.493c4.553,0,6.856,0,12.049,0
						c0.629-26.686,2.515-53.058,5.945-79.534c0,0,0.264-6.684-7.109-6.684C51.271,96.445,49.743,103.17,49.743,103.17z"/>
				</g>
			</g>
			<g>
				<g>
					<pattern  id="SVGID_13_" xlink:href="#Nuovo_campione_pattern_3" patternTransform="matrix(1 0 0 1 -8.5059 -2.7749)">
					</pattern>
					<path fill="none" stroke="url(#SVGID_13_)" stroke-width="2.0217" stroke-linecap="round" stroke-linejoin="round" d="
						M3.081,103.295c4.56,26.484,7.18,52.479,6.635,79.368c6.474,0,9.256,0,14.448,0c-0.083-26.662-2.154-52.947-5.327-79.41
						c0,0-1.615-6.808-8.988-6.808C2.908,96.445,3.081,103.295,3.081,103.295z"/>
					<pattern  id="SVGID_14_" xlink:href="#Nuovo_campione_pattern_3" patternTransform="matrix(1 0 0 1 -8.5059 -2.7749)">
					</pattern>
					<path fill="none" stroke="url(#SVGID_14_)" stroke-width="2.0217" stroke-linecap="round" stroke-linejoin="round" d="
						M65.294,103.129c-3.424,26.476-5.313,52.848-5.94,79.534c5.191,0,7.974,0,14.447,0c0.019-26.951,2.369-53.066,7.249-79.576
						c0,0,0.694-6.642-6.68-6.642C67.43,96.445,65.294,103.129,65.294,103.129z"/>
					<pattern  id="SVGID_15_" xlink:href="#Nuovo_campione_pattern_3" patternTransform="matrix(1 0 0 1 -8.5059 -2.7749)">
					</pattern>
					<path fill="none" stroke="url(#SVGID_15_)" stroke-width="2.0217" stroke-linecap="round" stroke-linejoin="round" d="
						M18.979,103.252c3.157,26.462,5.218,52.751,5.303,79.41c5.183,0,7.482,0.001,12.032,0.001
						c0.076-26.509-0.717-52.967-1.761-79.453c0,0-0.998-6.765-8.372-6.765C19.242,96.445,18.979,103.252,18.979,103.252z"/>
					<pattern  id="SVGID_16_" xlink:href="#Nuovo_campione_pattern_3" patternTransform="matrix(1 0 0 1 -8.5059 -2.7749)">
					</pattern>
					<path fill="none" stroke="url(#SVGID_16_)" stroke-width="2.0217" stroke-linecap="round" stroke-linejoin="round" d="
						M34.386,103.211c1.066,26.485,1.877,52.941,1.804,79.451c4.553,0,6.696,0.001,11.252,0.001
						c0.475-26.516,1.158-53.004,2.459-79.493c0,0-0.337-6.725-7.71-6.725C35.251,96.445,34.386,103.211,34.386,103.211z"/>
					<pattern  id="SVGID_17_" xlink:href="#Nuovo_campione_pattern_3" patternTransform="matrix(1 0 0 1 -8.5059 -2.7749)">
					</pattern>
					<path fill="none" stroke="url(#SVGID_17_)" stroke-width="2.0217" stroke-linecap="round" stroke-linejoin="round" d="
						M49.743,103.17c-1.274,26.49-1.943,52.978-2.417,79.493c4.553,0,6.856,0,12.049,0c0.629-26.686,2.515-53.058,5.945-79.534
						c0,0,0.264-6.684-7.109-6.684C51.271,96.445,49.743,103.17,49.743,103.17z"/>
				</g>
			</g>
		</g>
		<g>
			<g>
				<path fill="#FFF6DE" d="M36.532,83.113c0,0,8.513-5.842,10.539-0.699c1.398,3.553-4.441,4.535-4.441,4.535
					s7.99-1.647,6.783,5.896c-1.209,7.543-8.987,1.424-8.987,1.424s5.312,3.948,0.579,6.795c-4.732,2.851-7.568-5.783-7.568-5.783
					s-5.771,2.808-6.513-2.404c-0.562-3.953,3.897-4.658,3.897-4.658s-4.176-4.034-0.41-6.284
					C32.499,80.687,35.26,81.973,36.532,83.113z"/>
				<path fill="#F0CC91" d="M35.708,86.053c0,0,4.652-3.193,5.76-0.38c0.766,1.94-2.426,2.477-2.426,2.477s4.367-0.9,3.705,3.223
					c-0.659,4.125-4.912,0.778-4.912,0.778s2.904,2.156,0.316,3.716c-2.588,1.559-4.137-3.161-4.137-3.161s-3.154,1.533-3.561-1.316
					c-0.306-2.158,2.131-2.545,2.131-2.545s-2.283-2.203-0.223-3.434C33.504,84.728,35.014,85.428,35.708,86.053z"/>
				<path fill="#FFFFFF" d="M33.799,82.12c0,0-5.348-1.002-4.272,3.145C29.527,85.264,29.403,82.616,33.799,82.12z"/>
				<path fill="#FFFFFF" d="M30.688,95.431c0,0-5.267-1.367-2.534-4.66C28.154,90.771,26.917,93.113,30.688,95.431z"/>
				<path fill="#FFFFFF" d="M41.722,96.52c0,0,0.638,5.405-3.423,4.054C38.299,100.574,40.93,100.875,41.722,96.52z"/>
				<path fill="#FFFFFF" d="M47.121,88.738c0,0,3.524,5.829-1.808,6.388C45.313,95.126,48.471,94.108,47.121,88.738z"/>
				<path fill="#FFFFFF" d="M44.483,80.751c0,0,3.729,2.667,0.582,4.433C45.065,85.185,46.745,83.714,44.483,80.751z"/>
			</g>
			<g>
				<path fill="#FFF6DE" d="M51.28,57.934c0,0,7.46-5.122,9.238-0.613c1.227,3.114-3.895,3.976-3.895,3.976s7.006-1.443,5.945,5.168
					c-1.059,6.612-7.877,1.248-7.877,1.248s4.655,3.461,0.508,5.958c-4.148,2.498-6.635-5.07-6.635-5.07s-5.059,2.46-5.709-2.108
					c-0.492-3.464,3.415-4.083,3.415-4.083s-3.66-3.536-0.356-5.508C47.744,55.808,50.165,56.934,51.28,57.934z"/>
				<path fill="#F0CC91" d="M50.556,60.511c0,0,4.077-2.799,5.05-0.333c0.67,1.701-2.127,2.171-2.127,2.171s3.828-0.79,3.248,2.825
					c-0.579,3.617-4.306,0.683-4.306,0.683s2.544,1.891,0.276,3.257s-3.625-2.771-3.625-2.771s-2.766,1.343-3.121-1.154
					c-0.27-1.891,1.867-2.231,1.867-2.231s-2-1.932-0.195-3.011C48.624,59.349,49.948,59.963,50.556,60.511z"/>
				<path fill="#FFFFFF" d="M48.883,57.063c0,0-4.688-0.878-3.745,2.756C45.138,59.819,45.03,57.498,48.883,57.063z"/>
				<path fill="#FFFFFF" d="M46.155,68.731c0,0-4.616-1.198-2.22-4.086C43.935,64.646,42.85,66.7,46.155,68.731z"/>
				<path fill="#FFFFFF" d="M55.829,69.687c0,0,0.561,4.738-3,3.553C52.829,73.24,55.133,73.503,55.829,69.687z"/>
				<path fill="#FFFFFF" d="M60.561,62.865c0,0,3.09,5.109-1.584,5.599C58.977,68.463,61.746,67.572,60.561,62.865z"/>
				<path fill="#FFFFFF" d="M58.249,55.863c0,0,3.27,2.337,0.51,3.886C58.758,59.75,60.231,58.461,58.249,55.863z"/>
			</g>
			<g>
				<path fill="#FFF6DE" d="M6.993,99.206c0,0-8.841-2.179-6.642-6.533c1.517-3.005,5.592,0.267,5.592,0.267
					s-5.773-4.297-0.094-7.927c5.675-3.63,6.21,5.087,6.21,5.087s-0.517-5.816,4.139-4.37c4.651,1.444,0.627,8.378,0.627,8.378
					s5.236,2.157,2.237,5.703c-2.274,2.688-5.355,0.164-5.355,0.164s-0.207,5.117-3.899,3.957
					C7.763,103.288,6.986,100.713,6.993,99.206z"/>
				<path fill="#F0CC91" d="M9.416,98.027c0,0-4.834-1.191-3.633-3.572c0.832-1.643,3.057,0.147,3.057,0.147
					s-3.153-2.351-0.05-4.334c3.102-1.987,3.393,2.78,3.393,2.78s-0.282-3.18,2.264-2.389c2.543,0.79,0.345,4.58,0.345,4.58
					s2.861,1.179,1.222,3.117c-1.245,1.467-2.929,0.09-2.929,0.09s-0.111,2.796-2.131,2.163C9.835,100.256,9.411,98.85,9.416,98.027
					z"/>
				<path fill="#FFFFFF" d="M7.943,101.589c0,0,2.477,4.115,4.577,0.971C12.52,102.561,10.85,104.197,7.943,101.589z"/>
				<path fill="#FFFFFF" d="M18.538,95.833c0,0,2.19,4.271-1.586,4.401C16.952,100.234,19.222,99.675,18.538,95.833z"/>
				<path fill="#FFFFFF" d="M12.782,87.924c0,0,3.186-3.593,4.679-0.122C17.46,87.802,16.115,85.89,12.782,87.924z"/>
				<path fill="#FFFFFF" d="M4.489,88.933c0,0,1.772-5.741,5.267-2.556C9.756,86.376,7.235,84.893,4.489,88.933z"/>
				<path fill="#FFFFFF" d="M0.776,95.356c0,0-0.431-4.022,2.578-2.985C3.354,92.372,1.398,92.125,0.776,95.356z"/>
			</g>
			<g>
				<path fill="#FFF6DE" d="M56.135,77.111c0,0-7.992-1.969-6.004-5.907c1.371-2.716,5.055,0.241,5.055,0.241
					s-5.218-3.884-0.084-7.166c5.131-3.281,5.615,4.599,5.615,4.599s-0.467-5.258,3.74-3.95c4.205,1.305,0.568,7.574,0.568,7.574
					s4.734,1.949,2.023,5.156c-2.057,2.431-4.842,0.147-4.842,0.147s-0.188,4.626-3.525,3.577
					C56.833,80.803,56.128,78.473,56.135,77.111z"/>
				<path fill="#F0CC91" d="M58.326,76.044c0,0-4.37-1.076-3.284-3.228c0.751-1.486,2.764,0.133,2.764,0.133
					s-2.852-2.125-0.045-3.919c2.804-1.795,3.066,2.513,3.066,2.513s-0.254-2.874,2.047-2.16c2.299,0.714,0.311,4.141,0.311,4.141
					s2.588,1.067,1.105,2.819c-1.123,1.327-2.646,0.08-2.646,0.08s-0.101,2.529-1.928,1.955
					C58.705,78.061,58.322,76.789,58.326,76.044z"/>
				<path fill="#FFFFFF" d="M56.995,79.268c0,0,2.24,3.718,4.139,0.877C61.133,80.145,59.622,81.624,56.995,79.268z"/>
				<path fill="#FFFFFF" d="M66.573,74.062c0,0,1.979,3.861-1.434,3.98C65.139,78.042,67.192,77.536,66.573,74.062z"/>
				<path fill="#FFFFFF" d="M61.37,66.912c0,0,2.879-3.248,4.229-0.111C65.599,66.801,64.382,65.072,61.37,66.912z"/>
				<path fill="#FFFFFF" d="M53.872,67.823c0,0,1.602-5.19,4.762-2.311C58.633,65.512,56.354,64.171,53.872,67.823z"/>
				<path fill="#FFFFFF" d="M50.513,73.63c0,0-0.388-3.635,2.331-2.697C52.844,70.933,51.078,70.71,50.513,73.63z"/>
			</g>
			<g>
				<path fill="#FFF6DE" d="M21.396,79.228c0,0-6.863-1.692-5.155-5.073c1.178-2.332,4.341,0.208,4.341,0.208
					s-4.483-3.336-0.073-6.154c4.405-2.817,4.82,3.948,4.82,3.948s-0.4-4.514,3.213-3.391c3.611,1.122,0.488,6.503,0.488,6.503
					s4.064,1.675,1.737,4.429c-1.766,2.086-4.157,0.126-4.157,0.126s-0.162,3.973-3.027,3.071
					C21.994,82.395,21.389,80.397,21.396,79.228z"/>
				<path fill="#F0CC91" d="M23.276,78.312c0,0-3.752-0.926-2.82-2.772c0.645-1.276,2.374,0.113,2.374,0.113
					s-2.448-1.824-0.038-3.364c2.407-1.542,2.633,2.158,2.633,2.158s-0.219-2.467,1.757-1.854c1.974,0.613,0.268,3.555,0.268,3.555
					s2.222,0.917,0.949,2.422c-0.965,1.138-2.273,0.068-2.273,0.068s-0.086,2.172-1.656,1.678
					C23.601,80.042,23.273,78.95,23.276,78.312z"/>
				<path fill="#FFFFFF" d="M22.133,81.078c0,0,1.924,3.194,3.554,0.753C25.687,81.831,24.391,83.104,22.133,81.078z"/>
				<path fill="#FFFFFF" d="M30.359,76.608c0,0,1.699,3.316-1.232,3.417C29.127,80.026,30.89,79.59,30.359,76.608z"/>
				<path fill="#FFFFFF" d="M25.89,70.469c0,0,2.473-2.79,3.633-0.095C29.522,70.375,28.477,68.89,25.89,70.469z"/>
				<path fill="#FFFFFF" d="M19.45,71.251c0,0,1.377-4.457,4.09-1.985C23.541,69.266,21.583,68.117,19.45,71.251z"/>
				<path fill="#FFFFFF" d="M16.569,76.239c0,0-0.333-3.123,2-2.317C18.569,73.921,17.053,73.731,16.569,76.239z"/>
			</g>
			<g>
				<path fill="#F0CC91" d="M36.317,78.101c0,0,3.169,5.387-0.027,6.396c-2.201,0.694-2.55-2.878-2.55-2.878
					s0.655,4.897-3.848,3.849c-4.504-1.048-0.479-5.489-0.479-5.489s-2.61,3.039-4.129,0.06c-1.524-2.979,3.812-4.326,3.812-4.326
					s-1.452-3.606,1.729-3.832c2.409-0.173,2.647,2.55,2.647,2.55s2.614-2.351,3.812,0.02
					C37.954,75.763,37.059,77.379,36.317,78.101z"/>
				<path fill="#F0B563" d="M34.575,77.475c0,0,1.732,2.948-0.016,3.497c-1.2,0.379-1.391-1.572-1.391-1.572
					s0.358,2.678-2.105,2.105c-2.463-0.574-0.262-3.001-0.262-3.001s-1.425,1.661-2.258,0.032c-0.832-1.628,2.086-2.365,2.086-2.365
					s-0.794-1.971,0.943-2.094c1.321-0.092,1.447,1.396,1.447,1.396s1.426-1.286,2.085,0.012
					C35.469,76.199,34.983,77.083,34.575,77.475z"/>
				<path fill="#FFFFFF" d="M37.028,76.49c0,0,0.836-3.189-1.714-2.712C35.314,73.778,36.919,73.812,37.028,76.49z"/>
				<path fill="#FFFFFF" d="M29.125,74.045c0,0,1.047-3.124,2.918-1.332C32.042,72.713,30.685,71.868,29.125,74.045z"/>
				<path fill="#FFFFFF" d="M27.996,80.665c0,0-3.291,0.156-2.3-2.241C25.696,78.424,25.4,80.003,27.996,80.665z"/>
				<path fill="#FFFFFF" d="M32.471,84.256c0,0-3.672,1.882-3.781-1.363C28.689,82.893,29.169,84.844,32.471,84.256z"/>
				<path fill="#FFFFFF" d="M37.403,83c0,0-1.766,2.14-2.699,0.165C34.704,83.166,35.52,84.242,37.403,83z"/>
			</g>
			<g>
				<path fill="#FFF6DE" d="M22.322,78.28c0,0,6.878,3.283,4.339,6.484c-1.752,2.205-4.541-1.17-4.541-1.17s4.001,4.503-1.266,6.517
					c-5.27,2.014-4.231-5.222-4.231-5.222s-0.562,4.854-4.134,2.878c-3.57-1.971,0.905-6.976,0.905-6.976s-3.927-2.655-0.869-5.054
					c2.32-1.817,4.419,0.772,4.419,0.772s1.039-4.161,3.868-2.584C22.384,74.801,22.584,77.043,22.322,78.28z"/>
				<path fill="#F0CC91" d="M20.136,78.836c0,0,3.764,1.798,2.371,3.545c-0.958,1.204-2.479-0.64-2.479-0.64
					s2.188,2.462-0.692,3.562c-2.882,1.104-2.311-2.854-2.311-2.854s-0.309,2.653-2.265,1.573c-1.949-1.076,0.497-3.812,0.497-3.812
					s-2.145-1.452-0.474-2.764c1.27-0.99,2.417,0.425,2.417,0.425s0.563-2.274,2.115-1.412
					C20.171,76.937,20.281,78.161,20.136,78.836z"/>
				<path fill="#FFFFFF" d="M21.944,76.165c0,0-1.33-3.793-3.584-1.573C18.36,74.591,20.006,73.533,21.944,76.165z"/>
				<path fill="#FFFFFF" d="M12.287,79.087c0,0-1.074-3.873,2.042-3.338C14.328,75.75,12.376,75.821,12.287,79.087z"/>
				<path fill="#FFFFFF" d="M15.662,86.55c0,0-3.222,2.404-3.856-0.695C11.806,85.855,12.585,87.653,15.662,86.55z"/>
				<path fill="#FFFFFF" d="M22.635,87.128c0,0-2.426,4.407-4.752,1.201C17.883,88.33,19.698,89.973,22.635,87.128z"/>
				<path fill="#FFFFFF" d="M26.768,82.491c0,0-0.328,3.371-2.619,2.009C24.149,84.5,25.71,85.033,26.768,82.491z"/>
			</g>
			<g>
				<path fill="#FFF6DE" d="M20.225,88.624c0,0-1.723-8.072,2.699-8.002c3.051,0.047,1.996,4.668,1.996,4.668
					s1.222-6.408,6.428-3.215c5.208,3.193-1.69,7.078-1.69,7.078s4.54-2.719,5.202,1.649c0.662,4.365-6.583,3.828-6.583,3.828
					s0.311,5.124-3.768,4.081c-3.091-0.79-2.252-4.302-2.252-4.302s-4.259,1.854-4.772-1.615
					C17.2,90.869,18.991,89.216,20.225,88.624z"/>
				<path fill="#F0CC91" d="M22.144,90.132c0,0-0.94-4.414,1.478-4.374c1.667,0.025,1.089,2.55,1.089,2.55s0.667-3.503,3.514-1.756
					c2.847,1.745-0.924,3.868-0.924,3.868s2.48-1.488,2.845,0.902c0.362,2.387-3.6,2.093-3.6,2.093s0.171,2.799-2.059,2.231
					c-1.69-0.437-1.23-2.352-1.23-2.352s-2.327,1.014-2.608-0.886C20.494,91.358,21.473,90.455,22.144,90.132z"/>
				<path fill="#FFFFFF" d="M18.657,90.343c0,0-2.376,3.649,1.02,4.118C19.676,94.461,17.679,93.747,18.657,90.343z"/>
				<path fill="#FFFFFF" d="M27.544,96.706c0,0-2.617,3.477-4.215,0.451C23.329,97.157,24.682,98.786,27.544,96.706z"/>
				<path fill="#FFFFFF" d="M31.719,88.882c0,0,4.192,1.177,1.951,3.768C33.669,92.65,34.698,90.795,31.719,88.882z"/>
				<path fill="#FFFFFF" d="M27.614,82.516c0,0,5.385-0.827,4.17,3.285C31.784,85.801,31.995,83.157,27.614,82.516z"/>
				<path fill="#FFFFFF" d="M20.905,82.029c0,0,3.109-1.943,3.453,0.921C24.358,82.95,23.787,81.258,20.905,82.029z"/>
			</g>
			<g>
				<path fill="#FFF6DE" d="M27.25,65.893c0,0-1.47-6.891,2.304-6.83c2.604,0.042,1.704,3.985,1.704,3.985s1.043-5.471,5.487-2.745
					c4.445,2.726-1.443,6.041-1.443,6.041s3.875-2.32,4.439,1.408c0.566,3.727-5.619,3.267-5.619,3.267s0.266,4.373-3.216,3.484
					c-2.64-0.676-1.923-3.673-1.923-3.673s-3.634,1.583-4.072-1.379C24.666,67.809,26.196,66.398,27.25,65.893z"/>
				<path fill="#F0CC91" d="M28.887,67.181c0,0-0.801-3.768,1.262-3.733c1.423,0.021,0.93,2.176,0.93,2.176s0.57-2.99,2.999-1.499
					c2.432,1.491-0.788,3.303-0.788,3.303s2.117-1.27,2.427,0.769c0.311,2.038-3.072,1.787-3.072,1.787s0.145,2.39-1.757,1.905
					c-1.443-0.372-1.051-2.009-1.051-2.009s-1.985,0.866-2.226-0.755C27.479,68.227,28.315,67.457,28.887,67.181z"/>
				<path fill="#FFFFFF" d="M25.911,67.36c0,0-2.029,3.115,0.871,3.517C26.781,70.876,25.077,70.266,25.911,67.36z"/>
				<path fill="#FFFFFF" d="M33.497,72.792c0,0-2.233,2.968-3.599,0.385C29.898,73.177,31.053,74.568,33.497,72.792z"/>
				<path fill="#FFFFFF" d="M37.059,66.114c0,0,3.58,1.004,1.666,3.216C38.725,69.33,39.603,67.748,37.059,66.114z"/>
				<path fill="#FFFFFF" d="M33.557,60.679c0,0,4.596-0.706,3.559,2.804C37.116,63.483,37.297,61.227,33.557,60.679z"/>
				<path fill="#FFFFFF" d="M27.83,60.263c0,0,2.654-1.658,2.947,0.787C30.777,61.05,30.29,59.606,27.83,60.263z"/>
			</g>
			<g>
				<path fill="#FFF6DE" d="M55.902,84.614c0,0-1.116,7.542-4.921,6.053c-2.623-1.027-0.219-4.683-0.219-4.683
					s-3.125,5.149-6.601,0.705c-3.474-4.446,3.747-5.578,3.747-5.578s-4.804,0.888-3.965-3.106c0.835-3.991,6.932-1.187,6.932-1.187
					s1.385-4.533,4.576-2.313c2.42,1.682,0.561,4.449,0.561,4.449s4.281-0.23,3.606,2.939C59.245,83.651,57.161,84.5,55.902,84.614z
					"/>
				<path fill="#F0CC91" d="M54.727,82.688c0,0-0.611,4.125-2.691,3.309c-1.432-0.561-0.117-2.558-0.117-2.558
					s-1.71,2.815-3.609,0.384c-1.898-2.429,2.049-3.048,2.049-3.048s-2.627,0.486-2.169-1.699c0.458-2.184,3.792-0.65,3.792-0.65
					s0.756-2.477,2.5-1.265c1.322,0.924,0.305,2.433,0.305,2.433s2.342-0.126,1.971,1.608
					C56.553,82.163,55.415,82.627,54.727,82.688z"/>
				<path fill="#FFFFFF" d="M57.811,83.632c0,0,3.236-2.388,0.451-3.891C58.262,79.742,59.757,81.005,57.811,83.632z"/>
				<path fill="#FFFFFF" d="M52.18,75.258c0,0,3.385-2.164,3.791,0.972C55.971,76.23,55.327,74.384,52.18,75.258z"/>
				<path fill="#FFFFFF" d="M46.041,80.679c0,0-3.247-2.372-0.471-3.889C45.57,76.791,44.081,78.063,46.041,80.679z"/>
				<path fill="#FFFFFF" d="M47.538,87.513c0,0-4.928-1.023-2.547-4.188C44.991,83.325,43.954,85.543,47.538,87.513z"/>
				<path fill="#FFFFFF" d="M53.184,90.101c0,0-3.318,0.676-2.691-1.913C50.493,88.188,50.442,89.838,53.184,90.101z"/>
			</g>
			<g>
				<path fill="#FFF6DE" d="M45.808,70.371c0,0,8.499,2.231,6.315,6.401c-1.508,2.877-5.395-0.34-5.395-0.34
					s5.506,4.232-0.023,7.651c-5.53,3.418-5.918-4.997-5.918-4.997s0.41,5.617-4.058,4.152c-4.469-1.461-0.484-8.092-0.484-8.092
					s-5.021-2.157-2.075-5.535c2.232-2.559,5.167-0.079,5.167-0.079s0.277-4.936,3.82-3.763
					C45.126,66.419,45.838,68.915,45.808,70.371z"/>
				<path fill="#F0CC91" d="M43.456,71.475c0,0,4.646,1.22,3.449,3.499c-0.822,1.57-2.944-0.187-2.944-0.187
					s3.009,2.314-0.015,4.183c-3.023,1.87-3.232-2.731-3.232-2.731s0.224,3.071-2.223,2.271c-2.441-0.798-0.264-4.426-0.264-4.426
					s-2.742-1.178-1.134-3.024c1.224-1.397,2.826-0.042,2.826-0.042s0.146-2.697,2.09-2.056
					C43.083,69.317,43.471,70.679,43.456,71.475z"/>
				<path fill="#FFFFFF" d="M44.926,68.06c0,0-2.328-4.008-4.4-1.007C40.526,67.053,42.163,65.5,44.926,68.06z"/>
				<path fill="#FFFFFF" d="M34.623,73.456c0,0-2.052-4.151,1.59-4.221C36.212,69.235,34.017,69.739,34.623,73.456z"/>
				<path fill="#FFFFFF" d="M40.057,81.174c0,0-3.128,3.42-4.517,0.048C35.541,81.222,36.813,83.088,40.057,81.174z"/>
				<path fill="#FFFFFF" d="M48.077,80.322c0,0-1.795,5.515-5.121,2.388C42.956,82.709,45.366,84.178,48.077,80.322z"/>
				<path fill="#FFFFFF" d="M51.752,74.179c0,0,0.357,3.885-2.53,2.839C49.222,77.019,51.104,77.286,51.752,74.179z"/>
			</g>
			<g>
				<path fill="#F0CC91" d="M62.001,86.352c0,0,3.169,5.385-0.024,6.396c-2.203,0.693-2.553-2.877-2.553-2.877
					s0.655,4.896-3.848,3.849c-4.503-1.049-0.479-5.489-0.479-5.489s-2.611,3.039-4.129,0.06c-1.522-2.979,3.812-4.326,3.812-4.326
					s-1.451-3.606,1.729-3.832c2.41-0.172,2.648,2.551,2.648,2.551s2.615-2.35,3.812,0.019
					C63.639,84.016,62.745,85.631,62.001,86.352z"/>
				<path fill="#F0B563" d="M60.26,85.726c0,0,1.732,2.948-0.016,3.497c-1.201,0.379-1.392-1.571-1.392-1.571
					s0.358,2.677-2.104,2.104c-2.463-0.574-0.262-3.001-0.262-3.001s-1.425,1.663-2.26,0.032c-0.832-1.628,2.088-2.365,2.088-2.365
					s-0.795-1.971,0.943-2.096c1.32-0.089,1.446,1.397,1.446,1.397s1.427-1.285,2.085,0.011
					C61.155,84.452,60.667,85.334,60.26,85.726z"/>
				<path fill="#FFFFFF" d="M62.713,84.743c0,0,0.836-3.189-1.713-2.714C61,82.029,62.604,82.064,62.713,84.743z"/>
				<path fill="#FFFFFF" d="M54.811,82.298c0,0,1.045-3.123,2.918-1.333C57.729,80.965,56.37,80.12,54.811,82.298z"/>
				<path fill="#FFFFFF" d="M53.681,88.917c0,0-3.292,0.156-2.302-2.241C51.379,86.676,51.086,88.254,53.681,88.917z"/>
				<path fill="#FFFFFF" d="M58.156,92.508c0,0-3.673,1.881-3.78-1.363C54.375,91.145,54.854,93.095,58.156,92.508z"/>
				<path fill="#FFFFFF" d="M63.089,91.252c0,0-1.767,2.14-2.7,0.165C60.389,91.417,61.205,92.495,63.089,91.252z"/>
			</g>
			<g>
				<path fill="#FFF6DE" d="M53.38,88.064c0,0,7.753,2.835,5.341,6.542c-1.664,2.558-5.016-0.792-5.016-0.792
					s4.777,4.442-0.695,7.152c-5.477,2.711-5.096-5.196-5.096-5.196s-0.111,5.291-4.163,3.527c-4.05-1.762,0.262-7.609,0.262-7.609
					s-4.503-2.464-1.452-5.363c2.316-2.197,4.842,0.382,4.842,0.382s0.695-4.592,3.906-3.181
					C53.09,84.308,53.537,86.706,53.38,88.064z"/>
				<path fill="#F0CC91" d="M51.081,88.887c0,0,4.24,1.553,2.92,3.578c-0.91,1.399-2.738-0.434-2.738-0.434s2.609,2.429-0.383,3.909
					c-2.992,1.485-2.785-2.84-2.785-2.84s-0.059,2.891-2.275,1.93c-2.214-0.964,0.143-4.163,0.143-4.163s-2.463-1.343-0.795-2.93
					c1.269-1.197,2.648,0.21,2.648,0.21s0.375-2.51,2.135-1.737C50.924,86.837,51.166,88.146,51.081,88.887z"/>
				<path fill="#FFFFFF" d="M52.76,85.822c0,0-1.826-3.953-4.031-1.328C48.729,84.495,50.399,83.185,52.76,85.822z"/>
				<path fill="#FFFFFF" d="M42.642,89.963c0,0-1.55-4.066,1.862-3.81C44.504,86.153,42.405,86.433,42.642,89.963z"/>
				<path fill="#FFFFFF" d="M47.047,97.659c0,0-3.226,2.923-4.227-0.352C42.821,97.307,43.842,99.164,47.047,97.659z"/>
				<path fill="#FFFFFF" d="M54.623,97.57c0,0-2.165,4.998-5.001,1.783C49.622,99.354,51.749,100.938,54.623,97.57z"/>
				<path fill="#FFFFFF" d="M58.604,92.148c0,0-0.009,3.667-2.618,2.435C55.986,94.583,57.723,94.998,58.604,92.148z"/>
			</g>
			<g>
				<path fill="#FFF6DE" d="M79.433,89.302c0,0,7.788,7.252,3.066,10.446c-3.258,2.206-5.559-3.451-5.559-3.451
					s3.451,7.668-4.407,8.147c-7.859,0.479-3.451-8.72-3.451-8.72s-2.779,6.228-6.709,2.107c-3.93-4.122,4.121-8.913,4.121-8.913
					s-4.121-5.175,0.957-7.091c3.85-1.454,5.56,2.875,5.56,2.875s3.121-5.106,6.23-1.822C80.967,84.701,80.295,87.768,79.433,89.302
					z"/>
				<path fill="#F0CC91" d="M76.29,89.13c0,0,4.256,3.966,1.676,5.71c-1.781,1.206-3.039-1.886-3.039-1.886s1.888,4.192-2.408,4.453
					c-4.297,0.261-1.887-4.767-1.887-4.767s-1.518,3.406-3.666,1.153c-2.148-2.254,2.252-4.872,2.252-4.872s-2.252-2.83,0.522-3.878
					c2.104-0.793,3.04,1.573,3.04,1.573s1.705-2.791,3.404-0.994C77.127,86.617,76.76,88.293,76.29,89.13z"/>
				<path fill="#FFFFFF" d="M79.817,86.331c0,0-0.191-5.608-4.121-3.594C75.696,82.737,78.331,82.018,79.817,86.331z"/>
				<path fill="#FFFFFF" d="M65.729,86.188c0,0,0.191-5.607,4.119-3.594C69.848,82.593,67.213,81.875,65.729,86.188z"/>
				<path fill="#FFFFFF" d="M67.109,97.532c0,0-5.296,1.857-4.846-2.535C62.263,94.998,62.549,97.713,67.109,97.532z"/>
				<path fill="#FFFFFF" d="M76.15,101.218c0,0-5.072,4.853-6.831-0.384C69.319,100.833,71.051,103.78,76.15,101.218z"/>
				<path fill="#FFFFFF" d="M83.592,96.77c0,0-1.846,4.35-4.328,1.58C79.264,98.35,81.12,99.712,83.592,96.77z"/>
			</g>
			<g>
				<path fill="#FFF6DE" d="M58.563,87.447c0,0,0.838-7.496,4.65-6.158c2.631,0.922,0.383,4.623,0.383,4.623
					s2.908-5.205,6.502-0.934c3.592,4.271-3.508,5.648-3.508,5.648s4.721-1.051,4.033,2.929c-0.685,3.976-6.812,1.42-6.812,1.42
					s-1.205,4.532-4.442,2.451c-2.452-1.578-0.71-4.378-0.71-4.378s-4.226,0.38-3.67-2.778
					C55.295,88.52,57.326,87.603,58.563,87.447z"/>
				<path fill="#F0CC91" d="M59.794,89.308c0,0,0.458-4.096,2.54-3.365c1.44,0.504,0.211,2.526,0.211,2.526s1.591-2.845,3.555-0.51
					c1.963,2.334-1.918,3.087-1.918,3.087s2.58-0.574,2.204,1.602c-0.372,2.173-3.722,0.776-3.722,0.776s-0.66,2.476-2.43,1.339
					c-1.34-0.863-0.389-2.394-0.389-2.394s-2.309,0.208-2.006-1.52C58.008,89.895,59.119,89.395,59.794,89.308z"/>
				<path fill="#FFFFFF" d="M56.709,88.484c0,0-3.11,2.479-0.305,3.866C56.405,92.35,54.883,91.154,56.709,88.484z"/>
				<path fill="#FFFFFF" d="M62.581,96.564c0,0-3.271,2.26-3.787-0.826C58.793,95.738,59.499,97.54,62.581,96.564z"/>
				<path fill="#FFFFFF" d="M68.456,90.985c0,0,3.293,2.229,0.603,3.83C69.058,94.815,70.485,93.503,68.456,90.985z"/>
				<path fill="#FFFFFF" d="M66.733,84.282c0,0,4.904,0.838,2.666,4.052C69.399,88.333,70.346,86.103,66.733,84.282z"/>
				<path fill="#FFFFFF" d="M61.057,81.925c0,0,3.256-0.788,2.729,1.795C63.786,83.72,63.775,82.09,61.057,81.925z"/>
			</g>
			<g>
				<path fill="#FFF6DE" d="M67.369,84.622c0,0-7.81-1.923-5.867-5.771c1.341-2.654,4.94,0.235,4.94,0.235s-5.099-3.795-0.085-7.003
					c5.016-3.207,5.487,4.493,5.487,4.493s-0.455-5.137,3.656-3.859c4.109,1.275,0.555,7.399,0.555,7.399s4.626,1.906,1.979,5.039
					c-2.012,2.375-4.73,0.144-4.73,0.144s-0.184,4.522-3.445,3.496C68.048,88.228,67.363,85.954,67.369,84.622z"/>
				<path fill="#F0CC91" d="M69.508,83.58c0,0-4.271-1.052-3.207-3.154C67.034,78.974,69,80.553,69,80.553s-2.787-2.073-0.045-3.827
					c2.74-1.753,2.998,2.455,2.998,2.455s-0.249-2.807,2-2.108c2.246,0.697,0.305,4.045,0.305,4.045s2.525,1.042,1.078,2.753
					c-1.098,1.297-2.586,0.08-2.586,0.08s-0.1,2.471-1.884,1.909C69.879,85.55,69.504,84.307,69.508,83.58z"/>
				<path fill="#FFFFFF" d="M68.208,86.728c0,0,2.189,3.635,4.045,0.857C72.252,87.585,70.776,89.03,68.208,86.728z"/>
				<path fill="#FFFFFF" d="M77.567,81.643c0,0,1.934,3.771-1.398,3.887C76.168,85.53,78.171,85.037,77.567,81.643z"/>
				<path fill="#FFFFFF" d="M72.485,74.657c0,0,2.812-3.175,4.131-0.11C76.616,74.547,75.426,72.859,72.485,74.657z"/>
				<path fill="#FFFFFF" d="M65.156,75.546c0,0,1.565-5.071,4.653-2.259C69.809,73.287,67.581,71.977,65.156,75.546z"/>
				<path fill="#FFFFFF" d="M61.875,81.221c0,0-0.381-3.553,2.277-2.636C64.153,78.585,62.427,78.368,61.875,81.221z"/>
			</g>
		</g>
	</g>
</g>
</svg>
