<?xml version="1.0" encoding="utf-8"?>
<!-- Generator: Adobe Illustrator 16.0.0, SVG Export Plug-In . SVG Version: 6.00 Build 0)  -->
<!DOCTYPE svg PUBLIC "-//W3C//DTD SVG 1.1//EN" "http://www.w3.org/Graphics/SVG/1.1/DTD/svg11.dtd">
<svg version="1.1" xmlns="http://www.w3.org/2000/svg" xmlns:xlink="http://www.w3.org/1999/xlink" x="0px" y="0px"
	 width="57.439px" height="57.439px" viewBox="0 0 57.439 57.439" enable-background="new 0 0 57.439 57.439" xml:space="preserve">
<g>
	<g>
		<path fill="#E75116" d="M28.672,54.608c-7.214,0-13.084-12.249-13.084-27.304S21.458,0,28.672,0
			c7.215,0,13.086,12.249,13.086,27.304S35.888,54.608,28.672,54.608z M28.672,1.135c-6.589,0-11.951,11.739-11.951,26.169
			s5.362,26.169,11.951,26.169c6.59,0,11.952-11.738,11.952-26.169S35.263,1.135,28.672,1.135z"/>
	</g>
	<g>
		<path fill="#D9B444" d="M42.734,45.103c-5.999,0-13.514-2.36-20.618-6.477C8.867,30.954,1.369,19.967,5.047,13.619
			c1.537-2.653,4.934-4.114,9.564-4.114c5.999,0,13.515,2.36,20.62,6.476c6.25,3.622,11.473,8.173,14.702,12.816
			c3.317,4.768,4.158,9.099,2.365,12.193C50.762,43.643,47.365,45.103,42.734,45.103z M14.612,10.638
			c-4.21,0-7.259,1.261-8.584,3.551c-3.303,5.701,4.168,16.227,16.656,23.458c6.938,4.02,14.245,6.322,20.05,6.322
			c4.21,0,7.259-1.259,8.584-3.547c1.56-2.692,0.737-6.591-2.314-10.979c-3.138-4.509-8.23-8.942-14.339-12.48
			C27.726,12.945,20.417,10.638,14.612,10.638z"/>
	</g>
	<g>
		<path fill="#70C2C3" d="M15.037,44.256c-5.425,0-9.253-1.681-10.78-4.733c-1.601-3.198-0.499-7.469,3.103-12.024
			c3.51-4.44,8.998-8.664,15.459-11.896c6.767-3.386,13.688-5.25,19.491-5.25c5.424,0,9.254,1.684,10.781,4.735
			c3.228,6.452-5.098,17.183-18.562,23.919C27.763,42.394,20.84,44.256,15.037,44.256z M42.31,11.486
			c-5.548,0-12.468,1.87-18.983,5.132c-6.314,3.159-11.668,7.273-15.076,11.584c-3.313,4.191-4.372,8.031-2.979,10.815
			c1.325,2.649,4.794,4.107,9.767,4.107c5.549,0,12.469-1.87,18.986-5.132c12.903-6.456,21.002-16.503,18.054-22.398
			C50.751,12.945,47.282,11.486,42.31,11.486z"/>
	</g>
	<circle fill="#EB6D3F" cx="51.3" cy="13.417" r="4.251"/>
	<circle fill="#C2BACE" cx="28.625" cy="27.02" r="8.786"/>
	<circle fill="#96D0D3" cx="6.141" cy="13.417" r="4.252"/>
	<path fill="#70C2C3" d="M6.14,9.166c2.349,0,4.252,1.901,4.252,4.251c0,2.347-1.904,4.251-4.252,4.251"/>
	<g>
		<circle fill="#E7D14F" cx="28.721" cy="53.189" r="4.251"/>
		<path fill="#D9B444" d="M28.721,48.938c2.348,0,4.251,1.902,4.251,4.251c0,2.35-1.903,4.251-4.251,4.251"/>
	</g>
</g>
</svg>
