<?xml version="1.0" encoding="utf-8"?>
<!-- Generator: Adobe Illustrator 16.0.0, SVG Export Plug-In . SVG Version: 6.00 Build 0)  -->
<!DOCTYPE svg PUBLIC "-//W3C//DTD SVG 1.1//EN" "http://www.w3.org/Graphics/SVG/1.1/DTD/svg11.dtd">
<svg version="1.1" xmlns="http://www.w3.org/2000/svg" xmlns:xlink="http://www.w3.org/1999/xlink" x="0px" y="0px"
	 width="816.35px" height="816.35px" viewBox="0 0 816.35 816.35" enable-background="new 0 0 816.35 816.35" xml:space="preserve">
<g>
	<path fill="#E33326" d="M660.494,440.949c18.562-16.97,33.364-38.17,42.396-61.665c0.166-0.437,0.339-0.859,0.499-1.296
		c1.323-3.539,2.514-7.113,3.566-10.722c15.522-53.01-1.447-109.234-42.61-145.826c-37.035-32.928-93.678-35.341-140.423-18.875
		c-46.725,16.467-85.9,48.782-124.009,80.48c-115.614,96.151-203.169,191.37-371.79,125.931
		c-47.126-18.285-24.215,27.477-8.623,47.174c58.111,73.551,135.277,98.569,229.773,107.075
		C395.902,576.4,551.911,540.369,660.494,440.949z"/>
	<g>
		<path fill="#77AA42" d="M702.267,269.377l-9.98-17.503l102.301-65.211c6.975-3.986,15.854-1.559,19.851,5.419
			c3.983,6.986,1.538,15.861-5.43,19.848L702.267,269.377z"/>
		<path fill="#557837" d="M755.509,321.996c12.939-1.773,25.309-8.089,34.417-18.853l-67.31-56.979l-14.829-86.946
			c-13.895,2.373-25.627,9.811-33.731,20.065l-15.508-27.165c-26.306,15.01-35.462,48.505-20.446,74.826l58.077,101.757
			c15.009,26.313,48.519,35.477,74.825,20.467L755.509,321.996z"/>
	</g>
	<path fill="#B52525" d="M674.333,493.624c0,94.231-76.383,170.608-170.602,170.608c-94.219,0-170.609-76.377-170.609-170.608
		c0-94.212,76.39-170.595,170.609-170.595C597.949,323.028,674.333,399.411,674.333,493.624z"/>
	<path fill="#E88824" d="M647.237,493.624c0,79.265-64.248,143.506-143.506,143.506c-79.257,0-143.506-64.241-143.506-143.506
		c0-79.258,64.249-143.506,143.506-143.506C582.989,350.118,647.237,414.365,647.237,493.624z"/>
	<path fill="#FCB713" d="M552.402,493.637c0,26.875-21.783,48.671-48.671,48.671s-48.678-21.797-48.678-48.671
		c0-26.895,21.791-48.685,48.678-48.685S552.402,466.742,552.402,493.637z"/>
	<path fill="#FFD272" d="M523.367,403.104c0,17.392-8.797,31.501-19.636,31.501c-10.854,0-19.65-14.109-19.65-31.501
		c0-17.392,8.796-31.494,19.65-31.494C514.57,371.609,523.367,385.711,523.367,403.104z"/>
	<path fill="#FFD272" d="M466.405,408.852c10.223,14.075,11.4,30.649,2.632,37.021c-8.783,6.373-24.186,0.146-34.409-13.928
		c-10.224-14.075-11.401-30.656-2.626-37.042C440.785,388.537,456.182,394.778,466.405,408.852z"/>
	<path fill="#FFD272" d="M423.705,446.975c16.54,5.382,27.234,18.099,23.882,28.418c-3.353,10.32-19.477,14.331-36.031,8.956
		c-16.54-5.382-27.234-18.105-23.875-28.425C391.034,445.61,407.158,441.6,423.705,446.975z"/>
	<path fill="#FFD272" d="M411.563,502.918c16.554-5.361,32.665-1.364,36.031,8.956c3.352,10.321-7.342,23.043-23.889,28.418
		s-32.671,1.364-36.024-8.956C384.329,521.017,395.023,508.3,411.563,502.918z"/>
	<path fill="#FFD272" d="M434.634,555.323c10.23-14.067,25.62-20.301,34.41-13.937c8.769,6.373,7.605,22.955-2.632,37.028
		c-10.223,14.075-25.627,20.315-34.41,13.937C423.233,585.964,424.411,569.39,434.634,555.323z"/>
	<path fill="#FFD272" d="M484.095,584.157c0.006-17.398,8.789-31.487,19.636-31.501c10.854,0,19.65,14.103,19.643,31.501
		c0,17.399-8.789,31.493-19.643,31.493C492.884,615.65,484.095,601.556,484.095,584.157z"/>
	<path fill="#FFD272" d="M541.057,578.408c-10.23-14.081-11.393-30.643-2.632-37.027c8.783-6.373,24.187-0.139,34.41,13.942
		c10.223,14.067,11.4,30.642,2.618,37.028C566.677,598.716,551.28,592.482,541.057,578.408z"/>
	<path fill="#FFD272" d="M583.757,540.279c-16.547-5.382-27.227-18.092-23.888-28.412c3.352-10.313,19.476-14.33,36.037-8.949
		c16.54,5.375,27.234,18.099,23.875,28.412C616.429,541.65,600.297,545.661,583.757,540.279z"/>
	<path fill="#FFD272" d="M595.893,484.328c-16.547,5.375-32.657,1.372-36.023-8.936c-3.353-10.327,7.334-23.05,23.888-28.425
		c16.54-5.375,32.672-1.371,36.024,8.949C623.126,466.236,612.446,478.96,595.893,484.328z"/>
	<path fill="#FFD272" d="M572.828,431.938c-10.23,14.067-25.62,20.294-34.403,13.942c-8.775-6.379-7.612-22.953,2.632-37.035
		c10.224-14.074,25.621-20.314,34.396-13.943C584.221,401.289,583.058,417.863,572.828,431.938z"/>
</g>
</svg>
