<?xml version="1.0" encoding="utf-8"?>
<!-- Generator: Adobe Illustrator 16.0.0, SVG Export Plug-In . SVG Version: 6.00 Build 0)  -->
<!DOCTYPE svg PUBLIC "-//W3C//DTD SVG 1.1//EN" "http://www.w3.org/Graphics/SVG/1.1/DTD/svg11.dtd">
<svg version="1.1" xmlns="http://www.w3.org/2000/svg" xmlns:xlink="http://www.w3.org/1999/xlink" x="0px" y="0px"
	 width="111.65px" height="111.65px" viewBox="0 0 111.65 111.65" enable-background="new 0 0 111.65 111.65" xml:space="preserve">
<g>
	<g>
		<path fill="#BE1931" d="M106.624,52.68c2.363-13.804-6.894-26.913-20.74-29.284c-9.812-1.681-19.259,2.541-24.772,10.09
			c-2.677-8.951-10.167-16.072-19.996-17.755c-13.836-2.369-26.923,6.915-29.286,20.718c-0.525,3.071-0.447,6.071,0.085,8.952
			c1.463,26.932,38.443,50.89,38.443,50.89s42.87-10.284,53.21-35.195l0,0C105.026,58.554,106.098,55.751,106.624,52.68z"/>
		<path fill="#BE1931" d="M102.596,59.343c1.462-2.538,2.532-5.342,3.059-8.413c0.948-5.535,0.024-10.955-2.312-15.619
			c-3.675-6.093-9.876-10.617-17.46-11.916c-9.812-1.681-19.259,2.541-24.772,10.09c-0.21-0.703-0.453-1.395-0.723-2.073
			c-0.081,0.107-0.164,0.215-0.245,0.324c-0.427-1.43-0.979-2.812-1.642-4.133c-3.669-6.076-9.837-10.581-17.388-11.874
			c-13.836-2.369-26.923,6.915-29.286,20.718c-0.526,3.071-0.447,6.071,0.085,8.952c0.306,5.649,2.18,11.168,4.944,16.361
			c10.807,18.703,32.532,32.78,32.532,32.78S92.257,84.255,102.596,59.343z"/>
	</g>
	<path fill="#F4F1E2" d="M88.11,68.129l-1.354-23.62c-0.036-0.66-0.516-1.183-1.189-1.298c-0.677-0.115-1.316,0.207-1.589,0.805
		L70.791,72.833l-1.539-19.76c-0.05-0.651-0.555-1.186-1.228-1.301c-0.528-0.09-1.035,0.099-1.356,0.507l-8.431,10.735
		l-11.094-1.899L42.083,28.04c-0.099-0.649-0.567-1.139-1.195-1.247c-0.63-0.107-1.24,0.193-1.561,0.767L22.941,56.971L0.493,53.127
		L0,56.006l23.466,4.019c0.626,0.106,1.223-0.194,1.553-0.786l14.816-26.595l4.576,29.905c0.101,0.662,0.572,1.159,1.202,1.268
		l12.989,2.224c0.521,0.09,1.062-0.111,1.376-0.513l6.651-8.473l1.688,21.648c0.051,0.656,0.535,1.175,1.203,1.289
		c0.669,0.115,1.303-0.209,1.576-0.807l13.086-28.594l1.082,18.904c0.034,0.638,0.555,1.205,1.208,1.317l24.686,4.227l0.493-2.879
		L88.11,68.129z"/>
</g>
</svg>
