<?xml version="1.0" encoding="utf-8"?>
<!-- Generator: Adobe Illustrator 16.0.0, SVG Export Plug-In . SVG Version: 6.00 Build 0)  -->
<!DOCTYPE svg PUBLIC "-//W3C//DTD SVG 1.1//EN" "http://www.w3.org/Graphics/SVG/1.1/DTD/svg11.dtd">
<svg version="1.1" id="图层_1" xmlns="http://www.w3.org/2000/svg" xmlns:xlink="http://www.w3.org/1999/xlink" x="0px" y="0px"
	 width="51.448px" height="61.725px" viewBox="0 0 51.448 61.725" enable-background="new 0 0 51.448 61.725" xml:space="preserve">
<g>
	<path fill="#89C8FF" d="M7.261,22.93h25.988c3.377,0,6.114,2.738,6.114,6.115v5.604c0,3.378-2.737,6.115-6.114,6.115
		c0,0,3.567,0-4.076,0s-6.494-7.802-9.042-7.802s-1.149,7.802-8.794,7.802c-2.547,0-4.076,0-4.076,0
		c-3.377,0-6.114-2.737-6.114-6.115v-5.604C1.146,25.668,3.884,22.93,7.261,22.93z"/>
	<path fill="#2A2A2A" d="M7.232,41.911C3.114,41.823,0.131,38.726,0,34.649v-5.604c0.053-4.086,3.198-7.126,7.232-7.261h26.046
		c4.118,0.087,7.101,3.186,7.231,7.261v5.604c-0.014,3.638-2.803,6.808-6.433,7.204l0.001,0.058h-4.924
		c-3.155,0.022-5.646-1.338-7.199-4.085c-0.486-0.86-1.295-3.161-1.818-3.715c-0.084,0.002-0.047-0.008-0.111,0.024
		c0.105,0.05-0.021-0.016,0.045,0.03c-0.98,1.958-1.524,4.177-3.155,5.744c-1.512,1.454-3.509,1.961-5.559,2.001H7.232z
		 M7.29,39.618h4.029c0.633,0.001,1.269-0.055,1.884-0.21c1.478-0.37,2.521-1.346,3.226-2.672c0.901-1.7,1.311-4.806,3.646-4.919
		c0.037-0.002,0.074-0.002,0.111,0c0.539,0.021,1.036,0.221,1.448,0.568c1.014,0.855,1.402,2.433,1.95,3.594
		c1.215,2.575,2.749,3.593,5.605,3.639h4.063c2.795-0.01,4.891-2.222,4.963-4.969v-5.604c-0.01-2.819-2.233-4.898-4.997-4.969H7.29
		c-2.811,0.004-4.923,2.198-4.997,4.969v5.604c-0.01,2.216,1.531,4.224,3.67,4.799c0.443,0.12,0.548,0.112,1.013,0.162L7.29,39.618z
		 M20.075,34.107h0.056c-0.075-0.058-0.038-0.043-0.105-0.059l-0.01,0.018l0.004,0.025L20.075,34.107z"/>
	<path fill="#007DB2" d="M26.639,56.053c-1.408,0.007-2.554-1.128-2.562-2.535s1.127-2.554,2.534-2.562
		c4.893-0.101,11.936-0.257,15.443-4.314c1.993-2.304,2.387-5.491,2.404-8.424V8.022h5.097v30.195
		c0.022,6.123-1.86,11.686-7.454,14.819c-4.453,2.495-9.757,2.904-14.754,3.012L26.639,56.053z"/>
	<path fill="#2A2A2A" d="M44.459,4.967V2.548C44.459,1.141,45.601,0,47.007,0c1.407,0,2.548,1.141,2.548,2.548v2.419H44.459z"/>
	<path fill="#FFBA00" d="M47.007,27.712L47.007,27.712c2.453,0,4.441,1.725,4.441,3.852v7.702c0,2.127-1.988,3.852-4.441,3.852l0,0
		c-2.452,0-4.44-1.725-4.44-3.852v-7.702C42.566,29.437,44.555,27.712,47.007,27.712z"/>
	<path fill="#FFBA00" d="M9.752,19.849h20.496c1.423,0,2.576,1.154,2.576,2.576l0,0c0,1.423-1.153,2.576-2.576,2.576H9.752
		c-1.422,0-2.576-1.153-2.576-2.576l0,0C7.176,21.003,8.33,19.849,9.752,19.849z"/>
	<path fill="#FFBA00" d="M20.333,60.228c-3.799,0-6.88-3.08-6.88-6.88c0-3.799,3.081-6.879,6.88-6.879c3.8,0,6.88,3.08,6.88,6.879
		C27.213,57.147,24.133,60.228,20.333,60.228z"/>
	<path fill="#2A2A2A" d="M20.333,61.725c-4.626,0-8.377-3.75-8.377-8.377c0-4.626,3.751-8.376,8.377-8.376s8.377,3.75,8.377,8.376
		C28.71,57.975,24.959,61.725,20.333,61.725z M20.333,58.729c2.972,0,5.382-2.409,5.382-5.382c0-2.972-2.41-5.381-5.382-5.381
		c-2.973,0-5.382,2.409-5.382,5.381C14.951,56.32,17.36,58.729,20.333,58.729z"/>
</g>
</svg>
