<?xml version="1.0" encoding="utf-8"?>
<!-- Generator: Adobe Illustrator 16.0.0, SVG Export Plug-In . SVG Version: 6.00 Build 0)  -->
<!DOCTYPE svg PUBLIC "-//W3C//DTD SVG 1.1//EN" "http://www.w3.org/Graphics/SVG/1.1/DTD/svg11.dtd">
<svg version="1.1" xmlns="http://www.w3.org/2000/svg" xmlns:xlink="http://www.w3.org/1999/xlink" x="0px" y="0px"
	 width="61.54px" height="61.54px" viewBox="0 0 61.54 61.54" enable-background="new 0 0 61.54 61.54" xml:space="preserve">
<path fill-rule="evenodd" clip-rule="evenodd" fill="#FF5B40" d="M8.998,15.625l-0.103,0.283c-0.899,2.262-1.311,4.55-1.465,6.736
	l39.929,16.378C71.733,10.817,23.602-19.033,8.998,15.625L8.998,15.625z M7.405,25.704c0.462,6.068,3.65,11.699,8.947,15.375
	L16.3,41.13l11.75,4.808l0.025-0.051c6.351,1.105,12.572-0.669,17.149-4.654L7.405,25.704z"/>
<path fill-rule="evenodd" clip-rule="evenodd" fill="#FFFFFF" d="M17.406,13.62c-0.823,2.005-3.162,2.982-5.193,2.16
	c-2.032-0.823-2.983-3.162-2.16-5.194c0.822-2.031,3.163-2.982,5.194-2.16C17.251,9.274,18.229,11.588,17.406,13.62L17.406,13.62z"
	/>
<path fill-rule="evenodd" clip-rule="evenodd" fill="#DD4F39" d="M38.18,1.51l-11.39,29.079l20.568,8.434
	C61.192,23.004,51.679,6.472,38.18,1.51L38.18,1.51z"/>
<path fill-rule="evenodd" clip-rule="evenodd" fill="#DD4F39" d="M45.225,41.233l-19.463-7.996l-3.96,10.13l6.248,2.571l0.025-0.051
	C34.426,46.993,40.648,45.218,45.225,41.233L45.225,41.233z"/>
<path fill-rule="evenodd" clip-rule="evenodd" fill="#C2700A" d="M21.802,43.342l-5.477-2.263l-5.938,12.495
	c-0.849,2.083-0.361,3.883,1.233,4.525l3.779,1.568L21.802,43.342z"/>
<path fill-rule="evenodd" clip-rule="evenodd" fill="#A3610A" d="M21.802,43.342L15.4,59.668l4.088,1.672
	c1.569,0.643,3.189-0.309,4.037-2.366l4.551-13.061L21.802,43.342z"/>
</svg>
