<?xml version="1.0" encoding="utf-8"?>
<!-- Generator: Adobe Illustrator 16.0.0, SVG Export Plug-In . SVG Version: 6.00 Build 0)  -->
<!DOCTYPE svg PUBLIC "-//W3C//DTD SVG 1.1//EN" "http://www.w3.org/Graphics/SVG/1.1/DTD/svg11.dtd">
<svg version="1.1" xmlns="http://www.w3.org/2000/svg" xmlns:xlink="http://www.w3.org/1999/xlink" x="0px" y="0px"
	 width="155.09px" height="155.09px" viewBox="0 0 155.09 155.09" enable-background="new 0 0 155.09 155.09" xml:space="preserve">
<g>
	<g>
		<g>
			<g>
				<path fill="#619CE2" d="M122.834,130.156c-8.264,0-16.528-3.146-22.818-9.438c-6.096-6.095-9.454-14.199-9.454-22.82
					c0-8.62,3.358-16.724,9.454-22.819c12.582-12.582,33.056-12.583,45.638,0s12.582,33.056,0,45.639
					C139.363,127.01,131.098,130.156,122.834,130.156z M122.834,74.555c-6.234,0-12.096,2.428-16.505,6.837
					c-4.41,4.409-6.838,10.271-6.838,16.506c0,6.236,2.428,12.098,6.838,16.508c4.41,4.408,10.271,6.837,16.505,6.837
					c6.236,0,12.098-2.429,16.508-6.837c4.408-4.41,6.836-10.271,6.836-16.508c0-6.235-2.428-12.097-6.836-16.506
					C134.932,76.983,129.07,74.555,122.834,74.555z"/>
			</g>
		</g>
		<g>
			<g>
				<path fill="#619CE2" d="M32.256,130.156c-8.265,0-16.529-3.146-22.819-9.438c-12.583-12.583-12.583-33.057,0-45.639
					c12.58-12.583,33.056-12.583,45.639,0c12.582,12.583,12.582,33.056,0,45.639C48.785,127.01,40.52,130.156,32.256,130.156z
					 M32.255,74.555c-6.235,0-12.097,2.428-16.506,6.837c-4.409,4.409-6.837,10.271-6.837,16.506c0,6.236,2.428,12.098,6.837,16.508
					c4.409,4.408,10.271,6.837,16.506,6.837c6.236,0,12.098-2.429,16.508-6.837c4.408-4.41,6.837-10.271,6.837-16.508
					c0-6.235-2.429-12.097-6.837-16.506C44.353,76.983,38.492,74.555,32.255,74.555z"/>
			</g>
		</g>
		<g>
			<path fill="#619CE2" d="M71.025,102.364h-38.77c-1.524,0-2.944-0.778-3.765-2.065c-0.819-1.286-0.926-2.901-0.282-4.284
				L46.683,56.36c0.624-1.338,1.869-2.282,3.326-2.52l47.81-7.818c1.701-0.274,3.415,0.449,4.396,1.87
				c0.979,1.421,1.053,3.281,0.188,4.774l-27.515,47.471C74.088,101.515,72.618,102.364,71.025,102.364z M39.26,93.435h29.192
				l21.49-37.078L53.78,62.271L39.26,93.435z"/>
		</g>
		<g>
			<path fill="#619CE2" d="M78.034,116.053c-1.623,0-3.187-0.887-3.977-2.432L40.159,47.389c-1.124-2.195-0.256-4.885,1.939-6.007
				c2.192-1.125,4.884-0.256,6.008,1.94l33.898,66.233c1.124,2.195,0.255,4.885-1.94,6.008
				C79.414,115.895,78.718,116.053,78.034,116.053z"/>
		</g>
		<g>
			<path fill="#619CE2" d="M122.838,102.365c-1.623,0-3.188-0.888-3.977-2.432L87.781,39.207c-0.543-1.06-0.64-2.293-0.269-3.425
				c0.372-1.131,1.18-2.067,2.244-2.6l15.541-7.774c2.206-1.103,4.886-0.21,5.99,1.995c1.104,2.206,0.211,4.887-1.996,5.99
				L97.782,39.15l29.027,56.715c1.123,2.195,0.254,4.885-1.939,6.007C124.217,102.207,123.523,102.365,122.838,102.365z"/>
		</g>
		<g>
			<path fill="#E7DA51" d="M56.888,48.703H31.376c-2.466,0-4.465-1.999-4.465-4.464s1.999-4.464,4.465-4.464h25.512
				c2.465,0,4.464,1.999,4.464,4.464S59.353,48.703,56.888,48.703z"/>
		</g>
	</g>
	<path fill="#FB9B8F" d="M32.255,88.78c-5.028,0-9.119,4.091-9.119,9.119c0,5.029,4.091,9.119,9.119,9.119
		c5.029,0,9.119-4.09,9.119-9.119C41.375,92.871,37.285,88.78,32.255,88.78z"/>
	<path fill="#E7DA51" d="M71.025,88.78c-5.028,0-9.12,4.091-9.12,9.119c0,5.029,4.092,9.119,9.12,9.119s9.119-4.09,9.119-9.119
		C80.144,92.871,76.053,88.78,71.025,88.78z"/>
	<path fill="#FB9B8F" d="M122.77,88.78c-5.027,0-9.119,4.091-9.119,9.119c0,5.029,4.092,9.119,9.119,9.119
		c5.029,0,9.119-4.09,9.119-9.119C131.889,92.871,127.799,88.78,122.77,88.78z"/>
</g>
</svg>
