<?xml version="1.0" encoding="utf-8"?>
<!-- Generator: Adobe Illustrator 16.0.0, SVG Export Plug-In . SVG Version: 6.00 Build 0)  -->
<!DOCTYPE svg PUBLIC "-//W3C//DTD SVG 1.1//EN" "http://www.w3.org/Graphics/SVG/1.1/DTD/svg11.dtd">
<svg version="1.1" xmlns="http://www.w3.org/2000/svg" xmlns:xlink="http://www.w3.org/1999/xlink" x="0px" y="0px"
	 width="547px" height="547px" viewBox="0 0 547 547" enable-background="new 0 0 547 547" xml:space="preserve">
<g>
	<circle fill="#E0D83A" cx="273.5" cy="273.5" r="273.5"/>
	<g>
		<path fill="#D5CA3C" d="M416.592,40.209c27.236,42.521,43.029,93.076,43.029,147.32c0,151.05-122.451,273.5-273.5,273.5
			c-52.46,0-101.463-14.782-143.092-40.39c48.607,75.885,133.665,126.18,230.471,126.18c151.049,0,273.5-122.45,273.5-273.5
			C547,174.729,494.827,88.335,416.592,40.209z"/>
		<path fill="#ECE160" d="M37.173,297.73c0-140.24,113.687-253.928,253.928-253.928c81.972,0,154.859,38.853,201.287,99.136
			C448.54,66.817,366.356,15.571,272.199,15.571c-140.24,0-253.928,113.688-253.928,253.928c0,58.269,19.64,111.941,52.642,154.792
			C49.451,387.032,37.173,343.815,37.173,297.73z"/>
	</g>
	<g>
		<defs>
			<circle id="SVGID_1_" cx="273.5" cy="273.5" r="273.5"/>
		</defs>
		<clipPath id="SVGID_2_">
			<use xlink:href="#SVGID_1_"  overflow="visible"/>
		</clipPath>
		<g clip-path="url(#SVGID_2_)">
			<g>
				<path fill="#FFFFFF" d="M77.811,488.009L60.54,469.357c22.1-20.464,40.397-44.419,54.387-71.2
					c27.669-52.968,36.195-114.835,24.007-174.204c-11.487-55.945-42.56-107.778-87.497-145.951l16.457-19.372
					c49.245,41.831,83.317,98.728,95.939,160.21c13.362,65.084,3.995,132.946-26.375,191.084
					C122.118,439.293,102.05,465.563,77.811,488.009z"/>
			</g>
			<g>
				<path fill="#FFFFFF" d="M487.459,488.009c-24.236-22.445-44.305-48.715-59.646-78.083
					c-30.369-58.14-39.736-126.001-26.375-191.083c12.623-61.484,46.695-118.381,95.939-160.212l16.457,19.372
					c-44.938,38.173-76.01,90.006-87.496,145.952c-12.188,59.367-3.664,121.232,24.006,174.202
					c13.992,26.782,32.289,50.737,54.387,71.2L487.459,488.009z"/>
			</g>
		</g>
	</g>
	<path fill="#F0F0EF" d="M86.085,442.103c-4.483,5.528-9.189,10.877-14.119,16.032c5.731,6.248,11.747,12.228,18.031,17.92
		c7.705-8.029,14.924-16.479,21.631-25.327C102.929,448.268,94.41,445.379,86.085,442.103z"/>
	<path fill="#F0F0EF" d="M484.079,447.883c-13.055-15.181-24.346-31.817-33.701-49.726c-12.584-24.092-21.193-50.025-25.711-76.725
		c-5.859,10.416-12.369,20.418-19.498,29.933c5.363,20.244,12.934,39.905,22.68,58.561c10.74,20.562,23.807,39.599,38.99,56.874
		C472.875,460.77,478.625,454.453,484.079,447.883z"/>
</g>
</svg>
