<?xml version="1.0" encoding="utf-8"?>
<!-- Generator: Adobe Illustrator 16.0.0, SVG Export Plug-In . SVG Version: 6.00 Build 0)  -->
<!DOCTYPE svg PUBLIC "-//W3C//DTD SVG 1.1//EN" "http://www.w3.org/Graphics/SVG/1.1/DTD/svg11.dtd">
<svg version="1.1" xmlns="http://www.w3.org/2000/svg" xmlns:xlink="http://www.w3.org/1999/xlink" x="0px" y="0px"
	 width="100px" height="100px" viewBox="0 0 100 100" enable-background="new 0 0 100 100" xml:space="preserve">
<g id="Flag">
	<path fill="#7DA5AF" d="M14.442,12.768v85.686c0,0.875,0.726,1.576,1.601,1.545l1.685-0.059c0.833-0.029,1.493-0.713,1.493-1.546
		V12.768c0-0.854-0.692-1.546-1.547-1.546h-1.685C15.134,11.222,14.442,11.914,14.442,12.768z"/>
	<path opacity="0.3" fill="#FFFFFF" d="M15.733,98.215L15.733,98.215c0.161,0,0.292-0.13,0.292-0.292V11.513
		c0-0.161-0.131-0.291-0.292-0.291l0,0c-0.16,0-0.291,0.13-0.291,0.291v86.411C15.442,98.084,15.573,98.215,15.733,98.215z"/>
	<path fill="#FF073D" d="M14.442,10.13c0,0,6.953-9.875,40.765-5.065C72.797,7.567,85.09,0,85.09,0s7.713,28.222-39.537,28.389
		c-22.88,0.081-31.111,14.833-31.111,14.833V10.13z"/>
	<path opacity="0.5" fill="#FFFFFF" d="M18.331,14.722c0,0,17.164-8.784,36.747-4.034c0,0-22.357-11.133-36.935,0.124L18.331,14.722
		z"/>
</g>
</svg>
