<?xml version="1.0" encoding="utf-8"?>
<!-- Generator: Adobe Illustrator 16.0.0, SVG Export Plug-In . SVG Version: 6.00 Build 0)  -->
<!DOCTYPE svg PUBLIC "-//W3C//DTD SVG 1.1//EN" "http://www.w3.org/Graphics/SVG/1.1/DTD/svg11.dtd">
<svg version="1.1" xmlns="http://www.w3.org/2000/svg" xmlns:xlink="http://www.w3.org/1999/xlink" x="0px" y="0px"
	 width="106.879px" height="106.879px" viewBox="0 0 106.879 106.879" enable-background="new 0 0 106.879 106.879"
	 xml:space="preserve">
<g>
	<path fill="#FFE669" d="M53.44,22.696c-23.247,0-42.092,18.845-42.092,42.092c0,23.246,18.845,42.092,42.092,42.092
		s42.092-18.846,42.092-42.092C95.532,41.541,76.687,22.696,53.44,22.696z M53.44,95.762c-17.106,0-30.973-13.869-30.973-30.975
		c0-17.106,13.867-30.973,30.973-30.973c17.105,0,30.973,13.865,30.973,30.973C84.413,81.893,70.545,95.762,53.44,95.762z"/>
	<g>
		<polygon fill="#6ED8FF" points="64.12,27.353 74.016,10.616 63.729,0.001 43.152,0.001 32.864,10.616 42.76,27.353 		"/>
		<polygon fill="#ABE8FF" points="74.016,10.616 63.729,17.118 43.152,17.118 32.864,10.616 43.152,0.001 63.729,0.001 		"/>
		<polygon fill="#31BFF5" points="63.729,17.118 43.152,17.118 53.44,27.353 53.44,27.353 		"/>
	</g>
	<path opacity="0.3" enable-background="new    " d="M65.786,24.539l8.23-13.923L63.729,0.001H52.905v33.826
		c0.178-0.003,0.355-0.013,0.535-0.013c17.105,0,30.973,13.865,30.973,30.974c0,17.104-13.867,30.973-30.973,30.973
		c-0.18,0-0.356-0.012-0.535-0.014v11.117c0.179,0.002,0.355,0.014,0.535,0.014c23.247,0,42.092-18.844,42.092-42.09
		C95.532,45.837,83.006,29.815,65.786,24.539z"/>
</g>
</svg>
