<?xml version="1.0" encoding="utf-8"?>
<!-- Generator: Adobe Illustrator 16.0.0, SVG Export Plug-In . SVG Version: 6.00 Build 0)  -->
<!DOCTYPE svg PUBLIC "-//W3C//DTD SVG 1.1//EN" "http://www.w3.org/Graphics/SVG/1.1/DTD/svg11.dtd">
<svg version="1.1" xmlns="http://www.w3.org/2000/svg" xmlns:xlink="http://www.w3.org/1999/xlink" x="0px" y="0px"
	 width="58.54px" height="58.54px" viewBox="0 0 58.54 58.54" enable-background="new 0 0 58.54 58.54" xml:space="preserve">
<g>
	<path fill="#EAC6AD" d="M28.87,54.326c-1.57,0-3.161-0.069-4.727-0.206c-4.852-0.422-9.605-1.519-14.126-3.26
		c-2.457-0.946-4.86-2.112-7.142-3.467c-3.139-1.861-2.209-5.41-1.53-8c0.09-0.344,0.179-0.683,0.258-1.012
		c1.126-4.697,3.002-9.513,6.084-15.614c2.46-4.872,4.963-9.827,8.454-14.062l0.193-0.236c0.969-1.182,1.971-2.404,3.477-3.149
		c1.674-0.83,3.668-0.933,5.427-1.024c0.305-0.016,0.605-0.031,0.899-0.05l0.5-0.035c0.522-0.038,1.044-0.075,1.559-0.075
		c0.969,0,2.407,0.118,3.698,1.141c1.577,1.25,2.577,3.388,2.988,4.973c0.643,2.484,0.322,5.705-1.844,7.3
		c-1.37,1.009-3.094,1.15-4.616,1.275l-0.548,0.047c-0.116,0.01-0.244,0.029-0.378,0.049c-0.29,0.042-0.618,0.089-0.942,0.089
		c-0.116,0-0.229-0.006-0.334-0.019c-1.021-0.124-2.728-0.907-3.325-2.262c-0.053-0.12-0.096-0.241-0.128-0.363l-0.077,0.165
		c-1.374,2.941-1.627,6.293-1.782,9.756c-0.037,0.809-0.034,1.624-0.032,2.439c0.003,1.055,0.006,2.145-0.075,3.222
		c-0.017,0.223-0.041,0.443-0.073,0.66c2.586-2.79,5.806-4.317,9.145-4.317c1.47,0,2.955,0.293,4.413,0.872
		c2.219,0.88,3.967,2.321,4.84,3.953c0.98-3.15,3.735-5,7.546-5c4.41,0,8.786,2.43,10.407,5.777
		c2.599,5.371,0.569,11.366-4.935,14.579C45.577,52.3,37.53,54.326,28.87,54.326z"/>
	<path fill="#9E7451" d="M56.187,31.776c-4.007-5.024-14.542-5.877-17.255,0.478c-1.192-1.709-3.132-2.967-5.016-3.63
		c-4.849-1.709-9.418-0.352-12.89,3.014c0.015-0.241,0.048-0.47,0.048-0.719c0.001-4.212-0.122-9.106,1.414-13.152
		c1.145,1.146,3.236,1.624,4.574,1.562c3.408-0.156,6.632-0.433,7.999-4.051c1.282-3.393-0.204-7.319-2.562-9.841
		c-1.664-1.779-2.29-1.827-4.7-1.686c-2.374,0.138-4.76,0.263-7.104,0.684c-3.926,0.704-7.181,6.726-9.068,9.946
		C6.008,23.965,0.834,34.493,0.003,45.724c-0.019,0.25,0.148,0.472,0.345,0.602c14.863,9.786,36.816,11.934,52.354,2.224
		C58.357,45.016,60.65,37.373,56.187,31.776z M51.538,47.604c-8.131,4.747-18.12,6.331-27.408,5.521
		c-4.733-0.413-9.418-1.49-13.854-3.197c-2.42-0.932-4.762-2.071-6.991-3.394c-2.834-1.681-1.474-5.149-0.81-7.918
		c1.289-5.377,3.519-10.476,6.004-15.397c2.426-4.803,4.895-9.705,8.333-13.877c0.992-1.205,1.938-2.43,3.343-3.125
		c1.758-0.872,4.002-0.846,5.947-0.972c1.763-0.114,3.555-0.385,5.071,0.816c1.283,1.017,2.24,2.895,2.641,4.44
		c0.523,2.022,0.364,4.893-1.47,6.244c-1.291,0.952-3.087,0.987-4.661,1.131c-0.423,0.038-1.013,0.174-1.444,0.122
		c-1.253-0.152-3.467-1.537-2.346-3.109c0.479-0.673,2.513-0.997,3.281-0.976c0.897,0.024,0.896-1.369,0-1.394
		c-1.68-0.045-5.253,0.947-5.485,3.062c-0.021,0.183-0.021,0.357-0.007,0.526c-1.466,3.139-1.722,6.716-1.875,10.134
		c-0.085,1.868,0.035,3.773-0.104,5.631c-0.261,3.466-2.663,6.233-5.049,8.634c-0.634,0.637,0.352,1.623,0.985,0.985
		c2.312-2.327,4.201-4.6,5.01-7.452c0.056-0.036,0.112-0.069,0.164-0.131c3.307-3.963,8.021-5.794,13.002-3.818
		c1.851,0.733,3.931,2.166,4.615,4.15c0.205,0.594,1.208,0.729,1.344,0c1.471-7.888,13.493-5.719,16.303,0.086
		C58.599,39.537,56.291,44.83,51.538,47.604z"/>
	<path fill="#9E7451" d="M36.357,41.412c-2.233,1.972-4.263,2.813-7.243,2.629c-2.85-0.176-5.475-0.579-7.873-2.206
		c-0.744-0.505-1.442,0.702-0.704,1.204c2.826,1.916,6.122,2.346,9.479,2.441c2.966,0.084,5.123-1.137,7.326-3.083
		C38.017,41.802,37.028,40.819,36.357,41.412z"/>
	<path fill="#9E7451" d="M23.333,36.069c0.637-1.253,1.825-1.981,2.992-2.683c0.769-0.462,0.068-1.667-0.703-1.204
		c-1.365,0.821-2.749,1.72-3.492,3.184C21.725,36.164,22.927,36.87,23.333,36.069z"/>
	<path fill="#9E7451" d="M27.862,32.66c0.897,0,0.898-1.394,0-1.394C26.966,31.266,26.964,32.66,27.862,32.66z"/>
</g>
</svg>
