<?xml version="1.0" encoding="utf-8"?>
<!-- Generator: Adobe Illustrator 16.0.0, SVG Export Plug-In . SVG Version: 6.00 Build 0)  -->
<!DOCTYPE svg PUBLIC "-//W3C//DTD SVG 1.1//EN" "http://www.w3.org/Graphics/SVG/1.1/DTD/svg11.dtd">
<svg version="1.1" xmlns="http://www.w3.org/2000/svg" xmlns:xlink="http://www.w3.org/1999/xlink" x="0px" y="0px"
	 width="662.44px" height="662.44px" viewBox="0 0 662.44 662.44" enable-background="new 0 0 662.44 662.44" xml:space="preserve">
<g>
	<path fill="#616E7D" d="M479.083,90.049c-65.555,0-131.697,16.306-146.299,47.559h-3.13c-1.896-4.091-4.681-7.922-8.242-11.489
		v11.489v9.682v3.462v309.864v10.873v5.952v10.752H662.44V150.752h-11.628h-22.331C628.466,110.897,553.3,90.049,479.083,90.049z
		 M617.628,460.616H341.042V150.752v-3.462c4.953-25.898,64.78-46.37,138.042-46.37c76.49,0,138.521,22.309,138.545,49.832V460.616z
		"/>
	<path fill="#616E7D" d="M183.358,100.921c29.631,0,57.027,3.379,79.546,9.073V98.728c-24.017-5.724-51.819-8.678-79.546-8.678
		c-74.226,0-149.383,20.848-149.406,60.696v0.007H11.628H0v337.441h262.904v-10.752v-5.952v-10.873H44.834V150.752
		C44.858,123.229,106.867,100.921,183.358,100.921z"/>
	<path fill="#FFFFFF" d="M262.904,194.244v-43.491v-40.758c-22.519-5.694-49.915-9.073-79.546-9.073
		c-76.491,0-138.5,22.309-138.523,49.832v309.864h218.069V366.39H71.079v-21.51h191.825v-53.806H71.079v-21.514h191.825V215.75
		H71.079v-21.506H262.904z"/>
	<path fill="#FFFFFF" d="M341.042,147.291v3.462v309.864h276.587V150.752c-0.023-27.523-62.055-49.832-138.545-49.832
		C405.822,100.921,345.995,121.393,341.042,147.291z M591.361,366.39H370.515v-21.51h220.846V366.39z M591.361,291.074H370.515
		v-21.514h220.846V291.074z M591.361,215.75H370.515v-21.506h220.846V215.75z"/>
	<rect x="71.079" y="194.244" fill="#82BFAB" width="191.825" height="21.506"/>
	<rect x="71.079" y="269.561" fill="#82BFAB" width="191.825" height="21.514"/>
	<rect x="71.079" y="344.88" fill="#82BFAB" width="191.825" height="21.51"/>
	<rect x="370.515" y="194.244" fill="#82BFAB" width="220.846" height="21.506"/>
	<rect x="370.515" y="269.561" fill="#82BFAB" width="220.846" height="21.514"/>
	<rect x="370.515" y="344.88" fill="#82BFAB" width="220.846" height="21.51"/>
	<path fill="#AAD4C8" d="M262.904,150.752v43.491v21.506v53.811v21.514v53.806v21.51v94.227v10.873v5.952v10.752v84.197
		l29.021-29.229l29.488,29.229v-84.197v-10.752v-5.952v-10.873V150.752v-3.462v-9.682V126.12
		c-12.147-12.189-33.168-21.356-58.509-27.392v11.267V150.752z"/>
</g>
</svg>
