<?xml version="1.0" encoding="utf-8"?>
<!-- Generator: Adobe Illustrator 16.0.0, SVG Export Plug-In . SVG Version: 6.00 Build 0)  -->
<!DOCTYPE svg PUBLIC "-//W3C//DTD SVG 1.1//EN" "http://www.w3.org/Graphics/SVG/1.1/DTD/svg11.dtd">
<svg version="1.1" xmlns="http://www.w3.org/2000/svg" xmlns:xlink="http://www.w3.org/1999/xlink" x="0px" y="0px"
	 width="1172.41px" height="1172.41px" viewBox="0 0 1172.41 1172.41" enable-background="new 0 0 1172.41 1172.41"
	 xml:space="preserve">
<path fill="#E0593C" d="M586.108,1172.409c-24.169,0-48.065-7.877-66.772-23.929c-46.779-40.143-44.928-110.001-26.695-170.761
	c11.784-39.266,44.326-59.98,84.833-61.234c30.989-0.959,62.043-0.934,93.037-0.096c52.749,1.428,92.766,43.381,94.9,98.486
	c0.387,9.996,0.324,20.014,0.324,30.021c0.004,64.725-12.451,93.116-57.459,116.378c-14.572,7.531-30.715,11.134-46.96,11.134
	H586.108z"/>
<path fill="#E0593C" d="M384.409,315.542c-12.661-42.939-25.415-86.439-26.966-131.179c-1.551-44.74,9.3-91.596,38.87-125.207
	C445.547,3.194,529.795-1.679,604.305,0.365c62.952,1.727,132.924,8.669,174.764,55.738
	c48.021,54.023,38.364,136.334,25.812,207.518c-28.602,162.203-57.204,324.404-85.806,486.607
	c-5.754,32.629-13.318,68.365-39.607,88.535c-31.117,23.874-104.383,19.315-134.495-6.719
	c-33.848-29.266-41.323-112.084-53.745-154.215C455.622,557.067,420.015,436.305,384.409,315.542z"/>
</svg>
