<?xml version="1.0" encoding="utf-8"?>
<!-- Generator: Adobe Illustrator 16.0.0, SVG Export Plug-In . SVG Version: 6.00 Build 0)  -->
<!DOCTYPE svg PUBLIC "-//W3C//DTD SVG 1.1//EN" "http://www.w3.org/Graphics/SVG/1.1/DTD/svg11.dtd">
<svg version="1.1" xmlns="http://www.w3.org/2000/svg" xmlns:xlink="http://www.w3.org/1999/xlink" x="0px" y="0px"
	 width="134.63px" height="134.63px" viewBox="0 0 134.63 134.63" enable-background="new 0 0 134.63 134.63" xml:space="preserve">
<g>
	<path fill="#ED4848" d="M89.754,9.847c-1.132-0.383-2.416,0.208-3.412,0.718c-0.383,0.199-0.766,0.414-1.125,0.662
		c-0.023,0.047-0.047,0.095-0.071,0.15c-0.176,0.352-0.358,0.71-0.574,1.053c1.045,0.136,2.049,0.559,2.967,1.141
		c0.494-0.256,1.107-0.319,1.61-0.591c0.565-0.303,1.116-0.718,1.427-1.292C90.974,10.947,90.607,10.133,89.754,9.847L89.754,9.847z
		"/>
	<path fill="#ED4848" d="M76.519,7.908c-0.534-0.558-1.108-1.092-1.866-1.338c-0.318-0.104-0.653-0.208-1.004-0.168
		c-0.144,0.016-0.12,0.008-0.231,0.135c-0.008,0.008-0.072,0.136-0.063,0.104c-0.032,0.096-0.056,0.192-0.072,0.287
		c0,0-0.016,0.24-0.016,0.264c0,0.136,0.008,0.271,0.023,0.398c0.048,0.423,0.247,1.108,0.455,1.508
		c0.383,0.749,0.726,1.123,1.419,1.666c0.598,0.471,1.339,0.781,1.993,1.18c0.559-0.072,1.125-0.127,1.69-0.151
		c-0.215-0.55-0.391-1.116-0.686-1.643C77.707,9.344,77.165,8.578,76.519,7.908L76.519,7.908z"/>
	<path fill="#ED4848" d="M83.671,5.445c-0.009-0.032-0.009-0.056-0.009-0.072c0-0.008-0.008-0.008-0.008-0.016s0-0.008,0-0.016
		c-0.031-0.224-0.071-0.455-0.128-0.678c-0.047-0.224-0.103-0.439-0.175-0.654c-0.032-0.104-0.063-0.215-0.104-0.318
		C83.232,3.66,83.136,3.428,83.176,3.5c-0.071-0.151-0.144-0.303-0.23-0.447c-0.057-0.087-0.104-0.167-0.16-0.254
		c-0.008,0-0.008-0.008-0.016-0.017c0,0,0,0,0-0.008c-0.008,0-0.008-0.009-0.016-0.009c-0.088-0.104-0.176-0.191-0.271-0.278
		c-0.032-0.017-0.111-0.071-0.144-0.088c-0.008,0-0.023-0.008-0.031-0.017c-0.08-0.023-0.264-0.039-0.208-0.039
		c-0.048-0.008-0.096-0.008-0.136,0c-0.008,0-0.016,0-0.023,0c-0.016,0.008-0.032,0.008-0.056,0.016
		c-0.08,0.023-0.168,0.04-0.247,0.072c0,0.008-0.224,0.104-0.224,0.104c-0.104,0.056-0.224,0.119-0.327,0.191
		c-0.119,0.088-0.278,0.223-0.431,0.391c-0.63,0.701-0.956,1.723-1.124,2.671c-0.199,1.132-0.144,2.265-0.183,3.405
		c-0.017,0.47,0.007,0.932,0.079,1.387c0.128,0.351,0.231,0.709,0.231,1.068c0.008,0.039,0.023,0.08,0.04,0.119
		c0.223,0,0.454,0,0.686,0.008c0.525,0.017,1.044,0.08,1.562,0.176c0.184-0.758,0.621-1.459,0.94-2.152
		c0.287-0.605,0.591-1.244,0.75-1.906c0.016-0.088,0.079-0.486,0.071-0.367c0.017-0.15,0.024-0.295,0.032-0.445
		c0.008-0.431-0.008-0.861-0.04-1.3C83.687,5.668,83.679,5.557,83.671,5.445L83.671,5.445z"/>
	<path fill="#A1CC39" d="M104.536,20.515c0.51-0.151,1.028-0.271,1.555-0.343c0.726-0.096,1.435-0.119,2.137-0.08
		c0.167-0.829,0.702-1.65,0.933-2.447c0.152-0.559,0.288-1.117,0.295-1.698c0.008-0.543,0.017-0.694-0.119-1.173
		c-0.023-0.079-0.191-0.502-0.144-0.422c-0.08-0.168-0.168-0.335-0.271-0.494c-0.016-0.016-0.183-0.248-0.119-0.168
		c-0.032-0.039-0.063-0.08-0.096-0.111c-0.056-0.057-0.406-0.359-0.263-0.264c-0.144-0.104-0.288-0.199-0.431-0.279
		c-0.024-0.008-0.176-0.071-0.199-0.088c0.008,0,0.016,0.009,0.023,0.009c-0.04-0.017-0.088-0.032-0.128-0.048
		c-0.071-0.023-0.51-0.104-0.343-0.096c-0.167-0.016-0.334-0.023-0.502-0.016c-0.031,0-0.335,0.039-0.159,0.008
		c-0.063,0.008-0.12,0.016-0.176,0.031c-0.144,0.032-0.295,0.072-0.438,0.12c-0.159,0.191-0.383,0.295-0.614,0.335
		c-0.079,0.048-0.128,0.08-0.184,0.135c-0.629,0.559-1.251,1.363-1.339,2.281c-0.111,1.18,0.231,2.297,0.423,3.443
		C104.44,19.565,104.536,20.053,104.536,20.515L104.536,20.515z M105.971,16.377L105.971,16.377c0.16-0.295,0.296-0.599,0.367-0.926
		c0.08-0.326,0.12-0.701,0.383-0.925c0.224-0.184,0.582-0.19,0.726,0.097c0.358,0.677-0.311,1.649-0.686,2.216
		C106.434,17.325,105.7,16.902,105.971,16.377L105.971,16.377z"/>
	<path fill="#A1CC39" d="M114.662,29.324c0,0,0,0,0-0.008c-0.008-0.072-0.04-0.278-0.048-0.326
		c-0.023-0.127-0.048-0.248-0.079-0.367c-0.057-0.239-0.121-0.471-0.2-0.709c-0.04-0.111-0.08-0.231-0.119-0.344
		c-0.017-0.039-0.072-0.176-0.096-0.223c0,0,0,0-0.009-0.008c0,0,0,0,0-0.008l0,0c-0.079-0.168-0.167-0.335-0.255-0.503
		c-0.151-0.255-0.303-0.503-0.479-0.741c-0.016-0.031-0.111-0.151-0.144-0.191l0,0c-0.008-0.008-0.016-0.016-0.016-0.016l0,0
		c-0.048-0.064-0.104-0.119-0.151-0.184c-0.184-0.199-0.367-0.391-0.566-0.574c-0.096-0.088-0.199-0.184-0.303-0.271
		c-0.017-0.016-0.191-0.15-0.215-0.176l0,0l0,0c-1.093-0.805-2.138-1.347-3.437-1.594c-0.957-0.191-2.433-0.184-3.668,0.168
		c-1.324,0.374-2.575,0.996-3.724,1.746c-2.049,1.323-3.579,3.133-5.262,4.831c0.398,1.746,0.717,3.509,0.98,5.278
		c0.224,1.482,0.398,2.982,0.542,4.488c0.112,0,0.216-0.008,0.327-0.008c0.391-0.023,0.829,0.168,1.204,0.264
		c0.646,0.176,1.283,0.343,1.937,0.486c1.308,0.271,2.64,0.446,3.979,0.375c1.029-0.057,2.058-0.239,3.03-0.574
		c0.071-0.024,0.446-0.176,0.463-0.176c-0.009,0-0.009,0.008-0.017,0.008c0.152-0.071,0.312-0.143,0.463-0.223
		c0.343-0.176,0.686-0.359,1.013-0.566c0.184-0.119,0.358-0.239,0.534-0.359c0.048-0.031,0.239-0.184,0.215-0.158
		c0.024-0.017,0.04-0.033,0.064-0.057c0.295-0.248,0.59-0.502,0.869-0.781c0.303-0.311,0.598-0.631,0.868-0.965
		c0.017-0.023,0.064-0.088,0.104-0.135l0,0c0.008-0.017,0.023-0.025,0.023-0.033c0.008-0.016,0.016-0.023,0.024-0.031l0,0l0,0
		l0.008-0.008l0,0c0,0,0,0,0-0.008c0.016-0.017,0.031-0.04,0.048-0.064c0.104-0.143,0.207-0.287,0.303-0.43
		c0.23-0.367,0.463-0.734,0.662-1.117c0.096-0.191,0.19-0.391,0.287-0.582c0.023-0.062,0.056-0.127,0.088-0.191v-0.008
		c0.295-0.749,0.533-1.523,0.678-2.32c0.015-0.063,0.056-0.342,0.063-0.366l0,0c0.008-0.063,0.008-0.128,0.016-0.184
		c0.024-0.247,0.04-0.503,0.048-0.749C114.718,30.193,114.71,29.756,114.662,29.324L114.662,29.324z M101.052,36.047L101.052,36.047
		c-0.08,0.74-1.252,0.732-1.156,0c0.151-1.148,0.304-2.449,1.235-3.238c0.152-0.127,0.415-0.047,0.407,0.176
		C101.514,34.021,101.163,35.01,101.052,36.047L101.052,36.047z M105.453,26.439L105.453,26.439
		c-0.311,1.004-0.838,2.359-1.714,2.996c-0.256,0.184-0.591-0.062-0.591-0.342c-0.016-0.534,0.224-1.061,0.383-1.562
		c0.168-0.494,0.343-0.997,0.534-1.475c0.136-0.32,0.344-0.512,0.694-0.535c0.223-0.008,0.351,0.08,0.51,0.215
		C105.453,25.896,105.525,26.207,105.453,26.439L105.453,26.439z M110.085,31.788L110.085,31.788
		c-0.23,0.974-0.565,1.914-0.829,2.87c-0.19,0.702-1.18,0.399-1.068-0.286c0.168-0.989,0.392-1.97,0.566-2.95
		c0.128-0.75,0.04-1.818,0.709-2.32c0.152-0.111,0.352-0.04,0.486,0.064C110.659,29.724,110.261,31.055,110.085,31.788
		L110.085,31.788z"/>
	<path fill="#A1CC39" d="M48.748,40.455c-0.215-0.406-0.479-0.781-0.781-1.132c-0.327-0.375-0.622-0.766-0.886-1.173
		c-0.645-0.732-1.243-1.529-1.873-2.248c-1.061-1.203-2.177-2.359-3.349-3.452c-2.137-2.009-4.417-3.931-7.048-5.254
		c-2.544-1.284-5.598-2.042-8.236-0.733c-1.013,0.51-1.786,1.084-2.535,1.889c-0.064,0.144-0.168,0.264-0.296,0.327
		c-0.079,0.097-0.159,0.185-0.239,0.288c-0.295,0.357-0.701,0.939-1.028,1.498c-0.318,0.551-0.613,1.108-0.86,1.691
		c0,0.007-0.136,0.366-0.16,0.414c-0.056,0.158-0.111,0.311-0.167,0.462c-0.097,0.304-0.2,0.614-0.287,0.925
		c-0.168,0.63-0.311,1.26-0.415,1.906c-0.072,0.462-0.144,1.188-0.159,1.857c-0.008,0.63,0,1.268,0.063,1.905
		c0.048,0.526,0.136,1.061,0.303,1.755c0.145,0.582,0.319,1.163,0.542,1.721c0.112,0.295,0.128,0.336,0.319,0.727
		c0.12,0.246,0.247,0.494,0.391,0.733c0.136,0.239,0.279,0.47,0.431,0.693c0.079,0.112,0.151,0.224,0.231,0.335
		c0.032,0.039,0.056,0.072,0.071,0.088v0.008c0.009,0.008,0.024,0.023,0.032,0.04c1.332,1.634,3.03,2.782,4.815,3.452
		c2.145,0.805,4.274,1.172,6.451,1.291c2.344,0.137,4.712,0.025,7.048-0.238c2.137-0.239,4.266-0.654,6.402-0.797
		c0.071-0.383,0.151-0.773,0.224-1.156c0.462-2.257,0.988-4.521,1.603-6.754C49.027,41.252,48.955,40.846,48.748,40.455
		L48.748,40.455z M26.057,39.307L26.057,39.307c-0.08,0.208-0.312,0.271-0.486,0.128c-0.582-0.494-0.63-1.124-0.773-1.833
		c-0.144-0.727-0.279-1.443-0.558-2.129c-0.216-0.526,0.638-0.869,0.908-0.383c0.375,0.686,0.639,1.427,0.806,2.192
		C26.12,37.984,26.319,38.605,26.057,39.307L26.057,39.307z M33.248,33.271L33.248,33.271c-0.104,0.184-0.375,0.215-0.518,0.064
		c-0.487-0.511-0.551-1.173-0.694-1.826c-0.111-0.511-0.351-1.156-0.231-1.683c0.032-0.144,0.185-0.255,0.335-0.255
		c0.75,0.016,1.061,0.965,1.188,1.586C33.472,31.868,33.623,32.602,33.248,33.271L33.248,33.271z M37.977,42.704L37.977,42.704
		c-0.072,0.135-0.247,0.215-0.391,0.159c-0.854-0.279-1.005-1.403-1.132-2.16c-0.057-0.359,0.087-0.711,0.462-0.814
		c0.319-0.088,0.733,0.112,0.805,0.463C37.856,41.077,38.375,41.994,37.977,42.704L37.977,42.704z"/>
	<path fill="#A1CC39" d="M94.259,40.631c-0.08-0.877-0.167-1.746-0.256-2.623c-0.047-0.398-0.087-0.798-0.135-1.196
		c-0.016-0.19-0.04-0.391-0.063-0.59c-0.017-0.104-0.024-0.167-0.024-0.208c0-0.008,0-0.016,0-0.023
		c-0.23-1.562-0.471-3.125-0.773-4.68c-0.398-2.033-0.854-4.059-1.428-6.053c-0.303-1.027-0.629-2.057-1.012-3.068
		c-0.375-0.998-0.63-1.611-1.156-2.672c-0.893-1.77-1.762-3.054-3.174-4.354c-0.621-0.566-1.395-1.012-2.248-1.331
		c-1.379-0.017-2.774,0.087-4.146,0.207c-0.772,0.063-1.562,0.168-2.336,0.319c-0.766,0.144-1.515,0.326-2.256,0.534
		c-1.173,0.343-2.32,0.765-3.429,1.268c-0.168,0.534-0.805,0.806-1.26,0.598c-1.371,0.702-2.688,1.507-3.938,2.408
		c-4.816,3.468-8.443,8.228-10.979,13.554l0,0c-0.056,0.12-0.119,0.24-0.175,0.367c-2.91,6.267-4.449,13.068-5.67,19.838
		c-1.322,7.367-2.392,14.805-1.729,22.301c0.151,1.785,0.383,3.547,0.773,5.293c0.375,1.684,0.965,3.342,1.595,4.944
		c1.148,2.926,2.671,5.646,4.122,8.419c1.834-0.047,3.66-0.088,5.485-0.143c0.12-0.359,0.239-0.718,0.343-1.077
		c0.224-0.798,1.403-0.462,1.236,0.343c-0.048,0.231-0.088,0.455-0.128,0.678c0.463-0.008,0.925-0.031,1.388-0.047
		c3.874-0.16,7.741-0.072,11.617,0.047c2.646,0.088,5.293,0.184,7.948,0.207c0-0.159,0.04-0.318,0.128-0.479
		c0.614-1.139,1.388-2.176,2.105-3.252c0.717-1.076,1.419-2.161,2.089-3.27c1.275-2.089,2.487-4.25,3.42-6.514
		c1.842-4.473,2.927-9.201,3.66-13.977c1.036-6.738,1.164-13.777,0.781-20.643C94.538,44.043,94.41,42.337,94.259,40.631
		L94.259,40.631z M53.429,70.57L53.429,70.57c-0.08,0.605-0.176,1.211-0.295,1.809c-0.104,0.471-0.152,1.006-0.527,1.34
		c-0.167,0.152-0.406,0.08-0.485-0.127c-0.168-0.463,0.039-0.988,0.144-1.451c0.119-0.559,0.23-1.125,0.311-1.691
		C52.639,69.972,53.484,70.083,53.429,70.57L53.429,70.57z M54.545,49.721L54.545,49.721c-0.064,0.582-0.239,1.355-0.829,1.602
		c-0.248,0.104-0.543,0.08-0.679-0.176c-0.311-0.573-0.062-1.227,0.056-1.825c0.112-0.55,0.145-1.124,0.431-1.61
		c0.176-0.311,0.646-0.318,0.821,0C54.688,48.324,54.624,49.042,54.545,49.721L54.545,49.721z M55.74,60.994L55.74,60.994
		c-0.167-0.789,0.207-1.698,0.439-2.456c0.183-0.59,1.084-0.343,0.933,0.263c-0.191,0.758-0.208,1.787-0.821,2.345
		C56.115,61.297,55.788,61.25,55.74,60.994L55.74,60.994z M56.705,84.762L56.705,84.762c-0.159,0.231-0.55,0.231-0.63-0.08
		c-0.144-0.581-0.063-1.18,0.008-1.77c0.072-0.654,0.128-1.315,0.208-1.978c0.071-0.581,0.973-0.614,0.94,0
		C57.176,82.115,57.423,83.758,56.705,84.762L56.705,84.762z M61.577,30.305L61.577,30.305c-0.184,0.104-0.486,0.017-0.519-0.215
		c-0.111-0.732,0.207-1.538,0.438-2.232c0.247-0.732,0.55-1.411,0.917-2.096c0.247-0.455,1.028-0.145,0.846,0.357
		c-0.304,0.806-0.407,1.658-0.654,2.48C62.414,29.213,62.167,29.963,61.577,30.305L61.577,30.305z M62.478,72.754L62.478,72.754
		c-0.159,0.111-0.383,0.024-0.479-0.127c-0.351-0.543-0.238-1.117-0.167-1.723c0.071-0.661,0.191-1.315,0.263-1.984
		c0.072-0.718,1.053-0.727,1.116,0C63.315,70.083,63.57,71.973,62.478,72.754L62.478,72.754z M64.654,52.789L64.654,52.789
		c-0.255,0.814-0.406,1.635-0.454,2.48c-0.032,0.598-0.909,0.605-0.94,0c-0.041-0.926,0-1.897,0.223-2.807
		c0.207-0.806,0.494-1.881,1.3-2.289c0.247-0.127,0.558,0.025,0.558,0.32C65.356,51.274,64.878,52.057,64.654,52.789L64.654,52.789z
		 M66.082,40.615L66.082,40.615c0.223,0.757-0.934,1.068-1.164,0.318c-0.344-1.076-0.375-3.125,1.021-3.484
		c0.215-0.064,0.423,0.104,0.43,0.318c0.009,0.479-0.23,0.886-0.343,1.34C65.898,39.626,65.938,40.104,66.082,40.615L66.082,40.615z
		 M77.443,33.08L77.443,33.08c0.111-0.04,0.271,0.023,0.319,0.128c0.271,0.59-0.136,1.204-0.304,1.778
		c-0.223,0.74-0.391,1.49-0.494,2.256c-0.08,0.646-1.108,0.654-1.021,0c0.112-0.854,0.271-1.707,0.526-2.527
		C76.654,34.125,76.798,33.312,77.443,33.08L77.443,33.08z M69.654,83.247L69.654,83.247c-0.089,0.653-0.232,1.729-0.894,2.073
		c-0.167,0.088-0.383,0.08-0.526-0.072c-0.542-0.59-0.311-1.73-0.215-2.455c0.095-0.71,0.088-1.547,0.398-2.209
		c0.287-0.605,1.06-0.318,1.268,0.167C69.973,81.461,69.757,82.514,69.654,83.247L69.654,83.247z M72.5,51.992L72.5,51.992
		c-0.279,1.467-0.917,2.814-0.925,4.338c-0.008,0.766-1.204,0.766-1.188,0c0.031-1.683,0.478-3.365,1.618-4.633
		C72.221,51.458,72.556,51.721,72.5,51.992L72.5,51.992z M74.119,23.712L74.119,23.712c-0.2,0.198-0.566,0.063-0.566-0.231
		c0.008-1.005,0.431-1.994,0.749-2.926c0.319-0.941,0.687-1.866,1.069-2.783c0.238-0.574,1.163-0.367,0.956,0.264
		c-0.327,1.012-0.582,2.049-0.9,3.07C75.147,22.014,74.82,23.034,74.119,23.712L74.119,23.712z M77.085,87.561L77.085,87.561
		c-0.144,0.574-0.256,1.148-0.264,1.746c-0.023,0.789-1.244,0.789-1.228,0c0.008-0.701,0.128-1.396,0.295-2.081
		c0.128-0.542,0.255-1.061,0.733-1.403c0.144-0.104,0.383-0.031,0.471,0.128C77.38,86.468,77.212,87.011,77.085,87.561
		L77.085,87.561z M78.384,76.678L78.384,76.678c-0.183,0.996-0.366,2.018-1.021,2.83c-0.143,0.176-0.479,0.08-0.518-0.136
		c-0.184-0.957,0.096-1.882,0.295-2.814c0.215-1.005,0.438-2.018,0.558-3.046c0.08-0.622,1.029-0.662,1.013,0
		C78.688,74.572,78.584,75.633,78.384,76.678L78.384,76.678z M79.7,63.338L79.7,63.338c-0.144,0.152-0.415,0.08-0.463-0.119
		c-0.295-1.252,0.247-2.568,0.224-3.844c-0.024-0.686,0.948-0.637,1.028,0C80.664,60.691,80.656,62.325,79.7,63.338L79.7,63.338z
		 M83.814,21L83.814,21c-0.191,1.293-0.495,2.584-0.869,3.836c-0.184,0.63-0.383,1.252-0.551,1.89
		c-0.144,0.565-0.278,1.164-0.806,1.491c-0.223,0.144-0.525,0.047-0.653-0.176c-0.327-0.526-0.136-1.156,0.048-1.707
		c0.207-0.621,0.414-1.251,0.661-1.857c0.495-1.219,0.981-2.432,1.324-3.707C83.12,20.211,83.886,20.467,83.814,21L83.814,21z
		 M86.549,69.518L86.549,69.518c-0.128,0.598-0.199,1.252-0.59,1.73c-0.152,0.184-0.438,0.07-0.494-0.128
		c-0.176-0.599,0.071-1.26,0.191-1.851C85.768,68.68,86.669,68.928,86.549,69.518L86.549,69.518z M89.347,52.901L89.347,52.901
		c-0.143,0.494-0.318,1.028-0.797,1.292c-0.239,0.135-0.534,0.016-0.605-0.248c-0.264-0.9,0.391-1.905,0.383-2.814
		c0-0.534,0.845-0.678,0.948-0.127C89.396,51.634,89.538,52.256,89.347,52.901L89.347,52.901z M89.499,42.664L89.499,42.664
		c-0.264,0.144-0.526,0.008-0.639-0.256c-0.191-0.479,0.024-0.98,0.097-1.459c0.079-0.454,0.143-0.908,0.199-1.371
		c0.056-0.526,0.757-0.662,0.948-0.127C90.416,40.367,90.512,42.121,89.499,42.664L89.499,42.664z"/>
	<path fill="#D89261" d="M96.659,97.79c-0.009-0.128-0.024-0.255-0.032-0.383c0-0.008-0.008-0.008-0.008-0.008
		c-0.024-0.184-0.064-0.366-0.104-0.542c-0.032-0.111-0.064-0.216-0.097-0.319c-0.031-0.063-0.104-0.215-0.143-0.286
		c-0.934,0.295-1.946,0.398-2.918,0.438c-1.316,0.057-2.632,0.064-3.947,0.057c-3.812-0.033-7.622,0.079-11.434-0.041
		c-3.867-0.111-7.734-0.287-11.601-0.278c-1.978,0-3.963,0.056-5.94,0.104c-1.865,0.056-3.731,0.104-5.597,0.12
		c-1.922,0.016-3.844,0-5.765-0.08c-0.542-0.016-1.076-0.049-1.611-0.088c-0.47-0.031-0.98-0.016-1.435-0.119
		c-0.574-0.137-1.14-0.271-1.706-0.423c-0.017,0.048-0.04,0.12-0.04,0.136c-0.016,0.056-0.023,0.104-0.04,0.159v0.008
		c-0.016,0.112-0.08,0.486-0.08,0.431c-0.087,0.9-0.023,1.834,0.088,2.734c0.088,0.727,0.343,1.953,0.511,2.887
		c0.072,0.43,0.151,0.861,0.223,1.292c0.04,0.271,0.097,0.542,0.088,0.821c-0.008,0.23-0.048,0.357-0.127,0.525
		c0.016-0.023,0.023-0.031,0.023-0.039c-0.008,0.016-0.04,0.096-0.056,0.127c-0.04,0.12-0.104,0.215-0.167,0.303
		c0.263,0.191,0.653,0.304,1.044,0.391c0.558,0.128,1.124,0.184,1.706,0.199c1.34,0.04,2.663-0.127,4.003-0.127
		c1.107,0,2.447,0,3.316,0.781c0.224,0.207,0.151,0.582-0.096,0.726c-1.203,0.726-2.941,0.741-4.313,0.853
		c-0.733,0.057-1.475,0.112-2.208,0.12c0.414,1.706,0.821,3.396,1.427,5.056c0.821,2.271,1.555,4.568,2.328,6.864
		c0.854,2.544,1.85,5.007,2.847,7.495c0.255,0.621,0.438,1.913,0.997,2.232c0.766,0.43,1.841,0.51,2.424,1.26
		c0.095-0.137,0.247-0.231,0.438-0.271c1.299-0.263,2.574,0.104,3.867,0.264c1.308,0.159,2.591,0.366,3.906,0.43
		c2.623,0.128,5.263,0.057,7.894,0.032c1.762-0.017,3.556-0.024,5.31-0.279c1.459-0.215,2.799-0.494,3.938-1.212
		c0.486-0.318,0.782-0.55,1.252-1.061c0.399-0.446,0.606-0.654,0.918-1.203c0.613-1.093,0.987-2.153,1.323-3.413
		c0.988-3.636,2.2-7.144,3.516-10.668c0.558-1.499,1.005-3.046,1.57-4.545c0.208-0.558,0.447-1.163,0.742-1.729
		c-0.479-0.008-0.949-0.057-1.419-0.137c-0.989-0.166-2.113-0.334-2.975-0.869c-0.056-0.039-0.111-0.087-0.159-0.135
		c-2.304-0.016-4.608,0.398-6.913,0.479c-1.363,0.048-2.734,0.031-4.098-0.023c-0.678-0.024-1.348-0.057-2.018-0.08
		c-0.542-0.016-1.052-0.08-1.499-0.375c-0.199-0.135-0.199-0.398,0-0.525c0.94-0.623,2.432-0.344,3.517-0.336
		c1.291,0.008,2.583,0.016,3.874-0.088c1.301-0.104,2.601-0.238,3.899-0.35c1.005-0.088,2.025-0.216,3.038-0.176
		c0.223,0.008,0.446,0.016,0.678,0.031c0.375-0.158,0.805-0.246,1.203-0.286c0.367-0.032,0.862-0.064,1.396-0.104
		c0.495-0.031,0.989-0.023,1.476-0.047c0.247-0.017,0.494-0.033,0.741-0.049c0.119-0.008,0.239-0.023,0.358-0.031
		c0-0.008,0.008-0.008,0.017-0.008c0,0,0,0,0.008,0c0.016,0,0.04-0.009,0.063-0.009c0.264-0.048,0.542-0.095,0.806-0.167
		c0.088-0.023,0.605-0.207,0.438-0.128c0.167-0.079,0.343-0.167,0.494-0.278c0.04-0.024,0.255-0.199,0.191-0.136
		c0.032-0.032,0.072-0.063,0.104-0.097c0.136-0.15,0.255-0.358,0.367-0.605c-0.016-0.805,0.159-1.634,0.199-2.447
		C96.73,99.623,96.73,98.707,96.659,97.79L96.659,97.79z M68.849,106.258L68.849,106.258c-0.599,0.525-1.723,0.391-2.472,0.358
		c-0.901-0.04-1.794-0.096-2.695-0.151c-1.882-0.119-3.771,0.008-5.661-0.111c-0.215-0.008-0.215-0.327,0-0.327
		c1.818,0,3.612-0.392,5.438-0.312c0.894,0.048,1.802,0.128,2.695,0.112c0.446,0,0.901-0.017,1.348-0.064
		c0.415-0.056,0.805-0.183,1.204-0.031C68.912,105.803,69.039,106.09,68.849,106.258L68.849,106.258z M82.507,120.099
		L82.507,120.099c0.502-1.363,0.964-2.751,1.482-4.114c0.909-2.359,1.897-5.086,3.971-6.682c0.622-0.47,1.308,0.519,0.806,1.045
		c-0.766,0.797-1.284,1.842-1.715,2.854c-0.55,1.275-1.004,2.591-1.435,3.907c-0.455,1.371-0.917,2.742-1.428,4.098
		c-0.438,1.148-0.893,2.4-2.033,3.014c-0.303,0.16-0.646-0.047-0.661-0.383C81.422,122.516,82.06,121.318,82.507,120.099
		L82.507,120.099z M79.301,128.598L79.301,128.598c0.04-0.111,0.088-0.23,0.144-0.342c0.319-0.591,1.173-0.67,1.635-0.208
		c0.263,0.263,0.367,0.654,0.271,1.013c-0.072,0.271-0.248,0.471-0.479,0.622c-0.008,0.008-0.024,0.017-0.032,0.024
		c0.032-0.024,0.057-0.041,0.08-0.064c-0.056,0.048-0.111,0.08-0.176,0.119c-0.048,0.08-0.119,0.152-0.223,0.208
		c-0.208,0.12-0.503,0.144-0.702,0c-0.151-0.096-0.279-0.224-0.335-0.399c-0.023-0.039-0.04-0.088-0.056-0.127
		C79.27,129.204,79.214,128.854,79.301,128.598L79.301,128.598z"/>
	<path fill="#BB7545" d="M91.477,107.381c-0.989-0.166-2.113-0.334-2.975-0.869c-0.056-0.039-0.111-0.087-0.159-0.135
		c-2.304-0.016-4.608,0.398-6.913,0.479c-0.797,0.031-1.603,0.031-2.407,0.024c-0.559-0.009-1.124-0.024-1.69-0.048
		c-0.678-0.024-1.348-0.057-2.018-0.08c-0.542-0.016-1.052-0.08-1.499-0.375c-0.199-0.135-0.199-0.398,0-0.525
		c0.032-0.024,0.064-0.041,0.096-0.064c-0.422-0.048-0.837-0.096-1.26-0.127c-2.225-0.168-4.473-0.064-6.697,0.047
		c-0.462,0.024-0.925,0.049-1.387,0.072c0.533,0.031,1.061,0.056,1.586,0.048c0.446,0,0.901-0.017,1.348-0.064
		c0.415-0.056,0.805-0.183,1.204-0.031c0.207,0.071,0.334,0.358,0.144,0.526c-0.599,0.525-1.723,0.391-2.472,0.358
		c-0.901-0.04-1.794-0.096-2.695-0.151c-1.882-0.119-3.771,0.008-5.661-0.111c-0.111,0-0.167-0.096-0.159-0.176
		c-1.101,0.064-2.2,0.111-3.301,0.151c-0.184-0.478-0.71-0.837-1.108-1.093c-0.183-0.127-0.359-0.318-0.542-0.637
		c-0.04-0.057-0.071-0.12-0.096-0.184c0.008,0.016-0.072-0.168-0.08-0.191c-0.031-0.104-0.056-0.207-0.087-0.303
		c-0.009-0.04-0.056-0.304-0.056-0.304c-0.12-0.98,0.007-1.817,0.23-2.719c0.256-1.028,0.653-2.017,1.156-2.942
		c0.247-0.453,0.534-0.877,0.813-1.307c-0.686,0.008-1.38,0.008-2.073,0.008c-1.22-0.017-2.432-0.04-3.644-0.088
		c-0.542-0.016-1.076-0.049-1.611-0.088c-0.47-0.031-0.98-0.016-1.435-0.119c-0.574-0.137-1.14-0.271-1.706-0.423
		c-0.017,0.048-0.04,0.12-0.04,0.136c-0.016,0.056-0.023,0.104-0.04,0.159v0.008c-0.016,0.112-0.08,0.486-0.08,0.431
		c-0.087,0.9-0.023,1.834,0.088,2.734c0.088,0.727,0.343,1.953,0.511,2.887c0.072,0.43,0.151,0.861,0.223,1.292
		c0.04,0.271,0.097,0.542,0.088,0.821c-0.008,0.23-0.048,0.357-0.127,0.525c0.016-0.016,0.016-0.023,0.023-0.031
		c-0.016,0.023-0.04,0.088-0.056,0.119c-0.04,0.12-0.104,0.215-0.167,0.303c0.263,0.191,0.653,0.304,1.044,0.391
		c0.558,0.128,1.124,0.184,1.706,0.199c1.125,0.032,2.248-0.079,3.373-0.119c0.207,0,0.422-0.008,0.63-0.008
		c0.996,0,2.192,0,3.046,0.574c0.096,0.063,0.183,0.136,0.271,0.207c0.184,0.176,0.168,0.455,0.016,0.63
		c-0.031,0.04-0.071,0.071-0.111,0.096c-1.203,0.726-2.941,0.741-4.313,0.853c-0.733,0.057-1.475,0.112-2.208,0.12
		c0.414,1.706,0.821,3.396,1.427,5.056c0.821,2.271,1.555,4.568,2.328,6.864c0.854,2.544,1.85,5.007,2.847,7.495
		c0.255,0.621,0.438,1.913,0.997,2.232c0.766,0.43,1.841,0.51,2.424,1.26c0.056-0.08,0.127-0.145,0.215-0.191
		c0.063-0.031,0.136-0.064,0.224-0.08c1.267-0.256,2.519,0.088,3.779,0.255c-0.758-0.741-1.699-1.243-2.464-2.009
		c-0.773-0.773-1.26-1.723-1.324-2.822c-0.063-1.108,0.247-2.232,0.606-3.27c0.279-0.829,0.693-1.643,1.235-2.504
		c2.09-3.316,5.812-5.66,9.504-7.184c3.771-1.562,7.767-2.384,11.793-2.91c1.77-0.23,3.563-0.383,5.35-0.406
		c0.255-0.271,0.526-0.518,0.821-0.75c0.518-0.398,1.092,0.24,0.957,0.766c0.957,0.032,1.914,0.111,2.854,0.231
		c0.12-0.351,0.248-0.701,0.383-1.053c0.024-0.071,0.048-0.144,0.08-0.215c0.191-0.494,0.406-1.013,0.662-1.515
		C92.417,107.51,91.946,107.461,91.477,107.381L91.477,107.381z"/>
	<path fill="#90B33D" d="M112.302,35.249c-1.172,0.565-2.464,1.036-3.764,1.188c-0.581,0.062-1.18,0.07-1.762,0.047
		c-0.096-0.008-0.183-0.008-0.271-0.016c-0.04-0.008-0.072-0.008-0.097-0.008c-0.023-0.008-0.047-0.008-0.071-0.017
		c-0.231-0.031-0.462-0.087-0.686-0.135c-1.037-0.247-1.683-0.574-2.607-1.101c-0.558-0.319-1.116-0.701-1.626-1.141
		c-0.12,0.654-0.295,1.308-0.367,1.979c-0.023,0.278-0.207,0.445-0.414,0.518c-0.359,0.119-0.806-0.057-0.742-0.518
		c0.008-0.064,0.016-0.129,0.024-0.191c0.111-0.861,0.255-1.795,0.733-2.512c-0.559-0.606-1.036-1.301-1.34-2.057
		c-0.335-0.822-0.422-1.771-0.255-2.632c0.191-1.013,0.741-1.946,1.092-2.902c0.009-0.017,0.017-0.04,0.017-0.056
		c-0.901,0.701-1.714,1.49-2.504,2.297c-0.59,0.605-1.172,1.227-1.77,1.833c0.398,1.746,0.717,3.509,0.98,5.278
		c0.224,1.482,0.398,2.982,0.542,4.488c0.112,0,0.216-0.008,0.327-0.008c0.391-0.023,0.829,0.168,1.204,0.264
		c0.646,0.176,1.283,0.343,1.937,0.486c1.308,0.271,2.64,0.446,3.979,0.375c1.029-0.057,2.058-0.239,3.03-0.574
		c0.071-0.024,0.446-0.176,0.463-0.176c-0.009,0-0.009,0-0.009,0c0.152-0.063,0.304-0.135,0.455-0.215
		c0.343-0.176,0.686-0.359,1.005-0.566c0.008,0,0.008,0,0.008,0c0.184-0.119,0.358-0.239,0.534-0.359
		c0.04-0.031,0.215-0.167,0.215-0.167c0.024-0.008,0.04-0.032,0.064-0.048c0.295-0.248,0.59-0.502,0.869-0.781
		c0.303-0.311,0.598-0.631,0.868-0.965c0.017-0.023,0.064-0.088,0.104-0.135l0,0c0.008-0.017,0.023-0.025,0.023-0.033
		c0.008-0.016,0.016-0.023,0.024-0.031l0,0l0.008-0.008l0,0c0,0,0,0,0-0.008c0.016-0.017,0.031-0.04,0.048-0.064
		c0.104-0.143,0.207-0.287,0.303-0.43c0.23-0.367,0.463-0.734,0.662-1.117c0.087-0.184,0.183-0.358,0.263-0.541
		C113.274,34.738,112.772,35.025,112.302,35.249L112.302,35.249z"/>
	<path fill="#90B33D" d="M104.536,20.515c0.51-0.151,1.028-0.271,1.555-0.343c0.726-0.096,1.435-0.119,2.137-0.08
		c0.144-0.701,0.542-1.396,0.806-2.073c-0.224,0.04-0.438,0.184-0.606,0.304c-0.311,0.207-0.598,0.358-0.948,0.454
		c-0.04-0.024-0.176-0.088-0.207-0.104c-0.112-0.056-0.232-0.12-0.344-0.184c-0.494-0.279-0.757-0.471-1.132-0.909
		c-0.351-0.406-0.67-0.797-0.869-1.299c-0.215-0.559-0.454-1.268-0.494-1.874c-0.256,0.391-0.438,0.829-0.479,1.3
		c-0.111,1.18,0.231,2.297,0.423,3.443C104.44,19.565,104.536,20.053,104.536,20.515L104.536,20.515z"/>
	<path fill="#90B33D" d="M88.638,82.896c-0.351,0.533-0.829,0.98-1.252,1.459c-0.805,0.917-1.65,1.57-2.695,2.16
		c-2.112,1.181-4.257,1.539-6.761,1.396c-0.303-0.017-0.605-0.04-0.909-0.079c-0.111,0.486-0.191,0.973-0.199,1.475
		c-0.023,0.789-1.244,0.789-1.228,0c0.008-0.559,0.08-1.101,0.191-1.643c-1.938-0.318-3.907-0.908-5.709-1.643
		c-0.471-0.191-0.957-0.414-1.436-0.662c-0.144,0.041-0.294,0.008-0.406-0.111c-0.04-0.047-0.088-0.104-0.12-0.16
		c-1.467-0.797-2.901-1.793-4.065-2.806c-3.637-3.165-5.94-7.312-7.28-11.896c-1.402-4.809-1.515-9.879-0.693-14.846
		c1.388-8.404,2.504-17.119,5.366-25.195c-0.167,0.016-0.358-0.072-0.383-0.256c-0.111-0.732,0.207-1.538,0.438-2.232
		c0.247-0.732,0.55-1.411,0.917-2.096c0.191-0.368,0.733-0.24,0.846,0.087c0.398-0.869,0.828-1.73,1.283-2.575
		c0.933-1.738,2.081-3.293,3.221-4.889c-0.383,0.248-0.765,0.512-1.14,0.782c-1.005,0.726-1.962,1.507-2.862,2.336
		c-3.421,3.149-6.115,7.001-8.117,11.218l0,0c-0.056,0.12-0.119,0.24-0.175,0.367c-2.91,6.267-4.449,13.068-5.67,19.838
		c-1.322,7.367-2.392,14.805-1.729,22.301c0.151,1.785,0.383,3.547,0.773,5.293c0.375,1.684,0.965,3.342,1.595,4.944
		c1.148,2.926,2.671,5.646,4.122,8.419c1.834-0.047,3.66-0.088,5.485-0.143c0.12-0.359,0.239-0.718,0.343-1.077
		c0.224-0.798,1.403-0.462,1.236,0.343c-0.048,0.231-0.088,0.455-0.128,0.678c0.463-0.008,0.925-0.031,1.388-0.047
		c3.874-0.16,7.741-0.072,11.617,0.047c2.646,0.088,5.293,0.184,7.948,0.207c0-0.159,0.04-0.318,0.128-0.479
		c0.614-1.139,1.388-2.176,2.105-3.252c0.223-0.344,0.445-0.678,0.669-1.021c0.486-0.741,0.957-1.49,1.42-2.248
		c1.14-1.857,2.216-3.779,3.102-5.771c-0.032,0.031-0.064,0.062-0.097,0.111C89.388,81.78,89.013,82.33,88.638,82.896L88.638,82.896
		z M53.093,49.321L53.093,49.321c0.112-0.55,0.145-1.124,0.431-1.61c0.176-0.311,0.646-0.318,0.821,0
		c0.344,0.613,0.279,1.331,0.2,2.01c-0.064,0.582-0.239,1.355-0.829,1.602c-0.248,0.104-0.543,0.08-0.679-0.176
		C52.727,50.573,52.975,49.92,53.093,49.321L53.093,49.321z M53.429,70.57L53.429,70.57c-0.08,0.605-0.176,1.211-0.295,1.809
		c-0.104,0.471-0.152,1.006-0.527,1.34c-0.167,0.152-0.406,0.08-0.485-0.127c-0.168-0.463,0.039-0.988,0.144-1.451
		c0.119-0.559,0.23-1.125,0.311-1.691C52.639,69.972,53.484,70.083,53.429,70.57L53.429,70.57z M56.705,84.762L56.705,84.762
		c-0.159,0.231-0.55,0.231-0.63-0.08c-0.144-0.581-0.063-1.18,0.008-1.77c0.072-0.654,0.128-1.315,0.208-1.978
		c0.071-0.581,0.973-0.614,0.94,0C57.176,82.115,57.423,83.758,56.705,84.762L56.705,84.762z"/>
	<path fill="#90B33D" d="M48.86,43.413c-0.758-0.04-1.46,0.168-2.161,0.454c-0.806,0.328-1.635,0.543-2.456,0.807
		c-1.291,0.422-2.496,0.525-3.851,0.47c-0.239-0.009-0.486-0.024-0.726-0.048c-0.08-0.008-0.16-0.016-0.239-0.031
		c-0.072-0.008-0.184-0.017-0.216-0.024c-0.565-0.088-1.124-0.208-1.682-0.343c-1.133-0.287-2.217-0.694-3.301-1.116
		c-0.104-0.04-0.199-0.08-0.304-0.12c-0.008-0.008-0.247-0.104-0.263-0.111c-0.271-0.119-0.534-0.239-0.797-0.367
		c-0.566-0.278-1.124-0.574-1.675-0.9c-1.021-0.598-1.993-1.268-2.799-1.938s-1.595-1.404-2.288-2.201
		c0.096,0.447,0.127,0.885-0.048,1.363c-0.08,0.208-0.312,0.271-0.486,0.128c-0.582-0.494-0.63-1.124-0.773-1.833
		c-0.144-0.727-0.279-1.443-0.558-2.129c-0.072-0.168-0.032-0.312,0.056-0.415c-0.423-1.052-0.614-2.153-0.559-3.284
		c0.064-1.309,0.391-2.783,1.061-3.908c0.056-0.096,0.063-0.191,0.04-0.271c-0.271,0.224-0.534,0.478-0.797,0.757
		c-0.064,0.144-0.168,0.264-0.296,0.327c-0.079,0.097-0.159,0.185-0.239,0.288c-0.278,0.334-0.653,0.868-0.964,1.387
		c0,0.008,0,0.008,0,0.008c-0.024,0.031-0.048,0.072-0.064,0.104c-0.318,0.551-0.613,1.108-0.86,1.691
		c0,0.007-0.136,0.366-0.16,0.414c-0.056,0.158-0.111,0.311-0.167,0.462c-0.097,0.304-0.2,0.614-0.287,0.925
		c-0.168,0.63-0.311,1.26-0.415,1.906c-0.072,0.462-0.144,1.188-0.159,1.857c-0.008,0.63,0,1.268,0.063,1.905
		c0.048,0.526,0.136,1.061,0.303,1.755c0.145,0.582,0.319,1.163,0.542,1.721c0.112,0.295,0.128,0.336,0.319,0.727
		c0.12,0.246,0.247,0.494,0.391,0.733c0.136,0.239,0.279,0.47,0.431,0.693c0.079,0.112,0.151,0.224,0.231,0.335
		c0.032,0.039,0.056,0.072,0.071,0.088v0.008c0.009,0.008,0.024,0.023,0.032,0.04c1.332,1.634,3.03,2.782,4.815,3.452
		c2.145,0.805,4.274,1.172,6.451,1.291c2.344,0.137,4.712,0.025,7.048-0.238c2.137-0.239,4.266-0.654,6.402-0.797
		c0.071-0.383,0.151-0.773,0.224-1.156c0.159-0.758,0.318-1.516,0.486-2.266C48.43,45.144,48.637,44.274,48.86,43.413L48.86,43.413z
		"/>
	<path fill="#DDE67E" d="M92.138,34.818c-0.693-5.215-1.905-10.844-5.31-15.021c-1.276-1.555-3.11-2.711-5.119-2.918
		c-0.957-0.104-1.978,0.023-2.91,0.247c-0.534,0.136-1.053,0.351-1.555,0.573c-0.582,0.264-1.021,0.758-1.499,1.156
		c-0.215,0.184,0.023,0.479,0.247,0.432c0.654-0.137,1.323-0.128,1.978-0.24c0.574-0.104,1.172-0.135,1.754-0.111
		c0.479,0.008,0.829,0.096,1.315,0.256c0.008,0.008,0.216,0.088,0.224,0.088c0.079,0.039,0.159,0.071,0.239,0.111
		c0.247,0.127,0.494,0.238,0.733,0.375c0.207,0.111,0.406,0.246,0.598,0.383c0.024,0.016,0.04,0.023,0.056,0.039
		c0.008,0.008,0.017,0.008,0.032,0.023c0.096,0.072,0.184,0.152,0.279,0.224c0.406,0.351,0.773,0.741,1.108,1.156
		c0.016,0.016,0.031,0.032,0.04,0.048c0.016,0.008,0.023,0.023,0.031,0.039c0.08,0.104,0.16,0.208,0.239,0.312
		c0.151,0.216,0.295,0.438,0.438,0.662c0.319,0.502,0.606,1.028,0.861,1.562c0.128,0.255,0.247,0.519,0.358,0.773
		c0.009,0.017,0.009,0.024,0.016,0.032c0.009,0.023,0.024,0.056,0.049,0.119c0.048,0.136,0.104,0.271,0.159,0.406
		c0.23,0.598,0.431,1.205,0.63,1.818c0.383,1.204,0.686,2.424,0.94,3.66c0.678,3.205,0.98,6.395,1.108,9.703
		c0.096,2.646,0.088,5.311,0.128,7.965c0.024,1.34,0.032,2.751,0.239,4.082c0.096,0.63,0,1.268,0.159,1.891
		c0.088,0.334,0.071,0.693,0.144,1.027c0.071,0.336,0.191,0.662,0.279,0.988c0.184,0.631,1.1,0.631,1.283,0
		c0.503-1.737,0.694-3.547,0.854-5.349c0.159-1.843,0.295-3.668,0.351-5.518C92.72,42.153,92.616,38.454,92.138,34.818
		L92.138,34.818z"/>
	<path fill="#DDE67E" d="M90.472,62.788c0-0.255-0.04-0.494-0.08-0.741c-0.016-0.136-0.104-0.264-0.159-0.391
		c-0.048-0.096-0.017-0.032,0.008,0.031c-0.319-0.726-1.276-0.973-1.746-0.207c-0.399,0.646-0.55,1.562-0.511,2.328
		c0.009,0.264,0.017,0.551,0.097,0.806c0.039,0.087,0.079,0.183,0.119,0.278c-0.063-0.15-0.08-0.158-0.056-0.039
		c0.016,0.072,0.023,0.143,0.04,0.215c0.047,0.351,0.47,0.726,0.797,0.805c0.391,0.096,0.67-0.096,0.949-0.342
		c0.23-0.191,0.279-0.486,0.342-0.758c-0.079,0.334,0.128-0.414,0.145-0.535C90.487,63.744,90.479,63.282,90.472,62.788
		L90.472,62.788z"/>
	<path fill="#DDE67E" d="M38.463,33.24c-0.917-0.822-1.93-1.539-2.998-2.13c-1.068-0.589-2.209-1.028-3.381-1.354
		c-1.068-0.304-2.152-0.264-3.245-0.352c-0.678-0.056-0.646,0.957,0,1.037c0.925,0.111,1.866,0.661,2.703,1.052
		c0.965,0.446,1.873,1.013,2.759,1.603c0.846,0.566,1.643,1.221,2.368,1.93c0.773,0.758,1.355,1.882,2.416,2.248
		c0.686,0.231,1.26-0.374,1.315-1.004C40.512,35.05,39.276,33.98,38.463,33.24L38.463,33.24z"/>
	<path fill="#DDE67E" d="M43.686,38.471c-0.383-0.383-0.583-0.646-0.957-0.997c-0.526-0.486-1.371-0.144-1.388,0.573
		c-0.032,0.989,0.973,2.799,2.169,2.393c0.431-0.145,0.693-0.519,0.693-0.973C44.203,39.061,43.956,38.74,43.686,38.471
		L43.686,38.471z"/>
	<path fill="#DDE67E" d="M110.883,25.944c-1.363-0.646-3.125-1.148-4.624-0.718c-0.622,0.184-0.901,1.228-0.2,1.531
		c1.316,0.558,2.583,0.805,3.748,1.586c0.128,0.096,0.143,0.104,0.056,0.032c0.072,0.056,0.136,0.112,0.207,0.167
		c0.136,0.112,0.255,0.232,0.375,0.359c0.04,0.039,0.071,0.072,0.104,0.111c0,0.008,0.023,0.039,0.063,0.104s0.231,0.51,0.12,0.207
		c0.184,0.511,0.358,1.053,0.853,1.348c0.566,0.327,1.491,0.184,1.786-0.471C114.184,28.367,112.422,26.67,110.883,25.944
		L110.883,25.944z"/>
	<path fill="#FBBD92" d="M93.884,97.91c-3.619,0.383-7.224,0.422-10.859,0.311c-1.777-0.056-3.563-0.111-5.35-0.136
		c-1.803-0.024-3.747-0.071-5.518,0.312c-0.559,0.127-0.559,1.012,0,1.132c1.715,0.383,3.54,0.406,5.286,0.558
		c1.857,0.151,3.724,0.256,5.581,0.343c3.604,0.16,7.264,0.263,10.859-0.119c0.654-0.072,1.204-0.495,1.204-1.204
		C95.088,98.508,94.538,97.838,93.884,97.91L93.884,97.91z"/>
	<path fill="#FBBD92" d="M68.697,99.002c-0.088-0.326-0.343-0.518-0.654-0.582c0.016,0,0.023,0,0.04,0.008
		c-0.111-0.016-0.224-0.047-0.327-0.047c-0.111,0-0.231,0.031-0.343,0.047c0.079-0.016,0.159-0.023,0.239-0.031
		c-0.216,0.023-0.414,0.079-0.622,0.119c-0.797,0.176-0.797,1.428,0,1.603c0.191,0.04,0.375,0.071,0.574,0.088
		c0.104,0.017,0.271-0.032,0.391-0.063c0.199-0.064,0.359-0.184,0.494-0.336C68.688,99.584,68.785,99.305,68.697,99.002
		L68.697,99.002z"/>
	<path fill="#603913" d="M122.707,35.289c-0.605-0.98-1.794-1.229-2.83-1.451c-0.742-0.16-1.468-0.224-2.209-0.264
		c0.479-1.913,0.534-3.914,0.056-5.828c-0.311-1.236-0.877-2.408-1.643-3.428c0.016-0.025,0.024-0.049,0.04-0.08
		c0.574-1.436,1.882-2.473,2.28-3.971c0.151-0.574-0.471-1.021-0.98-0.75c-1.236,0.654-2.058,2.073-2.552,3.445
		c-0.199-0.191-0.414-0.375-0.63-0.543c-1.076-0.846-2.232-1.459-3.452-1.857c0.462-0.766,0.733-1.73,0.917-2.408
		c0.805-0.334,1.57-0.725,2.359-1.1c0.966-0.463,2.073-0.773,2.895-1.467c0.558-0.479,0.048-1.229-0.534-1.293
		c-1.084-0.119-2.192,0.559-3.109,1.077c-0.438,0.239-0.869,0.494-1.3,0.749c0.024-0.678-0.048-1.363-0.223-2.025
		c-0.566-2.129-2.432-3.556-4.601-3.699c-0.303-0.016-0.598-0.008-0.886,0.032c-0.008-0.399-0.023-0.798-0.032-1.196
		c-0.023-0.494-0.039-1.148-0.303-1.587c-0.175-0.303-0.414-0.709-0.82-0.709c-0.974,0-1.061,1.642-1.029,2.296
		c0.04,0.67,0.088,1.34,0.128,2.01c-1.028,0.693-1.85,1.746-2.296,2.878c-0.184,0.478-0.287,0.972-0.327,1.468
		c-0.805-0.591-1.539-1.301-2.631-1.125c-0.224,0.031-0.312,0.287-0.271,0.479c0.247,1.348,1.762,2.312,3.046,2.711
		c0.056,0.279,0.119,0.566,0.191,0.846c0.175,0.701,0.422,1.395,0.622,2.088c0.056,0.191,0.111,0.399,0.167,0.614
		c-0.646,0.303-1.26,0.654-1.857,1.044c-0.207-0.287-0.438-0.558-0.733-0.772c-0.231-0.184-0.59-0.479-1.045-0.399
		c-0.422,0.072-0.511,0.431-0.494,0.782c-0.088,0.55,0.207,1.235,0.55,1.675c-0.095,0.078-0.191,0.166-0.286,0.246
		c-1.284,1.108-2.592,2.439-3.509,3.955c-0.319-1.18-0.67-2.345-1.061-3.492c-0.008-0.008-0.008-0.017-0.008-0.024
		c0.064,0,0.136-0.016,0.207-0.032c1.148-0.287,2.385-0.957,3.077-1.938C97.95,21.75,97.472,21,96.89,21.025
		c-1.093,0.047-1.913,0.844-2.942,1.123c-0.136,0.032-0.247,0.088-0.342,0.16c-0.304-0.758-0.622-1.507-0.981-2.24
		c0.184-0.009,0.367-0.023,0.551-0.057c0.51-0.087,1.004-0.238,1.499-0.383c0.446-0.119,0.917-0.255,1.379-0.318
		c0.646-0.088,1.22-0.088,1.738-0.518c0.271-0.225,0.351-0.758,0.136-1.045c-0.773-1.037-2.209-0.742-3.285-0.398
		c-0.55,0.184-1.101,0.398-1.627,0.621c-0.391,0.16-0.805,0.375-1.22,0.511c-0.646-1.124-1.379-2.185-2.24-3.165
		c-0.024-0.033-0.056-0.064-0.08-0.096c0.271-0.112,0.534-0.248,0.766-0.375c0.869-0.463,1.675-1.236,2.137-2.105
		c0.837-1.578,0.247-3.563-1.411-4.312c-1.595-0.711-3.293-0.287-4.784,0.445c0.017-0.031,0.024-0.07,0.032-0.104
		c0.271-0.836,0.279-1.785,0.231-2.654c-0.111-1.85-0.678-4.25-2.225-5.445c-1.961-1.523-4.44-0.24-5.518,1.713
		c-0.853,1.547-1.076,3.645-0.797,5.502c-0.224-0.303-0.463-0.59-0.71-0.869c-1.053-1.188-2.982-2.878-4.664-1.873
		c-1.396,0.828-1.068,3.006-0.646,4.273c0.311,0.916,0.765,1.666,1.419,2.384c0.247,0.279,0.525,0.534,0.813,0.773
		c-0.846,0.239-1.683,0.519-2.496,0.845c-0.04-0.445-0.088-0.9-0.151-1.348c-0.159-1.132-0.279-2.59-1.308-3.293
		c-0.271-0.183-0.599-0.031-0.766,0.2c-0.678,0.948-0.335,2.424-0.175,3.484c0.095,0.622,0.239,1.235,0.39,1.841
		c-0.692,0.336-1.371,0.703-2.032,1.086c-0.718-0.344-1.436-0.703-2.153-1.029c-0.565-0.264-1.14-0.526-1.714-0.758
		c-0.534-0.207-1.141-0.479-1.723-0.414c-0.638,0.071-1.147,0.709-0.772,1.332c0.621,1.004,2.064,1.475,3.109,1.857
		c0.366,0.135,0.733,0.255,1.1,0.358c-2.4,1.635-4.608,3.563-6.546,5.733c-0.327-0.512-0.67-1.014-0.988-1.531
		c-0.71-1.164-1.34-2.424-2.353-3.35c-0.622-0.558-1.482,0-1.339,0.773c0.255,1.372,1.052,2.527,1.81,3.676
		c0.383,0.59,0.837,1.133,1.284,1.667c0.087,0.095,0.175,0.206,0.278,0.311c-1.116,1.411-2.129,2.902-3.014,4.466
		c-0.319,0.572-0.63,1.155-0.933,1.746c-0.176-0.08-0.358-0.16-0.535-0.232c-0.494-0.199-1.004-0.391-1.522-0.533
		c-0.502-0.137-1.482-0.408-1.882,0.087c-0.973,1.228,1.013,1.978,1.898,2.257c0.366,0.119,0.733,0.246,1.1,0.375
		c-0.957,2.104-1.777,4.281-2.479,6.49c-0.136-0.176-0.263-0.336-0.383-0.479c-0.024-0.041-0.056-0.08-0.096-0.112
		c-0.454-1.538-1.555-2.935-2.535-4.161c-0.351-0.439-0.718-0.869-1.093-1.293c0.646-0.549,1.236-1.1,1.811-1.746
		c0.622-0.709,1.842-1.953,1.451-2.998c-0.128-0.342-0.399-0.598-0.79-0.598c-1.092,0.017-1.729,1.309-2.296,2.081
		c-0.479,0.654-0.893,1.34-1.339,2.01c-0.423-0.431-0.861-0.861-1.309-1.284c-1.522-1.427-3.125-2.807-4.863-3.979
		c0.327-0.51,0.638-1.036,0.909-1.61c0.223-0.462,0.406-0.948,0.598-1.427c0.231-0.582,0.271-1.061,0.295-1.675
		c0.024-0.686-0.973-1.188-1.442-0.598c-0.136,0.167-0.319,0.278-0.431,0.47c-0.144,0.271-0.264,0.543-0.383,0.822
		c-0.191,0.453-0.319,0.94-0.471,1.41c-0.184,0.559-0.319,1.148-0.479,1.723c-0.566-0.334-1.155-0.639-1.754-0.917
		c-2.479-1.156-5.263-1.778-7.949-1.268c0.048-0.486,0.071-0.973,0.08-1.459c0.008-0.574-0.056-1.141-0.264-1.675
		c-0.144-0.375-0.582-0.861-1.028-0.82c-0.965,0.096-0.718,1.649-0.67,2.287c0.057,0.742,0.016,1.483,0.048,2.217
		c-1.188,0.486-2.256,1.188-3.197,2.033c-0.111-0.135-0.223-0.271-0.343-0.406c-0.51-0.59-1.635-2.033-2.551-1.5
		c-1.005,0.591,0.565,2.05,0.98,2.48c0.224,0.24,0.446,0.479,0.669,0.726c-0.678,0.806-1.267,1.683-1.762,2.607
		c-0.909,1.683-1.547,3.532-1.873,5.429c-0.846-0.215-1.69-0.397-2.544-0.572c-0.973-0.191-2.472-0.535-3.269,0.27
		c-0.208,0.217-0.176,0.511,0,0.734c0.343,0.414,0.933,0.542,1.419,0.717c0.542,0.207,1.164,0.264,1.738,0.367
		c0.806,0.151,1.634,0.256,2.439,0.176c-0.239,3.054,0.312,6.163,1.771,8.874c0.247,0.438,0.51,0.86,0.789,1.268
		c-0.303,0.151-0.598,0.343-0.885,0.558c-0.798,0.599-1.754,1.467-1.954,2.473c-0.15,0.789,0.599,1.395,1.332,1.02
		c0.741-0.375,1.188-1.123,1.77-1.705c0.295-0.295,0.606-0.623,0.957-0.894c2.456,2.52,5.9,3.907,9.448,4.386
		c0.375,0.047,0.749,0.087,1.124,0.119c-0.136,0.334-0.255,0.67-0.375,1.005c-0.327,0.909-0.869,1.85-0.686,2.83
		c0.104,0.542,0.894,0.894,1.348,0.55c0.813-0.605,1.053-1.666,1.332-2.6c0.119-0.43,0.247-0.86,0.318-1.299
		c0.017-0.136,0.032-0.256,0.04-0.383c1.962,0.031,3.923-0.136,5.868-0.398c0.622-0.088,1.244-0.176,1.874-0.287
		c0.135,0.51,0.287,1.021,0.446,1.53c0.104,0.327,0.215,0.654,0.327,0.974c0.159,0.446,0.43,0.709,0.718,1.061
		c0.438,0.51,1.355,0.096,1.331-0.551c-0.056-1.141-0.479-2.344-1.14-3.341c1.379-0.295,2.734-0.687,4.01-1.212
		c-0.446,2.424-0.829,4.863-1.172,7.312c-0.741,0.159-1.468,0.327-2.192,0.565c-1.028,0.344-2.52,0.694-3.094,1.715
		c-0.144,0.247-0.008,0.543,0.255,0.63c1.084,0.358,2.512-0.216,3.563-0.511c0.415-0.111,0.813-0.255,1.205-0.422
		c-0.423,3.492-0.599,7-0.447,10.524c0,0.007,0,0.016,0,0.023c-0.829-0.494-1.921-0.423-2.854-0.383
		c-1.084,0.057-2.503,0.017-3.412,0.687c-0.566,0.414-0.519,1.26,0.191,1.482c1.005,0.327,2.192,0,3.221-0.088
		c0.966-0.08,2.082-0.047,2.919-0.582c0.175,2.607,0.565,5.199,1.163,7.742c-0.972,0.303-1.896,0.742-2.719,1.348
		c-0.47,0.359-0.933,0.766-1.267,1.26c-0.296,0.422-0.813,1.244-0.503,1.77c0.638,1.092,2.018-0.877,2.472-1.315
		c0.709-0.686,1.483-1.22,2.376-1.61c0.271,1.021,0.565,2.025,0.901,3.029c0.391,1.165,0.829,2.305,1.308,3.438
		c-0.63,0.518-1.252,1.044-1.858,1.594c-0.638,0.566-1.435,1.244-1.635,2.121c-0.104,0.471,0.344,1.108,0.886,0.877
		c0.797-0.335,1.26-1.004,1.817-1.635c0.463-0.525,0.925-1.044,1.411-1.555c0.168,0.383,0.344,0.758,0.527,1.133
		c0.669,1.402,1.37,2.799,2.152,4.154c-0.375,0.008-0.758,0.016-1.133,0.023c-1.308,0.031-2.615,0.088-3.915,0.184
		c-1.147,0.088-2.24,0.303-3.332,0.598c-0.534-0.056-1.068,0.184-1.451,0.662c-0.726,0.9-0.789,2.184-0.758,3.301
		c0.04,1.229,0.216,2.455,0.398,3.676c0.04,0.255,0.064,0.518,0.104,0.781c-0.063,0.111-0.111,0.223-0.159,0.351
		c-0.263,0.678-0.207,1.435,0.024,2.104c0.534,1.523,1.842,2.209,3.349,2.48c0.191,0.031,0.375,0.063,0.565,0.087
		c-0.374,1.843,0.367,3.931,0.941,5.63c0.821,2.416,1.57,4.855,2.376,7.279c0.446,1.34,0.925,2.671,1.427,3.986
		c0.479,1.26,1.069,2.487,1.508,3.764c0.374,1.092,0.678,2.279,1.618,3.045c0.933,0.758,2.36,1.133,3.556,1.093
		c0.399-0.009,0.678-0.216,0.813-0.495c1.26,1.197,3.333,1.531,4.983,1.762c1.874,0.271,3.755,0.392,5.645,0.383
		c3.7-0.007,7.455,0.104,11.131-0.406c1.562-0.223,3.054-0.574,4.433-1.379c1.172-0.678,2.138-1.65,2.879-2.767
		c1.658-2.487,2.185-5.485,3.014-8.3c0.846-2.847,1.762-5.669,2.512-8.539c0.319-1.229,0.574-2.473,0.925-3.691
		c0.175-0.599,0.327-1.205,0.558-1.795c0.04-0.104,0.08-0.207,0.12-0.311c0.223-0.023,0.454-0.057,0.678-0.096
		c1.252-0.223,2.359-0.973,3.086-1.985c0.119-0.167,0.215-0.351,0.295-0.542c0.159-0.104,0.303-0.247,0.422-0.406
		c0.566-0.75,0.582-1.795,0.662-2.688c0.175-1.842,0.271-3.803-0.247-5.605c-0.271-0.957-0.789-1.913-1.698-2.392
		c-0.566-0.295-1.124-0.327-1.738-0.199c-0.271,0.063-0.51,0.184-0.693,0.343c-1.269-0.031-2.544,0.04-3.804,0.016
		c-1.833-0.039-3.659-0.039-5.493-0.008c-0.366,0.008-0.733,0.016-1.101,0.016c0.894-1.14,1.675-2.383,2.464-3.596
		c0.191-0.295,0.383-0.59,0.574-0.885c0.383,0.303,0.805,0.551,1.26,0.773c0.526,0.255,1.459,0.67,1.961,0.16
		c0.55-0.551-0.398-1.188-0.806-1.404c-0.55-0.287-1.092-0.518-1.555-0.916c0.471-0.766,0.934-1.531,1.38-2.312
		c0.343-0.598,0.686-1.204,1.021-1.818c0.056,0.072,0.111,0.137,0.168,0.199c0.335,0.406,0.686,0.798,1.027,1.204
		c0.574,0.678,1.229,2.081,2.193,2.226c0.207,0.039,0.415-0.017,0.534-0.216c0.598-1.021-0.526-2.305-1.14-3.03
		c-0.383-0.463-0.79-0.893-1.221-1.307c-0.239-0.225-0.47-0.463-0.718-0.687c1.021-2.025,1.93-4.106,2.655-6.251
		c0.063-0.176,0.12-0.343,0.168-0.518c0.406,0.207,0.797,0.422,1.188,0.652c0.542,0.32,2.097,1.764,2.662,0.807
		c0.59-1.013-1.108-1.945-1.778-2.32c-0.51-0.287-1.036-0.527-1.578-0.734c0.503-1.737,0.917-3.492,1.26-5.27
		c0.295,0,0.59-0.023,0.829-0.04c0.526-0.024,1.053-0.063,1.579-0.12c0.59-0.055,1.251-0.104,1.666-0.59
		c0.255-0.303,0.287-0.717,0-1.02c-0.758-0.79-2.104-0.392-3.046-0.271c-0.23,0.031-0.454,0.056-0.686,0.08
		c0.55-3.396,0.837-6.85,0.956-10.294c0.271,0.278,0.559,0.542,0.822,0.806c0.853,0.837,1.666,1.961,2.807,2.424
		c0.247,0.096,0.542-0.152,0.526-0.406c-0.072-1.221-1.125-2.074-1.962-2.848c-0.471-0.438-0.941-0.869-1.388-1.322
		c-0.247-0.256-0.494-0.52-0.757-0.766c0.023-1.5,0.008-3.007-0.032-4.506c0.175-0.096,0.352-0.207,0.511-0.287
		c0.542-0.278,1.116-0.494,1.674-0.732c0.559-0.248,1.124-0.455,1.698-0.67c0.599-0.216,1.244-0.471,1.515-1.133
		c0.128-0.303-0.079-0.693-0.342-0.845c-0.646-0.374-1.42-0.024-2.042,0.239c-0.686,0.287-1.363,0.59-2.025,0.916
		c-0.342,0.176-0.709,0.367-1.052,0.583c-0.04-0.974-0.096-1.946-0.151-2.919c-0.057-0.885-0.12-1.777-0.191-2.67
		c0.334,0.135,0.67,0.255,1.005,0.366c0.9,0.319,1.825,0.581,2.767,0.798c1.938,0.445,3.906,0.541,5.876,0.254
		c0.701-0.103,1.379-0.279,2.033-0.51c-0.199,1.068-0.359,2.152-0.559,3.229c-0.135,0.719-0.279,1.428-0.438,2.13
		c-0.119,0.574-0.159,1.212,0.159,1.714c0.136,0.207,0.351,0.239,0.566,0.152c1.196-0.52,1.228-2.457,1.348-3.557
		c0.144-1.42,0.199-2.847,0.359-4.266c0-0.016,0-0.032,0-0.049c1.028-0.541,1.984-1.235,2.846-2.041
		c0.224-0.207,0.446-0.43,0.662-0.652c0.574,0.996,1.283,1.904,2.009,2.798c0.781,0.949,1.626,2.104,2.759,2.631
		c0.67,0.319,1.291-0.311,0.98-0.989c-0.479-1.02-1.451-1.762-2.225-2.566c-0.821-0.877-1.579-1.811-2.192-2.846
		c-0.079-0.137-0.176-0.232-0.279-0.296c0.726-0.989,1.332-2.073,1.786-3.222c0.662,0.199,1.324,0.407,1.993,0.582
		c0.909,0.248,1.897,0.798,2.854,0.687C122.571,36.533,123.09,35.902,122.707,35.289z M85.146,11.377
		c0.024-0.056,0.048-0.104,0.071-0.15c0.359-0.248,0.742-0.463,1.125-0.662c0.996-0.51,2.28-1.101,3.412-0.718
		c0.854,0.286,1.22,1.101,0.821,1.841c-0.311,0.574-0.861,0.989-1.427,1.292c-0.503,0.271-1.116,0.335-1.61,0.591
		c-0.918-0.582-1.922-1.005-2.967-1.141C84.787,12.087,84.97,11.729,85.146,11.377z M79.532,5.788
		c0.168-0.948,0.494-1.97,1.124-2.671c0.152-0.168,0.312-0.303,0.431-0.391c0.104-0.072,0.224-0.136,0.327-0.191
		c0,0,0.224-0.096,0.224-0.104c0.079-0.032,0.167-0.049,0.247-0.072c0.023-0.008,0.04-0.008,0.056-0.016c0.008,0,0.016,0,0.023,0
		c0.04-0.008,0.088-0.008,0.136,0c-0.056,0,0.128,0.016,0.208,0.039c0.008,0.009,0.023,0.017,0.031,0.017
		c0.032,0.017,0.111,0.071,0.144,0.088c0.096,0.087,0.184,0.175,0.271,0.278c0.008,0,0.008,0.009,0.016,0.009
		c0,0.008,0,0.008,0,0.008c0.008,0.009,0.008,0.017,0.016,0.017c0.056,0.087,0.104,0.167,0.16,0.254
		c0.079,0.137,0.159,0.287,0.223,0.439c-0.016-0.032,0.072,0.168,0.08,0.199c0.04,0.104,0.071,0.215,0.104,0.318
		c0.072,0.215,0.128,0.431,0.175,0.654c0.057,0.223,0.097,0.454,0.128,0.678c0,0.008,0,0.008,0,0.016s0.008,0.008,0.008,0.016
		c0,0.017,0,0.04,0.009,0.072c0.008,0.111,0.016,0.223,0.031,0.335c0.032,0.438,0.048,0.869,0.04,1.3
		c-0.008,0.143-0.016,0.287-0.032,0.43c0-0.055-0.056,0.304-0.071,0.383c-0.159,0.662-0.463,1.301-0.75,1.906
		c-0.319,0.693-0.757,1.395-0.94,2.152c-0.519-0.096-1.037-0.159-1.562-0.176c-0.231-0.008-0.463-0.008-0.686-0.008
		c-0.017-0.039-0.032-0.08-0.04-0.119c0-0.359-0.104-0.718-0.231-1.068c-0.072-0.455-0.096-0.917-0.079-1.387
		C79.389,8.053,79.333,6.92,79.532,5.788z M73.744,9.098c-0.208-0.399-0.407-1.085-0.455-1.508
		c-0.016-0.127-0.023-0.263-0.023-0.398c0-0.023,0.016-0.264,0.016-0.264c0.017-0.095,0.04-0.191,0.072-0.287
		c0,0.017,0.056-0.096,0.063-0.104c0.111-0.127,0.088-0.119,0.231-0.135c0.351-0.04,0.686,0.063,1.004,0.168
		c0.758,0.246,1.332,0.78,1.866,1.338c0.646,0.67,1.188,1.436,1.643,2.241c0.295,0.526,0.471,1.093,0.686,1.643
		c-0.565,0.024-1.132,0.079-1.69,0.151c-0.654-0.398-1.396-0.709-1.993-1.18C74.47,10.221,74.127,9.847,73.744,9.098z
		 M47.528,49.434c-2.137,0.143-4.266,0.558-6.402,0.797c-2.336,0.264-4.704,0.375-7.048,0.238c-2.177-0.119-4.307-0.486-6.451-1.291
		c-1.785-0.67-3.483-1.818-4.815-3.452c-0.008-0.017-0.023-0.032-0.032-0.04v-0.008c-0.016-0.016-0.039-0.049-0.071-0.088
		c-0.08-0.111-0.152-0.223-0.231-0.335c-0.151-0.224-0.295-0.454-0.431-0.693c-0.144-0.239-0.271-0.487-0.391-0.733
		c-0.191-0.391-0.207-0.432-0.319-0.727c-0.223-0.558-0.397-1.139-0.542-1.721c-0.167-0.694-0.255-1.229-0.303-1.755
		c-0.063-0.638-0.071-1.275-0.063-1.905c0.016-0.67,0.087-1.396,0.159-1.857c0.104-0.646,0.247-1.276,0.415-1.906
		c0.087-0.311,0.19-0.621,0.287-0.925c0.056-0.151,0.111-0.304,0.167-0.462c0.024-0.048,0.16-0.407,0.16-0.414
		c0.247-0.583,0.542-1.141,0.86-1.691c0.017-0.031,0.04-0.072,0.064-0.104c0,0,0,0,0-0.008c0.311-0.519,0.686-1.053,0.964-1.387
		c0.08-0.104,0.16-0.191,0.239-0.288c0.128-0.063,0.231-0.184,0.296-0.327c0.263-0.279,0.525-0.533,0.797-0.757
		c0.518-0.438,1.076-0.798,1.738-1.132c2.639-1.309,5.692-0.551,8.236,0.733c2.631,1.323,4.911,3.245,7.048,5.254
		c1.172,1.093,2.288,2.249,3.349,3.452c0.63,0.719,1.229,1.516,1.873,2.248c0.264,0.407,0.559,0.798,0.886,1.173
		c0.303,0.351,0.566,0.726,0.781,1.132c0.207,0.391,0.279,0.797,0.606,1.068c-0.176,0.63-0.344,1.26-0.494,1.89
		c-0.224,0.861-0.431,1.73-0.622,2.599c-0.168,0.75-0.327,1.508-0.486,2.266C47.68,48.66,47.6,49.051,47.528,49.434z M89.411,96.746
		c1.315,0.008,2.631,0,3.947-0.057c0.972-0.039,1.984-0.143,2.918-0.438c0.039,0.071,0.111,0.223,0.143,0.286
		c0.032,0.104,0.064,0.208,0.097,0.319c0.039,0.176,0.079,0.358,0.104,0.542c0,0,0.008,0,0.008,0.008
		c0.008,0.128,0.023,0.255,0.032,0.383c0.071,0.917,0.071,1.833,0.023,2.751c-0.04,0.813-0.215,1.643-0.199,2.447
		c-0.112,0.247-0.231,0.455-0.367,0.605c-0.031,0.024-0.063,0.057-0.096,0.088c0.032-0.031-0.167,0.128-0.199,0.145
		c-0.144,0.111-0.311,0.199-0.479,0.271c0.12-0.063-0.366,0.112-0.454,0.136c-0.264,0.072-0.542,0.119-0.806,0.167
		c-0.023,0-0.048,0.009-0.063,0.009c-0.008,0-0.008,0-0.008,0c-0.009,0-0.017,0-0.017,0.008c-0.119,0.008-0.239,0.023-0.358,0.031
		c-0.247,0.016-0.494,0.032-0.741,0.049c-0.486,0.023-0.98,0.016-1.476,0.047c-0.533,0.04-1.028,0.072-1.396,0.104
		c-0.398,0.04-0.828,0.128-1.203,0.286c-0.231-0.016-0.455-0.023-0.678-0.031c-1.013-0.04-2.033,0.088-3.038,0.176
		c-1.299,0.111-2.599,0.246-3.899,0.35c-1.291,0.104-2.583,0.096-3.874,0.088c-1.045-0.008-2.472-0.271-3.421,0.271
		c-0.031,0.023-0.063,0.04-0.096,0.064c-0.199,0.127-0.199,0.391,0,0.525c0.447,0.295,0.957,0.359,1.499,0.375
		c0.67,0.023,1.34,0.056,2.018,0.08c0.566,0.023,1.132,0.039,1.69,0.048c0.805,0.007,1.61,0.007,2.407-0.024
		c2.305-0.08,4.609-0.494,6.913-0.479c0.048,0.048,0.104,0.096,0.159,0.135c0.861,0.535,1.985,0.703,2.975,0.869
		c0.47,0.08,0.94,0.129,1.419,0.137c-0.256,0.502-0.471,1.021-0.662,1.515c-0.032,0.071-0.056,0.144-0.08,0.215
		c-0.135,0.352-0.263,0.702-0.383,1.053c-0.397,1.165-0.757,2.345-1.188,3.492c-1.315,3.524-2.527,7.032-3.516,10.668
		c-0.336,1.26-0.71,2.32-1.323,3.413c-0.312,0.549-0.519,0.757-0.918,1.203c-0.47,0.511-0.766,0.742-1.252,1.061
		c-1.14,0.718-2.479,0.997-3.938,1.212c-1.754,0.255-3.548,0.263-5.31,0.279c-2.631,0.024-5.271,0.096-7.894-0.032
		c-1.315-0.063-2.599-0.271-3.906-0.43c-0.032-0.009-0.057-0.009-0.088-0.009c-1.261-0.167-2.513-0.511-3.779-0.255
		c-0.088,0.016-0.16,0.049-0.224,0.08c-0.088,0.047-0.159,0.111-0.215,0.191c-0.583-0.75-1.658-0.83-2.424-1.26
		c-0.559-0.319-0.742-1.611-0.997-2.232c-0.997-2.488-1.993-4.951-2.847-7.495c-0.773-2.296-1.507-4.593-2.328-6.864
		c-0.605-1.659-1.013-3.35-1.427-5.056c0.733-0.008,1.475-0.063,2.208-0.12c1.372-0.111,3.11-0.127,4.313-0.853
		c0.04-0.024,0.08-0.056,0.111-0.096c0.152-0.175,0.168-0.454-0.016-0.63c-0.088-0.071-0.175-0.144-0.271-0.207
		c-0.854-0.574-2.05-0.574-3.046-0.574c-0.208,0-0.423,0.008-0.63,0.008c-1.125,0.04-2.248,0.151-3.373,0.119
		c-0.582-0.016-1.148-0.071-1.706-0.199c-0.391-0.087-0.781-0.199-1.044-0.391c0.063-0.088,0.127-0.183,0.167-0.303
		c0.016-0.031,0.04-0.096,0.056-0.119c-0.008,0.008-0.008,0.016-0.023,0.031c0.079-0.168,0.119-0.295,0.127-0.525
		c0.009-0.279-0.048-0.551-0.088-0.821c-0.071-0.431-0.15-0.862-0.223-1.292c-0.168-0.934-0.423-2.16-0.511-2.887
		c-0.111-0.9-0.175-1.834-0.088-2.734c0,0.056,0.064-0.318,0.08-0.431v-0.008c0.017-0.056,0.024-0.104,0.04-0.159
		c0-0.016,0.023-0.088,0.04-0.136c0.566,0.151,1.132,0.286,1.706,0.423c0.454,0.104,0.965,0.088,1.435,0.119
		c0.535,0.039,1.069,0.072,1.611,0.088c1.212,0.048,2.424,0.071,3.644,0.088c0.693,0,1.388,0,2.073-0.008c0.016,0,0.032,0,0.048,0
		c1.865-0.016,3.731-0.064,5.597-0.12c1.978-0.048,3.963-0.104,5.94-0.104c3.866-0.009,7.733,0.167,11.601,0.278
		C81.789,96.825,85.6,96.713,89.411,96.746z M93.853,66.4c-0.733,4.775-1.818,9.504-3.66,13.977
		c-0.104,0.246-0.207,0.494-0.318,0.742c-0.886,1.992-1.962,3.914-3.102,5.771c-0.463,0.758-0.934,1.507-1.42,2.248
		c-0.224,0.344-0.446,0.678-0.669,1.021c-0.718,1.076-1.491,2.113-2.105,3.252c-0.088,0.16-0.128,0.319-0.128,0.479
		c-2.655-0.023-5.302-0.119-7.948-0.207c-3.876-0.119-7.743-0.207-11.617-0.047c-0.463,0.016-0.925,0.039-1.388,0.047
		c0.04-0.223,0.08-0.446,0.128-0.678c0.167-0.805-1.013-1.141-1.236-0.343c-0.104,0.359-0.223,0.718-0.343,1.077
		c-1.825,0.055-3.651,0.096-5.485,0.143c-1.451-2.773-2.974-5.493-4.122-8.419c-0.63-1.603-1.22-3.261-1.595-4.944
		c-0.391-1.746-0.622-3.508-0.773-5.293c-0.662-7.496,0.407-14.934,1.729-22.301c1.221-6.77,2.76-13.571,5.67-19.838
		c0.056-0.127,0.119-0.247,0.175-0.367c2.002-4.217,4.696-8.068,8.117-11.218c0.9-0.829,1.857-1.61,2.862-2.336
		c0.375-0.271,0.757-0.534,1.14-0.782c0.901-0.589,1.834-1.131,2.799-1.626c0.455,0.208,1.092-0.063,1.26-0.598
		c1.108-0.503,2.256-0.925,3.429-1.268c0.741-0.208,1.49-0.391,2.256-0.534c0.774-0.151,1.563-0.256,2.336-0.319
		c1.372-0.12,2.768-0.224,4.146-0.207c0.854,0.319,1.627,0.765,2.248,1.331c1.412,1.3,2.281,2.584,3.174,4.354
		c0.526,1.061,0.781,1.674,1.156,2.672c0.383,1.012,0.709,2.041,1.012,3.068c0.574,1.994,1.029,4.02,1.428,6.053
		c0.303,1.555,0.543,3.117,0.773,4.68c0,0.008,0,0.016,0,0.023c0,0.041,0.008,0.104,0.024,0.208c0.023,0.199,0.048,0.399,0.063,0.59
		c0.048,0.398,0.088,0.798,0.135,1.196c0.089,0.877,0.176,1.746,0.256,2.623c0.151,1.706,0.279,3.412,0.375,5.127
		C95.017,52.623,94.889,59.662,93.853,66.4z M103.954,15.707c0.04-0.471,0.223-0.909,0.479-1.3c0.247-0.375,0.55-0.71,0.86-0.981
		c0.056-0.055,0.104-0.087,0.184-0.135c0.231-0.04,0.455-0.144,0.614-0.335c0.144-0.048,0.295-0.088,0.438-0.12
		c0.048-0.016,0.096-0.023,0.151-0.031c-0.119,0.023,0.152-0.008,0.184-0.008c0.168-0.008,0.335,0,0.502,0.016
		c-0.167-0.008,0.271,0.072,0.343,0.096c0.04,0.016,0.08,0.031,0.12,0.039c-0.008,0-0.008,0-0.016,0
		c0.023,0.017,0.175,0.08,0.199,0.088c0.143,0.08,0.278,0.168,0.414,0.271c-0.104-0.072,0.224,0.215,0.279,0.271
		c0.032,0.031,0.063,0.072,0.096,0.111c-0.063-0.08,0.104,0.152,0.119,0.168c0.104,0.159,0.191,0.326,0.271,0.494
		c-0.008-0.009-0.008-0.009-0.008-0.009c0,0.024,0.128,0.359,0.151,0.431c0.136,0.479,0.127,0.63,0.119,1.173
		c-0.007,0.581-0.143,1.14-0.295,1.698c-0.039,0.127-0.08,0.246-0.127,0.374c-0.264,0.678-0.662,1.372-0.806,2.073
		c-0.702-0.039-1.411-0.016-2.137,0.08c-0.526,0.071-1.045,0.191-1.555,0.343c0-0.462-0.096-0.949-0.159-1.364
		C104.186,18.004,103.843,16.887,103.954,15.707z M114.67,31.382c-0.008,0.056-0.008,0.12-0.016,0.184
		c-0.008,0.024-0.049,0.303-0.063,0.366c-0.145,0.797-0.383,1.571-0.678,2.32v0.008c-0.032,0.064-0.064,0.129-0.088,0.191
		c-0.009,0.008-0.017,0.024-0.024,0.041c-0.08,0.183-0.176,0.357-0.263,0.541c-0.199,0.383-0.432,0.75-0.662,1.117
		c-0.096,0.143-0.199,0.287-0.303,0.43c-0.017,0.024-0.032,0.048-0.048,0.064c0,0.008,0,0.008,0,0.008l-0.008,0.008
		c-0.009,0.008-0.017,0.016-0.024,0.031c0,0.008-0.016,0.017-0.023,0.033c-0.04,0.047-0.088,0.111-0.104,0.135
		c-0.271,0.334-0.565,0.654-0.868,0.965c-0.279,0.279-0.574,0.533-0.869,0.781c-0.024,0.016-0.04,0.04-0.064,0.048
		c0,0-0.175,0.136-0.215,0.167c-0.176,0.12-0.351,0.24-0.534,0.359c0,0,0,0-0.008,0c-0.319,0.207-0.662,0.391-1.005,0.566
		c-0.151,0.08-0.303,0.151-0.455,0.215c0,0,0,0,0.009,0c-0.017,0-0.392,0.151-0.463,0.176c-0.973,0.335-2.001,0.518-3.03,0.574
		c-1.339,0.071-2.671-0.104-3.979-0.375c-0.653-0.144-1.291-0.311-1.937-0.486c-0.375-0.096-0.813-0.287-1.204-0.264
		c-0.111,0-0.215,0.008-0.327,0.008c-0.144-1.506-0.318-3.006-0.542-4.488c-0.264-1.77-0.582-3.532-0.98-5.278
		c0.598-0.606,1.18-1.228,1.77-1.833c0.79-0.807,1.603-1.596,2.504-2.297c0.318-0.247,0.646-0.479,0.988-0.701
		c1.148-0.75,2.399-1.372,3.724-1.746c1.235-0.352,2.711-0.359,3.668-0.168c1.299,0.247,2.344,0.789,3.437,1.594
		c0.023,0.025,0.198,0.16,0.215,0.176c0.104,0.088,0.207,0.184,0.303,0.271c0.199,0.184,0.383,0.375,0.566,0.574
		c0.048,0.064,0.104,0.119,0.151,0.184c0,0,0.008,0.008,0.016,0.016c0.032,0.04,0.128,0.16,0.144,0.191
		c0.176,0.238,0.327,0.486,0.479,0.741c0.088,0.168,0.176,0.335,0.255,0.503c0,0.008,0,0.008,0,0.008
		c0.009,0.008,0.009,0.008,0.009,0.008c0.023,0.047,0.079,0.184,0.096,0.223c0.039,0.112,0.079,0.232,0.119,0.344
		c0.079,0.238,0.144,0.47,0.2,0.709c0.031,0.119,0.056,0.24,0.079,0.367c0.008,0.048,0.04,0.254,0.048,0.326
		c0,0.008,0,0.008,0,0.008c0.048,0.432,0.056,0.869,0.056,1.309C114.71,30.879,114.694,31.135,114.67,31.382z M109.949,29.166
		c0.71,0.558,0.312,1.889,0.136,2.622c-0.23,0.974-0.565,1.914-0.829,2.87c-0.19,0.702-1.18,0.399-1.068-0.286
		c0.168-0.989,0.392-1.97,0.566-2.95c0.128-0.75,0.04-1.818,0.709-2.32C109.615,28.99,109.814,29.062,109.949,29.166z
		 M105.971,16.377c0.16-0.295,0.296-0.599,0.367-0.926c0.08-0.326,0.12-0.701,0.383-0.925c0.224-0.184,0.582-0.19,0.726,0.097
		c0.358,0.677-0.311,1.649-0.686,2.216C106.434,17.325,105.7,16.902,105.971,16.377z M105.27,25.736
		c0.184,0.16,0.256,0.471,0.184,0.703c-0.311,1.004-0.838,2.359-1.714,2.996c-0.256,0.184-0.591-0.062-0.591-0.342
		c-0.016-0.534,0.224-1.061,0.383-1.562c0.168-0.494,0.343-0.997,0.534-1.475c0.136-0.32,0.344-0.512,0.694-0.535
		C104.982,25.514,105.11,25.602,105.27,25.736z M101.538,32.984c-0.008,0.367-0.056,0.726-0.119,1.084
		c-0.12,0.654-0.295,1.308-0.367,1.979c-0.023,0.278-0.207,0.445-0.414,0.518c-0.359,0.119-0.806-0.057-0.742-0.518
		c0.008-0.064,0.016-0.129,0.024-0.191c0.111-0.861,0.255-1.795,0.733-2.512c0.136-0.191,0.287-0.375,0.478-0.535
		C101.283,32.682,101.546,32.762,101.538,32.984z M90.104,39.451c0.312,0.916,0.407,2.67-0.605,3.213
		c-0.264,0.144-0.526,0.008-0.639-0.256c-0.191-0.479,0.024-0.98,0.097-1.459c0.079-0.454,0.143-0.908,0.199-1.371
		C89.212,39.052,89.913,38.916,90.104,39.451z M89.275,51.004c0.12,0.63,0.263,1.252,0.071,1.897
		c-0.143,0.494-0.318,1.028-0.797,1.292c-0.239,0.135-0.534,0.016-0.605-0.248c-0.264-0.9,0.391-1.905,0.383-2.814
		C88.327,50.597,89.172,50.453,89.275,51.004z M81.494,123.838c-0.072-1.322,0.565-2.52,1.013-3.739
		c0.502-1.363,0.964-2.751,1.482-4.114c0.781-2.025,1.61-4.313,3.149-5.932c0.255-0.271,0.526-0.518,0.821-0.75
		c0.518-0.398,1.092,0.24,0.957,0.766c-0.024,0.096-0.072,0.191-0.151,0.279c-0.766,0.797-1.284,1.842-1.715,2.854
		c-0.55,1.275-1.004,2.591-1.435,3.907c-0.455,1.371-0.917,2.742-1.428,4.098c-0.438,1.148-0.893,2.4-2.033,3.014
		C81.853,124.381,81.51,124.174,81.494,123.838z M86.549,69.518c-0.128,0.598-0.199,1.252-0.59,1.73
		c-0.152,0.184-0.438,0.07-0.494-0.128c-0.176-0.599,0.071-1.26,0.191-1.851C85.768,68.68,86.669,68.928,86.549,69.518z M83.814,21
		c-0.191,1.293-0.495,2.584-0.869,3.836c-0.184,0.63-0.383,1.252-0.551,1.89c-0.144,0.565-0.278,1.164-0.806,1.491
		c-0.223,0.144-0.525,0.047-0.653-0.176c-0.327-0.526-0.136-1.156,0.048-1.707c0.207-0.621,0.414-1.251,0.661-1.857
		c0.495-1.219,0.981-2.432,1.324-3.707C83.12,20.211,83.886,20.467,83.814,21z M80.489,59.375c0.175,1.316,0.167,2.95-0.789,3.963
		c-0.144,0.152-0.415,0.08-0.463-0.119c-0.295-1.252,0.247-2.568,0.224-3.844C79.437,58.689,80.409,58.738,80.489,59.375z
		 M79.484,129.57c0.056,0.176,0.184,0.304,0.335,0.399c0.199,0.144,0.494,0.12,0.702,0c0.104-0.056,0.175-0.128,0.223-0.208
		c0.059-0.037,0.11-0.068,0.162-0.109c0.212-0.148,0.376-0.336,0.444-0.592c0.096-0.358-0.009-0.75-0.271-1.013
		c-0.462-0.462-1.315-0.383-1.635,0.208c-0.056,0.111-0.104,0.23-0.144,0.342c-0.087,0.256-0.031,0.606,0.128,0.846
		C79.444,129.482,79.461,129.531,79.484,129.57z M79.461,129.491c0,0.008,0.008,0.024,0.016,0.04
		c-0.016-0.023-0.023-0.04-0.023-0.057C79.453,129.482,79.461,129.482,79.461,129.491z M80.84,129.707
		c0.02-0.016,0.034-0.027,0.049-0.039c-0.007,0.004-0.01,0.01-0.017,0.015C80.864,129.69,80.848,129.699,80.84,129.707z
		 M80.889,129.668c0.007-0.005,0.011-0.012,0.018-0.016c0.004-0.004,0.01-0.006,0.014-0.01
		C80.91,129.652,80.898,129.66,80.889,129.668z M78.711,73.512c-0.023,1.061-0.127,2.121-0.327,3.166
		c-0.183,0.996-0.366,2.018-1.021,2.83c-0.143,0.176-0.479,0.08-0.518-0.136c-0.184-0.957,0.096-1.882,0.295-2.814
		c0.215-1.005,0.438-2.018,0.558-3.046C77.778,72.89,78.728,72.85,78.711,73.512z M75.944,37.242
		c0.112-0.854,0.271-1.707,0.526-2.527c0.184-0.59,0.327-1.403,0.973-1.635c0.111-0.04,0.271,0.023,0.319,0.128
		c0.271,0.59-0.136,1.204-0.304,1.778c-0.223,0.74-0.391,1.49-0.494,2.256C76.885,37.888,75.856,37.896,75.944,37.242z
		 M77.093,85.95c0.287,0.518,0.119,1.061-0.008,1.61c-0.024,0.088-0.048,0.184-0.064,0.271c-0.111,0.486-0.191,0.973-0.199,1.475
		c-0.023,0.789-1.244,0.789-1.228,0c0.008-0.559,0.08-1.101,0.191-1.643c0.031-0.143,0.063-0.287,0.104-0.438
		c0.128-0.542,0.255-1.061,0.733-1.403C76.766,85.719,77.005,85.791,77.093,85.95z M76.327,18.035
		c-0.327,1.012-0.582,2.049-0.9,3.07c-0.279,0.908-0.606,1.929-1.308,2.606c-0.2,0.198-0.566,0.063-0.566-0.231
		c0.008-1.005,0.431-1.994,0.749-2.926c0.319-0.941,0.687-1.866,1.069-2.783C75.609,17.197,76.534,17.404,76.327,18.035z
		 M72.5,51.992c-0.279,1.467-0.917,2.814-0.925,4.338c-0.008,0.766-1.204,0.766-1.188,0c0.031-1.683,0.478-3.365,1.618-4.633
		C72.221,51.458,72.556,51.721,72.5,51.992z M69.686,80.751c0.287,0.71,0.071,1.763-0.031,2.496
		c-0.089,0.653-0.232,1.729-0.894,2.073c-0.032,0.016-0.072,0.031-0.12,0.039c-0.144,0.041-0.294,0.008-0.406-0.111
		c-0.04-0.047-0.088-0.104-0.12-0.16c-0.382-0.621-0.183-1.633-0.095-2.295c0.095-0.71,0.088-1.547,0.398-2.209
		C68.705,79.979,69.478,80.266,69.686,80.751z M66.025,39.107c-0.127,0.519-0.087,0.996,0.057,1.508
		c0.223,0.757-0.934,1.068-1.164,0.318c-0.344-1.076-0.375-3.125,1.021-3.484c0.215-0.064,0.423,0.104,0.43,0.318
		C66.377,38.246,66.138,38.653,66.025,39.107z M65.34,50.494c0.017,0.78-0.462,1.562-0.686,2.295
		c-0.255,0.814-0.406,1.635-0.454,2.48c-0.032,0.598-0.909,0.605-0.94,0c-0.041-0.926,0-1.897,0.223-2.807
		c0.207-0.806,0.494-1.881,1.3-2.289C65.029,50.047,65.34,50.199,65.34,50.494z M63.211,68.92c0.104,1.163,0.359,3.053-0.733,3.834
		c-0.159,0.111-0.383,0.024-0.479-0.127c-0.351-0.543-0.238-1.117-0.167-1.723c0.071-0.661,0.191-1.315,0.263-1.984
		C62.167,68.202,63.147,68.193,63.211,68.92z M61.577,30.305c-0.04,0.025-0.088,0.033-0.136,0.041
		c-0.167,0.016-0.358-0.072-0.383-0.256c-0.111-0.732,0.207-1.538,0.438-2.232c0.247-0.732,0.55-1.411,0.917-2.096
		c0.191-0.368,0.733-0.24,0.846,0.087c0.031,0.079,0.031,0.167,0,0.271c-0.304,0.806-0.407,1.658-0.654,2.48
		C62.414,29.213,62.167,29.963,61.577,30.305z M68.849,106.258c-0.599,0.525-1.723,0.391-2.472,0.358
		c-0.901-0.04-1.794-0.096-2.695-0.151c-1.882-0.119-3.771,0.008-5.661-0.111c-0.111,0-0.167-0.096-0.159-0.176
		c0-0.08,0.056-0.151,0.159-0.151c1.818,0,3.612-0.392,5.438-0.312c0.367,0.017,0.742,0.048,1.109,0.064
		c0.533,0.031,1.061,0.056,1.586,0.048c0.446,0,0.901-0.017,1.348-0.064c0.415-0.056,0.805-0.183,1.204-0.031
		C68.912,105.803,69.039,106.09,68.849,106.258z M57.231,80.935c-0.056,1.181,0.191,2.823-0.526,3.827
		c-0.159,0.231-0.55,0.231-0.63-0.08c-0.144-0.581-0.063-1.18,0.008-1.77c0.072-0.654,0.128-1.315,0.208-1.978
		C56.362,80.354,57.264,80.32,57.231,80.935z M56.291,61.146c-0.176,0.151-0.503,0.104-0.551-0.151
		c-0.167-0.789,0.207-1.698,0.439-2.456c0.183-0.59,1.084-0.343,0.933,0.263C56.921,59.559,56.904,60.588,56.291,61.146z
		 M54.345,47.711c0.344,0.613,0.279,1.331,0.2,2.01c-0.064,0.582-0.239,1.355-0.829,1.602c-0.248,0.104-0.543,0.08-0.679-0.176
		c-0.311-0.573-0.062-1.227,0.056-1.825c0.112-0.55,0.145-1.124,0.431-1.61C53.699,47.4,54.17,47.393,54.345,47.711z M53.429,70.57
		c-0.08,0.605-0.176,1.211-0.295,1.809c-0.104,0.471-0.152,1.006-0.527,1.34c-0.167,0.152-0.406,0.08-0.485-0.127
		c-0.168-0.463,0.039-0.988,0.144-1.451c0.119-0.559,0.23-1.125,0.311-1.691C52.639,69.972,53.484,70.083,53.429,70.57z
		 M37.721,40.352c0.136,0.726,0.654,1.643,0.256,2.353c-0.072,0.135-0.247,0.215-0.391,0.159c-0.854-0.279-1.005-1.403-1.132-2.16
		c-0.057-0.359,0.087-0.711,0.462-0.814C37.235,39.801,37.649,40.001,37.721,40.352z M33.328,31.158
		c0.144,0.71,0.295,1.443-0.08,2.113c-0.104,0.184-0.375,0.215-0.518,0.064c-0.487-0.511-0.551-1.173-0.694-1.826
		c-0.111-0.511-0.351-1.156-0.231-1.683c0.032-0.144,0.185-0.255,0.335-0.255C32.89,29.588,33.2,30.537,33.328,31.158z
		 M26.104,37.943c0.096,0.447,0.127,0.885-0.048,1.363c-0.08,0.208-0.312,0.271-0.486,0.128c-0.582-0.494-0.63-1.124-0.773-1.833
		c-0.144-0.727-0.279-1.443-0.558-2.129c-0.072-0.168-0.032-0.312,0.056-0.415c0.199-0.247,0.661-0.303,0.853,0.032
		c0.375,0.686,0.639,1.427,0.806,2.192C26.009,37.505,26.064,37.729,26.104,37.943z"/>
</g>
</svg>
