<?xml version="1.0" encoding="utf-8"?>
<!-- Generator: Adobe Illustrator 16.0.0, SVG Export Plug-In . SVG Version: 6.00 Build 0)  -->
<!DOCTYPE svg PUBLIC "-//W3C//DTD SVG 1.1//EN" "http://www.w3.org/Graphics/SVG/1.1/DTD/svg11.dtd">
<svg version="1.1" xmlns="http://www.w3.org/2000/svg" xmlns:xlink="http://www.w3.org/1999/xlink" x="0px" y="0px"
	 width="321.473px" height="321.475px" viewBox="0 0 321.473 321.475" enable-background="new 0 0 321.473 321.475"
	 xml:space="preserve">
<g>
	<path fill="#F49908" d="M168.977,162.677L42.859,288.793L32.68,278.613l126.385-126.394
		C161.502,156.436,164.911,160.016,168.977,162.677z"/>
	<path fill="#BE1931" d="M129.353,128.469v153.302C56.871,237.049-41.079,153.648,22.824,97.794
		c23.651-20.675,59.407-19.011,81.025,3.786L129.353,128.469z"/>
	<path fill="#BE1931" d="M129.361,281.779c0,0-0.008,0-0.008-0.009V128.469l0.008,0.009l25.54-26.896
		c21.611-22.797,57.357-24.46,81.008-3.786C299.793,153.622,201.691,237.175,129.361,281.779z"/>
	<path fill="#F49908" d="M292.609,39.054l-80.692,80.692c-2.653-4.074-6.242-7.476-10.459-9.92l80.963-80.962L292.609,39.054z"/>
	<path fill="#BE1931" d="M0.001,321.474c0.099,0.16,26.948-20.13,63.564-30.593l-32.973-32.972
		C20.131,294.525-0.159,321.375,0.001,321.474z"/>
	<path fill="#FFBE08" d="M259.256,14.038c-1.859-2.575-3.197-3.914-3.197-3.914c-42.871,47.438-31.43,76.535-31.43,76.535
		l57.793-57.793C281.116,10.058,271.059,0,271.059,0C266.581,4.901,262.672,9.582,259.256,14.038z"/>
	<path fill="#FFBE08" d="M321.473,50.417c0,0-10.057-10.06-28.865-11.365l-57.793,57.792c0,0,29.097,11.443,76.535-31.427
		c0,0-1.34-1.339-3.914-3.198C311.893,58.801,316.573,54.894,321.473,50.417z"/>
</g>
</svg>
