<?xml version="1.0" encoding="utf-8"?>
<!-- Generator: Adobe Illustrator 16.0.0, SVG Export Plug-In . SVG Version: 6.00 Build 0)  -->
<!DOCTYPE svg PUBLIC "-//W3C//DTD SVG 1.1//EN" "http://www.w3.org/Graphics/SVG/1.1/DTD/svg11.dtd">
<svg version="1.1"  xmlns="http://www.w3.org/2000/svg" xmlns:xlink="http://www.w3.org/1999/xlink" x="0px" y="0px"
	 width="109.08px" height="109.08px" viewBox="0 0 109.08 109.08" enable-background="new 0 0 109.08 109.08" xml:space="preserve">
<g>
	<path fill="#6DC3CC" d="M98.745,25.375c0,0,10.337,4.494,10.337,29.961s-8.09,28.368-8.09,28.368
		C68.784,73.667,62.028,66.271,62.028,66.271V46.347C62.028,46.347,76.726,30.917,98.745,25.375z"/>
	<path fill="#6DC3CC" d="M10.334,25.375c0,0-10.336,4.494-10.336,29.961s8.089,28.368,8.089,28.368
		c32.208-10.037,38.962-17.434,38.962-17.434V46.347C47.049,46.347,32.355,30.917,10.334,25.375z"/>
	<path fill="#8FD8DB" d="M65.806,41.326H54.54H43.274c0,0-3.38,6.308-3.38,15.546s3.38,14.42,3.38,14.42H54.54h11.266
		c0,0,3.381-5.182,3.381-14.42C69.187,47.633,65.806,41.326,65.806,41.326z"/>
</g>
</svg>
