<?xml version="1.0" encoding="utf-8"?>
<!-- Generator: Adobe Illustrator 16.0.0, SVG Export Plug-In . SVG Version: 6.00 Build 0)  -->
<!DOCTYPE svg PUBLIC "-//W3C//DTD SVG 1.1//EN" "http://www.w3.org/Graphics/SVG/1.1/DTD/svg11.dtd">
<svg version="1.1" xmlns="http://www.w3.org/2000/svg" xmlns:xlink="http://www.w3.org/1999/xlink" x="0px" y="0px"
	 width="115.34px" height="115.34px" viewBox="0 0 115.34 115.34" enable-background="new 0 0 115.34 115.34" xml:space="preserve">
<g>
	<path display="none" fill="#FFFFFF" d="M115.373,41.639c-0.17-2.514-0.596-4.933-1.597-7.131
		c3.329-4.786,3.668-11.438-1.071-16.558c-3.993-4.314-9.073-4.427-14.427-4.427c-11.899,0-23.799,0-35.697,0
		c-9.32,0-18.616,0.36-27.887,1.359c-6.498,0.7-15.462,0.392-18.847,7.171c-2.866,5.74-0.401,11.521,4.521,14.479
		c0.397,0.336,0.83,0.623,1.3,0.84c-2.742,3.935-5.077,8.304-7.491,12.017c-1.038,1.595-2.032,3.819-3.352,5.263
		c0.02-0.069-0.265,0.07-0.887,0.279c-1.482,0.499-2.973,1.432-4.382,2.111c-3.924,1.891-7.248,4.18-8.797,8.524
		c-0.684,1.919-0.857,3.916-0.889,5.928c-6.872,7.106-3.162,21.857,7.723,22.916c4.721,0.459,9.577,0.229,14.355,0.155
		c3.01,3.558,7.321,6.006,12.145,6.896c0.824,0.275,1.757,0.413,2.813,0.355c1.047,0.057,1.974-0.079,2.793-0.35
		c4.844-0.886,9.174-3.337,12.193-6.922c8.324,0,16.647,0,24.971,0c3.011,3.569,7.33,6.025,12.162,6.917
		c0.825,0.275,1.758,0.413,2.814,0.355c1.048,0.057,1.974-0.079,2.794-0.35c4.84-0.885,9.169-3.334,12.188-6.916
		c5.244-0.002,10.548-0.333,13.812-5.238c2.656-3.993,3.035-9.624,1.142-14.106c0.797-0.557,1.552-1.233,2.253-2.07
		c2.742-3.275,2.813-7.153,2.813-11.178C122.841,54.554,123.493,44.446,115.373,41.639z"/>
	<g>
		<g>
			<g>
				<circle fill="#794833" cx="32.906" cy="82.442" r="10.474"/>
				<path fill="#462B17" d="M32.906,94.317c-6.548,0-11.875-5.327-11.875-11.875c0-6.548,5.327-11.875,11.875-11.875
					c6.548,0,11.875,5.327,11.875,11.875C44.782,88.99,39.454,94.317,32.906,94.317z M32.906,73.37
					c-5.002,0-9.073,4.069-9.073,9.072s4.07,9.073,9.073,9.073s9.072-4.07,9.072-9.073S37.909,73.37,32.906,73.37z"/>
			</g>
			<g>
				<g>
					<path fill="#FB796B" d="M106.684,76.612c-0.055,0-0.101-0.039-0.101-0.094c0-1.652,0-24.396,0-35.418
						c0-3.265-2.647-5.907-5.912-5.907H38.073c-2.527,0-4.883,1.278-6.261,3.396L18.115,59.646
						c-0.745,1.145-1.789,2.063-3.019,2.656l-7.68,3.7c-1.607,0.774-2.628,2.4-2.628,4.184v6.327c0,0.055-0.046,0.099-0.101,0.099
						C2.871,76.613,1.4,78.085,1.4,79.9v2.553c0,1.762,1.428,3.19,3.189,3.19h0.197h13.754c-0.56-2.522-0.529-5.265,0.55-8.154
						c2.083-5.578,7.312-9.543,13.263-9.761c8.383-0.306,15.275,6.399,15.275,14.714c0,1.101-0.13,2.169-0.359,3.201h26.205
						c-0.56-2.522-0.529-5.265,0.55-8.154c2.084-5.578,7.313-9.543,13.264-9.761c8.383-0.306,15.275,6.399,15.275,14.714
						c0,1.101-0.131,2.169-0.359,3.201h4.378h0.197c1.761,0,3.189-1.428,3.189-3.19V79.9
						C109.97,78.085,108.499,76.613,106.684,76.612z"/>
					<path fill="#462B17" d="M106.779,87.044h-6.32l0.377-1.705c0.218-0.975,0.327-1.95,0.327-2.898c0-3.65-1.448-7.057-4.076-9.592
						c-2.629-2.534-6.096-3.861-9.747-3.721c-5.272,0.192-10.096,3.749-12.001,8.851c-0.899,2.406-1.062,4.814-0.496,7.36
						l0.38,1.705H45.524l0.377-1.705c0.217-0.975,0.327-1.95,0.327-2.898c0-3.651-1.448-7.057-4.076-9.592
						c-2.628-2.534-6.101-3.861-9.746-3.721c-5.273,0.192-10.096,3.749-12.001,8.851c-0.898,2.405-1.061,4.812-0.495,7.36
						l0.379,1.705H4.59c-2.532,0-4.591-2.06-4.591-4.591V79.9c0-2.133,1.433-3.939,3.387-4.505v-5.209
						c0-2.307,1.343-4.444,3.421-5.446l7.68-3.7c1-0.481,1.849-1.228,2.453-2.158l13.697-21.057
						c1.644-2.526,4.424-4.034,7.437-4.034h62.597c4.032,0,7.313,3.278,7.313,7.309v34.295c1.953,0.566,3.387,2.372,3.387,4.505
						v2.554C111.371,84.985,109.312,87.044,106.779,87.044z M103.861,84.242h2.918c0.986,0,1.788-0.802,1.788-1.788V79.9
						c0-1.04-0.846-1.886-1.885-1.887c-0.828,0-1.502-0.671-1.502-1.495V41.1c0-2.484-2.022-4.506-4.51-4.506H38.074
						c-2.061,0-3.962,1.031-5.087,2.759L19.29,60.41c-0.884,1.359-2.124,2.451-3.585,3.155l-7.681,3.7
						c-1.115,0.537-1.835,1.684-1.835,2.921v6.327c0,0.827-0.674,1.5-1.503,1.5C3.647,78.014,2.802,78.86,2.802,79.9v2.554
						c0,0.986,0.802,1.788,1.788,1.788h12.296c-0.283-2.466,0.016-4.896,0.894-7.244c2.296-6.149,8.134-10.438,14.525-10.671
						c4.417-0.161,8.614,1.438,11.793,4.504c3.182,3.068,4.934,7.191,4.934,11.61c0,0.594-0.036,1.196-0.105,1.8h22.893
						c-0.282-2.465,0.017-4.895,0.894-7.243c2.297-6.149,8.135-10.438,14.524-10.671c4.421-0.161,8.614,1.438,11.795,4.505
						c3.181,3.068,4.934,7.191,4.934,11.609C103.966,83.036,103.931,83.637,103.861,84.242z"/>
				</g>
				<g>
					<circle fill="#794833" cx="87.84" cy="82.442" r="10.474"/>
					<path fill="#462B17" d="M87.84,94.317c-6.547,0-11.875-5.327-11.875-11.875c0-6.548,5.328-11.875,11.875-11.875
						c6.548,0,11.875,5.327,11.875,11.875C99.715,88.99,94.388,94.317,87.84,94.317z M87.84,73.37c-5.003,0-9.071,4.069-9.071,9.072
						s4.068,9.073,9.071,9.073s9.072-4.07,9.072-9.073S92.843,73.37,87.84,73.37z"/>
				</g>
			</g>
			<g>
				<path fill="#B0E2F1" d="M25.63,58.472l9.69-14.897c0.612-0.94,1.658-1.508,2.779-1.508h10.202c1.261,0,2.284,1.022,2.284,2.284
					v14.762c0,1.261-1.022,2.284-2.284,2.284H27.216C25.714,61.396,24.811,59.73,25.63,58.472z"/>
				<path fill="#462B17" d="M48.301,62.798H27.217c-1.21,0-2.319-0.661-2.896-1.724c-0.577-1.062-0.524-2.353,0.135-3.366
					l9.689-14.897c0.875-1.343,2.353-2.145,3.955-2.145h10.202c2.032,0,3.685,1.653,3.685,3.685v14.762
					C51.986,61.145,50.333,62.798,48.301,62.798z M38.1,43.468c-0.65,0-1.25,0.326-1.605,0.871l-9.69,14.897
					c-0.139,0.213-0.072,0.406-0.02,0.501c0.052,0.096,0.178,0.257,0.433,0.257h21.084c0.486,0,0.882-0.396,0.882-0.883V44.35
					c0-0.486-0.396-0.882-0.882-0.882H38.1z"/>
			</g>
			<g>
				<path fill="#B0E2F1" d="M72.166,61.396H58.749c-1.262,0-2.284-1.022-2.284-2.284V44.351c0-1.262,1.022-2.284,2.284-2.284h13.417
					c1.261,0,2.283,1.022,2.283,2.284v14.762C74.449,60.374,73.427,61.396,72.166,61.396z"/>
				<path fill="#462B17" d="M72.166,62.798H58.749c-2.032,0-3.685-1.653-3.685-3.686V44.35c0-2.032,1.653-3.685,3.685-3.685h13.417
					c2.032,0,3.686,1.653,3.686,3.685v14.762C75.852,61.145,74.198,62.798,72.166,62.798z M58.749,43.468
					c-0.486,0-0.882,0.396-0.882,0.882v14.762c0,0.487,0.396,0.883,0.882,0.883h13.417c0.486,0,0.883-0.396,0.883-0.883V44.35
					c0-0.486-0.396-0.882-0.883-0.882H58.749z"/>
			</g>
			<g>
				<path fill="#B0E2F1" d="M96.03,61.396H82.613c-1.262,0-2.284-1.022-2.284-2.284V44.351c0-1.262,1.022-2.284,2.284-2.284H96.03
					c1.261,0,2.283,1.022,2.283,2.284v14.762C98.313,60.374,97.291,61.396,96.03,61.396z"/>
				<path fill="#462B17" d="M96.03,62.798H82.613c-2.032,0-3.686-1.653-3.686-3.686V44.35c0-2.032,1.653-3.685,3.686-3.685H96.03
					c2.031,0,3.685,1.653,3.685,3.685v14.762C99.715,61.145,98.062,62.798,96.03,62.798z M82.613,43.468
					c-0.486,0-0.883,0.396-0.883,0.882v14.762c0,0.487,0.396,0.883,0.883,0.883H96.03c0.486,0,0.882-0.396,0.882-0.883V44.35
					c0-0.486-0.396-0.882-0.882-0.882H82.613z"/>
			</g>
			<g>
				<path fill="#794833" d="M110.825,49.674h-4.242V68.67h4.242c1.721,0,3.115-1.395,3.115-3.114V52.788
					C113.94,51.068,112.546,49.674,110.825,49.674z"/>
				<path fill="#462B17" d="M110.826,70.072h-5.646v-21.8h5.646c2.489,0,4.515,2.026,4.515,4.516v12.768
					C115.341,68.046,113.315,70.072,110.826,70.072z M107.984,67.27h2.842c0.944,0,1.712-0.769,1.712-1.713V52.788
					c0-0.945-0.768-1.713-1.712-1.713h-2.842V67.27z"/>
			</g>
			<g>
				<path fill="#A0D29D" d="M102.739,31.767H59.848c-11.563,0-23.111-0.863-34.545-2.583l0,0c-2.397-0.36-2.397-3.816,0-4.177l0,0
					c11.435-1.719,22.982-2.583,34.545-2.583h42.892c2.579,0,4.671,2.092,4.671,4.671l0,0
					C107.41,29.676,105.318,31.767,102.739,31.767z"/>
				<path fill="#462B17" d="M102.738,33.168H59.848c-11.594,0-23.287-0.874-34.753-2.598c-1.762-0.265-2.992-1.694-2.992-3.475
					s1.229-3.209,2.992-3.474c11.464-1.724,23.157-2.598,34.753-2.598h42.891c3.349,0,6.073,2.724,6.073,6.073
					C108.812,30.444,106.087,33.168,102.738,33.168z M59.848,23.826c-11.458,0-23.01,0.863-34.337,2.567
					c-0.527,0.079-0.605,0.474-0.605,0.702s0.078,0.624,0.605,0.703c11.329,1.704,22.881,2.567,34.336,2.567h42.891
					c1.804,0,3.271-1.467,3.271-3.27c0-1.803-1.467-3.27-3.271-3.27H59.848z"/>
			</g>
		</g>
		<path fill="#FDFAF3" d="M95.546,26.363L95.546,26.363c0-0.774,0.628-1.401,1.401-1.401h5.535c0.774,0,1.402,0.627,1.402,1.401l0,0
			c0,0.774-0.628,1.401-1.402,1.401h-5.535C96.174,27.765,95.546,27.137,95.546,26.363z"/>
		<path fill="#FDFAF3" d="M61.288,46.012L61.288,46.012c0-0.774,0.628-1.401,1.401-1.401h5.536c0.773,0,1.401,0.627,1.401,1.401l0,0
			c0,0.774-0.628,1.401-1.401,1.401h-5.536C61.916,47.414,61.288,46.786,61.288,46.012z"/>
		<path fill="#FDFAF3" d="M69.627,66.478L69.627,66.478c0-0.774,0.627-1.401,1.401-1.401h5.535c0.774,0,1.401,0.627,1.401,1.401l0,0
			c0,0.774-0.627,1.401-1.401,1.401h-5.535C70.254,67.879,69.627,67.252,69.627,66.478z"/>
		<path fill="#FDFAF3" d="M46.71,66.478L46.71,66.478c0-0.774,0.627-1.401,1.401-1.401h18.14c0.774,0,1.401,0.627,1.401,1.401l0,0
			c0,0.774-0.627,1.401-1.401,1.401h-18.14C47.337,67.879,46.71,67.252,46.71,66.478z"/>
		<path fill="#FDFAF3" d="M85.152,46.012L85.152,46.012c0-0.774,0.627-1.401,1.401-1.401h5.535c0.774,0,1.401,0.627,1.401,1.401l0,0
			c0,0.774-0.627,1.401-1.401,1.401h-5.535C85.779,47.414,85.152,46.786,85.152,46.012z"/>
		<path fill="#FDFAF3" d="M38.538,46.012L38.538,46.012c0-0.774,0.627-1.401,1.401-1.401h5.536c0.774,0,1.401,0.627,1.401,1.401l0,0
			c0,0.774-0.627,1.401-1.401,1.401h-5.536C39.166,47.414,38.538,46.786,38.538,46.012z"/>
		<path fill="#FDFAF3" d="M9.523,69.816L9.523,69.816c-0.359-0.686-0.095-1.532,0.59-1.892l4.902-2.571
			c0.686-0.359,1.533-0.095,1.892,0.59l0,0c0.359,0.686,0.095,1.533-0.59,1.892l-4.902,2.571
			C10.729,70.766,9.883,70.501,9.523,69.816z"/>
		<path fill="#FDFAF3" d="M67.147,26.363L67.147,26.363c0-0.774,0.627-1.401,1.401-1.401h23.54c0.774,0,1.401,0.627,1.401,1.401l0,0
			c0,0.774-0.627,1.401-1.401,1.401h-23.54C67.774,27.765,67.147,27.137,67.147,26.363z"/>
	</g>
</g>
</svg>
