<?xml version="1.0" encoding="utf-8"?>
<!-- Generator: Adobe Illustrator 16.0.0, SVG Export Plug-In . SVG Version: 6.00 Build 0)  -->
<!DOCTYPE svg PUBLIC "-//W3C//DTD SVG 1.1//EN" "http://www.w3.org/Graphics/SVG/1.1/DTD/svg11.dtd">
<svg version="1.1" xmlns="http://www.w3.org/2000/svg" xmlns:xlink="http://www.w3.org/1999/xlink" x="0px" y="0px"
	 width="134.357px" height="134.357px" viewBox="0 0 134.357 134.357" enable-background="new 0 0 134.357 134.357"
	 xml:space="preserve">
<g>
	<path fill="#FAAB18" d="M56.676,22.779c-5.881-2.771-12.435-7.545-12.435-9.967V2.51c0-1.387-1.124-2.511-2.51-2.511
		s-2.509,1.124-2.509,2.511v53.655c-2.591-1.76-5.98-2.831-9.695-2.831c-8.126,0-14.713,5.107-14.713,11.407
		c0,6.298,6.587,11.406,14.713,11.406c8.125,0,14.713-5.107,14.713-11.406V20.885c3.871,3.288,8.808,5.734,10.296,6.436
		c1.254,0.59,2.749,0.052,3.339-1.201C58.467,24.865,57.93,23.37,56.676,22.779z"/>
	<path fill="#72A5D3" d="M119.542,38.253c0-1.755-1.424-3.179-3.179-3.179h-53.37c-1.755,0-3.178,1.424-3.178,3.179v70.856
		c-3.293-2.271-7.63-3.652-12.385-3.652c-10.297,0-18.642,6.469-18.642,14.449c0,7.979,8.345,14.451,18.642,14.451
		c10.295,0,18.641-6.472,18.641-14.451c0-0.396,0.102-1.836,0.102-2.191v-63.46h47.012V90.23c-3.289-2.256-7.609-3.629-12.348-3.629
		c-10.295,0-18.641,6.471-18.641,14.45c0,7.98,8.346,14.449,18.641,14.449c9.979,0,18.125-6.078,18.618-13.717
		c0.055-0.236,0.087-0.479,0.087-0.732V38.253z"/>
</g>
</svg>
