<?xml version="1.0" encoding="utf-8"?>
<!-- Generator: Adobe Illustrator 16.0.0, SVG Export Plug-In . SVG Version: 6.00 Build 0)  -->
<!DOCTYPE svg PUBLIC "-//W3C//DTD SVG 1.1//EN" "http://www.w3.org/Graphics/SVG/1.1/DTD/svg11.dtd">
<svg version="1.1" xmlns="http://www.w3.org/2000/svg" xmlns:xlink="http://www.w3.org/1999/xlink" x="0px" y="0px"
	 width="512px" height="512px" viewBox="0 0 512 512" enable-background="new 0 0 512 512" xml:space="preserve">
<g id="XMLID_312_">
	<path id="XMLID_317_" fill="#F4D4EE" d="M346.133,266.897c-23.197-36.191-63.228-58.082-106.208-58.082
		c-42.975,0-83.005,21.89-106.201,58.082l-63.86,99.618c-17.489,27.287-15.047,62.81,6,87.443
		c21.074,24.635,55.786,32.569,85.471,19.523l0.02-0.019c50.071-22.008,107.078-22.008,157.164,0.019
		c29.667,13.046,64.379,5.121,85.455-19.514c21.064-24.634,23.507-60.166,6.018-87.453L346.133,266.897z"/>
	<path id="XMLID_316_" fill="#F4D4EE" d="M82.292,257.291c29.356-11.279,42.394-48.373,29.135-82.815
		c-13.267-34.435-47.811-53.221-77.134-41.923C4.96,143.832-8.059,180.917,5.176,215.367
		C18.449,249.792,52.995,268.588,82.292,257.291z"/>
	<path id="XMLID_315_" fill="#F4D4EE" d="M197.59,194.918c38.238,0,69.248-36.41,69.248-81.302c0-44.911-31.01-81.32-69.248-81.32
		c-38.227,0-69.238,36.408-69.238,81.32C128.352,158.508,159.363,194.918,197.59,194.918z"/>
	<path id="XMLID_314_" fill="#F4D4EE" d="M326.699,219.083c36.286,12.058,77.203-12.719,91.364-55.321
		c14.171-42.608-3.786-86.942-40.051-98.999c-36.288-12.057-77.204,12.719-91.354,55.328
		C272.496,162.701,290.436,207.026,326.699,219.083z"/>
	<path id="XMLID_313_" fill="#F4D4EE" d="M491.164,206.858c-25.289-18.685-63.567-9.807-85.535,19.866
		c-21.94,29.681-19.249,68.894,5.992,87.577c25.232,18.695,63.557,9.809,85.536-19.857
		C519.097,264.764,516.397,225.544,491.164,206.858z"/>
</g>
</svg>
