<?xml version="1.0" encoding="utf-8"?>
<!-- Generator: Adobe Illustrator 16.0.0, SVG Export Plug-In . SVG Version: 6.00 Build 0)  -->
<!DOCTYPE svg PUBLIC "-//W3C//DTD SVG 1.1//EN" "http://www.w3.org/Graphics/SVG/1.1/DTD/svg11.dtd">
<svg version="1.1" xmlns="http://www.w3.org/2000/svg" xmlns:xlink="http://www.w3.org/1999/xlink" x="0px" y="0px"
	 width="296.771px" height="296.77px" viewBox="0 0 296.771 296.77" enable-background="new 0 0 296.771 296.77"
	 xml:space="preserve">
<g>
	<g>
		<g>
			<path fill="#FFC91F" d="M148.385-0.002v94.908h-47.253c0-33.717,40.989-15.345,23.627-63.946
				C117.461,10.532,133.227-0.002,148.385-0.002L148.385-0.002z"/>
			<path fill="#FFB000" d="M148.385-0.002v94.908h47.254c0-33.717-40.99-15.345-23.627-63.946
				C179.309,10.532,163.543-0.002,148.385-0.002L148.385-0.002z"/>
		</g>
		<path fill="#FFFFFF" d="M143.116,24.396c0,3.076-2.494,5.57-5.571,5.57s-5.57-2.494-5.57-5.57s2.494-5.57,5.57-5.57
			S143.116,21.32,143.116,24.396L143.116,24.396z"/>
	</g>
	<g>
		<path fill="#B5E0EA" d="M104.082,126.246l-25.497,23.855v125.465c0,0-2.018,21.205,25.497,21.205h44.303V126.246H104.082z"/>
		<path fill="#86D5E2" d="M192.689,126.246l25.497,23.855v125.465c0,0,2.018,21.205-25.497,21.205h-44.304V126.246H192.689z"/>
	</g>
	<path fill="#06C1F4" d="M210.234,115.644c0,5.856-4.747,10.603-10.603,10.603H97.139c-5.855,0-10.603-4.746-10.603-10.603v-12.37
		c0-5.855,4.747-10.603,10.603-10.603h102.492c5.856,0,10.603,4.747,10.603,10.603V115.644z"/>
	<g>
		<rect x="95.642" y="169.656" fill="#06C1F4" width="23.627" height="16.122"/>
		<rect x="95.642" y="200.242" fill="#06C1F4" width="23.627" height="16.122"/>
		<rect x="95.642" y="230.828" fill="#06C1F4" width="23.627" height="16.122"/>
	</g>
	<g>
		<rect x="95.642" y="99.077" fill="#86D5E2" width="7.51" height="20.764"/>
		<rect x="111.972" y="99.077" fill="#86D5E2" width="7.51" height="20.764"/>
		<rect x="128.301" y="99.077" fill="#86D5E2" width="7.51" height="20.764"/>
		<rect x="144.63" y="99.077" fill="#86D5E2" width="7.51" height="20.764"/>
		<rect x="160.96" y="99.077" fill="#86D5E2" width="7.51" height="20.764"/>
		<rect x="177.289" y="99.077" fill="#86D5E2" width="7.51" height="20.764"/>
		<rect x="193.618" y="99.077" fill="#86D5E2" width="7.51" height="20.764"/>
	</g>
</g>
</svg>
