<?xml version="1.0" encoding="utf-8"?>
<!-- Generator: Adobe Illustrator 16.0.0, SVG Export Plug-In . SVG Version: 6.00 Build 0)  -->
<!DOCTYPE svg PUBLIC "-//W3C//DTD SVG 1.1//EN" "http://www.w3.org/Graphics/SVG/1.1/DTD/svg11.dtd">
<svg version="1.1" xmlns="http://www.w3.org/2000/svg" xmlns:xlink="http://www.w3.org/1999/xlink" x="0px" y="0px"
	 width="305.5px" height="305.5px" viewBox="0 0 305.5 305.5" enable-background="new 0 0 305.5 305.5" xml:space="preserve">
<g>
	<path fill="#66BA2B" d="M181.071,293.629c-2.966-10.155-8.243-13.225-17.987-15.878c-3.912-1.064-10.442-2.454-10.98-7.514
		c-0.37-3.465,2.64-7.812,4.021-10.909c2.023-4.527,3.077-9.161,3.598-14.062c0.791-7.445-0.68-20.276-8.928-23.433
		c-6.801-2.605-17.021-3.146-21.993,3.156c-0.078,0.099-0.14,0.201-0.195,0.307c-1.032,0.313-2,0.835-2.698,1.681
		c-0.211,0.255-0.352,0.543-0.441,0.842c-0.181,0.267-0.315,0.576-0.325,0.979c-0.388,18.306-11.758,47.192,1.28,63.243
		c4.329,5.329,13.774,4.22,19.64,3.995c11.214-0.43,22.617,2.005,33.705-0.113C180.758,295.735,181.339,294.546,181.071,293.629z"/>
	<path fill="#66BA2B" d="M162.098,168.328c10.324,2.577,20.699-1.721,30.42-4.855c5.352-1.727,18.316-6.767,20.544,1.911
		c0.733,2.852,1.318,5.215,3.148,7.541c3.919,4.979,17.289,2.293,21.754-0.467c5.791-3.58,9.921-11.516,6.026-18.16
		c-12.768-21.779-49.296-11.371-70.177-10.277c-0.204-0.205-0.454-0.376-0.796-0.473c-6.704-1.887-18.26-1.237-19.988,7.603
		C151.754,157.676,154.856,166.521,162.098,168.328z"/>
	<path fill="#66BA2B" d="M96.319,156.272l-5.45,0.934c-0.312-0.022-0.627-0.055-0.946-0.113c-0.261-0.049-0.549,0.255-0.47,0.514
		c0.694,2.273,2.43,3.777,4.128,5.337c2.597,2.383,4.2,5.572,6.675,8.071c0.164,0.164,0.374,0.164,0.538,0.08
		c0.148-0.011,0.29-0.091,0.355-0.271c1.963-5.408,3.414-11.037,6.265-16.074c0.139-0.248,0.082-0.561-0.206-0.671
		c-2.222-0.845-4.883,0.087-7.021,0.794C98.906,155.299,97.621,155.824,96.319,156.272z"/>
	<path fill="#66BA2B" d="M102.385,148.916c1.165,1.929,2.585,4.363,4.823,5.162c0.29,0.105,0.536-0.097,0.59-0.374
		c1.104-5.684,3.656-10.905,5.674-16.293c0.069-0.181,0.013-0.332-0.093-0.438c-0.071-0.168-0.228-0.307-0.461-0.288
		c-3.505,0.291-6.795,1.679-10.317,1.804c-2.306,0.084-4.601,0.099-6.605,1.379c-0.228,0.144-0.206,0.564,0.024,0.696
		c0.281,0.16,0.543,0.341,0.794,0.526l3.536,4.249C101.049,146.528,101.687,147.761,102.385,148.916z"/>
	<path fill="#66BA2B" d="M109.013,121.857l-5.448,0.935c-0.313-0.021-0.628-0.055-0.948-0.112c-0.261-0.048-0.548,0.255-0.468,0.514
		c0.694,2.271,2.428,3.774,4.126,5.337c2.598,2.381,4.2,5.57,6.675,8.071c0.164,0.164,0.374,0.162,0.538,0.078
		c0.149-0.011,0.29-0.089,0.355-0.271c1.963-5.406,3.414-11.035,6.265-16.073c0.139-0.248,0.082-0.561-0.206-0.67
		c-2.222-0.847-4.881,0.085-7.021,0.796C111.599,120.884,110.314,121.411,109.013,121.857z"/>
	<path fill="#FFE08C" d="M239.027,190.273l1.225,4.787c0.038,0.299,0.075,0.604,0.1,0.926c0.018,0.263,0.188,0.427,0.283,0.263
		c0.82-1.44,1.167-3.591,1.542-5.728c0.572-3.263,1.627-5.873,2.268-9.062c0.042-0.212,0.009-0.406-0.051-0.532
		c-0.027-0.135-0.082-0.24-0.166-0.238c-2.513,0.038-5.038,0.636-7.539-0.287c-0.122-0.045-0.241,0.117-0.243,0.425
		c0,2.377,0.791,4.548,1.411,6.309C238.229,188.188,238.643,189.209,239.027,190.273z"/>
	<path fill="#FFE08C" d="M235.083,187.143c0.609-1.761,1.383-3.939,1.363-6.316c-0.001-0.308-0.122-0.468-0.242-0.425
		c-2.494,0.941-5.023,0.365-7.537,0.343c-0.085-0.001-0.139,0.104-0.164,0.241c-0.058,0.124-0.089,0.318-0.047,0.532
		c0.662,3.185,1.737,5.787,2.333,9.046c0.39,2.133,0.751,4.278,1.584,5.715c0.095,0.164,0.263-0.004,0.281-0.263
		c0.022-0.321,0.057-0.631,0.093-0.93l1.19-4.792C234.313,189.226,234.718,188.199,235.083,187.143z"/>
	<path fill="#FFE08C" d="M223,190.334l1.225,4.783c0.04,0.301,0.075,0.606,0.1,0.928c0.02,0.261,0.189,0.426,0.283,0.261
		c0.82-1.442,1.167-3.59,1.542-5.724c0.572-3.265,1.627-5.875,2.268-9.064c0.042-0.212,0.009-0.408-0.051-0.532
		c-0.027-0.135-0.08-0.241-0.166-0.239c-2.513,0.038-5.038,0.637-7.537-0.288c-0.124-0.042-0.243,0.119-0.243,0.427
		c-0.002,2.377,0.789,4.548,1.411,6.307C222.201,188.247,222.615,189.268,223,190.334z"/>
	<path fill="#FFE08C" d="M164.667,303.571l7.027-0.534c0.436,0.01,0.88,0.026,1.341,0.057c0.375,0.025,0.636-0.142,0.417-0.28
		c-1.936-1.23-4.949-2.038-7.942-2.878c-4.577-1.282-8.142-3.006-12.602-4.353c-0.297-0.09-0.582-0.086-0.77-0.042
		c-0.2,0.007-0.357,0.049-0.366,0.149c-0.335,2.945,0.124,6.008-1.584,8.756c-0.08,0.139,0.133,0.307,0.572,0.365
		c3.397,0.448,6.62-0.069,9.234-0.465C161.559,304.111,163.083,303.819,164.667,303.571z"/>
	<path fill="#EDCB6D" d="M188.632,295.388l7.027-0.532c0.436,0.007,0.88,0.025,1.341,0.057c0.375,0.023,0.636-0.143,0.417-0.283
		c-1.936-1.229-4.949-2.037-7.941-2.876c-4.577-1.283-8.143-3.008-12.603-4.353c-0.297-0.091-0.582-0.088-0.77-0.042
		c-0.2,0.006-0.357,0.049-0.366,0.149c-0.335,2.943,0.124,6.008-1.584,8.757c-0.08,0.137,0.133,0.304,0.572,0.362
		c3.398,0.448,6.62-0.069,9.234-0.463C185.524,295.929,187.048,295.636,188.632,295.388z"/>
	<path fill="#66BA2B" d="M111.966,115.624c1.167,1.926,2.584,4.361,4.823,5.163c0.292,0.103,0.536-0.099,0.591-0.375
		c1.104-5.684,3.656-10.907,5.674-16.294c0.069-0.18,0.013-0.332-0.093-0.436c-0.071-0.171-0.228-0.31-0.461-0.288
		c-3.505,0.292-6.795,1.677-10.317,1.801c-2.306,0.084-4.601,0.103-6.604,1.378c-0.229,0.146-0.208,0.565,0.022,0.696
		c0.281,0.163,0.543,0.343,0.795,0.529l3.536,4.25C110.629,113.233,111.268,114.468,111.966,115.624z"/>
	<path fill="#66BA2B" d="M121.437,78.312c1.788,1.369,3.998,3.121,6.373,3.05c0.31-0.007,0.465-0.284,0.414-0.563
		c-1.042-5.695-0.569-11.488-0.652-17.241c0-0.192-0.109-0.313-0.245-0.37c-0.129-0.133-0.324-0.205-0.536-0.102
		c-3.157,1.548-5.716,4.037-8.95,5.438c-2.118,0.918-4.249,1.77-5.648,3.688c-0.161,0.219,0.013,0.602,0.275,0.642
		c0.319,0.048,0.629,0.121,0.932,0.201l4.841,2.67C119.322,76.575,120.365,77.49,121.437,78.312z"/>
	<path fill="#66BA2B" d="M121.302,55.296c1.396,1.769,3.108,4.009,5.426,4.524c0.303,0.067,0.521-0.164,0.54-0.444
		c0.39-5.778,2.275-11.275,3.607-16.871c0.047-0.19-0.029-0.332-0.146-0.42c-0.093-0.164-0.264-0.28-0.494-0.233
		c-3.441,0.726-6.534,2.51-10.012,3.071c-2.278,0.37-4.553,0.671-6.381,2.188c-0.209,0.173-0.137,0.587,0.109,0.689
		c0.297,0.125,0.58,0.271,0.853,0.424l4.036,3.777C119.68,53.093,120.465,54.235,121.302,55.296z"/>
	<path fill="#66BA2B" d="M128.093,34.958c0.813,2.102,1.788,4.746,3.852,5.922c0.27,0.155,0.547-0.002,0.647-0.268
		c2.074-5.402,5.496-10.104,8.417-15.06c0.1-0.164,0.069-0.324-0.017-0.442c-0.04-0.183-0.169-0.345-0.403-0.367
		c-3.503-0.32-6.985,0.473-10.473-0.014c-2.286-0.319-4.548-0.702-6.743,0.209c-0.251,0.104-0.302,0.52-0.098,0.691
		c0.248,0.205,0.474,0.43,0.691,0.656l2.743,4.799C127.191,32.375,127.605,33.7,128.093,34.958z"/>
	<path fill="#66BA2B" d="M142.422,17.096c-0.8,2.104-1.841,4.725-1.092,6.978c0.097,0.295,0.406,0.364,0.66,0.232
		c5.155-2.632,10.84-3.842,16.326-5.573c0.184-0.057,0.268-0.197,0.285-0.343c0.091-0.16,0.104-0.368-0.055-0.54
		c-2.392-2.581-5.512-4.317-7.781-7.014c-1.487-1.765-2.913-3.56-5.155-4.349c-0.257-0.092-0.574,0.186-0.536,0.448
		c0.047,0.319,0.066,0.636,0.075,0.951l-1.167,5.403C143.477,14.569,142.901,15.83,142.422,17.096z"/>
	<path fill="#66BA2B" d="M159.65,10.093c-1.088,1.972-2.488,4.418-2.062,6.755c0.053,0.306,0.35,0.417,0.62,0.324
		c5.474-1.883,11.272-2.282,16.948-3.227c0.19-0.028,0.293-0.154,0.33-0.297c0.113-0.147,0.155-0.352,0.022-0.545
		c-2.005-2.889-4.851-5.049-6.719-8.034c-1.225-1.956-2.384-3.936-4.493-5.031c-0.24-0.127-0.594,0.103-0.592,0.368
		c0.002,0.321-0.025,0.638-0.06,0.951l-1.914,5.185C161.05,7.741,160.303,8.907,159.65,10.093z"/>
	<path fill="#66BA2B" d="M117.039,97.646c1.52,1.663,3.385,3.777,5.736,4.125c0.306,0.046,0.507-0.198,0.507-0.482
		c-0.024-5.789,1.462-11.409,2.392-17.087c0.033-0.189-0.051-0.328-0.175-0.408c-0.104-0.153-0.284-0.259-0.508-0.193
		c-3.381,0.968-6.339,2.968-9.768,3.777c-2.246,0.532-4.493,0.995-6.21,2.637c-0.197,0.188-0.093,0.595,0.157,0.681
		c0.308,0.102,0.6,0.228,0.882,0.36l4.296,3.481C115.263,95.564,116.129,96.648,117.039,97.646z"/>
	<path fill="#A7F272" d="M42.308,220.807c23.121,36.317,74.016,50.849,113.828,35.399c21.468-8.328,38.917-23.869,46.294-46.193
		c3.999-12.1,5.116-24.374,2.902-36.96c-2.847-16.197-8.361-31.825-8.744-48.392c-0.088-3.807-3.859-5.197-6.58-4.184
		c-1.679-0.352-3.454,0.237-4.448,2.295c-14.615,30.285-9.81,68.945-43.011,88.036c-16.52,9.5-34.586,8.788-53.051,7.264
		c-14.543-1.201-29.814-6.353-44.404-4.121C42.137,214.403,40.819,218.468,42.308,220.807z"/>
	<path fill="#7AC943" d="M1.205,145.992c2.419,9.391,6.241,18.891,9.883,27.852c9.068,22.313,22.269,44.201,41.639,59.088
		c10.054,7.727,20.737,11.692,33.269,13.353c13.481,1.789,27.919,2.633,41.455,0.901c20.466-2.62,40.968-12.674,51.999-30.759
		c13.062-21.421,13.392-48.611,12.291-72.939c-0.204-4.506-1.134-9.515-0.06-13.966c1.613-6.689,7.386-7.241,13.382-7.626
		c14.146-0.908,28.262,0.281,42.408,0.429c10.22,0.107,20.834,0.278,30.491-3.534c4.284-1.691,8.287-4.362,11.651-7.497
		c3.782-3.523,7.956-7.278,11.299-11.22c2.678-3.156,4.415-6.507,3.403-10.721c-1.216-5.053-3.565-9.742-5.055-14.719
		c-2.851-9.519-5.999-20.026-13.339-27.16c-8.506-8.269-18.714-9.083-29.732-11.533c-7.081-1.574-13.153-4.451-18.26-9.721
		c-3.228-3.334-5.993-7.17-9.429-10.298c-8.397-7.645-19.447-7.175-30.188-6.172c-6.992,0.652-13.917,1.751-20.857,2.788
		c-5.878,0.881-11.815,1.056-17.71,1.762c-10.78,1.29-17.731,6.518-23.949,15.234c-3.365,4.721-7.131,9.593-8.589,15.307
		c-1.367,5.359-1.549,10.787-1.684,16.292c-0.286,11.673-1.458,23.55-3.452,35.051c-0.327,1.882-0.688,3.767-1.07,5.649
		c-0.031-0.039-0.071-0.064-0.107-0.097c-0.035,7.104-3.611,13.968-5.565,20.651c-0.605,2.07-1.181,4.058-1.775,6.002
		c0.121-0.204,0.246-0.406,0.365-0.61c-2.251,7.695-4.024,15.493-6.903,23.007c-5.544,14.473-15.3,27.875-31.238,31.512
		c-15.619,3.564-31.236-2.553-44.473-10.646c-6.535-3.991-13.474-9.245-16.798-16.375c-1.945-4.167-3.377-10.654-7.172-13.616
		C2.807,138.131-0.091,140.96,1.205,145.992z"/>
	<path fill="#FFFFFF" d="M267.299,114.112l2.764,4.788c0.087,0.301,0.166,0.611,0.22,0.929c0.044,0.262,0.43,0.426,0.646,0.262
		c1.892-1.436,2.701-3.583,3.578-5.72c1.336-3.259,3.775-5.867,5.263-9.056c0.098-0.211,0.023-0.406-0.111-0.531
		c-0.062-0.136-0.184-0.241-0.377-0.239c-5.752,0.029-11.536,0.616-17.25-0.315c-0.279-0.044-0.552,0.117-0.556,0.425
		c-0.024,2.377,1.77,4.552,3.175,6.312C265.491,112.021,266.43,113.048,267.299,114.112z"/>
	<path fill="#FFFFFF" d="M258.299,110.967c1.405-1.761,3.199-3.936,3.175-6.312c-0.004-0.308-0.277-0.469-0.556-0.425
		c-5.714,0.932-11.498,0.345-17.25,0.315c-0.193-0.002-0.315,0.104-0.377,0.239c-0.135,0.125-0.21,0.32-0.111,0.531
		c1.487,3.188,3.926,5.797,5.262,9.056c0.877,2.137,1.686,4.284,3.578,5.72c0.215,0.164,0.602,0,0.645-0.262
		c0.055-0.317,0.133-0.628,0.221-0.929l2.763-4.788C256.52,113.048,257.457,112.021,258.299,110.967z"/>
	<path fill="#FFFFFF" d="M230.619,114.112l2.763,4.788c0.087,0.301,0.166,0.611,0.221,0.929c0.045,0.262,0.43,0.426,0.645,0.262
		c1.892-1.436,2.702-3.583,3.578-5.72c1.336-3.259,3.775-5.867,5.262-9.056c0.099-0.211,0.024-0.406-0.111-0.531
		c-0.062-0.136-0.184-0.241-0.377-0.239c-5.752,0.029-11.536,0.616-17.249-0.315c-0.281-0.044-0.554,0.117-0.558,0.425
		c-0.024,2.377,1.77,4.552,3.177,6.312C228.811,112.021,229.749,113.048,230.619,114.112z"/>
	<path fill="#FFFFFF" d="M221.618,110.967c1.405-1.761,3.199-3.936,3.175-6.312c-0.004-0.308-0.277-0.469-0.556-0.425
		c-5.714,0.932-11.498,0.345-17.25,0.315c-0.193-0.002-0.315,0.104-0.375,0.239c-0.137,0.125-0.211,0.32-0.113,0.531
		c1.487,3.188,3.926,5.797,5.262,9.056c0.876,2.137,1.686,4.284,3.578,5.72c0.215,0.164,0.601,0,0.645-0.262
		c0.055-0.317,0.133-0.628,0.221-0.929l2.763-4.788C219.839,113.048,220.776,112.021,221.618,110.967z"/>
	<g>
		<g>
			<path fill="#FFE08C" d="M219.407,63.763c-0.115,1.077-0.279,2.154-0.56,3.232c-3.059,11.825-15.125,18.935-26.951,15.874
				c-11.826-3.061-18.933-15.125-15.873-26.949c0.279-1.081,0.656-2.104,1.077-3.101L219.407,63.763z"/>
			<path fill="#333333" d="M209.542,61.211c0.02,1.081-0.093,2.182-0.377,3.279c-1.675,6.478-8.286,10.373-14.764,8.696
				c-6.48-1.675-10.372-8.286-8.694-14.764c0.282-1.1,0.718-2.117,1.261-3.05L209.542,61.211z"/>
		</g>
		<ellipse fill="#FFFFFF" cx="186.99" cy="69.025" rx="5.833" ry="4.55"/>
	</g>
	<path fill="#7AC943" d="M167.344,177.351c10.324,2.575,20.699-1.721,30.419-4.855c5.352-1.729,18.317-6.769,20.544,1.91
		c0.732,2.851,1.317,5.217,3.147,7.54c3.919,4.979,17.289,2.295,21.754-0.465c5.791-3.581,9.921-11.516,6.026-18.161
		c-12.769-21.78-49.296-11.372-70.177-10.278c-0.205-0.202-0.454-0.374-0.797-0.473c-6.704-1.885-18.26-1.237-19.988,7.604
		C157,166.696,160.103,175.542,167.344,177.351z"/>
	<path fill="#7AC943" d="M154.485,302.325c-2.966-10.156-8.243-13.225-17.987-15.877c-3.912-1.065-10.442-2.453-10.98-7.513
		c-0.37-3.467,2.64-7.816,4.021-10.911c2.023-4.527,3.077-9.161,3.598-14.062c0.791-7.445-0.68-20.276-8.928-23.435
		c-6.801-2.603-17.021-3.145-21.993,3.158c-0.078,0.101-0.14,0.203-0.195,0.305c-1.032,0.317-2,0.835-2.698,1.683
		c-0.211,0.257-0.352,0.545-0.441,0.84c-0.18,0.271-0.315,0.58-0.324,0.98c-0.388,18.307-11.758,47.193,1.28,63.242
		c4.329,5.33,13.774,4.222,19.64,3.995c11.214-0.43,22.617,2.007,33.705-0.109C154.171,304.432,154.752,303.241,154.485,302.325z"/>
</g>
</svg>
