<?xml version="1.0" encoding="utf-8"?>
<!-- Generator: Adobe Illustrator 16.0.0, SVG Export Plug-In . SVG Version: 6.00 Build 0)  -->
<!DOCTYPE svg PUBLIC "-//W3C//DTD SVG 1.1//EN" "http://www.w3.org/Graphics/SVG/1.1/DTD/svg11.dtd">
<svg version="1.1" xmlns="http://www.w3.org/2000/svg" xmlns:xlink="http://www.w3.org/1999/xlink" x="0px" y="0px"
	 width="94.63px" height="94.63px" viewBox="0 0 94.63 94.63" enable-background="new 0 0 94.63 94.63" xml:space="preserve">
<g>
	<path fill="#ED1C24" d="M44.713,37.714c-8.184-0.096-17.138-10.389-29.759-1.598c-13.009,9.063-6.817,25.737-3.697,33.08
		c3.867,9.102,10.648,18.971,20.383,23.755c4.629,2.276,10.439,2.156,14.02,0.145c5.655-3.174,9.442-0.477,15.092,0.452
		c8.396,1.381,13.619-7.701,17.089-13.15c5.356-8.412,10.067-18.421,9.752-28.333c-0.27-8.47-5.578-19.97-18.158-20.938
		C51.875,29.774,52.048,37.802,44.713,37.714z"/>
	<path fill="#726658" d="M43.219,35.825c0,0.727-3.925-25.001,3.779-29.943l5.233,4.216C52.231,10.098,43.219,14.749,43.219,35.825z
		"/>
	<path fill="#71BF43" d="M45.287,30.768c0,0,1.671-16.135,18.46-14.899C63.748,15.868,62.366,30.332,45.287,30.768z"/>
	<path fill="#A6CE38" d="M40.75,26.609c0,0-22.755-2.914-20.435-26.61C20.315-0.001,40.717,2.444,40.75,26.609z"/>
</g>
</svg>
