<?xml version="1.0" encoding="utf-8"?>
<!-- Generator: Adobe Illustrator 16.0.0, SVG Export Plug-In . SVG Version: 6.00 Build 0)  -->
<!DOCTYPE svg PUBLIC "-//W3C//DTD SVG 1.1//EN" "http://www.w3.org/Graphics/SVG/1.1/DTD/svg11.dtd">
<svg version="1.1" xmlns="http://www.w3.org/2000/svg" xmlns:xlink="http://www.w3.org/1999/xlink" x="0px" y="0px"
	 width="69.63px" height="69.63px" viewBox="0 0 69.63 69.63" enable-background="new 0 0 69.63 69.63" xml:space="preserve">
<g>
	<g>
		<path fill="#3D9FAA" d="M69.521,56.458l0.108-1.232c0,0-0.134-3.6-0.935-6.369c0,0-17.599-6.794-23.255-21.875l-10.266-5.322
			l0.024,0.148c0,0-7.402,2.871-10.799-2.156c-2.925-4.33-2.478-6.365-1.404-8.17c0.233-0.393-0.042-0.893-0.498-0.916l-5.107-0.257
			c-0.248-0.013-0.484,0.062-0.676,0.218c-1.621,1.312-9.378,7.94-12.052,16.546l-1.877,2.793l-2.449,1.924
			c-0.423,0.332-0.453,0.961-0.066,1.333l4.882,4.688c0.3,0.288,0.759,0.328,1.104,0.097L6.421,37.8
			c0.556-0.372,1.307-0.017,1.372,0.648l0.052,0.533c0.029,0.298,0.208,0.562,0.474,0.699l5.711,2.961
			c0.326,0.169,0.723,0.119,0.997-0.125l0.017-0.015c0.536-0.479,1.389-0.152,1.467,0.562l0.032,0.286
			c0.041,0.376,0.319,0.685,0.689,0.766l4.775,1.05c0.32,0.071,0.654-0.042,0.866-0.292l0.763-0.902
			c0.247-0.292,0.655-0.393,1.009-0.248l0.796,0.325c0.422,0.173,0.644,0.639,0.511,1.076l-0.416,1.367
			c-0.11,0.362,0.023,0.756,0.333,0.976l6.244,4.46c0.277,0.199,0.644,0.219,0.941,0.055l0.876-0.484
			c0.489-0.271,1.102-0.025,1.271,0.506l0.475,1.5c0.086,0.27,0.296,0.483,0.565,0.572l7.953,2.641
			c0.284,0.094,0.596,0.039,0.83-0.149l1.002-0.799c0.493-0.395,1.227-0.16,1.401,0.446l0.241,0.838
			c0.091,0.318,0.353,0.558,0.676,0.623l8.094,1.628c0.386,0.078,0.777-0.11,0.959-0.46l0.302-0.58
			c0.299-0.577,1.095-0.646,1.487-0.129l0.161,0.211c0.198,0.261,0.524,0.391,0.849,0.338l8.591-1.432
			C69.184,57.187,69.487,56.859,69.521,56.458z"/>
		<path fill="#47D7D4" d="M69.606,55.323c0.142-2.066-0.339-4.484-0.911-6.465c0,0-17.659-6.819-23.284-21.956l-10.249-5.313
			l0.036,0.221c0,0-7.402,2.871-10.799-2.156c-3.008-4.454-2.498-6.369-1.377-8.215c0.224-0.37-0.039-0.846-0.47-0.868l-5.162-0.26
			c-0.248-0.013-0.484,0.062-0.676,0.218c-1.621,1.312-9.378,7.94-12.052,16.546l-1.678,2.495c1.674,1.107,2.977,2.604,4.539,3.92
			c1.935,1.629,4.283,3.152,6.58,4.221c2.753,1.282,5.829,1.865,8.704,2.835c0.092,0.031,0.18,0.067,0.271,0.1
			c1.917-2.872,5.255-1.702,7.346,0.852c3.166,3.869,8.143,6.69,12.705,8.575c4.394,1.814,8.986,3.135,13.637,4.11
			C57.72,54.382,69.511,56.706,69.606,55.323z"/>
		<path fill="#566977" d="M45.459,27.041c-0.573-1.519-1.029-3.12-1.329-4.809c0,0,0.591-2.63-1.018-5.569
			c-0.453-0.827-1.41-1.248-2.322-1.014l-4.516,1.161c-1.028,0.265-1.684,1.27-1.514,2.316l0.422,2.586L45.459,27.041z"/>
		<g>
			<path fill="#566977" d="M23.235,28.936c0,0-10.131-4.482-9.91-15.306c-0.905,0.917-1.9,2-2.899,3.224
				c0,0.002,1.225,8.547,6.515,11.055c0,0-7.955,3.069-11.645-2.616c-0.234,0.583-0.446,1.178-0.634,1.782l-0.097,0.144
				C6.887,30.211,12.573,34.847,23.235,28.936z"/>
			<path fill="#FFCC66" d="M5.297,25.292c3.69,5.686,11.645,2.616,11.645,2.616c-5.29-2.507-6.515-11.053-6.515-11.055
				C8.507,19.21,6.583,22.086,5.297,25.292z"/>
		</g>
		<path fill="#FFFFFF" d="M41.94,30.115c0,0-10.512-1.86-13.379,5.716l5.126,1.01c0,0,0.445-5.183,9.543-3.997L41.94,30.115z"/>
		<path fill="#FFFFFF" d="M46.042,36.493c0,0-5.664,1.23-6.468,3.212l2.151,2.097c0,0,3.26-3.489,6.598-2.603
			C48.324,39.2,47.548,37.033,46.042,36.493z"/>
		<g>
			<path fill="#3D9FAA" d="M68.602,48.703C44.589,36.366,44.188,21.859,44.188,21.859l-9.026-0.271l0.036,0.221
				c0,0-7.402,2.871-10.799-2.156c-2.579-3.818-2.531-5.85-1.75-7.514c-0.756-0.063-1.489-0.303-2.243-0.391
				c-1.212-0.141-3.668-0.531-5.212,0.09c-0.407,0.368-0.861,0.793-1.356,1.279c2.528-1.072,5.135,0.43,5.135,0.43
				c-0.79,18.775,18.81,11.165,18.81,11.165c10.394,21.367,26.781,24.197,31.029,24.573c0.004,0,0.007,0,0.013,0.001
				C68.826,49.286,68.741,48.773,68.602,48.703z"/>
		</g>
		<path fill="#FFCC66" d="M39.054,27.374l5.752-1.247c0.76-0.165,1.244-0.911,1.084-1.671l-0.147-0.703
			c-0.16-0.766-0.913-1.256-1.679-1.093l-5.889,1.254c-0.862,0.184-1.348,1.102-1.015,1.917l0.283,0.695
			C37.705,27.162,38.383,27.52,39.054,27.374z"/>
		<path fill="#FFCC66" d="M42.044,33.08l5.256-0.71c0.88-0.119,1.434-1.01,1.151-1.851l-0.154-0.46
			c-0.202-0.601-0.78-0.995-1.414-0.962l-5.574,0.287c-1.035,0.054-1.663,1.167-1.174,2.081l0.473,0.883
			C40.887,32.867,41.459,33.159,42.044,33.08z"/>
		<path fill="#FFCC66" d="M49.58,34.723l-3.834,1.31c-0.904,0.309-1.248,1.404-0.684,2.174l0.485,0.662
			c0.399,0.545,1.13,0.732,1.742,0.444l3.559-1.673c0.794-0.373,1.059-1.369,0.56-2.088l-0.209-0.298
			C50.837,34.735,50.178,34.519,49.58,34.723z"/>
		<path fill="#FFCC66" d="M53.6,39.464l-2.196,1.621c-0.806,0.595-0.756,1.816,0.098,2.342l0.026,0.017
			c0.484,0.297,1.101,0.276,1.563-0.054l2.22-1.586c0.713-0.508,0.797-1.534,0.178-2.152l-0.05-0.05
			C54.944,39.107,54.163,39.049,53.6,39.464z"/>
		<g>
			<path fill="#566977" d="M36.232,36.331c-5.407-2.539-17.411-1.939-22.032-2.842c-0.002,0-0.005,0-0.007,0.001
				c3.793,1.635,9.368,3.605,16.953,5.208c2.846,0.602,5.375,2.237,7.08,4.595l4.896,6.774c0.003,0.001,0.006,0.003,0.009,0.004
				c4.394,1.814,8.986,3.135,13.637,4.11c0.23,0.048,1.093,0.22,2.268,0.434C54.653,50.423,42.85,39.44,36.232,36.331z"/>
		</g>
	</g>
	<path opacity="0.85" fill="#CDCFD0" d="M69.629,55.226c0,0-0.003-0.096-0.013-0.254c0.066-1.839-0.317-3.905-0.804-5.687
		c0.004,0,0.007,0,0.013,0.001c-0.002-0.009-0.008-0.016-0.008-0.022c0,0-12.07,0.328-27.913-5.611
		c-6.82-2.556-13.078-5.936-19.494-9.346c-5.198-2.763-9.46-5.727-13.2-10.04c-0.371-0.293-0.71-0.643-0.987-1.074
		c-0.049-0.075-0.097-0.149-0.146-0.225c-0.154-0.168-0.31-0.337-0.458-0.504c-0.794,1.476-1.461,3.013-1.957,4.61l-0.097,0.144
		l-1.78,2.649l-2.449,1.924c-0.423,0.332-0.453,0.961-0.066,1.333l4.882,4.688c0.3,0.288,0.759,0.328,1.104,0.097L6.421,37.8
		c0.556-0.372,1.307-0.017,1.372,0.648l0.052,0.533c0.029,0.298,0.208,0.562,0.474,0.699l5.711,2.961
		c0.326,0.169,0.723,0.119,0.997-0.125l0.017-0.015c0.536-0.479,1.389-0.152,1.467,0.562l0.032,0.286
		c0.041,0.376,0.319,0.685,0.689,0.766l4.775,1.05c0.32,0.071,0.654-0.042,0.866-0.292l0.763-0.902
		c0.247-0.292,0.655-0.393,1.009-0.248l0.796,0.325c0.422,0.173,0.644,0.639,0.511,1.076l-0.416,1.367
		c-0.11,0.362,0.023,0.756,0.333,0.976l6.244,4.46c0.277,0.199,0.644,0.219,0.941,0.055l0.876-0.484
		c0.489-0.271,1.102-0.025,1.271,0.506l0.475,1.5c0.086,0.27,0.296,0.483,0.565,0.572l7.953,2.641
		c0.284,0.094,0.596,0.039,0.83-0.149l1.002-0.799c0.493-0.395,1.227-0.16,1.401,0.446l0.241,0.838
		c0.091,0.318,0.352,0.557,0.676,0.623l8.094,1.628c0.386,0.078,0.777-0.11,0.959-0.46l0.302-0.58
		c0.299-0.577,1.095-0.646,1.487-0.129l0.161,0.211c0.198,0.261,0.524,0.391,0.849,0.338l8.591-1.432
		c0.397-0.066,0.7-0.394,0.734-0.795L69.629,55.226z"/>
</g>
</svg>
