<?xml version="1.0" encoding="utf-8"?>
<!-- Generator: Adobe Illustrator 16.0.0, SVG Export Plug-In . SVG Version: 6.00 Build 0)  -->
<!DOCTYPE svg PUBLIC "-//W3C//DTD SVG 1.1//EN" "http://www.w3.org/Graphics/SVG/1.1/DTD/svg11.dtd">
<svg version="1.1" xmlns="http://www.w3.org/2000/svg" xmlns:xlink="http://www.w3.org/1999/xlink" x="0px" y="0px"
	 width="160.05px" height="160.05px" viewBox="0 0 160.05 160.05" enable-background="new 0 0 160.05 160.05" xml:space="preserve">
<g>
	<g>
		<path fill="#578021" d="M160.052,119.772c-52.972-14.16-105.943,14.164-158.913,0c0-0.263-1.141-1.309-1.141-1.572
			c0-25.96,1.141-51.139,1.141-77.102c52.97,14.164,105.622-14.712,158.592-0.551C159.731,66.772,160.052,93.549,160.052,119.772z"
			/>
		<path fill="#6D9933" d="M159.149,118.951c-52.971-14.162-105.941,14.161-158.912,0c0-26.225,0-52.451,0-78.676
			c52.971,14.163,105.941-14.16,158.912,0C159.149,66.5,159.149,92.727,159.149,118.951z"/>
		<path fill="#86B34D" d="M114.46,40.499c0.777,4.402,1.295,61.652-2.59,70.459c7.253-0.777,22.277-1.036,22.277-1.036
			c-2.85-1.554-3.627-65.279-1.553-69.423C122.749,39.462,114.46,40.499,114.46,40.499z"/>
		<path fill="#578021" d="M47.273,122.562c-2.121-16.199-2.293-63.442-0.977-78.614c-15.353,0.965-30.705,0.433-46.059-3.673
			c0,26.225,0,52.451,0,78.676C15.917,123.144,31.594,123.611,47.273,122.562z"/>
		<path fill="#578021" d="M159.149,118.951c0-26.225,0-52.451,0-78.676c-6.27-1.676-12.537-2.75-18.807-3.375
			c-0.408,10.261,1.447,63.16-4.305,78.312C143.741,115.735,151.444,116.892,159.149,118.951z"/>
		<path fill="#96C655" d="M12.323,66.979c0,10.111,0,20.223,0,30.332c6.674,1.036,12.083,6.678,12.084,13.366
			c36.856,2.228,73.714-9.853,110.57-7.625c0.002-6.658,5.41-11.835,12.086-10.802c0,0,0,0,0,0.002c0-10.114,0-20.224,0-30.337l0,0
			c-6.676-1.032-12.086-6.677-12.086-13.367c-36.856-2.228-73.713,9.854-110.57,7.627C24.407,62.835,18.997,68.011,12.323,66.979z"
			/>
		<path fill="#87BA43" d="M46.28,110.536c-0.865-15.803-1.023-38.873-0.582-54.465c-7.097,0.428-14.193,0.531-21.29,0.104
			c-0.001,6.66-5.411,11.836-12.084,10.804c0,10.111,0,20.223,0,30.332c6.674,1.036,12.083,6.678,12.084,13.366
			C31.698,111.118,38.988,110.993,46.28,110.536z"/>
		<path fill="#6D9933" d="M99.582,77.122c0,10.966-8.903,20.875-19.89,22.382c-10.983,1.509-19.889-6.394-19.889-17.397
			c0-10.965,8.905-20.874,19.889-22.381C90.678,58.217,99.582,66.118,99.582,77.122z"/>
		<path fill="#6D9933" d="M47.727,83.196c0,5.275-4.28,9.886-9.561,10.013c-5.282,0.137-9.561-4.309-9.561-9.588
			c-0.001-5.282,4.28-9.396,9.561-9.533C43.447,73.961,47.727,77.906,47.727,83.196z"/>
		<path fill="#578021" d="M45.462,77.168c-1.753-1.967-4.37-3.15-7.296-3.08c-5.281,0.137-9.562,4.251-9.561,9.533
			c0,5.279,4.279,9.725,9.561,9.588c2.993-0.072,5.661-1.585,7.415-3.842C45.513,85.319,45.473,81.209,45.462,77.168z"/>
		<g>
			<path fill="#96C655" d="M77.053,92.221c-3.084,0-6.027-0.911-6.835-1.477c-0.452-0.317-0.562-0.94-0.245-1.394
				c0.317-0.452,0.94-0.562,1.394-0.245c0.632,0.443,5.732,1.954,9.191,0.519c1.6-0.664,2.526-1.841,2.833-3.599
				c0.583-3.345-0.858-3.933-4.174-4.945c-2.287-0.698-4.879-1.489-6.681-3.888c-1.499-1.996-1.563-4.222-0.178-6.106
				c2.288-3.111,7.756-4.485,11.943-2.999c0.521,0.185,0.792,0.757,0.607,1.277c-0.186,0.52-0.756,0.789-1.277,0.607
				c-3.614-1.286-8.085,0.153-9.662,2.299c-0.863,1.174-0.807,2.425,0.166,3.721c1.41,1.877,3.573,2.537,5.665,3.176
				c3.033,0.927,6.472,1.976,5.561,7.202c-0.423,2.417-1.818,4.182-4.037,5.102C80.011,92.016,78.516,92.221,77.053,92.221z"/>
		</g>
		<path fill="#ACD96E" d="M131.72,48.39c-5.619-0.216-11.24-0.113-16.859,0.195c0.324,13.646,0.21,40.585-1.419,54.587
			c6.432-0.396,12.862-0.52,19.293-0.229C131.487,89.946,131.087,62.175,131.72,48.39z"/>
		<path fill="#6D9933" d="M111.659,76.032c0,5.29,4.278,9.236,9.561,9.108c5.281-0.137,9.561-4.248,9.561-9.532
			c0-5.278-4.281-9.726-9.561-9.589C115.938,66.147,111.659,70.758,111.659,76.032z"/>
		<path fill="#86B34D" d="M121.22,85.141c5.281-0.137,9.561-4.248,9.561-9.532c0-5.278-4.281-9.726-9.561-9.589
			c-2.387,0.058-4.565,1.037-6.239,2.574c-0.04,4.68-0.126,9.537-0.272,14.238C116.416,84.328,118.7,85.201,121.22,85.141z"/>
		<g>
			<path fill="#96C655" d="M78.831,96.339c-0.553,0-1-0.447-1-1V65.126c0-0.553,0.447-1,1-1s1,0.447,1,1v30.213
				C79.831,95.892,79.383,96.339,78.831,96.339z"/>
		</g>
		<path opacity="0.5" fill="#A1D461" d="M1.061,41.334c52.696,14.09,105.392-13.861,158.089-0.209c0-0.284,0-0.566,0-0.85
			c-52.971-14.16-105.941,14.163-158.912,0c0,26.225,0,52.451,0,78.676c0.274,0.072,0.549,0.139,0.823,0.209
			C1.061,93.218,1.061,67.275,1.061,41.334z"/>
	</g>
	<path fill="#87BA43" d="M147.063,92.25c0,0,0,0,0,0.002c0-10.114,0-20.224,0-30.337l0,0c-2.496-0.386-4.814-1.416-6.74-2.906
		c-0.004,10.947-0.154,23.932-0.932,35.043C141.479,92.531,144.149,91.799,147.063,92.25z"/>
</g>
</svg>
