<?xml version="1.0" encoding="utf-8"?>
<!-- Generator: Adobe Illustrator 16.0.0, SVG Export Plug-In . SVG Version: 6.00 Build 0)  -->
<!DOCTYPE svg PUBLIC "-//W3C//DTD SVG 1.1//EN" "http://www.w3.org/Graphics/SVG/1.1/DTD/svg11.dtd">
<svg version="1.1"  xmlns="http://www.w3.org/2000/svg" xmlns:xlink="http://www.w3.org/1999/xlink" x="0px" y="0px"
	 width="300px" height="300px" viewBox="0 0 300 300" enable-background="new 0 0 300 300" xml:space="preserve">
<path fill="#8BCE34" d="M299.645,257.297L184.777,39.867c-1.137-2.151-4.215-2.16-5.363-0.016L62.931,257.28
	c-1.084,2.024,0.382,4.473,2.678,4.473h231.35C299.246,261.753,300.714,259.318,299.645,257.297z"/>
<path fill="#79B510" d="M296.957,261.753h-16.141L171.447,54.729l7.968-14.88c1.146-2.14,4.225-2.133,5.364,0.018l114.866,217.426
	C300.712,259.318,299.248,261.753,296.957,261.753z"/>
<path fill="#E7EBEC" d="M240.068,144.532l-25.096,29.509c-1.225,1.396-3.403,1.377-4.603-0.039l-39.211-46.291
	c-1.192-1.407-3.354-1.436-4.583-0.061l-20.741,23.21c-1.271,1.423-3.524,1.335-4.681-0.183l-12.4-16.262l50.661-94.562
	c1.149-2.145,4.229-2.136,5.365,0.016L240.068,144.532z"/>
<path fill="#CDD7D9" d="M240.07,144.53l-13.065,15.363L171.912,54.934c-0.091-0.175-0.199-0.337-0.32-0.482l7.823-14.597
	c1.151-2.146,4.225-2.14,5.364,0.012L240.07,144.53z"/>
<path fill="#8BCE34" d="M169.381,257.297L88.126,103.49c-1.137-2.152-4.215-2.161-5.364-0.016L0.364,257.28
	c-1.084,2.024,0.382,4.473,2.678,4.473h163.653C168.982,261.753,170.449,259.318,169.381,257.297z"/>
<path fill="#79B510" d="M166.691,261.753h-13.133l-77.252-146.23l6.455-12.047c1.151-2.146,4.231-2.133,5.363,0.018l81.254,153.801
	C170.453,259.318,168.982,261.753,166.691,261.753z"/>
<path fill="#E7EBEC" d="M144.374,209.969L127.9,225.151c-1.195,1.102-3.045,1.067-4.198-0.077l-43.055-42.719
	c-1.236-1.227-3.248-1.164-4.406,0.135l-16.176,18.13c-1.092,1.225-2.959,1.36-4.218,0.307l-17.459-14.624l44.373-82.829
	c1.149-2.145,4.228-2.136,5.364,0.016L144.374,209.969z"/>
<path id="SVGCleanerId_0" fill="#CDD7D9" d="M144.374,209.97l-12.223,11.265L76.307,115.522l6.455-12.047
	c0.145-0.266,0.319-0.5,0.512-0.699c0.097-0.103,0.199-0.193,0.307-0.277c0.055-0.042,0.108-0.079,0.169-0.121
	c0.114-0.072,0.229-0.138,0.349-0.198c0.802-0.392,1.748-0.41,2.562-0.054c0.084,0.037,0.163,0.072,0.241,0.121
	c0.494,0.265,0.928,0.681,1.223,1.248L144.374,209.97z"/>
<g>
	<path id="SVGCleanerId_0_1_" fill="#CDD7D9" d="M144.374,209.97l-12.223,11.265L76.307,115.522l6.455-12.047
		c0.145-0.266,0.319-0.5,0.512-0.699c0.097-0.103,0.199-0.193,0.307-0.277c0.055-0.042,0.108-0.079,0.169-0.121
		c0.114-0.072,0.229-0.138,0.349-0.198c0.802-0.392,1.748-0.41,2.562-0.054c0.084,0.037,0.163,0.072,0.241,0.121
		c0.494,0.265,0.928,0.681,1.223,1.248L144.374,209.97z"/>
</g>
</svg>
