<?xml version="1.0" encoding="utf-8"?>
<!-- Generator: Adobe Illustrator 16.0.0, SVG Export Plug-In . SVG Version: 6.00 Build 0)  -->
<!DOCTYPE svg PUBLIC "-//W3C//DTD SVG 1.1//EN" "http://www.w3.org/Graphics/SVG/1.1/DTD/svg11.dtd">
<svg version="1.1" xmlns="http://www.w3.org/2000/svg" xmlns:xlink="http://www.w3.org/1999/xlink" x="0px" y="0px"
	 width="57.75px" height="57.75px" viewBox="0 0 57.75 57.75" enable-background="new 0 0 57.75 57.75" xml:space="preserve">
<path fill-rule="evenodd" clip-rule="evenodd" fill="#FC7659" d="M42.279,50.524c-0.617,0-1.105-0.489-1.105-1.105
	c0-0.617,0.488-1.105,1.105-1.105c0.617,0,1.105,0.488,1.105,1.105C43.384,50.035,42.896,50.524,42.279,50.524L42.279,50.524z
	 M34.771,48.493c-1.003,0-1.799-0.822-1.799-1.8c0-1.003,0.796-1.8,1.799-1.8c0.977,0,1.774,0.797,1.774,1.8
	C36.545,47.67,35.748,48.493,34.771,48.493L34.771,48.493z M29.294,51.141c-0.668,0-1.208-0.54-1.208-1.209
	c0-0.668,0.541-1.183,1.208-1.183c0.643,0,1.183,0.515,1.183,1.183C30.477,50.601,29.937,51.141,29.294,51.141L29.294,51.141z
	 M27.572,44.302c-0.283,0-0.514-0.232-0.514-0.515s0.231-0.515,0.514-0.515c0.283,0,0.514,0.232,0.514,0.515
	S27.855,44.302,27.572,44.302L27.572,44.302z M22.584,47.362c-0.54,0-1.003-0.438-1.003-0.977c0-0.541,0.463-0.978,1.003-0.978
	s0.977,0.437,0.977,0.978C23.561,46.924,23.124,47.362,22.584,47.362L22.584,47.362z M17.827,45.331c-0.977,0-1.8-0.822-1.8-1.8
	c0-1.003,0.823-1.8,1.8-1.8c1.003,0,1.8,0.797,1.8,1.8C19.627,44.508,18.83,45.331,17.827,45.331L17.827,45.331z M13.971,50.704
	c-0.283,0-0.514-0.231-0.514-0.514c0-0.283,0.231-0.515,0.514-0.515s0.514,0.231,0.514,0.515
	C14.485,50.472,14.254,50.704,13.971,50.704L13.971,50.704z M44.13,42.219c-5.425,1.363-10.619,1.234-13.755-0.875
	c-3.754-2.467-10.593-2.03-15.401-1.285c-0.746,1.157-8.845,12.444-7.56,12.573c14.219,0,28.437,0,42.681,0
	c0.36,0.025,0.463-0.052,0.206-0.386L44.13,42.219z"/>
<path fill-rule="evenodd" clip-rule="evenodd" fill="#FC7659" d="M23.896,32.655c1.183,0,2.108,0.951,2.108,2.108
	s-0.925,2.108-2.108,2.108c-1.157,0-2.083-0.951-2.083-2.108S22.738,32.655,23.896,32.655L23.896,32.655z"/>
<path fill-rule="evenodd" clip-rule="evenodd" fill="#FC7659" d="M34.025,32.551c0.617,0,1.131,0.515,1.131,1.132
	s-0.514,1.106-1.131,1.106c-0.617,0-1.105-0.489-1.105-1.106S33.409,32.551,34.025,32.551L34.025,32.551z"/>
<path fill-rule="evenodd" clip-rule="evenodd" fill="#FC7659" d="M29.706,25.043c0.617,0,1.105,0.515,1.105,1.106
	c0,0.617-0.489,1.132-1.105,1.132c-0.617,0-1.105-0.515-1.105-1.132C28.601,25.558,29.089,25.043,29.706,25.043L29.706,25.043z"/>
<path fill-rule="evenodd" clip-rule="evenodd" fill="#656D70" d="M22.456,0.001h12.83c1.208,0,2.186,0.977,2.186,2.186v14.321
	c0,1.209-0.977,2.186-2.186,2.186h-12.83c-1.208,0-2.186-0.977-2.186-2.186V2.187C20.27,0.978,21.247,0.001,22.456,0.001
	L22.456,0.001z"/>
<path fill="#B0CFF4" d="M16.567,6.815h24.606c0.565,0,1.054,0.231,1.414,0.592l0,0c0.359,0.359,0.591,0.849,0.591,1.414v2.16
	c0,0.564-0.232,1.054-0.591,1.413l0,0c-0.36,0.36-0.849,0.592-1.414,0.592h-1.414c0.025,3.42,0.025,7.508-0.052,9.719
	c0.026,0.823,2.005,3.574,3.625,5.785c1.003,1.362,2.109,2.905,3.214,4.525c3.291,4.885,6.479,10.593,7.842,13.035l0.36,0.643
	c1.414,2.469,1.414,5.888,0.051,8.254c-1.054,1.799-2.726,2.802-4.705,2.802l0,0H7.646c-1.98,0-3.651-1.003-4.706-2.802
	c-1.362-2.366-1.337-5.76,0.052-8.254c3.574-6.325,7.147-12.341,11.416-18.203c1.62-2.211,3.625-4.962,3.651-5.785
	c-0.078-2.211-0.078-6.299-0.051-9.719h-1.44c-0.54,0-1.054-0.231-1.414-0.592l0,0c-0.36-0.359-0.566-0.849-0.566-1.413v-2.16
	c0-0.565,0.206-1.055,0.566-1.414C15.513,7.046,16.027,6.815,16.567,6.815L16.567,6.815z M36.699,12.986H21.042
	c0,3.394,0,7.482,0.051,9.616c0.051,1.748-1.414,3.831-4.217,7.688c-0.977,1.362-2.083,2.854-3.162,4.448
	C10.5,39.495,7.363,45.125,6.026,47.542l-0.36,0.644c-0.874,1.542-0.9,3.779-0.077,5.219c0.488,0.849,1.182,1.26,2.082,1.26h42.423
	c0.874,0,1.569-0.438,2.057-1.26c0.822-1.439,0.797-3.677-0.052-5.193l-0.36-0.669c-1.337-2.417-4.5-8.021-7.713-12.804
	c-1.081-1.595-2.16-3.086-3.163-4.448c-2.803-3.856-4.268-5.939-4.217-7.688C36.725,20.468,36.725,16.406,36.699,12.986
	L36.699,12.986z"/>
</svg>
