<?xml version="1.0" encoding="utf-8"?>
<!-- Generator: Adobe Illustrator 16.0.0, SVG Export Plug-In . SVG Version: 6.00 Build 0)  -->
<!DOCTYPE svg PUBLIC "-//W3C//DTD SVG 1.1//EN" "http://www.w3.org/Graphics/SVG/1.1/DTD/svg11.dtd">
<svg version="1.1" xmlns="http://www.w3.org/2000/svg" xmlns:xlink="http://www.w3.org/1999/xlink" x="0px" y="0px"
	 width="141.6px" height="141.6px" viewBox="0 0 141.6 141.6" enable-background="new 0 0 141.6 141.6" xml:space="preserve">
<g>
	<g>
		<polygon fill="#93CEEB" points="90.715,134.877 0,70.314 11.803,39.046 116.744,13.498 141.6,35.841 		"/>
		<path fill="#69AED1" d="M0.272,69.595L0,70.314l90.716,64.563l0.61-1.187c-8.011-7.566-52.783-48.827-52.783-48.827L0.272,69.595z
			"/>
		<path fill="#93CEEB" d="M38.542,84.864"/>
		<polygon fill="#B7DEF2" points="84.757,6.722 37.098,18.325 11.803,39.046 39.631,52.659 98.289,38.378 116.744,13.498 		"/>
		<polygon fill="#93CEEB" points="11.803,39.046 0,70.314 38.542,84.864 39.631,52.659 		"/>
		<polygon fill="#69AED1" points="98.282,36.88 39.631,52.659 38.542,84.864 76.3,75.669 114.061,66.476 		"/>
		<path fill="#CBE5F2" d="M116.958,13.69L98.282,36.88c1.554,2.159,15.779,29.596,15.779,29.596L141.6,35.841L116.958,13.69z"/>
		<polygon fill="#81BDDB" points="38.542,84.864 90.715,134.877 114.061,66.476 		"/>
		<polygon fill="#FFFFFF" points="74.889,41.388 97.37,35.365 110.615,18.306 95.963,33.358 		"/>
		<polygon fill="#FFFFFF" points="104.021,44.23 114.061,64.135 125.469,52.659 114.746,60.871 		"/>
		<path fill="#FFFFFF" d="M22.116,44.688c0,0,16.13,8.577,16.244,8.694c0.114,0.116-0.801,24.938-0.801,24.938
			s-1.945-22.878-2.288-22.993C34.927,55.212,22.116,44.688,22.116,44.688z"/>
		<polygon fill="#FFFFFF" points="51.514,82.837 41.39,85.411 87.719,130.71 47.912,86.613 		"/>
	</g>
	<path fill="#FFFFFF" d="M74.112,78.181c-3.784,1.227-4.779,2.223-6.003,6.008c-1.229-3.785-2.224-4.777-6.009-6.006
		c3.782-1.226,4.778-2.218,6.004-6.007C69.332,75.965,70.328,76.954,74.112,78.181z"/>
	<path fill="#FFFFFF" d="M94.766,20.908c-5.796,1.882-7.317,3.406-9.194,9.203c-1.882-5.792-3.406-7.316-9.203-9.196
		c5.795-1.879,7.319-3.399,9.196-9.193C87.447,17.515,88.969,19.034,94.766,20.908z"/>
</g>
</svg>
