<?xml version="1.0" encoding="utf-8"?>
<!-- Generator: Adobe Illustrator 16.0.0, SVG Export Plug-In . SVG Version: 6.00 Build 0)  -->
<!DOCTYPE svg PUBLIC "-//W3C//DTD SVG 1.1//EN" "http://www.w3.org/Graphics/SVG/1.1/DTD/svg11.dtd">
<svg version="1.1" id="Layer_1" xmlns="http://www.w3.org/2000/svg" xmlns:xlink="http://www.w3.org/1999/xlink" x="0px" y="0px"
	 width="512px" height="512px" viewBox="0 0 512 512" enable-background="new 0 0 512 512" xml:space="preserve">
<g>
	<rect x="25.695" y="345.581" fill="#1B1C1C" width="89.333" height="122.942"/>
	<rect x="398.395" y="345.581" fill="#1B1C1C" width="89.332" height="122.942"/>
	<polygon fill="#458774" points="423.979,199.555 405.472,43.477 107.95,43.477 88.742,205.462 	"/>
	<polygon fill="#71CE93" points="132.743,184.628 141.226,81.858 363.582,81.858 372.064,184.628 	"/>
	<polygon fill="#2B5448" points="82.609,195.595 0,181.187 0,133.159 82.609,133.159 	"/>
	<polygon fill="#2B5448" points="429.392,195.595 512,181.187 512,133.159 429.392,133.159 	"/>
	<path fill="#2B5448" d="M68.921,324.145v-88.999c0-32.491,26.584-59.074,59.074-59.074h257.432
		c32.49,0,59.074,26.583,59.074,59.074v88.999H68.921z"/>
	<circle fill="#FFF0BD" cx="136.097" cy="237.838" r="30.674"/>
	<circle fill="#FFF0BD" cx="375.366" cy="237.838" r="30.674"/>
	<g>
		<path d="M201.705,331.998c-4.337,0-7.852-3.516-7.852-7.854V212.216c0-4.338,3.515-7.853,7.852-7.853
			c4.338,0,7.853,3.515,7.853,7.853v111.929C209.558,328.482,206.043,331.998,201.705,331.998z"/>
	</g>
	<g>
		<path d="M236.548,331.998c-4.337,0-7.852-3.516-7.852-7.854V212.216c0-4.338,3.515-7.853,7.852-7.853s7.852,3.515,7.852,7.853
			v111.929C244.4,328.482,240.885,331.998,236.548,331.998z"/>
	</g>
	<g>
		<path d="M275.262,331.998c-4.338,0-7.854-3.516-7.854-7.854V212.216c0-4.338,3.516-7.853,7.854-7.853
			c4.337,0,7.852,3.515,7.852,7.853v111.929C283.113,328.482,279.599,331.998,275.262,331.998z"/>
	</g>
	<g>
		<path d="M313.976,331.998c-4.337,0-7.852-3.516-7.852-7.854V212.216c0-4.338,3.515-7.853,7.852-7.853
			c4.338,0,7.853,3.515,7.853,7.853v111.929C321.828,328.482,318.312,331.998,313.976,331.998z"/>
	</g>
	<rect x="68.921" y="324.145" fill="#346657" width="375.581" height="50.43"/>
	<rect x="444.502" y="268.181" fill="#458774" width="43.225" height="106.394"/>
	<rect x="25.695" y="268.181" fill="#458774" width="43.225" height="106.394"/>
	<g opacity="0.24">
		<rect x="52.231" y="374.574" fill="#1D1D20" width="62.796" height="93.949"/>
		<path fill="#1D1D20" d="M342.676,43.477l17.312,150.877c13.234,10.857,21.718,27.319,21.718,142.797v37.424h43.226l0,0v4.879
			v89.07h62.796v-93.949v-28.993v-77.4h-43.225v-33.036c0-18.351-8.483-34.814-21.719-45.67L405.472,43.477H342.676z"/>
	</g>
	<polygon opacity="0.46" fill="#FFFFFF" enable-background="new    " points="226.035,81.858 294.149,81.858 265.252,176.07 
		196.449,176.07 	"/>
</g>
</svg>
