<?xml version="1.0" encoding="utf-8"?>
<!-- Generator: Adobe Illustrator 16.0.0, SVG Export Plug-In . SVG Version: 6.00 Build 0)  -->
<!DOCTYPE svg PUBLIC "-//W3C//DTD SVG 1.1//EN" "http://www.w3.org/Graphics/SVG/1.1/DTD/svg11.dtd">
<svg version="1.1" xmlns="http://www.w3.org/2000/svg" xmlns:xlink="http://www.w3.org/1999/xlink" x="0px" y="0px"
	 width="300.004px" height="299.997px" viewBox="0 0 300.004 299.997" enable-background="new 0 0 300.004 299.997"
	 xml:space="preserve">
<g>
	<path fill="#DD352E" d="M91.947,91.006l-67.805,67.805c-32.19,32.189-32.19,84.859,0,117.045l0,0
		c32.19,32.189,84.859,32.189,117.044,0l67.805-67.805L91.947,91.006z"/>
	<path fill="#EFEAE4" d="M209.095,207.951l66.769-66.765c32.186-32.19,32.186-84.859,0-117.044l0,0
		c-32.189-32.19-84.859-32.19-117.043,0l-66.775,66.76L209.095,207.951z"/>
	<path fill="#F46767" d="M114.041,112.897l-88.506,88.506c-3.031,3.026-3.031,7.945,0,10.972c1.516,1.516,3.502,2.271,5.488,2.271
		s3.973-0.755,5.488-2.271l88.506-88.507L114.041,112.897z"/>
	<path fill="#F7F4F0" d="M125.001,123.874l82.205-82.201c3.031-3.026,3.031-7.945,0-10.971c-3.031-3.031-7.939-3.031-10.971,0
		l-82.206,82.201L125.001,123.874z"/>
</g>
</svg>
