<?xml version="1.0" encoding="utf-8"?>
<!-- Generator: Adobe Illustrator 16.0.0, SVG Export Plug-In . SVG Version: 6.00 Build 0)  -->
<!DOCTYPE svg PUBLIC "-//W3C//DTD SVG 1.1//EN" "http://www.w3.org/Graphics/SVG/1.1/DTD/svg11.dtd">
<svg version="1.1"
	 id="svg2" xmlns:rdf="http://www.w3.org/1999/02/22-rdf-syntax-ns#" xmlns:svg="http://www.w3.org/2000/svg" xmlns:cc="http://creativecommons.org/ns#" xmlns:dc="http://purl.org/dc/elements/1.1/"
	 xmlns="http://www.w3.org/2000/svg" xmlns:xlink="http://www.w3.org/1999/xlink" x="0px" y="0px" width="45px" height="45px"
	 viewBox="0 0 45 45" enable-background="new 0 0 45 45" xml:space="preserve">
<g id="g10" transform="matrix(1.25,0,0,-1.25,0,45)">
	<g id="g12">
		<g>
			<defs>
				<rect id="SVGID_1_" x="-4.5" y="-4.5" width="45" height="45"/>
			</defs>
			<clipPath id="SVGID_2_">
				<use xlink:href="#SVGID_1_"  overflow="visible"/>
			</clipPath>
			<g id="g14" clip-path="url(#SVGID_2_)">
				<g id="g20" transform="translate(35.8848,24.1665)">
					<path id="path22" fill="#BE1931" d="M0,0c0,5.45-4.417,9.868-9.866,9.868c-3.309,0-6.227-1.633-8.018-4.129
						c-1.79,2.496-4.71,4.129-8.017,4.129c-5.45,0-9.868-4.418-9.868-9.868c0-0.772,0.098-1.52,0.266-2.241
						c1.371-8.511,10.835-17.494,17.619-19.96c6.783,2.466,16.248,11.448,17.617,19.96C-0.098-1.52,0-0.772,0,0"/>
				</g>
			</g>
		</g>
	</g>
</g>
</svg>
