<?xml version="1.0" encoding="utf-8"?>
<!-- Generator: Adobe Illustrator 16.0.0, SVG Export Plug-In . SVG Version: 6.00 Build 0)  -->
<!DOCTYPE svg PUBLIC "-//W3C//DTD SVG 1.1//EN" "http://www.w3.org/Graphics/SVG/1.1/DTD/svg11.dtd">
<svg version="1.1" xmlns="http://www.w3.org/2000/svg" xmlns:xlink="http://www.w3.org/1999/xlink" x="0px" y="0px"
	 width="167.05px" height="167.05px" viewBox="0 0 167.05 167.05" enable-background="new 0 0 167.05 167.05" xml:space="preserve">
<g>
	<g>
		<path fill="#D99658" d="M73.301,36.729c4.514,15.92-39.658,3.396-54.803,72.79c-7.292,33.393,16.636,56.958,64.988,57.521
			c48.351,0.563,73.299-30.885,64.671-63.718c-9.556-36.359-44.902-54.076-57.39-60.547c-5.076-9.927,10.057-19.87,12.041-27.654
			c1.984-7.782-13.759,3.503-15.038-2.267c-1.28-5.775-3.99-20.391-18.436-8.028C54.887,17.188,62.6,19.873,68.039,26.311
			C73.479,32.753,73.038,35.804,73.301,36.729z"/>
		<path fill="#E3AC78" d="M65.348,12.539c1.768-1.793,10.279-7.626,10.179-5.396c-0.1,2.228-0.309,15.645,1.551,16.761
			c0.953-6.622,5.23-19.878,3.905-21.07C79.657,1.642,73.729,0.368,65.348,12.539z"/>
		<path fill="#E3AC78" d="M33.957,123.105c0.756,12.99,43.294,32.169,71.878,18.278c28.586-13.893,27.971-43.466,15.149-51.916
			c-7.891-2.663-4.398,37.225-37.678,37.979S34.65,118.961,33.957,123.105z"/>
		<g>
			<path opacity="0.5" fill="#BD702A" d="M89.898,36.779c1.297-7.403,10.197-14.567,12.547-20.565
				c-3.747,5.444-14.402,14.347-17.458,15.825c-4.275,2.069-7.95,2.072-8.075-0.454c-0.11-2.266-13.532-11.212-14.685-19.008
				c-3.573,6.211,1.75,8.927,5.811,13.734c5.441,6.442,4.999,9.493,5.262,10.418c0.004,0.017,0.007,0.033,0.013,0.049
				c5.33,0.184,10.804,0.295,12.687,0.392C86.913,37.218,88.306,37.062,89.898,36.779z"/>
			<path opacity="0.5" fill="#BD702A" d="M84.556,25.033c3.54,1.548,10.396-10.471,15.845-12.716
				c-4.105,0.448-11.755,4.488-12.632,0.539c-0.6-2.708-1.514-7.354-3.803-10.258C84.671,9.38,80.863,23.418,84.556,25.033z"/>
		</g>
		<path opacity="0.5" fill="#BD702A" d="M90.767,42.776c-0.821-1.608-1.107-3.216-1.012-4.814
			c-5.45-0.004-11.229,0.037-16.179,0.129c0.342,2.958-1.297,4.841-4.229,6.628c3.392-0.439,6.888-0.773,10.158-0.876
			c12.802-0.41,35.822,23.638,46.906,41.611c10.599,17.186,16.082,36.519-9.982,56.961c-13.097,10.272-42.972,9.792-65.038,4.45
			c-17.406-4.213-33.462-19.809-33.105-36.243c-6.526,32.805,17.384,55.86,65.199,56.419c48.351,0.563,73.299-30.885,64.671-63.718
			C138.601,66.964,103.255,49.248,90.767,42.776z"/>
		<path fill="#603813" d="M91.576,34.659c-0.297-3.909-12.135-7.23-21.293-2.19c-9.162,5.039,1.568,8.622,4.787,6.49
			C78.288,36.826,91.576,34.659,91.576,34.659z"/>
		<path opacity="0.6" fill="#402308" d="M88.562,31.506c0.096,0.546-0.338,0.961-1.501,1.04c-2.823,0.189-7.155,1.866-11.203,2.701
			c-3.83,0.789-6.961-1.716-2.917-3.99c-0.903,0.336-1.792,0.734-2.656,1.212c-9.162,5.039,1.568,8.622,4.787,6.49
			c3.218-2.133,16.506-4.3,16.506-4.3C91.488,33.483,90.35,32.365,88.562,31.506z"/>
		<path fill="#603813" d="M70.249,44.044c-0.73-4.833,13.3-13.054,23.323-9.029c9.475,3.807,2.207,9.867-2.835,8.048
			C85.697,41.247,75.248,41.746,70.249,44.044z"/>
	</g>
	<path fill="#8F5825" d="M71.267,138.034c-0.114-2.913-0.202-5.83-0.261-8.747c-5.654-0.219-11.344-2.217-14.787-4.426
		c0.815-2.491,1.65-4.981,2.505-7.473c3.557,2.365,8.471,4.333,13.824,4.54c6.248,0.241,10.232-2.719,10.28-7.176
		c0.053-4.452-3-6.954-9.896-9.896c-9.67-3.945-15.33-8.178-14.793-16.348c0.511-7.575,6.426-13.153,15.456-14.292
		c0.288-2.917,0.602-5.834,0.944-8.75c2.22,0.086,4.44,0.171,6.66,0.257c-0.324,2.767-0.622,5.534-0.896,8.304
		c5.465,0.358,9.453,2.154,11.985,3.742c-1.01,2.392-2,4.787-2.973,7.181c-1.84-1.262-5.82-3.503-11.895-3.738
		c-6.816-0.264-9.338,3.212-9.561,6.48c-0.274,4.01,2.576,6.202,10.729,9.644c9.777,3.949,14.164,8.883,14.058,16.903
		c-0.094,7.278-5.168,13.753-14.951,15.007c0.062,3.018,0.152,6.031,0.272,9.044C75.733,138.206,73.5,138.12,71.267,138.034z"/>
	<path opacity="0.6" fill="#402308" d="M93.571,35.015c-0.661-0.268-1.341-0.478-2.032-0.64c4.806,1.687,2.922,6.158,0.563,5.461
		c-2.532-0.747-10.398-0.404-13.825,0.014c-3.426,0.415-4.167-0.821-0.915-3.288l-0.103-0.055c-4.339,2.151-7.361,5.23-7.011,7.537
		c4.999-2.299,15.448-2.798,20.487-0.981C95.778,44.882,103.046,38.822,93.571,35.015z"/>
</g>
</svg>
