<?xml version="1.0" encoding="utf-8"?>
<!-- Generator: Adobe Illustrator 16.0.0, SVG Export Plug-In . SVG Version: 6.00 Build 0)  -->
<!DOCTYPE svg PUBLIC "-//W3C//DTD SVG 1.1//EN" "http://www.w3.org/Graphics/SVG/1.1/DTD/svg11.dtd">
<svg version="1.1" xmlns="http://www.w3.org/2000/svg" xmlns:xlink="http://www.w3.org/1999/xlink" x="0px" y="0px"
	 width="45.703px" height="48.602px" viewBox="0 0 45.703 48.602" enable-background="new 0 0 45.703 48.602" xml:space="preserve">
<g>
	<path fill="#484849" d="M0,21.099c-0.004,0.472,0.24,0.905,0.477,1.313c0.811,1.396,1.621,2.794,2.432,4.191
		C13.806,19.939,24.703,13.275,35.601,6.61c0.289-0.177,0.607-0.395,0.663-0.729c0.05-0.297-0.126-0.579-0.296-0.828
		c-0.972-1.431-1.969-2.845-2.99-4.24c-0.174-0.237-0.372-0.49-0.658-0.559c-0.321-0.075-0.641,0.106-0.92,0.281
		c-9.932,6.193-19.862,12.387-29.793,18.58C0.852,19.586,0.007,20.208,0,21.099z"/>
	<path fill="#484849" d="M7.887,48.253c0.029,0.107,0.059,0.214,0.088,0.321c0.411,0.067,0.818-0.004,1.243-0.073
		c11.111-1.813,22.223-3.628,33.334-5.442c1.155-0.188,2.49-0.51,2.969-1.578c0.26-0.583,0.189-1.255,0.107-1.888
		c-0.876-6.744-2.491-13.392-4.807-19.785c-0.271-0.752-0.636-1.584-1.387-1.855c-0.516-0.187-1.086-0.054-1.617,0.08
		c-9.416,2.373-18.808,4.845-28.172,7.414c-1.33,0.365-4.987,0.677-5.696,1.896c-0.661,1.139,0.639,5.294,0.846,6.603
		C5.562,38.769,6.608,43.541,7.887,48.253z"/>
	<path fill="#E1E1E1" d="M2.896,26.848c1.081-0.602,2.162-1.202,3.242-1.804c0.544-0.302,1.098-0.612,1.518-1.07
		c0.421-0.457,0.683-1.033,0.938-1.599c1.614-3.578,3.229-7.156,4.843-10.733c-2.132,1.008-4.186,2.183-6.135,3.512
		c-0.218,0.148-0.438,0.301-0.609,0.501c-0.257,0.301-0.389,0.686-0.523,1.057c-0.793,2.183-1.876,4.246-2.966,6.296
		c-0.323,0.607-0.652,1.228-0.774,1.905C2.306,25.59,2.422,26.348,2.896,26.848z"/>
	<path fill="#E1E1E1" d="M16.309,18.668c0.766-0.438,1.538-0.883,2.188-1.479c1.301-1.189,2.007-2.877,2.675-4.507
		c1.07-2.612,2.142-5.226,3.212-7.838c-1.364,0.604-2.682,1.313-3.937,2.119c-0.64,0.41-1.269,0.85-1.786,1.405
		c-0.618,0.662-1.059,1.466-1.482,2.267c-1.753,3.314-3.319,6.729-4.688,10.221C13.763,20.127,15.036,19.398,16.309,18.668z"/>
	<path fill="#E1E1E1" d="M30.608,9.01c0.701-0.979,1.205-2.084,1.704-3.181c0.437-0.959,0.875-1.924,1.144-2.942
		c0.25-0.947,0.252-2.158-0.578-2.679c-0.584-0.366-1.38-0.215-1.941,0.185c-0.562,0.4-0.939,1.003-1.295,1.594
		c-2.33,3.873-4.333,7.942-5.98,12.151C26.24,12.796,28.916,11.373,30.608,9.01z"/>
	<path fill="#E1E1E1" d="M11.034,30.371c1.109-0.183,2.22-0.365,3.33-0.547c0.798-0.131,1.634-0.278,2.264-0.785
		c-1.559-1.19-3.178-2.302-4.848-3.328c-0.269-0.165-0.541-0.329-0.842-0.42c-0.61-0.186-1.266-0.054-1.889,0.078
		c-0.546,0.116-1.092,0.232-1.637,0.348c-1.104,0.234-2.293,0.52-3.009,1.391c1.73,1.004,3.46,2.007,5.19,3.01
		c0.204,0.118,0.412,0.238,0.644,0.286C10.5,30.457,10.771,30.414,11.034,30.371z"/>
	<path fill="#E1E1E1" d="M20.205,22.367c-1.434,0.424-2.848,0.916-4.234,1.474c2.077,1.076,4.153,2.152,6.23,3.228
		c0.271,0.141,0.546,0.283,0.843,0.362c0.427,0.115,0.877,0.095,1.317,0.056c1.806-0.162,3.583-0.634,5.231-1.387
		c-1.268-0.873-2.535-1.745-3.803-2.617c-0.988-0.681-2.037-1.384-3.233-1.484C21.761,21.931,20.971,22.14,20.205,22.367z"/>
	<path fill="#E1E1E1" d="M37.563,24.969c1.005-0.132,2.01-0.263,3.016-0.395c0.082-0.352-0.291-0.627-0.611-0.794
		c-1.958-1.027-3.916-2.055-5.875-3.081c-0.559-0.293-1.121-0.587-1.725-0.768c-1.523-0.456-3.263-0.112-4.498,0.889
		c1.171,0.688,2.352,1.382,3.358,2.294c0.541,0.49,1.035,1.046,1.661,1.421C34.259,25.356,35.98,25.175,37.563,24.969z"/>
	<path opacity="0.55" fill="#A0CABD" d="M33.958,29.24c-7.903,1.156-15.721,2.896-23.367,5.203c-0.098,0.435-0.06,0.897,0.105,1.311
		c8.148-1.991,16.774-2.051,24.61-5.042C34.778,30.301,34.32,29.801,33.958,29.24z"/>
	<path opacity="0.55" fill="#A0CABD" d="M11.716,39.336c0.059,0.12,0.124,0.247,0.241,0.311c0.117,0.064,0.26,0.052,0.394,0.036
		c5.784-0.656,11.551-1.478,17.289-2.461c-0.355-0.362-0.71-0.724-1.065-1.085c-0.117-0.119-0.241-0.242-0.4-0.29
		c-0.164-0.05-0.341-0.013-0.509,0.022c-5.445,1.161-11.225,0.567-16.502,2.343C11.347,38.587,11.531,38.962,11.716,39.336z"/>
</g>
</svg>
