<?xml version="1.0" encoding="utf-8"?>
<!-- Generator: Adobe Illustrator 16.0.0, SVG Export Plug-In . SVG Version: 6.00 Build 0)  -->
<!DOCTYPE svg PUBLIC "-//W3C//DTD SVG 1.1//EN" "http://www.w3.org/Graphics/SVG/1.1/DTD/svg11.dtd">
<svg version="1.1" xmlns="http://www.w3.org/2000/svg" xmlns:xlink="http://www.w3.org/1999/xlink" x="0px" y="0px"
	 width="143.628px" height="140.923px" viewBox="0 0 143.628 140.923" enable-background="new 0 0 143.628 140.923"
	 xml:space="preserve">
<g>
	<g>
		<path fill="#968488" d="M110.487,88.158c14.017-7.068,19.623-6.697,21.716-5.848c0.831,0.338,1.885,1.018,2.669,3.295
			c0.809,2.35,3.367,3.6,5.72,2.789c2.35-0.809,3.599-3.369,2.79-5.719c-1.471-4.271-4.091-7.199-7.79-8.701
			c-6.408-2.607-15.674-0.65-29.157,6.148c-5.15,2.596-9.638,3.195-13.342,1.789c-3.811-1.447-6.18-4.76-7.311-6.742
			c7.957-11.732,24.396-11.756,24.396-36.807C110.178,17.175,93.002,0,71.814,0v101.599c0.825,2.197,1.844,4.172,3.062,5.904
			c3.429,4.871,8.255,7.734,14.347,8.512c15.979,2.041,16.729,4.91,17.275,7.008c0.018,0.064,1.132,6.717-4.674,8.471
			c-3.347,1.012-6.277,0.104-7.588-1.166c-0.877-0.852-1.12-1.861-0.766-3.18c0.646-2.4-0.774-4.869-3.174-5.516
			c-2.4-0.65-4.87,0.775-5.516,3.174c-1.207,4.479-0.044,8.844,3.188,11.98c2.772,2.689,6.769,4.137,10.988,4.137
			c1.809,0,3.658-0.268,5.47-0.814c10.011-3.023,12.35-13.34,10.779-19.359c-1.795-6.873-6.435-11.311-24.845-13.662
			c-3.528-0.449-6.187-2.008-8.126-4.764c-2.47-3.51-3.554-8.578-3.882-13.758c5.45,8.268,11.664,13.221,18.474,14.715
			c8.374,1.84,13.515,1.078,18.049,0.41c3.471-0.512,6.469-0.955,10.98-0.346c4.345,0.588,6.603,4.713,6.861,8.297
			c0.131,1.809-0.024,7.871-7.496,10.008c-2.39,0.684-3.772,3.174-3.089,5.564c0.564,1.975,2.366,3.264,4.324,3.264
			c0.409,0,0.826-0.057,1.239-0.176c9.161-2.619,14.656-10.197,13.998-19.309c-0.627-8.674-6.644-15.488-14.633-16.566
			c-5.771-0.781-9.877-0.176-13.501,0.359c-4.315,0.637-8.041,1.189-14.804-0.297c-2.326-0.51-4.509-1.77-6.504-3.447
			c1.629,0.402,3.302,0.625,5.025,0.625C101.434,91.667,105.852,90.496,110.487,88.158z"/>
		<path fill="#756D85" d="M33.451,38.363c0,23.678,17.001,25.865,23.631,38.031c-1.302,1.928-3.445,4.34-6.547,5.518
			c-3.705,1.41-8.194,0.807-13.342-1.789c-13.485-6.803-22.751-8.756-29.157-6.148c-3.699,1.502-6.319,4.43-7.79,8.701
			c-0.809,2.35,0.44,4.91,2.79,5.719c2.354,0.811,4.912-0.439,5.72-2.789c0.784-2.277,1.838-2.957,2.669-3.295
			c2.094-0.848,7.698-1.223,21.716,5.848c4.637,2.338,9.053,3.51,13.207,3.51c1.731,0,3.413-0.225,5.05-0.631
			c-2,1.678-4.19,2.939-6.528,3.453c-6.762,1.486-10.49,0.934-14.804,0.297c-3.623-0.535-7.731-1.143-13.501-0.359
			c-7.989,1.078-14.006,7.893-14.633,16.566c-0.658,9.111,4.837,16.689,13.998,19.309c0.414,0.119,0.83,0.176,1.239,0.176
			c1.958,0,3.76-1.289,4.324-3.264c0.684-2.391-0.699-4.881-3.089-5.564c-7.472-2.137-7.627-8.199-7.496-10.008
			c0.259-3.584,2.517-7.709,6.861-8.297c4.51-0.609,7.51-0.166,10.98,0.346c4.536,0.67,9.673,1.43,18.049-0.41
			c6.811-1.494,13.023-6.447,18.474-14.715c-0.328,5.18-1.412,10.248-3.882,13.758c-1.939,2.756-4.598,4.314-8.127,4.764
			c-13.939,1.779-22.474,4.586-24.844,13.662c-1.57,6.02,0.769,16.336,10.779,19.359c1.812,0.549,3.661,0.814,5.47,0.814
			c4.22,0,8.216-1.447,10.988-4.137c3.232-3.137,4.396-7.502,3.188-11.98c-0.646-2.4-3.114-3.828-5.516-3.174
			c-2.399,0.646-3.82,3.115-3.174,5.516c0.354,1.318,0.111,2.328-0.766,3.18c-1.311,1.27-4.244,2.176-7.588,1.166
			c-5.806-1.754-4.691-8.406-4.674-8.471c0.547-2.098,1.296-4.967,17.274-7.008c6.093-0.777,10.919-3.641,14.348-8.512
			c1.219-1.732,2.237-3.707,3.063-5.904V0C50.627,0,33.451,17.175,33.451,38.363z"/>
	</g>
	<g>
		<ellipse fill="#CCCECF" cx="62.246" cy="70.771" rx="3.349" ry="6.408"/>
		<ellipse fill="#CCCECF" cx="81.381" cy="70.771" rx="3.349" ry="6.408"/>
		<g>
			<line fill="#CCCECF" x1="62.246" y1="65.093" x2="62.246" y2="75.968"/>
			<path fill="#723E2B" d="M62.246,65.093c0,0,0.334,0.68,0.571,1.699c0.266,1.02,0.425,2.379,0.429,3.738
				c-0.002,1.359-0.159,2.719-0.426,3.738c-0.238,1.02-0.574,1.699-0.574,1.699s-0.336-0.68-0.574-1.699
				c-0.267-1.02-0.424-2.379-0.426-3.738c0.004-1.359,0.163-2.719,0.429-3.738C61.912,65.773,62.246,65.093,62.246,65.093z"/>
		</g>
		<g>
			<line fill="#CCCECF" x1="81.381" y1="65.093" x2="81.381" y2="75.968"/>
			<path fill="#723E2B" d="M81.381,65.093c0,0,0.334,0.68,0.571,1.699c0.266,1.02,0.425,2.379,0.429,3.738
				c-0.002,1.359-0.159,2.719-0.426,3.738c-0.238,1.02-0.574,1.699-0.574,1.699s-0.336-0.68-0.574-1.699
				c-0.267-1.02-0.424-2.379-0.426-3.738c0.004-1.359,0.163-2.719,0.429-3.738C81.047,65.773,81.381,65.093,81.381,65.093z"/>
		</g>
	</g>
	<g>
		
			<ellipse transform="matrix(0.8197 0.5728 -0.5728 0.8197 18.6378 -41.4214)" fill="#CCCECF" cx="75.114" cy="8.894" rx="3.999" ry="1.251"/>
		
			<ellipse transform="matrix(0.8197 0.5728 -0.5728 0.8197 18.0931 -44.7105)" fill="#CCCECF" cx="80.066" cy="6.384" rx="3.999" ry="1.251"/>
		
			<ellipse transform="matrix(0.8197 0.5728 -0.5728 0.8197 27.3663 -42.9774)" fill="#CCCECF" cx="81.953" cy="21.983" rx="3.998" ry="1.25"/>
		
			<ellipse transform="matrix(0.8198 0.5727 -0.5727 0.8198 21.9446 -47.1316)" fill="#CCCECF" cx="85.854" cy="11.299" rx="2.185" ry="1.25"/>
		
			<ellipse transform="matrix(-0.8197 -0.5728 0.5728 -0.8197 118.7794 49.2064)" fill="#CCCECF" cx="67.134" cy="5.91" rx="1.999" ry="1.75"/>
		
			<ellipse transform="matrix(0.8198 0.5727 -0.5727 0.8198 25.0982 -45.4455)" fill="#CCCECF" cx="84.749" cy="17.151" rx="3.999" ry="0.875"/>
		
			<ellipse transform="matrix(0.8198 0.5726 -0.5726 0.8198 27.3686 -50.3581)" fill="#CCCECF" cx="93.709" cy="18.313" rx="2.301" ry="1.876"/>
		
			<ellipse transform="matrix(0.8198 0.5727 -0.5727 0.8198 31.3731 -47.4339)" fill="#CCCECF" cx="91.054" cy="26.131" rx="3.276" ry="1.624"/>
		
			<ellipse transform="matrix(0.8198 0.5727 -0.5727 0.8198 28.5006 -38.306)" fill="#CCCECF" cx="75.114" cy="26.131" rx="3.276" ry="1.624"/>
		
			<ellipse transform="matrix(-0.8197 -0.5729 0.5729 -0.8197 131.5068 71.6199)" fill="#CCCECF" cx="77.027" cy="15.11" rx="3.5" ry="1.75"/>
		
			<ellipse transform="matrix(-0.8195 -0.5731 0.5731 -0.8195 119.0096 61.6713)" fill="#CCCECF" cx="69.217" cy="12.093" rx="1.432" ry="0.813"/>
		
			<ellipse transform="matrix(0.8196 0.573 -0.573 0.8196 38.7442 -53.1069)" fill="#CCCECF" cx="103.696" cy="34.965" rx="2.705" ry="0.999"/>
		
			<ellipse transform="matrix(0.8197 0.5728 -0.5728 0.8197 17.6655 -34.5645)" fill="#CCCECF" cx="63.732" cy="10.776" rx="2.705" ry="1.001"/>
		
			<ellipse transform="matrix(0.8197 0.5728 -0.5728 0.8197 30.8071 -42.4521)" fill="#CCCECF" cx="82.833" cy="27.707" rx="2.704" ry="1"/>
		
			<ellipse transform="matrix(0.8198 0.5727 -0.5727 0.8198 32.0744 -52.5603)" fill="#CCCECF" cx="99.551" cy="24.683" rx="1.545" ry="0.875"/>
		
			<ellipse transform="matrix(-0.8197 -0.5727 0.5727 -0.8197 119.6163 78.0508)" fill="#CCCECF" cx="72.091" cy="20.202" rx="1.625" ry="0.999"/>
		
			<ellipse transform="matrix(-0.8195 -0.5731 0.5731 -0.8195 148.358 109.4084)" fill="#CCCECF" cx="91.411" cy="31.337" rx="1.626" ry="1"/>
		
			<ellipse transform="matrix(-0.8197 -0.5727 0.5727 -0.8197 171.962 112.5727)" fill="#CCCECF" cx="103.696" cy="29.225" rx="1.625" ry="0.999"/>
		
			<ellipse transform="matrix(-0.8197 -0.5727 0.5727 -0.8197 167.984 90.7894)" fill="#CCCECF" cx="98.279" cy="18.959" rx="1.625" ry="0.999"/>
		
			<ellipse transform="matrix(-0.8197 -0.5727 0.5727 -0.8197 158.0899 118.8434)" fill="#CCCECF" cx="97.747" cy="34.543" rx="1.625" ry="1.001"/>
		
			<ellipse transform="matrix(0.8197 0.5729 -0.5729 0.8197 34.4503 -51.0339)" fill="#CCCECF" cx="98.28" cy="29.199" rx="2.625" ry="1.875"/>
		
			<ellipse transform="matrix(0.8197 0.5728 -0.5728 0.8197 23.3347 -50.4143)" fill="#CCCECF" cx="91.749" cy="11.859" rx="2.625" ry="1.875"/>
	</g>
</g>
</svg>
