<?xml version="1.0" encoding="utf-8"?>
<!-- Generator: Adobe Illustrator 16.0.0, SVG Export Plug-In . SVG Version: 6.00 Build 0)  -->
<!DOCTYPE svg PUBLIC "-//W3C//DTD SVG 1.1//EN" "http://www.w3.org/Graphics/SVG/1.1/DTD/svg11.dtd">
<svg version="1.1" xmlns="http://www.w3.org/2000/svg" xmlns:xlink="http://www.w3.org/1999/xlink" x="0px" y="0px"
	 width="214.21px" height="214.21px" viewBox="0 0 214.21 214.21" enable-background="new 0 0 214.21 214.21" xml:space="preserve">
<path fill="#FFD15C" d="M37.986,155.065c-2.431,2.691-4.835,5.596-7.154,9.141l-0.062,0.1l1.315,49.902l46.237-18.807l0.062-0.088
	c2.318-3.551,4.02-6.922,5.502-10.225L37.986,155.065z"/>
<g>
	<path id="SVGCleanerId_0_1_" fill="#F1543F" d="M147.216,64.567L72.85,178.276c-3.103,4.748-0.642,12.283,5.509,17.025
		l80.516-123.109L147.216,64.567z"/>
</g>
<g>
	<path id="SVGCleanerId_1_1_" fill="#F1543F" d="M111.348,41.099L30.832,164.206c6.804,3.74,14.707,2.984,17.809-1.764
		l74.366-113.709L111.348,41.099z"/>
</g>
<g>
	<path id="SVGCleanerId_2_1_" fill="#FF7058" d="M123.007,48.733L48.641,162.431c-3.185,4.867-0.798,13.049,5.896,17.416
		c6.68,4.369,15.136,3.285,18.308-1.57l74.372-113.704L123.007,48.733z"/>
</g>
<rect x="129.045" y="17.869" transform="matrix(-0.5474 0.8369 -0.8369 -0.5474 258.3171 -47.1424)" fill="#E8EAEA" width="25.724" height="56.827"/>
<path fill="#84DBFF" d="M175.482,14.734L157.341,2.876c-8.119-5.321-19.012-3.041-24.314,5.079l-11.223,17.161l47.551,31.101
	l11.224-17.161C185.882,30.936,183.607,20.043,175.482,14.734"/>
<path fill="#40596B" d="M31.599,195.769l0.486,18.439l17.087-6.949C46.286,200.149,39.263,195.558,31.599,195.769"/>
</svg>
