<?xml version="1.0" encoding="utf-8"?>
<!-- Generator: Adobe Illustrator 16.0.0, SVG Export Plug-In . SVG Version: 6.00 Build 0)  -->
<!DOCTYPE svg PUBLIC "-//W3C//DTD SVG 1.1//EN" "http://www.w3.org/Graphics/SVG/1.1/DTD/svg11.dtd">
<svg version="1.1" id="图层_1" xmlns="http://www.w3.org/2000/svg" xmlns:xlink="http://www.w3.org/1999/xlink" x="0px" y="0px"
	 width="113.885px" height="109.275px" viewBox="0 0 113.885 109.275" enable-background="new 0 0 113.885 109.275"
	 xml:space="preserve">
<g>
	<g>
		<path fill="#E8E5E5" d="M95.544,104.14c-0.754,3.509-4.208,5.741-7.716,4.988L34.155,97.607c-3.508-0.753-5.742-4.208-4.989-7.716
			L47.361,5.134c0.752-3.509,4.208-5.741,7.715-4.988l53.674,11.521c3.509,0.753,5.741,4.207,4.989,7.716L95.544,104.14z"/>
		<path fill-rule="evenodd" clip-rule="evenodd" fill="#B5161C" d="M82.572,39.443c-3.532-0.88-7.129,0.414-8.221,1.689
			c-0.471-1.611-3.219-4.267-6.803-4.913c-9.335-1.689-14.861,7.362-12.57,15.925c1.861,6.959,6.756,13.786,10.91,17.913
			c0.807,0.801,1.418,1.218,1.955,1.393c0.561,0.061,1.291-0.068,2.354-0.467c5.482-2.058,12.748-6.274,17.303-11.858
			C93.102,52.257,91.777,41.735,82.572,39.443z"/>
		<path fill-rule="evenodd" clip-rule="evenodd" fill="#B5161C" d="M59.765,8.194c-0.948-0.236-1.913,0.111-2.207,0.454
			c-0.126-0.433-0.864-1.146-1.825-1.319c-2.507-0.454-3.989,1.977-3.375,4.273c0.5,1.869,1.813,3.702,2.929,4.81
			c0.217,0.214,0.381,0.327,0.524,0.374c0.151,0.016,0.346-0.019,0.633-0.126c1.471-0.552,3.422-1.685,4.643-3.183
			C62.591,11.634,62.235,8.808,59.765,8.194z"/>
		<path fill-rule="evenodd" clip-rule="evenodd" fill="#B5161C" d="M107.046,18.523c-0.948-0.236-1.913,0.111-2.206,0.454
			c-0.127-0.433-0.865-1.145-1.826-1.319c-2.507-0.453-3.989,1.977-3.375,4.275c0.5,1.867,1.814,3.699,2.93,4.808
			c0.216,0.215,0.38,0.327,0.524,0.373c0.15,0.018,0.347-0.018,0.631-0.125c1.472-0.552,3.423-1.684,4.646-3.183
			C109.872,21.963,109.518,19.138,107.046,18.523z"/>
		<path fill-rule="evenodd" clip-rule="evenodd" fill="#B5161C" d="M43.688,83.805c-0.947-0.238-1.913,0.109-2.206,0.452
			c-0.126-0.433-0.864-1.145-1.826-1.319c-2.505-0.453-3.987,1.978-3.375,4.275c0.501,1.867,1.814,3.7,2.93,4.809
			c0.216,0.214,0.381,0.326,0.524,0.373c0.151,0.017,0.347-0.019,0.632-0.126c1.473-0.552,3.422-1.685,4.645-3.183
			C46.516,87.244,46.16,84.419,43.688,83.805z"/>
		<path fill-rule="evenodd" clip-rule="evenodd" fill="#B5161C" d="M90.971,94.132c-0.948-0.234-1.913,0.111-2.207,0.454
			c-0.126-0.433-0.864-1.145-1.826-1.319c-2.505-0.453-3.988,1.977-3.373,4.275c0.499,1.867,1.812,3.7,2.928,4.808
			c0.217,0.216,0.381,0.327,0.524,0.374c0.151,0.017,0.348-0.019,0.632-0.125c1.473-0.553,3.422-1.685,4.645-3.184
			C93.797,97.573,93.441,94.749,90.971,94.132z"/>
	</g>
	<g>
		<path fill="#F2EFEF" d="M81.413,91.752c0.596,3.538-1.791,6.889-5.329,7.483l-54.137,9.103c-3.537,0.596-6.888-1.79-7.483-5.33
			L0.091,17.522c-0.596-3.539,1.791-6.889,5.329-7.484l54.136-9.103c3.538-0.595,6.89,1.791,7.484,5.329L81.413,91.752z"/>
		<path fill-rule="evenodd" clip-rule="evenodd" fill="#353231" d="M55.552,45.533c-4.163-5.599-11.009-9.992-16.222-12.22
			c-1.012-0.434-1.712-0.591-2.257-0.556c-0.525,0.145-1.138,0.523-1.951,1.263c-4.198,3.81-9.23,10.201-11.334,16.853
			c-2.586,8.184,2.365,17.181,11.469,15.952c1.375-0.185,2.638-0.677,3.696-1.298c0.57,2.905,0.775,6.771-0.79,10.384
			c-0.559,1.463-0.505,1.745,0.514,1.573c2.121-0.357,4.059-0.682,5.754-0.968c0.047-0.007,0.095-0.016,0.141-0.022
			c1.729-0.292,3.716-0.626,5.895-0.992c1.019-0.17,0.977-0.455-0.029-1.654c-2.63-2.869-3.706-6.536-4.129-9.453
			c1.129,0.192,2.374,0.216,3.624-0.037C58.936,62.542,60.673,52.419,55.552,45.533z"/>
		<path fill-rule="evenodd" clip-rule="evenodd" fill="#353231" d="M15.453,18.234c-1.118-1.503-2.956-2.684-4.357-3.282
			c-0.271-0.116-0.46-0.158-0.606-0.147c-0.141,0.037-0.305,0.139-0.523,0.338c-1.127,1.023-2.478,2.74-3.044,4.527
			c-0.694,2.196,0.636,4.613,3.08,4.283c0.369-0.05,0.709-0.182,0.993-0.35c0.153,0.781,0.208,1.819-0.212,2.79
			c-0.15,0.393-0.136,0.468,0.137,0.423c0.57-0.097,1.091-0.185,1.546-0.261c0.013-0.001,0.025-0.004,0.038-0.005
			c0.464-0.079,0.998-0.17,1.583-0.268c0.273-0.045,0.263-0.122-0.008-0.444c-0.706-0.77-0.994-1.755-1.108-2.538
			c0.303,0.052,0.637,0.058,0.973-0.011C16.361,22.802,16.828,20.083,15.453,18.234z"/>
		<path fill-rule="evenodd" clip-rule="evenodd" fill="#353231" d="M63.208,10.382C62.09,8.879,60.252,7.699,58.851,7.1
			c-0.271-0.116-0.459-0.158-0.604-0.148c-0.142,0.039-0.305,0.14-0.525,0.339c-1.127,1.022-2.478,2.739-3.043,4.526
			c-0.695,2.198,0.636,4.613,3.079,4.284c0.371-0.05,0.709-0.183,0.993-0.349c0.153,0.779,0.208,1.818-0.212,2.79
			c-0.15,0.392-0.136,0.468,0.139,0.421c0.568-0.096,1.089-0.183,1.546-0.259c0.012-0.003,0.023-0.004,0.037-0.007
			c0.463-0.078,0.998-0.168,1.583-0.266c0.272-0.047,0.262-0.124-0.008-0.444c-0.707-0.771-0.995-1.756-1.109-2.539
			c0.303,0.052,0.637,0.059,0.974-0.011C64.117,14.95,64.584,12.232,63.208,10.382z"/>
		<path fill-rule="evenodd" clip-rule="evenodd" fill="#353231" d="M28.293,94.595c-1.118-1.504-2.958-2.685-4.357-3.281
			c-0.272-0.117-0.46-0.159-0.606-0.15c-0.141,0.04-0.305,0.142-0.524,0.341c-1.127,1.022-2.479,2.739-3.043,4.525
			c-0.695,2.196,0.636,4.614,3.08,4.284c0.369-0.049,0.707-0.182,0.993-0.349c0.153,0.779,0.208,1.818-0.213,2.788
			c-0.149,0.394-0.136,0.469,0.138,0.423c0.57-0.095,1.09-0.183,1.546-0.259c0.012-0.003,0.025-0.005,0.038-0.007
			c0.464-0.079,0.996-0.169,1.583-0.267c0.272-0.046,0.262-0.122-0.008-0.443c-0.706-0.771-0.996-1.756-1.108-2.54
			c0.302,0.051,0.637,0.058,0.973-0.011C29.201,99.164,29.668,96.445,28.293,94.595z"/>
		<path fill-rule="evenodd" clip-rule="evenodd" fill="#353231" d="M76.048,86.744c-1.118-1.503-2.956-2.684-4.357-3.282
			c-0.271-0.115-0.459-0.158-0.605-0.149c-0.142,0.039-0.306,0.142-0.524,0.34c-1.127,1.022-2.479,2.74-3.044,4.526
			c-0.694,2.197,0.636,4.614,3.08,4.284c0.369-0.05,0.709-0.183,0.993-0.35c0.153,0.781,0.208,1.82-0.212,2.79
			c-0.15,0.392-0.136,0.469,0.137,0.423c0.57-0.097,1.091-0.184,1.546-0.261c0.014-0.001,0.025-0.004,0.037-0.007
			c0.465-0.077,0.999-0.167,1.584-0.266c0.273-0.045,0.263-0.122-0.008-0.443c-0.706-0.771-0.995-1.756-1.108-2.54
			c0.303,0.052,0.637,0.059,0.974-0.01C76.956,91.312,77.424,88.593,76.048,86.744z"/>
	</g>
</g>
</svg>
