<?xml version="1.0" encoding="utf-8"?>
<!-- Generator: Adobe Illustrator 16.0.0, SVG Export Plug-In . SVG Version: 6.00 Build 0)  -->
<!DOCTYPE svg PUBLIC "-//W3C//DTD SVG 1.1//EN" "http://www.w3.org/Graphics/SVG/1.1/DTD/svg11.dtd">
<svg version="1.1" xmlns="http://www.w3.org/2000/svg" xmlns:xlink="http://www.w3.org/1999/xlink" x="0px" y="0px"
	 width="285.46px" height="285.46px" viewBox="0 0 285.46 285.46" enable-background="new 0 0 285.46 285.46" xml:space="preserve">
<path fill="#FFE100" d="M41.659,117.323v76.634c0,20.55,16.659,37.209,37.209,37.209H206c20.55,0,37.21-16.659,37.21-37.209v-76.634
	H41.659z"/>
<rect x="0.925" y="122.521" transform="matrix(0.9617 0.2739 -0.2739 0.9617 36.3307 -1.7909)" fill="#FFE100" width="47.307" height="13.344"/>
<rect x="237.26" y="122.522" transform="matrix(0.9754 -0.2207 0.2207 0.9754 -22.076 60.7553)" fill="#FFE100" width="47.308" height="13.344"/>
<g>
	<path fill="#FFE100" d="M222.274,76.144c1.361,9.049-44.53,17.264-98.134,25.326c-53.601,8.062-94.615,12.922-95.975,3.873
		c-1.36-9.046,40.988-22.916,94.591-30.979C176.355,66.3,220.912,67.098,222.274,76.144z"/>
	<path fill="#FFE100" d="M142.02,60.104c0.694,4.602-7.866,9.7-19.111,11.394c-11.249,1.692-20.927-0.665-21.619-5.267
		c-0.692-4.597,7.866-9.698,19.111-11.389C131.65,53.15,141.33,55.508,142.02,60.104z"/>
	
		<rect x="115.905" y="64.541" transform="matrix(0.9889 -0.1487 0.1487 0.9889 -10.1461 19.4299)" fill="#FFE100" width="17.852" height="26.018"/>
	<g>
		<path fill="#FFED7C" d="M41.672,102.47c0.616,4.094,7.541,3.58,31.793-0.068l11.007-13.949
			C60.22,92.099,41.058,98.375,41.672,102.47z"/>
		<path fill="#FFED7C" d="M104.847,66.162l16.809-9.363C108.486,58.781,104.273,62.347,104.847,66.162z"/>
	</g>
</g>
<path fill="#FFED7C" d="M50.944,125.356v72.606c0,0-1.515,22.086,24.202,26.02c25.717,3.933,29.805,1.814,29.805,1.814v-100.44"/>
<path fill="#E8E3EA" d="M97.94,217.204c0,0-20.638-2.524-29.719-12.876c-9.743-11.106-9.896-18.34-11.724-57.11
	c0,0-6.903,49.71,5.249,61.531C66.943,213.804,79.067,220.107,97.94,217.204z"/>
<path fill="#FFED7C" d="M233.837,197.962v-72.606h-30.274l-0.014,99.501c0,0,3.905-0.541,6.086-0.875
	C235.351,220.048,233.837,197.962,233.837,197.962z"/>
</svg>
