<?xml version="1.0" encoding="utf-8"?>
<!-- Generator: Adobe Illustrator 16.0.0, SVG Export Plug-In . SVG Version: 6.00 Build 0)  -->
<!DOCTYPE svg PUBLIC "-//W3C//DTD SVG 1.1//EN" "http://www.w3.org/Graphics/SVG/1.1/DTD/svg11.dtd">
<svg version="1.1" xmlns="http://www.w3.org/2000/svg" xmlns:xlink="http://www.w3.org/1999/xlink" x="0px" y="0px"
	 width="41.25px" height="41.25px" viewBox="0 0 41.25 41.25" enable-background="new 0 0 41.25 41.25" xml:space="preserve">
<g id="g14">
	<g id="g20" transform="translate(17,9)">
		<path id="path22" fill="#E24920" d="M1.75,22.25C-0.321,22.25-2,20.571-2,18.5v-5c0-2.071,1.679-3.75,3.75-3.75
			c0.754-0.007,7.5-1.249,7.5-6.249C9.25,1.001,6.75-1.5,3-1.5c-3.051,0-5,2.501-5,3.751c0,2.07-1.679,3.75-3.75,3.75
			s-3.75-1.68-3.75-3.75C-9.5-3.848-3.775-9,3-9C13-9,16.75-1.522,16.75,4.751c0,5.18-2.846,9.142-8.016,11.15
			c-1.125,0.438-2.238,0.733-3.234,0.934V18.5C5.5,20.571,3.821,22.25,1.75,22.25"/>
	</g>
	<g id="g24" transform="translate(20,4)">
		<path id="path26" fill="#E24920" d="M2.5,33.5c0,2.071-1.679,3.75-3.75,3.75S-5,35.571-5,33.5s1.679-3.75,3.75-3.75
			S2.5,31.429,2.5,33.5"/>
	</g>
</g>
</svg>
