<?xml version="1.0" encoding="utf-8"?>
<!-- Generator: Adobe Illustrator 16.0.0, SVG Export Plug-In . SVG Version: 6.00 Build 0)  -->
<!DOCTYPE svg PUBLIC "-//W3C//DTD SVG 1.1//EN" "http://www.w3.org/Graphics/SVG/1.1/DTD/svg11.dtd">
<svg version="1.1" xmlns="http://www.w3.org/2000/svg" xmlns:xlink="http://www.w3.org/1999/xlink" x="0px" y="0px"
	 width="100px" height="98.806px" viewBox="0 0 100 98.806" enable-background="new 0 0 100 98.806" xml:space="preserve">
<g>
	<path fill="none" d="M79.417,64.634c-0.055-0.306-0.181-0.645-0.37-1.002c-0.186-0.343-0.734-1.34-1.461-2.651L79.417,64.634z"/>
	<path fill="#60826F" d="M51.84,29.294l6.907,2.007c2.456,0.716,6.471,1.884,8.927,2.6l6.907,2.007
		c2.454,0.716,4.923-0.739,5.489-3.232l1.59-7.015c0.562-2.494,1.485-6.571,2.05-9.07l1.59-7.015
		c0.567-2.489-1.042-3.313-3.569-1.826l-4.334,2.556c-1.588-2.708-3.176-5.397-3.789-6.385C72.213,1.684,69.531-0.028,64.262,0
		c-3.91,0.024-14.301,0.081-20.872,0.119l8.715,15.308c0.195,0.195,0.376,0.443,0.539,0.768c0.415,0.844,1.996,3.733,3.569,6.595
		l-4.239,2.499C49.446,26.775,49.386,28.578,51.84,29.294z"/>
	<path fill="#93BDA5" d="M27.682,5.217c-2.239,3.405-7.914,12.451-7.914,12.451c-1.273,2.031-0.625,4.683,1.443,5.898l13.919,8.169
		c2.067,1.211,4.778,0.529,6.02-1.517c0,0,7.852-12.904,8.579-14.101c0.747-1.24,1.647-1.426,2.375-0.691L43.39,0.119
		c-2.274,0.015-4.096,0.024-5.028,0.029C34.737,0.172,30.593,0.802,27.682,5.217z"/>
	<path fill="#60826F" d="M3.06,62.426c1.569,3.042,5.911,10.877,9.091,16.618l9.866-16.132c1.161-1.984,3.316-5.665,5.117-8.712
		l5.05,2.804c2.563,1.426,4.149,0.562,3.524-1.912l-1.769-6.977c-0.625-2.475-1.652-6.533-2.279-9.008l-1.762-6.977
		c-0.629-2.479-3.133-3.872-5.569-3.095l-6.855,2.184c-2.437,0.772-6.421,2.041-8.857,2.818l-6.853,2.185
		c-2.437,0.772-2.334,2.574,0.229,4l3.724,2.07c-1.903,3.676-4.142,8.021-4.707,9.265C-0.011,53.809,0.618,57.695,3.06,62.426z"/>
	<path fill="#93BDA5" d="M22.017,62.912l-9.866,16.132c1.774,3.195,3.188,5.746,3.562,6.452c1.04,1.979,2.532,5.855,11.948,5.803
		c9.409-0.057,13.686-0.081,13.686-0.081c2.394-0.014,4.344-1.983,4.33-4.377l-0.09-16.156c-0.017-2.398-1.984-4.344-4.382-4.335
		c0,0-16.022,0.096-18.695,0.11c-1.688,0.01-1.903-1.111-1.309-2.15C21.28,64.171,21.581,63.656,22.017,62.912z"/>
	<path fill="#60826F" d="M79.417,64.634l8.157,16.289c2.854-5.26,7.699-14.392,9.68-18.34c2.649-5.284,3.398-9.866,2.177-12.27
		c-1.223-2.413-7.26-14.125-7.26-14.125c-1.099-2.131-3.667-2.842-5.708-1.588l-13.829,8.508c-2.041,1.254-2.756,3.996-1.59,6.084
		c0,0,4.201,7.559,6.542,11.788c0.727,1.312,1.275,2.309,1.461,2.651C79.235,63.989,79.361,64.328,79.417,64.634z"/>
	<path fill="#93BDA5" d="M85.554,84.575c0.322-0.543,1.059-1.879,2.02-3.652l-8.157-16.289c0.171,0.943-0.308,1.592-1.481,1.597
		c-0.801,0.005-4.773,0.029-8.433,0.048l-0.045-5.05c-0.028-2.933-1.559-3.887-3.405-2.117l-5.193,4.979
		c-1.845,1.769-4.866,4.663-6.711,6.433l-5.191,4.974c-1.848,1.77-1.819,4.64,0.053,6.376l5.283,4.883
		c1.876,1.735,4.945,4.573,6.826,6.309l5.281,4.883c1.876,1.736,3.393,0.759,3.367-2.174L69.72,90.97
		c2.067-0.014,4.349-0.028,6.459-0.038C82.051,90.898,84.269,86.74,85.554,84.575z"/>
</g>
</svg>
