<?xml version="1.0" encoding="utf-8"?>
<!-- Generator: Adobe Illustrator 16.0.0, SVG Export Plug-In . SVG Version: 6.00 Build 0)  -->
<!DOCTYPE svg PUBLIC "-//W3C//DTD SVG 1.1//EN" "http://www.w3.org/Graphics/SVG/1.1/DTD/svg11.dtd">
<svg version="1.1" id="图层_1" xmlns="http://www.w3.org/2000/svg" xmlns:xlink="http://www.w3.org/1999/xlink" x="0px" y="0px"
	 width="731.93px" height="731.93px" viewBox="0 0 731.93 731.93" enable-background="new 0 0 731.93 731.93" xml:space="preserve">
<g>
	<path fill="#F6C812" d="M453.549,99.789c-39.664-10.589-134.732-13.562-179.457,1.231c-0.178,0-0.35,0-0.527,0.087
		C139.105,140.551,42.938,263.888,40.996,409.997c-2.469,184.656,142.838,321.676,320,321.934
		c162.866,0,329.705-128.834,329.969-321.934C691.141,262.122,590.83,136.398,453.549,99.789z M360.996,694.435
		C205.805,695.056,80.875,580.713,80.788,443.789c-0.095-146.911,125.495-250.655,281.267-250.655
		c164.014,1.672,295.561,123.69,289.121,250.655C644.916,566.574,501.818,694.435,360.996,694.435z"/>
	<path fill="#FDDD3F" d="M690.965,409.997c-0.264,193.747-167.809,321.581-328.91,321.934v-37.496
		c142.578-1.146,282.943-129.515,289.121-250.646c6.439-126.964-125.107-248.983-289.121-250.655V90.88
		c37.937,0.172,74.641,4.412,91.494,8.909C590.83,136.398,691.141,262.122,690.965,409.997z"/>
	<g>
		<polygon fill="#51C4D5" points="241.535,66.876 283.182,-0.001 443.402,-0.001 485.311,67.41 361.879,193.134 		"/>
		<g>
			<polygon opacity="0.34" fill="#FFFFFF" points="484.957,66.876 241.535,66.876 283.182,-0.001 443.402,-0.001 			"/>
			<polygon opacity="0.34" fill="#FFFFFF" points="283.182,-0.001 443.402,-0.001 362.055,193.134 			"/>
			<polygon fill="#2FB1B8" points="241.157,66.807 310.222,66.816 361.986,193.186 			"/>
		</g>
	</g>
</g>
</svg>
