<?xml version="1.0" encoding="utf-8"?>
<!-- Generator: Adobe Illustrator 16.0.0, SVG Export Plug-In . SVG Version: 6.00 Build 0)  -->
<!DOCTYPE svg PUBLIC "-//W3C//DTD SVG 1.1//EN" "http://www.w3.org/Graphics/SVG/1.1/DTD/svg11.dtd">
<svg version="1.1" id="图层_1" xmlns="http://www.w3.org/2000/svg" xmlns:xlink="http://www.w3.org/1999/xlink" x="0px" y="0px"
	 width="84.14px" height="84.14px" viewBox="0 0 84.14 84.14" enable-background="new 0 0 84.14 84.14" xml:space="preserve">
<g>
	<g>
		<ellipse opacity="0" fill="#FFFFFF" cx="40.736" cy="77.099" rx="24.822" ry="7.039"/>
		<ellipse opacity="0.0084" fill="#FEFEFF" cx="40.736" cy="77.099" rx="24.621" ry="6.982"/>
		<ellipse opacity="0.0168" fill="#FDFEFE" cx="40.736" cy="77.099" rx="24.421" ry="6.925"/>
		<ellipse opacity="0.0252" fill="#FCFDFE" cx="40.736" cy="77.099" rx="24.22" ry="6.869"/>
		<ellipse opacity="0.0336" fill="#FBFDFD" cx="40.736" cy="77.099" rx="24.02" ry="6.812"/>
		<ellipse opacity="0.042" fill="#FAFCFD" cx="40.736" cy="77.099" rx="23.82" ry="6.755"/>
		<ellipse opacity="0.0504" fill="#F9FBFD" cx="40.736" cy="77.099" rx="23.619" ry="6.698"/>
		<ellipse opacity="0.0588" fill="#F8FBFC" cx="40.736" cy="77.099" rx="23.418" ry="6.641"/>
		<ellipse opacity="0.0672" fill="#F7FAFC" cx="40.736" cy="77.099" rx="23.218" ry="6.584"/>
		<ellipse opacity="0.0756" fill="#F6FAFB" cx="40.736" cy="77.099" rx="23.018" ry="6.527"/>
		<ellipse opacity="0.084" fill="#F5F9FB" cx="40.736" cy="77.099" rx="22.817" ry="6.471"/>
		<ellipse opacity="0.0924" fill="#F4F9FB" cx="40.736" cy="77.099" rx="22.616" ry="6.414"/>
		<ellipse opacity="0.1008" fill="#F3F8FA" cx="40.736" cy="77.099" rx="22.416" ry="6.357"/>
		<ellipse opacity="0.1092" fill="#F2F7FA" cx="40.736" cy="77.099" rx="22.216" ry="6.3"/>
		<ellipse opacity="0.1176" fill="#F1F7F9" cx="40.736" cy="77.099" rx="22.015" ry="6.243"/>
		<ellipse opacity="0.1261" fill="#F0F6F9" cx="40.736" cy="77.099" rx="21.815" ry="6.187"/>
		<ellipse opacity="0.1345" fill="#EFF6F9" cx="40.736" cy="77.099" rx="21.614" ry="6.13"/>
		<ellipse opacity="0.1429" fill="#EEF5F8" cx="40.736" cy="77.099" rx="21.414" ry="6.073"/>
		<ellipse opacity="0.1513" fill="#EDF4F8" cx="40.736" cy="77.099" rx="21.213" ry="6.016"/>
		<ellipse opacity="0.1597" fill="#ECF4F7" cx="40.736" cy="77.099" rx="21.013" ry="5.959"/>
		<ellipse opacity="0.1681" fill="#EBF3F7" cx="40.736" cy="77.099" rx="20.812" ry="5.902"/>
		<ellipse opacity="0.1765" fill="#EAF3F7" cx="40.736" cy="77.099" rx="20.612" ry="5.845"/>
		<ellipse opacity="0.1849" fill="#E9F2F6" cx="40.736" cy="77.099" rx="20.411" ry="5.789"/>
		<ellipse opacity="0.1933" fill="#E8F1F6" cx="40.736" cy="77.099" rx="20.211" ry="5.731"/>
		<ellipse opacity="0.2017" fill="#E7F1F5" cx="40.736" cy="77.099" rx="20.01" ry="5.675"/>
		<ellipse opacity="0.2101" fill="#E6F0F5" cx="40.736" cy="77.099" rx="19.81" ry="5.618"/>
		<ellipse opacity="0.2185" fill="#E5F0F5" cx="40.736" cy="77.099" rx="19.609" ry="5.562"/>
		<ellipse opacity="0.2269" fill="#E4EFF4" cx="40.736" cy="77.099" rx="19.409" ry="5.504"/>
		<ellipse opacity="0.2353" fill="#E3EFF4" cx="40.736" cy="77.099" rx="19.208" ry="5.448"/>
		<ellipse opacity="0.2437" fill="#E2EEF3" cx="40.736" cy="77.099" rx="19.008" ry="5.391"/>
		<ellipse opacity="0.2521" fill="#E1EDF3" cx="40.736" cy="77.099" rx="18.807" ry="5.334"/>
		<ellipse opacity="0.2605" fill="#E0EDF2" cx="40.736" cy="77.099" rx="18.607" ry="5.277"/>
		<ellipse opacity="0.2689" fill="#DFECF2" cx="40.736" cy="77.099" rx="18.407" ry="5.22"/>
		<ellipse opacity="0.2773" fill="#DEECF2" cx="40.736" cy="77.099" rx="18.206" ry="5.163"/>
		<ellipse opacity="0.2857" fill="#DDEBF1" cx="40.736" cy="77.099" rx="18.006" ry="5.106"/>
		<ellipse opacity="0.2941" fill="#DCEAF1" cx="40.736" cy="77.099" rx="17.805" ry="5.05"/>
		<ellipse opacity="0.3025" fill="#DBEAF0" cx="40.736" cy="77.099" rx="17.605" ry="4.993"/>
		<ellipse opacity="0.3109" fill="#DAE9F0" cx="40.736" cy="77.099" rx="17.404" ry="4.936"/>
		<ellipse opacity="0.3193" fill="#D9E9F0" cx="40.736" cy="77.099" rx="17.204" ry="4.879"/>
		<ellipse opacity="0.3277" fill="#D8E8EF" cx="40.735" cy="77.099" rx="17.003" ry="4.822"/>
		<ellipse opacity="0.3361" fill="#D7E7EF" cx="40.735" cy="77.099" rx="16.803" ry="4.766"/>
		<ellipse opacity="0.3445" fill="#D6E7EE" cx="40.736" cy="77.099" rx="16.602" ry="4.709"/>
		<ellipse opacity="0.3529" fill="#D5E6EE" cx="40.736" cy="77.099" rx="16.402" ry="4.652"/>
		<ellipse opacity="0.3613" fill="#D4E6EE" cx="40.736" cy="77.099" rx="16.201" ry="4.595"/>
		<ellipse opacity="0.3697" fill="#D3E5ED" cx="40.736" cy="77.099" rx="16.001" ry="4.538"/>
		<ellipse opacity="0.3782" fill="#D2E5ED" cx="40.736" cy="77.099" rx="15.8" ry="4.481"/>
		<ellipse opacity="0.3866" fill="#D1E4EC" cx="40.736" cy="77.099" rx="15.6" ry="4.425"/>
		<ellipse opacity="0.395" fill="#D0E3EC" cx="40.736" cy="77.099" rx="15.399" ry="4.368"/>
		<ellipse opacity="0.4034" fill="#CFE3EC" cx="40.736" cy="77.099" rx="15.199" ry="4.311"/>
		<ellipse opacity="0.4118" fill="#CEE2EB" cx="40.736" cy="77.099" rx="14.998" ry="4.254"/>
		<ellipse opacity="0.4202" fill="#CDE2EB" cx="40.736" cy="77.099" rx="14.798" ry="4.197"/>
		<ellipse opacity="0.4286" fill="#CCE1EA" cx="40.735" cy="77.099" rx="14.598" ry="4.141"/>
		<ellipse opacity="0.437" fill="#CBE0EA" cx="40.736" cy="77.099" rx="14.397" ry="4.084"/>
		<ellipse opacity="0.4454" fill="#CAE0EA" cx="40.736" cy="77.099" rx="14.197" ry="4.027"/>
		<ellipse opacity="0.4538" fill="#C9DFE9" cx="40.736" cy="77.099" rx="13.996" ry="3.97"/>
		<ellipse opacity="0.4622" fill="#C8DFE9" cx="40.736" cy="77.099" rx="13.795" ry="3.913"/>
		<ellipse opacity="0.4706" fill="#C7DEE8" cx="40.736" cy="77.099" rx="13.595" ry="3.856"/>
		<ellipse opacity="0.479" fill="#C6DDE8" cx="40.735" cy="77.099" rx="13.395" ry="3.799"/>
		<ellipse opacity="0.4874" fill="#C5DDE8" cx="40.736" cy="77.099" rx="13.194" ry="3.742"/>
		<ellipse opacity="0.4958" fill="#C4DCE7" cx="40.736" cy="77.099" rx="12.994" ry="3.686"/>
		<ellipse opacity="0.5042" fill="#C4DCE7" cx="40.735" cy="77.099" rx="12.793" ry="3.629"/>
		<ellipse opacity="0.5126" fill="#C3DBE6" cx="40.736" cy="77.099" rx="12.593" ry="3.572"/>
		<ellipse opacity="0.521" fill="#C2DBE6" cx="40.736" cy="77.099" rx="12.392" ry="3.515"/>
		<ellipse opacity="0.5294" fill="#C1DAE6" cx="40.736" cy="77.099" rx="12.192" ry="3.458"/>
		<ellipse opacity="0.5378" fill="#C0D9E5" cx="40.735" cy="77.099" rx="11.991" ry="3.401"/>
		<ellipse opacity="0.5462" fill="#BFD9E5" cx="40.736" cy="77.099" rx="11.791" ry="3.345"/>
		<ellipse opacity="0.5546" fill="#BED8E4" cx="40.736" cy="77.099" rx="11.59" ry="3.288"/>
		<ellipse opacity="0.563" fill="#BDD8E4" cx="40.735" cy="77.099" rx="11.39" ry="3.231"/>
		<ellipse opacity="0.5714" fill="#BCD7E4" cx="40.735" cy="77.099" rx="11.189" ry="3.174"/>
		<ellipse opacity="0.5798" fill="#BBD6E3" cx="40.736" cy="77.099" rx="10.989" ry="3.117"/>
		<ellipse opacity="0.5882" fill="#BAD6E3" cx="40.735" cy="77.099" rx="10.788" ry="3.061"/>
		<ellipse opacity="0.5966" fill="#B9D5E2" cx="40.736" cy="77.099" rx="10.588" ry="3.003"/>
		<ellipse opacity="0.605" fill="#B8D5E2" cx="40.736" cy="77.099" rx="10.387" ry="2.947"/>
		<ellipse opacity="0.6134" fill="#B7D4E2" cx="40.736" cy="77.099" rx="10.187" ry="2.89"/>
		<ellipse opacity="0.6218" fill="#B6D3E1" cx="40.735" cy="77.099" rx="9.986" ry="2.833"/>
		<ellipse opacity="0.6303" fill="#B5D3E1" cx="40.736" cy="77.099" rx="9.786" ry="2.776"/>
		<ellipse opacity="0.6387" fill="#B4D2E0" cx="40.736" cy="77.099" rx="9.585" ry="2.72"/>
		<ellipse opacity="0.6471" fill="#B3D2E0" cx="40.735" cy="77.099" rx="9.385" ry="2.662"/>
		<ellipse opacity="0.6555" fill="#B2D1E0" cx="40.735" cy="77.099" rx="9.185" ry="2.605"/>
		<ellipse opacity="0.6639" fill="#B1D1DF" cx="40.736" cy="77.099" rx="8.984" ry="2.549"/>
		<ellipse opacity="0.6723" fill="#B0D0DF" cx="40.736" cy="77.099" rx="8.783" ry="2.492"/>
		<ellipse opacity="0.6807" fill="#AFCFDE" cx="40.735" cy="77.099" rx="8.583" ry="2.435"/>
		<ellipse opacity="0.6891" fill="#AECFDE" cx="40.736" cy="77.099" rx="8.382" ry="2.378"/>
		<ellipse opacity="0.6975" fill="#ADCEDE" cx="40.736" cy="77.099" rx="8.182" ry="2.321"/>
		<ellipse opacity="0.7059" fill="#ACCEDD" cx="40.735" cy="77.099" rx="7.981" ry="2.265"/>
		<ellipse opacity="0.7143" fill="#ABCDDD" cx="40.735" cy="77.099" rx="7.781" ry="2.208"/>
		<ellipse opacity="0.7227" fill="#AACCDC" cx="40.736" cy="77.099" rx="7.581" ry="2.151"/>
		<ellipse opacity="0.7311" fill="#A9CCDC" cx="40.735" cy="77.099" rx="7.38" ry="2.094"/>
		<ellipse opacity="0.7395" fill="#A8CBDC" cx="40.736" cy="77.099" rx="7.18" ry="2.037"/>
		<ellipse opacity="0.7479" fill="#A7CBDB" cx="40.736" cy="77.099" rx="6.979" ry="1.98"/>
		<ellipse opacity="0.7563" fill="#A6CADB" cx="40.735" cy="77.099" rx="6.779" ry="1.924"/>
		<ellipse opacity="0.7647" fill="#A5C9DA" cx="40.736" cy="77.099" rx="6.578" ry="1.867"/>
		<ellipse opacity="0.7731" fill="#A4C9DA" cx="40.735" cy="77.099" rx="6.378" ry="1.81"/>
		<ellipse opacity="0.7815" fill="#A3C8D9" cx="40.736" cy="77.099" rx="6.177" ry="1.753"/>
		<ellipse opacity="0.7899" fill="#A2C8D9" cx="40.735" cy="77.099" rx="5.977" ry="1.696"/>
		<ellipse opacity="0.7983" fill="#A1C7D9" cx="40.735" cy="77.099" rx="5.776" ry="1.64"/>
		<ellipse opacity="0.8067" fill="#A0C7D8" cx="40.736" cy="77.099" rx="5.576" ry="1.583"/>
		<ellipse opacity="0.8151" fill="#9FC6D8" cx="40.735" cy="77.099" rx="5.375" ry="1.526"/>
		<ellipse opacity="0.8235" fill="#9EC5D7" cx="40.736" cy="77.099" rx="5.175" ry="1.469"/>
		<ellipse opacity="0.8319" fill="#9DC5D7" cx="40.735" cy="77.099" rx="4.975" ry="1.412"/>
		<ellipse opacity="0.8403" fill="#9CC4D7" cx="40.735" cy="77.099" rx="4.774" ry="1.355"/>
		<ellipse opacity="0.8487" fill="#9BC4D6" cx="40.736" cy="77.099" rx="4.573" ry="1.299"/>
		<ellipse opacity="0.8571" fill="#9AC3D6" cx="40.735" cy="77.099" rx="4.373" ry="1.241"/>
		<ellipse opacity="0.8655" fill="#99C2D5" cx="40.735" cy="77.099" rx="4.172" ry="1.185"/>
		<ellipse opacity="0.8739" fill="#98C2D5" cx="40.735" cy="77.099" rx="3.972" ry="1.128"/>
		<ellipse opacity="0.8824" fill="#97C1D5" cx="40.735" cy="77.099" rx="3.771" ry="1.071"/>
		<ellipse opacity="0.8908" fill="#96C1D4" cx="40.736" cy="77.099" rx="3.571" ry="1.014"/>
		<path opacity="0.8992" fill="#95C0D4" d="M44.106,77.099c0,0.53-1.508,0.958-3.37,0.958c-1.863,0-3.372-0.428-3.372-0.958
			c0-0.526,1.509-0.954,3.372-0.954C42.598,76.146,44.106,76.573,44.106,77.099z"/>
		<ellipse opacity="0.9076" fill="#94BFD3" cx="40.736" cy="77.099" rx="3.17" ry="0.901"/>
		<ellipse opacity="0.916" fill="#93BFD3" cx="40.735" cy="77.099" rx="2.97" ry="0.844"/>
		<path opacity="0.9244" fill="#92BED3" d="M43.504,77.099c0,0.436-1.239,0.787-2.768,0.787c-1.531,0-2.77-0.352-2.77-0.787
			c0-0.432,1.239-0.783,2.77-0.783C42.265,76.316,43.504,76.667,43.504,77.099z"/>
		<ellipse opacity="0.9328" fill="#91BED2" cx="40.735" cy="77.099" rx="2.569" ry="0.73"/>
		<ellipse opacity="0.9412" fill="#90BDD2" cx="40.735" cy="77.099" rx="2.368" ry="0.673"/>
		<ellipse opacity="0.9496" fill="#8FBDD1" cx="40.735" cy="77.099" rx="2.168" ry="0.616"/>
		<ellipse opacity="0.958" fill="#8EBCD1" cx="40.735" cy="77.099" rx="1.967" ry="0.56"/>
		<ellipse opacity="0.9664" fill="#8DBBD1" cx="40.736" cy="77.099" rx="1.767" ry="0.502"/>
		<ellipse opacity="0.9748" fill="#8CBBD0" cx="40.736" cy="77.099" rx="1.566" ry="0.446"/>
		<ellipse opacity="0.9832" fill="#8BBAD0" cx="40.735" cy="77.099" rx="1.366" ry="0.389"/>
		<ellipse opacity="0.9916" fill="#8ABACF" cx="40.736" cy="77.099" rx="1.165" ry="0.332"/>
		<ellipse fill="#89B9CF" cx="40.735" cy="77.099" rx="0.965" ry="0.275"/>
	</g>
	<g>
		<g>
			<path fill="#CC7900" d="M24.543,27.091c0.001-1.228-0.126-2.443-0.361-3.647c-0.154-0.784-0.761-1.794-0.64-2.592
				c0.812-0.002,1.839,1.115,2.448,1.623c0.648,0.538,2.168,1.526,1.94,2.52c-0.519,0.358-1.07,0.746-1.6,1.108
				c-0.542,0.372-1.052,1.092-1.629,1.353c-0.02-0.099-0.013-0.19-0.015-0.291L24.543,27.091z"/>
			<g>
				<g>
					<path fill="#FFB32C" d="M67.303,40.855C66.985,29.341,55.677,20.327,42.041,20.72c-2.925,0.086-5.711,0.605-8.293,1.468
						c-0.502-0.376-0.98-0.764-1.479-1.229c-1.499-1.396-3.417-2.152-5.193-3.09c-0.45-0.235-1.404-0.962-1.818-0.414
						c-0.25,0.332-0.004,2.37-0.014,2.779c-0.05,1.782-0.036,3.602-0.225,5.379c-0.057,0.514-0.191,1.149-0.299,1.762
						c-1.123,1.009-2.137,2.105-3.011,3.283l-10.635,2.229l0.425,15.501l8.185,1.16c1.673,3.508,4.449,6.521,7.96,8.751
						l-1.395,8.696l4.999,1.547l3.944-7.004c2.519,0.645,5.203,0.964,7.991,0.882c2.795-0.08,5.467-0.556,7.953-1.353l5.859,7.077
						l4.376-2.924l-2.757-7.917C64.08,53.32,67.481,47.388,67.303,40.855z"/>
					<path opacity="0.3" fill="#FFB32C" d="M11.678,38.553c1.087,1.255,2.317,2.408,3.732,3.295c1.317,0.823,2.86,1.22,4.146,1.958
						c1.161,0.668,2.149,1.921,3.258,2.745c2.71,2.009,5.619,3.76,8.786,4.877c3.372,1.19,6.95,2.479,10.574,2.153
						c3.579-0.323,7.119-1.732,9.779-4.246c2.574-2.433,3.585-5.93,3.415-9.433c-0.161-3.29-0.366-6.333-2.197-9.156
						c-1.264-1.946-3.101-3.548-4.924-4.919c-0.869-0.653-1.872-1.135-2.833-1.634c-0.587-0.306-3.13-1.287-3.534-1.753
						c3.764-0.688,11.849,1.212,14.993,3.147c3.576,2.2,6.771,5.67,8.515,9.596c3.272,7.367-1.629,18.55-7.93,22.623
						c-9.009,5.829-23.174,4.398-32.007-1.841c-1.692-1.195-3.202-2.826-4.479-4.484c-0.401-0.524-0.729-1.231-1.146-1.708
						c-0.43-0.492-0.133-0.316-0.721-0.482c-1.648-0.468-3.771-0.509-5.543-0.823c-0.589-0.105-0.928-0.06-1.202-0.582
						c-0.356-0.674-0.224-2.23-0.274-2.992c-0.116-1.746,0.071-4.824-0.78-6.312L11.678,38.553z"/>
					<path opacity="0.3" fill="#FFB32C" d="M11.987,43.208c1.686,2.663,4.792,2.786,7.534,3.425
						c-0.226,0.825,0.467,1.44,0.359,2.197c-1.373-0.224-2.796-0.596-4.202-0.83c-1.193-0.198-2.575,0.102-3.705-0.302
						C12.082,46.358,12.216,44.333,11.987,43.208L11.987,43.208z"/>
					<path opacity="0.3" fill="#FFB32C" d="M19.422,48.387c0.662,4.085,5.284,7.719,8.635,9.43c2.693,1.375,5.7,2.335,8.633,2.949
						c1.953,0.411,3.927,0.651,5.923,0.595c1.767-0.053,4.058-0.013,5.684-0.662c-4.859-1.178-9.625-1.661-14.229-3.874
						c-3.293-1.585-6.921-3.648-9.276-6.563c-0.899-1.114-2.168-3.135-3.625-3.541c-1.536-0.427-1.442,0.922-1.95,1.817
						L19.422,48.387z"/>
					<path fill="#FFBC50" d="M12.056,37.398c0.76-0.621,2.796-0.828,3.907-0.993c2.466-0.368,4.956,0.051,7.39,0.478
						c1.983,0.345,3.838,1.184,5.733,1.868c2.441,0.88,4.864,1.526,7.437,1.872c4.07,0.546,9.052,1.032,12.334-2.001
						c2.015-1.86,2.817-4.806,2.137-7.518c-1.051-4.181-5.483-6.791-9.295-7.476c-1.642-0.294-3.294-0.511-4.959-0.347
						c-1.289,0.127-2.351,0.725-3.569,1.008c-1.439,0.333-2.596-1.33-3.616-2.268c-0.957-0.884-2.328-2.553-3.657-2.702
						c-0.232,0.842,0.598,2.334,0.743,3.215c0.16,0.971,0.292,2.903-0.205,3.816c-0.372,0.681-1.199,0.776-1.777,1.277
						c-0.664,0.577-1.229,1.438-1.749,2.13c-1.382,1.833-3.294,1.806-5.429,2.147c-1.067,0.172-2.153,0.381-3.226,0.557
						c-0.725,0.118-1.617,0.059-2.267,0.487c-0.758,0.5-0.587,1.111-0.412,2.017c0.102,0.521,0.342,2.035,0.525,2.16L12.056,37.398z
						"/>
					<path fill="#FFC571" d="M11.708,36.21c2.199-0.93,4.274-1.577,6.634-2.076c1.404-0.297,3.231-0.248,4.241-1.239
						c3.168-3.109,7.252-4.932,11.667-4.85c1.879,0.036,3.671,0.408,5.167,1.542c1.677,1.27,3.268,2.286,5.248,2.999
						c1.54,0.555,3.398,0.876,3.684-1.36c0.272-2.13-1.639-3.698-3.216-4.635c-2.917-1.733-6.419-2.287-9.732-1.998
						c-1.841,0.162-5.683,0.928-6.804-0.934c-0.282-0.467-1.353-3.341-2.289-2.69c-0.557,0.385,0.165,2.567,0.215,3.072
						c0.222,2.263-1.024,2.7-2.349,4.159c-0.772,0.851-1.295,2.483-2.12,3.119c-0.466,0.358-1.464,0.394-2.025,0.527
						c-0.916,0.22-1.794,0.565-2.695,0.792c-1.496,0.374-3.062,0.494-4.531,0.879c-0.873,0.229-0.706,0.283-0.708,1.071
						c-0.002,0.438,0.156,1.428-0.266,1.453L11.708,36.21z"/>
					<path opacity="0.3" fill="#FFB32C" d="M26.55,66.75c-0.022,0.115-0.195,0.101-0.037,0.19c1.795-0.671,3.788-2.333,4.289-4.293
						c0.297-1.158,0.413-3.583-0.692-4.357c0.606,0.588,1.583,0.895,2.333,1.271c0.682,0.344,1.99,0.704,2.422,1.255
						c-0.667,0.731-0.863,1.9-1.278,2.776c-0.492,1.045-1.06,2.008-1.647,2.992c-0.718,1.202-0.676,1.871-2.114,1.309
						c-1.047-0.411-2.148-0.789-3.187-1.128L26.55,66.75z"/>
					<path opacity="0.3" fill="#FFB32C" d="M27.243,66.969c0.262,0.318,2.343,1.056,3.082,1.207c1.24,0.255,1.368-0.762,1.935-1.721
						c1.104-1.87,1.655-4.016,2.628-5.9c-0.805-0.162-1.672-0.427-2.399-0.806c0.324,1.401-0.147,3.122-0.901,4.332
						c-0.761,1.228-2.823,2.889-4.27,2.992c0.174,0.055,0.346,0.117,0.515,0.188L27.243,66.969z"/>
				</g>
				<path opacity="0.3" fill="#FFB32C" d="M21.153,33.004c1.041,2.918-1.216,7.694-3.118,9.853
					c-0.856,0.975-1.924,1.857-3.133,2.295c-0.854,0.311-1.809,0.303-2.595,0.688c-0.038,0.58-0.251,1.227-0.258,1.771
					c1.326,0.232,2.555,0.627,3.924,0.765c1.219,0.123,2.499-0.278,3.621-0.101c1.736-4.978,2.458-10.077,1.407-15.22
					c0.134-0.017,0.043,0.085,0.115,0.151L21.153,33.004z"/>
				<path opacity="0.3" fill="#FFB32C" d="M55.78,58.774c0.397,1.423,1.733,3.764,1.443,5.235c-0.321,1.62-2.351,0.098-3.113-0.472
					c0.336,0.845,1.185,1.595,1.694,2.354c0.409,0.61,0.938,1.588,1.641,1.518c0.457-0.046,1.37-0.989,1.799-1.262
					c0.592-0.378,1.172-0.646,1.781-0.947c-0.825-2.773-1.933-5.666-2.818-8.386c-0.135,0.705-2.278,1.862-2.587,1.719L55.78,58.774
					z"/>
				<path opacity="0.3" fill="#FFB32C" d="M57.226,58.251c-0.173,1.71,1.039,3.475,0.814,5.34c-0.158,1.302-1.004,2.228-2.295,2.047
					c0.301,0.384,0.583,1.031,0.944,1.338c0.604,0.512,0.65,0.355,1.347-0.133c0.914-0.638,2.057-1.16,2.8-1.975
					c-0.564-2.58-1.574-5.123-2.41-7.632c-0.344,0.17-1.131,0.752-1.287,1.04L57.226,58.251z"/>
				<path opacity="0.3" fill="#FFB32C" d="M32.052,56.931c2.176-0.064,4.438,0.221,6.634,0.28c2.755,0.072,5.441-0.382,8.038-1.363
					c2.671-1.009,5.303-2.827,7.062-5.14c1.67-2.2,3.58-4.427,4.61-7.046c1.382-3.512,1.425-7.975,0.41-11.585
					c-0.37-1.31-0.797-2.4-1.451-3.589c-0.393-0.715-1.048-1.569-1.225-2.348c1.604,0.406,3.108,1.571,4.225,2.773
					c1.852,1.994,4.336,6.139,4.798,8.798c0.796,4.564,0.222,9.737-2.048,13.952c-3.909,7.254-11.948,9.338-19.679,9.13
					c-2.568-0.069-5.848-0.764-8.113-1.917c-1.069-0.546-3.411-1.167-3.78-2.467L32.052,56.931z"/>
			</g>
			<path fill="#CC7900" d="M25.918,25.751c0.043,0.032-0.056,0.203,0.056,0.064c0.409-1.896,0.077-3.985,0.172-5.93
				c0.599,0.099,1.031,1.654,1.291,2.204c0.391,0.822,0.864,1.74,1.075,2.607c-0.996,0.445-1.777,0.637-2.582,1.474
				c-0.061-0.15,0.038-0.197,0.061-0.271L25.918,25.751z"/>
			<ellipse fill="#663B03" cx="26.455" cy="32.49" rx="1.478" ry="1.609"/>
			<path fill="#E89003" d="M12.05,47.817c0,0.561-0.441,1.014-0.986,1.014l0,0c-0.544,0-0.986-0.453-0.986-1.014V32.941
				c0-0.56,0.442-1.014,0.986-1.014l0,0c0.545,0,0.986,0.454,0.986,1.014V47.817z"/>
			<path opacity="0.4" fill="#B24D02" d="M11.886,32.968c0.243,0.505-0.051,1.676-0.072,2.29c-0.039,1.145-0.089,2.28-0.149,3.419
				c-0.041,0.785,0.026,4.178-0.997,4.325c-0.076-0.344-0.096-0.688-0.172-1.025c-0.246,1.141-0.141,2.475-0.202,3.713
				c-0.03,0.62-0.372,3.637,1.012,2.81c1.052-0.63,0.544-4.138,0.652-5.263c0.158-1.634,0.051-3.352,0.129-4.984
				c0.076-1.579,0.642-4.312-0.129-5.656L11.886,32.968z"/>
			<path opacity="0.4" fill="#B24D02" d="M32.501,60.074c0.317-0.34,0.171,1.412,0.116,1.811c-0.111,0.816-0.231,1.671-0.479,2.455
				c-0.393,1.245-0.974,2.441-1.847,3.348c0.324,0.138,0.644,0.335,0.938,0.509c0.838-2.604,2.672-4.99,3.477-7.51
				c-0.691,0.026-1.809-0.252-2.013-0.711L32.501,60.074z"/>
			<path opacity="0.3" fill="#FFB32C" d="M59.408,27.439c4.743,7.167,1.907,18.161-2.772,24.577
				c-1.502,2.06-3.343,4.057-5.431,5.483c-1.324,0.905-3.19,1.947-4.72,2.449c-0.296,0.098-0.721,0.171-0.957,0.202
				c5.315,0.41,10.674-1.787,14.651-5.236c4.087-3.545,7.335-10.214,6.562-15.796c-0.554-4.011-2.88-11.196-7.526-11.878
				L59.408,27.439z"/>
			<path fill="#8E3C04" d="M50.245,22.663c0,0.203-0.158,0.367-0.354,0.367H36.328c-0.196,0-0.356-0.164-0.356-0.367l0,0
				c0-0.201,0.16-0.365,0.356-0.365h13.562C50.087,22.297,50.245,22.461,50.245,22.663L50.245,22.663z"/>
			<path fill="#FFB32C" d="M66.352,35.275c3.95,3.308,9.491-4.668,5.592-7.836c-1.243-1.01-3.356-0.848-3.857,0.892
				c-0.601,2.076,1.946,1.987,1.835,0.328c-0.007,0.945,0.013,1.665-0.964,2.03c-0.984,0.367-1.497-0.348-1.734-1.268
				c-0.63-2.442,1.99-3.365,3.953-2.956c2.437,0.508,3.125,3.755,2.819,5.908c-0.318,2.241-1.591,4.178-3.495,5.258
				c-0.925,0.522-2.396,1.229-3.457,1.101c0.058-0.947-0.183-2.847-0.768-3.594c0,0.004-0.054,0.088-0.116,0.137H66.352z"/>
			<path fill="#DD8800" d="M66.545,35.275c-0.125,0-0.135-0.191-0.202-0.01c1.442,4.254,5.759,0.903,7.059-1.443
				c-1.451,2.907-3.462,3.938-6.184,5.013c-0.377-0.872-0.483-3.112-0.962-3.46L66.545,35.275z"/>
		</g>
		<path opacity="0.5" fill="#AA7929" d="M37.618,21.46c1.612,4.044,7.814,6.312,11.875,6.768c4.298,0.483,4.983-2.56,1.761-4.787
			c-2.374-1.643-12.239-7.638-13.416-1.761L37.618,21.46z"/>
		<g>
			<path fill="#BF7806" d="M37.141,19.609c-0.276-0.03-0.563-0.069-0.841-0.1c0.407,0.25,0.742,0.321,1.247,0.392
				c-0.123-0.096-0.32-0.244-0.32-0.442L37.141,19.609z"/>
			<g>
				<path fill="#BF7806" d="M35.45,16.063c-0.473,0.182-0.979,0.013-1.451,0.127c0.419,0.374,0.987,0.362,1.548,0.389
					c-0.141-0.145-0.152-0.369-0.129-0.556L35.45,16.063z"/>
				<path fill="#BF7806" d="M35.871,17.778c-0.115-0.05-0.749-0.215-1.019-0.159c-0.002,0.02-0.004,0.043-0.002,0.061
					c0.294,0.253,0.948,0.606,1.392,0.444c-0.153-0.127-0.265-0.364-0.251-0.461L35.871,17.778z"/>
				<g>
					<path fill="#F7B50F" d="M52.171,14.09c-2.352,5.681-8.259,8.85-13.196,7.074c-4.938-1.77-7.035-7.812-4.684-13.495
						c2.353-5.682,8.261-8.853,13.196-7.078C52.426,2.365,54.522,8.408,52.171,14.09z"/>
					<path fill="#FFDF24" d="M52.059,13.941c-2.33,5.628-7.777,8.913-12.17,7.335c-4.391-1.575-6.062-7.419-3.733-13.044
						c2.33-5.631,7.778-8.917,12.17-7.339C52.717,2.47,54.39,8.312,52.059,13.941z"/>
					<path fill="#BF7806" d="M51.557,12.937c-1.524,5.111-6.013,8.494-10.021,7.559c-4.009-0.936-6.021-5.838-4.495-10.947
						c1.526-5.111,6.014-8.497,10.021-7.559C51.071,2.925,53.083,7.828,51.557,12.937z"/>
					<path fill="#E8BD07" d="M50.782,12.896c-1.468,4.914-5.718,8.18-9.494,7.299c-3.776-0.882-5.65-5.581-4.182-10.494
						c1.465-4.914,5.72-8.184,9.494-7.301C50.379,3.281,52.25,7.982,50.782,12.896z"/>
					<path fill="#BF7806" d="M41.749,1.658c-0.212-0.171-1.47-0.558-1.708-0.428c0.195,0.245,0.866,0.478,1.168,0.643
						c0.136-0.133,0.413-0.243,0.505-0.252L41.749,1.658z"/>
					<path fill="#BF7806" d="M40.014,2.792c-0.356-0.28-1.12-0.544-1.587-0.543c0.295,0.392,0.764,0.572,1.068,0.948
						c0.154-0.127,0.303-0.218,0.476-0.292c0.036-0.066-0.041,0.007-0.078,0.001L40.014,2.792z"/>
					<path fill="#BF7806" d="M38.558,4.156c-0.03-0.199-1.258-0.683-1.624-0.579c0.374,0.404,0.806,0.7,1.207,1.101
						c0.154-0.207,0.413-0.399,0.537-0.631L38.558,4.156z"/>
					<path fill="#BF7806" d="M35.747,5.173c0.49,0.007,1.075,0.461,1.562,0.6c0.028-0.002,0.028-0.005,0-0.008
						c-0.179,0.212-0.218,0.49-0.384,0.714c0,0.027,0.001,0.027,0.004,0c-0.169-0.47-1.166-0.597-1.539-0.89
						c0.217-0.373,0.42-0.538,0.754-0.226L35.747,5.173z"/>
					<path fill="#BF7806" d="M34.582,7.108c0.53,0.281,1.076,0.4,1.656,0.562c-0.083,0.298-0.207,0.573-0.282,0.882
						c-0.161-0.531-1.231-0.774-1.753-0.736c0.102-0.223,0.244-0.479,0.338-0.667L34.582,7.108z"/>
					<path fill="#BF7806" d="M35.75,9.246c-0.52-0.015-1.328-0.004-1.955-0.105c-0.025,0.087-0.025,0.249-0.008,0.33
						c0.552,0.152,1.189,0.379,1.748,0.393c0.001-0.234,0.065-0.462-0.09-0.541L35.75,9.246z"/>
					<path fill="#BF7806" d="M41.646,0.629c0.59,0.115,0.937,0.741,1.562,0.282c-0.335-0.222-1.121-0.552-1.48-0.359L41.646,0.629z"
						/>
					<path opacity="0.64" fill="#F7B50F" d="M47.4,0.579c-0.184-0.399-1.566-0.488-2.045-0.543c-0.805-0.092-1.644,0.013-2.45,0.169
						c-1.729,0.34-3.057,1.073-4.504,2.115c-1.028,0.742-1.915,1.521-2.4,2.688c0.514-0.272,0.918-0.786,1.386-1.166
						c0.239-0.189,0.612-0.493,0.908-0.562c0.268-0.067,0.38,0.026,0.637-0.033c0.747-0.178,1.531-0.834,2.188-1.212
						c1.359-0.782,2.859-1.505,4.459-1.559c0.339-0.013,1.519-0.019,1.516,0.179L47.4,0.579z"/>
					<path fill="#BF7806" d="M35.111,11.111c-0.408,0.044-1.175-0.016-1.65-0.143c-0.023,0.078-0.025,0.216-0.008,0.289
						c0.533,0.059,1.083,0.347,1.619,0.392c0.021-0.198,0.047-0.408,0.155-0.576L35.111,11.111z"/>
					<path fill="#BF7806" d="M34.915,13.051c-0.453,0.062-1.033,0.093-1.473-0.067c-0.031,0.131-0.017,0.319,0.021,0.429
						c0.437-0.174,1.188,0.029,1.67,0.043c-0.132-0.184-0.061-0.163-0.088-0.328c-0.095-0.098-0.215-0.113-0.354-0.079
						L34.915,13.051z"/>
					<path fill="#BF7806" d="M35.088,14.578c-0.462,0.083-1.023,0.11-1.454-0.032c0.003-0.015-0.07,0.044-0.062,0.041
						c0.209,0.441,1.216,0.597,1.682,0.528c-0.105-0.159-0.169-0.343-0.107-0.521c-0.166,0.05-0.318,0.013-0.472,0.018
						L35.088,14.578z"/>
					<path fill="#BF7806" d="M44.077,16.436c1.35,0.049,2.742-0.456,3.38-2.48l0.224-0.7c0.369-1.164,0.464-2.841-1.721-3.125
						l-0.129-0.018l0.709-2.552c0.568,0.089,1.239,0.2,1.751,0.302l0.291-1.542c-0.173-0.113-0.646-0.4-1.533-0.593l0.23-0.838
						c0.038-0.137,0.021-0.275-0.029-0.406l0.017-0.049L47.228,4.43c-0.111-0.225-0.343-0.409-0.646-0.484
						c-0.495-0.126-0.987,0.098-1.098,0.497l-0.287,1.033c-1.488-0.058-2.792,0.475-3.4,2.356l-0.288,0.906
						c-0.278,0.88-0.601,2.799,1.909,3.151l-0.68,2.451c-1.065-0.17-2.048-0.36-2.502-0.443l-0.491,1.548
						c0.749,0.331,1.337,0.531,2.47,0.735l-0.381,1.208l0.056,0.009l-0.058,0.206c-0.11,0.399,0.201,0.823,0.698,0.944
						c0.496,0.126,0.988-0.097,1.1-0.496L44.077,16.436z M45.518,13.185l-0.18,0.565c-0.126,0.401-0.394,0.602-0.709,0.694
						l0.626-2.259C45.649,12.37,45.665,12.719,45.518,13.185z M43.682,8.777l0.162-0.513c0.178-0.556,0.443-0.795,0.82-0.869
						L43.995,9.8C43.63,9.631,43.51,9.32,43.682,8.777z"/>
					<path fill="#FFD939" d="M44.568,16.647c1.349,0.05,2.743-0.458,3.383-2.483l0.221-0.698c0.37-1.163,0.465-2.84-1.717-3.125
						l-0.134-0.018l0.71-2.551c0.569,0.088,1.239,0.199,1.751,0.3l0.29-1.539C48.9,6.418,48.429,6.128,47.54,5.937l0.23-0.839
						c0.037-0.135,0.024-0.273-0.029-0.403l0.017-0.049l-0.039-0.005c-0.111-0.227-0.343-0.41-0.646-0.485
						c-0.496-0.125-0.987,0.098-1.1,0.497l-0.286,1.032c-1.488-0.056-2.793,0.476-3.401,2.355L41.999,8.95
						c-0.277,0.878-0.599,2.8,1.911,3.148l-0.682,2.451c-1.066-0.166-2.048-0.359-2.502-0.443l-0.49,1.549
						c0.749,0.33,1.336,0.535,2.47,0.735l-0.384,1.212l0.058,0.006l-0.056,0.206c-0.112,0.399,0.2,0.82,0.696,0.946
						c0.498,0.123,0.987-0.101,1.1-0.498L44.568,16.647z M46.009,13.396l-0.18,0.566c-0.126,0.399-0.394,0.6-0.708,0.693
						l0.626-2.259C46.143,12.579,46.156,12.93,46.009,13.396z M44.172,8.987l0.164-0.512c0.176-0.559,0.443-0.797,0.821-0.87
						l-0.669,2.405C44.122,9.839,44.001,9.529,44.172,8.987z"/>
				</g>
				<polygon fill="#965C08" points="40.727,14.117 40.317,13.94 39.794,15.458 40.211,15.537 				"/>
				<polygon fill="#965C08" points="42.777,14.302 43.258,14.509 43.851,12.126 43.438,11.999 				"/>
			</g>
			<path fill="#FFE05F" d="M44.652,10.251c0.262-0.029,0.6,0.102,0.887,0.118c0.311,0.021,0.595,0.08,0.885,0.143
				c0.49,0.106,1.051,0.229,1.367,0.638c0.726,0.947,0.191,2.548-0.491,3.448c-0.299,0.391-1.562,1.683-2.045,1.139
				c0.224-0.236,0.553-0.359,0.809-0.577c0.287-0.248,0.547-0.526,0.737-0.844c0.301-0.503,0.578-1.197,0.409-1.741
				c-0.221-0.729-0.754-0.609-1.323-0.387c-0.586,0.229-0.995-0.249-1.099-0.803c-0.064-0.349-0.075-0.709-0.117-1.059
				L44.652,10.251z"/>
			<path fill="#FFE05F" d="M47.089,4.5c-0.656-0.533-0.722,0.742-0.977,1.013c-0.307,0.323-1.096,0.212-1.497,0.333
				c-0.473,0.143-0.954,0.554-1.272,0.948C43.01,7.206,42.29,8.239,42.56,8.736c0.752-0.63,1.372-1.311,2.319-1.611
				c0.72-0.229,1.411-0.178,2.101-0.075c0.295,0.047,1.637,0.057,1.312-0.489c-0.108-0.176-0.487-0.249-0.669-0.356
				c-0.341-0.206-0.291-0.249-0.21-0.612c0.065-0.291,0.101-0.633-0.039-0.888c-0.102-0.194-0.713-0.534-0.758-0.181L47.089,4.5z"/>
			<path opacity="0.3" fill="#EFC30C" d="M46.369,2.249c-0.319-0.354-1.886-0.021-2.399,0.086c-0.826,0.177-1.666,0.518-2.385,0.969
				c-1.156,0.726-3.466,2.831-3.375,4.344c0.901-0.47,1.521-1.869,2.678-1.934c-0.068,0.307-0.342,0.517-0.419,0.817
				c0.314,0.026,0.569-0.268,0.898-0.285c-0.013,0.658-0.478,1.21,0.122,1.756c0.358-0.135,0.594-0.681,0.829-0.973
				c0.284-0.347,0.621-0.715,1.006-0.948c0.34-0.207,0.803-0.347,1.19-0.393c0.661-0.077,0.579,0,0.876-0.625
				c0.344-0.727,1.229-1.423,1.968-0.792c0.438,0.371,0.069,0.618,0.15,1.07c0.075,0.404,0.493,0.414,0.831,0.61
				c0.41,0.237,0.671,0.476,0.647,0.991c-0.025,0.565-0.111,0.966-0.651,0.979c-0.361,0.009-0.92-0.343-1.216-0.075
				c-0.189,0.173-0.385,1.085-0.355,1.322c1.083-0.954,2.211-0.191,2.454,1.077c0.154-0.362,0.204-0.793,0.354-1.157
				c0.355,0.611,0.193,1.72,0.677,2.229c1.477-1.101,1.116-3.871,0.47-5.137c-0.751-1.467-1.541-2.746-3.013-3.432
				c-0.444-0.205-2.179-0.875-2.575-0.469L46.369,2.249z"/>
			<path opacity="0.29" fill="#FFDF24" d="M42.11,3.637c-0.747,0.233-1.522,1.174-2.054,1.782c-0.709,0.815-1.224,1.703-1.694,2.697
				c-0.637,1.344-1.141,2.875-1.065,4.338c0.025,0.491-0.013,1.721,0.461,2.009c0.488,0.303,0.727-0.631,0.89-1.043
				c0.264-0.658,0.438-1.262,1.138-1.578c0.48-0.216,0.743-0.119,1.034-0.673c0.492-0.936,0.084-2.085,0.366-3.08
				c0.371-1.323,1.271-2.146,2.36-2.843c0.368-0.233,0.877-0.481,0.989-0.909c0.122-0.466-0.133-0.882-0.505-1.022
				c-0.786-0.288-1.827,0.298-2.232,0.477L42.11,3.637z"/>
			<path fill="#BF7806" d="M35.455,16.482c-0.232,0.164-0.924-0.064-1.275-0.114c0.307,0.301,0.938,0.724,1.479,0.614
				c-0.053-0.197-0.128-0.414-0.081-0.615L35.455,16.482z"/>
			<path fill="#BF7806" d="M36.171,18.199c-0.187-0.025-0.771-0.145-1.091-0.076c0.349,0.382,0.808,0.364,1.281,0.52
				c0.04-0.042,0.081-0.089,0.107-0.116c-0.104-0.146-0.166-0.299-0.211-0.479L36.171,18.199z"/>
			<path fill="#BF7806" d="M37.328,19.573c0.005,0.247-0.727-0.018-0.958-0.006c0.332,0.28,0.856,0.396,1.323,0.411
				C37.571,19.845,37.449,19.71,37.328,19.573L37.328,19.573z"/>
		</g>
	</g>
</g>
</svg>
