<?xml version="1.0" encoding="utf-8"?>
<!-- Generator: Adobe Illustrator 16.0.0, SVG Export Plug-In . SVG Version: 6.00 Build 0)  -->
<!DOCTYPE svg PUBLIC "-//W3C//DTD SVG 1.1//EN" "http://www.w3.org/Graphics/SVG/1.1/DTD/svg11.dtd">
<svg version="1.1" xmlns="http://www.w3.org/2000/svg" xmlns:xlink="http://www.w3.org/1999/xlink" x="0px" y="0px"
	 width="306.04px" height="306.04px" viewBox="0 0 306.04 306.04" enable-background="new 0 0 306.04 306.04" xml:space="preserve">
<g>
	<g>
		<path fill="#FFAC9E" d="M64.255,135.536l-15.787-6.992c-2.738-1.213-5.395-1.116-7.287,0.265c-1.893,1.38-2.795,3.882-2.477,6.858
			l1.838,17.167c0.318,2.978,1.73,5.23,3.873,6.18c2.142,0.947,4.758,0.48,7.177-1.284l13.949-10.176
			c2.419-1.765,3.663-4.114,3.415-6.442C68.707,138.781,66.992,136.749,64.255,135.536z"/>
	</g>
	<g>
		<path fill="#FFCEC9" d="M267.834,192.41c-4.766,0-9.246-1.855-12.613-5.225c-0.828-0.829-0.828-2.172,0-2.999
			c0.83-0.829,2.172-0.829,3,0c2.566,2.567,5.982,3.981,9.613,3.981s7.045-1.414,9.611-3.981c4.074-4.074,4.074-10.704,0-14.778
			c-3.096-3.094-8.129-3.093-11.225,0c-2.309,2.309-2.309,6.068,0.002,8.379c1.682,1.681,4.42,1.684,6.102,0
			c1.182-1.182,1.182-3.103,0-4.283c-0.828-0.828-0.828-2.172,0-2.999c0.83-0.828,2.172-0.828,3,0c2.834,2.835,2.834,7.446,0,10.281
			c-3.334,3.335-8.764,3.337-12.104,0c-3.961-3.966-3.961-10.415,0-14.377c4.748-4.746,12.475-4.749,17.225-0.001
			c5.727,5.729,5.727,15.049,0,20.777C277.079,190.555,272.598,192.41,267.834,192.41z"/>
	</g>
	<ellipse fill="#FFAC9E" cx="103.015" cy="262.695" rx="15.256" ry="7.127"/>
	<g>
		<ellipse fill="#FFAC9E" cx="169.585" cy="262.695" rx="15.255" ry="7.127"/>
		<path fill="#FFAC9E" d="M154.33,262.697v26.32c0.001,3.938,6.831,7.125,15.256,7.125c8.424,0,15.253-3.188,15.254-7.125v-26.32
			H154.33z M87.759,289.017c0.001,3.938,6.831,7.125,15.255,7.125s15.255-3.188,15.256-7.125v-26.32H87.759V289.017z"/>
		<g>
			<path fill="#FF9A85" d="M176.472,267.183v26.32c0,0.605,0.18,1.189,0.483,1.752c4.699-1.215,7.884-3.551,7.885-6.238v-21.834
				H176.472z"/>
			<path fill="#FF9A85" d="M109.901,267.183v26.32c0,0.605,0.18,1.189,0.484,1.752c4.7-1.215,7.885-3.551,7.886-6.238v-21.834
				H109.901z"/>
		</g>
	</g>
	<ellipse fill="#FFCEC9" cx="147.063" cy="199.168" rx="116.353" ry="88.242"/>
	<path fill="#F8BCB9" d="M88.193,275.271c17.273,7.701,37.383,12.139,58.87,12.139c42.206,0,79.159-17.043,99.554-42.549
		c-17.272-7.703-37.384-12.137-58.87-12.137C145.544,232.724,108.59,249.765,88.193,275.271z"/>
	<circle fill="#F8BCB9" cx="215.634" cy="238.251" r="18.624"/>
	<circle fill="#F8BCB9" cx="195.073" cy="220.884" r="3.957"/>
	<path fill="#FFB3C9" d="M127.391,192.442c0,6.406-5.933,11.592-13.252,11.592c-7.315,0-13.248-5.186-13.248-11.592
		c0-6.404,5.933-11.589,13.248-11.589C121.458,180.854,127.391,186.038,127.391,192.442z"/>
	<circle fill="#F8BCB9" cx="203.506" cy="215.671" r="3.957"/>
	<g>
		<path fill="#FFAC9E" d="M88.811,212.189c0-17.7-11.974-32.06-26.846-32.396v-0.032H39.917v12.433
			c-3.654,5.513-5.852,12.443-5.852,19.996c0,7.551,2.197,14.484,5.852,19.996v12.432h22.048v-0.031
			C76.837,244.25,88.811,229.888,88.811,212.189z"/>
		<ellipse fill="#FF9A85" cx="40.63" cy="212.189" rx="27.373" ry="32.428"/>
		
			<path fill="none" stroke="#FFC4B9" stroke-width="1.5" stroke-linecap="round" stroke-linejoin="round" stroke-miterlimit="10" d="
			M34.062,184.364c2.089-0.69,4.292-1.061,6.568-1.06"/>
		
			<path fill="none" stroke="#FFC4B9" stroke-width="1.5" stroke-linecap="round" stroke-linejoin="round" stroke-miterlimit="10" d="
			M16.25,212.189c0-10.693,4.902-20.025,12.188-25.019"/>
		<ellipse fill="#7F310F" cx="29.003" cy="212.189" rx="6.655" ry="17.805"/>
		<ellipse fill="#7F310F" cx="47.159" cy="212.189" rx="6.656" ry="17.805"/>
	</g>
	<g>
		<path fill="#7F310F" d="M103.73,177.625c-1.952,0-3.535-1.582-3.535-3.534c0-4.719-3.838-8.558-8.557-8.558
			c-4.718,0-8.556,3.839-8.556,8.558c0,1.952-1.583,3.534-3.535,3.534s-3.534-1.582-3.534-3.534c0-8.616,7.01-15.627,15.625-15.627
			s15.626,7.011,15.626,15.627C107.265,176.043,105.682,177.625,103.73,177.625z"/>
	</g>
	<g>
		<path fill="#7F310F" d="M84.135,234.273c2.011-2.008,5.269-2.012,7.279,0c4.858,4.859,12.763,4.859,17.621,0
			c4.858-4.857,4.858-12.76,0-17.619c-2.01-2.012-2.01-5.268,0-7.279c2.011-2.01,5.269-2.012,7.279,0
			c8.871,8.871,8.871,23.307,0,32.178c-8.872,8.871-23.308,8.871-32.178,0C82.125,239.542,82.125,236.285,84.135,234.273z"/>
	</g>
	<g>
		<path fill="#7F310F" d="M67.861,177.625c-1.953,0-3.535-1.582-3.535-3.534c0-4.719-3.838-8.558-8.557-8.558
			c-4.718,0-8.557,3.839-8.557,8.558c0,1.952-1.583,3.534-3.535,3.534s-3.535-1.582-3.535-3.534c0-8.616,7.01-15.627,15.626-15.627
			c8.616,0,15.626,7.011,15.626,15.627C71.396,176.043,69.813,177.625,67.861,177.625z"/>
	</g>
	<circle fill="#FFE0D7" cx="203.506" cy="170.269" r="31.276"/>
	<circle fill="#FFE0D7" cx="171.539" cy="210.16" r="8.696"/>
	<g>
		<g>
			<path fill="#FFAC9E" d="M127.246,159.361l4.722-16.607c0.819-2.881,0.354-5.497-1.277-7.179
				c-1.632-1.682-4.233-2.227-7.138-1.496l-16.743,4.216c-2.904,0.73-4.938,2.441-5.579,4.695c-0.639,2.254,0.188,4.779,2.274,6.929
				l12.021,12.394c2.086,2.149,4.585,3.053,6.856,2.482C124.654,164.223,126.427,162.242,127.246,159.361z"/>
		</g>
		<g>
			<path fill="#F89767" d="M123.093,158.805l3.654-12.854c0.633-2.229,0.273-4.254-0.989-5.556
				c-1.263-1.302-3.276-1.723-5.523-1.157l-12.957,3.262c-2.247,0.565-3.821,1.891-4.317,3.635
				c-0.495,1.744,0.146,3.698,1.759,5.361l9.304,9.59c1.613,1.664,3.547,2.364,5.305,1.922
				C121.087,162.565,122.46,161.031,123.093,158.805z"/>
		</g>
	</g>
	<g>
		<path fill="#7F310F" d="M101.023,132.354c-1.675,0-3.262-0.998-3.931-2.645c-0.882-2.168,0.157-4.641,2.325-5.524
			c1.54-0.629,38.215-15.255,80.03-3.699c2.26,0.623,3.583,2.959,2.96,5.218c-0.624,2.258-2.957,3.582-5.219,2.958
			c-38.943-10.763-74.22,3.237-74.571,3.38C102.094,132.254,101.555,132.354,101.023,132.354z"/>
	</g>
	<path fill="#55230F" d="M97.768,130.833c0.432-0.523,0.979-0.961,1.65-1.234c1.54-0.629,38.215-15.255,80.03-3.7
		c0.868,0.24,1.595,0.736,2.129,1.382c0.373-0.449,0.664-0.977,0.831-1.576c0.623-2.259-0.7-4.595-2.96-5.218
		c-41.815-11.556-78.49,3.07-80.03,3.699c-2.168,0.884-3.208,3.356-2.325,5.524C97.262,130.129,97.493,130.503,97.768,130.833z"/>
	<path fill="#FFCEC9" d="M145.134,272.591c0-3.936-6.831-7.125-15.256-7.125c-8.424,0-15.254,3.189-15.254,7.125v0.002l0,0v26.322h0
		c0.003,3.938,6.832,7.125,15.254,7.125c8.423,0,15.252-3.188,15.256-7.125h0v-26.322l0,0V272.591z"/>
	<path fill="#FFCEC9" d="M211.705,272.591c0-3.936-6.829-7.125-15.255-7.125c-8.425,0-15.257,3.189-15.257,7.125v0.002l0,0v26.322
		l0,0c0.004,3.938,6.834,7.125,15.257,7.125c8.424,0,15.251-3.188,15.255-7.125l0,0v-26.322l0,0V272.591z"/>
	<circle fill="#FFE0D7" cx="134.448" cy="283.103" r="7.246"/>
	<circle fill="#FFE0D7" cx="123.583" cy="274.642" r="2.819"/>
	<circle fill="#FFE0D7" cx="200.229" cy="283.906" r="7.246"/>
	<circle fill="#FFE0D7" cx="189.364" cy="275.445" r="2.819"/>
</g>
<g>
	<defs>
		<path id="SVGID_1_" d="M101.023,132.354c-1.675,0-3.262-0.998-3.931-2.645c-0.882-2.168,0.157-50.716,2.325-51.601
			c1.54-0.628,38.215-15.255,80.03-3.7c2.26,0.624,3.583,49.036,2.96,51.294c-0.624,2.258-2.957,3.582-5.219,2.958
			c-38.943-10.763-74.22,3.237-74.571,3.38C102.094,132.254,101.555,132.354,101.023,132.354z"/>
	</defs>
	<clipPath id="SVGID_2_">
		<use xlink:href="#SVGID_1_"  overflow="visible"/>
	</clipPath>
	<g clip-path="url(#SVGID_2_)">
		<circle fill="#FFE000" cx="140.99" cy="111.644" r="28.238"/>
		<circle fill="#FFE000" cx="140.99" cy="111.644" r="28.238"/>
		<g>
			<path fill="#FFFE8C" d="M145.295,83.732l-32.217,32.217c1.102,7.203,4.932,13.506,10.396,17.835l39.656-39.657
				C158.802,88.663,152.5,84.834,145.295,83.732z"/>
			<path fill="#FFFE8C" d="M167.673,102.404c-0.571-1.649-1.29-3.228-2.143-4.722l-38.502,38.502
				c1.494,0.853,3.073,1.571,4.722,2.142L167.673,102.404z"/>
		</g>
		<circle fill="#FDB000" cx="140.989" cy="111.644" r="22.865"/>
		<g>
			<path fill="#FDD500" d="M142.493,88.855l-24.292,24.292c0.43,6.581,3.625,12.402,8.457,16.298l32.134-32.134
				C154.896,92.479,149.075,89.284,142.493,88.855z"/>
			<path fill="#FDD500" d="M162.738,104.606c-0.474-1.465-1.093-2.862-1.838-4.18l-31.128,31.128
				c1.318,0.745,2.715,1.365,4.18,1.839L162.738,104.606z"/>
		</g>
		<path fill="#FF8E00" d="M143.528,108.579l-2.53-0.467c-0.413-0.069-1.76-0.415-1.76-1.981c0-1.369,1.019-2.392,1.928-2.392
			c1.665,0,2.463,0.353,2.792,2.445c0.086,0.548,0.567,0.935,1.125,0.917l4.832-0.232c0.579-0.028,1.035-0.505,1.035-1.085
			c0-4.252-2.639-7.519-6.803-8.542v-1.895c0-0.6-0.486-1.086-1.086-1.086h-3.904c-0.6,0-1.086,0.486-1.086,1.086v2.02
			c-3.838,1.182-6.185,4.538-6.185,8.957c0,4.861,2.39,7.972,6.785,8.77l3.525,0.453c1.194,0.233,1.75,0.938,1.75,2.218
			c0,1.687-1.704,2.314-2.779,2.314c-1.761,0-2.546-0.479-2.546-3.319c0-0.297-0.121-0.582-0.337-0.787
			c-0.214-0.205-0.502-0.301-0.801-0.299l-4.87,0.231c-0.58,0.028-1.035,0.506-1.035,1.086c0,6.712,4.026,8.911,6.493,9.629v3.319
			c0,0.601,0.486,1.087,1.086,1.087h3.904c0.6,0,1.086-0.486,1.086-1.087v-3.367c3.666-1.085,7.305-4.202,7.305-8.962
			C151.453,112.809,148.485,109.431,143.528,108.579z"/>
		<g>
			<path fill="#FFE000" d="M139.157,125.765c-3.401-0.656-6.493-3.169-6.493-8.773l4.87-0.232c0,3.014,0.927,4.407,3.633,4.407
				c1.856,0,3.866-1.199,3.866-3.402c0-1.932-1.044-2.976-2.629-3.285l-3.594-0.463c-3.401-0.618-5.836-2.938-5.836-7.692
				c0-4.213,2.358-7.305,6.184-8.117v-2.86h3.904v2.783c4.135,0.657,6.802,3.594,6.802,7.653l-4.831,0.232
				c-0.426-2.706-1.739-3.363-3.866-3.363c-1.584,0-3.015,1.585-3.015,3.479c0,1.816,1.275,2.822,2.667,3.053l2.512,0.464
				c3.595,0.618,7.035,2.976,7.035,7.962c0,4.523-3.788,7.382-7.305,8.117v4.213h-3.904V125.765z"/>
		</g>
		<g>
			<path fill="#FFEE5E" d="M137.534,116.759l-4.87,0.232c0,2.181,0.473,3.888,1.244,5.204l3.768-3.768
				C137.585,117.937,137.534,117.392,137.534,116.759z"/>
			<path fill="#FFEE5E" d="M139.157,128.188l11.183-11.184c-0.109-1.838-0.703-3.294-1.605-4.413l-3.89,3.889
				c0.122,0.375,0.188,0.801,0.188,1.283c0,2.203-2.01,3.402-3.866,3.402c-0.34,0-0.652-0.023-0.938-0.068l-3.7,3.7
				c0.818,0.472,1.71,0.79,2.628,0.967V128.188z"/>
			<path fill="#FFEE5E" d="M139.157,95.347v2.86c-3.826,0.812-6.184,3.904-6.184,8.117c0,4.754,2.435,7.074,5.836,7.692l2.905,0.375
				l4.025-4.026c-0.769-0.336-1.583-0.575-2.408-0.716l-2.512-0.464c-1.392-0.231-2.667-1.237-2.667-3.053
				c0-1.894,1.431-3.479,3.015-3.479c2.126,0,3.44,0.658,3.866,3.363l4.831-0.232c0-4.059-2.667-6.996-6.802-7.653v-2.783H139.157z"
				/>
		</g>
		<g>
			<path fill="#FFFFFF" d="M138.809,114.015l3.594,0.463c1.516,0.296,2.525,1.272,2.612,3.046c0.002-0.05,0.017-0.095,0.017-0.146
				c0-1.933-1.044-2.976-2.629-3.286l-3.594-0.463c-3.351-0.609-5.752-2.881-5.823-7.492c-0.001,0.063-0.013,0.122-0.013,0.186
				C132.973,111.078,135.408,113.397,138.809,114.015z"/>
			<path fill="#FFFFFF" d="M138.152,105.745c0,0.069,0.014,0.129,0.018,0.197c0.093-1.808,1.467-3.29,2.997-3.29
				c2.126,0,3.44,0.658,3.866,3.363l4.831-0.232c0-0.13-0.011-0.257-0.016-0.385l-4.815,0.231c-0.426-2.706-1.739-3.363-3.866-3.363
				C139.583,102.266,138.152,103.851,138.152,105.745z"/>
			<path fill="#FFFFFF" d="M143.061,125.341v0.386c3.517-0.734,7.305-3.594,7.305-8.117c0-0.073-0.008-0.139-0.009-0.21
				C150.258,121.818,146.531,124.616,143.061,125.341z"/>
			<rect x="139.157" y="129.554" fill="#FFFFFF" width="3.904" height="0.386"/>
			<path fill="#FFFFFF" d="M139.157,125.38c-3.32-0.643-6.338-3.06-6.479-8.389l-0.014,0c0,5.604,3.092,8.117,6.493,8.773V125.38z"
				/>
		</g>
		<g>
			<path fill="#FFFFFF" d="M145.173,84.915h-0.045C145.127,84.915,145.146,84.916,145.173,84.915z"/>
			<path fill="#FFFFFF" d="M158.792,84.915h-0.045C158.773,84.916,158.792,84.915,158.792,84.915z"/>
			<path fill="#FFFFFF" d="M158.747,84.915c-0.002,0-0.005,0-0.007,0l-0.321-0.013c-1.417-0.091-6.459-0.84-6.459-6.887
				l-0.029,0.738c-0.397,5.4-5.13,6.069-6.455,6.15l-0.296,0.011c-0.002,0-0.005,0-0.007,0h0.004l-0.004,0
				c0.541,0.002,6.317,0.172,6.758,6.162l0.029,0.737C151.96,85.098,158.185,84.918,158.747,84.915h-0.005H158.747z"/>
			<path fill="#FFFFFF" d="M145.127,84.916h0.045C145.146,84.915,145.127,84.916,145.127,84.916z"/>
			<path fill="#FFFFFF" d="M158.747,84.916h0.045C158.792,84.916,158.773,84.915,158.747,84.916z"/>
		</g>
		<g>
			<path fill="#FFFFFF" d="M108.204,116.759h-0.025C108.179,116.759,108.188,116.76,108.204,116.759z"/>
			<path fill="#FFFFFF" d="M115.845,116.759h-0.025C115.834,116.76,115.845,116.759,115.845,116.759z"/>
			<path fill="#FFFFFF" d="M115.819,116.759h-0.003l-0.18-0.007c-0.795-0.051-3.624-0.472-3.624-3.864l-0.017,0.414
				c-0.223,3.03-2.878,3.405-3.621,3.451l-0.167,0.006c-0.001,0-0.003,0-0.003,0h0.001l-0.002,0
				c0.303,0.001,3.544,0.096,3.791,3.457l0.017,0.413C112.012,116.862,115.504,116.761,115.819,116.759h-0.002H115.819z"/>
			<path fill="#FFFFFF" d="M108.179,116.76h0.025C108.188,116.759,108.179,116.76,108.179,116.76z"/>
			<path fill="#FFFFFF" d="M115.819,116.76h0.025C115.845,116.76,115.834,116.759,115.819,116.76z"/>
		</g>
	</g>
	<path opacity="0.5" clip-path="url(#SVGID_2_)" fill="#7F310F" d="M114.11,124.259c0.917,2.848,2.274,5.496,3.991,7.869
		c11.495-2.465,28.334-4.496,46.847-1.589c1.534-2.456,2.704-5.161,3.428-8.046C146.437,118.611,126.78,121.299,114.11,124.259z"/>
</g>
<g>
	<circle fill="#FFE000" cx="192.084" cy="53.945" r="27.133"/>
	<g>
		<path fill="#FFFE8C" d="M196.221,27.125l-30.956,30.956c1.059,6.922,4.739,12.978,9.989,17.137l38.104-38.104
			C209.198,31.864,203.144,28.184,196.221,27.125z"/>
		<path fill="#FFFE8C" d="M217.723,45.066c-0.549-1.584-1.24-3.102-2.058-4.537l-36.996,36.996c1.437,0.819,2.953,1.51,4.538,2.059
			L217.723,45.066z"/>
	</g>
	<circle fill="#FDB000" cx="192.084" cy="53.945" r="21.97"/>
	<g>
		<path fill="#FDD500" d="M193.529,32.048L170.188,55.39c0.412,6.324,3.482,11.917,8.126,15.66l30.877-30.876
			C205.446,35.53,199.854,32.46,193.529,32.048z"/>
		<path fill="#FDD500" d="M212.981,47.182c-0.455-1.408-1.051-2.75-1.767-4.017l-29.908,29.91c1.266,0.716,2.607,1.312,4.015,1.767
			L212.981,47.182z"/>
	</g>
	<path fill="#FF8E00" d="M194.523,51l-2.432-0.449c-0.396-0.066-1.69-0.399-1.69-1.904c0-1.315,0.979-2.298,1.853-2.298
		c1.601,0,2.367,0.339,2.684,2.349c0.082,0.526,0.545,0.898,1.08,0.881l4.643-0.223c0.558-0.027,0.994-0.486,0.994-1.043
		c0-4.086-2.534-7.225-6.535-8.207v-1.82c0-0.577-0.468-1.044-1.045-1.044h-3.751c-0.576,0-1.044,0.467-1.044,1.044v1.941
		c-3.688,1.135-5.941,4.36-5.941,8.606c0,4.67,2.296,7.66,6.518,8.426l3.387,0.435c1.148,0.224,1.683,0.901,1.683,2.132
		c0,1.62-1.638,2.224-2.671,2.224c-1.691,0-2.445-0.46-2.445-3.189c0-0.285-0.117-0.559-0.324-0.755
		c-0.206-0.197-0.482-0.29-0.771-0.288l-4.679,0.223c-0.557,0.027-0.995,0.486-0.995,1.043c0,6.449,3.868,8.562,6.239,9.251v3.19
		c0,0.577,0.468,1.044,1.044,1.044h3.751c0.577,0,1.045-0.467,1.045-1.044v-3.235c3.521-1.042,7.019-4.038,7.019-8.612
		C202.138,55.064,199.287,51.819,194.523,51z"/>
	<g>
		<path fill="#FFE000" d="M190.323,67.514c-3.269-0.632-6.239-3.045-6.239-8.431l4.68-0.223c0,2.897,0.892,4.234,3.49,4.234
			c1.784,0,3.715-1.151,3.715-3.268c0-1.857-1.003-2.86-2.526-3.157l-3.452-0.446c-3.27-0.594-5.608-2.822-5.608-7.391
			c0-4.048,2.266-7.019,5.941-7.799v-2.748h3.751v2.674c3.974,0.631,6.536,3.454,6.536,7.354l-4.642,0.223
			c-0.409-2.6-1.672-3.231-3.715-3.231c-1.521,0-2.896,1.522-2.896,3.342c0,1.746,1.226,2.711,2.563,2.934l2.413,0.446
			c3.454,0.594,6.76,2.859,6.76,7.65c0,4.345-3.64,7.093-7.02,7.799v4.048h-3.751V67.514z"/>
	</g>
	<g>
		<path fill="#FFEE5E" d="M188.764,58.86l-4.68,0.223c0,2.095,0.455,3.735,1.195,5.001l3.62-3.621
			C188.812,59.991,188.764,59.468,188.764,58.86z"/>
		<path fill="#FFEE5E" d="M190.323,69.841l10.744-10.745c-0.104-1.766-0.675-3.166-1.542-4.24l-3.736,3.737
			c0.117,0.359,0.18,0.77,0.18,1.233c0,2.117-1.931,3.268-3.715,3.268c-0.327,0-0.627-0.021-0.902-0.065l-3.554,3.555
			c0.786,0.453,1.644,0.759,2.525,0.93V69.841z"/>
		<path fill="#FFEE5E" d="M190.323,38.286v2.748c-3.676,0.78-5.941,3.751-5.941,7.799c0,4.568,2.339,6.797,5.608,7.391l2.789,0.36
			l3.869-3.868c-0.738-0.323-1.521-0.552-2.314-0.688l-2.413-0.446c-1.338-0.223-2.563-1.188-2.563-2.934
			c0-1.82,1.375-3.342,2.896-3.342c2.043,0,3.306,0.631,3.715,3.231l4.642-0.223c0-3.9-2.562-6.722-6.536-7.354v-2.674H190.323z"/>
	</g>
	<g>
		<path fill="#FFFFFF" d="M189.99,56.223l3.452,0.446c1.456,0.284,2.427,1.222,2.511,2.926c0.002-0.048,0.016-0.091,0.016-0.14
			c0-1.857-1.003-2.86-2.526-3.157l-3.452-0.445c-3.221-0.585-5.528-2.768-5.597-7.199c-0.001,0.061-0.012,0.117-0.012,0.179
			C184.382,53.401,186.721,55.629,189.99,56.223z"/>
		<path fill="#FFFFFF" d="M189.357,48.276c0,0.067,0.014,0.125,0.017,0.189c0.09-1.737,1.41-3.161,2.88-3.161
			c2.043,0,3.306,0.631,3.715,3.231l4.642-0.223c0-0.125-0.01-0.247-0.015-0.37l-4.627,0.222c-0.409-2.6-1.672-3.231-3.715-3.231
			C190.732,44.934,189.357,46.457,189.357,48.276z"/>
		<path fill="#FFFFFF" d="M194.074,67.105v0.371c3.38-0.706,7.02-3.454,7.02-7.799c0-0.07-0.008-0.133-0.009-0.202
			C200.99,63.721,197.409,66.409,194.074,67.105z"/>
		<rect x="190.323" y="71.154" fill="#FFFFFF" width="3.751" height="0.371"/>
		<path fill="#FFFFFF" d="M190.323,67.143c-3.19-0.617-6.091-2.939-6.227-8.06l-0.013,0c0,5.385,2.971,7.799,6.239,8.431V67.143z"/>
	</g>
	<g>
		<path fill="#FFFFFF" d="M196.104,28.262h-0.043C196.061,28.262,196.077,28.263,196.104,28.262z"/>
		<path fill="#FFFFFF" d="M209.19,28.262h-0.044C209.172,28.263,209.19,28.262,209.19,28.262z"/>
		<path fill="#FFFFFF" d="M209.146,28.262c-0.001,0-0.005,0-0.006,0l-0.31-0.012c-1.36-0.087-6.206-0.807-6.206-6.617l-0.028,0.709
			c-0.381,5.189-4.929,5.832-6.201,5.91l-0.286,0.011c-0.002,0-0.004,0-0.006,0h0.004l-0.004,0c0.521,0.002,6.069,0.165,6.493,5.92
			l0.028,0.708C202.625,28.438,208.605,28.265,209.146,28.262h-0.004H209.146z"/>
		<path fill="#FFFFFF" d="M196.061,28.263h0.043C196.077,28.262,196.061,28.263,196.061,28.263z"/>
		<path fill="#FFFFFF" d="M209.146,28.263h0.044C209.19,28.263,209.172,28.262,209.146,28.263z"/>
	</g>
	<g>
		<path fill="#FFFFFF" d="M160.582,58.86h-0.024C160.558,58.86,160.567,58.86,160.582,58.86z"/>
		<path fill="#FFFFFF" d="M167.924,58.86h-0.024C167.914,58.86,167.924,58.86,167.924,58.86z"/>
		<path fill="#FFFFFF" d="M167.899,58.86c-0.001,0-0.003,0-0.004,0l-0.173-0.006c-0.764-0.049-3.481-0.453-3.481-3.713l-0.017,0.398
			c-0.214,2.911-2.766,3.271-3.479,3.315l-0.159,0.006c-0.002,0-0.004,0-0.004,0h0.002l-0.002,0
			c0.291,0.001,3.405,0.092,3.643,3.321l0.017,0.397C164.241,58.959,167.596,58.861,167.899,58.86h-0.002H167.899z"/>
		<path fill="#FFFFFF" d="M160.558,58.86h0.024C160.567,58.86,160.558,58.86,160.558,58.86z"/>
		<path fill="#FFFFFF" d="M167.899,58.86h0.024C167.924,58.86,167.914,58.86,167.899,58.86z"/>
	</g>
</g>
<g>
	<circle fill="#FFE000" cx="106.568" cy="32.311" r="27.133"/>
	<g>
		<path fill="#FFFE8C" d="M110.705,5.491L79.749,36.448c1.059,6.922,4.739,12.977,9.989,17.137l38.105-38.104
			C123.682,10.23,117.627,6.55,110.705,5.491z"/>
		<path fill="#FFFE8C" d="M132.207,23.433c-0.549-1.584-1.24-3.102-2.058-4.537L93.153,55.891c1.436,0.819,2.953,1.51,4.537,2.058
			L132.207,23.433z"/>
	</g>
	<circle fill="#FDB000" cx="106.568" cy="32.311" r="21.97"/>
	<g>
		<path fill="#FDD500" d="M108.013,10.414L84.671,33.756c0.412,6.324,3.482,11.917,8.126,15.66l30.876-30.876
			C119.93,13.896,114.338,10.826,108.013,10.414z"/>
		<path fill="#FDD500" d="M127.465,25.548c-0.455-1.408-1.05-2.75-1.766-4.017L95.79,51.442c1.267,0.716,2.608,1.312,4.016,1.767
			L127.465,25.548z"/>
	</g>
	<path fill="#FF8E00" d="M109.007,29.366l-2.431-0.449c-0.397-0.066-1.691-0.399-1.691-1.904c0-1.315,0.979-2.298,1.853-2.298
		c1.6,0,2.367,0.339,2.683,2.349c0.083,0.526,0.545,0.898,1.081,0.881l4.643-0.223c0.557-0.027,0.994-0.486,0.994-1.043
		c0-4.086-2.535-7.225-6.536-8.208v-1.82c0-0.577-0.467-1.044-1.044-1.044h-3.751c-0.576,0-1.044,0.468-1.044,1.044v1.941
		c-3.688,1.135-5.941,4.36-5.941,8.606c0,4.67,2.296,7.66,6.518,8.426l3.387,0.435c1.148,0.224,1.683,0.901,1.683,2.132
		c0,1.62-1.638,2.224-2.67,2.224c-1.692,0-2.446-0.46-2.446-3.189c0-0.286-0.117-0.559-0.324-0.755
		c-0.206-0.197-0.482-0.29-0.77-0.288l-4.679,0.223c-0.557,0.026-0.995,0.486-0.995,1.043c0,6.449,3.869,8.562,6.239,9.251v3.19
		c0,0.577,0.468,1.044,1.044,1.044h3.751c0.577,0,1.044-0.467,1.044-1.044v-3.235c3.522-1.042,7.02-4.038,7.02-8.612
		C116.622,33.43,113.771,30.185,109.007,29.366z"/>
	<g>
		<path fill="#FFE000" d="M104.807,45.879c-3.268-0.631-6.24-3.045-6.24-8.43l4.681-0.223c0,2.897,0.891,4.234,3.49,4.234
			c1.783,0,3.714-1.151,3.714-3.268c0-1.857-1.003-2.86-2.526-3.157l-3.453-0.445c-3.269-0.594-5.608-2.823-5.608-7.391
			c0-4.048,2.266-7.019,5.942-7.799v-2.748h3.751v2.674c3.974,0.631,6.536,3.454,6.536,7.354l-4.642,0.223
			c-0.41-2.6-1.672-3.231-3.714-3.231c-1.522,0-2.897,1.522-2.897,3.342c0,1.746,1.226,2.711,2.563,2.934l2.413,0.446
			c3.455,0.594,6.76,2.859,6.76,7.65c0,4.345-3.64,7.093-7.02,7.799v4.048h-3.751V45.879z"/>
	</g>
	<g>
		<path fill="#FFEE5E" d="M103.248,37.226l-4.681,0.223c0,2.095,0.455,3.735,1.195,5.001l3.621-3.621
			C103.297,38.357,103.248,37.834,103.248,37.226z"/>
		<path fill="#FFEE5E" d="M104.807,48.208l10.744-10.745c-0.104-1.766-0.675-3.166-1.542-4.241l-3.737,3.737
			c0.117,0.359,0.18,0.77,0.18,1.233c0,2.117-1.931,3.268-3.714,3.268c-0.328,0-0.627-0.021-0.902-0.065l-3.555,3.555
			c0.786,0.453,1.644,0.759,2.526,0.929V48.208z"/>
		<path fill="#FFEE5E" d="M104.807,16.652V19.4c-3.676,0.78-5.942,3.75-5.942,7.799c0,4.568,2.339,6.796,5.608,7.391l2.79,0.36
			l3.869-3.868c-0.738-0.323-1.521-0.552-2.314-0.688l-2.413-0.446c-1.338-0.223-2.563-1.188-2.563-2.934
			c0-1.82,1.375-3.342,2.897-3.342c2.042,0,3.305,0.631,3.714,3.231l4.642-0.223c0-3.9-2.562-6.722-6.536-7.354v-2.674H104.807z"/>
	</g>
	<g>
		<path fill="#FFFFFF" d="M104.474,34.589l3.453,0.445c1.456,0.284,2.427,1.223,2.51,2.927c0.002-0.048,0.016-0.091,0.016-0.14
			c0-1.857-1.003-2.86-2.526-3.157l-3.453-0.445c-3.22-0.585-5.528-2.768-5.596-7.199c-0.001,0.062-0.012,0.118-0.012,0.179
			C98.865,31.767,101.205,33.995,104.474,34.589z"/>
		<path fill="#FFFFFF" d="M103.841,26.643c0,0.067,0.013,0.125,0.016,0.189c0.09-1.737,1.41-3.161,2.881-3.161
			c2.042,0,3.305,0.631,3.714,3.231l4.642-0.223c0-0.125-0.01-0.247-0.015-0.37l-4.626,0.222c-0.41-2.6-1.672-3.231-3.714-3.231
			C105.216,23.3,103.841,24.823,103.841,26.643z"/>
		<path fill="#FFFFFF" d="M108.558,45.472v0.371c3.379-0.706,7.02-3.454,7.02-7.799c0-0.07-0.008-0.134-0.009-0.202
			C115.474,42.087,111.893,44.775,108.558,45.472z"/>
		<rect x="104.807" y="49.52" fill="#FFFFFF" width="3.751" height="0.371"/>
		<path fill="#FFFFFF" d="M104.807,45.509c-3.191-0.617-6.091-2.939-6.226-8.061l-0.014,0.001c0,5.385,2.972,7.799,6.24,8.43V45.509
			z"/>
	</g>
	<g>
		<path fill="#FFFFFF" d="M110.587,6.628h-0.043C110.544,6.628,110.561,6.629,110.587,6.628z"/>
		<path fill="#FFFFFF" d="M123.674,6.628h-0.044C123.656,6.629,123.674,6.628,123.674,6.628z"/>
		<path fill="#FFFFFF" d="M123.63,6.628c-0.001,0-0.005,0-0.006,0l-0.309-0.012c-1.36-0.087-6.206-0.807-6.206-6.617l-0.029,0.709
			c-0.381,5.189-4.929,5.832-6.202,5.91l-0.285,0.011c-0.002,0-0.004,0-0.006,0h0.004l-0.004,0c0.52,0.002,6.069,0.165,6.493,5.92
			l0.029,0.708C117.109,6.804,123.09,6.631,123.63,6.628h-0.004H123.63z"/>
		<path fill="#FFFFFF" d="M110.544,6.629h0.043C110.561,6.628,110.544,6.629,110.544,6.629z"/>
		<path fill="#FFFFFF" d="M123.63,6.629h0.044C123.674,6.629,123.656,6.628,123.63,6.629z"/>
	</g>
	<g>
		<path fill="#FFFFFF" d="M75.066,37.226h-0.025C75.042,37.226,75.051,37.227,75.066,37.226z"/>
		<path fill="#FFFFFF" d="M82.408,37.226h-0.024C82.397,37.227,82.408,37.226,82.408,37.226z"/>
		<path fill="#FFFFFF" d="M82.383,37.226c-0.001,0-0.003,0-0.004,0l-0.173-0.006c-0.763-0.049-3.481-0.454-3.481-3.713l-0.016,0.398
			c-0.214,2.911-2.766,3.271-3.479,3.315l-0.16,0.006c-0.001,0-0.003,0-0.003,0h0.002l-0.002,0c0.291,0.001,3.404,0.092,3.642,3.321
			l0.016,0.397C78.725,37.325,82.08,37.228,82.383,37.226h-0.002H82.383z"/>
		<path fill="#FFFFFF" d="M75.042,37.227h0.025C75.051,37.226,75.042,37.227,75.042,37.227z"/>
		<path fill="#FFFFFF" d="M82.383,37.227h0.024C82.408,37.227,82.397,37.226,82.383,37.227z"/>
	</g>
</g>
<path fill="#FFFFFF" d="M241.303,37.479c0,0-0.004,0-0.006,0l-0.309-0.012c-1.361-0.087-6.207-0.807-6.207-6.617l-0.028,0.709
	c-0.381,5.189-4.929,5.832-6.201,5.91l-0.286,0.011c-0.002,0-0.004,0-0.006,0h0.004l-0.004,0c0.521,0.002,6.069,0.165,6.493,5.92
	l0.028,0.708C234.782,37.655,240.763,37.482,241.303,37.479h-0.004H241.303z"/>
<path fill="#FFFFFF" d="M24.162,159.494c-0.002,0-0.009,0-0.011,0l-0.569-0.021c-2.5-0.161-11.407-1.484-11.407-12.164l-0.052,1.304
	c-0.7,9.538-9.06,10.719-11.398,10.862l-0.526,0.02c-0.004,0-0.007,0-0.011,0h0.007l-0.007,0.002
	c0.957,0.003,11.156,0.303,11.936,10.882l0.052,1.302c0-11.861,10.993-12.18,11.987-12.184l-0.007-0.002H24.162z"/>
<path fill="#FFFFFF" d="M305.852,159.494c-0.002,0-0.01,0-0.012,0l-0.568-0.021c-2.5-0.161-11.408-1.484-11.408-12.164l-0.051,1.304
	c-0.701,9.538-9.061,10.719-11.398,10.862l-0.527,0.02c-0.004,0-0.006,0-0.01,0h0.006l-0.006,0.002
	c0.957,0.003,11.156,0.303,11.936,10.882l0.051,1.302c0-11.861,10.994-12.18,11.988-12.184l-0.008-0.002H305.852z"/>
<path fill="#FFFFFF" d="M68.484,37.479c-0.001,0-0.005,0-0.006,0l-0.31-0.012c-1.36-0.087-6.206-0.807-6.206-6.617l-0.028,0.709
	c-0.381,5.189-4.929,5.832-6.201,5.91l-0.286,0.011c-0.002,0-0.004,0-0.006,0h0.004l-0.004,0c0.521,0.002,6.069,0.165,6.493,5.92
	l0.028,0.708C61.962,37.655,67.943,37.482,68.484,37.479H68.48H68.484z"/>
<path fill="#FFFFFF" d="M62.542,106.354c-0.001,0-0.002,0-0.003,0l-0.144-0.009c-0.629-0.056-2.865-0.445-2.799-3.137l-0.022,0.328
	c-0.235,2.4-2.35,2.646-2.94,2.667l-0.133,0.002c-0.001,0-0.002,0-0.003,0H56.5h-0.002c0.241,0.007,2.811,0.146,2.941,2.818
	l0.005,0.328C59.518,106.361,62.291,106.349,62.542,106.354H62.54H62.542z"/>
</svg>
