<?xml version="1.0" encoding="utf-8"?>
<!-- Generator: Adobe Illustrator 16.0.0, SVG Export Plug-In . SVG Version: 6.00 Build 0)  -->
<!DOCTYPE svg PUBLIC "-//W3C//DTD SVG 1.1//EN" "http://www.w3.org/Graphics/SVG/1.1/DTD/svg11.dtd">
<svg version="1.1" xmlns="http://www.w3.org/2000/svg" xmlns:xlink="http://www.w3.org/1999/xlink" x="0px" y="0px"
	 width="94.53px" height="94.53px" viewBox="0 0 94.53 94.53" enable-background="new 0 0 94.53 94.53" xml:space="preserve">
<g id="XMLID_19026_">
	<path id="XMLID_19033_" fill="#E6438D" d="M0.255,32.989c0,0,6.199,32.104,4.354,49.391c0,0,2.85,0.637,4.358,0
		c0,0-1.173-16.384,1.505-27.946c0,0,1.007-14.577,13.739-3.853C24.211,50.582,16.17,41.532,0.255,32.989z"/>
	<g id="XMLID_19027_">
		<path id="XMLID_19032_" fill="#DDA1BA" d="M41.593,75.577c0,0,5.674,14.479,20.166,11.717c0,0,10.639-1.59,16-2.933
			c0,0,13.318-3.435,14.993-5.948c0,0,1.55-5.709,1.504-6.046c0,0-8.958,5.042-20.269,6.883c0,0-13.152,2.848-19.35,2.513
			C54.638,81.763,46.033,81.483,41.593,75.577z"/>
		<path id="XMLID_19031_" fill="#DDA1BA" d="M18.007,46.896c0,0-5.887-2.071-7.887,13.801c-0.648,5.108-1.857,18.196-0.566,21.611
			L8.967,82.38C8.967,82.38,5.691,41.998,18.007,46.896z"/>
		<path id="XMLID_19030_" fill="#F0EAD3" d="M12.609,6.886c0,0,25.218,40.91,25.47,40.994c0.251,0.081,0.564,0.189,0.564,0.189
			S57.995,73.136,67.566,59.41c0,0,4.375-3.405-5.363-2.428c0,0-6.7,1.255-13.654-7.038c0,0-19.842-24.18-20.521-24.929
			C27.691,24.646,14.369,7.724,12.609,6.886z"/>
		<path id="XMLID_19029_" fill="#E40071" d="M12.609,6.886c0,0-14.699,11.526-12.354,26.103l23.58,17.459
			c0,0,8.042,5.359,17.758,25.129c0,0,5.697,8.712,19.938,5.865c0,0,29.235-4.204,32.503-8.546c0,0,4.254-7.656-12.231-10.388
			c0,0-8.377-1.169-13.403-5.024c0,0-3.551,7.607-12.564,4.35c0,0-10.758-2.092-22.619-23.282
			C33.216,38.553,14.285,7.891,12.609,6.886z"/>
		<path id="XMLID_19028_" fill="#040000" d="M4.597,81.25v2.556c0,0,3.699,0.562,4.932,0V81.25C9.529,81.25,6.48,81.626,4.597,81.25
			z"/>
	</g>
</g>
</svg>
