<?xml version="1.0" encoding="utf-8"?>
<!-- Generator: Adobe Illustrator 16.0.0, SVG Export Plug-In . SVG Version: 6.00 Build 0)  -->
<!DOCTYPE svg PUBLIC "-//W3C//DTD SVG 1.1//EN" "http://www.w3.org/Graphics/SVG/1.1/DTD/svg11.dtd">
<svg version="1.1" id="图层_1" xmlns="http://www.w3.org/2000/svg" xmlns:xlink="http://www.w3.org/1999/xlink" x="0px" y="0px"
	 width="111.28px" height="111.28px" viewBox="0 0 111.28 111.28" enable-background="new 0 0 111.28 111.28" xml:space="preserve">
<g>
	<g>
		<path fill="#E8E8E8" d="M93.974,70.625h-57.95c-1.756,0-3.178-1.423-3.178-3.179c0-1.755,1.422-3.177,3.178-3.177H91.57
			l12.838-45.362c0.478-1.688,2.232-2.671,3.923-2.192c1.689,0.479,2.671,2.235,2.193,3.926L97.031,68.313
			C96.645,69.681,95.396,70.625,93.974,70.625z"/>
		<path fill="#E8E8E8" d="M95.563,58.431H33.191c-1.404,0-2.542-1.139-2.542-2.543c0-1.403,1.138-2.543,2.542-2.543h62.372
			c1.403,0,2.542,1.14,2.542,2.543C98.105,57.292,96.967,58.431,95.563,58.431z"/>
		<path fill="#E8E8E8" d="M99.853,46.788H30.649c-1.405,0-2.543-1.138-2.543-2.543c0-1.403,1.138-2.543,2.543-2.543h69.203
			c1.405,0,2.543,1.14,2.543,2.543C102.396,45.65,101.258,46.788,99.853,46.788z"/>
		<path fill="#E8E8E8" d="M103.835,35.146H28.106c-1.404,0-2.543-1.139-2.543-2.543c0-1.405,1.139-2.543,2.543-2.543h75.729
			c1.404,0,2.542,1.138,2.542,2.543C106.377,34.008,105.239,35.146,103.835,35.146z"/>
		<path fill="#E8E8E8" d="M47.144,68.602c-1.249,0-2.338-0.918-2.516-2.189l-6.25-44.698c-0.194-1.39,0.776-2.675,2.166-2.87
			c1.391-0.197,2.676,0.775,2.87,2.167l6.25,44.697c0.195,1.391-0.775,2.677-2.166,2.869C47.38,68.594,47.26,68.602,47.144,68.602z"
			/>
		<path fill="#E8E8E8" d="M59.249,69.137c-1.358,0-2.485-1.073-2.539-2.442l-1.748-44.698c-0.055-1.402,1.039-2.585,2.441-2.639
			c1.402-0.055,2.586,1.036,2.641,2.439l1.747,44.698c0.056,1.403-1.038,2.585-2.44,2.64C59.316,69.136,59.282,69.137,59.249,69.137
			z"/>
		<path fill="#E8E8E8" d="M69.814,68.898c-0.072,0-0.145-0.002-0.219-0.008c-1.398-0.121-2.437-1.351-2.317-2.75l3.865-45.491
			c0.12-1.398,1.347-2.436,2.75-2.317c1.398,0.117,2.437,1.348,2.317,2.748l-3.865,45.491
			C72.232,67.897,71.121,68.898,69.814,68.898z"/>
		<path fill="#E8E8E8" d="M82.724,68.602c-0.126,0-0.253-0.008-0.38-0.027c-1.39-0.208-2.347-1.503-2.139-2.893l6.938-46.286
			c0.208-1.389,1.502-2.346,2.892-2.137c1.389,0.208,2.346,1.502,2.138,2.891l-6.938,46.287
			C85.045,67.697,83.96,68.602,82.724,68.602z"/>
		<path fill="#FF6D3A" d="M108.103,22.951H28.106c-1.756,0-3.179-1.424-3.179-3.178c0-1.755,1.423-3.18,3.179-3.18h79.996
			c1.755,0,3.178,1.425,3.178,3.18C111.28,21.527,109.857,22.951,108.103,22.951z"/>
		<path fill="#E8E8E8" d="M97.787,87.364H28.501c-1.491,0-2.78-1.035-3.103-2.491c-2.271-10.262,2.692-16.409,7.016-19.146
			l-9.536-45.346L1.974,11.813C0.35,11.148-0.428,9.293,0.238,7.667c0.666-1.623,2.521-2.401,4.146-1.735l22.463,9.206
			c0.974,0.398,1.688,1.255,1.904,2.287l10.383,49.368c0.324,1.545-0.533,3.092-2.014,3.638c-0.699,0.271-6.478,2.772-5.892,10.576
			h66.559c1.756,0,3.178,1.424,3.178,3.179S99.543,87.364,97.787,87.364z"/>
		<path fill="#FF6D3A" d="M16.447,17.49c-0.401,0-0.81-0.077-1.205-0.238L1.974,11.813C0.35,11.148-0.428,9.293,0.238,7.667
			c0.666-1.623,2.521-2.401,4.146-1.735l13.27,5.438c1.624,0.666,2.401,2.521,1.735,4.146C18.885,16.747,17.698,17.49,16.447,17.49z
			"/>
		<g>
			<circle fill="#FF6D3A" cx="89.657" cy="96.157" r="9.429"/>
			<circle fill="#8DB756" cx="89.657" cy="96.157" r="4.768"/>
		</g>
		<g>
			<circle fill="#FF6D3A" cx="38.593" cy="96.157" r="9.429"/>
			<circle fill="#8DB756" cx="38.593" cy="96.157" r="4.768"/>
		</g>
	</g>
</g>
</svg>
