<?xml version="1.0" encoding="utf-8"?>
<!-- Generator: Adobe Illustrator 16.0.0, SVG Export Plug-In . SVG Version: 6.00 Build 0)  -->
<!DOCTYPE svg PUBLIC "-//W3C//DTD SVG 1.1//EN" "http://www.w3.org/Graphics/SVG/1.1/DTD/svg11.dtd">
<svg version="1.1" xmlns="http://www.w3.org/2000/svg" xmlns:xlink="http://www.w3.org/1999/xlink" x="0px" y="0px"
	 width="286.267px" height="286.269px" viewBox="0 0 286.267 286.269" enable-background="new 0 0 286.267 286.269"
	 xml:space="preserve">
<path fill="#F3715B" d="M286.267,143.136c0,79.051-64.084,143.133-143.135,143.133C64.084,286.269,0,222.187,0,143.136
	C0,64.085,64.084,0,143.131,0C222.183,0,286.267,64.085,286.267,143.136L286.267,143.136z"/>
<path fill="#19334B" d="M129.218,100.651c-2.214,22.074-13.904,38.971-26.099,37.744c-12.203-1.224-20.292-20.111-18.075-42.186
	c2.218-22.073,13.9-38.973,26.103-37.749C123.346,59.689,131.436,78.578,129.218,100.651L129.218,100.651z"/>
<path fill="#19334B" d="M160.91,100.651c2.211,22.074,13.9,38.971,26.096,37.744c12.199-1.224,20.296-20.111,18.078-42.186
	c-2.221-22.073-13.903-38.973-26.102-37.749C166.778,59.689,158.685,78.578,160.91,100.651L160.91,100.651z"/>
<path fill="#19334B" d="M234.354,162.853c-11.32-5.967-22.062-7.837-23.988-4.18c-1.58,3.006,3.272,8.797,11.324,14.078
	c-7.129,35.436-40.768,58.732-77.605,58.732c-36.965,0-70.052-23.445-76.988-59.078c7.298-5.043,11.565-10.387,10.074-13.229
	c-1.932-3.657-12.67-1.787-23.991,4.177c-11.328,5.961-18.942,13.762-17.014,17.419c1.509,2.876,8.462,2.334,16.869-0.919
	c9.833,42.212,46.839,72.986,91.05,72.986c44.294,0,81.314-30.904,91.05-73.246c8.115,3.037,14.752,3.48,16.229,0.68
	C253.293,176.613,245.675,168.811,234.354,162.853L234.354,162.853z"/>
</svg>
