<?xml version="1.0" encoding="utf-8"?>
<!-- Generator: Adobe Illustrator 16.0.0, SVG Export Plug-In . SVG Version: 6.00 Build 0)  -->
<!DOCTYPE svg PUBLIC "-//W3C//DTD SVG 1.1//EN" "http://www.w3.org/Graphics/SVG/1.1/DTD/svg11.dtd">
<svg version="1.1" id="图层_1" xmlns="http://www.w3.org/2000/svg" xmlns:xlink="http://www.w3.org/1999/xlink" x="0px" y="0px"
	 width="750.54px" height="750.54px" viewBox="0 0 750.54 750.54" enable-background="new 0 0 750.54 750.54" xml:space="preserve">
<g>
	<g>
		<polygon fill="#3BB2E6" points="395.792,41.036 410.822,61.565 385.526,58.804 375.26,82.073 375.26,-0.002 385.526,23.266 
			410.822,20.528 		"/>
		<polygon fill="#50C4E9" points="375.26,-0.002 375.26,82.073 365.019,58.804 339.724,61.565 354.754,41.036 339.724,20.528 
			365.019,23.266 		"/>
		<path fill="#3BB2E6" d="M463.192,175.059c-3.607,37.854-37.942,67.98-80.961,70.941v65.909h-6.971V93.918h6.971v50.724
			c22.289-1.47,41.794-9.864,54.219-22.2c-2.448,25.719-25.296,46.314-54.219,49.188v35.516
			C415.543,205.631,444.778,193.339,463.192,175.059z"/>
		<path fill="#50C4E9" d="M375.26,93.918V311.91h-6.967V246c-42.998-2.961-77.356-33.088-80.962-70.941
			c18.437,18.28,47.651,30.572,80.962,32.086v-35.516c-28.926-2.873-51.749-23.469-54.199-49.188
			c12.425,12.336,31.909,20.73,54.199,22.2V93.918H375.26z"/>
	</g>
	<g>
		<polygon fill="#50C4E9" points="96.074,225.926 121.356,228.676 106.334,208.157 121.358,187.636 96.074,190.384 85.812,167.114 
			75.552,190.385 50.27,187.636 65.292,208.157 50.27,228.676 75.552,225.927 85.814,249.196 		"/>
		<path fill="#50C4E9" d="M245.844,199.019c6.612,25.096,2.655,56.554-12.687,86.159l-30.758-17.756
			c11.97-26.494,5.553-56.562-15.49-71.539c4.46,16.924,1.986,38.004-7.889,58.039l-43.931-25.363l-6.968,12.066l43.932,25.363
			c-12.414,18.571-29.432,31.254-46.319,35.854c23.491,10.734,52.739,1.258,69.699-22.354l30.757,17.758
			c-17.968,28.09-43.234,47.246-68.274,54.066c34.587,15.807,77.849,1.131,101.924-34.641l57.073,32.951l6.966-12.064
			l-57.072-32.951C285.745,265.873,276.822,221.067,245.844,199.019z"/>
	</g>
	<g>
		<polygon fill="#50C4E9" points="106.334,542.39 121.356,521.87 96.075,524.619 85.814,501.348 75.554,524.62 50.27,521.87 
			65.293,542.391 50.27,562.912 75.554,560.163 85.812,583.432 96.074,560.163 121.358,562.909 		"/>
		<path fill="#50C4E9" d="M157.916,399.233c25.041,6.82,50.306,25.977,68.273,54.066l-30.757,17.759
			c-16.96-23.612-46.207-33.089-69.699-22.353c16.887,4.597,33.906,17.279,46.319,35.85l-43.932,25.363l6.968,12.066l43.931-25.363
			c9.875,20.037,12.349,41.115,7.889,58.04c21.042-14.976,27.46-45.044,15.49-71.538l30.758-17.758
			c15.343,29.606,19.3,61.065,12.687,86.161c30.979-22.048,39.904-66.853,20.962-105.589l57.072-32.951l-6.966-12.066
			l-57.073,32.951C235.764,398.102,192.502,383.427,157.916,399.233z"/>
	</g>
	<g>
		<polygon fill="#3BB2E6" points="395.792,709.504 410.822,730.035 385.526,727.273 375.26,750.542 375.26,668.466 385.526,691.735 
			410.822,688.997 		"/>
		<polygon fill="#50C4E9" points="375.26,668.466 375.26,750.542 365.019,727.273 339.724,730.035 354.754,709.504 339.724,688.997 
			365.019,691.735 		"/>
		<path fill="#3BB2E6" d="M436.45,628.097c-12.425-12.336-31.93-20.73-54.219-22.2v50.746h-6.971V438.629h6.971v65.91
			c43.019,2.962,77.354,33.088,80.961,70.941c-18.414-18.281-47.649-30.572-80.961-32.087v35.517
			C411.154,581.783,434.002,602.379,436.45,628.097z"/>
		<path fill="#50C4E9" d="M375.26,438.629v218.014h-6.967v-50.746c-22.268,1.47-41.773,9.864-54.199,22.2
			c2.45-25.718,25.273-46.314,54.199-49.187v-35.517c-33.29,1.515-62.526,13.806-80.94,32.087
			c3.584-37.854,37.942-67.979,80.94-70.941v-65.91H375.26z"/>
	</g>
	<g>
		<polygon fill="#3BB2E6" points="654.467,524.619 629.186,521.87 644.204,542.389 629.182,562.911 654.467,560.161 
			664.725,583.432 674.985,560.161 700.27,562.912 685.245,542.389 700.27,521.868 674.985,524.619 664.725,501.348 		"/>
		<path fill="#3BB2E6" d="M504.697,551.526c-6.615-25.097-2.658-56.553,12.686-86.158l30.756,17.756
			c-11.969,26.494-5.554,56.561,15.49,71.538c-4.459-16.925-1.987-38.005,7.89-58.04l43.933,25.363l6.968-12.066l-43.934-25.363
			c12.414-18.571,29.434-31.253,46.321-35.852c-23.494-10.734-52.74-1.26-69.701,22.354l-30.756-17.759
			c17.965-28.09,43.233-47.247,68.274-54.066c-34.585-15.807-77.851-1.132-101.923,34.639l-57.073-32.951l-6.97,12.066
			l57.072,32.951C464.79,484.672,473.715,529.477,504.697,551.526z"/>
	</g>
	<g>
		<polygon fill="#3BB2E6" points="644.204,208.155 629.186,228.676 654.461,225.926 664.725,249.198 674.985,225.925 
			700.27,228.676 685.245,208.155 700.27,187.635 674.985,190.383 664.725,167.114 654.467,190.383 629.182,187.636 		"/>
		<path fill="#3BB2E6" d="M592.624,351.313c-25.041-6.82-50.305-25.979-68.274-54.068l30.756-17.756
			c16.961,23.611,46.203,33.088,69.701,22.352c-16.892-4.598-33.907-17.279-46.321-35.852l43.934-25.361l-6.968-12.066
			l-43.933,25.361c-9.877-20.035-12.349-41.115-7.89-58.039c-21.044,14.977-27.459,45.045-15.49,71.539l-30.756,17.756
			c-15.344-29.604-19.305-61.063-12.686-86.159c-30.982,22.048-39.907,66.854-20.967,105.589l-57.072,32.951l6.97,12.064
			l57.073-32.951C514.773,352.444,558.039,367.119,592.624,351.313z"/>
	</g>
	<path fill="#1F88C9" d="M474.015,318.261l-70.24,7.64l-28.506-64.65l-28.505,64.65l-70.239-7.64l41.734,57.012l-41.734,57.012
		l70.239-7.639l28.505,64.649l28.506-64.649l70.24,7.639l-41.733-57.012L474.015,318.261z M419.209,400.643l-31.254-3.4
		l-12.687,28.768l-12.686-28.768l-31.254,3.4l18.571-25.37l-18.571-25.37l31.254,3.4l12.686-28.768l12.687,28.768l31.254-3.4
		l-18.568,25.37L419.209,400.643z"/>
</g>
</svg>
