<?xml version="1.0" encoding="utf-8"?>
<!-- Generator: Adobe Illustrator 16.0.0, SVG Export Plug-In . SVG Version: 6.00 Build 0)  -->
<!DOCTYPE svg PUBLIC "-//W3C//DTD SVG 1.1//EN" "http://www.w3.org/Graphics/SVG/1.1/DTD/svg11.dtd">
<svg version="1.1" xmlns="http://www.w3.org/2000/svg" xmlns:xlink="http://www.w3.org/1999/xlink" x="0px" y="0px"
	 width="123.14px" height="123.14px" viewBox="0 0 123.14 123.14" enable-background="new 0 0 123.14 123.14" xml:space="preserve">
<path fill="#FAAB18" d="M122.86,47.263c-0.675-2.079-2.471-3.593-4.633-3.906l-35.593-5.172L66.716,5.932
	c-0.966-1.959-2.961-3.199-5.146-3.199c-2.184,0-4.179,1.24-5.146,3.199L40.506,38.185L4.913,43.356
	c-2.162,0.313-3.958,1.827-4.633,3.905s-0.112,4.358,1.452,5.883L27.488,78.25l-6.08,35.449c-0.369,2.152,0.516,4.33,2.283,5.613
	c1.768,1.283,4.11,1.453,6.043,0.438l31.836-16.738l31.835,16.738c0.84,0.439,1.756,0.658,2.67,0.658
	c1.19,0,2.374-0.369,3.374-1.096c1.768-1.283,2.652-3.461,2.283-5.613l-6.08-35.449l25.756-25.105
	C122.972,51.62,123.535,49.34,122.86,47.263z"/>
</svg>
