<?xml version="1.0" encoding="utf-8"?>
<!-- Generator: Adobe Illustrator 16.0.0, SVG Export Plug-In . SVG Version: 6.00 Build 0)  -->
<!DOCTYPE svg PUBLIC "-//W3C//DTD SVG 1.1//EN" "http://www.w3.org/Graphics/SVG/1.1/DTD/svg11.dtd">
<svg version="1.1" xmlns="http://www.w3.org/2000/svg" xmlns:xlink="http://www.w3.org/1999/xlink" x="0px" y="0px"
	 width="45.6px" height="46.593px" viewBox="0 0 45.6 46.593" enable-background="new 0 0 45.6 46.593" xml:space="preserve">
<rect x="4.422" y="40.19" fill-rule="evenodd" clip-rule="evenodd" fill="#C7C3C2" width="28.308" height="0.926"/>
<rect x="4.422" y="41.424" fill-rule="evenodd" clip-rule="evenodd" fill="#C7C3C2" width="28.308" height="0.952"/>
<rect x="4.422" y="42.685" fill-rule="evenodd" clip-rule="evenodd" fill="#C7C3C2" width="28.308" height="0.926"/>
<rect x="4.422" y="38.931" fill-rule="evenodd" clip-rule="evenodd" fill="#C7C3C2" width="28.308" height="0.926"/>
<path fill-rule="evenodd" clip-rule="evenodd" fill="#47BEE8" d="M35.198,40.036c-0.644,0-1.157,0.514-1.157,1.131v3.137H5.502
	c-1.723,0-3.137-1.362-3.214-3.085c0-0.025,0-0.052,0-0.077c0-0.052,0-0.129,0-0.231c0.103-1.697,1.491-3.033,3.214-3.033h29.413
	c0.077,0,0.18,0,0.257-0.026c0,0,0,0,0.026,0c0.617,0,1.131-0.515,1.131-1.131v-9.693v-8.768l-5.888,8.768l-7.714,5.682l1.569-9.229
	L36.329,5.532V4.555c0-0.643-0.514-1.131-1.131-1.131h-0.283H18.589H14.86H5.502l0,0C2.468,3.424,0,5.866,0,8.9
	c0,0.052,0.025,0.077,0.025,0.129c0,0.205,0,0.514,0,0.925C0.025,13.065,0,21.679,0,29.084c0,0.616,0,1.208,0,1.799
	c0,4.808,0,8.819,0.025,10.027C0.025,40.962,0,41.039,0,41.09c0,0.489,0.076,0.978,0.205,1.44c0.591,2.211,2.571,3.883,4.937,4.037
	c0.077,0,0.129,0.025,0.18,0.025h29.877c0.617,0,1.131-0.515,1.131-1.131v-4.295C36.329,40.55,35.815,40.036,35.198,40.036
	L35.198,40.036z"/>
<path fill-rule="evenodd" clip-rule="evenodd" fill="#3699DD" d="M4.422,38.057V3.526C1.902,4.015,0,6.252,0,8.9
	c0,0.052,0.025,0.077,0.025,0.129v0.925C0.025,13.065,0,21.679,0,29.084v1.799c0,4.808,0,8.819,0.025,10.027
	C0.025,40.962,0,41.039,0,41.09c0,0.489,0.076,0.978,0.205,1.44c0.54,1.979,2.16,3.522,4.217,3.934v-2.34
	c-1.208-0.437-2.083-1.567-2.134-2.905v-0.077c0-0.052,0-0.129,0-0.231C2.365,39.599,3.239,38.493,4.422,38.057L4.422,38.057z"/>
<path fill-rule="evenodd" clip-rule="evenodd" fill="#47BEE8" d="M34.041,44.304H5.502c-0.386,0-0.875-0.103-1.209-0.205v2.34
	c0.231,0.052,0.617,0.103,0.849,0.129c0.077,0,0.129,0.025,0.18,0.025h29.877c0.617,0,1.131-0.515,1.131-1.131v-4.295
	c0-0.617-0.514-1.131-1.131-1.131c-0.644,0-1.157,0.514-1.157,1.131V44.304z"/>
<path fill-rule="evenodd" clip-rule="evenodd" fill="#FFC01C" d="M41.729,0.364L25.736,24.197l1.079,0.618L42.809,0.98
	c0.077-0.103,0.128-0.205,0.154-0.334l-0.952-0.565C41.908,0.158,41.806,0.262,41.729,0.364L41.729,0.364z"/>
<path fill-rule="evenodd" clip-rule="evenodd" fill="#E6AD19" d="M45.251,2.37L29.233,26.229l0.797,0.437l15.169-22.6
	c0.463-0.694,0.515-1.491,0.206-1.954H45.38C45.354,2.189,45.303,2.267,45.251,2.37L45.251,2.37z"/>
<path fill-rule="evenodd" clip-rule="evenodd" fill="#FDE34F" d="M25.736,24.197L41.729,0.364c0.077-0.103,0.18-0.206,0.282-0.283
	L41.96,0.055c-0.592-0.205-1.414,0.181-1.929,0.9L24.811,23.684l0.874,0.488L25.736,24.197z"/>
<path fill-rule="evenodd" clip-rule="evenodd" fill="#E6AD19" d="M44.171,1.727l-16.018,23.86l1.131,0.643L45.277,2.37
	c0.051-0.077,0.077-0.181,0.103-0.258l-1.003-0.617C44.3,1.572,44.222,1.649,44.171,1.727L44.171,1.727z"/>
<path fill-rule="evenodd" clip-rule="evenodd" fill="#FFC01C" d="M28.179,25.612l15.992-23.86c0.077-0.103,0.129-0.18,0.206-0.257
	l-1.414-0.849c-0.026,0.129-0.104,0.231-0.181,0.334L26.79,24.815L28.179,25.612z"/>
<polygon fill-rule="evenodd" clip-rule="evenodd" fill="#EFBB86" points="23.987,28.8 26.354,25.304 24.451,24.197 23.833,28.697 
	"/>
<polygon fill-rule="evenodd" clip-rule="evenodd" fill="#EFBB86" points="28.102,26.307 25.736,29.803 25.864,29.854 29.67,27.181 
	"/>
<polygon fill-rule="evenodd" clip-rule="evenodd" fill="#F2C89D" points="26.354,25.304 23.987,28.8 25.736,29.803 28.102,26.307 
	"/>
<polygon fill-rule="evenodd" clip-rule="evenodd" fill="#1A1A1A" points="25.119,29.443 24.064,31.114 25.864,29.854 25.736,29.803 
	"/>
<polygon fill-rule="evenodd" clip-rule="evenodd" fill="#2B2B2B" points="24.064,31.114 25.146,29.443 24.631,29.161 23.525,30.856 
	23.423,31.552 "/>
<polygon fill-rule="evenodd" clip-rule="evenodd" fill="#1A1A1A" points="23.757,29.135 24.014,28.8 23.833,28.697 "/>
<polygon fill-rule="evenodd" clip-rule="evenodd" fill="#1A1A1A" points="23.525,30.883 24.631,29.161 23.987,28.8 23.757,29.135 
	"/>
<polygon fill-rule="evenodd" clip-rule="evenodd" fill="#357DE5" points="7.91,3.424 7.91,17.873 13.257,13.631 18.399,17.873 
	18.399,3.424 15.906,3.424 "/>
</svg>
