<?xml version="1.0" encoding="iso-8859-1"?>
<!-- Generator: Adobe Illustrator 19.0.0, SVG Export Plug-In . SVG Version: 6.00 Build 0)  -->
<svg version="1.1" id="Capa_1" xmlns="http://www.w3.org/2000/svg" xmlns:xlink="http://www.w3.org/1999/xlink" x="0px" y="0px"
	 viewBox="0 0 511.594 511.594" style="enable-background:new 0 0 511.594 511.594;" xml:space="preserve">
<path style="fill:#ED5565;" d="M255.797,63.949c-51.958,0-83.933,15.987-83.933,15.987v15.987h167.867V79.937
	C339.731,79.937,307.756,63.949,255.797,63.949z"/>
<g style="opacity:0.3;">
	<path style="fill:#FFFFFF;" d="M255.797,63.949c-51.958,0-83.933,15.987-83.933,15.987v7.994c0,0,31.975-15.987,83.933-15.987
		c51.959,0,83.934,15.987,83.934,15.987v-7.993C339.731,79.937,307.756,63.949,255.797,63.949z"/>
</g>
<polygon style="fill:#965353;" points="459.635,151.88 3.997,151.88 51.959,103.918 507.598,103.918 "/>
<g style="opacity:0.2;">
	<polygon style="fill:#FFFFFF;" points="51.959,103.918 3.997,151.88 19.984,151.88 67.946,103.918 	"/>
</g>
<g style="opacity:0.2;">
	<polygon points="491.61,103.918 443.649,151.88 459.635,151.88 507.598,103.918 	"/>
</g>
<rect x="3.997" y="151.877" style="fill:#965353;" width="455.64" height="295.77"/>
<g style="opacity:0.1;">
	<rect x="3.997" y="151.877" style="fill:#FFFFFF;" width="455.64" height="295.77"/>
</g>
<g>
	<polygon style="fill:#AAB2BD;" points="3.997,215.829 3.997,151.88 67.946,151.88 	"/>
	<polygon style="fill:#AAB2BD;" points="395.686,151.88 459.635,151.88 459.635,215.829 	"/>
	<polygon style="fill:#AAB2BD;" points="459.635,383.696 459.635,447.646 395.686,447.646 	"/>
	<polygon style="fill:#AAB2BD;" points="67.946,447.638 3.997,447.638 3.997,383.689 	"/>
</g>
<polygon style="fill:#965353;" points="507.598,399.683 459.635,447.646 459.635,151.88 507.598,103.918 "/>
<g style="opacity:0.1;">
	<polygon points="507.598,399.683 459.635,447.646 459.635,151.88 507.598,103.918 	"/>
</g>
<g>
	<rect x="171.867" y="95.927" style="fill:#CCD1D9;" width="15.987" height="31.975"/>
	<rect x="323.737" y="95.927" style="fill:#CCD1D9;" width="15.988" height="31.975"/>
</g>
<polygon style="fill:#FFCE54;" points="115.908,135.893 43.965,135.893 59.952,119.905 131.895,119.905 "/>
<g style="opacity:0.5;">
	<polygon style="fill:#FFFFFF;" points="83.933,119.905 67.946,135.893 75.94,135.893 91.927,119.905 	"/>
</g>
<g style="opacity:0.5;">
	<polygon style="fill:#FFFFFF;" points="59.952,119.905 43.965,135.893 51.959,135.893 67.946,119.905 	"/>
</g>
<g style="opacity:0.2;">
	<polygon points="99.921,119.905 83.933,135.893 91.927,135.893 107.914,119.905 	"/>
</g>
<g style="opacity:0.2;">
	<polygon points="123.901,119.905 107.914,135.893 115.908,135.893 131.895,119.905 	"/>
</g>
<polygon style="fill:#FFCE54;" points="443.649,135.893 371.705,135.893 387.692,119.905 459.635,119.905 "/>
<g style="opacity:0.5;">
	<polygon style="fill:#FFFFFF;" points="411.674,119.905 395.686,135.893 403.68,135.893 419.666,119.905 	"/>
</g>
<g style="opacity:0.5;">
	<polygon style="fill:#FFFFFF;" points="387.692,119.905 371.705,135.893 379.699,135.893 395.686,119.905 	"/>
</g>
<g style="opacity:0.2;">
	<polygon points="427.66,119.905 411.674,135.893 419.666,135.893 435.654,119.905 	"/>
</g>
<g style="opacity:0.2;">
	<polygon points="451.641,119.905 435.654,135.893 443.649,135.893 459.635,119.905 	"/>
</g>
<g>
	<path style="fill:#3A3847;" d="M20.222,171.863c-2.206,0-4.036-1.787-4.036-3.996s1.749-3.997,3.958-3.997h0.078
		c2.209,0,3.997,1.788,3.997,3.997S22.431,171.863,20.222,171.863z"/>
	<path style="fill:#3A3847;" d="M443.889,171.863c-2.209,0-4.035-1.787-4.035-3.996s1.748-3.997,3.949-3.997h0.086
		c2.203,0,3.998,1.788,3.998,3.997S446.092,171.863,443.889,171.863z"/>
	<path style="fill:#3A3847;" d="M20.222,435.654c-2.206,0-4.036-1.787-4.036-3.997c0-2.209,1.749-3.996,3.958-3.996h0.078
		c2.209,0,3.997,1.787,3.997,3.996C24.219,433.867,22.431,435.654,20.222,435.654z"/>
	<path style="fill:#3A3847;" d="M443.889,435.654c-2.209,0-4.035-1.787-4.035-3.997c0-2.209,1.748-3.996,3.949-3.996h0.086
		c2.203,0,3.998,1.787,3.998,3.996C447.887,433.867,446.092,435.654,443.889,435.654z"/>
</g>
<rect x="140.089" y="363.917" transform="matrix(0.7071 0.7071 -0.7071 0.7071 318.1427 -0.6634)" style="fill:#ED5565;" width="39.567" height="39.567"/>
<g style="opacity:0.3;">
	<polygon style="fill:#FFFFFF;" points="139.889,383.696 163.87,359.715 159.873,355.718 131.895,383.696 159.873,411.674 
		163.87,407.677 	"/>
</g>
<g style="opacity:0.2;">
	<polygon points="179.857,383.696 155.876,407.677 159.873,411.674 187.851,383.696 159.873,355.718 155.876,359.715 	"/>
</g>
<polygon style="fill:#AC92EC;" points="251.8,343.728 339.731,375.702 251.8,407.677 "/>
<g style="opacity:0.2;">
	<polygon points="251.8,343.728 251.8,349.543 323.742,375.702 251.8,401.861 251.8,407.677 339.731,375.702 	"/>
</g>
<g style="opacity:0.3;">
	<polygon style="fill:#FFFFFF;" points="259.793,346.632 251.8,343.728 251.8,407.677 259.793,404.773 	"/>
</g>
<path style="fill:#FFCE54;" d="M355.717,223.822c0,4.396-3.598,7.994-7.992,7.994c-4.396,0-7.994-3.599-7.994-7.994
	s3.598-7.993,7.994-7.993C352.119,215.829,355.717,219.428,355.717,223.822z"/>
<path style="fill:#5D9CEC;" d="M403.68,319.747h-79.938V199.842h79.938V319.747z M339.731,223.822c0,4.396,3.598,7.994,7.994,7.994
	c4.395,0,7.992-3.599,7.992-7.994s-3.598-7.993-7.992-7.993C343.328,215.829,339.731,219.428,339.731,223.822z"/>
<path style="fill:#ED5565;" d="M227.819,231.817c8.794,0,15.987,7.193,15.987,15.987s-7.193,15.987-15.987,15.987
	c-8.872,0-15.987-7.193-15.987-15.987C211.832,239.01,218.947,231.817,227.819,231.817z"/>
<g style="opacity:0.3;">
	<path style="fill:#FFFFFF;" d="M219.825,247.804c0-7.412,5.078-13.63,11.979-15.422c-1.284-0.331-2.604-0.565-3.985-0.565
		c-8.872,0-15.987,7.193-15.987,15.987s7.115,15.987,15.987,15.987c1.382,0,2.701-0.234,3.985-0.566
		C224.903,261.434,219.825,255.216,219.825,247.804z"/>
</g>
<g style="opacity:0.2;">
	<path d="M235.813,247.804c0,7.412-5.078,13.63-11.979,15.421c1.284,0.332,2.604,0.566,3.985,0.566
		c8.872,0,15.987-7.193,15.987-15.987c0-8.794-7.115-15.987-15.987-15.987c-1.382,0-2.701,0.234-3.985,0.565
		C230.735,234.174,235.813,240.392,235.813,247.804z"/>
</g>
<path style="fill:#A0D468;" d="M243.806,247.804c0-8.794-7.193-15.987-15.987-15.987c-8.872,0-15.987,7.193-15.987,15.987
	s7.115,15.987,15.987,15.987C236.613,263.791,243.806,256.598,243.806,247.804z M201.36,269.943l-8.154-2.154l2.159-8.154
	l-6.874-4.875l4.797-6.955l-4.797-6.956l6.874-4.875l-2.159-8.153l8.154-2.158l0.8-8.474l8.392,0.718l3.599-7.674l7.674,3.599
	l5.995-5.995l5.995,5.995l7.674-3.599l3.599,7.674l8.392-0.718l0.8,8.396l8.153,2.236l-2.158,8.153l6.873,4.875l-4.797,6.956
	l4.797,6.955l-6.873,4.875l2.158,8.154l-8.153,2.154l-0.8,8.478l-8.392-0.718l-3.599,7.673l-7.674-3.599l-5.995,5.996l-5.995-5.996
	l-7.674,3.599l-3.599-7.673l-8.392,0.718L201.36,269.943z"/>
<g style="opacity:0.3;">
	<polygon style="fill:#FFFFFF;" points="209.353,269.943 201.2,267.788 203.358,259.634 196.485,254.759 201.282,247.804 
		196.485,240.848 203.358,235.973 201.2,227.819 209.353,225.661 210.091,217.866 202.16,217.188 201.36,225.661 193.206,227.819 
		195.364,235.973 188.491,240.848 193.288,247.804 188.491,254.759 195.364,259.634 193.206,267.788 201.36,269.943 202.16,278.42 
		210.091,277.741 	"/>
</g>
<g style="opacity:0.2;">
	<polygon points="245.735,225.661 253.892,227.816 251.73,235.973 258.604,240.848 253.806,247.8 258.604,254.755 251.73,259.63 
		253.892,267.788 245.738,269.943 245.001,277.734 252.932,278.42 253.732,269.943 261.885,267.788 259.727,259.634 266.6,254.759 
		261.803,247.8 266.6,240.844 259.727,235.969 261.885,227.816 253.732,225.657 252.932,217.188 245.001,217.862 	"/>
</g>
<path style="fill:#4FC1E9;" d="M59.152,320.543c-20.222-20.297-20.222-53.239,0-73.54c20.305-20.222,53.239-20.222,73.543,0
	c20.222,20.301,20.222,53.243,0,73.54C112.391,340.769,79.457,340.769,59.152,320.543z"/>
<g style="opacity:0.3;">
	<path style="fill:#FFFFFF;" d="M75.139,320.543c-20.222-20.297-20.222-53.239,0-73.54c8.111-8.079,18.247-12.872,28.778-14.496
		c-15.831-2.443-32.572,2.354-44.766,14.496c-20.222,20.301-20.222,53.243,0,73.54c12.193,12.146,28.935,16.939,44.766,14.504
		C93.386,333.423,83.25,328.63,75.139,320.543z"/>
</g>
<g style="opacity:0.2;">
	<path d="M116.228,247.003c20.222,20.301,20.222,53.243,0,73.54c-8.111,8.087-18.247,12.88-28.778,14.504
		c15.831,2.436,32.572-2.357,44.766-14.504c20.222-20.297,20.222-53.239,0-73.54c-12.193-12.143-28.935-16.939-44.766-14.496
		C97.981,234.131,108.117,238.924,116.228,247.003z"/>
</g>
<g style="opacity:0.2;">
	<rect x="3.997" y="151.877" style="fill:#FFFFFF;" width="15.987" height="295.77"/>
</g>
<g style="opacity:0.2;">
	<rect x="443.647" y="151.877" width="15.986" height="295.77"/>
</g>
<g style="opacity:0.2;">
	<rect x="171.867" y="95.927" width="15.987" height="7.994"/>
</g>
<g style="opacity:0.2;">
	<rect x="323.757" y="95.927" width="15.988" height="7.994"/>
</g>
<g style="opacity:0.3;">
	<rect x="323.737" y="199.837" style="fill:#FFFFFF;" width="7.994" height="119.91"/>
</g>
<g style="opacity:0.2;">
	<rect x="395.687" y="199.837" width="7.994" height="119.91"/>
</g>
<g>
	<path style="fill:#3A3847;" d="M459.635,451.642H3.997c-2.209,0-3.997-1.787-3.997-3.996V151.88c0-2.21,1.788-3.997,3.997-3.997
		h455.638c2.209,0,3.996,1.787,3.996,3.997v295.766C463.631,449.855,461.844,451.642,459.635,451.642z M7.994,443.649h447.645
		V155.876H7.994V443.649z"/>
	<path style="fill:#3A3847;" d="M507.598,403.68c-2.211,0-3.998-1.787-3.998-3.997V103.918c0-2.21,1.787-3.997,3.998-3.997
		c2.209,0,3.996,1.787,3.996,3.997v295.765C511.594,401.893,509.807,403.68,507.598,403.68z"/>
	<path style="fill:#3A3847;" d="M459.635,451.642c-1.023,0-2.045-0.391-2.826-1.171c-1.561-1.562-1.561-4.091,0-5.651l47.963-47.962
		c1.561-1.562,4.09-1.562,5.65,0c1.563,1.562,1.563,4.091,0,5.651l-47.961,47.962C461.68,451.251,460.658,451.642,459.635,451.642z"
		/>
	<path style="fill:#3A3847;" d="M3.997,155.876c-1.022,0-2.045-0.39-2.826-1.171c-1.561-1.561-1.561-4.09,0-5.651l47.962-47.962
		c1.562-1.562,4.091-1.562,5.652,0s1.561,4.091,0,5.651L6.823,154.705C6.042,155.486,5.019,155.876,3.997,155.876z"/>
	<path style="fill:#3A3847;" d="M459.635,155.876c-1.023,0-2.045-0.39-2.826-1.171c-1.561-1.561-1.561-4.09,0-5.651l47.963-47.962
		c1.561-1.562,4.09-1.562,5.65,0c1.563,1.562,1.563,4.091,0,5.651l-47.961,47.962C461.68,155.486,460.658,155.876,459.635,155.876z"
		/>
	<path style="fill:#3A3847;" d="M115.908,139.889H43.965c-1.616,0-3.076-0.972-3.692-2.467c-0.621-1.494-0.277-3.212,0.867-4.355
		l15.987-15.987c0.749-0.749,1.764-1.171,2.826-1.171h71.943c1.616,0,3.076,0.972,3.692,2.467c0.621,1.495,0.277,3.212-0.866,4.355
		l-15.987,15.987C117.984,139.468,116.969,139.889,115.908,139.889z M53.614,131.896h60.639l7.994-7.994h-60.64L53.614,131.896z"/>
	<path style="fill:#3A3847;" d="M443.649,139.889h-71.943c-1.617,0-3.076-0.972-3.693-2.467c-0.615-1.494-0.273-3.212,0.867-4.355
		l15.986-15.987c0.75-0.749,1.766-1.171,2.826-1.171h71.943c1.615,0,3.076,0.972,3.693,2.467c0.615,1.495,0.271,3.212-0.867,4.355
		l-15.988,15.987C445.725,139.468,444.709,139.889,443.649,139.889z M381.354,131.896h60.639l7.994-7.994h-60.639L381.354,131.896z"
		/>
	<path style="fill:#3A3847;" d="M155.876,107.914H51.959c-2.209,0-3.997-1.787-3.997-3.996c0-2.21,1.788-3.997,3.997-3.997h103.917
		c2.209,0,3.997,1.787,3.997,3.997C159.873,106.127,158.086,107.914,155.876,107.914z"/>
	<path style="fill:#3A3847;" d="M507.598,107.914H355.717c-2.209,0-3.996-1.787-3.996-3.996c0-2.21,1.787-3.997,3.996-3.997h151.881
		c2.209,0,3.996,1.787,3.996,3.997C511.594,106.127,509.807,107.914,507.598,107.914z"/>
	<path style="fill:#3A3847;" d="M171.863,131.896c-2.209,0-3.997-1.788-3.997-3.997v-23.98c0-2.21,1.788-3.997,3.997-3.997
		s3.997,1.787,3.997,3.997v23.98C175.86,130.108,174.073,131.896,171.863,131.896z"/>
	<path style="fill:#3A3847;" d="M187.851,131.896c-2.209,0-3.997-1.788-3.997-3.997v-23.98c0-2.21,1.788-3.997,3.997-3.997
		s3.997,1.787,3.997,3.997v23.98C191.847,130.108,190.06,131.896,187.851,131.896z"/>
	<path style="fill:#3A3847;" d="M323.742,131.896c-2.209,0-3.996-1.788-3.996-3.997v-23.98c0-2.21,1.787-3.997,3.996-3.997
		s3.998,1.787,3.998,3.997v23.98C327.74,130.108,325.951,131.896,323.742,131.896z"/>
	<path style="fill:#3A3847;" d="M339.731,131.896c-2.209,0-3.998-1.788-3.998-3.997v-23.98c0-2.21,1.789-3.997,3.998-3.997
		s3.996,1.787,3.996,3.997v23.98C343.727,130.108,341.94,131.896,339.731,131.896z"/>
	<path style="fill:#3A3847;" d="M339.731,99.921H171.863c-2.209,0-3.997-1.788-3.997-3.997s1.788-3.997,3.997-3.997H339.73
		c2.209,0,3.996,1.788,3.996,3.997S341.94,99.921,339.731,99.921z"/>
	<path style="fill:#3A3847;" d="M339.723,83.934c-0.594,0-1.203-0.137-1.781-0.422c-0.311-0.156-31.865-15.565-82.145-15.565
		s-81.837,15.409-82.149,15.565c-1.979,0.987-4.371,0.184-5.359-1.791c-0.984-1.976-0.183-4.372,1.788-5.359
		c1.339-0.671,33.419-16.409,85.721-16.409c52.303,0,84.379,15.738,85.721,16.409c1.975,0.987,2.771,3.384,1.787,5.359
		C342.604,83.122,341.19,83.934,339.723,83.934z"/>
	<path style="fill:#3A3847;" d="M171.863,99.921c-2.209,0-3.997-1.788-3.997-3.997V79.937c0-2.209,1.788-3.997,3.997-3.997
		s3.997,1.788,3.997,3.997v15.987C175.86,98.133,174.073,99.921,171.863,99.921z"/>
	<path style="fill:#3A3847;" d="M339.731,99.921c-2.209,0-3.998-1.788-3.998-3.997V79.937c0-2.209,1.789-3.997,3.998-3.997
		s3.996,1.788,3.996,3.997v15.987C343.727,98.133,341.94,99.921,339.731,99.921z"/>
	<path style="fill:#3A3847;" d="M451.641,211.832c-1.021,0-2.045-0.391-2.826-1.171l-47.961-47.962
		c-1.561-1.562-1.561-4.091,0-5.652c1.561-1.561,4.09-1.561,5.652,0l47.961,47.963c1.563,1.561,1.563,4.09,0,5.651
		C453.686,211.442,452.664,211.832,451.641,211.832z"/>
	<path style="fill:#3A3847;" d="M11.99,211.832c-1.023,0-2.045-0.391-2.826-1.171c-1.562-1.562-1.562-4.091,0-5.651l47.963-47.963
		c1.561-1.561,4.09-1.561,5.651,0c1.562,1.562,1.562,4.091,0,5.652l-47.962,47.962C14.036,211.442,13.013,211.832,11.99,211.832z"/>
	<path style="fill:#3A3847;" d="M403.68,443.649c-1.023,0-2.045-0.391-2.826-1.171c-1.561-1.562-1.561-4.091,0-5.652l47.961-47.962
		c1.563-1.562,4.092-1.562,5.652,0c1.563,1.562,1.563,4.091,0,5.652l-47.961,47.962C405.725,443.258,404.701,443.649,403.68,443.649
		z"/>
	<path style="fill:#3A3847;" d="M59.952,443.649c-1.023,0-2.045-0.391-2.826-1.171L9.165,394.516c-1.562-1.562-1.562-4.091,0-5.652
		c1.561-1.562,4.09-1.562,5.651,0l47.962,47.962c1.562,1.562,1.562,4.091,0,5.652C61.998,443.258,60.975,443.649,59.952,443.649z"/>
	<path style="fill:#3A3847;" d="M67.946,139.889c-1.022,0-2.045-0.39-2.826-1.171c-1.561-1.561-1.561-4.09,0-5.651l15.987-15.987
		c1.562-1.562,4.091-1.562,5.652,0s1.561,4.091,0,5.651l-15.987,15.987C69.991,139.499,68.968,139.889,67.946,139.889z"/>
	<path style="fill:#3A3847;" d="M91.927,139.889c-1.022,0-2.045-0.39-2.826-1.171c-1.562-1.561-1.562-4.09,0-5.651l15.987-15.987
		c1.561-1.562,4.09-1.562,5.651,0c1.562,1.562,1.562,4.091,0,5.651l-15.987,15.987C93.972,139.499,92.95,139.889,91.927,139.889z"/>
	<path style="fill:#3A3847;" d="M395.686,139.889c-1.023,0-2.045-0.39-2.826-1.171c-1.561-1.561-1.561-4.09,0-5.651l15.988-15.987
		c1.561-1.562,4.09-1.562,5.65,0c1.563,1.562,1.563,4.091,0,5.651l-15.986,15.987C397.731,139.499,396.709,139.889,395.686,139.889z
		"/>
	<path style="fill:#3A3847;" d="M419.666,139.889c-1.021,0-2.045-0.39-2.826-1.171c-1.561-1.561-1.561-4.09,0-5.651l15.988-15.987
		c1.561-1.562,4.09-1.562,5.652,0c1.561,1.562,1.561,4.091,0,5.651l-15.988,15.987C421.711,139.499,420.69,139.889,419.666,139.889z
		"/>
	<path style="fill:#3A3847;" d="M483.615,403.68c-2.209,0-3.996-1.787-3.996-3.997V151.88c0-2.21,1.787-3.997,3.996-3.997
		s3.998,1.787,3.998,3.997v247.803C487.613,401.893,485.824,403.68,483.615,403.68z"/>
	<path style="fill:#3A3847;" d="M95.923,339.715c-14.957,0-29.016-5.808-39.593-16.331c-21.752-21.85-21.752-57.368-0.012-79.202
		c10.589-10.543,24.648-16.343,39.605-16.343s29.017,5.8,39.594,16.331c21.752,21.846,21.752,57.364,0.012,79.198
		C124.94,333.907,110.88,339.715,95.923,339.715z M95.923,235.832c-12.829,0-24.886,4.973-33.949,14.005
		c-18.634,18.708-18.634,49.168,0.012,67.888c9.051,9.017,21.108,13.997,33.938,13.997s24.887-4.98,33.95-14.005
		c18.633-18.712,18.633-49.172-0.012-67.892C120.81,240.805,108.754,235.832,95.923,235.832z"/>
	<path style="fill:#3A3847;" d="M81.775,301.917c-1.026,0-2.049-0.391-2.83-1.171c-1.562-1.562-1.554-4.091,0.008-5.651
		l22.623-22.545c1.561-1.562,4.094-1.554,5.651,0.016c1.562,1.561,1.554,4.09-0.008,5.651l-22.622,22.537
		C83.816,301.526,82.794,301.917,81.775,301.917z"/>
	<path style="fill:#3A3847;" d="M104.398,279.294c-1.027,0-2.053-0.391-2.837-1.171c-1.554-1.577-1.546-4.106,0.02-5.659
		l11.35-11.272c1.561-1.554,4.086-1.55,5.656,0.02c1.553,1.569,1.546,4.095-0.02,5.655l-11.351,11.272
		C106.435,278.911,105.416,279.294,104.398,279.294z"/>
	<path style="fill:#3A3847;" d="M81.775,313.19c-2.209,0-3.997-1.78-3.997-3.997v-11.272c0-2.201,1.788-3.997,3.997-3.997
		s3.997,1.796,3.997,3.997v11.272C85.772,311.409,83.984,313.19,81.775,313.19z"/>
	<path style="fill:#3A3847;" d="M81.775,301.917H70.503c-2.209,0-3.997-1.78-3.997-3.997c0-2.201,1.788-3.997,3.997-3.997h11.272
		c2.209,0,3.997,1.796,3.997,3.997C85.772,300.137,83.984,301.917,81.775,301.917z"/>
	<path style="fill:#3A3847;" d="M104.398,313.19c-2.209,0-3.997-1.78-3.997-3.997v-33.809c0-2.21,1.787-4.036,3.997-4.036
		c2.209,0,3.997,1.748,3.997,3.95v33.895C108.394,311.409,106.607,313.19,104.398,313.19z"/>
	<path style="fill:#3A3847;" d="M104.398,279.294H70.503c-2.209,0-3.997-1.779-3.997-3.996c0-2.202,1.788-3.997,3.997-3.997h33.895
		c2.209,0,3.997,1.795,3.997,3.997C108.394,277.515,106.607,279.294,104.398,279.294z"/>
	<path style="fill:#3A3847;" d="M403.68,323.743h-79.938c-2.209,0-3.996-1.787-3.996-3.996V199.842c0-2.209,1.787-3.997,3.996-3.997
		h79.938c2.209,0,3.996,1.788,3.996,3.997v119.905C407.676,321.956,405.889,323.743,403.68,323.743z M327.74,315.75h71.941V203.838
		H327.74V315.75z"/>
	<path style="fill:#3A3847;" d="M387.692,299.763c-1.021,0-2.045-0.391-2.826-1.172l-5.166-5.167l-5.168,5.167
		c-1.563,1.562-4.092,1.562-5.652,0l-5.168-5.167l-5.168,5.167c-1.561,1.562-4.09,1.562-5.652,0l-5.166-5.167l-5.168,5.167
		c-1.563,1.562-4.092,1.562-5.652,0c-1.561-1.561-1.561-4.09,0-5.651l7.994-7.993c1.561-1.562,4.09-1.562,5.65,0l5.168,5.168
		l5.168-5.168c1.563-1.562,4.092-1.562,5.652,0l5.168,5.168l5.168-5.168c1.561-1.562,4.09-1.562,5.65,0l7.994,7.993
		c1.561,1.562,1.561,4.091,0,5.651C389.736,299.372,388.715,299.763,387.692,299.763z"/>
	<path style="fill:#3A3847;" d="M387.692,283.776c-1.021,0-2.045-0.391-2.826-1.171l-5.166-5.168l-5.168,5.168
		c-1.563,1.561-4.092,1.561-5.652,0l-5.168-5.168l-5.168,5.168c-1.561,1.561-4.09,1.561-5.652,0l-5.166-5.168l-5.168,5.168
		c-1.563,1.561-4.092,1.561-5.652,0c-1.561-1.562-1.561-4.091,0-5.652l7.994-7.993c1.561-1.562,4.09-1.562,5.65,0l5.168,5.167
		l5.168-5.167c1.563-1.562,4.092-1.562,5.652,0l5.168,5.167l5.168-5.167c1.561-1.562,4.09-1.562,5.65,0l7.994,7.993
		c1.561,1.562,1.561,4.091,0,5.652C389.736,283.385,388.715,283.776,387.692,283.776z"/>
	<path style="fill:#3A3847;" d="M347.725,235.813c-6.613,0-11.992-5.378-11.992-11.99c0-6.611,5.379-11.99,11.992-11.99
		c6.611,0,11.99,5.379,11.99,11.99C359.715,230.435,354.336,235.813,347.725,235.813z M347.725,219.825
		c-2.203,0-3.998,1.792-3.998,3.997s1.795,3.997,3.998,3.997c2.201,0,3.996-1.792,3.996-3.997S349.926,219.825,347.725,219.825z"/>
	<path style="fill:#3A3847;" d="M379.699,251.8c-1.023,0-2.047-0.39-2.826-1.171l-7.994-7.993c-1.561-1.562-1.561-4.091,0-5.651
		c1.561-1.562,4.09-1.562,5.652,0l7.992,7.993c1.563,1.562,1.563,4.091,0,5.651C381.744,251.41,380.721,251.8,379.699,251.8z"/>
	<path style="fill:#3A3847;" d="M379.699,251.8c-1.023,0-2.047-0.39-2.826-1.171c-1.563-1.561-1.563-4.09,0-5.651l7.992-7.993
		c1.563-1.562,4.092-1.562,5.652,0c1.561,1.561,1.561,4.09,0,5.651l-7.994,7.993C381.744,251.41,380.721,251.8,379.699,251.8z"/>
	<path style="fill:#3A3847;" d="M227.819,291.769c-1.022,0-2.045-0.391-2.826-1.171l-4.012-4.013l-5.133,2.404
		c-0.96,0.461-2.049,0.508-3.057,0.141c-0.999-0.359-1.811-1.093-2.26-2.061l-2.416-5.152l-5.616,0.484
		c-2.135,0.281-4.11-1.421-4.317-3.606l-0.538-5.699l-5.461-1.444c-2.135-0.569-3.407-2.755-2.841-4.887l1.448-5.476l-4.609-3.271
		c-1.784-1.266-2.221-3.729-0.979-5.527l3.231-4.688l-3.231-4.688c-1.241-1.8-0.804-4.263,0.979-5.527l4.609-3.271l-1.448-5.477
		c-0.566-2.135,0.707-4.32,2.841-4.887l5.461-1.444l0.538-5.698c0.211-2.182,2.198-3.81,4.317-3.606l5.616,0.479l2.416-5.151
		c0.449-0.961,1.261-1.702,2.26-2.062c1.003-0.358,2.096-0.315,3.057,0.141l5.133,2.408l4.012-4.012c1.561-1.562,4.09-1.562,5.652,0
		l4.012,4.012l5.133-2.408c0.968-0.452,2.069-0.495,3.056-0.141c0.999,0.359,1.811,1.101,2.26,2.062l2.416,5.151l5.617-0.479
		c2.096-0.242,4.109,1.417,4.316,3.603l0.539,5.647l5.496,1.507c2.111,0.582,3.367,2.76,2.807,4.879l-1.453,5.477l4.613,3.271
		c1.789,1.265,2.225,3.728,0.977,5.527l-3.232,4.688l3.232,4.688c1.248,1.799,0.813,4.262-0.977,5.527l-4.613,3.271l1.453,5.476
		c0.561,2.132-0.711,4.317-2.842,4.887l-5.461,1.444l-0.539,5.699c-0.203,2.186-2.095,3.896-4.316,3.606l-5.617-0.484l-2.416,5.152
		c-0.449,0.968-1.261,1.701-2.26,2.061c-0.995,0.359-2.096,0.313-3.056-0.141l-5.133-2.404l-4.012,4.013
		C229.864,291.378,228.841,291.769,227.819,291.769z M221.824,277.78c1.038,0,2.061,0.405,2.826,1.17l3.169,3.17l3.169-3.17
		c1.187-1.186,2.99-1.506,4.524-0.796l4.055,1.905l1.901-4.06c0.71-1.515,2.275-2.443,3.958-2.279l4.445,0.374l0.43-4.527
		c0.156-1.662,1.335-3.06,2.955-3.481l4.289-1.14l-1.135-4.289c-0.426-1.612,0.191-3.318,1.553-4.282l3.654-2.596l-2.557-3.708
		c-0.941-1.366-0.941-3.17,0-4.535l2.557-3.708l-3.654-2.596c-1.362-0.965-1.979-2.67-1.553-4.282l1.143-4.324l-4.332-1.187
		c-1.6-0.441-2.763-1.823-2.919-3.479l-0.426-4.453l-4.449,0.379c-1.683,0.137-3.248-0.773-3.958-2.283l-1.901-4.056l-4.055,1.9
		c-1.522,0.723-3.333,0.398-4.524-0.792l-3.169-3.169l-3.169,3.169c-1.19,1.183-3.006,1.503-4.524,0.792l-4.055-1.9l-1.901,4.056
		c-0.714,1.51-2.322,2.42-3.958,2.283l-4.446-0.379l-0.429,4.527c-0.156,1.667-1.335,3.061-2.955,3.49l-4.29,1.136l1.136,4.289
		c0.426,1.612-0.191,3.317-1.553,4.282l-3.653,2.596l2.557,3.708c0.941,1.365,0.941,3.169,0,4.535l-2.557,3.708l3.653,2.596
		c1.362,0.964,1.979,2.67,1.553,4.282l-1.136,4.289l4.29,1.14c1.62,0.422,2.798,1.819,2.955,3.481l0.429,4.527l4.446-0.374
		c1.635-0.164,3.244,0.765,3.958,2.279l1.901,4.06l4.055-1.905C220.669,277.905,221.25,277.78,221.824,277.78z"/>
	<path style="fill:#3A3847;" d="M227.819,267.788c-11.019,0-19.984-8.966-19.984-19.984c0-11.018,8.966-19.984,19.984-19.984
		s19.984,8.966,19.984,19.984C247.803,258.822,238.838,267.788,227.819,267.788z M227.819,235.813
		c-6.612,0-11.99,5.379-11.99,11.991c0,6.611,5.378,11.99,11.99,11.99s11.99-5.379,11.99-11.99
		C239.809,241.192,234.431,235.813,227.819,235.813z"/>
	<path style="fill:#3A3847;" d="M339.731,379.699c-0.453,0-0.914-0.078-1.367-0.242l-87.929-31.975
		c-2.073-0.757-3.146-3.045-2.389-5.121c0.753-2.068,3.048-3.146,5.121-2.389l87.93,31.975c2.076,0.757,3.146,3.044,2.389,5.121
		C342.899,378.693,341.361,379.699,339.731,379.699z"/>
	<path style="fill:#3A3847;" d="M251.8,411.674c-1.631,0-3.166-1.007-3.754-2.631c-0.758-2.077,0.316-4.364,2.389-5.121
		l87.929-31.975c2.076-0.749,4.373,0.32,5.121,2.389c0.758,2.076-0.313,4.364-2.389,5.121l-87.93,31.975
		C252.714,411.596,252.253,411.674,251.8,411.674z"/>
	<path style="fill:#3A3847;" d="M251.8,411.674c-2.209,0-3.997-1.788-3.997-3.997v-63.949c0-2.209,1.788-3.997,3.997-3.997
		s3.997,1.788,3.997,3.997v63.949C255.797,409.886,254.009,411.674,251.8,411.674z"/>
	<path style="fill:#3A3847;" d="M291.768,379.699h-23.98c-2.209,0-3.996-1.788-3.996-3.997s1.787-3.997,3.996-3.997h23.98
		c2.209,0,3.998,1.788,3.998,3.997S293.977,379.699,291.768,379.699z"/>
	<path style="fill:#3A3847;" d="M159.873,415.671c-1.022,0-2.045-0.391-2.826-1.172l-27.978-27.978
		c-1.561-1.562-1.561-4.091,0-5.651l27.978-27.979c1.561-1.561,4.09-1.561,5.652,0l27.978,27.979c1.562,1.561,1.562,4.09,0,5.651
		l-27.978,27.978C161.919,415.28,160.896,415.671,159.873,415.671z M137.547,383.696l22.326,22.325l22.326-22.325l-22.326-22.326
		L137.547,383.696z"/>
	<path style="fill:#3A3847;" d="M163.87,387.693h-7.994c-2.209,0-3.997-1.787-3.997-3.996c0-2.21,1.787-3.997,3.997-3.997h7.994
		c2.209,0,3.997,1.787,3.997,3.997C167.867,385.905,166.079,387.693,163.87,387.693z"/>
	<path style="fill:#3A3847;" d="M159.873,395.687c-2.209,0-3.997-1.788-3.997-3.997v-15.987c0-2.209,1.788-3.997,3.997-3.997
		s3.997,1.788,3.997,3.997v15.987C163.87,393.899,162.082,395.687,159.873,395.687z"/>
</g>
<g>
</g>
<g>
</g>
<g>
</g>
<g>
</g>
<g>
</g>
<g>
</g>
<g>
</g>
<g>
</g>
<g>
</g>
<g>
</g>
<g>
</g>
<g>
</g>
<g>
</g>
<g>
</g>
<g>
</g>
</svg>
