<?xml version="1.0" encoding="utf-8"?>
<!-- Generator: Adobe Illustrator 16.0.0, SVG Export Plug-In . SVG Version: 6.00 Build 0)  -->
<!DOCTYPE svg PUBLIC "-//W3C//DTD SVG 1.1//EN" "http://www.w3.org/Graphics/SVG/1.1/DTD/svg11.dtd">
<svg version="1.1" id="图层_1" xmlns="http://www.w3.org/2000/svg" xmlns:xlink="http://www.w3.org/1999/xlink" x="0px" y="0px"
	 width="677.26px" height="677.26px" viewBox="0 0 677.26 677.26" enable-background="new 0 0 677.26 677.26" xml:space="preserve">
<g>
	<path fill="#ED2D24" d="M196.083-0.001v332.379H74.29C-31.139,242.603,1.434-0.001,167.527-0.001H196.083z"/>
	<g>
		<polygon fill="#F4EA1A" points="178.687,332.373 157.417,526.761 196.083,526.761 196.083,332.373 		"/>
		<polygon fill="#FBBB1F" points="213.479,332.373 234.747,526.761 196.083,526.761 196.083,332.373 		"/>
	</g>
	<path fill="#CA2027" d="M319.356,332.378H196.083V-0.001h29.304C387.212-0.001,424.553,242.583,319.356,332.378z"/>
	<path fill="#383838" d="M74.29,332.378c0,0,98.982,49.476,95.781,78.75l8.616-78.754L74.29,332.378z"/>
	<path fill="#383838" d="M319.356,332.378c0,0-100.461,49.476-97.259,78.75l-8.618-78.754L319.356,332.378z"/>
	<circle fill="#CA2027" cx="90.939" cy="63.393" r="13.917"/>
	<path fill="#CA2027" d="M104.856,101.849c0,7.688-6.231,13.921-13.917,13.921c-7.685,0-13.917-6.233-13.917-13.921
		c0-7.686,6.232-13.914,13.917-13.914C98.625,87.936,104.856,94.164,104.856,101.849z"/>
	<circle fill="#CA2027" cx="90.939" cy="140.308" r="13.917"/>
	<path fill="#CA2027" d="M104.856,178.767c0,7.688-6.231,13.921-13.917,13.921c-7.685,0-13.917-6.233-13.917-13.921
		c0-7.685,6.232-13.914,13.917-13.914C98.625,164.854,104.856,171.082,104.856,178.767z"/>
	<circle fill="#CA2027" cx="90.939" cy="217.226" r="13.917"/>
	<circle fill="#CA2027" cx="90.939" cy="255.688" r="13.917"/>
	<circle fill="#CA2027" cx="90.939" cy="294.144" r="13.917"/>
	<circle fill="#CA2027" cx="157.417" cy="63.393" r="13.917"/>
	<path fill="#CA2027" d="M171.334,101.849c0,7.688-6.23,13.921-13.917,13.921c-7.685,0-13.917-6.233-13.917-13.921
		c0-7.686,6.232-13.914,13.917-13.914C165.104,87.936,171.334,94.164,171.334,101.849z"/>
	<circle fill="#CA2027" cx="157.417" cy="140.308" r="13.917"/>
	<path fill="#CA2027" d="M171.334,178.767c0,7.688-6.23,13.921-13.917,13.921c-7.685,0-13.917-6.233-13.917-13.921
		c0-7.685,6.232-13.914,13.917-13.914C165.104,164.854,171.334,171.082,171.334,178.767z"/>
	<circle fill="#CA2027" cx="157.417" cy="217.226" r="13.917"/>
	<circle fill="#CA2027" cx="157.417" cy="255.688" r="13.917"/>
	<circle fill="#CA2027" cx="157.417" cy="294.144" r="13.917"/>
	<path fill="#5E5E5C" d="M559.644,189.948L409.341,486.404l-108.628-55.075c-53.438-127.746,85.32-329.402,233.463-254.293
		L559.644,189.948z"/>
	<g>
		<polygon fill="#F4EA1A" points="393.828,478.531 286.958,642.292 321.444,659.777 409.345,486.398 		"/>
		<polygon fill="#FBBB1F" points="424.863,494.265 355.93,677.261 321.444,659.777 409.345,486.398 		"/>
	</g>
	<path fill="#383838" d="M519.292,542.147l-109.951-55.743l150.302-296.456l26.136,13.25
		C730.114,276.375,653.725,509.626,519.292,542.147z"/>
	<path fill="#383838" d="M300.713,431.329c0,0,65.911,88.886,49.82,113.548l43.295-66.346L300.713,431.329z"/>
	<path fill="#101010" d="M519.292,542.147c0,0-111.976-1.3-122.356,26.255l27.927-74.137L519.292,542.147z"/>
	<circle fill="#383838" cx="437.197" cy="198.943" r="13.917"/>
	<circle fill="#383838" cx="419.806" cy="233.245" r="13.917"/>
	<circle fill="#383838" cx="402.415" cy="267.547" r="13.917"/>
	<path fill="#383838" d="M397.438,308.142c-3.477,6.857-11.851,9.594-18.707,6.121c-6.855-3.476-9.597-11.85-6.118-18.707
		c3.473-6.854,11.85-9.594,18.706-6.119C398.174,292.911,400.914,301.29,397.438,308.142z"/>
	<path fill="#383838" d="M380.046,342.446c-3.476,6.857-11.85,9.594-18.705,6.116c-6.854-3.473-9.597-11.847-6.12-18.702
		c3.476-6.857,11.852-9.597,18.706-6.123C380.783,327.213,383.522,335.589,380.046,342.446z"/>
	<path fill="#383838" d="M362.655,376.748c-3.476,6.854-11.851,9.597-18.707,6.121c-6.854-3.479-9.595-11.853-6.12-18.709
		c3.477-6.854,11.851-9.594,18.706-6.121C363.393,361.517,366.131,369.892,362.655,376.748z"/>
	<path fill="#383838" d="M345.267,411.05c-3.478,6.857-11.851,9.597-18.707,6.119c-6.855-3.476-9.597-11.847-6.121-18.709
		c3.476-6.852,11.852-9.594,18.706-6.118C346,395.822,348.74,404.193,345.267,411.05z"/>
	<path fill="#383838" d="M508.903,235.296c-3.476,6.854-11.851,9.597-18.707,6.124c-6.854-3.476-9.595-11.855-6.119-18.707
		c3.477-6.857,11.851-9.594,18.705-6.118C509.641,220.068,512.379,228.442,508.903,235.296z"/>
	<path fill="#383838" d="M491.514,269.601c-3.479,6.854-11.853,9.594-18.707,6.118c-6.857-3.473-9.597-11.847-6.121-18.707
		c3.476-6.852,11.851-9.594,18.706-6.118C492.248,254.37,494.987,262.747,491.514,269.601z"/>
	<circle fill="#383838" cx="461.708" cy="297.609" r="13.917"/>
	<path fill="#383838" d="M456.73,338.205c-3.476,6.859-11.85,9.596-18.707,6.121c-6.854-3.479-9.596-11.85-6.12-18.709
		c3.476-6.854,11.853-9.594,18.706-6.118C457.467,322.974,460.205,331.348,456.73,338.205z"/>
	<circle fill="#383838" cx="426.926" cy="366.213" r="13.917"/>
	<circle fill="#383838" cx="409.537" cy="400.514" r="13.918"/>
	<path fill="#383838" d="M404.559,441.107c-3.479,6.859-11.851,9.597-18.708,6.121c-6.853-3.473-9.595-11.847-6.118-18.707
		c3.475-6.852,11.85-9.594,18.706-6.118C405.295,425.879,408.034,434.256,404.559,441.107z"/>
	<path fill="#EFEFED" d="M587.201,440.746c-11.681,23.041-39.824,32.246-62.863,20.568c-23.04-11.683-32.247-39.829-20.566-62.867
		c11.681-23.036,39.826-32.243,62.864-20.563C589.674,389.561,598.881,417.707,587.201,440.746z"/>
</g>
</svg>
