<?xml version="1.0" encoding="utf-8"?>
<!-- Generator: Adobe Illustrator 16.0.0, SVG Export Plug-In . SVG Version: 6.00 Build 0)  -->
<!DOCTYPE svg PUBLIC "-//W3C//DTD SVG 1.1//EN" "http://www.w3.org/Graphics/SVG/1.1/DTD/svg11.dtd">
<svg version="1.1" id="图层_1" xmlns="http://www.w3.org/2000/svg" xmlns:xlink="http://www.w3.org/1999/xlink" x="0px" y="0px"
	 width="851.72px" height="851.72px" viewBox="0 0 851.72 851.72" enable-background="new 0 0 851.72 851.72" xml:space="preserve">
<g>
	<g>
		<g>
			<g>
				
					<rect x="298.677" y="327.323" transform="matrix(0.8772 0.4802 -0.4802 0.8772 213.8815 -174.8903)" fill="#9FA1A1" width="300.236" height="6.604"/>
			</g>
			<g>
				
					<rect x="305.19" y="288.001" transform="matrix(0.8772 0.4802 -0.4802 0.8772 197.4337 -189.2187)" fill="#9FA1A1" width="326.773" height="6.614"/>
			</g>
			<g>
				
					<rect x="321.544" y="251.752" transform="matrix(0.8772 0.4802 -0.4802 0.8772 183.1367 -205.8466)" fill="#9FA1A1" width="344.77" height="6.59"/>
			</g>
			<g>
				
					<rect x="342.667" y="213.151" transform="matrix(0.8772 0.4802 -0.4802 0.8772 167.2019 -220.7295)" fill="#9FA1A1" width="344.772" height="6.615"/>
			</g>
			<g>
				
					<rect x="367.705" y="175.586" transform="matrix(0.8772 0.4802 -0.4802 0.8772 151.9742 -236.3659)" fill="#9FA1A1" width="340.598" height="6.58"/>
			</g>
			<g>
				<g>
					
						<rect x="404.285" y="134.4" transform="matrix(0.8772 0.4802 -0.4802 0.8772 134.2206 -249.2978)" fill="#9FA1A1" width="300.235" height="6.614"/>
				</g>
			</g>
			<g>
				<g>
					
						<rect x="438.785" y="95.308" transform="matrix(0.8772 0.4802 -0.4802 0.8772 117.924 -263.7932)" fill="#9FA1A1" width="271.6" height="6.591"/>
				</g>
			</g>
		</g>
		<g>
			<g>
				
					<rect x="382.793" y="15.44" transform="matrix(0.8772 0.48 -0.48 0.8772 123.4296 -165.8928)" fill="#9FA1A1" width="6.591" height="285.917"/>
			</g>
			<g>
				
					<rect x="410.487" y="-9.155" transform="matrix(0.8771 0.4802 -0.4802 0.8771 137.7919 -176.4589)" fill="#9FA1A1" width="6.59" height="380.475"/>
			</g>
			<g>
				
					<rect x="443.457" y="-8.21" transform="matrix(0.8771 0.4803 -0.4803 0.8771 148.1258 -190.7057)" fill="#9FA1A1" width="6.592" height="404.668"/>
			</g>
			<g>
				
					<rect x="472.74" y="-8.213" transform="matrix(0.8772 0.4801 -0.4801 0.8772 161.1477 -202.2806)" fill="#9FA1A1" width="6.603" height="444.247"/>
			</g>
			<g>
				
					<rect x="503.619" y="8.689" transform="matrix(0.8772 0.4801 -0.4801 0.8772 173.038 -215.0173)" fill="#9FA1A1" width="6.597" height="444.248"/>
			</g>
			<g>
				
					<rect x="534.487" y="25.586" transform="matrix(0.8772 0.4802 -0.4802 0.8772 184.9985 -227.8043)" fill="#9FA1A1" width="6.592" height="444.247"/>
			</g>
			<g>
				
					<rect x="565.348" y="58.976" transform="matrix(0.8772 0.4802 -0.4802 0.8772 196.9203 -240.5607)" fill="#9FA1A1" width="6.592" height="411.261"/>
			</g>
			<g>
				
					<rect x="600.698" y="93.511" transform="matrix(0.8771 0.4803 -0.4803 0.8771 205.489 -256.5071)" fill="#9FA1A1" width="6.605" height="359.588"/>
			</g>
			<g>
				
					<rect x="629.717" y="150.615" transform="matrix(0.8772 0.4802 -0.4802 0.8772 218.7102 -267.8955)" fill="#9FA1A1" width="6.607" height="285.917"/>
			</g>
		</g>
	</g>
	<g>
		<g>
			<path fill="#E33326" d="M620.727,22.967C437.345-77.417,276.748,174.09,318.187,336.412
				c5.997,23.496,21.872,133.931-25.205,215.927l58.35,31.943c42.932-81.007,141.407-129.083,168.126-138.006
				C678.157,393.312,804.708,123.683,620.727,22.967L620.727,22.967z M362.282,526.823c-4.744,5.872-12.954,7.584-19.572,3.962
				c-6.636-3.635-9.598-11.461-7.206-18.621c7.741-23.189,13.191-49.791,12.886-93.93c-0.052-6.745,7.96-10.069,12.807-5.388
				c18.98,18.35,43.976,32.439,70.814,38.699c6.646,1.557,8.172,10.195,2.41,13.822
				C408.188,481.901,382.484,501.775,362.282,526.823z M527.205,419.845c-42.812,16.846-85.968,15.386-121.507-4.07
				c-35.566-19.469-60.038-55.027-68.919-100.171C318.252,221.494,385.063,72.769,483.8,33.877
				c41.134-16.194,83.298-12.741,125.332,10.269c42.11,23.052,67.765,56.619,76.229,99.793
				C705.716,247.638,616.952,384.535,527.205,419.845L527.205,419.845z"/>
		</g>
	</g>
	<path fill="#262628" d="M331.147,630.884c4.533,2.484,10.824-0.292,14.072-6.225l12.545-22.916
		c3.241-5.922,2.2-12.736-2.336-15.219l-66.529-36.42c-4.533-2.481-10.844,0.309-14.088,6.23l-12.543,22.915
		c-3.248,5.933-2.186,12.733,2.347,15.216l2.638,1.443l-96.103,175.559l-2.638-1.444c-4.533-2.481-10.851,0.317-14.088,6.231
		l-12.543,22.914c-3.248,5.934-2.191,12.743,2.342,15.225l66.529,36.42c4.536,2.482,10.831-0.302,14.079-6.235l12.545-22.915
		c3.237-5.914,2.2-12.737-2.335-15.221l-2.643-1.447l96.103-175.558L331.147,630.884z"/>
	
		<rect x="210.78" y="699.401" transform="matrix(0.8772 0.4802 -0.4802 0.8772 370.1376 -31.0137)" fill="#D0CC29" width="69.825" height="17.215"/>
	
		<rect x="193.101" y="731.695" transform="matrix(0.8772 0.4802 -0.4802 0.8772 383.4911 -18.5554)" fill="#D0CC29" width="69.825" height="17.212"/>
</g>
</svg>
