<?xml version="1.0" encoding="utf-8"?>
<!-- Generator: Adobe Illustrator 16.0.0, SVG Export Plug-In . SVG Version: 6.00 Build 0)  -->
<!DOCTYPE svg PUBLIC "-//W3C//DTD SVG 1.1//EN" "http://www.w3.org/Graphics/SVG/1.1/DTD/svg11.dtd">
<svg version="1.1" xmlns="http://www.w3.org/2000/svg" xmlns:xlink="http://www.w3.org/1999/xlink" x="0px" y="0px"
	 width="96.55px" height="96.55px" viewBox="0 0 96.55 96.55" enable-background="new 0 0 96.55 96.55" xml:space="preserve">
<g>
	<path fill="#ED1C24" d="M96.153,53.066C92.131,75.113,74.166,93.46,48.278,93.48h-0.041c-27.352,0-44.19-18.319-47.917-40.415
		c-2.879-17.072,14.19-34.924,28.273-34.632c4.473,0.088,11.376,2.123,16.707,2.731c0.041,0.007,0.082,0.014,0.123,0.014
		c7.551,0.984,14.344-3.038,20.417-3.038C79.291,18.142,99.65,33.903,96.153,53.066z"/>
	<path fill="#D10D2A" d="M47.577,21.296c-0.713-0.01-1.427-0.022-2.154-0.117c-0.041,0-0.082-0.007-0.123-0.014
		c-5.332-0.608-12.234-2.643-16.707-2.731C14.51,18.142-2.559,35.994,0.32,53.066C4.016,74.98,20.623,93.155,47.577,93.453V21.296z"
		/>
	<path fill="#009444" d="M62.888,6.546c-0.444-0.237-2.887,4.6-8.423,9.205c-1.27,1.058-2.268,2.055-3.093,2.993
		c0.345-1.5-0.087-3.115-0.49-4.496c-0.097-0.332-3.025-11.179-3.311-11.179c-0.527,0-0.184,5.282-1.994,11.679
		c-0.473,1.673-0.625,3.139-0.932,4.443c-0.874-1.059-2.016-2.214-3.489-3.439c-5.539-4.608-7.979-9.442-8.425-9.206
		c-0.192,0.101,5.164,15.954,7.327,17.65c2.092,1.823,15.387,3.493,18.004-2.126C58.151,21.88,63.093,6.656,62.888,6.546z"/>
	<path fill="#FFC5C5" d="M69.536,34.909c1.75,0.81,16.485,4.246,17.039,9.454c-0.664-6.244-5.136-15.939-13.15-17.708
		C67.539,25.356,62.597,31.696,69.536,34.909z"/>
</g>
</svg>
