<?xml version="1.0" encoding="utf-8"?>
<!-- Generator: Adobe Illustrator 16.0.0, SVG Export Plug-In . SVG Version: 6.00 Build 0)  -->
<!DOCTYPE svg PUBLIC "-//W3C//DTD SVG 1.1//EN" "http://www.w3.org/Graphics/SVG/1.1/DTD/svg11.dtd">
<svg version="1.1" id="图层_1" xmlns="http://www.w3.org/2000/svg" xmlns:xlink="http://www.w3.org/1999/xlink" x="0px" y="0px"
	 width="650px" height="650.101px" viewBox="0 0 650 650.101" enable-background="new 0 0 650 650.101" xml:space="preserve">
<g>
	<path fill="#54A8DB" d="M610.604,169.886c-38.532,18.854-76.29,33.398-112.011,44.619c-42.665,13.457-82.648,22.311-124.312,28.756
		c-0.129,0.027-0.233,0.027-0.361,0.052c-76.212,11.478-126.325,7.944-126.325,7.944c-67.753,210.403,15.475,303.174,158.28,388.517
		c-47.946,12.276-95.582,13.231-140.485,4.797C-6.39,549.531,103.769,229.122,80.674,110.722C140.921,41.95,228.734,0,324.968,0
		C446.434,0,554.655,67.004,610.604,169.886z"/>
	<path fill="#FDD900" d="M248.059,640.831C108.684,606.657,0,481.287,0,324.968C0,228.87,41.704,142.521,108.013,83.021
		c19.188,14.081,39.848,31.517,60.171,52.795c-42.556,76.47-60.481,171.019-44.335,268.742
		C139.865,501.456,185.824,583.007,248.059,640.831z"/>
	<path fill="#ED2424" d="M405.875,639.773c-54.161,13.876-107.962,13.308-157.815,1.058
		c-140.595-94.9-219.689-315.78-79.875-505.015c28.938,30.253,57.153,68.294,79.411,115.44
		C179.841,461.66,263.069,554.431,405.875,639.773z"/>
	<path fill="#FDD900" d="M620.713,459.288c-135.12,44.645-259.407,63.367-349.107,70.977
		c-31.956-41.704-49.648-90.914-47.843-154.05c95.195-4.901,252.624-22.929,424.676-83.745
		C654.139,350.062,644.081,407.653,620.713,459.288z"/>
	<path fill="#D31F26" d="M620.713,459.288c-38.687,85.445-113.918,154.616-214.839,180.485
		c-55.581-33.219-102.133-67.546-134.269-109.509C361.307,522.655,485.594,503.933,620.713,459.288z"/>
	<path fill="#00AE80" d="M610.604,169.886c-38.532,18.854-76.29,33.398-112.011,44.619c-45.779,14.416-88.231,23.34-124.674,28.808
		c-76.212,11.478-126.325,7.944-126.325,7.944c-15.191,47.146-22.774,88.386-23.832,124.958
		c95.195-4.901,252.624-22.929,424.676-83.745C644.364,250.87,632.036,209.243,610.604,169.886z"/>
	<path fill="#ED2424" d="M498.593,214.505c-43.876,13.84-83.79,22.487-124.312,28.756c-0.129,0.027-0.233,0.027-0.361,0.052
		C342.3,169.499,312.665,92.538,221.133,16.944C253.732,5.958,288.68,0,324.968,0c13.927,0,27.648,0.876,41.085,2.579
		C409.253,51.118,466.947,154.771,498.593,214.505z"/>
</g>
</svg>
