<?xml version="1.0" encoding="utf-8"?>
<!-- Generator: Adobe Illustrator 16.0.0, SVG Export Plug-In . SVG Version: 6.00 Build 0)  -->
<!DOCTYPE svg PUBLIC "-//W3C//DTD SVG 1.1//EN" "http://www.w3.org/Graphics/SVG/1.1/DTD/svg11.dtd">
<svg version="1.1" xmlns="http://www.w3.org/2000/svg" xmlns:xlink="http://www.w3.org/1999/xlink" x="0px" y="0px"
	 width="108.594px" height="108.594px" viewBox="0 0 108.594 108.594" enable-background="new 0 0 108.594 108.594"
	 xml:space="preserve">
<g>
	<g>
		<g>
			<circle fill="#E7DA51" cx="54.298" cy="54.297" r="54.297"/>
		</g>
	</g>
	<path fill="#2160B7" d="M96.897,47.74c-6.844-12.313-14.842-19.373-20.359-23.149c6.628-6.316,12.078-7.728,12.335-7.792
		c1.184-0.262,2.178-0.901,2.918-1.751c-2.979-2.847-6.193-5.297-9.59-7.335c-4.311,1.93-11.254,6.045-18.163,14.405
		c-0.09,0.091-0.162,0.198-0.246,0.296c-1.009,1.236-2.017,2.53-3.015,3.956c-7.162,10.233-10.023,18.128-11.167,22.877
		c-4.059-0.01-11.456-0.922-20.737-6.08c0.899-4.309,3.365-12.581,9.977-22.03C48.131,7.876,57.68,5.404,58.022,5.319
		c2.342-0.518,3.972-2.476,4.217-4.735c-6.398-0.941-12.93-0.727-19.27,0.62c-4.065,3.035-8.65,7.408-13.044,13.686
		c-5.996,8.568-9.096,16.367-10.707,21.99c-6.545-5.041-8.751-8.797-8.863-8.994c-0.511-0.977-1.28-1.733-2.18-2.232
		C6.05,29.07,4.324,32.666,3.029,36.38c2.935,3.727,8.994,9.887,20.546,16.308c11.164,6.205,20.504,7.436,26.163,7.436
		c1.286,0,2.376-0.064,3.259-0.147c2.585,1.95,8.405,7.35,12.562,18.607c-8.721,1.594-26.518,3.118-41.999-6.462
		C9.336,63.319,4.765,56.571,4.612,56.339c-1.032-1.638-2.795-2.525-4.601-2.532c-0.048,5.398,0.696,10.801,2.247,16.018
		c3.479,3.202,8.487,7.18,15.568,11.562c11.822,7.313,24.439,9.323,34.745,9.323c6.571,0,12.188-0.817,16.069-1.6
		c1.957,9.104,1.004,13.887,0.953,14.118c-0.268,1.075-0.194,2.157,0.15,3.131c3.781-1.118,7.458-2.671,10.97-4.629
		c0.232-4.075-0.074-11.024-2.916-20.773c-0.008-0.024-0.008-0.049-0.016-0.074c-0.005-0.015-0.014-0.028-0.019-0.042
		c-0.463-1.58-0.969-3.208-1.573-4.934C71.49,62.481,64.378,55.17,60.216,51.817c0.823-3.404,3.089-9.958,9.252-18.852
		c4.235,2.731,11.582,8.69,17.904,20.067c9.418,16.948,8.391,27.76,8.359,28.06c-0.277,2.129,0.73,4.123,2.416,5.235
		c3.379-4.614,5.926-9.643,7.666-14.882C104.711,65.481,102.258,57.39,96.897,47.74z"/>
</g>
</svg>
