<?xml version="1.0" encoding="utf-8"?>
<!-- Generator: Adobe Illustrator 16.0.0, SVG Export Plug-In . SVG Version: 6.00 Build 0)  -->
<!DOCTYPE svg PUBLIC "-//W3C//DTD SVG 1.1//EN" "http://www.w3.org/Graphics/SVG/1.1/DTD/svg11.dtd">
<svg version="1.1" id="图层_1" xmlns="http://www.w3.org/2000/svg" xmlns:xlink="http://www.w3.org/1999/xlink" x="0px" y="0px"
	 width="70.08px" height="70.08px" viewBox="0 0 70.08 70.08" enable-background="new 0 0 70.08 70.08" xml:space="preserve">
<g>
	<path fill="#50720F" d="M67.639,21.025c0,18.004-14.595,32.599-32.598,32.599c-18.003,0-32.599-14.595-32.599-32.599v-0.002H0
		v0.002c0,19.352,15.688,35.039,35.041,35.039c19.351,0,35.039-15.688,35.039-35.039v-0.002h-2.44V21.025z"/>
	<path fill="#D4D69E" d="M35.041,53.624c18.003,0,32.598-14.595,32.598-32.599v-0.002h-3.784v0.002
		c0,15.914-12.901,28.814-28.814,28.814c-15.913,0-28.815-12.9-28.815-28.814v-0.002H2.442v0.002
		C2.442,39.029,17.038,53.624,35.041,53.624z"/>
	<path fill="#E50C0B" d="M35.041,49.839c15.913,0,28.814-12.9,28.814-28.814v-0.002H6.226v0.002
		C6.226,36.939,19.128,49.839,35.041,49.839z"/>
	<path fill="#300E02" d="M35.024,40.019c0.294-0.002,1.576,1.068,1.582,2.398c0.004,1.32-0.514,2.398-1.543,2.418
		c-0.006,0.002-0.014,0-0.022,0.002c-1.041,0.008-1.575-1.066-1.581-2.396C33.455,41.109,34.728,40.021,35.024,40.019z"/>
	<path fill="#300E02" d="M40.894,39.094c0.281-0.093,1.831,0.528,2.245,1.794c0.412,1.254,0.255,2.438-0.719,2.774
		c-0.005,0.005-0.014,0.005-0.021,0.01c-0.988,0.329-1.829-0.528-2.244-1.793C39.738,40.617,40.613,39.189,40.894,39.094z"/>
	<path fill="#300E02" d="M46.191,36.402c0.238-0.177,1.904-0.064,2.689,1.011c0.781,1.065,0.995,2.239,0.174,2.862
		c-0.004,0.008-0.012,0.01-0.017,0.016c-0.838,0.617-1.903,0.061-2.688-1.013C45.562,38.205,45.953,36.578,46.191,36.402z"/>
	<path fill="#300E02" d="M50.396,32.203c0.173-0.24,1.792-0.649,2.872,0.131c1.071,0.772,1.637,1.824,1.049,2.67
		c0,0.008-0.007,0.012-0.012,0.019c-0.605,0.847-1.79,0.646-2.869-0.132C50.355,34.113,50.225,32.445,50.396,32.203z"/>
	<path fill="#300E02" d="M53.099,26.911c0.09-0.284,1.503-1.171,2.771-0.763c1.258,0.402,2.122,1.227,1.823,2.214
		c0.001,0.009-0.004,0.014-0.005,0.022c-0.313,0.991-1.502,1.168-2.769,0.761C53.65,28.74,53.009,27.193,53.099,26.911z"/>
	<path fill="#300E02" d="M16.971,26.876c0.095,0.282-0.526,1.831-1.792,2.247c-1.254,0.411-2.436,0.255-2.775-0.721
		c-0.007-0.005-0.005-0.013-0.01-0.021c-0.33-0.984,0.527-1.826,1.792-2.242C15.449,25.72,16.878,26.595,16.971,26.876z"/>
	<path fill="#300E02" d="M19.663,32.175c0.178,0.238,0.065,1.903-1.009,2.689c-1.066,0.779-2.238,0.996-2.862,0.174
		c-0.008-0.004-0.009-0.012-0.015-0.018c-0.619-0.834-0.063-1.9,1.01-2.686C17.859,31.545,19.489,31.935,19.663,32.175z"/>
	<path fill="#300E02" d="M23.861,36.382c0.243,0.171,0.652,1.789-0.128,2.869c-0.772,1.07-1.821,1.638-2.668,1.049
		c-0.009,0-0.011-0.006-0.018-0.012c-0.848-0.603-0.649-1.787,0.129-2.867C21.951,36.339,23.622,36.207,23.861,36.382z"/>
	<path fill="#300E02" d="M29.154,39.083c0.284,0.089,1.172,1.502,0.765,2.77c-0.404,1.259-1.226,2.121-2.214,1.823
		c-0.009,0.001-0.013-0.004-0.021-0.005c-0.993-0.311-1.168-1.5-0.764-2.768C27.324,39.634,28.873,38.992,29.154,39.083z"/>
	<path fill="#300E02" d="M40.07,28.792c0.24-0.081,1.572,0.454,1.929,1.54c0.354,1.078,0.218,2.096-0.617,2.386
		c-0.005,0.005-0.013,0.005-0.019,0.008c-0.848,0.283-1.571-0.454-1.927-1.54C39.076,30.099,39.829,28.872,40.07,28.792z"/>
	<path fill="#300E02" d="M48.235,22.871c0.148-0.208,1.54-0.559,2.467,0.111c0.92,0.664,1.407,1.566,0.902,2.295
		c0,0.006-0.007,0.01-0.009,0.016c-0.521,0.727-1.538,0.557-2.466-0.111C48.2,24.511,48.087,23.078,48.235,22.871z"/>
	<path fill="#300E02" d="M21.826,22.847c0.153,0.205,0.056,1.635-0.866,2.311c-0.917,0.669-1.925,0.855-2.461,0.147
		c-0.006-0.001-0.007-0.009-0.011-0.014c-0.533-0.718-0.055-1.633,0.866-2.308C20.276,22.305,21.677,22.64,21.826,22.847z"/>
	<path fill="#300E02" d="M29.981,28.784c0.245,0.077,1.007,1.29,0.658,2.378c-0.347,1.081-1.055,1.824-1.903,1.567
		c-0.008,0.001-0.011-0.004-0.019-0.005c-0.851-0.268-1.002-1.289-0.655-2.377C28.409,29.255,29.74,28.704,29.981,28.784z"/>
</g>
</svg>
