<?xml version="1.0" encoding="utf-8"?>
<!-- Generator: Adobe Illustrator 16.0.0, SVG Export Plug-In . SVG Version: 6.00 Build 0)  -->
<!DOCTYPE svg PUBLIC "-//W3C//DTD SVG 1.1//EN" "http://www.w3.org/Graphics/SVG/1.1/DTD/svg11.dtd">
<svg version="1.1" xmlns="http://www.w3.org/2000/svg" xmlns:xlink="http://www.w3.org/1999/xlink" x="0px" y="0px"
	 width="88.459px" height="88.46px" viewBox="0 0 88.459 88.46" enable-background="new 0 0 88.459 88.46" xml:space="preserve">
<g>
	<path display="none" fill="#FFFFFF" d="M45.142-7.466c-0.294-0.026-0.597-0.039-0.912-0.034c-0.305-0.005-0.6,0.006-0.886,0.03
		C21.859-6.781,2.983,6.624-4.482,26.891c-7.433,20.178-0.656,43.949,16.054,57.376c16.839,13.532,40.929,15.562,59.5,4.171
		c18.54-11.37,27.873-33.169,23.851-54.438C90.423,10.208,68.883-6.68,45.142-7.466z"/>
	<g>
		<g>
			<circle fill="#B0E2F1" cx="44.23" cy="44.23" r="42.829"/>
			<g>
				<path fill="#FDFAF3" d="M65.771,11.898c-5.962-3.984-12.823-6.209-20.01-6.485c-0.84-0.032-1.53,0.661-1.53,1.501v0.001
					c0,0.816,0.653,1.466,1.468,1.498c6.593,0.264,12.886,2.303,18.36,5.949c0.68,0.452,1.589,0.311,2.068-0.35l0.001-0.001
					C66.621,13.332,66.47,12.365,65.771,11.898z"/>
				<path fill="#FDFAF3" d="M31.553,9.124c-0.293-0.812-1.205-1.197-2.005-0.87C15.52,13.984,6.039,27.493,5.417,42.641
					c-0.036,0.863,0.636,1.59,1.5,1.59c0.816,0,1.464-0.652,1.498-1.468c0.575-13.978,9.323-26.443,22.268-31.73
					C31.438,10.724,31.831,9.892,31.553,9.124L31.553,9.124z"/>
			</g>
			<path fill="#462B17" d="M44.229,88.46C19.841,88.46,0,68.619,0,44.23S19.841,0,44.229,0c24.389,0,44.229,19.842,44.229,44.23
				S68.618,88.46,44.229,88.46z M44.229,2.803c-22.843,0-41.427,18.585-41.427,41.428s18.584,41.427,41.427,41.427
				S85.656,67.073,85.656,44.23S67.072,2.803,44.229,2.803z"/>
		</g>
		<g>
			<g>
				<path fill="#462B17" d="M44.23,24.537c-10.779,0-22.091-2.524-31.651-7.504l2.295-2.486c9.156,4.769,19.032,7.188,29.355,7.188
					c10.322,0,20.199-2.419,29.354-7.188l2.149,2.158C66.175,21.685,55.009,24.537,44.23,24.537z"/>
			</g>
			<g>
				<path fill="#462B17" d="M44.23,74.88c-14.464,0-28.28-4.529-39.953-13.099l1.137-2.451
					c11.188,8.213,24.951,12.747,38.815,12.747c13.862,0,27.938-4.972,39.128-13.185l0.824,2.889
					C72.509,70.351,58.693,74.88,44.23,74.88z"/>
			</g>
			<g>
				<path fill="#462B17" d="M44.23,50.515c-15.477,0-30.571-5.46-42.5-15.373l1.792-2.156c11.428,9.497,25.885,14.727,40.709,14.727
					s29.28-5.229,40.707-14.727l1.792,2.156C74.801,45.055,59.708,50.515,44.23,50.515z"/>
			</g>
		</g>
		<g>
			<path fill="#462B17" d="M44.229,88.46c-13.446,0-23.979-19.428-23.979-44.229S30.783,0,44.229,0
				c13.447,0,23.98,19.429,23.98,44.23S57.677,88.46,44.229,88.46z M44.229,2.803c-11.677,0-21.177,18.585-21.177,41.428
				s9.5,41.427,21.177,41.427c11.678,0,21.178-18.584,21.178-41.427S55.907,2.803,44.229,2.803z"/>
		</g>
		<g>
			<rect x="42.828" y="1.401" fill="#462B17" width="2.803" height="85.657"/>
		</g>
	</g>
</g>
</svg>
