<?xml version="1.0" encoding="utf-8"?>
<!-- Generator: Adobe Illustrator 16.0.0, SVG Export Plug-In . SVG Version: 6.00 Build 0)  -->
<!DOCTYPE svg PUBLIC "-//W3C//DTD SVG 1.1//EN" "http://www.w3.org/Graphics/SVG/1.1/DTD/svg11.dtd">
<svg version="1.1" xmlns="http://www.w3.org/2000/svg" xmlns:xlink="http://www.w3.org/1999/xlink" x="0px" y="0px" width="205px"
	 height="185.5px" viewBox="0 0 205 185.5" enable-background="new 0 0 205 185.5" xml:space="preserve">
<g id="图层_3">
	<line display="none" fill="none" stroke="#424447" stroke-miterlimit="10" x1="146.383" y1="153.625" x2="137.045" y2="129.099"/>
	<line display="none" fill="none" stroke="#424447" stroke-miterlimit="10" x1="195.944" y1="134.693" x2="163.396" y2="122.4"/>
	<line display="none" fill="none" stroke="#424447" stroke-miterlimit="10" x1="204.936" y1="138.093" x2="200.778" y2="136.527"/>
	<line display="none" fill="none" stroke="#424447" stroke-miterlimit="10" x1="182.597" y1="99.998" x2="166.696" y2="104.327"/>
	<path fill="#464A4F" d="M59.761,107.001c0,26.708,21.651,48.358,48.358,48.358c26.719,0,48.369-21.65,48.369-48.358
		c0-26.707-21.65-48.357-48.369-48.357C81.412,58.644,59.761,80.294,59.761,107.001z"/>
	<path fill="#242628" d="M157.759,133.067c0,0.372,0.302,0.674,0.673,0.674l0,0c0.373,0,0.674-0.302,0.674-0.674v-2.541
		c0-0.372-0.301-0.674-0.674-0.674l0,0c-0.371,0-0.673,0.302-0.673,0.674V133.067z"/>
	<path fill="#242628" d="M157.16,131.122c-0.371,0-0.672,0.303-0.672,0.675l0,0c0,0.372,0.301,0.675,0.672,0.675h2.544
		c0.372,0,0.673-0.303,0.673-0.675l0,0c0-0.372-0.301-0.675-0.673-0.675H157.16z"/>
	<circle fill="none" stroke="#242628" stroke-miterlimit="10" cx="54.355" cy="100.856" r="2.082"/>
	<path fill="#242628" d="M68.686,86.945c0,0.293,0.237,0.53,0.531,0.53l0,0c0.293,0,0.529-0.237,0.529-0.53v-1.998
		c0-0.294-0.236-0.531-0.529-0.531l0,0c-0.294,0-0.531,0.237-0.531,0.531V86.945z"/>
	<path fill="#242628" d="M68.216,85.415c-0.293,0-0.53,0.237-0.53,0.531l0,0c0,0.292,0.237,0.53,0.53,0.53h2.001
		c0.292,0,0.529-0.238,0.529-0.53l0,0c0-0.294-0.237-0.531-0.529-0.531H68.216z"/>
	<circle fill="none" stroke="#242628" stroke-miterlimit="10" cx="119.269" cy="154.855" r="2.001"/>
	<path fill="#242628" d="M72.607,145.888c0,0.358,0.29,0.648,0.649,0.648l0,0c0.358,0,0.647-0.29,0.647-0.648v-2.446
		c0-0.357-0.289-0.648-0.647-0.648l0,0c-0.359,0-0.649,0.291-0.649,0.648V145.888z"/>
	<path fill="#242628" d="M72.032,144.016c-0.358,0-0.648,0.291-0.648,0.648l0,0c0,0.359,0.29,0.65,0.648,0.65h2.448
		c0.357,0,0.647-0.291,0.647-0.65l0,0c0-0.357-0.29-0.648-0.647-0.648H72.032z"/>
	<circle fill="none" stroke="#242628" stroke-miterlimit="10" cx="141.92" cy="81.917" r="2.5"/>
	<line fill="none" stroke="#242628" stroke-miterlimit="10" x1="152.336" y1="100.856" x2="150.996" y2="100.856"/>
	<line fill="none" stroke="#242628" stroke-miterlimit="10" x1="155.996" y1="100.856" x2="154.689" y2="100.856"/>
	<line fill="none" stroke="#242628" stroke-miterlimit="10" x1="153.496" y1="99.724" x2="153.496" y2="98.356"/>
	<line fill="none" stroke="#242628" stroke-miterlimit="10" x1="153.496" y1="103.356" x2="153.496" y2="101.979"/>
</g>
<g id="图层_4">
	<g id="flower_1_">
		<path fill="#242628" d="M72.394,113.953c-0.11,0.407,0.13,0.825,0.536,0.936l0,0c0.406,0.11,0.825-0.129,0.936-0.537l0.253-0.937
			c0.11-0.406-0.13-0.825-0.537-0.935l0,0c-0.406-0.11-0.824,0.13-0.935,0.536L72.394,113.953z"/>
		<path fill="#242628" d="M70.108,114.687c0.202,0.37,0.665,0.506,1.035,0.305l0,0c0.369-0.202,0.505-0.665,0.302-1.035
			l-0.465-0.852c-0.202-0.37-0.665-0.505-1.035-0.303l0,0c-0.368,0.201-0.505,0.664-0.303,1.033L70.108,114.687z"/>
		<path fill="#242628" d="M68.653,115.359c-0.408-0.109-0.826,0.131-0.936,0.537l0,0c-0.11,0.405,0.13,0.824,0.536,0.935
			l0.937,0.254c0.407,0.11,0.825-0.13,0.936-0.538l0,0c0.11-0.405-0.131-0.823-0.537-0.935L68.653,115.359z"/>
		<path fill="#242628" d="M70.518,120.876c-0.11,0.408,0.131,0.826,0.536,0.935l0,0c0.407,0.111,0.825-0.129,0.936-0.535
			l0.254-0.938c0.109-0.406-0.131-0.824-0.537-0.935l0,0c-0.405-0.11-0.824,0.131-0.935,0.537L70.518,120.876z"/>
		<path fill="#242628" d="M75.359,117.202c-0.407-0.11-0.825,0.13-0.936,0.535l0,0c-0.11,0.408,0.13,0.826,0.537,0.937l0.937,0.253
			c0.406,0.11,0.825-0.13,0.936-0.537l0,0c0.109-0.406-0.131-0.825-0.538-0.935L75.359,117.202z"/>
		<path fill="#242628" d="M68.415,118.386c-0.365,0.21-0.49,0.675-0.281,1.04l0,0c0.21,0.366,0.675,0.492,1.041,0.282l0.841-0.483
			c0.365-0.21,0.492-0.675,0.281-1.041l0,0c-0.209-0.365-0.675-0.491-1.039-0.281L68.415,118.386z"/>
		<path fill="#242628" d="M74.567,115.128c-0.366,0.21-0.493,0.675-0.282,1.041l0,0c0.209,0.364,0.675,0.491,1.04,0.281l0.843-0.483
			c0.364-0.209,0.49-0.676,0.28-1.04l0,0c-0.209-0.364-0.676-0.49-1.04-0.281L74.567,115.128z"/>
		<path fill="#242628" d="M74.483,119.562c-0.21-0.366-0.675-0.491-1.039-0.281l0,0c-0.366,0.209-0.492,0.676-0.283,1.04
			l0.483,0.842c0.209,0.365,0.676,0.491,1.041,0.281l0,0c0.364-0.209,0.49-0.675,0.281-1.04L74.483,119.562z"/>
	</g>
	<circle fill="#242628" cx="87.438" cy="159.851" r="1.5"/>
	<circle fill="#242628" cx="135.231" cy="108.031" r="1.5"/>
</g>
<g id="图层_1">
	<path fill="none" stroke="#242628" stroke-width="1.8" stroke-miterlimit="10" d="M53.438,27.954l29.334,0.003l4.668,0.022
		l32.533,0.017c0,0,9.316-0.095,10.057,0c0.705,0.093,6.726,1.354,7.414,1.773c3.18,1.751,1.289,4.953-0.58,4.932
		c-0.904,0.043-5.523-1.87-9.67-1.935c-1.129-0.193-6.688-0.128-7.221,0.129c-0.322,0.226-0.482,0.564,0.129,0.902
		c0.613,0.339,7.672,0.629,8.51,0.903s2.316,1.08,2.707,1.29c2.869,1.45,11.604,7.414,12.765,9.153
		c1.225,2.095-1.16,4.642-2.837,3.997c-1.838-0.741-10.604-7.768-13.15-8.509c-1.934-0.677-2.934-0.677-2.934-0.677
		s-4.93-0.354-4.93-0.097c0.545,0.194,2.707,1.805,2.707,1.805s0.289,0.226,2.643,1.966c6.897,5.415,9.928,9.122,11.539,11.313
		c2.127,3.387-1.805,5.611-3.578,3.612c-1.451-1.87-8.01-8.253-9.057-9.156c-1.074-0.906-3.053-2.365-3.869-2.836
		c-1.633-0.965-3.396-1.977-4.772-1.547c2.194,1.999,3.849,3.911,4.558,7.262c2.041,8.984-7.244,14.657-10.101,13.754
		c-2.107-0.795-2.547-3.803,0.128-4.77c7.545-2.998,5.705-12.153-0.772-13.151c-2.031-0.227-1.708-0.13-2.836,0.128
		c-5.256,1.16-8.092,9.864-0.645,13.088c2.223,0.967,1.914,4.315,0,4.705c-4.3,0.838-9.455-4.382-9.608-11.155
		c-0.192-0.708,0.702-7.837-6.631-9.126c-2.726-0.509-44.931,1.289-44.931,1.289"/>
</g>
<g id="图层_2">
	<g>
		<path fill="#5F6269" d="M82.048,79.218v17.257c0,1.522,1.231,2.755,2.752,2.755h6.726l0.017,2.638l2.848,2.847
			c1.074,1.077,1.074,2.82,0,3.895l-2.848,2.849v1.243l2.389,2.388c1.074,1.074,1.074,2.818,0,3.893l-2.389,2.388v2.346l2.848,2.849
			c1.074,1.074,1.074,2.819,0,3.895l-2.848,2.847v5.028l4.865,6.333h0.321l4.865-6.333l-0.017-39.103h6.725
			c1.521,0,2.755-1.232,2.755-2.755v-4.763c1.772-0.304,3.45-0.91,4.983-1.767c-0.373,1.642-1.562,3.345-3.332,4.721v2.151
			c0,2.432-1.977,4.406-4.405,4.406h-5.072v2.278c2.165,0.811,4.531,1.073,6.871,0.687l16.892,34.575
			c0.668,1.367,2.317,1.934,3.684,1.265l1.979-0.966c1.367-0.666,1.934-2.316,1.265-3.684l-16.891-34.575
			c3.917-3.619,5.377-9.339,3.468-14.486c2.709-3.111,4.367-7.266,4.367-11.825c0-5.093-2.198-9.799-5.488-12.991
			c-0.014-0.014,0.014,0.014,0,0c-0.033,0.02-1.553,1.982-1.75,2.172c2.716,2.687,4.484,6.551,4.484,10.819
			c0,3.452-1.116,6.625-2.977,9.135c-1.619-2.476-3.951-4.274-6.59-5.243c0.105,0.376,0.163,0.769,0.163,1.177v5.276
			c1.323,0.353,2.377,1.064,2.964,2.111c-1.39,0.936-2.95,1.611-4.615,1.96v-9.689c-0.001-1.521-1.233-2.755-2.755-2.755H94.879
			c-0.081-0.646-0.127-1.303-0.127-1.972c0-8.099,6.136-14.688,13.68-14.688c0.831,0,1.755,0.06,2.546,0.213
			c0.649-0.072,2.212-1.199,2.601-2.111c-1.574-0.534-3.408-0.859-5.147-0.859c-9.061,0-16.433,7.825-16.433,17.444
			c0,0.666,0.038,1.322,0.107,1.97h-7.304C83.28,76.464,82.048,77.697,82.048,79.218z M105.915,88.931
			c-3.479-0.697-6.497-2.812-8.517-5.766h5.762c1.521,0,2.755,1.233,2.755,2.754V88.931z M98.756,99.779h1.285v34.826h-1.285V99.779
			z M87.463,85.919c0-1.521,1.234-2.754,2.754-2.754h3.965c2.383,4.391,6.51,7.584,11.373,8.498
			c-0.471,0.842-1.36,1.414-2.393,1.414H90.217c-1.52,0-2.754-1.231-2.754-2.752V85.919z"/>
		<path fill="#5F6269" d="M126.048,138.921l-9.076,4.431l-1.43-2.928l4.848-2.367c0.648-0.317,0.918-1.1,0.601-1.749
			c-0.316-0.648-1.101-0.92-1.75-0.603l-4.847,2.368l-2.177-4.455l4.848-2.368c0.65-0.315,0.921-1.099,0.602-1.748
			c-0.317-0.648-1.102-0.916-1.751-0.602l-4.846,2.368l-2.639-5.403l9.075-4.433L126.048,138.921z"/>
	</g>
	<g>
		<path fill="#242628" d="M119.221,61.313c3.324,3.198,5.645,8.036,5.645,13.179c0,4.567-1.884,9.333-4.436,11.858
			c-0.146-0.943-0.683-2.121-1.295-2.724c1.487-2.022,2.877-5.582,2.877-8.999c0-4.339-1.739-8.229-4.493-10.935
			c0.028-0.021,0.013-0.001,0.03-0.021C118.363,62.736,118.375,62.422,119.221,61.313z"/>
		<path fill="#242628" d="M108.453,57.048c1.794,0,3.53,0.294,5.146,0.859c-0.625,1.125-1.172,1.594-2.601,2.111
			c-0.021-0.004-0.45,0.007-0.471,0.012c-0.688-0.115-1.389-0.193-2.106-0.193c-7.56,0-13.688,6.622-13.688,14.792
			c0,0.625,0.036,1.242,0.106,1.846l-2.719-0.013c-0.065-0.636-0.1-1.282-0.1-1.937C92.021,64.873,99.379,57.048,108.453,57.048z"/>
		<path fill="#242628" d="M108.406,89.188c2.494,0.216,5.144-0.78,7.266-2.24l0.365,2.973c-2.271,1.26-4.846,1.982-7.584,1.982
			c-6.113,0-11.448-3.551-14.277-8.821l3.125,0.071C100.844,87.626,103.344,88.751,108.406,89.188z"/>
	</g>
</g>
</svg>
