<?xml version="1.0" encoding="utf-8"?>
<!-- Generator: Adobe Illustrator 16.0.0, SVG Export Plug-In . SVG Version: 6.00 Build 0)  -->
<!DOCTYPE svg PUBLIC "-//W3C//DTD SVG 1.1//EN" "http://www.w3.org/Graphics/SVG/1.1/DTD/svg11.dtd">
<svg version="1.1" xmlns="http://www.w3.org/2000/svg" xmlns:xlink="http://www.w3.org/1999/xlink" x="0px" y="0px"
	 width="12.877px" height="10.695px" viewBox="0 0 12.877 10.695" enable-background="new 0 0 12.877 10.695" xml:space="preserve">
<g>
	<g>
		<path fill="#e4e8ef" d="M0.725,6.358L0.703,6.353H9.32L6.613,9.068C6.48,9.2,6.406,9.379,6.406,9.569
			c0,0.188,0.074,0.366,0.207,0.499l0.42,0.42c0.133,0.133,0.311,0.207,0.498,0.207c0.188,0,0.365-0.072,0.498-0.205l4.643-4.643
			c0.133-0.133,0.206-0.311,0.205-0.5c0.001-0.189-0.072-0.365-0.205-0.5L8.029,0.205C7.896,0.072,7.72,0,7.531,0
			C7.344,0,7.166,0.072,7.033,0.205l-0.42,0.422C6.48,0.76,6.406,0.936,6.406,1.124S6.48,1.48,6.613,1.612l2.738,2.73H0.715
			C0.326,4.342,0,4.677,0,5.065v0.597C0,6.049,0.336,6.358,0.725,6.358z"/>
	</g>
</g>
</svg>
