<?xml version="1.0" encoding="utf-8"?>
<!-- Generator: Adobe Illustrator 16.0.0, SVG Export Plug-In . SVG Version: 6.00 Build 0)  -->
<!DOCTYPE svg PUBLIC "-//W3C//DTD SVG 1.1//EN" "http://www.w3.org/Graphics/SVG/1.1/DTD/svg11.dtd">
<svg version="1.1" id="图层_1" xmlns="http://www.w3.org/2000/svg" xmlns:xlink="http://www.w3.org/1999/xlink" x="0px" y="0px"
	 width="985.564px" height="968.397px" viewBox="4.109 0.029 985.564 968.397" enable-background="new 4.109 0.029 985.564 968.397"
	 xml:space="preserve">
<g id="Capa_1" display="none">
	<g display="inline">
		<path fill="#5D5F63" d="M220.307,926.41c92.883-114.035,185.765-228.07,278.648-342.104
			c95.458-117.195-8.522-205.655-85.165-299.745c-44.223-54.289-88.445-108.579-132.667-162.868
			C247.067,79.885,213.749,20.504,158.567,4.854C56.57-24.073-23.512,82.723,19.186,174.458
			c34.899,74.981,103.771,136.376,159.049,197.009c25.425,27.889,51.635,56.124,72.417,87.749
			c30.765,46.817-26.129,81.979-55.458,117.98c-43.46,53.349-86.111,107.5-130.656,159.947
			C27.171,781.141-7.846,831.225,14.38,891.238C45.574,975.47,163.446,996.028,220.307,926.41
			C318.995,805.248,148.592,1014.216,220.307,926.41z"/>
		<path fill="#5D5F63" d="M642.208,926.41c92.882-114.035,185.764-228.07,278.646-342.104
			c95.456-117.195-8.522-205.655-85.166-299.745c-44.223-54.289-88.443-108.579-132.666-162.868
			C668.966,79.884,635.646,20.501,580.463,4.853C478.47-24.069,398.39,82.734,441.133,174.452
			C476.07,249.42,544.903,310.82,600.174,371.469c25.415,27.888,51.616,56.123,72.387,87.746
			c30.75,46.814-26.117,81.979-55.437,117.983c-43.441,53.348-86.068,107.504-130.601,159.945
			c-37.359,43.994-72.426,94.058-50.195,154.075C467.516,975.424,585.385,996.146,642.208,926.41
			C740.895,805.248,570.558,1014.343,642.208,926.41z"/>
	</g>
</g>
<g id="图层_2">
	<path fill="#ECECEC" d="M486.35,966.438c21.753,0,43.507-8.299,60.099-24.896c33.195-33.193,33.195-87.014,0.001-120.208
		L209.319,484.196l337.13-337.135c33.194-33.194,33.194-87.014,0-120.208c-33.189-33.194-87.008-33.194-120.204,0L29.007,424.093
		C-4.188,457.286-4.188,511.105,29.006,544.3l397.239,397.242C442.843,958.14,464.597,966.438,486.35,966.438z"/>
	<path fill="#ECECEC" d="M904.67,966.438c21.756,0.002,43.506-8.297,60.104-24.896c33.193-33.194,33.193-87.014-0.002-120.208
		L627.632,484.197l337.142-337.134c33.195-33.194,33.195-87.013,0.001-120.208C931.581-6.339,877.762-6.34,844.566,26.854
		L447.324,424.093c-15.94,15.939-24.896,37.561-24.896,60.104s8.956,44.164,24.896,60.104l397.243,397.24
		C861.162,958.138,882.92,966.436,904.67,966.438z"/>
</g>
</svg>
