<?xml version="1.0" encoding="utf-8"?>
<!-- Generator: Adobe Illustrator 16.0.0, SVG Export Plug-In . SVG Version: 6.00 Build 0)  -->
<!DOCTYPE svg PUBLIC "-//W3C//DTD SVG 1.1//EN" "http://www.w3.org/Graphics/SVG/1.1/DTD/svg11.dtd">
<svg version="1.1" xmlns="http://www.w3.org/2000/svg" xmlns:xlink="http://www.w3.org/1999/xlink" x="0px" y="0px"
	 width="12.877px" height="10.695px" viewBox="0 0 12.877 10.695" enable-background="new 0 0 12.877 10.695" xml:space="preserve">
<g>
	<g>
		<path fill="#e4e8ef" d="M12.152,4.337l0.021,0.005H3.557l2.707-2.715c0.133-0.132,0.207-0.312,0.207-0.501
			c0-0.188-0.074-0.366-0.207-0.499l-0.42-0.42C5.711,0.074,5.533,0,5.346,0C5.157,0,4.98,0.072,4.848,0.205L0.205,4.848
			C0.072,4.98-0.001,5.158,0,5.348c-0.001,0.189,0.072,0.365,0.205,0.5l4.643,4.642c0.133,0.133,0.31,0.205,0.498,0.205
			c0.188,0,0.365-0.072,0.498-0.205l0.42-0.422c0.133-0.133,0.207-0.309,0.207-0.497S6.396,9.214,6.264,9.083l-2.738-2.73h8.637
			c0.389,0,0.715-0.335,0.715-0.723V5.033C12.877,4.646,12.541,4.337,12.152,4.337z"/>
	</g>
</g>
</svg>
