<?xml version="1.0" encoding="utf-8"?>
<!-- Generator: Adobe Illustrator 16.0.0, SVG Export Plug-In . SVG Version: 6.00 Build 0)  -->
<!DOCTYPE svg PUBLIC "-//W3C//DTD SVG 1.1//EN" "http://www.w3.org/Graphics/SVG/1.1/DTD/svg11.dtd">
<svg version="1.1" id="图层_1" xmlns="http://www.w3.org/2000/svg" xmlns:xlink="http://www.w3.org/1999/xlink" x="0px" y="0px"
	 width="12.8px" height="26.593px" viewBox="0 0 12.8 26.593" enable-background="new 0 0 12.8 26.593" xml:space="preserve">
<path fill="#ECECEC" d="M4.193,26.593C1.881,26.593,0,24.712,0,22.399V4.193C0,1.881,1.881,0,4.193,0h4.413
	C10.919,0,12.8,1.881,12.8,4.193v0.951H9.931V4.193c0-0.73-0.594-1.325-1.325-1.325H4.193c-0.73,0-1.325,0.594-1.325,1.325V22.4
	c0,0.73,0.594,1.324,1.325,1.324h1.655c0.73,0,1.324-0.594,1.324-1.324l0.004-10.498c0-0.791,0.643-1.434,1.434-1.434
	s1.435,0.643,1.435,1.434l-0.004,10.498c0,2.312-1.881,4.193-4.193,4.193H4.193z"/>
</svg>
