<?xml version="1.0" encoding="utf-8"?>
<!-- Generator: Adobe Illustrator 16.0.0, SVG Export Plug-In . SVG Version: 6.00 Build 0)  -->
<!DOCTYPE svg PUBLIC "-//W3C//DTD SVG 1.1//EN" "http://www.w3.org/Graphics/SVG/1.1/DTD/svg11.dtd">
<svg version="1.1" id="图层_1" xmlns="http://www.w3.org/2000/svg" xmlns:xlink="http://www.w3.org/1999/xlink" x="0px" y="0px"
	 width="72.759px" height="77.173px" viewBox="0 0 72.759 77.173" enable-background="new 0 0 72.759 77.173" xml:space="preserve">
<path fill="none" stroke="#ECECEC" stroke-width="3.5" stroke-miterlimit="10" d="M69.875,26.625
	c-19.25,0-34.125,9.625-34.125,9.625s-15.125-9.625-34-9.625c0,0,0,36.125,0,39.375c18.875,0,34,9.125,34,9.125S50.625,66,69.875,66
	C69.875,59.5,69.875,30.375,69.875,26.625z"/>
<path fill="none" stroke="#ECECEC" stroke-width="2" stroke-miterlimit="10" d="M6,13.322c12.285,0.178,29.812,8.875,29.812,8.875
	s17.938-8.875,29.312-8.867"/>
<path fill="none" stroke="#ECECEC" stroke-width="2" stroke-miterlimit="10" d="M2.938,19.625c15.25,0,32.875,8.875,32.875,8.875
	s17.75-8.875,32.875-8.875"/>
<rect x="8.428" y="39.874" fill="none" width="64.331" height="23.252"/>
<text transform="matrix(1 0 0 1 8.4277 58.1328)" fill="#ECECEC" font-family="'NuevaStd-Bold'" font-size="22">E=MC</text>
<text transform="matrix(0.583 0 0 0.583 59.1592 50.8066)" fill="#ECECEC" font-family="'NuevaStd-Bold'" font-size="22">2</text>
</svg>
