<?xml version="1.0" encoding="utf-8"?>
<!-- Generator: Adobe Illustrator 16.0.0, SVG Export Plug-In . SVG Version: 6.00 Build 0)  -->
<!DOCTYPE svg PUBLIC "-//W3C//DTD SVG 1.1//EN" "http://www.w3.org/Graphics/SVG/1.1/DTD/svg11.dtd">
<svg version="1.1" id="图层_1" xmlns="http://www.w3.org/2000/svg" xmlns:xlink="http://www.w3.org/1999/xlink" x="0px" y="0px"
	 width="72.759px" height="82.005px" viewBox="0 0 72.759 82.005" enable-background="new 0 0 72.759 82.005" xml:space="preserve">
<path fill="none" stroke="#ECECEC" stroke-width="3.5" stroke-miterlimit="10" d="M69.875,31.457
	c-19.25,0-34.125,9.625-34.125,9.625s-15.125-9.625-34-9.625c0,0,0,36.125,0,39.375c18.875,0,34,9.125,34,9.125
	s14.875-9.125,34.125-9.125C69.875,64.332,69.875,35.207,69.875,31.457z"/>
<path class="movepath" fill="none" stroke="#ECECEC" stroke-width="2" stroke-miterlimit="10" d="M6,18.154c12.285,0.178,29.812,8.875,29.812,8.875
	s17.938-8.875,29.312-8.867"/> 
<path fill="none" stroke="#ECECEC" stroke-width="2" stroke-miterlimit="10" d="M2.938,24.457c15.25,0,32.875,8.875,32.875,8.875
	s17.75-8.875,32.875-8.875"/>
<rect x="8.428" y="44.706" fill="none" width="64.331" height="23.252"/>
<text transform="matrix(1 0 0 1 8.4277 62.9648)" fill="#ECECEC" font-family="'NuevaStd-Bold'" font-size="22">E=MC</text>
<text transform="matrix(0.583 0 0 0.583 59.1592 55.6387)" fill="#ECECEC" font-family="'NuevaStd-Bold'" font-size="22">2</text>
<style>
.movepath {
	##animation: path 1.2s infinite;
}

@keyframes path {
	20% {
		d:path('M6,18.154c12.285,0.178,29.812,8.875,29.812,8.875S49.875,11.164,60.875,9.748');
	}
	45% {
		d:path('M6,18.154c12.285,0.178,29.812,8.875,29.812,8.875S43.458,6.496,51.041,3.081');
	}
	50% {
		d:path('M35.812,0.553v26.112c0,0-20.188-8.511-29.812-8.875');
	}
	70% {
		d:path('M6,18.154c12.285,0.178,28.458,8.011,28.458,8.011S27.625,5.413,20.375,3.081');
	}
	80% {
		d:path('M6,18.154c10.626,0,27.029,7.579,27.029,7.579S24.708,12.416,11.958,9.748');
	}
	90% {
		d:path('M6,18.154c14.229,0,29.812,8.511,29.812,8.511');
	}
	100% {
		d:path('M6,18.154c12.285,0.178,29.812,8.875,29.812,8.875s17.938-8.875,29.312-8.867');
	}
}
</style>
</svg>
