<?xml version="1.0" encoding="utf-8"?>
<!-- Generator: Adobe Illustrator 16.0.0, SVG Export Plug-In . SVG Version: 6.00 Build 0)  -->
<!DOCTYPE svg PUBLIC "-//W3C//DTD SVG 1.1//EN" "http://www.w3.org/Graphics/SVG/1.1/DTD/svg11.dtd">
<svg version="1.1" xmlns="http://www.w3.org/2000/svg" xmlns:xlink="http://www.w3.org/1999/xlink" x="0px" y="0px" width="22px"
	 height="22px" viewBox="0 0 22 22" enable-background="new 0 0 22 22" xml:space="preserve">
<g id="图层_2" display="none">
	<polygon display="inline" fill="#FFFFFF" stroke="#DCF7FF" stroke-miterlimit="10" points="-103.87,-9.954 -97.955,2.031 
		-84.729,3.954 -94.3,13.282 -92.04,26.456 -103.87,20.237 -115.7,26.456 -113.441,13.282 -123.012,3.954 -109.785,2.031 	"/>
</g>
<g id="图层_3" display="none">
	<polygon display="inline" fill="#AAABAE" points="-68.654,-11.083 -65.873,-5.449 -59.654,-4.545 -64.154,-0.159 -63.091,6.036 
		-68.654,3.111 -74.218,6.036 -73.154,-0.159 -77.654,-4.545 -71.436,-5.449 	"/>
</g>
<g id="图层_6" display="none">
	<polyline display="inline" fill="#AAABAE" stroke="#AAABAE" stroke-width="3" stroke-miterlimit="10" points="-76.976,34.866 
		-79.917,36.213 -79.917,41.841 -76.948,43.129 	"/>
	<polyline display="inline" fill="#AAABAE" stroke="#AAABAE" stroke-width="3" stroke-miterlimit="10" points="-75.705,43.095 
		-72.789,41.758 -72.789,36.178 -75.732,34.903 	"/>
	<polyline display="inline" fill="#AAABAE" stroke="#AAABAE" stroke-width="3" stroke-miterlimit="10" points="-94.579,48.647 
		-98.343,50.371 -98.343,57.57 -94.543,59.219 	"/>
	<polyline display="inline" fill="#AAABAE" stroke="#AAABAE" stroke-width="3" stroke-miterlimit="10" points="-92.955,59.173 
		-89.225,57.464 -89.225,50.326 -92.99,48.692 	"/>
	<polyline display="inline" fill="#AAABAE" stroke="#AAABAE" stroke-width="3" stroke-miterlimit="10" points="-74.466,58.165 
		-77.407,59.514 -77.407,65.14 -74.438,66.428 	"/>
	<polyline display="inline" fill="#AAABAE" stroke="#AAABAE" stroke-width="3" stroke-miterlimit="10" points="-73.194,66.394 
		-70.279,65.057 -70.279,59.478 -73.225,58.2 	"/>
	<path display="inline" fill="none" stroke="#AAABAE" stroke-width="3" stroke-miterlimit="10" d="M-88.439,53.934
		c5.582-0.033,2.75-14.945,7.762-14.938"/>
	<path display="inline" fill="none" stroke="#AAABAE" stroke-width="3" stroke-miterlimit="10" d="M-88.439,54.018
		c6.735-0.021,4.426,8.349,10.775,8.363"/>
</g>
<g id="图层_5" display="none">
	<path display="inline" fill="#AAABAE" d="M-84.086,53.48c0,1.044-0.846,1.889-1.889,1.889h-13.222
		c-1.043,0-1.889-0.845-1.889-1.889V40.258c0-1.044,0.846-1.889,1.889-1.889h13.222c1.043,0,1.889,0.845,1.889,1.889V53.48z"/>
	
		<polyline display="inline" fill="none" stroke="#2F3136" stroke-width="3" stroke-linecap="round" stroke-linejoin="round" stroke-miterlimit="10" points="
		-97.265,46.916 -93.191,50.069 -87.425,42.505 	"/>
</g>
<g id="图层_4" display="none">
	<circle display="inline" fill="#AAABAE" cx="-38.711" cy="3.97" r="7.943"/>
	<circle fill="none" stroke="#2452C6" stroke-miterlimit="10" cx="39.245" cy="-17.879" r="17.3"/>
	<path display="inline" fill="#2F3136" stroke="#D7D9DD" stroke-miterlimit="10" d="M-38.712,3.97l1.419-9.486
		c4.029,0.599,6.845,3.448,7.881,6.766L-38.712,3.97z"/>
</g>
<g id="图层_7" display="none">
	<path display="inline" fill="#AAABAE" d="M-13.783-1.584c0,0.5-0.405,0.905-0.905,0.905h-7.189c-0.5,0-0.905-0.405-0.905-0.905l0,0
		c0-0.5,0.405-0.905,0.905-0.905h7.189C-14.188-2.489-13.783-2.083-13.783-1.584L-13.783-1.584z"/>
	<path display="inline" fill="#AAABAE" d="M-18.284-6.083c0.5,0,0.905,0.405,0.905,0.905v7.189c0,0.5-0.405,0.905-0.905,0.905l0,0
		c-0.5,0-0.904-0.405-0.904-0.905v-7.189C-19.188-5.678-18.784-6.083-18.284-6.083L-18.284-6.083z"/>
</g>
<g id="图层_8" display="none">
	<path display="inline" fill="#AAABAE" d="M-107.086,39.37c0,0.553-0.447,1-1,1h-8c-0.553,0-1-0.447-1-1l0,0c0-0.553,0.447-1,1-1h8
		C-107.533,38.37-107.086,38.817-107.086,39.37L-107.086,39.37z"/>
</g>
<g id="图层_9">
	<path fill="#AAABAE" d="M22,11c0,6.075-4.925,11-11,11S0,17.075,0,11C0,4.925,4.925,0,11,0S22,4.925,22,11z M11,3.5
		c-4.143,0-7.5,3.358-7.5,7.5c0,4.143,3.357,7.5,7.5,7.5s7.5-3.358,7.5-7.5C18.5,6.858,15.143,3.5,11,3.5z"/>
</g>
</svg>
