<?xml version="1.0" encoding="utf-8"?>
<!-- Generator: Adobe Illustrator 16.0.0, SVG Export Plug-In . SVG Version: 6.00 Build 0)  -->
<!DOCTYPE svg PUBLIC "-//W3C//DTD SVG 1.1//EN" "http://www.w3.org/Graphics/SVG/1.1/DTD/svg11.dtd">
<svg version="1.1" id="Capa_1" xmlns="http://www.w3.org/2000/svg" xmlns:xlink="http://www.w3.org/1999/xlink" x="0px" y="0px"
	 width="612px" height="612px" viewBox="0 0 612 612" enable-background="new 0 0 612 612" xml:space="preserve">
<g>
	<g>
		<path fill="#8DAFCC" d="M215.607,403.363h185.964c26.695,0,48.407-21.842,48.407-48.688c0.006-26.84-21.712-48.677-48.407-48.677
			H215.607c-26.696,0-48.409,21.837-48.409,48.677C167.199,381.521,188.911,403.363,215.607,403.363z M215.607,324.546h185.964
			c16.469,0,29.862,13.515,29.862,30.131c0,16.622-13.398,30.142-29.862,30.142H215.607c-16.469,0-29.863-13.52-29.863-30.142
			C185.745,338.061,199.139,324.546,215.607,324.546z"/>
		<path fill="#8DAFCC" d="M215.607,287.455h185.964c27.146,0,48.407-20.372,48.407-46.373c0-25.991-21.263-46.354-48.407-46.354
			H215.607c-27.146,0-48.409,20.363-48.409,46.354C167.199,267.083,188.457,287.455,215.607,287.455z M215.607,213.272h185.964
			c17.023,0,29.862,11.953,29.862,27.809c0,15.866-12.843,27.828-29.862,27.828H215.607c-17.025,0-29.863-11.962-29.863-27.828
			C185.745,225.225,198.583,213.272,215.607,213.272z"/>
		<path fill="#8DAFCC" d="M528.547,78.818H92.729c-5.118,0-9.272,4.154-9.272,9.272v440.454c0,5.119,4.154,9.273,9.272,9.273
			h435.818c5.119,0,9.273-4.154,9.273-9.273V88.091C537.821,82.972,533.667,78.818,528.547,78.818z M519.275,519.271H102.002V97.364
			h417.272L519.275,519.271L519.275,519.271z"/>
		<path fill="#8DAFCC" d="M563.594,0H48.411C21.719,0,0.002,21.717,0.002,48.408v515.179C0.002,590.283,21.719,612,48.411,612
			H563.59c26.696,0,48.408-21.717,48.408-48.408V48.408C612.002,21.717,590.286,0,563.594,0z M593.457,563.592
			c0,16.469-13.398,29.862-29.862,29.862H48.411c-16.464,0-29.863-13.398-29.863-29.862V48.408
			c0-16.464,13.399-29.863,29.863-29.863H563.59c16.469,0,29.867,13.399,29.867,29.863V563.592L593.457,563.592z"/>
	</g>
</g>
</svg>
