<?xml version="1.0" encoding="utf-8"?>
<!-- Generator: Adobe Illustrator 16.0.0, SVG Export Plug-In . SVG Version: 6.00 Build 0)  -->
<!DOCTYPE svg PUBLIC "-//W3C//DTD SVG 1.1//EN" "http://www.w3.org/Graphics/SVG/1.1/DTD/svg11.dtd">
<svg version="1.1" xmlns="http://www.w3.org/2000/svg" xmlns:xlink="http://www.w3.org/1999/xlink" x="0px" y="0px"
	 width="19.958px" height="17px" viewBox="0 0 19.958 17" enable-background="new 0 0 19.958 17" xml:space="preserve">
<g id="stretch-icon">
	<g>
		<g>
			<path fill="#91969B" d="M-25.177,32.503l16-7.677l-4.923,7.677l4.923,7.676L-25.177,32.503z"/>
		</g>
	</g>
</g>
<g id="test-icon-3-2">
	
		<line fill="none" stroke="#ECECEC" stroke-width="1.5" stroke-linecap="round" stroke-miterlimit="10" x1="65.896" y1="9.449" x2="69.849" y2="9.449"/>
	
		<polyline fill="none" stroke="#ECECEC" stroke-width="1.5" stroke-linecap="round" stroke-linejoin="round" stroke-miterlimit="10" points="
		58.807,13.672 55.577,12.193 55.577,6.018 58.838,4.604 	"/>
	
		<line fill="none" stroke="#ECECEC" stroke-width="1.5" stroke-linecap="round" stroke-miterlimit="10" x1="54.99" y1="9.451" x2="51.038" y2="9.451"/>
	
		<polyline fill="none" stroke="#ECECEC" stroke-width="1.5" stroke-linecap="round" stroke-linejoin="round" stroke-miterlimit="10" points="
		62.657,13.672 65.888,12.193 65.888,6.018 62.627,4.604 	"/>
</g>
<g id="test-icon-3">
	
		<line fill="none" stroke="#AAABAE" stroke-linecap="round" stroke-miterlimit="10" x1="41.271" y1="9.447" x2="45.223" y2="9.447"/>
	<polyline fill="none" stroke="#AAABAE" stroke-linecap="round" stroke-linejoin="round" stroke-miterlimit="10" points="
		34.181,13.67 30.951,12.191 30.951,6.018 34.212,4.604 	"/>
	
		<line fill="none" stroke="#AAABAE" stroke-linecap="round" stroke-miterlimit="10" x1="30.364" y1="9.449" x2="26.412" y2="9.449"/>
	<polyline fill="none" stroke="#AAABAE" stroke-linecap="round" stroke-linejoin="round" stroke-miterlimit="10" points="
		38.031,13.67 41.262,12.191 41.262,6.018 38.001,4.604 	"/>
</g>
<g id="test-icon-2-selected">
	<g>
		<g>
			<g id="Chart_8_">
				<g>
					<path fill="#ECECEC" d="M59.591,36.255h0.999c0.276,0,0.5-0.251,0.5-0.56V30.1c0-0.31-0.224-0.561-0.5-0.561h-0.999
						c-0.276,0-0.501,0.251-0.501,0.561v5.596C59.09,36.004,59.314,36.255,59.591,36.255z"/>
				</g>
			</g>
		</g>
	</g>
	
		<polyline fill="none" stroke="#ECECEC" stroke-width="1.5" stroke-linecap="round" stroke-linejoin="round" stroke-miterlimit="10" points="
		74.505,38.796 55.547,38.796 55.547,22.796 	"/>
	<g>
		<g>
			<g id="Chart_7_">
				<g>
					<path fill="#ECECEC" d="M63.288,36.255h0.999c0.275,0,0.5-0.251,0.5-0.561V25.621c0-0.308-0.225-0.559-0.5-0.559h-0.999
						c-0.276,0-0.501,0.251-0.501,0.559v10.073C62.787,36.004,63.012,36.255,63.288,36.255z"/>
				</g>
			</g>
		</g>
	</g>
	<g>
		<g>
			<g id="Chart_6_">
				<g>
					<path fill="#ECECEC" d="M67.091,36.272h0.998c0.276,0,0.501-0.167,0.501-0.373v-3.747c0-0.205-0.225-0.375-0.501-0.375h-0.998
						c-0.276,0-0.501,0.17-0.501,0.375v3.747C66.59,36.105,66.814,36.272,67.091,36.272z"/>
				</g>
			</g>
		</g>
	</g>
	<g>
		<g>
			<g id="Chart_5_">
				<g>
					<path fill="#ECECEC" d="M70.851,36.255h0.998c0.276,0,0.501-0.202,0.501-0.45v-8.092c0-0.247-0.225-0.449-0.501-0.449h-0.998
						c-0.276,0-0.501,0.202-0.501,0.449v8.092C70.35,36.053,70.574,36.255,70.851,36.255z"/>
				</g>
			</g>
		</g>
	</g>
</g>
<g id="test-icon-2">
	<g display="none">
		<g display="inline">
			<g id="Chart_1_">
				<g>
					<path fill="#91969B" d="M2.479,15.47V-1.96h-2.49v18.675c0,0.687,0.557,1.245,1.245,1.245h18.674v-2.49H2.479z M5.592,12.979
						h1.245c0.344,0,0.623-0.278,0.623-0.622V6.133c0-0.344-0.278-0.623-0.623-0.623H5.592c-0.344,0-0.623,0.279-0.623,0.623v6.225
						C4.969,12.701,5.248,12.979,5.592,12.979z M9.327,12.979h1.245c0.344,0,0.623-0.278,0.623-0.622V1.152
						c0-0.343-0.278-0.622-0.623-0.622H9.327c-0.344,0-0.623,0.279-0.623,0.622v11.205C8.704,12.701,8.982,12.979,9.327,12.979z
						 M13.062,12.979h1.245c0.344,0,0.623-0.278,0.623-0.622V8.622C14.929,8.278,14.65,8,14.306,8h-1.245
						c-0.344,0-0.623,0.278-0.623,0.622v3.735C12.439,12.701,12.717,12.979,13.062,12.979z M16.796,12.979h1.245
						c0.344,0,0.623-0.278,0.623-0.622V3.643c0-0.344-0.278-0.622-0.623-0.622h-1.245c-0.344,0-0.623,0.278-0.623,0.622v8.715
						C16.174,12.701,16.453,12.979,16.796,12.979z"/>
				</g>
			</g>
		</g>
	</g>
	<g>
		<g>
			<g id="Chart">
				<g>
					<path fill="#AAABAE" d="M4.632,13.959h0.825c0.229,0,0.414-0.251,0.414-0.56V7.804c0-0.31-0.185-0.561-0.414-0.561H4.632
						c-0.229,0-0.414,0.251-0.414,0.561v5.596C4.218,13.708,4.403,13.959,4.632,13.959z"/>
				</g>
			</g>
		</g>
	</g>
	<polyline fill="none" stroke="#AAABAE" stroke-linecap="round" stroke-linejoin="round" stroke-miterlimit="10" points="
		19.458,16.5 0.5,16.5 0.5,0.5 	"/>
	<g>
		<g>
			<g id="Chart_2_">
				<g>
					<path fill="#AAABAE" d="M8.329,13.959h0.825c0.228,0,0.414-0.251,0.414-0.561V3.325c0-0.308-0.186-0.559-0.414-0.559H8.329
						c-0.229,0-0.414,0.251-0.414,0.559v10.073C7.915,13.708,8.1,13.959,8.329,13.959z"/>
				</g>
			</g>
		</g>
	</g>
	<g>
		<g>
			<g id="Chart_3_">
				<g>
					<path fill="#AAABAE" d="M12.132,13.977h0.824c0.229,0,0.414-0.167,0.414-0.373V9.856c0-0.205-0.186-0.375-0.414-0.375h-0.824
						c-0.229,0-0.414,0.17-0.414,0.375v3.747C11.718,13.81,11.903,13.977,12.132,13.977z"/>
				</g>
			</g>
		</g>
	</g>
	<g>
		<g>
			<g id="Chart_4_">
				<g>
					<path fill="#AAABAE" d="M15.892,13.959h0.824c0.229,0,0.414-0.202,0.414-0.45V5.417c0-0.247-0.186-0.449-0.414-0.449h-0.824
						c-0.229,0-0.414,0.202-0.414,0.449v8.092C15.478,13.757,15.662,13.959,15.892,13.959z"/>
				</g>
			</g>
		</g>
	</g>
</g>
<g id="test-icon-1-selected">
	<path fill="#ECECEC" stroke="#ECECEC" stroke-miterlimit="10" d="M31.878,33.336c0,0.505-0.408,0.913-0.912,0.913h-0.512
		c-0.504,0-0.912-0.408-0.912-0.913v-0.513c0-0.503,0.408-0.91,0.912-0.91h0.512c0.504,0,0.912,0.407,0.912,0.91V33.336z"/>
	<path fill="#ECECEC" stroke="#ECECEC" stroke-miterlimit="10" d="M31.878,38.613c0,0.505-0.408,0.913-0.912,0.913h-0.512
		c-0.504,0-0.912-0.408-0.912-0.913v-0.513c0-0.503,0.408-0.911,0.912-0.911h0.512c0.504,0,0.912,0.408,0.912,0.911V38.613z"/>
	<rect x="34.067" y="27.206" fill="#ECECEC" width="11.854" height="1.258"/>
	<rect x="34.067" y="32.451" fill="#ECECEC" width="11.854" height="1.259"/>
	<rect x="34.067" y="37.729" fill="#ECECEC" width="11.854" height="1.259"/>
	
		<polyline fill="none" stroke="#ECECEC" stroke-width="1.5" stroke-linecap="round" stroke-linejoin="round" stroke-miterlimit="10" points="
		27.921,27.032 29.961,28.812 33.498,25.179 	"/>
</g>
<g id="test-icon-1">
	<path display="none" fill="#AAABAE" stroke="#AAABAE" stroke-miterlimit="10" d="M-22.837,2.833c0,0.6-0.486,1.086-1.087,1.086
		h-0.61c-0.601,0-1.088-0.486-1.088-1.086V2.221c0-0.601,0.487-1.087,1.088-1.087h0.61c0.601,0,1.087,0.486,1.087,1.087V2.833z"/>
	<path fill="#AAABAE" stroke="#AAABAE" stroke-miterlimit="10" d="M-21.868,8.897c0,0.505-0.408,0.912-0.912,0.912h-0.512
		c-0.504,0-0.913-0.407-0.913-0.912V8.385c0-0.503,0.409-0.911,0.913-0.911h0.512c0.504,0,0.912,0.408,0.912,0.911V8.897z"/>
	<path fill="#AAABAE" stroke="#AAABAE" stroke-miterlimit="10" d="M-21.868,14.176c0,0.503-0.408,0.911-0.912,0.911h-0.512
		c-0.504,0-0.913-0.408-0.913-0.911v-0.514c0-0.504,0.409-0.911,0.913-0.911h0.512c0.504,0,0.912,0.407,0.912,0.911V14.176z"/>
	<rect x="-19.679" y="2.767" fill="#AAABAE" width="11.854" height="1.258"/>
	<rect x="-19.679" y="8.013" fill="#AAABAE" width="11.854" height="1.258"/>
	<rect x="-19.679" y="13.289" fill="#AAABAE" width="11.854" height="1.259"/>
	
		<polyline fill="none" stroke="#AAABAE" stroke-width="1.5" stroke-linecap="round" stroke-linejoin="round" stroke-miterlimit="10" points="
		-25.824,2.593 -23.786,4.373 -20.248,0.74 	"/>
</g>
<g id="circle">
	<path fill="#AAABAE" d="M63.817-31.371c0,6.074-4.925,11-11,11s-11-4.926-11-11c0-6.075,4.925-11,11-11
		S63.817-37.446,63.817-31.371z M52.817-38.871c-4.143,0-7.5,3.357-7.5,7.5c0,4.143,3.357,7.5,7.5,7.5s7.5-3.357,7.5-7.5
		C60.317-35.513,56.96-38.871,52.817-38.871z"/>
</g>
<g id="minus">
	<path fill="#AAABAE" d="M35.817-41.371c0,0.553-0.447,1-1,1h-8c-0.553,0-1-0.447-1-1l0,0c0-0.553,0.447-1,1-1h8
		C35.37-42.371,35.817-41.923,35.817-41.371L35.817-41.371z"/>
</g>
<g id="plus">
	<path fill="#AAABAE" d="M19.817-37.871c0,0.5-0.405,0.904-0.905,0.904h-7.189c-0.5,0-0.905-0.404-0.905-0.904l0,0
		c0-0.5,0.405-0.905,0.905-0.905h7.189C19.412-38.776,19.817-38.371,19.817-37.871L19.817-37.871z"/>
	<path fill="#AAABAE" d="M15.316-42.371c0.5,0,0.905,0.405,0.905,0.905v7.189c0,0.5-0.405,0.905-0.905,0.905l0,0
		c-0.5,0-0.904-0.405-0.904-0.905v-7.189C14.412-41.965,14.816-42.371,15.316-42.371L15.316-42.371z"/>
</g>
<g id="topo">
	<polyline fill="#AAABAE" stroke="#AAABAE" stroke-width="3" stroke-miterlimit="10" points="-3.378,-41.007 -6.319,-39.66 
		-6.319,-34.032 -3.351,-32.744 	"/>
	<polyline fill="#AAABAE" stroke="#AAABAE" stroke-width="3" stroke-miterlimit="10" points="-2.108,-32.778 0.808,-34.115 
		0.808,-39.695 -2.136,-40.97 	"/>
	<polyline fill="#AAABAE" stroke="#AAABAE" stroke-width="3" stroke-miterlimit="10" points="-20.981,-27.227 -24.745,-25.502 
		-24.745,-18.303 -20.946,-16.654 	"/>
	<polyline fill="#AAABAE" stroke="#AAABAE" stroke-width="3" stroke-miterlimit="10" points="-19.358,-16.699 -15.628,-18.408 
		-15.628,-25.547 -19.394,-27.182 	"/>
	<polyline fill="#AAABAE" stroke="#AAABAE" stroke-width="3" stroke-miterlimit="10" points="-0.868,-17.709 -3.81,-16.359 
		-3.81,-10.732 -0.841,-9.445 	"/>
	<polyline fill="#AAABAE" stroke="#AAABAE" stroke-width="3" stroke-miterlimit="10" points="0.403,-9.479 3.317,-10.816 
		3.317,-16.395 0.372,-17.674 	"/>
	<path fill="none" stroke="#AAABAE" stroke-width="3" stroke-miterlimit="10" d="M-14.843-21.939
		c5.582-0.033,2.75-14.945,7.762-14.937"/>
	<path fill="none" stroke="#AAABAE" stroke-width="3" stroke-miterlimit="10" d="M-14.843-21.855
		c6.736-0.021,4.426,8.35,10.775,8.363"/>
</g>
<g id="check-box">
	<path fill="#AAABAE" d="M64.773-52.423c0,1.044-0.846,1.889-1.889,1.889H49.663c-1.044,0-1.89-0.845-1.89-1.889v-13.222
		c0-1.044,0.846-1.889,1.89-1.889h13.222c1.043,0,1.889,0.845,1.889,1.889V-52.423z"/>
	
		<polyline fill="none" stroke="#2F3136" stroke-width="3" stroke-linecap="round" stroke-linejoin="round" stroke-miterlimit="10" points="
		51.596,-58.987 55.668,-55.834 61.436,-63.397 	"/>
</g>
<g id="chart-pie">
	<circle fill="#AAABAE" cx="31.846" cy="-57.479" r="7.943"/>
	<circle display="none" fill="none" stroke="#2452C6" stroke-miterlimit="10" cx="127.086" cy="-67.329" r="17.3"/>
	<path fill="#2F3136" stroke="#D7D9DD" stroke-miterlimit="10" d="M31.846-57.479l1.419-9.486c4.029,0.6,6.845,3.448,7.881,6.766
		L31.846-57.479z"/>
</g>
<g id="small-star">
	<polygon fill="#AAABAE" points="8.902,-67.533 11.684,-61.898 17.902,-60.995 13.402,-56.609 14.467,-50.414 8.902,-53.339 
		3.34,-50.414 4.402,-56.609 -0.098,-60.995 6.121,-61.898 	"/>
</g>
<g id="big-star-selected">
	<polygon fill="none" stroke="#ECECEC" stroke-width="1.5" stroke-linejoin="round" stroke-miterlimit="10" points="9.5,25.098 
		12.281,30.732 18.5,31.637 14,36.021 15.062,42.217 9.5,39.293 3.938,42.217 5,36.021 0.5,31.637 6.719,30.732 	"/>
</g>
<g id="big-star">
	<polygon fill="none" stroke="#AAABAE" stroke-linejoin="round" stroke-miterlimit="10" points="-16.171,-66.403 -13.39,-60.768 
		-7.171,-59.864 -11.671,-55.479 -10.608,-49.284 -16.171,-52.208 -21.733,-49.284 -20.671,-55.479 -25.171,-59.864 
		-18.952,-60.768 	"/>
</g>
</svg>
