<?xml version="1.0" encoding="utf-8"?>
<!-- Generator: Adobe Illustrator 16.0.0, SVG Export Plug-In . SVG Version: 6.00 Build 0)  -->
<!DOCTYPE svg PUBLIC "-//W3C//DTD SVG 1.1//EN" "http://www.w3.org/Graphics/SVG/1.1/DTD/svg11.dtd">
<svg version="1.1" xmlns="http://www.w3.org/2000/svg" xmlns:xlink="http://www.w3.org/1999/xlink" x="0px" y="0px"
	 width="20.458px" height="17.5px" viewBox="0 0 20.458 17.5" enable-background="new 0 0 20.458 17.5" xml:space="preserve">
<g id="stretch-icon">
	<g>
		<g>
			<path fill="#91969B" d="M-79.974,10.457l16-7.677l-4.923,7.677l4.923,7.676L-79.974,10.457z"/>
		</g>
	</g>
</g>
<g id="test-icon-3-2">
	
		<line fill="none" stroke="#ECECEC" stroke-width="1.5" stroke-linecap="round" stroke-miterlimit="10" x1="11.1" y1="-12.597" x2="15.052" y2="-12.597"/>
	
		<polyline fill="none" stroke="#ECECEC" stroke-width="1.5" stroke-linecap="round" stroke-linejoin="round" stroke-miterlimit="10" points="
		4.01,-8.374 0.78,-9.853 0.78,-16.028 4.041,-17.442 	"/>
	
		<line fill="none" stroke="#ECECEC" stroke-width="1.5" stroke-linecap="round" stroke-miterlimit="10" x1="0.193" y1="-12.595" x2="-3.759" y2="-12.595"/>
	
		<polyline fill="none" stroke="#ECECEC" stroke-width="1.5" stroke-linecap="round" stroke-linejoin="round" stroke-miterlimit="10" points="
		7.86,-8.374 11.091,-9.853 11.091,-16.028 7.83,-17.442 	"/>
</g>
<g id="test-icon-3">
	
		<line fill="none" stroke="#AAABAE" stroke-linecap="round" stroke-miterlimit="10" x1="-13.526" y1="-12.599" x2="-9.574" y2="-12.599"/>
	<polyline fill="none" stroke="#AAABAE" stroke-linecap="round" stroke-linejoin="round" stroke-miterlimit="10" points="
		-20.616,-8.376 -23.846,-9.854 -23.846,-16.028 -20.585,-17.442 	"/>
	
		<line fill="none" stroke="#AAABAE" stroke-linecap="round" stroke-miterlimit="10" x1="-24.433" y1="-12.597" x2="-28.385" y2="-12.597"/>
	<polyline fill="none" stroke="#AAABAE" stroke-linecap="round" stroke-linejoin="round" stroke-miterlimit="10" points="
		-16.766,-8.376 -13.535,-9.854 -13.535,-16.028 -16.796,-17.442 	"/>
</g>
<g id="test-icon-2-selected">
	<g>
		<g>
			<g id="Chart_8_">
				<g>
					<path fill="#ECECEC" d="M4.794,14.209h0.999c0.276,0,0.5-0.251,0.5-0.56V8.054c0-0.31-0.224-0.561-0.5-0.561H4.794
						c-0.276,0-0.501,0.251-0.501,0.561v5.596C4.293,13.958,4.518,14.209,4.794,14.209z"/>
				</g>
			</g>
		</g>
	</g>
	
		<polyline fill="none" stroke="#ECECEC" stroke-width="1.5" stroke-linecap="round" stroke-linejoin="round" stroke-miterlimit="10" points="
		19.708,16.75 0.75,16.75 0.75,0.75 	"/>
	<g>
		<g>
			<g id="Chart_7_">
				<g>
					<path fill="#ECECEC" d="M8.491,14.209H9.49c0.275,0,0.5-0.251,0.5-0.561V3.575c0-0.308-0.225-0.559-0.5-0.559H8.491
						c-0.276,0-0.501,0.251-0.501,0.559v10.073C7.99,13.958,8.215,14.209,8.491,14.209z"/>
				</g>
			</g>
		</g>
	</g>
	<g>
		<g>
			<g id="Chart_6_">
				<g>
					<path fill="#ECECEC" d="M12.294,14.227h0.998c0.276,0,0.501-0.167,0.501-0.373v-3.747c0-0.205-0.225-0.375-0.501-0.375h-0.998
						c-0.276,0-0.501,0.17-0.501,0.375v3.747C11.793,14.06,12.018,14.227,12.294,14.227z"/>
				</g>
			</g>
		</g>
	</g>
	<g>
		<g>
			<g id="Chart_5_">
				<g>
					<path fill="#ECECEC" d="M16.054,14.209h0.998c0.276,0,0.501-0.202,0.501-0.45V5.667c0-0.247-0.225-0.449-0.501-0.449h-0.998
						c-0.276,0-0.501,0.202-0.501,0.449v8.092C15.553,14.007,15.777,14.209,16.054,14.209z"/>
				</g>
			</g>
		</g>
	</g>
</g>
<g id="test-icon-2">
	<g display="none">
		<g display="inline">
			<g id="Chart_1_">
				<g>
					<path fill="#91969B" d="M-52.318-6.576v-17.43h-2.49v18.675c0,0.687,0.557,1.245,1.245,1.245h18.674v-2.49H-52.318z
						 M-49.205-9.066h1.245c0.344,0,0.623-0.278,0.623-0.622v-6.225c0-0.344-0.278-0.623-0.623-0.623h-1.245
						c-0.344,0-0.623,0.279-0.623,0.623v6.225C-49.828-9.345-49.549-9.066-49.205-9.066z M-45.47-9.066h1.245
						c0.344,0,0.623-0.278,0.623-0.622v-11.205c0-0.343-0.278-0.622-0.623-0.622h-1.245c-0.344,0-0.623,0.279-0.623,0.622v11.205
						C-46.093-9.345-45.814-9.066-45.47-9.066z M-41.735-9.066h1.245c0.344,0,0.623-0.278,0.623-0.622v-3.735
						c0-0.344-0.279-0.622-0.623-0.622h-1.245c-0.344,0-0.623,0.278-0.623,0.622v3.735C-42.358-9.345-42.08-9.066-41.735-9.066z
						 M-38-9.066h1.245c0.344,0,0.623-0.278,0.623-0.622v-8.715c0-0.344-0.278-0.622-0.623-0.622H-38
						c-0.344,0-0.623,0.278-0.623,0.622v8.715C-38.623-9.345-38.344-9.066-38-9.066z"/>
				</g>
			</g>
		</g>
	</g>
	<g>
		<g>
			<g id="Chart">
				<g>
					<path fill="#AAABAE" d="M-50.165-8.087h0.825c0.229,0,0.414-0.251,0.414-0.56v-5.596c0-0.31-0.185-0.561-0.414-0.561h-0.825
						c-0.229,0-0.414,0.251-0.414,0.561v5.596C-50.579-8.338-50.394-8.087-50.165-8.087z"/>
				</g>
			</g>
		</g>
	</g>
	<polyline fill="none" stroke="#AAABAE" stroke-linecap="round" stroke-linejoin="round" stroke-miterlimit="10" points="
		-35.338,-5.546 -54.297,-5.546 -54.297,-21.546 	"/>
	<g>
		<g>
			<g id="Chart_2_">
				<g>
					<path fill="#AAABAE" d="M-46.468-8.087h0.825c0.228,0,0.414-0.251,0.414-0.561v-10.073c0-0.308-0.186-0.559-0.414-0.559h-0.825
						c-0.229,0-0.414,0.251-0.414,0.559v10.073C-46.882-8.338-46.697-8.087-46.468-8.087z"/>
				</g>
			</g>
		</g>
	</g>
	<g>
		<g>
			<g id="Chart_3_">
				<g>
					<path fill="#AAABAE" d="M-42.665-8.069h0.824c0.229,0,0.414-0.167,0.414-0.373v-3.747c0-0.205-0.186-0.375-0.414-0.375h-0.824
						c-0.229,0-0.414,0.17-0.414,0.375v3.747C-43.079-8.236-42.894-8.069-42.665-8.069z"/>
				</g>
			</g>
		</g>
	</g>
	<g>
		<g>
			<g id="Chart_4_">
				<g>
					<path fill="#AAABAE" d="M-38.905-8.087h0.824c0.229,0,0.414-0.202,0.414-0.45v-8.092c0-0.247-0.186-0.449-0.414-0.449h-0.824
						c-0.229,0-0.414,0.202-0.414,0.449v8.092C-39.319-8.289-39.135-8.087-38.905-8.087z"/>
				</g>
			</g>
		</g>
	</g>
</g>
<g id="test-icon-1-selected">
	<path fill="#ECECEC" stroke="#ECECEC" stroke-miterlimit="10" d="M-22.919,11.29c0,0.505-0.408,0.913-0.912,0.913h-0.512
		c-0.504,0-0.912-0.408-0.912-0.913v-0.513c0-0.503,0.408-0.91,0.912-0.91h0.512c0.504,0,0.912,0.407,0.912,0.91V11.29z"/>
	<path fill="#ECECEC" stroke="#ECECEC" stroke-miterlimit="10" d="M-22.919,16.567c0,0.505-0.408,0.913-0.912,0.913h-0.512
		c-0.504,0-0.912-0.408-0.912-0.913v-0.513c0-0.503,0.408-0.911,0.912-0.911h0.512c0.504,0,0.912,0.408,0.912,0.911V16.567z"/>
	<rect x="-20.729" y="5.16" fill="#ECECEC" width="11.854" height="1.258"/>
	<rect x="-20.729" y="10.405" fill="#ECECEC" width="11.854" height="1.259"/>
	<rect x="-20.729" y="15.683" fill="#ECECEC" width="11.854" height="1.259"/>
	
		<polyline fill="none" stroke="#ECECEC" stroke-width="1.5" stroke-linecap="round" stroke-linejoin="round" stroke-miterlimit="10" points="
		-26.876,4.986 -24.836,6.766 -21.299,3.133 	"/>
</g>
<g id="test-icon-1">
	<path display="none" fill="#AAABAE" stroke="#AAABAE" stroke-miterlimit="10" d="M-77.634-19.213c0,0.6-0.486,1.086-1.087,1.086
		h-0.61c-0.601,0-1.088-0.486-1.088-1.086v-0.612c0-0.601,0.487-1.087,1.088-1.087h0.61c0.601,0,1.087,0.486,1.087,1.087V-19.213z"
		/>
	<path fill="#AAABAE" stroke="#AAABAE" stroke-miterlimit="10" d="M-76.665-13.148c0,0.505-0.408,0.912-0.912,0.912h-0.512
		c-0.504,0-0.913-0.407-0.913-0.912v-0.513c0-0.503,0.409-0.911,0.913-0.911h0.512c0.504,0,0.912,0.408,0.912,0.911V-13.148z"/>
	<path fill="#AAABAE" stroke="#AAABAE" stroke-miterlimit="10" d="M-76.665-7.87c0,0.503-0.408,0.911-0.912,0.911h-0.512
		c-0.504,0-0.913-0.408-0.913-0.911v-0.514c0-0.504,0.409-0.911,0.913-0.911h0.512c0.504,0,0.912,0.407,0.912,0.911V-7.87z"/>
	<rect x="-74.476" y="-19.279" fill="#AAABAE" width="11.854" height="1.258"/>
	<rect x="-74.476" y="-14.033" fill="#AAABAE" width="11.854" height="1.258"/>
	<rect x="-74.476" y="-8.757" fill="#AAABAE" width="11.854" height="1.259"/>
	
		<polyline fill="none" stroke="#AAABAE" stroke-width="1.5" stroke-linecap="round" stroke-linejoin="round" stroke-miterlimit="10" points="
		-80.621,-19.453 -78.583,-17.673 -75.044,-21.306 	"/>
</g>
<g id="circle">
	<path fill="#AAABAE" d="M9.021-53.417c0,6.074-4.925,11-11,11s-11-4.926-11-11c0-6.075,4.925-11,11-11S9.021-59.492,9.021-53.417z
		 M-1.979-60.917c-4.143,0-7.5,3.357-7.5,7.5c0,4.143,3.357,7.5,7.5,7.5s7.5-3.357,7.5-7.5C5.521-57.559,2.163-60.917-1.979-60.917z
		"/>
</g>
<g id="minus">
	<path fill="#AAABAE" d="M-18.979-63.417c0,0.553-0.447,1-1,1h-8c-0.553,0-1-0.447-1-1l0,0c0-0.553,0.447-1,1-1h8
		C-19.427-64.417-18.979-63.969-18.979-63.417L-18.979-63.417z"/>
</g>
<g id="plus">
	<path fill="#AAABAE" d="M-34.979-59.917c0,0.5-0.405,0.904-0.905,0.904h-7.189c-0.5,0-0.905-0.404-0.905-0.904l0,0
		c0-0.5,0.405-0.905,0.905-0.905h7.189C-35.385-60.822-34.979-60.417-34.979-59.917L-34.979-59.917z"/>
	<path fill="#AAABAE" d="M-39.48-64.417c0.5,0,0.905,0.405,0.905,0.905v7.189c0,0.5-0.405,0.905-0.905,0.905l0,0
		c-0.5,0-0.904-0.405-0.904-0.905v-7.189C-40.385-64.011-39.98-64.417-39.48-64.417L-39.48-64.417z"/>
</g>
<g id="topo">
	<polyline fill="#AAABAE" stroke="#AAABAE" stroke-width="3" stroke-miterlimit="10" points="-58.175,-63.053 -61.116,-61.706 
		-61.116,-56.078 -58.147,-54.79 	"/>
	<polyline fill="#AAABAE" stroke="#AAABAE" stroke-width="3" stroke-miterlimit="10" points="-56.905,-54.824 -53.989,-56.161 
		-53.989,-61.741 -56.933,-63.016 	"/>
	<polyline fill="#AAABAE" stroke="#AAABAE" stroke-width="3" stroke-miterlimit="10" points="-75.778,-49.272 -79.542,-47.548 
		-79.542,-40.349 -75.743,-38.7 	"/>
	<polyline fill="#AAABAE" stroke="#AAABAE" stroke-width="3" stroke-miterlimit="10" points="-74.155,-38.745 -70.425,-40.454 
		-70.425,-47.593 -74.19,-49.228 	"/>
	<polyline fill="#AAABAE" stroke="#AAABAE" stroke-width="3" stroke-miterlimit="10" points="-55.665,-39.755 -58.606,-38.405 
		-58.606,-32.778 -55.638,-31.491 	"/>
	<polyline fill="#AAABAE" stroke="#AAABAE" stroke-width="3" stroke-miterlimit="10" points="-54.394,-31.524 -51.479,-32.862 
		-51.479,-38.44 -54.425,-39.72 	"/>
	<path fill="none" stroke="#AAABAE" stroke-width="3" stroke-miterlimit="10" d="M-69.64-43.985
		c5.582-0.033,2.75-14.945,7.762-14.937"/>
	<path fill="none" stroke="#AAABAE" stroke-width="3" stroke-miterlimit="10" d="M-69.64-43.901
		c6.736-0.021,4.426,8.35,10.775,8.363"/>
</g>
<g id="check-box">
	<path fill="#AAABAE" d="M9.977-74.469c0,1.044-0.846,1.889-1.889,1.889H-5.134c-1.044,0-1.89-0.845-1.89-1.889V-87.69
		c0-1.044,0.846-1.889,1.89-1.889H8.088c1.043,0,1.889,0.845,1.889,1.889V-74.469z"/>
	
		<polyline fill="none" stroke="#2F3136" stroke-width="3" stroke-linecap="round" stroke-linejoin="round" stroke-miterlimit="10" points="
		-3.201,-81.033 0.871,-77.88 6.639,-85.443 	"/>
</g>
<g id="chart-pie">
	<circle fill="#AAABAE" cx="-22.951" cy="-79.524" r="7.943"/>
	<circle display="none" fill="none" stroke="#2452C6" stroke-miterlimit="10" cx="72.289" cy="-89.375" r="17.3"/>
	<path fill="#2F3136" stroke="#D7D9DD" stroke-miterlimit="10" d="M-22.951-79.524l1.419-9.486c4.029,0.6,6.845,3.448,7.881,6.766
		L-22.951-79.524z"/>
</g>
<g id="small-star">
	<polygon fill="#AAABAE" points="-45.895,-89.579 -43.113,-83.944 -36.895,-83.041 -41.395,-78.655 -40.33,-72.459 -45.895,-75.385 
		-51.457,-72.459 -50.395,-78.655 -54.895,-83.041 -48.676,-83.944 	"/>
</g>
<g id="big-star-selected">
	<polygon fill="none" stroke="#ECECEC" stroke-width="1.5" stroke-linejoin="round" stroke-miterlimit="10" points="-45.297,3.052 
		-42.516,8.687 -36.297,9.591 -40.797,13.976 -39.734,20.171 -45.297,17.247 -50.859,20.171 -49.797,13.976 -54.297,9.591 
		-48.078,8.687 	"/>
</g>
<g id="big-star">
	<polygon fill="none" stroke="#AAABAE" stroke-linejoin="round" stroke-miterlimit="10" points="-70.968,-88.449 -68.187,-82.813 
		-61.968,-81.91 -66.468,-77.524 -65.405,-71.33 -70.968,-74.254 -76.53,-71.33 -75.468,-77.524 -79.968,-81.91 -73.749,-82.813 	
		"/>
</g>
</svg>
