<?xml version="1.0" encoding="utf-8"?>
<!-- Generator: Adobe Illustrator 16.0.0, SVG Export Plug-In . SVG Version: 6.00 Build 0)  -->
<!DOCTYPE svg PUBLIC "-//W3C//DTD SVG 1.1//EN" "http://www.w3.org/Graphics/SVG/1.1/DTD/svg11.dtd">
<svg version="1.1" xmlns="http://www.w3.org/2000/svg" xmlns:xlink="http://www.w3.org/1999/xlink" x="0px" y="0px"
	 width="19.958px" height="18.492px" viewBox="0 0 19.958 18.492" enable-background="new 0 0 19.958 18.492" xml:space="preserve">
<g id="test-icon-3-2">
	
		<line fill="none" stroke="#ECECEC" stroke-width="1.5" stroke-linecap="round" stroke-miterlimit="10" x1="86.207" y1="-56.681" x2="90.159" y2="-56.681"/>
	
		<polyline fill="none" stroke="#ECECEC" stroke-width="1.5" stroke-linecap="round" stroke-linejoin="round" stroke-miterlimit="10" points="
		79.117,-52.458 75.888,-53.937 75.888,-60.112 79.148,-61.526 	"/>
	
		<line fill="none" stroke="#ECECEC" stroke-width="1.5" stroke-linecap="round" stroke-miterlimit="10" x1="75.301" y1="-56.679" x2="71.349" y2="-56.679"/>
	
		<polyline fill="none" stroke="#ECECEC" stroke-width="1.5" stroke-linecap="round" stroke-linejoin="round" stroke-miterlimit="10" points="
		82.968,-52.458 86.198,-53.937 86.198,-60.112 82.938,-61.526 	"/>
</g>
<g id="test-icon-3">
	
		<line fill="none" stroke="#AAABAE" stroke-linecap="round" stroke-miterlimit="10" x1="41.271" y1="8.814" x2="45.223" y2="8.814"/>
	<polyline fill="none" stroke="#AAABAE" stroke-linecap="round" stroke-linejoin="round" stroke-miterlimit="10" points="
		34.181,13.037 30.951,11.559 30.951,5.384 34.212,3.97 	"/>
	
		<line fill="none" stroke="#AAABAE" stroke-linecap="round" stroke-miterlimit="10" x1="30.364" y1="8.816" x2="26.412" y2="8.816"/>
	<polyline fill="none" stroke="#AAABAE" stroke-linecap="round" stroke-linejoin="round" stroke-miterlimit="10" points="
		38.031,13.037 41.262,11.559 41.262,5.384 38.001,3.97 	"/>
</g>
<g id="test-icon-2">
	<g display="none">
		<g display="inline">
			<g id="Chart_1_">
				<g>
					<path fill="#91969B" d="M2.479,16.216v-17.43h-2.49v18.675c0,0.687,0.557,1.245,1.245,1.245h18.674v-2.49H2.479z M5.592,13.726
						h1.245c0.344,0,0.623-0.278,0.623-0.622V6.879c0-0.344-0.278-0.623-0.623-0.623H5.592c-0.344,0-0.623,0.279-0.623,0.623v6.225
						C4.969,13.447,5.248,13.726,5.592,13.726z M9.327,13.726h1.245c0.344,0,0.623-0.278,0.623-0.622V1.898
						c0-0.343-0.278-0.622-0.623-0.622H9.327c-0.344,0-0.623,0.279-0.623,0.622v11.205C8.704,13.447,8.982,13.726,9.327,13.726z
						 M13.062,13.726h1.245c0.344,0,0.623-0.278,0.623-0.622V9.368c0-0.344-0.279-0.622-0.623-0.622h-1.245
						c-0.344,0-0.623,0.278-0.623,0.622v3.735C12.439,13.447,12.717,13.726,13.062,13.726z M16.796,13.726h1.245
						c0.344,0,0.623-0.278,0.623-0.622V4.389c0-0.344-0.278-0.622-0.623-0.622h-1.245c-0.344,0-0.623,0.278-0.623,0.622v8.715
						C16.174,13.447,16.453,13.726,16.796,13.726z"/>
				</g>
			</g>
		</g>
	</g>
	<g>
		<g>
			<g id="Chart">
				<g>
					<path fill="#AAABAE" d="M4.231,15.214h0.825c0.229,0,0.414-0.274,0.414-0.611V8.484c0-0.338-0.185-0.612-0.414-0.612H4.231
						c-0.229,0-0.414,0.274-0.414,0.612v6.118C3.817,14.939,4.002,15.214,4.231,15.214z"/>
				</g>
			</g>
		</g>
	</g>
	<polyline fill="none" stroke="#AAABAE" stroke-linecap="round" stroke-linejoin="round" stroke-miterlimit="10" points="
		19.458,17.992 0.5,17.992 0.5,0.5 	"/>
	<g>
		<g>
			<g id="Chart_2_">
				<g>
					<path fill="#AAABAE" d="M7.928,15.214h0.825c0.228,0,0.414-0.274,0.414-0.612V3.589c0-0.337-0.186-0.611-0.414-0.611H7.928
						c-0.229,0-0.414,0.274-0.414,0.611v11.013C7.515,14.939,7.699,15.214,7.928,15.214z"/>
				</g>
			</g>
		</g>
	</g>
	<g>
		<g>
			<g id="Chart_3_">
				<g>
					<path fill="#AAABAE" d="M11.731,15.233h0.824c0.229,0,0.414-0.183,0.414-0.408v-4.096c0-0.225-0.186-0.41-0.414-0.41h-0.824
						c-0.229,0-0.414,0.186-0.414,0.41v4.096C11.317,15.051,11.503,15.233,11.731,15.233z"/>
				</g>
			</g>
		</g>
	</g>
	<g>
		<g>
			<g id="Chart_4_">
				<g>
					<path fill="#AAABAE" d="M15.491,15.214h0.824c0.229,0,0.414-0.221,0.414-0.492V5.876c0-0.271-0.186-0.491-0.414-0.491h-0.824
						c-0.229,0-0.414,0.221-0.414,0.491v8.846C15.077,14.993,15.262,15.214,15.491,15.214z"/>
				</g>
			</g>
		</g>
	</g>
</g>
<g id="test-icon-1">
	<path fill="#AAABAE" stroke="#AAABAE" stroke-miterlimit="10" d="M-22.837,3.284c0,0.6-0.486,1.086-1.087,1.086h-0.61
		c-0.601,0-1.088-0.486-1.088-1.086V2.672c0-0.601,0.487-1.087,1.088-1.087h0.61c0.601,0,1.087,0.486,1.087,1.087V3.284z"/>
	<path fill="#AAABAE" stroke="#AAABAE" stroke-miterlimit="10" d="M-22.837,8.703c0,0.601-0.486,1.087-1.087,1.087h-0.61
		c-0.601,0-1.088-0.486-1.088-1.087V8.092c0-0.601,0.487-1.087,1.088-1.087h0.61c0.601,0,1.087,0.486,1.087,1.087V8.703z"/>
	<path fill="#AAABAE" stroke="#AAABAE" stroke-miterlimit="10" d="M-22.837,14.185c0,0.601-0.486,1.087-1.087,1.087h-0.61
		c-0.601,0-1.088-0.486-1.088-1.087v-0.611c0-0.601,0.487-1.087,1.088-1.087h0.61c0.601,0,1.087,0.486,1.087,1.087V14.185z"/>
	<rect x="-20.227" y="2.229" fill="#AAABAE" width="14.131" height="1.5"/>
	<rect x="-20.227" y="7.647" fill="#AAABAE" width="14.131" height="1.5"/>
	<rect x="-20.227" y="13.129" fill="#AAABAE" width="14.131" height="1.5"/>
</g>
<g id="circle">
	<path fill="#AAABAE" d="M63.817-30.625c0,6.074-4.925,11-11,11s-11-4.926-11-11c0-6.075,4.925-11,11-11S63.817-36.7,63.817-30.625z
		 M52.817-38.125c-4.143,0-7.5,3.357-7.5,7.5c0,4.143,3.357,7.5,7.5,7.5s7.5-3.357,7.5-7.5
		C60.317-34.767,56.96-38.125,52.817-38.125z"/>
</g>
<g id="minus">
	<path fill="#AAABAE" d="M35.817-40.625c0,0.553-0.447,1-1,1h-8c-0.553,0-1-0.447-1-1l0,0c0-0.553,0.447-1,1-1h8
		C35.37-41.625,35.817-41.177,35.817-40.625L35.817-40.625z"/>
</g>
<g id="plus">
	<path fill="#AAABAE" d="M19.817-37.125c0,0.5-0.405,0.904-0.905,0.904h-7.189c-0.5,0-0.905-0.404-0.905-0.904l0,0
		c0-0.5,0.405-0.905,0.905-0.905h7.189C19.412-38.03,19.817-37.625,19.817-37.125L19.817-37.125z"/>
	<path fill="#AAABAE" d="M15.316-41.625c0.5,0,0.905,0.405,0.905,0.905v7.189c0,0.5-0.405,0.905-0.905,0.905l0,0
		c-0.5,0-0.904-0.405-0.904-0.905v-7.189C14.412-41.219,14.816-41.625,15.316-41.625L15.316-41.625z"/>
</g>
<g id="topo">
	<polyline fill="#AAABAE" stroke="#AAABAE" stroke-width="3" stroke-miterlimit="10" points="-3.378,-40.261 -6.319,-38.914 
		-6.319,-33.286 -3.351,-31.998 	"/>
	<polyline fill="#AAABAE" stroke="#AAABAE" stroke-width="3" stroke-miterlimit="10" points="-2.108,-32.032 0.808,-33.369 
		0.808,-38.949 -2.136,-40.224 	"/>
	<polyline fill="#AAABAE" stroke="#AAABAE" stroke-width="3" stroke-miterlimit="10" points="-20.981,-26.48 -24.745,-24.756 
		-24.745,-17.557 -20.946,-15.908 	"/>
	<polyline fill="#AAABAE" stroke="#AAABAE" stroke-width="3" stroke-miterlimit="10" points="-19.358,-15.953 -15.628,-17.662 
		-15.628,-24.801 -19.394,-26.436 	"/>
	<polyline fill="#AAABAE" stroke="#AAABAE" stroke-width="3" stroke-miterlimit="10" points="-0.868,-16.963 -3.81,-15.613 
		-3.81,-9.986 -0.841,-8.699 	"/>
	<polyline fill="#AAABAE" stroke="#AAABAE" stroke-width="3" stroke-miterlimit="10" points="0.403,-8.732 3.317,-10.07 
		3.317,-15.648 0.372,-16.928 	"/>
	<path fill="none" stroke="#AAABAE" stroke-width="3" stroke-miterlimit="10" d="M-14.843-21.193
		c5.582-0.033,2.75-14.945,7.762-14.937"/>
	<path fill="none" stroke="#AAABAE" stroke-width="3" stroke-miterlimit="10" d="M-14.843-21.109
		c6.736-0.021,4.426,8.35,10.775,8.363"/>
</g>
<g id="check-box">
	<path fill="#AAABAE" d="M64.773-51.677c0,1.044-0.846,1.889-1.889,1.889H49.663c-1.044,0-1.89-0.845-1.89-1.889v-13.222
		c0-1.044,0.846-1.889,1.89-1.889h13.222c1.043,0,1.889,0.845,1.889,1.889V-51.677z"/>
	
		<polyline fill="none" stroke="#2F3136" stroke-width="3" stroke-linecap="round" stroke-linejoin="round" stroke-miterlimit="10" points="
		51.596,-58.241 55.668,-55.088 61.436,-62.651 	"/>
</g>
<g id="chart-pie">
	<circle fill="#AAABAE" cx="31.846" cy="-56.732" r="7.943"/>
	<circle display="none" fill="none" stroke="#2452C6" stroke-miterlimit="10" cx="127.086" cy="-66.583" r="17.3"/>
	<path fill="#2F3136" stroke="#D7D9DD" stroke-miterlimit="10" d="M31.846-56.732l1.419-9.486c4.029,0.6,6.845,3.448,7.881,6.766
		L31.846-56.732z"/>
</g>
<g id="small-star">
	<polygon fill="#AAABAE" points="8.902,-66.787 11.684,-61.152 17.902,-60.249 13.402,-55.863 14.467,-49.667 8.902,-52.593 
		3.34,-49.667 4.402,-55.863 -0.098,-60.249 6.121,-61.152 	"/>
</g>
<g id="big-star">
	<polygon fill="none" stroke="#AAABAE" stroke-miterlimit="10" points="-16.171,-65.657 -13.39,-60.022 -7.171,-59.118 
		-11.671,-54.732 -10.608,-48.539 -16.171,-51.462 -21.733,-48.539 -20.671,-54.732 -25.171,-59.118 -18.952,-60.022 	"/>
</g>
</svg>
