<?xml version="1.0" encoding="utf-8"?>
<!-- Generator: Adobe Illustrator 16.0.0, SVG Export Plug-In . SVG Version: 6.00 Build 0)  -->
<!DOCTYPE svg PUBLIC "-//W3C//DTD SVG 1.1//EN" "http://www.w3.org/Graphics/SVG/1.1/DTD/svg11.dtd">
<svg version="1.1" xmlns="http://www.w3.org/2000/svg" xmlns:xlink="http://www.w3.org/1999/xlink" x="0px" y="0px"
	 width="7.873px" height="7.872px" viewBox="0 0 7.873 7.872" enable-background="new 0 0 7.873 7.872" xml:space="preserve">
<g>
	<path fill="#8a8d93" d="M7.792,0.71c0.107,0.109,0.107,0.285,0,0.393L1.104,7.791c-0.109,0.108-0.284,0.108-0.393,0l-0.63-0.63
		c-0.108-0.108-0.108-0.283,0-0.393l6.688-6.688c0.109-0.107,0.284-0.107,0.394,0L7.792,0.71z"/>
	<path fill="#8a8d93" d="M0.711,0.081c0.108-0.108,0.283-0.108,0.393,0l6.688,6.688c0.107,0.109,0.107,0.284,0,0.393l-0.63,0.63
		c-0.108,0.108-0.284,0.108-0.394,0L0.081,1.103c-0.108-0.107-0.108-0.283,0-0.393L0.711,0.081z"/>
</g>
</svg>
