<?xml version="1.0" encoding="utf-8"?>
<!-- Generator: Adobe Illustrator 16.0.0, SVG Export Plug-In . SVG Version: 6.00 Build 0)  -->
<!DOCTYPE svg PUBLIC "-//W3C//DTD SVG 1.1//EN" "http://www.w3.org/Graphics/SVG/1.1/DTD/svg11.dtd">
<svg version="1.1" id="图层_1" xmlns="http://www.w3.org/2000/svg" xmlns:xlink="http://www.w3.org/1999/xlink" x="0px" y="0px"
	 width="12px" height="12px" viewBox="0 0 12 12" enable-background="new 0 0 12 12" xml:space="preserve">
<g>
	<path fill="#1F2126" d="M6.535,0c0.183,0.001,0.332,0.15,0.332,0.333v11.333C6.866,11.852,6.717,12,6.535,12l-1.069,0
		c-0.182,0-0.331-0.148-0.332-0.333V0.334c0.002-0.184,0.15-0.33,0.332-0.333L6.535,0z"/>
	<path fill="#1F2126" d="M0.002,5.467C0,5.284,0.15,5.135,0.335,5.134l11.334,0c0.183,0.002,0.33,0.15,0.331,0.333l-0.001,1.068
		C12,6.717,11.852,6.866,11.667,6.867H0.332C0.15,6.867,0.002,6.718,0,6.534L0.002,5.467z"/>
</g>
</svg>
