<?xml version="1.0" encoding="utf-8"?>
<!-- Generator: Adobe Illustrator 16.0.0, SVG Export Plug-In . SVG Version: 6.00 Build 0)  -->
<!DOCTYPE svg PUBLIC "-//W3C//DTD SVG 1.1//EN" "http://www.w3.org/Graphics/SVG/1.1/DTD/svg11.dtd">
<svg version="1.1" id="图层_1" xmlns="http://www.w3.org/2000/svg" xmlns:xlink="http://www.w3.org/1999/xlink" x="0px" y="0px"
	 width="28.389px" height="28.388px" viewBox="0 0 28.389 28.388" enable-background="new 0 0 28.389 28.388" xml:space="preserve">
<path fill="#d5d5d5" d="M28.096,2.563c0.391,0.391,0.391,1.023,0,1.414L3.978,28.094c-0.391,0.391-1.023,0.392-1.414,0.001
	l-2.271-2.271c-0.391-0.391-0.39-1.024,0.001-1.415L24.41,0.293c0.391-0.391,1.023-0.391,1.414,0L28.096,2.563z"/>
<path fill="#d5d5d5" d="M2.564,0.293c0.391-0.391,1.023-0.391,1.414,0L28.096,24.41c0.391,0.392,0.391,1.024,0,1.415l-2.271,2.271
	c-0.389,0.391-1.023,0.391-1.414,0L0.292,3.978c-0.391-0.391-0.39-1.024,0-1.414L2.564,0.293z"/>
</svg>
