<?xml version="1.0" encoding="utf-8"?>
<!-- Generator: Adobe Illustrator 16.0.0, SVG Export Plug-In . SVG Version: 6.00 Build 0)  -->
<!DOCTYPE svg PUBLIC "-//W3C//DTD SVG 1.1//EN" "http://www.w3.org/Graphics/SVG/1.1/DTD/svg11.dtd">
<svg version="1.1" id="Capa_1" xmlns="http://www.w3.org/2000/svg" xmlns:xlink="http://www.w3.org/1999/xlink" x="0px" y="0px"
	 width="100.604px" height="100px" viewBox="-3.101 -2.748 100.604 100" enable-background="new -3.101 -2.748 100.604 100"
	 xml:space="preserve">
<g>
	<g>
		<path fill="#ECECEC" d="M96.906,45.833L72.787,21.714c-0.75-0.75-2.076-0.75-2.826,0l-5.229,5.229
			c-0.781,0.781-0.781,2.047,0,2.828l17.478,17.475L64.732,64.725c-0.781,0.78-0.781,2.047,0,2.827l5.229,5.229
			c0.375,0.375,0.885,0.587,1.414,0.587s1.039-0.212,1.414-0.587l24.117-24.118C97.688,47.881,97.688,46.614,96.906,45.833z"/>
		<path fill="#ECECEC" d="M29.656,64.725L12.182,47.248l17.477-17.475c0.375-0.375,0.586-0.883,0.586-1.414
			c0-0.53-0.21-1.039-0.586-1.414l-5.229-5.229c-0.375-0.375-0.884-0.586-1.414-0.586c-0.53,0-1.039,0.211-1.414,0.586
			l-24.12,24.117c-0.781,0.781-0.781,2.047,0,2.829L21.601,72.78c0.375,0.375,0.884,0.587,1.414,0.587
			c0.53,0,1.039-0.212,1.414-0.587l5.229-5.229C30.439,66.771,30.439,65.505,29.656,64.725z"/>
		<path fill="#ECECEC" d="M60.967,13.6c-0.254-0.466-0.682-0.812-1.189-0.962l-4.239-1.251c-1.058-0.314-2.172,0.293-2.483,1.352
			l-19.68,66.643c-0.15,0.509-0.092,1.056,0.161,1.521c0.253,0.468,0.682,0.812,1.19,0.964l4.239,1.251
			c0.189,0.056,0.38,0.083,0.567,0.083c0.863,0,1.66-0.564,1.917-1.435l19.679-66.645C61.277,14.612,61.221,14.065,60.967,13.6z"/>
	</g>
</g>
</svg>
