<?xml version="1.0" encoding="utf-8"?>
<!-- Generator: Adobe Illustrator 16.0.0, SVG Export Plug-In . SVG Version: 6.00 Build 0)  -->
<!DOCTYPE svg PUBLIC "-//W3C//DTD SVG 1.1//EN" "http://www.w3.org/Graphics/SVG/1.1/DTD/svg11.dtd">
<svg version="1.1" xmlns="http://www.w3.org/2000/svg" xmlns:xlink="http://www.w3.org/1999/xlink" x="0px" y="0px"
	 width="55.199px" height="55.2px" viewBox="0 0 55.199 55.2" enable-background="new 0 0 55.199 55.2" xml:space="preserve">
<g id="copy">
	<path fill="#929292" d="M1.017,54.6c-0.343,0-0.417-0.074-0.417-0.417V15.517c0-0.343,0.074-0.417,0.417-0.417h38.667
		c0.343,0,0.417,0.074,0.417,0.417v38.667c0,0.343-0.074,0.417-0.417,0.417H1.017z M9.475,20.767c-1.829,0-3.208,1.379-3.208,3.208
		v21.75c0,1.829,1.379,3.208,3.208,3.208h21.75c1.829,0,3.208-1.379,3.208-3.208v-21.75c0-1.829-1.379-3.208-3.208-3.208H9.475z"/>
	<path fill="#929292" d="M49.35,40.1c-0.343,0-0.417-0.074-0.417-0.417V9.475c0-1.829-1.379-3.208-3.208-3.208H15.517
		c-0.343,0-0.417-0.074-0.417-0.417V1.017c0-0.343,0.074-0.417,0.417-0.417h38.667c0.342,0,0.416,0.074,0.416,0.417v38.667
		c0,0.343-0.074,0.417-0.416,0.417H49.35z"/>
</g>
</svg>
