<?xml version="1.0" encoding="utf-8"?>
<!-- Generator: Adobe Illustrator 16.0.0, SVG Export Plug-In . SVG Version: 6.00 Build 0)  -->
<!DOCTYPE svg PUBLIC "-//W3C//DTD SVG 1.1//EN" "http://www.w3.org/Graphics/SVG/1.1/DTD/svg11.dtd">
<svg version="1.1"  xmlns="http://www.w3.org/2000/svg" xmlns:xlink="http://www.w3.org/1999/xlink" x="0px" y="0px"
	 width="36.304px" height="36.447px" viewBox="0 0 36.304 36.447" enable-background="new 0 0 36.304 36.447" xml:space="preserve">
<g>
	<g>
		<path fill="#72767D" d="M23.312,2.75c0-0.688,0.525-1.25,1.17-1.25c0.646,0,1.17,0.562,1.17,1.25v4.896
			c0,0.688-0.523,1.25-1.17,1.25c-0.645,0-1.17-0.562-1.17-1.25V2.75z M15.231,2.75c0-0.688,0.525-1.25,1.17-1.25
			c0.646,0,1.17,0.562,1.17,1.25v4.896c0,0.688-0.524,1.25-1.17,1.25c-0.645,0-1.17-0.562-1.17-1.25V2.75z M7.15,2.75
			c0-0.688,0.525-1.25,1.17-1.25c0.646,0,1.17,0.562,1.17,1.25v4.896c0,0.688-0.524,1.25-1.17,1.25c-0.645,0-1.17-0.562-1.17-1.25
			V2.75z M32.5,13.654V8.197c0-2.342-1.907-4.249-4.25-4.249h-1.099V2.75c0-1.517-1.196-2.75-2.67-2.75s-2.67,1.233-2.67,2.75v1.197
			h-2.74V2.75c0-1.517-1.196-2.75-2.67-2.75c-1.473,0-2.67,1.233-2.67,2.75v1.197h-2.74V2.75c0-1.517-1.196-2.75-2.67-2.75
			c-1.473,0-2.67,1.233-2.67,2.75v1.197H4.25C1.906,3.947,0,5.854,0,8.197v24c0,2.343,1.906,4.25,4.25,4.25h9.64l0.001-2.499H4.25
			c-0.966,0-1.75-0.785-1.75-1.75v-22H30v3.456H32.5z"/>
		<rect x="4.75" y="14.626" display="none" fill="#72767D" width="16.864" height="9.57"/>
		<rect x="23.153" y="14.626" display="none" fill="#72767D" width="4.597" height="4.089"/>
		<rect x="23.153" y="20.084" display="none" fill="#72767D" width="4.597" height="4.086"/>
		<rect x="4.75" y="25.54" fill="#72767D" width="4.595" height="4.086"/>
		<rect x="10.883" y="25.54" fill="#72767D" width="4.596" height="4.086"/>
		<rect x="17.021" y="25.54" display="none" fill="#72767D" width="4.595" height="4.086"/>
		<rect x="23.153" y="25.54" display="none" fill="#72767D" width="4.597" height="4.086"/>
		<rect x="4.748" y="18.366" fill="#72767D" width="4.595" height="4.086"/>
		<rect x="10.881" y="18.366" fill="#72767D" width="4.596" height="4.086"/>
		<rect x="17.019" y="18.366" display="none" fill="#72767D" width="4.595" height="4.086"/>
	</g>
</g>
<path fill="#72767D" d="M36.304,26.348c0,5.455-4.422,9.879-9.877,9.879s-9.878-4.424-9.878-9.879s4.423-9.877,9.878-9.877
	S36.304,20.893,36.304,26.348z M33.835,26.348c0-4.085-3.323-7.408-7.408-7.408s-7.408,3.323-7.408,7.408s3.323,7.408,7.408,7.408
	S33.835,30.433,33.835,26.348z"/>
<path fill="#72767D" d="M24.823,30.631c-0.187,0-0.338-0.064-0.474-0.2l-3.134-3.374L21.107,26.9
	c-0.087-0.08-0.165-0.266-0.165-0.432c0-0.165,0.078-0.352,0.199-0.473l0.562-0.562c0.129-0.129,0.297-0.2,0.475-0.2
	c0.176,0,0.344,0.071,0.473,0.2l2.192,2.35l5.315-5.512l0.07-0.031c0.124-0.111,0.281-0.174,0.446-0.174
	c0.176,0,0.345,0.072,0.475,0.201l0.56,0.561c0.13,0.129,0.201,0.299,0.201,0.475c0,0.178-0.072,0.346-0.202,0.475l-6.408,6.649
	C25.161,30.566,25.011,30.631,24.823,30.631z"/>
</svg>
