<?xml version="1.0" encoding="utf-8"?>
<!-- Generator: Adobe Illustrator 16.0.0, SVG Export Plug-In . SVG Version: 6.00 Build 0)  -->
<!DOCTYPE svg PUBLIC "-//W3C//DTD SVG 1.1//EN" "http://www.w3.org/Graphics/SVG/1.1/DTD/svg11.dtd">
<svg version="1.1" xmlns="http://www.w3.org/2000/svg" xmlns:xlink="http://www.w3.org/1999/xlink" x="0px" y="0px"
	 width="92px" height="92.008px" viewBox="0 0 92 92.008" enable-background="new 0 0 92 92.008" xml:space="preserve">
<path fill="#1E2125" d="M83.535,92.008c-2.312,0-4.443-0.857-6-2.413l-31.539-31.54L14.464,89.587C12.908,91.144,10.788,92,8.493,92
	c-0.13,0-0.261-0.003-0.392-0.008c-1.563-0.065-3.817-0.535-5.688-2.406c-1.871-1.864-2.34-4.121-2.405-5.686
	c-0.097-2.454,0.757-4.717,2.405-6.365l31.531-31.531L2.414,14.465c-1.654-1.654-2.508-3.914-2.405-6.362
	c0.064-1.564,0.534-3.818,2.405-5.688c1.866-1.873,4.121-2.342,5.685-2.406c0.119-0.005,0.244-0.007,0.37-0.007
	c2.311,0,4.44,0.857,5.995,2.413l31.532,31.541L77.528,2.414C79.081,0.855,81.199,0,83.498,0c0.131,0,0.262,0.003,0.392,0.008
	c1.563,0.065,3.817,0.535,5.688,2.405C91.45,4.28,91.918,6.535,91.983,8.1c0.103,2.457-0.752,4.72-2.405,6.374L58.046,46.004
	l31.539,31.54c1.654,1.654,2.509,3.914,2.406,6.362c-0.065,1.563-0.535,3.817-2.406,5.688c-1.865,1.872-4.12,2.341-5.685,2.405
	C83.785,92.005,83.661,92.008,83.535,92.008L83.535,92.008z"/>
</svg>
