<?xml version="1.0" encoding="utf-8"?>
<!-- Generator: Adobe Illustrator 16.0.0, SVG Export Plug-In . SVG Version: 6.00 Build 0)  -->
<!DOCTYPE svg PUBLIC "-//W3C//DTD SVG 1.1//EN" "http://www.w3.org/Graphics/SVG/1.1/DTD/svg11.dtd">
<svg version="1.1" id="Capa_1" xmlns="http://www.w3.org/2000/svg" xmlns:xlink="http://www.w3.org/1999/xlink" x="0px" y="0px"
	 width="230.078px" height="230.094px" viewBox="190.971 190.952 230.078 230.094"
	 enable-background="new 190.971 190.952 230.078 230.094" xml:space="preserve">
<g>
	<g id="Error">
		<g>
			<path fill="#1E2125" d="M420.501,218.79c-0.286-6.942-2.868-13.827-8.186-19.125c-5.298-5.298-12.184-7.898-19.125-8.186
				c-7.727-0.325-15.549,2.276-21.438,8.186L306,265.436l-65.752-65.771c-5.909-5.91-13.712-8.492-21.439-8.186
				c-6.942,0.287-13.827,2.869-19.125,8.186c-5.297,5.298-7.898,12.183-8.186,19.125c-0.325,7.727,2.276,15.529,8.186,21.439
				L265.436,306l-65.752,65.752c-5.91,5.909-8.492,13.713-8.186,21.438c0.287,6.942,2.869,13.828,8.186,19.126
				c5.298,5.298,12.183,7.898,19.125,8.186c7.727,0.325,15.53-2.275,21.439-8.186L306,346.564l65.771,65.771
				c5.909,5.909,13.713,8.491,21.438,8.187c6.942-0.287,13.827-2.869,19.125-8.187c5.298-5.298,7.898-12.183,8.187-19.125
				c0.324-7.728-2.276-15.528-8.187-21.438L346.564,306l65.751-65.752C418.226,234.339,420.826,226.536,420.501,218.79z"/>
		</g>
	</g>
</g>
</svg>
