<?xml version="1.0" encoding="utf-8"?>
<!-- Generator: Adobe Illustrator 16.0.0, SVG Export Plug-In . SVG Version: 6.00 Build 0)  -->
<!DOCTYPE svg PUBLIC "-//W3C//DTD SVG 1.1//EN" "http://www.w3.org/Graphics/SVG/1.1/DTD/svg11.dtd">
<svg version="1.1" xmlns="http://www.w3.org/2000/svg" xmlns:xlink="http://www.w3.org/1999/xlink" x="0px" y="0px" width="34px"
	 height="34px" viewBox="0 0 34 34" enable-background="new 0 0 34 34" xml:space="preserve">
<g>
	<path display="none" fill="none" d="M18.504,10.773l2.154-4.148C19.514,6.221,18.282,6,17,6C10.935,6,6,10.935,6,17
		c0,6.065,4.935,11,11,11c6.066,0,11-4.935,11-11c0-0.769-0.08-1.519-0.23-2.243l-5.422,1.188L18.504,10.773z"/>
	<path fill="#E94545" d="M27.77,14.757C27.92,15.482,28,16.232,28,17c0,6.065-4.935,11-11,11c-6.065,0-11-4.935-11-11
		c0-6.066,4.935-11,11-11c1.282,0,2.514,0.221,3.659,0.625l-3.186-3.993l5.969-1.365C21.454,0.451,19.279,0,17,0
		C7.626,0,0,7.626,0,17s7.626,17,17,17c9.375,0,17-7.626,17-17c0-1.209-0.127-2.389-0.368-3.527l-4.284-3.153L27.77,14.757z"/>
	<path display="none" fill="#E94545" d="M20.667,6.628c-0.003-0.001-0.006-0.001-0.009-0.003l-2.154,4.148l3.844,5.171l5.422-1.188
		c0-0.001-0.001-0.003-0.001-0.005C26.981,10.973,24.249,7.899,20.667,6.628z"/>
	<path display="none" fill="#E94545" d="M33.632,13.473L33.632,13.473l3.517-0.77L24.741-1.233l-1.299,2.5
		c0.001,0,0.001,0.001,0.002,0.001C28.578,3.379,32.459,7.932,33.632,13.473z"/>
	<path display="none" fill="#E94545" d="M20.667,6.628c3.581,1.271,6.313,4.344,7.102,8.124c0,0.001,0.001,0.003,0.001,0.005
		l5.862-1.284l0,0C32.459,7.932,28.578,3.379,23.444,1.268c-0.001,0-0.001,0-0.002-0.001l-2.783,5.358
		C20.662,6.627,20.665,6.627,20.667,6.628z"/>
</g>
</svg>
