<?xml version="1.0" encoding="utf-8"?>
<!-- Generator: Adobe Illustrator 16.0.0, SVG Export Plug-In . SVG Version: 6.00 Build 0)  -->
<!DOCTYPE svg PUBLIC "-//W3C//DTD SVG 1.1//EN" "http://www.w3.org/Graphics/SVG/1.1/DTD/svg11.dtd">
<svg version="1.1" xmlns="http://www.w3.org/2000/svg" xmlns:xlink="http://www.w3.org/1999/xlink" x="0px" y="0px" width="9.874px"
	 height="54.1px" viewBox="28.334 8.514 9.874 54.1" enable-background="new 28.334 8.514 9.874 54.1" xml:space="preserve">
<g id="Layer_1" display="none">
	<path display="inline" fill="#299964" d="M21.586,51.586c-1.217,0-2.436-0.464-3.365-1.394L1.394,33.365
		c-1.859-1.859-1.859-4.872,0-6.731c1.859-1.858,4.872-1.858,6.731,0l13.461,13.461L51.875,9.808c1.859-1.858,4.873-1.859,6.73,0
		c1.859,1.859,1.859,4.873,0,6.73L24.952,50.192C24.022,51.121,22.804,51.586,21.586,51.586z"/>
</g>
<g id="图层_4">
	<path display="none" fill="#299964" d="M21.586,51.586c-1.217,0-2.436-0.464-3.365-1.394L1.394,33.365
		c-1.859-1.859-1.859-4.872,0-6.73c1.859-1.859,4.872-1.859,6.731,0l13.461,13.461L51.875,9.808c1.859-1.858,4.873-1.858,6.73,0
		c1.859,1.858,1.859,4.872,0,6.73L24.952,50.192C24.022,51.121,22.804,51.586,21.586,51.586z"/>
	<g display="none">
		<g display="inline">
			<path fill="#010002" d="M26.746,9.765L0.909,35.611c-0.97,0.969-1.552,2.326-1.552,3.488c0,1.166,0.583,2.334,1.552,3.309
				c1.944,1.939,4.663,1.939,6.606,0l22.535-22.532l22.533,22.53c1.94,1.941,4.664,1.941,6.602,0c1.944-1.941,1.944-4.857,0-6.795
				L33.354,9.765c-0.972-0.97-2.139-1.351-3.303-1.351C28.689,8.414,27.717,8.795,26.746,9.765z"/>
		</g>
	</g>
	<path fill="#FFFFFF" d="M38.167,40.43c0,2.716-2.201,4.917-4.917,4.917l0,0c-2.715,0-4.916-2.201-4.916-4.917V13.431
		c0-2.715,2.201-4.917,4.916-4.917l0,0c2.716,0,4.917,2.201,4.917,4.917V40.43z"/>
	<circle fill="#FFFFFF" cx="33.292" cy="57.696" r="4.916"/>
</g>
<g id="图层_2" display="none">
	
		<polyline display="inline" fill="none" stroke="#42BA83" stroke-width="8" stroke-linecap="round" stroke-linejoin="round" stroke-miterlimit="10" points="
		1.394,26.634 21.25,45.25 58.605,9.808 	"/>
</g>
<g id="图层_3" display="none">
	
		<line display="inline" fill="none" stroke="#33363C" stroke-width="8" stroke-linecap="round" stroke-linejoin="round" stroke-miterlimit="10" x1="12.278" y1="45.318" x2="47.721" y2="9.866"/>
	
		<line display="inline" fill="none" stroke="#33363C" stroke-width="8" stroke-linecap="round" stroke-linejoin="round" stroke-miterlimit="10" x1="12.278" y1="9.867" x2="47.721" y2="45.318"/>
</g>
</svg>
