<?xml version="1.0" encoding="utf-8"?>
<!-- Generator: Adobe Illustrator 16.0.0, SVG Export Plug-In . SVG Version: 6.00 Build 0)  -->
<!DOCTYPE svg PUBLIC "-//W3C//DTD SVG 1.1//EN" "http://www.w3.org/Graphics/SVG/1.1/DTD/svg11.dtd">
<svg version="1.1" id="Capa_1" xmlns="http://www.w3.org/2000/svg" xmlns:xlink="http://www.w3.org/1999/xlink" x="0px" y="0px"
	 width="40.188px" height="40.156px" viewBox="236 236 40.188 40.156" enable-background="new 236 236 40.188 40.156"
	 xml:space="preserve">
<g>
	<g>
		<path fill="#830B0B" d="M256,236c-11.045,0-20,8.955-20,20s8.955,20,20,20c11.046,0,20-8.955,20-20S267.046,236,256,236z
			 M256,270.309c-7.902,0-14.308-6.406-14.308-14.308c0-2.865,0.845-5.531,2.296-7.769l19.781,19.781
			C261.531,269.463,258.865,270.309,256,270.309z M268.012,263.77l-19.781-19.781c2.238-1.451,4.904-2.295,7.769-2.295
			c7.901,0,14.308,6.405,14.308,14.308C270.308,258.866,269.462,261.532,268.012,263.77z"/>
	</g>
</g>
</svg>
