<?xml version="1.0" encoding="utf-8"?>
<!-- Generator: Adobe Illustrator 16.0.0, SVG Export Plug-In . SVG Version: 6.00 Build 0)  -->
<!DOCTYPE svg PUBLIC "-//W3C//DTD SVG 1.1//EN" "http://www.w3.org/Graphics/SVG/1.1/DTD/svg11.dtd">
<svg version="1.1" id="图层_1" xmlns="http://www.w3.org/2000/svg" xmlns:xlink="http://www.w3.org/1999/xlink" x="0px" y="0px"
	 width="60px" height="60px" viewBox="0 0 60 60" enable-background="new 0 0 60 60" xml:space="preserve">
<g>
	<g>
		<g>
			<path fill="#ECECEC" d="M32.146,11.383c-0.537-0.536-1.405-0.536-1.941,0l-5.49,5.49c-0.536,0.536-0.536,1.405,0,1.941
				l1.775,1.775L7.105,39.973c-1.296,1.299-2.009,3.021-2.009,4.854s-0.538,3.604-1.553,5.13L0.461,54.58
				c-0.727,1.089-0.582,2.538,0.343,3.463l1.153,1.152C2.488,59.727,3.19,60,3.899,60c0.527,0,1.056-0.15,1.521-0.461l4.867-3.244
				c1.365-0.91,2.955-1.391,4.598-1.391c1.886,0,3.703-0.782,4.98-2.144c3.452-3.67,14.045-14.019,19.496-19.301l1.824,1.824
				c0.269,0.268,0.619,0.401,0.972,0.401c0.352,0,0.7-0.135,0.971-0.401l5.49-5.49c0.534-0.536,0.534-1.404,0-1.941L32.146,11.383z
				 M15.864,49.002c-0.241,0.258-0.607,0.412-0.979,0.412c-1.89,0-3.737,0.383-5.447,1.12c0.756-1.798,1.149-3.733,1.149-5.709
				c0-0.371,0.139-0.709,0.402-0.972L30.372,24.47l5.106,5.107C30.421,34.48,19.557,45.076,15.864,49.002z"/>
			<path fill="#ECECEC" d="M49.958,0c-2.685,0-5.205,1.045-7.101,2.941l-6.557,6.556c-0.533,0.533-0.533,1.396,0,1.928
				l12.273,12.272c0.266,0.267,0.615,0.399,0.965,0.399c0.348,0,0.697-0.133,0.963-0.399l6.557-6.556
				C58.956,15.244,60,12.723,60,10.042C60,4.505,55.495,0,49.958,0z"/>
		</g>
	</g>
</g>
</svg>
