<?xml version="1.0" encoding="utf-8"?>
<!-- Generator: Adobe Illustrator 16.0.0, SVG Export Plug-In . SVG Version: 6.00 Build 0)  -->
<!DOCTYPE svg PUBLIC "-//W3C//DTD SVG 1.1//EN" "http://www.w3.org/Graphics/SVG/1.1/DTD/svg11.dtd">
<svg version="1.1"  xmlns="http://www.w3.org/2000/svg" xmlns:xlink="http://www.w3.org/1999/xlink" x="0px" y="0px"
	 width="80.241px" height="49.368px" style="opacity:.6;" viewBox="0 0 80.241 49.368" enable-background="new 0 0 80.241 49.368" xml:space="preserve">
<linearGradient id="SVGID_1_" gradientUnits="userSpaceOnUse" x1="19.6226" y1="25.8965" x2="19.6226" y2="4.127" gradientTransform="matrix(-1 0 0 1 80.2412 0)">
	<stop  offset="0" style="stop-color:#3EACDA"/>
	<stop  offset="1" style="stop-color:#587ED3"/>
</linearGradient>
<path fill="url(#SVGID_1_)" d="M48.291,13.335c-0.001-1.836,0-5.876,0-5.876c2.275-3.312,6.868-3.332,11.763-3.332l1.167,0.003
	c3.845-0.003,9,0.017,11.727,3.329c0,0-0.001,1.394,0,5.875c0,7.007-5.379,12.562-12.188,12.562S48.291,20.343,48.291,13.335z"/>
<linearGradient id="SVGID_2_" gradientUnits="userSpaceOnUse" x1="60.6172" y1="25.8965" x2="60.6172" y2="4.127" gradientTransform="matrix(-1 0 0 1 80.2412 0)">
	<stop  offset="0" style="stop-color:#3EACDA"/>
	<stop  offset="1" style="stop-color:#587ED3"/>
</linearGradient>
<path fill="url(#SVGID_2_)" d="M31.951,13.335c0-1.836,0-5.876,0-5.876c-2.275-3.312-6.869-3.332-11.764-3.332L19.021,4.13
	c-3.846-0.003-9.001,0.017-11.727,3.329c0,0,0,1.394,0,5.875c0,7.007,5.379,12.562,12.188,12.562S31.951,20.343,31.951,13.335z"/>
<g>
	<path fill="#262328" stroke="#181925" stroke-linecap="round" stroke-linejoin="round" stroke-miterlimit="10" d="M0.5,3.569
		c0,0,0,2.869,0,3.828c0.852-0.188,3.081,0.249,3.646,0.781c0,0,0,0.893,0,4.647c0,9.032,6.696,16.354,15.291,16.354
		S34.993,21.897,35,12.826c0.003-1.851,3.19-3.679,4.55-3.679c0.382,0,0.708,0,1.094,0c1.391,0,4.609,1.828,4.598,3.679
		c-0.021,9.032,6.968,16.354,15.562,16.354s15.292-7.322,15.292-16.354c0-3.755,0-4.647,0-4.647c0.564-0.532,2.793-0.97,3.646-0.781
		c0-0.959,0-3.828,0-3.828l-5.969-0.031c-3.52-1.578-7.063-2.62-9.781-2.885c-2.301-0.225-4.02-0.193-6.958,0.038
		c-3.995,0.314-7.869,1.745-10.459,3.455h-0.011c0.003,0,0.007,0.001,0.011,0.001H33.665c0.004,0,0.009-0.001,0.013-0.002h-0.012
		c-2.59-1.709-6.463-3.141-10.457-3.455c-2.939-0.231-4.658-0.262-6.959-0.038c-2.718,0.265-6.262,1.307-9.781,2.885L0.5,3.569z
		 M48.291,7.459c2.275-3.312,6.868-3.332,11.763-3.332l1.167,0.003c3.845-0.003,9,0.017,11.727,3.329c0,0-0.001,1.394,0,5.875
		c0,7.007-5.379,12.562-12.188,12.562s-12.469-5.554-12.469-12.562C48.29,11.5,48.291,7.459,48.291,7.459z M7.295,7.459
		c2.726-3.312,7.881-3.332,11.727-3.329l1.166-0.003c4.895,0,9.488,0.02,11.764,3.332c0,0,0,4.04,0,5.876
		c0,7.007-5.66,12.562-12.469,12.562S7.295,20.342,7.295,13.334C7.295,8.853,7.295,7.459,7.295,7.459z"/>
</g>
<path fill="#262328" stroke="#181925" stroke-width="0.5" stroke-miterlimit="10" d="M45.367,49.122
	c6.761,0,14.258-0.932,19.654-6.905c0.74-0.82,0.676-2.084-0.144-2.825c-0.821-0.739-2.085-0.676-2.825,0.144
	c-4.526,5.012-11.046,5.646-17.419,5.583c-0.007,0-0.013,0-0.021,0c-1.095,0-1.988,0.883-1.999,1.98
	c-0.011,1.104,0.876,2.009,1.98,2.02C44.852,49.121,45.108,49.122,45.367,49.122z"/>
</svg>
