<?xml version="1.0" encoding="utf-8"?>
<!-- Generator: Adobe Illustrator 16.0.0, SVG Export Plug-In . SVG Version: 6.00 Build 0)  -->
<!DOCTYPE svg PUBLIC "-//W3C//DTD SVG 1.1//EN" "http://www.w3.org/Graphics/SVG/1.1/DTD/svg11.dtd">
<svg version="1.1" xmlns="http://www.w3.org/2000/svg" xmlns:xlink="http://www.w3.org/1999/xlink" x="0px" y="0px"
	 width="20.552px" height="23.313px" viewBox="0 0 20.552 23.313" enable-background="new 0 0 20.552 23.313" xml:space="preserve">
<g id="calendar2">
	<path fill="none" stroke="#AAABAE" stroke-width="2" stroke-miterlimit="10" d="M-36.443,63.976c1.519,0,2.748,1.259,2.748,2.81
		v13.356c0,1.551-1.229,2.81-2.748,2.81h-13.056c-1.519,0-2.748-1.259-2.748-2.81V66.786c0-1.551,1.229-2.81,2.748-2.81"/>
	<line fill="none" stroke="#AAABAE" stroke-width="2" stroke-miterlimit="10" x1="-51.845" y1="69.978" x2="-34.665" y2="69.978"/>
	<line fill="none" stroke="#AAABAE" stroke-width="2" stroke-miterlimit="10" x1="-45.374" y1="63.961" x2="-40.864" y2="63.961"/>
	<rect x="-49.23" y="72.887" fill="#EDEFF4" width="1.947" height="2.129"/>
	<rect x="-46.833" y="72.887" fill="#EDEFF4" width="1.946" height="2.129"/>
	<rect x="-44.229" y="72.88" fill="#EDEFF4" width="1.947" height="2.129"/>
	<rect x="-41.851" y="72.887" fill="#EDEFF4" width="1.947" height="2.129"/>
	<rect x="-39.289" y="72.887" fill="#EDEFF4" width="1.947" height="2.129"/>
	<rect x="-49.23" y="75.576" fill="#EDEFF4" width="1.947" height="2.128"/>
	<rect x="-46.833" y="75.576" fill="#EDEFF4" width="1.946" height="2.128"/>
	<rect x="-44.229" y="75.576" fill="#BFC0C4" width="1.947" height="2.128"/>
	<rect x="-41.851" y="75.576" fill="#BFC0C4" width="1.947" height="2.128"/>
	<rect x="-39.289" y="75.576" fill="#BFC0C4" width="1.947" height="2.128"/>
	<rect x="-49.23" y="78.151" fill="#BFC0C4" width="1.947" height="2.129"/>
	<rect x="-46.833" y="78.151" fill="#BFC0C4" width="1.946" height="2.129"/>
	<rect x="-44.229" y="78.151" fill="#BFC0C4" width="1.947" height="2.129"/>
	<rect x="-41.851" y="78.151" fill="#BFC0C4" width="1.947" height="2.129"/>
	<rect x="-39.289" y="78.151" fill="#BFC0C4" width="1.947" height="2.129"/>
	<path fill="#AAABAE" d="M-46.414,66.375c0,0.519-0.438,0.936-0.979,0.936h-0.245c-0.54,0-0.977-0.417-0.977-0.936v-4.831
		c0-0.515,0.437-0.934,0.977-0.934h0.245c0.541,0,0.979,0.419,0.979,0.934V66.375z"/>
	<path fill="#AAABAE" d="M-37.351,66.405c0,0.518-0.438,0.936-0.978,0.936h-0.244c-0.539,0-0.978-0.418-0.978-0.936v-4.832
		c0-0.517,0.438-0.933,0.978-0.933h0.244c0.539,0,0.978,0.416,0.978,0.933V66.405z"/>
</g>
<g id="calendar">
	<path fill="none" stroke="#AAABAE" stroke-width="2" stroke-miterlimit="10" d="M-57.951,78.035c0,2.717-2.492,4.92-5.566,4.92
		h-7.419c-3.074,0-5.565-2.203-5.565-4.92V66.56c0-2.72,2.491-4.922,5.565-4.922h7.419c3.074,0,5.566,2.202,5.566,4.922V78.035z"/>
	
		<text transform="matrix(1 0 0 1 -73.2012 79.0415)" fill="#AAABAE" stroke="#AAABAE" stroke-width="0.75" stroke-miterlimit="10" font-family="'HelveticaNeue-Light'" font-size="12">31</text>
	
		<line fill="none" stroke="#AAABAE" stroke-width="1.5" stroke-miterlimit="10" x1="-76.502" y1="67.101" x2="-57.951" y2="67.101"/>
</g>
<g id="图层_1">
	<path display="none" fill="none" stroke="#AAABAE" stroke-miterlimit="10" d="M-90.345,18.683c0,0.519-0.448,0.939-1,0.939h-16
		c-0.552,0-1-0.42-1-0.939V-0.105c0-0.519,0.448-0.939,1-0.939h16c0.552,0,1,0.42,1,0.939V18.683z"/>
	<rect x="-103.314" y="6.316" fill="#AAABAE" width="10.5" height="3.233"/>
	<rect x="-106.147" y="8.775" display="none" fill="#AAABAE" width="13.667" height="1.208"/>
	<rect x="-103.314" y="13.455" fill="#AAABAE" width="6.833" height="1.465"/>
	<rect x="-106.147" y="12.775" display="none" fill="#AAABAE" width="13.667" height="1.208"/>
	<rect x="-103.314" y="17.243" fill="#AAABAE" width="13.667" height="1.543"/>
	<path fill="none" stroke="#AAABAE" stroke-width="2" stroke-miterlimit="10" d="M-87.293,18.851c0,2.716-2.492,4.918-5.565,4.918
		h-7.42c-3.074,0-5.565-2.203-5.565-4.918V7.374c0-2.716,2.492-4.918,5.565-4.918h7.42c3.073,0,5.565,2.202,5.565,4.918V18.851z"/>
</g>
<g id="图层_2">
	<circle fill="none" stroke="#AAABAE" stroke-width="2.25" stroke-miterlimit="10" cx="-70.543" cy="11.232" r="8.24"/>
	
		<line fill="none" stroke="#AAABAE" stroke-width="2" stroke-linecap="round" stroke-miterlimit="10" x1="-65.181" y1="17.482" x2="-60.783" y2="21.879"/>
</g>
<g id="图层_8">
	<path fill="#D3D6D9" stroke="#D3D6D9" stroke-width="2" stroke-miterlimit="10" d="M-6.507,18.173c0,2.717-2.492,4.919-5.564,4.919
		h-7.421c-3.073,0-5.565-2.202-5.565-4.919V6.697c0-2.717,2.492-4.919,5.565-4.919h7.421c3.072,0,5.564,2.202,5.564,4.919V18.173z"
		/>
	<rect x="-22.527" y="5.639" fill="#1E2124" width="10.5" height="3.233"/>
	<rect x="-22.527" y="12.777" fill="#1E2124" width="6.833" height="1.466"/>
	<rect x="-22.527" y="16.565" fill="#1E2124" width="13.667" height="1.543"/>
	<path fill="none" stroke="#565656" stroke-miterlimit="10" d="M-11.845,20.438"/>
</g>
<g id="图层_3">
	<polyline fill="none" stroke="#AAABAE" stroke-miterlimit="10" points="-38.206,1.911 -40.117,2.786 -40.117,6.442 -38.188,7.278 	
		"/>
	<polyline fill="none" stroke="#AAABAE" stroke-miterlimit="10" points="-37.381,7.256 -35.486,6.387 -35.486,2.762 -37.399,1.934 	
		"/>
	<polyline fill="none" stroke="#AAABAE" stroke-miterlimit="10" points="-49.642,10.862 -52.087,11.983 -52.087,16.659 
		-49.618,17.731 	"/>
	<polyline fill="none" stroke="#AAABAE" stroke-miterlimit="10" points="-48.586,17.702 -46.163,16.59 -46.163,11.954 
		-48.609,10.891 	"/>
	<polyline fill="none" stroke="#AAABAE" stroke-miterlimit="10" points="-36.575,17.045 -38.486,17.922 -38.486,21.577 
		-36.558,22.415 	"/>
	<polyline fill="none" stroke="#AAABAE" stroke-miterlimit="10" points="-35.75,22.391 -33.855,21.524 -33.855,17.899 
		-35.769,17.069 	"/>
	<path fill="none" stroke="#AAABAE" stroke-miterlimit="10" d="M-45.653,14.297c3.625-0.021,1.786-9.709,5.042-9.703"/>
	<path fill="none" stroke="#565656" stroke-miterlimit="10" d="M-92.632,21.116"/>
	<path fill="none" stroke="#AAABAE" stroke-miterlimit="10" d="M-45.653,14.352c4.375-0.014,2.875,5.424,7,5.434"/>
</g>
<g id="图层_7">
	<line fill="none" stroke="#AAABAE" stroke-width="2" stroke-miterlimit="10" x1="-37.68" y1="42.425" x2="-34.125" y2="42.425"/>
	<path fill="none" stroke="#AAABAE" stroke-width="2" stroke-miterlimit="10" d="M-33.293,48.164c0,2.717-2.492,4.918-5.565,4.918
		h-7.42c-3.074,0-5.566-2.201-5.566-4.918V36.688c0-2.716,2.492-4.918,5.566-4.918h7.42c3.073,0,5.565,2.202,5.565,4.918V48.164z"/>
	<polyline fill="none" stroke="#AAABAE" stroke-width="2" stroke-miterlimit="10" points="-44.055,46.22 -46.958,44.89 
		-46.958,39.338 -44.026,38.066 	"/>
	<line fill="none" stroke="#AAABAE" stroke-width="2" stroke-miterlimit="10" x1="-47.714" y1="42.425" x2="-51.269" y2="42.425"/>
	<polyline fill="none" stroke="#AAABAE" stroke-width="2" stroke-miterlimit="10" points="-40.592,46.22 -37.688,44.89 
		-37.688,39.338 -40.619,38.066 	"/>
</g>
<g id="file-sight-2">
	<rect x="3.53" y="4.86" fill="#ECECEC" width="10.5" height="3.233"/>
	<rect x="3.53" y="11.999" fill="#ECECEC" width="6.833" height="1.465"/>
	<rect x="3.53" y="15.787" fill="#ECECEC" width="13.667" height="1.543"/>
	<path fill="none" stroke="#ECECEC" stroke-width="2" stroke-miterlimit="10" d="M19.551,17.395c0,2.716-2.492,4.918-5.564,4.918
		H6.565C3.492,22.313,1,20.111,1,17.395V5.918C1,3.202,3.492,1,6.565,1h7.421c3.072,0,5.564,2.202,5.564,4.918V17.395z"/>
	<path fill="none" stroke="#565656" stroke-miterlimit="10" d="M14.213,19.661"/>
</g>
<g id="图层_4">
	<path fill="#6C82CB" d="M-58.845,50.497c0,0.519-0.447,0.939-1,0.939h-16c-0.552,0-1-0.421-1-0.939V31.708
		c0-0.52,0.448-0.939,1-0.939h16c0.553,0,1,0.42,1,0.939V50.497z"/>
	<rect x="-74.647" y="34.026" fill="#B8BFD3" width="10.5" height="2"/>
	<rect x="-74.647" y="38.589" fill="#B8BFD3" width="13.666" height="1.207"/>
	<rect x="-74.647" y="41.707" fill="#B8BFD3" width="6.834" height="1.208"/>
	<rect x="-74.647" y="44.589" fill="#B8BFD3" width="13.666" height="1.207"/>
	<rect x="-74.647" y="47.38" fill="#B8BFD3" width="13.666" height="1.209"/>
	<path fill="none" stroke="#565656" stroke-miterlimit="10" d="M-63.965,48.826"/>
</g>
<g id="图层_6">
	<g>
		<path fill="none" stroke="#AAABAE" stroke-width="2" stroke-miterlimit="10" d="M-83.754,74.237c0,0.19-0.154,0.345-0.346,0.345
			h-2.231c-0.718,0-1.334,0.412-1.607,1.074c-0.275,0.663-0.131,1.391,0.377,1.897l1.577,1.577c0.136,0.135,0.136,0.354,0,0.488
			l-2.012,2.012c-0.134,0.135-0.353,0.135-0.486,0l-1.578-1.578c-0.508-0.508-1.234-0.652-1.897-0.377
			c-0.663,0.273-1.074,0.891-1.074,1.607v2.232c0,0.189-0.154,0.344-0.345,0.344h-2.845c-0.19,0-0.346-0.154-0.346-0.344v-2.232
			c0-0.717-0.411-1.334-1.074-1.607c-0.222-0.094-0.45-0.139-0.677-0.139c-0.447,0-0.883,0.178-1.22,0.516l-1.578,1.578
			c-0.135,0.135-0.354,0.134-0.487,0l-2.012-2.012c-0.136-0.135-0.136-0.354,0-0.488l1.578-1.578
			c0.508-0.507,0.651-1.234,0.377-1.896s-0.891-1.074-1.608-1.074h-2.231c-0.19,0-0.345-0.154-0.345-0.345v-2.845
			c0-0.19,0.154-0.346,0.345-0.346h2.231c0.718,0,1.334-0.411,1.608-1.074c0.274-0.662,0.131-1.39-0.377-1.896l-1.578-1.578
			c-0.136-0.135-0.136-0.354,0-0.488l2.012-2.011c0.134-0.135,0.354-0.135,0.487,0l1.578,1.577c0.507,0.508,1.233,0.652,1.896,0.378
			s1.074-0.891,1.074-1.608v-2.231c0-0.19,0.155-0.345,0.346-0.345h2.844c0.191,0,0.346,0.154,0.346,0.345v2.231
			c0,0.718,0.411,1.334,1.074,1.608c0.664,0.274,1.391,0.13,1.897-0.377l1.578-1.578c0.135-0.135,0.354-0.135,0.486,0l2.012,2.012
			c0.136,0.135,0.136,0.354,0,0.487l-1.577,1.578c-0.508,0.508-0.652,1.234-0.377,1.897c0.273,0.663,0.89,1.074,1.607,1.074h2.231
			c0.191-0.001,0.346,0.154,0.346,0.345V74.237z"/>
		<path fill="none" stroke="#AAABAE" stroke-width="2" stroke-miterlimit="10" d="M-94.8,75.907c-1.704,0-3.093-1.388-3.093-3.093
			s1.389-3.092,3.093-3.092s3.093,1.387,3.093,3.092S-93.096,75.907-94.8,75.907z"/>
	</g>
</g>
<g id="图层_5">
	<path fill="none" stroke="#AAABAE" stroke-width="2" stroke-miterlimit="10" d="M-83.845,47.769c0,3.313-2.687,6-6,6h-10
		c-3.313,0-6-2.687-6-6v-10c0-3.313,2.687-6,6-6h10c3.313,0,6,2.687,6,6V47.769z"/>
	<path fill="#AAABAE" d="M-92.293,41.648c-0.553,0.606-1.427,0.708-1.957,0.228l0,0c-0.526-0.481-0.503-1.361,0.048-1.968
		l3.08-3.377c0.553-0.606,1.429-0.708,1.955-0.227l0,0c0.529,0.481,0.507,1.361-0.047,1.967L-92.293,41.648z"/>
	<path fill="#AAABAE" d="M-94.143,50.428c0,0.304-0.314,0.55-0.702,0.55l0,0c-0.388,0-0.702-0.246-0.702-0.55v-5.987
		c0-0.303,0.314-0.549,0.702-0.549l0,0c0.388,0,0.702,0.246,0.702,0.549V50.428z"/>
	<path fill="#AAABAE" d="M-96.012,42.811c0,0.256-0.124,0.463-0.279,0.463h-7.523c-0.155,0-0.281-0.207-0.281-0.463l0,0
		c0-0.256,0.126-0.464,0.281-0.464h7.523C-96.136,42.347-96.012,42.555-96.012,42.811L-96.012,42.811z"/>
	<circle fill="#8A8F94" cx="-94.845" cy="42.769" r="1.333"/>
	<circle fill="#E4E5EA" cx="-94.845" cy="42.768" r="0.625"/>
</g>
</svg>
