<?xml version="1.0" encoding="utf-8"?>
<!-- Generator: Adobe Illustrator 16.0.0, SVG Export Plug-In . SVG Version: 6.00 Build 0)  -->
<!DOCTYPE svg PUBLIC "-//W3C//DTD SVG 1.1//EN" "http://www.w3.org/Graphics/SVG/1.1/DTD/svg11.dtd">
<svg version="1.1" xmlns="http://www.w3.org/2000/svg" xmlns:xlink="http://www.w3.org/1999/xlink" x="0px" y="0px"
	 width="20.551px" height="23.313px" viewBox="0 0 20.551 23.313" enable-background="new 0 0 20.551 23.313" xml:space="preserve">
<g id="图层_1">
	<rect x="3.53" y="4.86" fill="#AAABAE" width="10.5" height="3.233"/>
	<rect x="3.53" y="11.999" fill="#AAABAE" width="6.833" height="1.465"/>
	<path fill="none" stroke="#AAABAE" stroke-width="2" stroke-miterlimit="10" d="M19.551,17.395c0,2.716-2.492,4.918-5.565,4.918
		h-7.42C3.492,22.313,1,20.111,1,17.395V5.918C1,3.202,3.492,1,6.565,1h7.42c3.073,0,5.565,2.202,5.565,4.918V17.395z"/>
	<rect x="3.53" y="15.787" fill="#AAABAE" width="13.667" height="1.543"/>
</g>
<g id="图层_2" display="none">
	
		<circle display="inline" fill="none" stroke="#AAABAE" stroke-width="2" stroke-miterlimit="10" cx="36.259" cy="9.709" r="8.708"/>
	
		<line display="inline" fill="none" stroke="#AAABAE" stroke-width="2" stroke-linecap="round" stroke-miterlimit="10" x1="41.926" y1="16.312" x2="46.572" y2="20.959"/>
</g>
<g id="图层_8" display="none">
	<path display="inline" fill="#D3D6D9" stroke="#D3D6D9" stroke-width="2" stroke-miterlimit="10" d="M100.338,16.717
		c0,2.717-2.492,4.919-5.564,4.919h-7.421c-3.073,0-5.565-2.202-5.565-4.919V5.242c0-2.717,2.492-4.919,5.565-4.919h7.421
		c3.072,0,5.564,2.202,5.564,4.919V16.717z"/>
	<rect x="84.317" y="4.183" display="inline" fill="#1E2124" width="10.5" height="3.233"/>
	<rect x="84.317" y="11.322" display="inline" fill="#1E2124" width="6.833" height="1.466"/>
	<rect x="84.317" y="15.11" display="inline" fill="#1E2124" width="13.667" height="1.543"/>
</g>
<g id="图层_3" display="none">
	<polyline display="inline" fill="none" stroke="#AAABAE" stroke-miterlimit="10" points="68.639,0.455 66.728,1.33 66.728,4.986 
		68.656,5.822 	"/>
	<polyline display="inline" fill="none" stroke="#AAABAE" stroke-miterlimit="10" points="69.464,5.801 71.358,4.932 71.358,1.307 
		69.445,0.479 	"/>
	<polyline display="inline" fill="none" stroke="#AAABAE" stroke-miterlimit="10" points="57.203,9.406 54.758,10.527 
		54.758,15.203 57.227,16.275 	"/>
	<polyline display="inline" fill="none" stroke="#AAABAE" stroke-miterlimit="10" points="58.259,16.246 60.682,15.135 
		60.682,10.498 58.235,9.436 	"/>
	<polyline display="inline" fill="none" stroke="#AAABAE" stroke-miterlimit="10" points="70.27,15.59 68.358,16.467 68.358,20.121 
		70.287,20.959 	"/>
	<polyline display="inline" fill="none" stroke="#AAABAE" stroke-miterlimit="10" points="71.095,20.936 72.989,20.068 
		72.989,16.443 71.076,15.613 	"/>
	<path display="inline" fill="none" stroke="#AAABAE" stroke-miterlimit="10" d="M61.191,12.842
		c3.625-0.021,1.786-9.709,5.042-9.703"/>
	<path display="inline" fill="none" stroke="#565656" stroke-miterlimit="10" d="M14.213,19.661"/>
	<path display="inline" fill="none" stroke="#AAABAE" stroke-miterlimit="10" d="M61.191,12.896c4.375-0.014,2.875,5.424,7,5.434"/>
</g>
<g id="图层_7" display="none">
	
		<line display="inline" fill="none" stroke="#AAABAE" stroke-width="2" stroke-miterlimit="10" x1="69.165" y1="40.969" x2="72.72" y2="40.969"/>
	<path display="inline" fill="none" stroke="#AAABAE" stroke-width="2" stroke-miterlimit="10" d="M73.552,46.708
		c0,2.717-2.492,4.918-5.565,4.918h-7.42c-3.074,0-5.566-2.201-5.566-4.918V35.232c0-2.716,2.492-4.918,5.566-4.918h7.42
		c3.073,0,5.565,2.202,5.565,4.918V46.708z"/>
	<polyline display="inline" fill="none" stroke="#AAABAE" stroke-width="2" stroke-miterlimit="10" points="62.79,44.765 
		59.887,43.435 59.887,37.882 62.818,36.611 	"/>
	
		<line display="inline" fill="none" stroke="#AAABAE" stroke-width="2" stroke-miterlimit="10" x1="59.131" y1="40.97" x2="55.576" y2="40.97"/>
	<polyline display="inline" fill="none" stroke="#AAABAE" stroke-width="2" stroke-miterlimit="10" points="66.253,44.765 
		69.157,43.435 69.157,37.882 66.226,36.611 	"/>
</g>
<g id="图层_4" display="none">
	<path display="inline" fill="#6C82CB" d="M48,49.041c0,0.519-0.447,0.939-1,0.939H31c-0.552,0-1-0.421-1-0.939V30.253
		c0-0.52,0.448-0.939,1-0.939h16c0.553,0,1,0.42,1,0.939V49.041z"/>
	<rect x="32.197" y="32.57" display="inline" fill="#B8BFD3" width="10.5" height="2"/>
	<rect x="32.197" y="37.134" display="inline" fill="#B8BFD3" width="13.666" height="1.207"/>
	<rect x="32.197" y="40.251" display="inline" fill="#B8BFD3" width="6.834" height="1.208"/>
	<rect x="32.197" y="43.134" display="inline" fill="#B8BFD3" width="13.666" height="1.207"/>
	<rect x="32.197" y="45.925" display="inline" fill="#B8BFD3" width="13.666" height="1.209"/>
	<path display="inline" fill="none" stroke="#565656" stroke-miterlimit="10" d="M42.88,47.37"/>
</g>
<g id="图层_6" display="none">
	<g display="inline">
		<path fill="none" stroke="#AAABAE" stroke-width="2" stroke-miterlimit="10" d="M23.091,72.781c0,0.19-0.154,0.345-0.346,0.345
			h-2.231c-0.718,0-1.334,0.412-1.607,1.074c-0.275,0.663-0.131,1.391,0.377,1.897l1.577,1.577c0.136,0.135,0.136,0.354,0,0.488
			l-2.012,2.012c-0.134,0.135-0.353,0.135-0.486,0l-1.578-1.578c-0.508-0.508-1.234-0.652-1.897-0.377
			c-0.663,0.273-1.074,0.891-1.074,1.607v2.232c0,0.189-0.154,0.344-0.345,0.344h-2.845c-0.19,0-0.346-0.154-0.346-0.344v-2.232
			c0-0.717-0.411-1.334-1.074-1.607c-0.222-0.094-0.45-0.139-0.677-0.139c-0.447,0-0.883,0.178-1.22,0.516l-1.578,1.578
			c-0.135,0.135-0.354,0.134-0.487,0l-2.012-2.012c-0.136-0.135-0.136-0.354,0-0.488l1.578-1.578
			c0.508-0.507,0.651-1.234,0.377-1.896s-0.891-1.074-1.608-1.074H1.345C1.154,73.126,1,72.972,1,72.781v-2.845
			c0-0.19,0.154-0.346,0.345-0.346h2.231c0.718,0,1.334-0.411,1.608-1.074c0.274-0.662,0.131-1.39-0.377-1.896l-1.578-1.578
			c-0.136-0.135-0.136-0.354,0-0.488l2.012-2.011c0.134-0.135,0.354-0.135,0.487,0l1.578,1.577c0.507,0.508,1.233,0.652,1.896,0.378
			s1.074-0.891,1.074-1.608v-2.231c0-0.19,0.155-0.345,0.346-0.345h2.844c0.191,0,0.346,0.154,0.346,0.345v2.231
			c0,0.718,0.411,1.334,1.074,1.608c0.664,0.274,1.391,0.13,1.897-0.377l1.578-1.578c0.135-0.135,0.354-0.135,0.486,0l2.012,2.012
			c0.136,0.135,0.136,0.354,0,0.487l-1.577,1.578c-0.508,0.508-0.652,1.234-0.377,1.897c0.273,0.663,0.89,1.074,1.607,1.074h2.231
			c0.191-0.001,0.346,0.154,0.346,0.345V72.781z"/>
		<path fill="none" stroke="#AAABAE" stroke-width="2" stroke-miterlimit="10" d="M12.045,74.451c-1.704,0-3.093-1.388-3.093-3.093
			s1.389-3.092,3.093-3.092s3.093,1.387,3.093,3.092S13.749,74.451,12.045,74.451z"/>
	</g>
</g>
<g id="图层_5" display="none">
	<path display="inline" fill="none" stroke="#AAABAE" stroke-width="2" stroke-miterlimit="10" d="M23,46.313c0,3.313-2.687,6-6,6H7
		c-3.313,0-6-2.687-6-6v-10c0-3.313,2.687-6,6-6h10c3.313,0,6,2.687,6,6V46.313z"/>
	<path display="inline" fill="#AAABAE" d="M14.552,40.192c-0.553,0.606-1.427,0.708-1.957,0.228l0,0
		c-0.526-0.481-0.503-1.361,0.048-1.968l3.08-3.377c0.553-0.606,1.429-0.708,1.955-0.227l0,0c0.529,0.481,0.507,1.361-0.047,1.967
		L14.552,40.192z"/>
	<path display="inline" fill="#AAABAE" d="M12.702,48.973c0,0.304-0.314,0.55-0.702,0.55l0,0c-0.388,0-0.702-0.246-0.702-0.55
		v-5.987c0-0.303,0.314-0.549,0.702-0.549l0,0c0.388,0,0.702,0.246,0.702,0.549V48.973z"/>
	<path display="inline" fill="#AAABAE" d="M10.833,41.355c0,0.256-0.124,0.463-0.279,0.463H3.031c-0.155,0-0.281-0.207-0.281-0.463
		l0,0c0-0.256,0.126-0.464,0.281-0.464h7.523C10.709,40.891,10.833,41.1,10.833,41.355L10.833,41.355z"/>
	<circle display="inline" fill="#8A8F94" cx="12" cy="41.313" r="1.333"/>
	<circle display="inline" fill="#E4E5EA" cx="12" cy="41.312" r="0.625"/>
</g>
</svg>
