<?xml version="1.0" encoding="utf-8"?>
<!-- Generator: Adobe Illustrator 16.0.0, SVG Export Plug-In . SVG Version: 6.00 Build 0)  -->
<!DOCTYPE svg PUBLIC "-//W3C//DTD SVG 1.1//EN" "http://www.w3.org/Graphics/SVG/1.1/DTD/svg11.dtd">
<svg version="1.1" xmlns="http://www.w3.org/2000/svg" xmlns:xlink="http://www.w3.org/1999/xlink" x="0px" y="0px"
	 width="715.115px" height="647.932px" viewBox="0 0 715.115 647.932" enable-background="new 0 0 715.115 647.932"
	 xml:space="preserve">
<path opacity="0.35" fill="#484A4C" enable-background="new    " d="M560.765,161.653c-56.922,2.156-175.993,1.436-221.311,8.383
	c-38.283,5.868-50.578,11.177-61.529,19.001c-67.307,42.476-16.711,87.182-67.307,140.274
	c-37.146,31.854-91.915,20.119-139.42,61.195c-11.296,11.796-46.944,46.105-36.885,122.222
	c5.589,32.305,40.238,103.28,105.625,109.986c30.18,3.354,359.001,1.887,406.156-6.916c21.167-3.771,69.579-13.203,63.501-77.123
	c-3.568-37.534-24.311-63.292-93.471-68.32c-12.784-1.678-31.646-12.155-32.484-43.684c-0.209-7.663,2.306-41.614,58.682-47.62
	c53.217-5.673,120.296-42.195,110.654-126.864C645.854,190.154,598.21,161.459,560.765,161.653z"/>
<g>
	<path fill="#242628" d="M247.221,644.123c0,2.104,1.705,3.81,3.799,3.81l0,0c2.106,0,3.804-1.704,3.804-3.81v-14.347
		c0-2.097-1.698-3.806-3.804-3.806l0,0c-2.095,0-3.799,1.709-3.799,3.806V644.123z"/>
	<path fill="#242628" d="M243.841,633.144c-2.096,0-3.793,1.71-3.793,3.812l0,0c0,2.101,1.698,3.815,3.793,3.815h14.363
		c2.102,0,3.799-1.716,3.799-3.815l0,0c0-2.102-1.698-3.812-3.799-3.812H243.841z"/>
	<path fill="none" stroke="#242628" stroke-width="7" stroke-miterlimit="10" d="M13.561,382.952
		c5.553,0,10.059,4.506,10.059,10.061c0,5.559-4.506,10.06-10.059,10.06c-5.559,0-10.061-4.501-10.061-10.06
		C3.5,387.458,8.002,382.952,13.561,382.952z"/>
	<path fill="#242628" d="M67.125,502.973c0,1.987,1.611,3.599,3.603,3.599l0,0c1.989,0,3.592-1.61,3.592-3.599v-13.557
		c0-1.994-1.603-3.604-3.592-3.604l0,0c-1.992,0-3.603,1.608-3.603,3.604V502.973z"/>
	<path fill="#242628" d="M63.936,492.592c-1.987,0-3.598,1.609-3.598,3.604l0,0c0,1.979,1.61,3.598,3.598,3.598h13.578
		c1.982,0,3.591-1.617,3.591-3.598l0,0c0-1.993-1.608-3.604-3.591-3.604H63.936z"/>
	<path fill="#242628" d="M565.455,433.136c0,1.784,1.443,3.232,3.238,3.232l0,0c1.788,0,3.227-1.448,3.227-3.232v-12.22
		c0-1.779-1.439-3.231-3.227-3.231l0,0c-1.794,0-3.238,1.452-3.238,3.231V433.136z"/>
	<path fill="#242628" d="M562.584,423.785c-1.791,0-3.238,1.452-3.238,3.236l0,0c0,1.795,1.447,3.247,3.238,3.247h12.224
		c1.778,0,3.227-1.452,3.227-3.247l0,0c0-1.784-1.448-3.236-3.227-3.236H562.584z"/>
	
		<line fill="none" stroke="#242628" stroke-width="6" stroke-miterlimit="10" x1="608.619" y1="186.392" x2="601.243" y2="186.392"/>
	
		<line fill="none" stroke="#242628" stroke-width="6" stroke-miterlimit="10" x1="629.498" y1="186.392" x2="622.122" y2="186.392"/>
	
		<line fill="none" stroke="#242628" stroke-width="6" stroke-miterlimit="10" x1="615.384" y1="180.007" x2="615.384" y2="172.276"/>
	
		<line fill="none" stroke="#242628" stroke-width="6" stroke-miterlimit="10" x1="615.384" y1="200.506" x2="615.384" y2="192.732"/>
	<circle fill="#242628" cx="545.547" cy="220.94" r="5.868"/>
	<circle fill="none" stroke="#242628" stroke-width="5" stroke-miterlimit="10" cx="487.276" cy="593.76" r="7.645"/>
</g>
<g>
	
		<line fill="none" stroke="#242628" stroke-width="6" stroke-miterlimit="10" x1="344.233" y1="211.356" x2="341.182" y2="230.523"/>
	
		<line fill="none" stroke="#242628" stroke-width="6" stroke-miterlimit="10" x1="275.307" y1="212.913" x2="279.046" y2="231.962"/>
	
		<line fill="none" stroke="#242628" stroke-width="6" stroke-miterlimit="10" x1="210.445" y1="235.497" x2="219.906" y2="253.422"/>
	
		<line fill="none" stroke="#242628" stroke-width="6" stroke-miterlimit="10" x1="157.799" y1="279.719" x2="174.106" y2="293.743"/>
	
		<line fill="none" stroke="#242628" stroke-width="6" stroke-miterlimit="10" x1="123.727" y1="340.504" x2="144.041" y2="347.794"/>
	
		<line fill="none" stroke="#242628" stroke-width="6" stroke-miterlimit="10" x1="111.402" y1="409.012" x2="132.617" y2="409.366"/>
	
		<line fill="none" stroke="#242628" stroke-width="6" stroke-miterlimit="10" x1="224.268" y1="563.291" x2="215.014" y2="580.855"/>
	
		<line fill="none" stroke="#242628" stroke-width="6" stroke-miterlimit="10" x1="281.992" y1="584.002" x2="278.168" y2="603.519"/>
	
		<line fill="none" stroke="#242628" stroke-width="6" stroke-miterlimit="10" x1="120.345" y1="477.882" x2="143.123" y2="472.133"/>
</g>
<g id="light1">
	<polyline fill="none" stroke="#242628" stroke-width="6" stroke-miterlimit="10" points="417.748,211.519 429.058,135.797 
		476.529,164.469 545.845,19.542 513.375,232.028 460.142,202.082 430.715,265.165 	"/>
	<path fill="#242628" d="M545.845,19.542l-22.025,46.054c8.705-1.941,10.033-0.634,14.471,3.385L545.845,19.542z"/>
	<path fill="#242628" d="M476.529,164.469c0,0,11.098-23.207,8.884-18.579c-2.213,4.628-25.47,8.562-30.642,5.438
		C449.599,148.204,476.529,164.469,476.529,164.469z"/>
	<path fill="#242628" d="M516.961,208.568c0.85-5.572-3.586,23.46-3.586,23.46l-22.278-12.532
		C505.259,220.569,516.108,214.14,516.961,208.568z"/>
</g>
<g id="light2">
	<polygon fill="none" stroke="#242628" stroke-width="6" stroke-miterlimit="10" points="618.553,301.592 547.815,340.396 
		611.349,331.292 619.616,352.397 694.656,305.441 630.929,324.54 	"/>
	<path fill="#242628" d="M696.051,305.412l-33.54,9.664c4.434,1.773,4.039,4.795,3.606,8.224L696.051,305.412z"/>
	<path fill="#242628" d="M547.815,340.396l29.643-16.262c-2.479,5.54,0.252,11.979,0.252,11.979L547.815,340.396z"/>
</g>
<polygon fill="#242628" points="371.622,134.364 385.564,159.38 363.382,164.139 363.4,178.747 352.46,155.623 371.743,150.914 "/>
<path fill="#4D4E51" d="M400.753,439.188l-86.049,46.525l16.56,20.119l46.888,44.814c0,0,17.093,15.753,27.123,25.184
	c7.047-17.001,42.095-68.321,56.79-74.778c-6.521-2.974-40.815-47.729-40.815-47.729l-3.38-5.494L400.753,439.188z"/>
<path fill="#444547" d="M417.868,447.83c0,0,5.723,35.779-12.594,48.362c-7.075,4.859-19.381,11.316-33.353,11.316
	c-21.676,0-52.833-14.082-52.833-14.082l29.336-35.378L417.868,447.83z"/>
<path fill="#4D4E51" d="M369.201,461.642c-3.985,0.319-10.104-0.506-12.859,0c-3.414,0.292-17.054,3.105-18.979,4.104
	c10.979-2.162,13.265,2.001,13.748,2.217c-7.266,9.663-33.419,23.323-44.966,23.303c-10.83-0.344-15.31-3.593-21.583-7.494
	c2.285-0.979,4.216-1.998,5.086-2.612c2.015-1.426,6.92-6.275,8.936-11.452c6.43,0.927,11.712-3.547,13.629-5.215
	c1.505-1.396,7.15-7.562,10.346-11.459c0.743-0.959,2.134-2.762,2.942-4.032c4.771,1.308,7.273-0.017,9.468-1.171
	c11.355,8.461,36.418,9.394,56.461,7.93C389.175,458.303,370.821,461.512,369.201,461.642z"/>
<path fill="#4D4E51" d="M338.74,448.091c-1.959-0.872-4.32-4.696-4.32-4.696c-1.335-2.423-1.854-7.871-0.893-11.685
	c2.776-10.315,7.914-15.278,19.065-24.146c12.893-9.495,37.586-8.704,43.833-9.023c0,0,5.56,0.069,8.628,0.576
	c21.354,2.314,27.581,10.763,29.529,14.923c7.206,16-11.467,32.567-18.541,34.487c-16.273,5.08-33.493,5.809-61.105,3.657
	C351.601,451.94,341.72,449.759,338.74,448.091"/>
<path fill="#545556" d="M375.275,409.428c6.634,13.245,0,32.275-2.097,35.069c-4.89,0.559-25.986,0.279-29.061-6.287
	c-3.493-8.104,3.912-20.679,11.457-24.87C363.12,409.149,374.655,408.19,375.275,409.428z"/>
<path fill="#4D4E51" d="M289.114,475.666c-2.133,1.48-7.891,4.969-11.09,5.498c-3.2,0.527-21.395-0.68-27.3-5.921
	c-2.637-2.342-6.848-7.626-10.591-14.553c-6.399-11.839-11.696-28.014-7.323-39.147c2.504-6.377,9.097-13.346,10.663-15.646
	c2.489-3.944,2.702-13.602,5.545-16.913c4.872-5.676,12.157-6.836,13.649-8.881c6.043-9.02,5.332-24.312,17.915-32.56
	c4.959-2.854,12.282-2.272,14.449-2.167c8.051,0.635,9.146-0.816,9.864-1.215c1.213-0.582,4.55-2.926,5.758-4.652
	c2.348-3.029,4.169-9.354,5.332-10.994c5.362-7.565,20.042-25.583,35.611-21.143c17.964,5.123,46.623,71.039,46.601,87.107
	c-6.717,0.342-33.271-0.502-47.133,9.62c-0.444,0.35-5.551,6.273-9.618,10.966c-1.819,2.098-6.156,11.688-8.687,17.324
	c-0.468,1.044,1.17,9.697,1.601,12.077c0.439,2.444-9.076,5.656-13.636,9.136c-0.809,0.617-7.102,7.934-9.845,11.14
	c-0.522,0.61-4.886,2.704-7.679,4.006c-0.919,0.428-4.62,1.941-6.899,2.868c-0.727,0.295-3.351,3.903-4.979,6.217
	C290.541,478.947,289.114,475.666,289.114,475.666"/>
<path fill="#444547" d="M362.701,315.958c0,0-4.658-7.909-14.275-8.565c-9.617-0.655-23.658,4.374-27.64,15.552
	c-4.926,4.854-8.593,12.19-13.413,19.84c-5.449,5.134-10.757-3.179-24.869,3.073c-14.112,6.252-19.054,32.974-19.054,32.974
	s-10.74,3.144-14.479,9.222c-3.738,6.077-4.786,10.164-6.147,16.821c-4.192,3.297-10.864,12.718-11.615,22.154
	c-0.75,9.436,0.507,27.878,16.645,47.089c3.143,3.107,3.152,2.452,8.013,3.933c4.861,1.479,19.616,6.477,25.239,4.45
	c5.623-2.025,16.224-12.017,15.849-15.928c4.026-0.141,8.532-0.454,14.889-5.588c-18.723-6.497-46.282-33.219-56.446-59.415
	c-0.797-2.232-1.886-5.029,0.469-8.559c0.894-1.711,7.882-5.44,13.224-7.755c4.192-4.189,7.265-26.65,11.736-29.619
	c7.055-4.156,19.944-2.585,29.62-2.794c6.124-11.202,19.315-35.032,30.179-38.841C352.431,310.718,362.701,315.958,362.701,315.958z
	"/>
<g id="hand-bd">
	<path fill="#242628" d="M251.207,402.861c-0.524,0.244,0.21,4.959,0.699,6.428c0.873,3.073,8.802,13.937,8.802,13.937
		l-4.506-13.062C256.202,410.162,253.059,404.083,251.207,402.861z"/>
	<path fill="#242628" d="M279.64,364.649c-1.188,1.396-1.257,9.432,0,12.994c1.257,3.562,5.1,8.571,10.757,15.367
		c-2.444-5.297-6.217-13.482-7.684-16.626C281.247,373.242,279.989,367.583,279.64,364.649z"/>
	<path fill="#242628" d="M327.282,326.995c0,0-8.664,12.645-8.173,16.208c0.291,2.403,0.292,2.403,0.804,3.667
		c0.619,1.533,1.094,2.777,1.536,3.527c1.014,2.41,4.876,8.871,4.876,8.871s2.626,4.478,3.229,5.205
		c2.34,2.688,3.989,2.899,3.989,2.899s0.021-1.231-0.253-2.379c-0.474-1.229-2.398-4.119-3.142-5.62
		c-1.423-2.871-3.625-6.055-4.75-8.627c-0.621-1.422-1.496-2.645-1.747-3.562C322.252,342.084,327.282,326.995,327.282,326.995z"/>
	<path fill="#242628" d="M382.82,407.438c0,0,5.379,5.623,6.182,19.28c0.729,12.372-8.802,18.547-8.802,18.547
		c2.655-3.807,6.392-12.154,5.973-18.914c-0.327-5.26-1.936-11.238-2.97-16.749C383.105,409.083,383.029,408.519,382.82,407.438z"/>
	<path fill="#242628" d="M378.984,405.613c8.196,16.364,0,39.879-2.59,43.332c-6.041,0.688-32.109,0.345-35.908-7.77
		c-5.729-12.605,4.09-26.148,13.412-31.329C363.22,404.668,378.218,404.083,378.984,405.613z M355.575,413.34
		c-7.545,4.191-14.95,16.767-11.457,24.87c3.074,6.566,24.171,6.846,29.061,6.287c2.097-2.794,8.729-21.824,2.097-35.069
		C374.655,408.19,363.12,409.149,355.575,413.34z"/>
	<path fill="#242628" d="M435.191,408.812c0.008,0.002,0.016,0.005,0.023,0.008c-1.917-4.898-4.529-10.204-7.699-15.781
		l-4.693,3.543c0.543,1.202,0.969,2.267,1.248,3.153c0.001,0,0,0,0.001,0c-7.538-3.589-15.486-4.342-17.569-4.685
		c-0.707-1.44-5.716-12.595-9.215-21.765c-1.09-3.225-2.468-6.986-4.077-11.062l-8.844-19.695l3.625-2.736
		c-3.754-4.229-7.592-8.395-11.47-12.449c-7.183-12.179-15.181-22.127-22.753-24.499c-16.102-5.047-31.379,8.438-37.876,17.168
		c-1.957,2.376-6.285,11.247-8.312,15.928c-1.408,1.912-1.746,2.444-3.073,3.492c-2.725,1.326-5.729,1.188-9.571,0.629
		c-2.258-0.111-8.313-0.629-16.066,3.631c-13.973,9.152-14.112,20.959-18.721,32.975c-1.555,2.146-9.514,2.829-13.832,9.361
		c-2.724,4.123-4.96,13.554-6.076,17.465c-4.963,5.31-9.362,10.688-11.248,18.859c-3.627,15.724,2.305,29.201,8.666,41.588
		c3.772,7.346,8.748,12.471,11.557,14.857c7.335,6.234,25.358,6.652,27.911,6.652c2.406-0.267,4.259,0.893,4.259,0.893
		s16.766,9.432,24.939,9.851c15.089,0,46.105-18.861,53.231-28.712c7.335,0.42,19.49-1.396,25.185-3.562
		c3.946-1.326,16.801-7.474,19.224-9.575c-0.001,0-0.002,0-0.002,0c5.347-0.814,9.47-1.745,11.572-2.573
		c14.719-5.176,23.663-14.887,23.663-29.146C439.198,416.892,437.63,412.384,435.191,408.812z M279.29,480.264
		c-3.144,0.524-21.023-0.672-26.826-5.867c-2.592-2.32-6.729-7.56-10.409-14.426c-6.288-11.734-11.493-27.768-7.196-38.807
		c2.461-6.322,8.939-13.229,10.479-15.509c2.445-3.911,2.655-13.482,5.449-16.766c4.788-5.627,11.946-6.777,13.413-8.804
		c5.938-8.94,5.24-24.101,17.604-32.274c4.873-2.828,12.068-2.252,14.199-2.147c7.912,0.629,8.987-0.812,9.693-1.205
		c1.191-0.576,4.471-2.897,5.658-4.61c2.308-3.004,4.098-9.271,5.24-10.896c5.271-7.501,19.7-25.358,34.999-20.958
		c17.651,5.077,45.814,70.417,45.792,86.345c-6.601,0.34-32.693-0.497-46.315,9.536c-0.714,0.568-1.403,1.127-2.073,1.682
		c-0.033-0.04-0.06-0.084-0.095-0.121c-3.082-3.225-21.854-31.899-25.111-41.263c-0.457-1.312-1.889-2.006-3.202-1.55
		c-1.312,0.457-2.006,1.892-1.55,3.201c3.42,9.833,22.513,39.104,26.166,43.019c-7.877,7.189-12.067,13.688-14.464,22.591
		c-0.574,3.674-0.007,9.664,0.942,12.365c-1.99,1.048-5.448,0.943-8.383-0.419c-0.016,0.025-0.031,0.051-0.046,0.076
		c-1.928-1.316-5.363-4.336-7.97-7.293c-13.416-15.221-23.127-27.548-34.634-43.966c-0.796-1.138-2.366-1.413-3.502-0.615
		c-1.138,0.797-1.413,2.366-0.616,3.502c11.622,16.584,21.429,29.033,34.979,44.404c2.687,3.048,6.606,6.604,9.12,8.271
		c0.069,0.045,0.143,0.081,0.213,0.119c-0.021,0.038-0.039,0.071-0.06,0.11c-1.677,3.144-10.431,11.451-12.298,13.184
		c-2.507,2.347-6.041,4.002-11.174,2.325c-0.004,0.016-0.011,0.034-0.015,0.05c-0.146-0.056-0.296-0.102-0.454-0.13
		c-5.353-0.966-19.008-6.509-21.169-8.337c-2.341-1.98-16.9-20.037-21.547-30.341c-0.572-1.268-2.06-1.829-3.326-1.258
		c-1.267,0.569-1.83,2.06-1.258,3.325c4.902,10.871,19.748,29.461,22.883,32.112c3.083,2.609,16.736,7.961,22.763,9.291
		c-1.611,2.826-3.706,5.696-5.002,6.604C288.092,476.283,282.434,479.741,279.29,480.264z M367.94,461.612
		c-3.633-0.628-9.71-0.487-12.365,0c-3.283,0.28-17.953,3.146-19.491,4.4c9.571-0.837,13.995,1.471,14.461,1.678
		c-6.986,9.292-32.136,22.426-43.239,22.406c-10.413-0.331-14.72-3.455-20.752-7.207c2.198-0.94,4.055-1.922,4.892-2.513
		c1.938-1.37,6.654-6.033,8.592-11.011c6.183,0.891,11.261-3.411,13.104-5.016c1.448-1.341,6.876-7.27,9.949-11.019
		c0.714-0.921,2.052-2.655,2.829-3.877c4.59,1.258,6.996-0.016,9.106-1.126c10.918,8.136,35.017,9.033,54.289,7.626
		C387.146,458.402,369.478,461.893,367.94,461.612z M414.954,447.152c-15.646,4.886-32.204,5.586-58.755,3.52
		c-3.208-0.238-12.708-2.334-15.574-3.938c-1.884-0.84-4.154-4.517-4.154-4.517c-1.282-2.33-1.781-7.568-0.857-11.234
		c2.67-9.918,7.608-14.688,18.333-23.216c12.396-9.131,36.14-8.368,42.146-8.677c0,0,5.346,0.067,8.296,0.556
		c20.533,2.226,26.521,10.348,28.394,14.348C439.711,429.375,421.756,445.307,414.954,447.152z"/>
</g>
<g id="twist">
	<path fill="none" stroke="#242628" stroke-width="6" stroke-linecap="round" stroke-miterlimit="10" d="M464.414,503.318
		c-19.561-18.582-40.244-44.645-40.244-44.645c-0.979-1.761-3.981-6.356-4.17-9.494"/>
	<path fill="none" stroke="#242628" stroke-width="6" stroke-linecap="round" stroke-miterlimit="10" d="M319.089,493.427
		c0,0,10.93,11.801,13.976,15.357l72.209,67.046"/>
	<path fill="none" stroke="#242628" stroke-width="6" stroke-linecap="round" stroke-miterlimit="10" d="M378.151,481.311
		c3.065,6.719,10.117,16.559,18.082,22.008"/>
	<path fill="none" stroke="#242628" stroke-width="6" stroke-linecap="round" stroke-miterlimit="10" d="M396.232,491.332
		c2.896,4.86,6.253,7.858,9.042,9.721"/>
</g>
<path id="pencil" fill="#27282B" stroke="#242628" stroke-width="1.6" stroke-miterlimit="10" d="M164.517,508.274l40.039,53.047
	c-14.648,11.057-35.487,8.144-46.542-6.505C146.957,540.168,149.869,519.329,164.517,508.274z M249.216,478.797
	c-0.722-0.613-1.588-1.41-2.538-2.377l-61.371,46.322l11.181,14.812l70.048-52.87C260.415,483.871,253.222,482.203,249.216,478.797z
	 M479.155,312.675c-3.088-4.092-8.906-4.904-12.997-1.816l-41.086,31.011l-0.855,0.646L394.32,365.08
	c1.138,2.979,2.137,5.752,2.968,8.207c1.22,3.194,2.623,6.633,3.963,9.815l34.148-25.772l0.854-0.646l41.086-31.013
	C481.43,322.585,482.243,316.765,479.155,312.675z M456.807,288.044l-5.106,3.661L411.298,322.2l-1.539,1.162l-25.395,19.167
	c1.9,3.842,3.584,7.252,3.819,7.781c1.458,3.269,2.814,6.474,4.054,9.532l28.705-21.665l1.538-1.16l40.402-30.495
	c4.092-3.088,4.904-8.907,1.816-12.999c-0.141-0.185-0.291-0.355-0.441-0.526l31.586-9.285l15.308,20.857l-17.187,27.802
	c-0.155-0.25-0.318-0.497-0.5-0.736c-3.088-4.091-8.906-4.903-12.997-1.815l-41.941,31.656c-0.058,0.043-0.108,0.09-0.165,0.137
	l-0.008-0.01l-35.016,26.429c1.584,3.645,2.824,6.372,3.149,7.036c1.762,0.289,7.721,0.873,14.078,3.219l28.971-21.866l-0.007-0.008
	c0.06-0.043,0.122-0.078,0.178-0.122l41.327-31.191l-0.017,0.127l5.63-4.395l0.105,0.064l48.793-78.936L456.807,288.044z
	 M237.659,463.939c-1.324-2.577-2.627-5.203-3.831-7.886l-62.978,47.533l11.184,14.816l61.042-46.072
	C241.229,469.997,239.327,467.186,237.659,463.939z M281.386,486.342c0,0-1.853-1.159-4.259-0.893c-0.477,0-1.495-0.016-2.882-0.079
	l-74.63,56.329l11.183,14.814l84.208-63.557C288.039,490.083,281.386,486.342,281.386,486.342z M320.89,473.422l-0.007-0.009
	c0.059-0.042,0.121-0.076,0.178-0.119l18.341-13.843l0.045,0.06l7.768-5.862c-4.858-1.258-9.063-2.99-12.188-5.317
	c-2.11,1.11-4.517,2.384-9.106,1.126c-0.777,1.222-2.115,2.956-2.829,3.877c-3.073,3.748-8.501,9.677-9.949,11.018
	c-1.843,1.604-6.921,5.906-13.104,5.017c-1.938,4.978-6.654,9.641-8.592,11.011c-0.837,0.591-2.693,1.57-4.892,2.512
	c4.373,2.721,7.851,5.104,13.394,6.341L320.89,473.422z"/>
</svg>
