<?xml version="1.0" encoding="utf-8"?>
<!-- Generator: Adobe Illustrator 16.0.0, SVG Export Plug-In . SVG Version: 6.00 Build 0)  -->
<!DOCTYPE svg PUBLIC "-//W3C//DTD SVG 1.1//EN" "http://www.w3.org/Graphics/SVG/1.1/DTD/svg11.dtd">
<svg version="1.1" xmlns="http://www.w3.org/2000/svg" xmlns:xlink="http://www.w3.org/1999/xlink" x="0px" y="0px"
	 width="100.52px" height="98.611px" viewBox="0 0 100.52 98.611" enable-background="new 0 0 100.52 98.611" xml:space="preserve">
<g id="图层_1">
	<path fill="none" stroke="#ECECEC" stroke-width="3" d="M68.885,61.8L44.54,86.146c-8.726,8.727-22.874,8.727-31.6,0l0,0
		c-8.726-8.726-8.726-22.874,0-31.601l24.31-24.43"/>
	<path id="leftpath-for-orgvivew" fill="none" stroke="#ECECEC" stroke-width="2" d="M2.587,60.611
		c1.295-3.607,3.383-6.987,6.266-9.87L50.69,8.903"/>
	<path fill="none" stroke="#ECECEC" stroke-width="2" d="M1.032,71.078c-0.064-1.339-0.031-2.681,0.102-4.015"/>
	<path fill="none" stroke="#ECECEC" stroke-width="2" d="M14.141,93.337c-1.66-1.06-3.232-2.315-4.685-3.768L9.07,89.184
		c-4.411-4.41-7.016-9.938-7.809-15.65"/>
	<path fill="none" stroke="#ECECEC" stroke-width="2" d="M24.128,97.226c-1.458-0.257-2.9-0.633-4.311-1.127"/>
	<path fill="none" stroke="#ECECEC" stroke-width="2" d="M41.57,94.484c-3.571,1.905-7.488,2.948-11.446,3.128"/>
	<path fill="none" stroke="#ECECEC" stroke-width="2" d="M64.799,72.887L47.9,89.787c-0.882,0.883-1.812,1.69-2.78,2.425"/>
	<line fill="none" stroke="#ECECEC" stroke-width="2" x1="80.424" y1="57.262" x2="71.737" y2="65.95"/>
	<path fill="#ECECEC" d="M42.134,75.298c-1.978,5.711-7.403,9.812-13.787,9.812c-8.056,0-14.587-6.531-14.587-14.588
		c0-6.34,4.044-11.734,9.693-13.746C16.987,70.45,30.737,81.45,42.134,75.298z"/>
	<circle fill="none" stroke="#ECECEC" stroke-width="3" cx="28.348" cy="70.522" r="16.072"/>
	<path display="none" fill="none" stroke="#ECECEC" stroke-width="3" d="M44.458,31.77c1.196-1.196,1.196-3.135,0-4.331l0,0
		c-1.196-1.196-3.135-1.196-4.331,0"/>
	<path display="none" fill="none" stroke="#ECECEC" stroke-width="3" d="M54.008,40.092L65.35,28.751
		c1.299-1.3,1.365-3.341,0.146-4.559l0,0c-1.219-1.219-3.26-1.153-4.559,0.147"/>
	<path display="none" fill="none" stroke="#ECECEC" stroke-width="3" d="M44.479,31.793l-8.264,8.263
		c-1.299,1.3-1.364,3.342-0.145,4.562l0,0c1.22,1.219,3.262,1.155,4.561-0.145l20.307-20.135"/>
	<path display="none" fill="none" stroke="#ECECEC" stroke-width="3" d="M53.975,40.059c-1.3,1.3-1.357,3.35-0.128,4.579l0,0
		c1.229,1.229,3.278,1.172,4.578-0.127"/>
	<path display="none" fill="none" stroke="#ECECEC" stroke-width="3" d="M54.479,57.489l12.355-12.355
		c1.299-1.3,1.341-3.365,0.092-4.614l0,0c-1.248-1.249-3.314-1.208-4.613,0.092l-3.894,3.894"/>
	<path display="none" fill="none" stroke="#ECECEC" stroke-width="3" d="M54.468,57.477c-1.3,1.299-1.333,3.373-0.074,4.631l0,0
		c1.259,1.26,3.333,1.227,4.632-0.072l5.047-5.047"/>
	<path display="none" fill="none" stroke="#ECECEC" stroke-width="3" d="M68.885,61.8c1.3-1.3,1.273-3.433-0.059-4.765l0,0
		c-1.332-1.332-3.465-1.357-4.764-0.059l-5.05,5.049"/>
	<line id="line1" fill="none" stroke="#ECECEC" stroke-width="2" x1="58.772" y1="8.903" x2="66.969" y2="0.707"/>
	<line id="line2" fill="none" stroke="#ECECEC" stroke-width="2" x1="68.543" y1="7.999" x2="74.93" y2="1.611"/>
	<line id="line3" fill="none" stroke="#ECECEC" stroke-width="2" x1="73.362" y1="21.377" x2="77.888" y2="16.851"/>
	<line id="line4" fill="none" stroke="#ECECEC" stroke-width="2" x1="81.227" y1="30.46" x2="87.474" y2="24.213"/>
	<line id="line5" fill="none" stroke="#ECECEC" stroke-width="2" x1="89.237" y1="40.059" x2="99.813" y2="29.482"/>
</g>
<g id="图层_2">
	<path id="leftpath-for-animate-old" display="none" fill="none" d="M1.129,67.063c0.646-6.674,3.769-13.139,9.397-17.997
		L52.68,6.909"/>
	<path fill="none" d="M100.331,37.356l-8.603,8.6L49.573,88.111c-3.505,3.885-7.701,6.627-12.172,8.167"/>
	<line display="none" fill="none" x1="52.961" y1="23.319" x2="66.983" y2="9.297"/>
	<line display="none" fill="none" x1="71.326" y1="23.414" x2="85.661" y2="9.078"/>
	<line display="none" fill="none" x1="73.362" y1="38.325" x2="90.581" y2="21.106"/>
	<line display="none" fill="none" x1="99.813" y1="29.482" x2="78.698" y2="50.598"/>
	<line id="line1-long" display="none" fill="none" x1="66.969" y1="0.707" x2="46.571" y2="21.106"/>
	<line id="line1-short" display="none" fill="none" x1="54.923" y1="12.863" x2="46.41" y2="21.377"/>
	<path fill="none" stroke="#ECECEC" stroke-width="3" d="M34.441,33.045l6.295-6.345c1.196-1.196,3.213-1.137,4.41,0.059l0,0
		c1.196,1.196,1.196,3.135,0,4.331 M54.697,39.412l11.342-11.341c1.299-1.3,1.365-3.341,0.146-4.559l0,0
		c-1.219-1.219-3.26-1.153-4.559,0.147 M45.167,31.113l-8.264,8.264c-1.299,1.299-1.364,3.342-0.145,4.561l0,0
		c1.22,1.22,3.262,1.155,4.561-0.145l20.307-20.134 M54.664,39.379c-1.3,1.299-1.357,3.35-0.128,4.578l0,0
		c1.229,1.229,3.278,1.172,4.578-0.127 M55.167,56.808l12.355-12.355c1.299-1.3,1.341-3.365,0.092-4.613l0,0
		c-1.248-1.249-3.314-1.208-4.613,0.092l-3.894,3.894 M55.157,56.796c-1.3,1.299-1.333,3.373-0.074,4.631l0,0
		c1.259,1.26,3.333,1.227,4.632-0.072l5.047-5.047 M64.315,66.372l5.259-5.251c1.3-1.301,1.273-3.434-0.059-4.766l0,0
		c-1.332-1.332-3.465-1.357-4.764-0.059l-5.05,5.049"/>
	<path display="none" fill="none" stroke="#ECECEC" stroke-width="3" d="M69.437,52.458c1.197-1.194,3.136-1.195,4.331,0l0,0
		c1.197,1.197,1.257,3.215,0.06,4.41l-6.346,6.295 M76.869,35.979c1.3-1.298,1.365-3.34,0.147-4.559l0,0
		c-1.219-1.219-3.26-1.152-4.56,0.146L61.115,42.909 M76.869,35.979L56.734,56.285c-1.298,1.301-1.363,3.344-0.145,4.562l0,0
		c1.219,1.219,3.262,1.154,4.561-0.146l8.265-8.261 M56.697,38.492c-1.299,1.299-1.355,3.348-0.127,4.579l0,0
		c1.229,1.229,3.279,1.172,4.578-0.128 M56.703,38.499l3.893-3.894c1.301-1.299,1.342-3.365,0.092-4.614l0,0
		c-1.248-1.249-3.312-1.207-4.613,0.092L43.719,42.439 M44.219,32.844l-5.047,5.047c-1.299,1.299-1.332,3.373-0.072,4.633l0,0
		c1.257,1.259,3.332,1.226,4.63-0.075 M39.202,37.892l5.048-5.05c1.299-1.299,1.254-3.419-0.078-4.751l0,0
		c-1.332-1.332-3.464-1.358-4.766-0.059l-5.25,5.259"/>
	<path fill="none" stroke="#ECECEC" stroke-width="3" d="M31.6,35.764l6.295-6.345c1.014-1.016,3.17-1.157,4.41,0.059l0,0
		c1.338,1.315,1.195,3.135,0,4.331 M54.663,39.379l6.897-6.877c1.299-1.3,1.365-3.341,0.146-4.559l0,0
		c-1.219-1.219-3.26-1.153-4.559,0.147 M42.305,33.809l-5.403,5.568c-1.299,1.299-1.363,3.342-0.145,4.561l0,0
		c1.221,1.22,3.262,1.155,4.562-0.145L57.227,28.02 M54.663,39.379c-1.299,1.299-1.357,3.35-0.127,4.578l0,0
		c1.229,1.229,3.277,1.172,4.578-0.127 M55.157,56.796l21.846-21.557c1.299-1.3,1.342-3.365,0.092-4.613l0,0
		c-1.248-1.249-3.314-1.208-4.613,0.092L58.772,44.137 M55.157,56.796c-1.301,1.299-1.334,3.373-0.074,4.631l0,0
		c1.258,1.26,3.332,1.227,4.631-0.072L71.4,49.637 M64.315,66.372L76.212,54.45c1.301-1.301,1.273-3.434-0.059-4.766l0,0
		c-1.332-1.332-3.465-1.357-4.764-0.059l-11.688,11.72"/>
	<path fill="none" stroke="#ECECEC" stroke-width="3" d="M31.702,35.764l12.355-12.405c1.014-1.016,3.17-1.157,4.41,0.059l0,0
		c1.338,1.315,1.195,3.135,0,4.331 M48.455,46.56L55,39.164c1.299-1.3,1.365-3.341,0.146-4.559l0,0
		c-1.219-1.219-3.26-1.153-4.559,0.147 M48.467,27.749L37.004,39.377c-1.299,1.299-1.363,3.342-0.145,4.561l0,0
		c1.221,1.22,3.262,1.155,4.561-0.145l9.247-9.112 M48.697,46.292c-1.299,1.299-1.357,3.35-0.127,4.578l0,0
		c1.229,1.229,3.121,1.454,4.422,0.155 M55.258,56.796L71.38,40.962c1.299-1.3,1.342-3.365,0.092-4.613l0,0
		c-1.248-1.249-3.314-1.208-4.613,0.092L52.836,51.018 M55.258,56.796c-1.301,1.299-1.334,3.373-0.074,4.631l0,0
		c1.258,1.26,3.332,1.227,4.631-0.072l11.687-11.718 M64.417,66.372l20.887-20.911c1.301-1.301,1.273-3.434-0.059-4.766l0,0
		c-1.332-1.332-3.465-1.357-4.764-0.059L59.803,61.345"/>
	<path fill="none" stroke="#ECECEC" stroke-width="3" d="M75.889,54.914L75.889,54.914c-1.014,1.016-3.17,1.156-4.41-0.061l0,0
		c-1.338-1.314-1.195-3.133,0-4.33 M68.702,34.465L52.223,51.831c-1.298,1.3-1.365,3.341-0.146,4.558l0,0
		c1.221,1.221,3.262,1.154,4.559-0.146 M71.479,50.523l5.402-5.567c1.299-1.299,1.363-3.343,0.145-4.562l0,0
		c-1.221-1.219-3.262-1.153-4.561,0.146L56.557,56.312 M68.702,34.465c1.299-1.299,1.357-3.35,0.127-4.578l0,0
		c-1.229-1.229-3.277-1.173-4.578,0.127 M58.627,27.536l-20.209,19.92c-1.3,1.3-1.342,3.365-0.092,4.613l0,0
		c1.248,1.248,3.314,1.207,4.613-0.092l21.652-22.271 M58.627,27.536c1.301-1.299,1.334-3.374,0.074-4.63l0,0
		c-1.258-1.26-3.332-1.227-4.631,0.072L42.384,34.695 M37.572,29.882L37.572,29.882c-1.301,1.301-1.274,3.434,0.058,4.766l0,0
		c1.332,1.332,3.465,1.357,4.764,0.059l11.689-11.72"/>
	<path id="leftpath-for-animate" fill="none" stroke="#ECECEC" stroke-width="2" d="M50.69,8.903c0,0-40.86,40.81-42.407,42.429
		c-2.547,2.703-2.965,3.699-2.965,3.699"/>
	<line id="line1-long-for-animate" display="none" fill="none" stroke="#DB1616" x1="66.969" y1="0.707" x2="50.557" y2="17.12"/>
	<line id="line1-short-for-animate" display="none" fill="none" stroke="#DB1616" x1="56.168" y1="11.508" x2="50.556" y2="17.12"/>
	<path display="none" fill="none" stroke="#ECECEC" stroke-width="2" d="M66.969,0.707l-8.197,8.196c0,0-5.483,5.433-8.44,8.44"/>
	<line display="none" fill="none" stroke="#ECECEC" stroke-width="2" x1="52.961" y1="23.319" x2="75.284" y2="0.997"/>
	<line display="none" fill="none" stroke="#ECECEC" stroke-width="2" x1="69.947" y1="24.41" x2="91.653" y2="2.7"/>
	<line display="none" fill="none" stroke="#ECECEC" stroke-width="2" x1="81.227" y1="30.46" x2="96.893" y2="14.794"/>
	<line display="none" fill="none" stroke="#ECECEC" stroke-width="2" x1="89.237" y1="40.059" x2="95.854" y2="33.442"/>
</g>
</svg>
