<?xml version="1.0" encoding="utf-8"?>
<!-- Generator: Adobe Illustrator 16.0.0, SVG Export Plug-In . SVG Version: 6.00 Build 0)  -->
<!DOCTYPE svg PUBLIC "-//W3C//DTD SVG 1.1//EN" "http://www.w3.org/Graphics/SVG/1.1/DTD/svg11.dtd">
<svg version="1.1" xmlns="http://www.w3.org/2000/svg" xmlns:xlink="http://www.w3.org/1999/xlink" x="0px" y="0px"
	 width="100.52px" height="98.611px" viewBox="0 0 100.52 98.611" enable-background="new 0 0 100.52 98.611" xml:space="preserve">
<g id="图层_1">
	<path fill="none" stroke="#ECECEC" stroke-width="3" d="M68.885,61.8L44.54,86.146c-8.726,8.727-22.874,8.727-31.6,0l0,0
		c-8.726-8.726-8.726-22.874,0-31.601l27.151-27.149"/>
	<!--path fill="none" stroke="#ECECEC" stroke-width="2" d="M2.587,60.611c1.295-3.607,3.383-6.987,6.266-9.87L50.69,8.903"/>
	<path fill="none" stroke="#ECECEC" stroke-width="2" d="M1.032,71.078c-0.064-1.339-0.031-2.681,0.102-4.015"/>
	<path fill="none" stroke="#ECECEC" stroke-width="2" d="M14.141,93.337c-1.66-1.06-3.232-2.315-4.685-3.768L9.07,89.184
		c-4.411-4.41-7.016-9.938-7.809-15.65"/>
	<path fill="none" stroke="#ECECEC" stroke-width="2" d="M24.128,97.226c-1.458-0.257-2.9-0.633-4.311-1.127"/>
	<path fill="none" stroke="#ECECEC" stroke-width="2" d="M41.57,94.484c-3.571,1.905-7.488,2.948-11.446,3.128"/>
	<path fill="none" stroke="#ECECEC" stroke-width="2" d="M64.799,72.887L47.9,89.787c-0.882,0.883-1.812,1.69-2.78,2.425"/>
	<line fill="none" stroke="#ECECEC" stroke-width="2" x1="80.424" y1="57.262" x2="71.737" y2="65.95"/-->
	<path fill="#ECECEC" d="M42.134,75.298c-1.978,5.711-7.403,9.812-13.787,9.812c-8.056,0-14.587-6.531-14.587-14.588
		c0-6.34,4.044-11.734,9.693-13.746C16.987,70.45,30.737,81.45,42.134,75.298z"/>
	<circle fill="none" stroke="#ECECEC" stroke-width="3" cx="28.348" cy="70.522" r="16.072"/>
	<!--path fill="none" stroke="#ECECEC" stroke-width="3" d="M44.458,31.77c1.196-1.196,1.196-3.135,0-4.331l0,0
		c-1.196-1.196-3.135-1.196-4.331,0"/>
	<path fill="none" stroke="#ECECEC" stroke-width="3" d="M54.008,40.092L65.35,28.751c1.299-1.3,1.365-3.341,0.146-4.559l0,0
		c-1.219-1.219-3.26-1.153-4.559,0.147"/>
	<path fill="none" stroke="#ECECEC" stroke-width="3" d="M44.479,31.793l-8.264,8.263c-1.299,1.3-1.364,3.342-0.145,4.562l0,0
		c1.22,1.219,3.262,1.155,4.561-0.145l20.307-20.135"/>
	<path fill="none" stroke="#ECECEC" stroke-width="3" d="M53.975,40.059c-1.3,1.3-1.357,3.35-0.128,4.579l0,0
		c1.229,1.229,3.278,1.172,4.578-0.127"/>
	<path fill="none" stroke="#ECECEC" stroke-width="3" d="M54.479,57.489l12.355-12.355c1.299-1.3,1.341-3.365,0.092-4.614l0,0
		c-1.248-1.249-3.314-1.208-4.613,0.092l-3.894,3.894"/>
	<path fill="none" stroke="#ECECEC" stroke-width="3" d="M54.468,57.477c-1.3,1.299-1.333,3.373-0.074,4.631l0,0
		c1.259,1.26,3.333,1.227,4.632-0.072l5.047-5.047"/>
	<path fill="none" stroke="#ECECEC" stroke-width="3" d="M68.885,61.8c1.3-1.3,1.273-3.433-0.059-4.765l0,0
		c-1.332-1.332-3.465-1.357-4.764-0.059l-5.05,5.049"/-->
	<line fill="none" stroke="#ECECEC" stroke-width="2" x1="58.772" y1="8.903" x2="66.969" y2="0.707">
		<animate attributeType="XML"
               attributeName="x2"
               from="66.969"
               to="54.923"
               dur="4s"
               fill="freeze"
               repeatCount="indefinite"
               >
        </animate>
        <animate attributeType="XML"
               attributeName="y2"
               from="0.707"
               to="12.863"
               dur="4s"
               fill="freeze"
               repeatCount="indefinite"
               >
        </animate>
		<animate attributeType="XML"
               attributeName="x1"
               from="58.772"
               to="46.41"
               dur="2s"
               fill="freeze"
               repeatCount="indefinite"
               >
        </animate>
        <animate attributeType="XML"
               attributeName="y1"
               from="8.903"
               to="21.377"
               dur="2s"
               fill="freeze"
               repeatCount="indefinite"
               >
        </animate>
        
	</line>
	<line fill="none" stroke="#ECECEC" stroke-width="2" x1="52.961" y1="23.319" x2="56.846" y2="19.435"/>
	<line fill="none" stroke="#ECECEC" stroke-width="2" x1="73.362" y1="21.377" x2="77.888" y2="16.851"/>
	<line fill="none" stroke="#ECECEC" stroke-width="2" x1="73.362" y1="38.325" x2="79.609" y2="32.078"/>
	<line fill="none" stroke="#ECECEC" stroke-width="2" x1="89.237" y1="40.059" x2="99.813" y2="29.482"/>
</g>
<g id="图层_2">
	<!--path class="path1" fill="none" stroke="#ECECEC" stroke-width="2" d="M100.331,37.356l-8.603,8.6L49.573,88.111C38.818,100.03,21.568,101.197,9.77,89.884l-1.016-1.018
		C-2.098,77.45-1.598,59.533,10.526,49.066L52.68,6.909"/-->
	<path class="path1" fill="none" stroke="#ECECEC" stroke-width="2" d="M1.129,67.063c0.646-6.674,3.769-13.139,9.397-17.997L52.68,6.909"/>
	<path class="path2" fill="none" stroke="#ECECEC" stroke-width="2" d="M100.331,37.356l-8.603,8.6L49.573,88.111c-3.505,3.885-7.701,6.627-12.172,8.167"/>
	<line fill="none" x1="66.969" y1="0.707" x2="46.571" y2="21.106"/>
	<line fill="none" x1="52.961" y1="23.319" x2="66.983" y2="9.297"/>
	<line fill="none" x1="71.326" y1="23.414" x2="85.661" y2="9.078"/>
	<line fill="none" x1="73.362" y1="38.325" x2="90.581" y2="21.106"/>
	<line fill="none" x1="99.813" y1="29.482" x2="78.698" y2="50.598"/>
	<!--line fill="none" x1="54.923" y1="12.863" x2="46.41" y2="21.377"/-->
	<path display="none" fill="none" stroke="#ECECEC" stroke-width="3" d="M34.441,33.045l6.295-6.345
		c1.196-1.196,3.213-1.137,4.41,0.059l0,0c1.196,1.196,1.196,3.135,0,4.331 M54.697,39.412l11.342-11.341
		c1.299-1.3,1.365-3.341,0.146-4.559l0,0c-1.219-1.219-3.26-1.153-4.559,0.147 M45.167,31.113l-8.264,8.264
		c-1.299,1.299-1.364,3.342-0.145,4.561l0,0c1.22,1.22,3.262,1.155,4.561-0.145l20.307-20.134 M54.664,39.379
		c-1.3,1.299-1.357,3.35-0.128,4.578l0,0c1.229,1.229,3.278,1.172,4.578-0.127 M55.167,56.808l12.355-12.355
		c1.299-1.3,1.341-3.365,0.092-4.613l0,0c-1.248-1.249-3.314-1.208-4.613,0.092l-3.894,3.894 M55.157,56.796
		c-1.3,1.299-1.333,3.373-0.074,4.631l0,0c1.259,1.26,3.333,1.227,4.632-0.072l5.047-5.047 M64.315,66.372l5.259-5.251
		c1.3-1.301,1.273-3.434-0.059-4.766l0,0c-1.332-1.332-3.465-1.357-4.764-0.059l-5.05,5.049"/>
	<path fill="none" stroke="#ECECEC" stroke-width="3" d="M69.437,52.458c1.197-1.194,3.136-1.195,4.331,0l0,0
		c1.197,1.197,1.257,3.215,0.06,4.41l-6.346,6.295 M76.869,35.979c1.3-1.298,1.365-3.34,0.147-4.559l0,0
		c-1.219-1.219-3.26-1.152-4.56,0.146L61.115,42.909 M76.869,35.979L56.734,56.285c-1.298,1.301-1.363,3.344-0.145,4.562l0,0
		c1.219,1.219,3.262,1.154,4.561-0.146l8.265-8.261 M56.697,38.492c-1.299,1.299-1.355,3.348-0.127,4.579l0,0
		c1.229,1.229,3.279,1.172,4.578-0.128 M56.703,38.499l3.893-3.894c1.301-1.299,1.342-3.365,0.092-4.614l0,0
		c-1.248-1.249-3.312-1.207-4.613,0.092L43.719,42.439 M44.219,32.844l-5.047,5.047c-1.299,1.299-1.332,3.373-0.072,4.633l0,0
		c1.257,1.259,3.332,1.226,4.63-0.075 M39.183,37.904l5.048-5.05c1.299-1.299,1.273-3.432-0.059-4.764l0,0
		c-1.332-1.332-3.464-1.358-4.766-0.059l-5.25,5.259">
		<animate attributeType="XML"
               attributeName="d"
               value="M69.437,52.458c1.197-1.194,3.136-1.195,4.331,0l0,0
		c1.197,1.197,1.257,3.215,0.06,4.41l-6.346,6.295 M76.869,35.979c1.3-1.298,1.365-3.34,0.147-4.559l0,0
		c-1.219-1.219-3.26-1.152-4.56,0.146L61.115,42.909 M76.869,35.979L56.734,56.285c-1.298,1.301-1.363,3.344-0.145,4.562l0,0
		c1.219,1.219,3.262,1.154,4.561-0.146l8.265-8.261 M56.697,38.492c-1.299,1.299-1.355,3.348-0.127,4.579l0,0
		c1.229,1.229,3.279,1.172,4.578-0.128 M56.703,38.499l3.893-3.894c1.301-1.299,1.342-3.365,0.092-4.614l0,0
		c-1.248-1.249-3.312-1.207-4.613,0.092L43.719,42.439 M44.219,32.844l-5.047,5.047c-1.299,1.299-1.332,3.373-0.072,4.633l0,0
		c1.257,1.259,3.332,1.226,4.63-0.075 M39.183,37.904l5.048-5.05c1.299-1.299,1.273-3.432-0.059-4.764l0,0
		c-1.332-1.332-3.464-1.358-4.766-0.059l-5.25,5.259;M34.441,33.045l6.295-6.345
		c1.196-1.196,3.213-1.137,4.41,0.059l0,0c1.196,1.196,1.196,3.135,0,4.331 M54.697,39.412l11.342-11.341
		c1.299-1.3,1.365-3.341,0.146-4.559l0,0c-1.219-1.219-3.26-1.153-4.559,0.147 M45.167,31.113l-8.264,8.264
		c-1.299,1.299-1.364,3.342-0.145,4.561l0,0c1.22,1.22,3.262,1.155,4.561-0.145l20.307-20.134 M54.664,39.379
		c-1.3,1.299-1.357,3.35-0.128,4.578l0,0c1.229,1.229,3.278,1.172,4.578-0.127 M55.167,56.808l12.355-12.355
		c1.299-1.3,1.341-3.365,0.092-4.613l0,0c-1.248-1.249-3.314-1.208-4.613,0.092l-3.894,3.894 M55.157,56.796
		c-1.3,1.299-1.333,3.373-0.074,4.631l0,0c1.259,1.26,3.333,1.227,4.632-0.072l5.047-5.047 M64.315,66.372l5.259-5.251
		c1.3-1.301,1.273-3.434-0.059-4.766l0,0c-1.332-1.332-3.465-1.357-4.764-0.059l-5.05,5.049"
               dur="4s"
               fill="freeze"
               repeatCount="indefinite"
               >
        </animate>
	</path>
</g>
<style>
.path1 {
  stroke-dasharray: 50;
  animation: dash 5s linear;
  animation-iteration-count: infinite;
}

.path2 {
  stroke-dasharray: 50;
  animation: dash 2s linear;
  animation-iteration-count: infinite;
}

@keyframes dash {
  to {
    stroke-dashoffset: 300;
  }
}


</style>
</svg>
