<?xml version="1.0" encoding="utf-8"?>
<!-- Generator: Adobe Illustrator 16.0.0, SVG Export Plug-In . SVG Version: 6.00 Build 0)  -->
<!DOCTYPE svg PUBLIC "-//W3C//DTD SVG 1.1//EN" "http://www.w3.org/Graphics/SVG/1.1/DTD/svg11.dtd">
<svg version="1.1" xmlns="http://www.w3.org/2000/svg" xmlns:xlink="http://www.w3.org/1999/xlink" x="0px" y="0px"
	 width="55.199px" height="55.2px" viewBox="0 0 55.199 55.2" enable-background="new 0 0 55.199 55.2" xml:space="preserve">
<g id="full-screen">
	<path fill="#929292" d="M11.854,44.174c-0.551,0-0.828-0.277-0.828-0.827V11.853c0-0.55,0.277-0.828,0.828-0.828h31.494
		c0.55,0,0.827,0.278,0.827,0.828v31.494c0,0.55-0.277,0.827-0.827,0.827H11.854z M18.742,16.617c-1.211,0-2.124,0.913-2.124,2.125
		v17.714c0,1.212,0.913,2.126,2.124,2.126h17.715c1.211,0,2.125-0.914,2.125-2.126V18.742c0-1.211-0.914-2.125-2.125-2.125H18.742z"
		/>
	<path fill="#929292" d="M52.172,14.458c-0.928,0-1.629-0.699-1.629-1.626V4.655h-8.175c-0.929,0-1.628-0.7-1.628-1.627V1.627
		C40.74,0.7,41.439,0,42.368,0h11.204c0.928,0,1.627,0.7,1.627,1.627v11.206c0,0.927-0.699,1.626-1.627,1.626H52.172z"/>
	<path fill="#6d7178" d="M14.459,3.028c0,0.927-0.699,1.627-1.627,1.627H4.654v8.176c0,0.929-0.699,1.628-1.626,1.628H1.627
		C0.699,14.459,0,13.76,0,12.832V1.627C0,0.7,0.699,0,1.627,0h11.205c0.928,0,1.627,0.7,1.627,1.627V3.028z"/>
	<path fill="#929292" d="M3.028,40.741c0.927,0,1.628,0.699,1.628,1.626v8.178h8.176c0.928,0,1.628,0.699,1.628,1.626v1.402
		c0,0.927-0.7,1.626-1.628,1.626H1.627C0.7,55.2,0,54.5,0,53.573V42.367c0-0.927,0.7-1.626,1.627-1.626H3.028z"/>
	<path fill="#929292" d="M40.741,52.171c0-0.927,0.699-1.627,1.626-1.627h8.178v-8.176c0-0.929,0.699-1.628,1.627-1.628h1.402
		c0.928,0,1.625,0.7,1.625,1.628v11.204c0,0.927-0.697,1.627-1.625,1.627H42.367c-0.927,0-1.626-0.7-1.626-1.627V52.171z"/>
</g>
</svg>
