<?xml version="1.0" encoding="utf-8"?>
<!-- Generator: Adobe Illustrator 16.0.0, SVG Export Plug-In . SVG Version: 6.00 Build 0)  -->
<!DOCTYPE svg PUBLIC "-//W3C//DTD SVG 1.1//EN" "http://www.w3.org/Graphics/SVG/1.1/DTD/svg11.dtd">
<svg version="1.1" id="图层_1" xmlns="http://www.w3.org/2000/svg" xmlns:xlink="http://www.w3.org/1999/xlink" x="0px" y="0px"
	 width="413.102px" height="392.654px" viewBox="0 0 413.102 392.654" enable-background="new 0 0 413.102 392.654"
	 xml:space="preserve">
<rect x="-72.063" y="-8.944" display="none" fill="#36393E" width="592.667" height="485.333"/>
<g>
	<defs>
		<path id="SVGID_1_" d="M321.422,279.912c0,61.334-49.723,111.068-111.058,111.068c-61.336,0-111.058-49.734-111.058-111.068
			c0-61.337,49.722-111.059,111.058-111.059C271.699,168.853,321.422,218.575,321.422,279.912z"/>
	</defs>
	<use xlink:href="#SVGID_1_"  overflow="visible" fill="#2F3136"/>
	<clipPath id="SVGID_2_">
		<use xlink:href="#SVGID_1_"  overflow="visible"/>
	</clipPath>
	
		<linearGradient id="SVGID_3_" gradientUnits="userSpaceOnUse" x1="159.645" y1="271.3501" x2="41.2053" y2="354.2825" gradientTransform="matrix(0.9971 0.0757 -0.0757 0.9971 9.3139 -9.2857)">
		<stop  offset="0" style="stop-color:#606062"/>
		<stop  offset="0.1356" style="stop-color:#525356"/>
		<stop  offset="0.3245" style="stop-color:#434549"/>
	</linearGradient>
	<path clip-path="url(#SVGID_2_)" fill="url(#SVGID_3_)" stroke="#898989" stroke-miterlimit="10" d="M23.644,347.197
		c0.868,0.066,52.758-147.037,53.598-146.941c43.13,4.927,49.743,48.736,45.387,56.359c10.419,1.602,17.266,12.859,16.904,22.963
		c27.229,7.137,27.145,32.266,23.451,43.537c23.986,4.457,32.451,37.127,32.451,37.127"/>
	
		<linearGradient id="SVGID_4_" gradientUnits="userSpaceOnUse" x1="141.2119" y1="313.6138" x2="52.3338" y2="355.0583" gradientTransform="matrix(0.9994 -0.0353 0.0353 0.9994 -8.271 2.9093)">
		<stop  offset="5.773000e-05" style="stop-color:#878A8A"/>
		<stop  offset="0.3494" style="stop-color:#595B5E"/>
		<stop  offset="0.548" style="stop-color:#434549"/>
	</linearGradient>
	<path clip-path="url(#SVGID_2_)" fill="url(#SVGID_4_)" stroke="#AFAFAF" stroke-miterlimit="10" d="M161.442,346.193
		c-1.067-5.764-15.5-17.041-24.155-15.057c8.094-8.822-0.292-45.49-32.467-42.77c-24.37,2.355-35.486,90.697-36.378,90.826"/>
	<linearGradient id="SVGID_5_" gradientUnits="userSpaceOnUse" x1="278.3877" y1="264.0815" x2="392.5184" y2="353.2502">
		<stop  offset="0" style="stop-color:#6E6F6E"/>
		<stop  offset="0.0911" style="stop-color:#646666"/>
		<stop  offset="0.2428" style="stop-color:#4B4D50"/>
		<stop  offset="0.2822" style="stop-color:#434549"/>
	</linearGradient>
	<path clip-path="url(#SVGID_2_)" fill="url(#SVGID_5_)" stroke="#898989" stroke-miterlimit="10" d="M240.379,354.039
		c-3.473-9.643-9.119-17.246-9.119-17.246c0-23.268,24.951-36.312,43.779-33.449c-5.488-22.066,8.863-28.736,20.615-30.334
		c-13.713-29.137,11.93-50.135,33.744-45.962c0.248,0.048,13.705-31.353,40.584-11.052c9.031,6.82,23.695,28.449,27.449,46.66
		c8.262,40.061-2.334,86.781-2.002,86.871"/>
	<linearGradient id="SVGID_6_" gradientUnits="userSpaceOnUse" x1="291.5273" y1="299.604" x2="371.7663" y2="374.428">
		<stop  offset="0" style="stop-color:#878787"/>
		<stop  offset="0.0769" style="stop-color:#797A7B"/>
		<stop  offset="0.2758" style="stop-color:#5C5D60"/>
		<stop  offset="0.4467" style="stop-color:#4A4B4F"/>
		<stop  offset="0.5686" style="stop-color:#434549"/>
	</linearGradient>
	<path clip-path="url(#SVGID_2_)" fill="url(#SVGID_6_)" stroke="#A8A8A8" stroke-miterlimit="10" d="M249.291,354.041
		c0.5-13.521,5.004-32.248,29.916-23.504c-8.945-37.264,18.074-40.025,29.795-39.691c-0.895-9.344,8.303-13.641,17.896-14.213
		c21.111-21.965,44.486-3.307,42.342,9.131c0.73,0.512,25.734,7.936,8.889,30.213c28.641,12.465,5.414,36.691,5.479,36.695
		 M248.975,354.039L248.975,354.039"/>
	<path clip-path="url(#SVGID_2_)" fill="#9E9E9E" d="M199.095,311.144c-18.583-13.047-37.276,7.217-33.977,20.254
		c-11.309-0.785-17.906,5.656-19.636,12.254c-9.109-3.141-26.032-5.287-33.023,4.748c-17.509-14.035-57.219,12.383-43.663,13.758
		c-25.556,93.1,273.247,118.973,272.647-24.951c1.6-16.049-26.793-17.086-39.148,5.951c-2.355-27.33-39.156-27.938-48.895-17.57
		c0-18.457-22.621-22.934-31.657-8.814"/>
	<path clip-path="url(#SVGID_2_)" fill="#D3D3D3" d="M197.607,269.119l-1.237,28.9l-2.204-0.525l1.954,8.9l-2.25-0.25L196.61,313
		l-2.656-2.605l1.333,6.334c-19.793-6.598-26.74,18.428-24.07,33.979c-6.434-4.688-23.417,5.668-19.667,16.668
		c-39.5,5.5-34.122,57.838-6.333,61.973c40.5,85.75,180.81,73.098,199.177-12.5c18.1-6-17.574-26.439-59.178-14.834
		c9.805-28.314,2.191-53.076-25.666-50.639c2.666-11-10.002-20-17.41-13.289c0.629-2.514,9.855-21.816-13.895-19.816l0.125-9.375
		l-2.25,0.375l1.127-8.283l-1.75,1.375l1.234-9.072l-2.025,1.947v-22.857"/>
</g>
<path fill="#AAAAAA" d="M197.746,238.298c-7.903,14.273-3.34,34.854-2.541,37.049c0.452-4.07,1.399-8.469,2.451-10.262
	c0.724,24.17,13.554,41.939,13.554,41.939s15.786-21.5,13.436-41.449c0.904,0.537,3.105,4.543,3.191,9.076
	c1.213-1.508,5.92-23.143-2.496-36.26C216.738,239.35,211.715,240.097,197.746,238.298z"/>
<path fill="#D3D3D3" d="M204.382,241.79c-2.209,27.671,7.152,41.569,7.152,41.569s11.178-13.092,7.405-41.569
	C215.624,242.478,209.122,243.279,204.382,241.79z"/>
<path fill="#C8C8C8" stroke="#8C8C8C" stroke-miterlimit="10" d="M210.689,243.131c-19.098,0.104-27.386-21.67-25.834-49.192
	c0.826-14.817,9.881-35.424,11.595-37.796c3.728-1.556,9.077-2.456,14.433-2.532l0.437,89.458
	C211.099,243.088,210.902,243.13,210.689,243.131z"/>
<path fill="#9C9C9C" stroke="#757575" stroke-miterlimit="10" d="M210.883,153.612c5.238-0.066,10.512,0.661,14.263,2.38
	c2.674,1.731,9.879,22.898,10.869,37.678c1.777,26.865-6.807,49.968-24.696,49.4L210.883,153.612z"/>
<path fill="#7E7E7F" d="M195.292,154.444c2.045-4.091,10.159-12.255,12.752-14.429c0.94-0.776,2.237-1.112,2.237-1.112
	s1.6,0.183,2.932,1.002c4.194,2.56,11.818,8.761,12.83,14.626c-0.457,0.75-0.295,1.17-1.113,1.493l-28.703,0.14
	C195.502,156.17,195.306,155.961,195.292,154.444z"/>
<polygon fill="#707070" points="184.937,209.855 177.591,223.901 183.625,261.267 191.055,231.248 "/>
<polygon fill="#707070" points="235.809,209.596 243.268,223.595 236.363,261.703 229.893,230.242 "/>
<polygon fill="#C4C4C6" points="210.219,126.19 206.754,134.983 210.291,140.221 213.973,135.129 "/>
<path fill="#757575" d="M211.048,232.553l0.053,10.55c8.935-0.304,15.526-5.873,19.68-14.69
	C223.936,231.105,217.442,232.451,211.048,232.553z"/>
<path fill="#9C9C9C" d="M235.9,193.718c-0.982-14.812-8.182-35.969-10.871-37.693c-3.747-1.731-9.013-2.46-14.266-2.393
	l0.385,78.921c6.394-0.104,12.887-1.448,19.733-4.141C235.09,219.481,236.797,207.219,235.9,193.718z"/>
<path fill="#999999" d="M188.717,226.386c4.138,10.354,11.328,16.822,21.741,16.771c0.227-0.001,0.436-0.054,0.644-0.054
	l-0.054-10.86C203.213,232.251,195.218,230.225,188.717,226.386z"/>
<path fill="#C8C8C8" d="M196.327,156.165c-1.69,2.375-10.739,22.971-11.583,37.789c-0.706,12.503,0.626,23.812,4.072,32.433
	c6.501,3.84,14.496,5.866,22.33,5.857l-0.384-78.611C205.416,153.706,200.078,154.61,196.327,156.165z"/>
<polygon fill="#707070" points="211.244,220.304 201.765,241.43 211.191,269.119 220.966,241.211 "/>
<g>
	<path fill="#848484" d="M210.451,198.484c4.977-0.027,8.994-4.07,8.953-9.056c-0.02-4.98-4.067-8.993-9.049-8.958
		c-4.969,0.025-8.982,4.08-8.954,9.058C201.417,194.505,205.482,198.513,210.451,198.484z"/>
	<path fill="#555555" d="M199.427,190.806c-0.041-6.308,5.054-11.451,11.366-11.474c6.3-0.044,11.455,5.046,11.476,11.36
		c0.041,6.31-5.05,11.451-11.363,11.488C204.597,202.206,199.457,197.112,199.427,190.806z M210.561,195.905
		c3.917-0.016,7.061-3.203,7.036-7.093c-0.016-3.918-3.195-7.053-7.094-7.041c-3.905,0.011-7.052,3.201-7.031,7.098
		C203.488,192.777,206.665,195.927,210.561,195.905z"/>
</g>
<circle fill="none" stroke="#6D6D6D" stroke-miterlimit="10" cx="281.051" cy="238.629" r="3.93"/>
<circle fill="#777777" cx="11.282" cy="208.297" r="4.698"/>
<circle fill="#7A7A7A" cx="362.979" cy="133.868" r="2.571"/>
<path fill="#A3A3A3" d="M61.666,266.207c0.662,0,10.994,0,10.994,0c1.695,0,3.075,1.38,3.075,3.077l0,0
	c0,1.696-1.38,3.074-3.075,3.074H34.052c-1.698,0-3.076-1.378-3.076-3.074l0,0c0-1.697,1.378-3.077,3.076-3.077
	c0,0,10.171,0,12.17,0c2.163-1.07,2.323-3.807,0-4.858c-1.575,0-4.55,0-4.55,0c-1.578,0-2.858-1.279-2.858-2.861l0,0
	c0-1.579,1.28-2.859,2.858-2.859h21.021c1.582,0,2.862,1.28,2.862,2.859l0,0c0,1.582-1.28,2.861-2.862,2.861c0,0-0.349,0.02-1.029,0
	C59.378,262.561,59.485,265.242,61.666,266.207z"/>
<g id="moon_2_">
	<path fill="#AAAAAA" d="M31.564,266.25c4.748,1.117,9.51,0.245,13.454-2.08c3.167-2.474,5.547-5.993,6.54-10.209
		c2.312-9.83-3.786-19.672-13.614-21.982c-6.397-1.504-12.786,0.569-17.114,4.895c-1.345,1.945-2.357,4.17-2.935,6.619
		C15.489,253.723,21.611,263.913,31.564,266.25z"/>
	<path fill="#7A7A7A" d="M45.018,264.17c-3.943,2.325-8.706,3.197-13.454,2.08c-9.953-2.338-16.075-12.527-13.671-22.756
		c0.576-2.45,1.592-4.675,2.934-6.618c-2.322,2.321-4.06,5.286-4.867,8.716c-2.312,9.83,3.784,19.672,13.612,21.984
		C35.188,268.897,40.801,267.465,45.018,264.17z"/>
	<circle fill="#9B9B9B" cx="48.422" cy="244.178" r="0.313"/>
	
		<ellipse transform="matrix(0.2425 -0.9701 0.9701 0.2425 -210.4751 237.0876)" fill="#B2B2B2" cx="46.591" cy="253.33" rx="0.174" ry="0.002"/>
	<path fill="#A0A0A0" stroke="#8E8E8E" stroke-miterlimit="10" d="M38.664,244.122c0.747,0.184,1.199,0.938,1.016,1.686
		c-0.185,0.744-0.938,1.201-1.685,1.016c-0.747-0.182-1.202-0.938-1.017-1.685S37.919,243.936,38.664,244.122z"/>
	<circle fill="#969696" stroke="#8C8C8C" stroke-miterlimit="10" cx="41.094" cy="258.686" r="2.821"/>
	<circle fill="#919191" stroke="#8C8C8C" stroke-miterlimit="10" cx="28.255" cy="250.776" r="3.549"/>
	<circle fill="#A0A0A0" stroke="#8C8C8C" stroke-miterlimit="10" cx="31.573" cy="238.622" r="2.089"/>
	<path fill="#A8A8A8" stroke="#939393" stroke-miterlimit="10" d="M24.712,241.2c0.448,0.111,0.722,0.563,0.612,1.014
		c-0.111,0.445-0.565,0.72-1.014,0.609c-0.446-0.112-0.72-0.564-0.61-1.012C23.812,241.363,24.267,241.089,24.712,241.2z"/>
	<circle fill="#A0A0A0" stroke="#939393" stroke-miterlimit="10" cx="27.107" cy="259.438" r="1.183"/>
	<path fill="#9B9B9B" d="M41.807,247.239c0.151,0.035,0.244,0.167,0.212,0.293c-0.03,0.128-0.175,0.198-0.324,0.16
		c-0.149-0.035-0.246-0.166-0.214-0.295C41.511,247.273,41.659,247.2,41.807,247.239z"/>
	
		<ellipse transform="matrix(0.2402 -0.9707 0.9707 0.2402 -217.2479 227.939)" fill="#9B9B9B" cx="36.989" cy="252.753" rx="0.35" ry="0.363"/>
	<circle fill="#939393" cx="35.005" cy="262.651" r="0.696"/>
	<path fill="#939393" d="M29.761,256.486c0.186,0.048,0.3,0.236,0.253,0.425c-0.045,0.186-0.234,0.299-0.421,0.254
		c-0.187-0.049-0.302-0.234-0.254-0.425C29.385,256.555,29.574,256.442,29.761,256.486z"/>
	<circle fill="#9B9B9B" cx="33.598" cy="245.855" r="0.299"/>
	<circle fill="#9B9B9B" cx="36.896" cy="234.461" r="0.451"/>
	<circle fill="#939393" cx="19.255" cy="244.756" r="0.314"/>
	<path fill="#939393" d="M21.113,253.989c0.311,0.077,0.498,0.388,0.422,0.699c-0.076,0.306-0.388,0.492-0.698,0.418
		c-0.308-0.078-0.496-0.389-0.419-0.697C20.494,254.098,20.804,253.914,21.113,253.989z"/>
	<circle fill="#9B9B9B" cx="24.616" cy="238.014" r="0.24"/>
</g>
<path fill="#919191" d="M40.574,273.346c1.965,0,3.562,1.594,3.562,3.562l0,0c0,1.967-1.597,3.564-3.562,3.564H3.564
	c-1.968,0-3.564-1.598-3.564-3.564l0,0c0-1.969,1.597-3.562,3.564-3.562c0,0,17.647-0.02,19.278,0c1.974-0.585,2.233-3.764,0-4.793
	c-1.031,0-1.804,0-1.804,0c-1.52,0-2.747-1.229-2.747-2.746l0,0c0-1.52,1.227-2.75,2.747-2.75h20.007c1.517,0,2.748,1.23,2.748,2.75
	l0,0c0,1.517-1.231,2.746-2.748,2.746h-0.602C38.21,269.497,38.381,272.761,40.574,273.346z"/>
<circle fill="#707070" cx="145.016" cy="60.727" r="3.401"/>
<g id="ufo_2_">
	<path fill="#666666" d="M356.621,140.1c-0.285,0.622-1.055,1.092-1.592,1.235c-1.039,0.17-5.254-1.106-6.475-1.496
		c-7.934,2.336-9.137-1.219-10.041-6.311c-0.318-0.746-2.398-4.12-4-6.875c-0.236-0.831,0.18-1.263,0.641-1.218
		c4.5,7.537,9.725,10.37,13.785,12.369C352.16,139.393,353.193,140.411,356.621,140.1z"/>
	<path fill="#AFAFAF" stroke="#7C7C7C" stroke-miterlimit="10" d="M353.324,135.207c2.469,2.271,3.807,4.147,3.297,4.893
		c-0.832,1.221-6.316-1.073-12.244-5.122c-5.93-4.05-10.061-8.318-9.223-9.542c0.525-0.771,2.916-0.137,6.1,1.459"/>
	<path fill="none" stroke="#898989" stroke-miterlimit="10" d="M341.094,127.173c0.621-1.129,1.543-2.121,2.734-2.843
		c3.545-2.149,8.115-1.087,10.209,2.368c1.768,2.917,1.209,6.607-1.141,8.981C352.461,136.118,342.572,130.622,341.094,127.173z"/>
	<path fill="#939393" d="M341.027,127.062c0.664-1.059,1.609-2.01,2.801-2.732c3.545-2.149,7.898-1.444,9.727,1.57
		c1.543,2.546,0.793,5.924-1.609,8.209C351.502,134.532,342.258,130.106,341.027,127.062z"/>
	<path fill="none" stroke="#545454" stroke-miterlimit="10" d="M348.555,139.84c-1.979-0.153-5.896-3.015-7.232-4.556"/>
	<path fill="#A8A8A8" d="M352.715,135.026c0.146-0.257-4.406-3.976-5.162-4.531c-0.867-0.635-5.475-3.491-5.641-3.155
		s3.799,4.272,4.826,4.914C347.484,132.946,352.57,135.283,352.715,135.026z"/>
	<g id="alien_2_">
		<path fill="none" stroke="#757575" stroke-miterlimit="10" d="M351.398,129.742c-1.078,1.217-1.906,1.251-2.434,1.408
			c-0.887,0.086-1.285,0.049-1.484-0.081c-0.23-0.167-0.605-0.814-0.836-1.84c-0.051-0.787-0.322-0.994,0.42-2.59
			c1.131-1.58,3.02-2.167,4.217-1.309C352.477,126.186,352.529,128.162,351.398,129.742z"/>
		<line fill="none" stroke="#757575" stroke-miterlimit="10" x1="348.871" y1="126.199" x2="348.74" y2="127.889"/>
		<line fill="none" stroke="#757575" stroke-miterlimit="10" x1="351.129" y1="127.668" x2="349.707" y2="128.529"/>
		<polyline fill="none" stroke="#757575" stroke-miterlimit="10" points="347.357,128.727 347.746,129.368 348.645,129.174 
			348.926,129.984 349.564,130.057 		"/>
	</g>
</g>
<g id="flashstar_2_">
	<path fill="#939393" stroke="#777777" stroke-miterlimit="10" d="M241.503,76.942c1.023,3.138,4.396,4.855,7.533,3.833
		c0,0,24.531-8.435,25.387-8.777c2.012-0.933,1-2.923-0.947-2.242c-1.217,0.409-14.473,4.88-16.871,5.632
		c-2.396,0.753-4.146-3.292-1.607-4.208c0.76-0.261,3.133-1.078,5.344-1.826c2.57-1.101,1.029-5.26-1.645-4.289
		c-1.793,0.583-13.357,4.346-13.357,4.346C242.198,70.432,240.483,73.805,241.503,76.942L241.503,76.942z"/>
	<circle fill="#AFAFAF" stroke="#666666" stroke-miterlimit="10" cx="247.21" cy="75.042" r="3.2"/>
	<line fill="none" stroke="#9B9B9B" stroke-miterlimit="10" x1="272.022" y1="64.424" x2="266.937" y2="66.19"/>
	<line fill="none" stroke="#9B9B9B" stroke-miterlimit="10" x1="285.39" y1="59.785" x2="273.741" y2="63.829"/>
	<line fill="none" stroke="#9B9B9B" stroke-miterlimit="10" x1="282.075" y1="64.494" x2="256.989" y2="72.962"/>
</g>
<circle fill="none" stroke="#6D6D6D" stroke-miterlimit="10" cx="298.295" cy="179.869" r="2.046"/>
<g opacity="0.7">
	<path fill="#AAAAAA" d="M268.43,3.339c0,0.369-0.238,0.668-0.529,0.668h-5.621c-0.295,0-0.529-0.299-0.529-0.668l0,0
		c0-0.369,0.234-0.667,0.529-0.667h5.621C268.191,2.672,268.43,2.97,268.43,3.339L268.43,3.339z"/>
	<path fill="#AAAAAA" d="M265.088,0c0.371,0,0.672,0.236,0.672,0.53v5.62c0,0.293-0.301,0.53-0.672,0.53l0,0
		c-0.367,0-0.666-0.237-0.666-0.53V0.53C264.422,0.236,264.721,0,265.088,0L265.088,0z"/>
	<circle fill="#AAAAAA" cx="265.088" cy="3.226" r="1.789"/>
</g>
<circle fill="none" stroke="#6D6D6D" stroke-miterlimit="10" cx="132.21" cy="26.623" r="4.946"/>
<circle fill="#707070" cx="257.23" cy="133.592" r="3.481"/>
<g opacity="0.7">
	<path fill="#AAAAAA" d="M264.42,192.937c0,0.36-0.232,0.652-0.518,0.652h-5.484c-0.287,0-0.516-0.292-0.516-0.652l0,0
		c0-0.36,0.229-0.651,0.516-0.651h5.484C264.188,192.286,264.42,192.577,264.42,192.937L264.42,192.937z"/>
	<path fill="#AAAAAA" d="M261.158,189.679c0.363,0,0.656,0.23,0.656,0.517v5.484c0,0.285-0.293,0.518-0.656,0.518l0,0
		c-0.357,0-0.648-0.232-0.648-0.518v-5.484C260.51,189.91,260.801,189.679,261.158,189.679L261.158,189.679z"/>
	<circle fill="#AAAAAA" cx="261.158" cy="192.828" r="1.745"/>
</g>
<g opacity="0.7">
	<path fill="#AAAAAA" d="M359.162,82.972c0,0.369-0.238,0.668-0.529,0.668h-5.621c-0.295,0-0.529-0.299-0.529-0.668l0,0
		c0-0.369,0.234-0.667,0.529-0.667h5.621C358.924,82.305,359.162,82.604,359.162,82.972L359.162,82.972z"/>
	<path fill="#AAAAAA" d="M355.82,79.633c0.371,0,0.67,0.236,0.67,0.53v5.62c0,0.293-0.299,0.53-0.67,0.53l0,0
		c-0.367,0-0.666-0.237-0.666-0.53v-5.62C355.154,79.87,355.453,79.633,355.82,79.633L355.82,79.633z"/>
	<circle fill="#AAAAAA" cx="355.82" cy="82.86" r="1.789"/>
</g>
<g opacity="0.7">
	<path fill="#AAAAAA" d="M168.61,89.904c0,0.328-0.211,0.594-0.471,0.594h-4.996c-0.262,0-0.471-0.266-0.471-0.594l0,0
		c0-0.328,0.209-0.593,0.471-0.593h4.996C168.399,89.311,168.61,89.576,168.61,89.904L168.61,89.904z"/>
	<path fill="#AAAAAA" d="M165.639,86.936c0.33,0,0.597,0.21,0.597,0.471v4.996c0,0.26-0.267,0.471-0.597,0.471l0,0
		c-0.326,0-0.592-0.211-0.592-0.471v-4.996C165.047,87.146,165.313,86.936,165.639,86.936L165.639,86.936z"/>
	<circle fill="#AAAAAA" cx="165.639" cy="89.804" r="1.59"/>
</g>
<circle fill="#A0A0A0" cx="309.535" cy="238.628" r="3.924"/>
<g>
	<path fill="none" stroke="#606060" stroke-miterlimit="10" d="M85.271,160.309l-4.898,4.728c-1.054-1.028-1.697-2.476-1.662-4.065
		c0.068-3.037,2.584-5.442,5.62-5.374c1.571,0.034,2.974,0.725,3.952,1.803l-1.099,1.062"/>
	<line fill="none" stroke="#606060" stroke-miterlimit="10" x1="87.596" y1="164.719" x2="84.268" y2="161.275"/>
	<path fill="none" stroke="#606060" stroke-miterlimit="10" d="M81.363,156.392c-0.378,0.249-1.583-0.715-1.48-0.895"/>
	<path fill="none" stroke="#606060" stroke-miterlimit="10" d="M79.692,157.958c0.24-0.32-0.883-1.372-0.883-1.372"/>
	
		<rect x="72.229" y="149.169" transform="matrix(-0.7295 0.6839 -0.6839 -0.7295 230.6614 209.6022)" fill="none" stroke="#606060" stroke-miterlimit="10" width="3.318" height="2.477"/>
	
		<rect x="69.011" y="145.257" transform="matrix(-0.6988 0.7153 -0.7153 -0.6988 223.9601 198.5466)" fill="none" stroke="#606060" stroke-miterlimit="10" width="2.336" height="2.336"/>
	<line fill="none" stroke="#606060" stroke-miterlimit="10" x1="73.116" y1="149.434" x2="70.91" y2="147.349"/>
	<line fill="none" stroke="#606060" stroke-miterlimit="10" x1="85.618" y1="145.207" x2="88.889" y2="142.029"/>
	<line fill="none" stroke="#606060" stroke-miterlimit="10" x1="79.326" y1="151.319" x2="84.854" y2="145.95"/>
	<line fill="none" stroke="#606060" stroke-miterlimit="10" x1="71.371" y1="159.043" x2="74.529" y2="155.978"/>
	<line fill="none" stroke="#606060" stroke-miterlimit="10" x1="67.682" y1="162.627" x2="70.826" y2="159.574"/>
	<line fill="none" stroke="#606060" stroke-miterlimit="10" x1="65.119" y1="165.117" x2="66.901" y2="163.386"/>
	<g>
		
			<rect x="72.279" y="158.835" transform="matrix(-0.7509 0.6604 -0.6604 -0.7509 235.0289 231.989)" fill="#B5B5B5" width="2.968" height="2.968"/>
		
			<rect x="69.514" y="161.397" transform="matrix(-0.7385 0.6742 -0.6742 -0.7385 233.2336 235.2739)" fill="#828282" width="2.967" height="2.928"/>
		
			<rect x="66.641" y="163.99" transform="matrix(-0.7509 0.6604 -0.6604 -0.7509 228.5862 244.7878)" fill="#B5B5B5" width="2.969" height="3.031"/>
		
			<rect x="68.895" y="155.274" transform="matrix(-0.7509 0.6604 -0.6604 -0.7509 226.757 227.9826)" fill="#B5B5B5" width="2.97" height="2.969"/>
		
			<rect x="66.129" y="157.836" transform="matrix(-0.7384 0.6743 -0.6743 -0.7384 224.9606 231.3441)" fill="#B5B5B5" width="2.969" height="2.93"/>
		
			<rect x="63.26" y="160.429" transform="matrix(-0.7508 0.6605 -0.6605 -0.7508 220.3232 240.7655)" fill="#8C8C8C" width="2.969" height="3.03"/>
		
			<rect x="87.729" y="143.764" transform="matrix(-0.7506 0.6608 -0.6608 -0.7506 252.1495 195.3234)" fill="#B5B5B5" width="2.968" height="2.968"/>
		
			<rect x="84.961" y="146.326" transform="matrix(-0.7388 0.674 -0.674 -0.7388 249.912 198.7132)" fill="#8C8C8C" width="2.968" height="2.928"/>
		
			<rect x="82.092" y="148.918" transform="matrix(-0.7506 0.6608 -0.6608 -0.7506 245.7081 208.1253)" fill="#B5B5B5" width="2.968" height="3.031"/>
		
			<rect x="84.345" y="140.204" transform="matrix(-0.7513 0.66 -0.66 -0.7513 243.8215 191.4917)" fill="#B5B5B5" width="2.968" height="2.968"/>
		
			<rect x="81.579" y="142.765" transform="matrix(-0.7382 0.6746 -0.6746 -0.7382 241.6724 194.6745)" fill="#B5B5B5" width="2.968" height="2.93"/>
		
			<rect x="78.707" y="145.358" transform="matrix(-0.7509 0.6605 -0.6605 -0.7509 237.4089 204.1912)" fill="#8C8C8C" width="2.971" height="3.029"/>
	</g>
	<path fill="#C1C1C1" d="M87.595,164.731c-0.022-0.002-0.043,0-0.065,0.001c-0.223,0.227-0.365,0.53-0.373,0.873
		c-0.015,0.713,0.55,1.303,1.262,1.317c0.348,0.008,0.664-0.124,0.9-0.342c0.001-0.02,0.006-0.04,0.006-0.061
		C89.347,165.553,88.573,164.753,87.595,164.731z"/>
	<path fill="#B2B2B2" d="M89.736,165.665c0.016-0.714-0.547-1.304-1.259-1.321c-0.372-0.007-0.706,0.142-0.947,0.389
		c0.022-0.001,0.043-0.004,0.065-0.001c0.978,0.021,1.751,0.821,1.729,1.789c0,0.021-0.004,0.041-0.006,0.061
		C89.569,166.352,89.728,166.028,89.736,165.665z"/>
	<path fill="#C9C9C9" d="M77.045,152.918c1.362,0.03,2.533,0.789,3.162,1.89c0.103-0.311,0.162-0.639,0.169-0.981
		c0.042-1.851-1.424-3.383-3.274-3.424c-1.849-0.041-3.382,1.426-3.423,3.275c-0.007,0.341,0.038,0.674,0.125,0.988
		C74.481,153.591,75.684,152.888,77.045,152.918z"/>
	<path fill="#DDDDDD" d="M76.953,157.098c1.506,0.036,2.803-0.932,3.254-2.291c-0.629-1.101-1.8-1.859-3.162-1.89
		c-1.361-0.03-2.564,0.673-3.241,1.747C74.194,156.042,75.447,157.066,76.953,157.098z"/>
	<circle fill="none" stroke="#606060" stroke-miterlimit="10" cx="77.063" cy="153.791" r="3.313"/>
	<path fill="#C9C9C9" d="M85.181,160.185l1.86-1.7l1.067-1.031c-0.949-1.047-2.312-1.718-3.837-1.752
		c-2.214-0.049-4.143,1.257-4.995,3.161c0.647-0.221,1.266-0.255,2.066-0.324C82.797,158.729,84.007,159.114,85.181,160.185z"/>
	<path fill="#DDDDDD" d="M80.411,164.82l4.714-4.552l0.121-0.116c-1.021-0.961-2.398-1.571-3.928-1.604
		c-0.964-0.021-1.649,0.183-2.048,0.316c-0.281,0.626-0.443,1.316-0.458,2.043C78.776,162.439,79.395,163.831,80.411,164.82z"/>
</g>
<g opacity="0.7">
	<path fill="#AAAAAA" d="M82.905,109.291c0,0.339-0.211,0.614-0.471,0.614h-4.996c-0.262,0-0.471-0.275-0.471-0.614l0,0
		c0-0.338,0.209-0.613,0.471-0.613h4.996C82.694,108.678,82.905,108.953,82.905,109.291L82.905,109.291z"/>
	<path fill="#AAAAAA" d="M79.935,106.223c0.33,0,0.597,0.218,0.597,0.488v5.163c0,0.269-0.267,0.487-0.597,0.487l0,0
		c-0.326,0-0.592-0.219-0.592-0.487v-5.163C79.343,106.44,79.608,106.223,79.935,106.223L79.935,106.223z"/>
	<ellipse fill="#AAAAAA" cx="79.935" cy="109.188" rx="1.59" ry="1.644"/>
</g>
<circle fill="none" stroke="#9E9E9E" stroke-miterlimit="10" cx="284.98" cy="36.353" r="2.532"/>
<circle fill="none" stroke="#9E9E9E" stroke-miterlimit="10" cx="39.599" cy="86.936" r="3.585"/>
<circle fill="none" stroke="#9E9E9E" stroke-miterlimit="10" cx="99.621" cy="223.171" r="3.807"/>
<circle fill="#999999" cx="199.909" cy="47.61" r="2.407"/>
<circle fill="#7A7A7A" cx="120.576" cy="156.523" r="2.571"/>
<circle fill="#999999" cx="141.086" cy="220.765" r="2.407"/>
<circle fill="#999999" cx="317.701" cy="31.569" r="2.25"/>
<circle fill="none" stroke="#6D6D6D" stroke-miterlimit="10" cx="141.086" cy="129.662" r="3.93"/>
<path fill="#A3A3A3" d="M332.5,334.255c0.922,0,15.312,0,15.312,0c2.361,0,4.283,1.924,4.283,4.289l0,0
	c0,2.361-1.922,4.281-4.283,4.281h-53.779c-2.363,0-4.281-1.92-4.281-4.281l0,0c0-2.365,1.918-4.289,4.281-4.289
	c0,0,14.172,0,16.955,0c3.012-1.488,3.234-5.301,0-6.766c-2.195,0-6.338,0-6.338,0c-2.199,0-3.982-1.785-3.982-3.986l0,0
	c0-2.199,1.783-3.984,3.982-3.984h29.279c2.201,0,3.986,1.785,3.986,3.984l0,0c0,2.201-1.785,3.986-3.986,3.986
	c0,0-0.486,0.025-1.436,0C329.312,329.177,329.461,332.912,332.5,334.255z"/>
<path fill="#7F7F7F" d="M344.414,215.662h-0.713c-1.797,0-3.256-1.458-3.256-3.256l0,0c0-1.799,1.459-3.259,3.256-3.259h23.705
	c1.805,0,3.258,1.46,3.258,3.259l0,0c0,1.798-1.453,3.256-3.258,3.256c0,0-0.912,0-2.133,0c-2.646,1.22-2.342,4.985,0,5.679
	c1.932-0.022,22.842,0,22.842,0c2.332,0,4.227,1.891,4.227,4.223l0,0c0,2.33-1.895,4.224-4.227,4.224h-43.857
	c-2.326,0-4.221-1.894-4.221-4.224l0,0c0-2.332,1.895-4.223,4.221-4.223C346.857,220.647,347.061,216.779,344.414,215.662z"/>
<path fill="#A3A3A3" d="M112.567,355.228c-1.418,0.037-2.146,0-2.146,0c-3.292,0-5.959-2.748-5.959-6.135l0,0
	c0-3.383,2.667-6.131,5.959-6.131h43.775c3.289,0,5.955,2.748,5.955,6.131l0,0c0,3.387-2.667,6.135-5.955,6.135c0,0-6.192,0-9.476,0
	c-4.834,2.254-4.501,8.119,0,10.408c4.163,0,25.35,0,25.35,0c3.533,0,6.402,2.963,6.402,6.602l0,0c0,3.633-2.869,6.586-6.402,6.586
	H89.667c-3.531,0-6.404-2.953-6.404-6.586l0,0c0-3.639,2.873-6.602,6.404-6.602c0,0,21.514,0,22.894,0
	C117.102,363.57,117.326,357.824,112.567,355.228z"/>
<path fill="#919191" d="M114.921,379.656c3.479,0,6.31,2.91,6.31,6.498l0,0c0,3.584-2.831,6.5-6.31,6.5H49.35
	c-3.486,0-6.317-2.916-6.317-6.5l0,0c0-3.588,2.831-6.498,6.317-6.498c0,0,31.263-0.033,34.152,0c3.5-1.066,3.957-6.861,0-8.736
	c-1.825,0-3.19,0-3.19,0c-2.697,0-4.871-2.244-4.871-5.01l0,0c0-2.768,2.174-5.016,4.871-5.016h35.441
	c2.687,0,4.867,2.248,4.867,5.016l0,0c0,2.766-2.181,5.01-4.867,5.01h-1.065C110.731,372.638,111.034,378.589,114.921,379.656z"/>
<path fill="#7A7A7A" d="M396.771,238.96c0,2.127-1.725,3.85-3.852,3.85h-28.822c-2.129,0-3.85-1.723-3.85-3.85l0,0
	c0-2.123,1.721-3.847,3.85-3.847h28.822C395.047,235.114,396.771,236.837,396.771,238.96L396.771,238.96z"/>
<path fill="#7A7A7A" d="M404.953,238.644c0,2.252,1.826,4.074,4.072,4.074c2.25,0,4.076-1.822,4.076-4.074
	c0-2.251-1.826-4.074-4.076-4.074C406.779,234.57,404.953,236.393,404.953,238.644z"/>
<path fill="#7F7F7F" d="M313.27,342.552h-0.711c-1.797,0-3.256-1.457-3.256-3.256l0,0c0-1.799,1.459-3.258,3.256-3.258h23.705
	c1.803,0,3.258,1.459,3.258,3.258l0,0c0,1.799-1.455,3.256-3.258,3.256c0,0-0.914,0-2.135,0c-2.646,1.221-2.34,4.986,0,5.68
	c1.934-0.023,22.844,0,22.844,0c2.332,0,4.225,1.891,4.225,4.223l0,0c0,2.33-1.893,4.223-4.225,4.223h-43.857
	c-2.328,0-4.221-1.893-4.221-4.223l0,0c0-2.332,1.893-4.223,4.221-4.223C315.715,347.539,315.918,343.669,313.27,342.552z"/>
</svg>
