<?xml version="1.0" encoding="utf-8"?>
<!-- Generator: Adobe Illustrator 16.0.0, SVG Export Plug-In . SVG Version: 6.00 Build 0)  -->
<!DOCTYPE svg PUBLIC "-//W3C//DTD SVG 1.1//EN" "http://www.w3.org/Graphics/SVG/1.1/DTD/svg11.dtd">
<svg version="1.1" xmlns="http://www.w3.org/2000/svg" xmlns:xlink="http://www.w3.org/1999/xlink" x="0px" y="0px"
	 width="489.401px" height="390.98px" viewBox="0 0 489.401 390.98" enable-background="new 0 0 489.401 390.98"
	 xml:space="preserve">
<rect x="-25.977" y="-8.944" display="none" fill="#36393E" width="592.667" height="485.333"/>
<g>
	<defs>
		<path id="SVGID_1_" d="M367.508,279.912c0,61.334-49.723,111.068-111.058,111.068c-61.336,0-111.058-49.734-111.058-111.068
			c0-61.337,49.722-111.059,111.058-111.059C317.785,168.853,367.508,218.575,367.508,279.912z"/>
	</defs>
	<use xlink:href="#SVGID_1_"  overflow="visible" fill="#2F3136"/>
	<clipPath id="SVGID_2_">
		<use xlink:href="#SVGID_1_"  overflow="visible"/>
	</clipPath>
	
		<linearGradient id="SVGID_3_" gradientUnits="userSpaceOnUse" x1="198.9614" y1="257.8774" x2="80.5219" y2="340.8097" gradientTransform="matrix(0.9992 -0.0395 0.0395 0.9992 -30.574 5.3499)">
		<stop  offset="0" style="stop-color:#606062"/>
		<stop  offset="0.1356" style="stop-color:#525356"/>
		<stop  offset="0.3245" style="stop-color:#434549"/>
	</linearGradient>
	<path clip-path="url(#SVGID_2_)" fill="url(#SVGID_3_)" stroke="#898989" stroke-miterlimit="10" d="M63.438,342.799
		c0.87-0.034,35.487-152.131,36.332-152.132c43.411-0.07,55.021,42.687,51.571,50.761c10.534,0.392,18.631,10.786,19.434,20.865
		c27.87,3.955,30.677,28.928,28.306,40.549c24.339,1.668,36.508,33.146,36.508,33.146"/>
	
		<linearGradient id="SVGID_4_" gradientUnits="userSpaceOnUse" x1="179.1914" y1="301.9917" x2="90.3135" y2="343.4362" gradientTransform="matrix(0.9565 -0.2919 0.3208 1.0513 -87.51 28.6464)">
		<stop  offset="5.773000e-05" style="stop-color:#878A8A"/>
		<stop  offset="0.3494" style="stop-color:#595B5E"/>
		<stop  offset="0.548" style="stop-color:#434549"/>
	</linearGradient>
	<path clip-path="url(#SVGID_2_)" fill="url(#SVGID_4_)" stroke="#AFAFAF" stroke-miterlimit="10" d="M207.708,326.316
		c-2.685-5.844-19.88-14.133-27.682-9.824c5.298-11.419-13.332-48.185-43.67-37.106c-22.895,8.703-8.303,105.253-9.129,105.617"/>
	
		<linearGradient id="SVGID_5_" gradientUnits="userSpaceOnUse" x1="268.7061" y1="287.7134" x2="382.8376" y2="376.8827" gradientTransform="matrix(0.9343 0.3564 -0.3564 0.9343 133.263 -89.363)">
		<stop  offset="0" style="stop-color:#6E6F6E"/>
		<stop  offset="0.0911" style="stop-color:#646666"/>
		<stop  offset="0.2428" style="stop-color:#4B4D50"/>
		<stop  offset="0.2822" style="stop-color:#434549"/>
	</linearGradient>
	<path clip-path="url(#SVGID_2_)" fill="url(#SVGID_5_)" stroke="#898989" stroke-miterlimit="10" d="M214.214,345.725
		c0.192-10.247-2.375-19.363-2.375-19.363c8.292-21.74,36.255-25.035,52.826-15.649c2.736-22.574,18.522-23.691,30.072-20.997
		c-2.428-32.109,29.015-42.591,47.908-30.917c0.215,0.134,23.979-24.41,41.857,4.138c6.008,9.591,12.001,35.025,9.019,53.379
		c-6.559,40.374-33.108,80.252-32.83,80.454"/>
	
		<linearGradient id="SVGID_6_" gradientUnits="userSpaceOnUse" x1="309.6104" y1="312.5444" x2="389.8493" y2="387.3684" gradientTransform="matrix(0.9889 -0.1485 0.1485 0.9889 -45.7032 53.962)">
		<stop  offset="0" style="stop-color:#878787"/>
		<stop  offset="0.0769" style="stop-color:#797A7B"/>
		<stop  offset="0.2758" style="stop-color:#5C5D60"/>
		<stop  offset="0.4467" style="stop-color:#4A4B4F"/>
		<stop  offset="0.5686" style="stop-color:#434549"/>
	</linearGradient>
	<path clip-path="url(#SVGID_2_)" fill="url(#SVGID_6_)" stroke="#A8A8A8" stroke-miterlimit="10" d="M273.188,377.18
		c-1.512-13.446,0.162-32.633,26.096-27.685c-14.378-35.521,11.933-42.266,23.573-43.675c-2.272-9.106,6.185-14.722,15.588-16.712
		c17.616-24.855,43.503-9.875,43.228,2.743c0.799,0.397,26.627,4.026,13.275,28.558c30.174,8.074,10.801,35.481,10.866,35.477
		 M272.876,377.224L272.876,377.224"/>
	<path clip-path="url(#SVGID_2_)" fill="#9E9E9E" d="M220.096,320.448c-18.583-13.047-37.276,7.217-33.977,20.254
		c-11.309-0.785-17.906,5.656-19.636,12.254c-9.109-3.141-26.032-5.287-33.023,4.748c-17.509-14.035-57.219,12.383-43.663,13.758
		c-25.556,93.1,273.241,118.973,272.642-24.951c1.6-16.049-26.793-17.086-39.148,5.951c-2.355-27.33-39.156-27.938-48.895-17.57
		c0-18.457-22.616-22.934-31.652-8.814"/>
	<path clip-path="url(#SVGID_2_)" fill="#D3D3D3" d="M218.608,278.422l-1.237,28.9l-2.204-0.525l1.954,8.9l-2.25-0.25l2.739,6.855
		l-2.656-2.605l1.333,6.334c-19.793-6.598-26.74,18.428-24.07,33.979c-6.434-4.688-23.417,5.668-19.667,16.668
		c-39.5,5.5-34.122,57.838-6.333,61.973c40.5,85.75,180.805,73.098,199.172-12.5c18.1-6-17.574-26.439-59.178-14.834
		c9.805-28.314,2.191-53.076-25.666-50.639c2.666-11-10.002-20-17.406-13.289c0.625-2.514,9.852-21.816-13.893-19.816l0.125-9.375
		l-2.25,0.375l1.127-8.283l-1.75,1.375l1.234-9.072l-2.025,1.947v-22.857"/>
</g>
<g id="rocket">
	<path fill="#AAAAAA" d="M218.314,251.917c-7.903,14.273-3.34,34.854-2.541,37.049c0.452-4.07,1.399-8.469,2.451-10.262
		c0.724,24.17,13.554,41.939,13.554,41.939s15.786-21.5,13.436-41.449c0.904,0.537,3.105,4.543,3.191,9.076
		c1.213-1.508,5.92-23.143-2.496-36.26C237.306,252.969,232.284,253.716,218.314,251.917z"/>
	<path fill="#D3D3D3" d="M224.95,255.409c-2.209,27.671,7.152,41.569,7.152,41.569s11.178-13.092,7.405-41.569
		C236.192,256.097,229.69,256.898,224.95,255.409z"/>
	<path fill="#C8C8C8" stroke="#8C8C8C" stroke-miterlimit="10" d="M231.257,256.75c-19.098,0.104-27.386-21.67-25.834-49.171
		c0.826-14.817,9.881-35.424,11.595-37.796c3.728-1.556,9.077-2.456,14.433-2.532l0.437,89.438
		C231.667,256.708,231.47,256.75,231.257,256.75z"/>
	<path fill="#9C9C9C" stroke="#757575" stroke-miterlimit="10" d="M231.452,167.251c5.238-0.066,10.512,0.661,14.263,2.38
		c2.674,1.731,9.879,22.898,10.869,37.678c1.777,26.845-6.807,49.947-24.696,49.38L231.452,167.251z"/>
	<polygon fill="#C4C4C6" points="230.788,138.929 227.323,147.722 230.859,152.959 234.542,147.868 	"/>
	<path fill="#7E7E7F" d="M216.099,168.039c2.703-6.91,8.521-11.49,12.22-14.458c0.973-0.812,2.114-1.038,2.531-1.038
		c0.489,0,1.517,0.244,2.708,1.022c4.562,2.984,10.458,8.015,12.709,14.474c0,0.333,0,0.916-0.769,1.625l-28.703,0.14
		C216.015,169.164,216.006,168.665,216.099,168.039z"/>
	<polygon fill="#707070" points="205.505,223.496 198.16,237.52 204.194,274.886 211.624,244.867 	"/>
	<polygon fill="#707070" points="256.377,223.236 263.836,237.214 256.932,275.322 250.461,243.861 	"/>
	<path fill="#757575" d="M231.617,246.172l0.053,10.55c8.935-0.304,15.526-5.873,19.68-14.69
		C244.504,244.724,238.011,246.07,231.617,246.172z"/>
	<path fill="#9C9C9C" d="M256.469,207.358c-0.982-14.812-8.182-35.969-10.871-37.693c-3.747-1.731-9.013-2.46-14.266-2.393
		l0.385,78.901c6.394-0.104,12.887-1.448,19.733-4.141C255.658,233.102,257.365,220.859,256.469,207.358z"/>
	<path fill="#999999" d="M209.285,240.005c4.138,10.354,11.328,16.822,21.741,16.771c0.227-0.001,0.436-0.054,0.644-0.054
		l-0.054-10.86C223.781,245.871,215.787,243.844,209.285,240.005z"/>
	<path fill="#C8C8C8" d="M216.896,169.805c-1.69,2.375-10.739,22.971-11.583,37.789c-0.706,12.504,0.626,23.801,4.072,32.412
		c6.501,3.84,14.496,5.866,22.33,5.857l-0.384-78.59C225.984,167.346,220.646,168.25,216.896,169.805z"/>
	<polygon fill="#707070" points="231.812,233.923 222.333,255.049 231.759,282.738 241.534,254.831 	"/>
	<g>
		<path fill="#848484" d="M231.019,212.124c4.977-0.027,8.994-4.07,8.953-9.056c-0.02-4.98-4.067-8.993-9.049-8.958
			c-4.969,0.025-8.982,4.08-8.954,9.058C221.986,208.145,226.05,212.153,231.019,212.124z"/>
		<path fill="#555555" d="M219.995,204.446c-0.041-6.308,5.054-11.451,11.366-11.474c6.3-0.044,11.455,5.046,11.476,11.36
			c0.041,6.31-5.05,11.451-11.363,11.488C225.165,215.845,220.025,210.751,219.995,204.446z M231.129,209.545
			c3.917-0.016,7.061-3.203,7.036-7.093c-0.016-3.918-3.195-7.053-7.094-7.041c-3.905,0.011-7.052,3.201-7.031,7.098
			C224.056,206.417,227.233,209.566,231.129,209.545z"/>
	</g>
</g>
<circle fill="none" stroke="#6D6D6D" stroke-miterlimit="10" cx="327.137" cy="238.629" r="3.93"/>
<circle fill="#777777" cx="57.368" cy="208.297" r="4.698"/>
<circle fill="#7A7A7A" cx="412.274" cy="144.654" r="2.571"/>
<path fill="#A3A3A3" d="M107.752,266.207c0.662,0,10.994,0,10.994,0c1.695,0,3.075,1.38,3.075,3.077l0,0
	c0,1.696-1.38,3.074-3.075,3.074H80.138c-1.698,0-3.076-1.378-3.076-3.074l0,0c0-1.697,1.378-3.077,3.076-3.077
	c0,0,10.171,0,12.17,0c2.163-1.07,2.323-3.807,0-4.858c-1.575,0-4.55,0-4.55,0c-1.578,0-2.858-1.279-2.858-2.861l0,0
	c0-1.579,1.28-2.859,2.858-2.859h21.021c1.582,0,2.862,1.28,2.862,2.859l0,0c0,1.582-1.28,2.861-2.862,2.861c0,0-0.349,0.02-1.029,0
	C105.464,262.561,105.571,265.242,107.752,266.207z"/>
<g id="moon_2_">
	<path fill="#AAAAAA" d="M77.65,266.25c4.748,1.117,9.51,0.245,13.454-2.08c3.167-2.474,5.547-5.993,6.54-10.209
		c2.312-9.83-3.786-19.672-13.614-21.982c-6.397-1.504-12.786,0.569-17.114,4.895c-1.345,1.945-2.357,4.17-2.935,6.619
		C61.575,253.723,67.697,263.913,77.65,266.25z"/>
	<path fill="#7A7A7A" d="M91.104,264.17c-3.943,2.325-8.706,3.197-13.454,2.08c-9.953-2.338-16.075-12.527-13.671-22.756
		c0.576-2.45,1.592-4.675,2.934-6.618c-2.322,2.321-4.06,5.286-4.867,8.716c-2.312,9.83,3.784,19.672,13.612,21.984
		C81.274,268.897,86.887,267.465,91.104,264.17z"/>
	<circle fill="#9B9B9B" cx="94.508" cy="244.178" r="0.313"/>
	
		<ellipse transform="matrix(0.2425 -0.9701 0.9701 0.2425 -175.5666 281.7976)" fill="#B2B2B2" cx="92.677" cy="253.33" rx="0.174" ry="0.002"/>
	<path fill="#A0A0A0" stroke="#8E8E8E" stroke-miterlimit="10" d="M84.75,244.122c0.747,0.184,1.199,0.938,1.016,1.686
		c-0.185,0.744-0.938,1.201-1.685,1.016c-0.747-0.182-1.202-0.938-1.017-1.685S84.005,243.936,84.75,244.122z"/>
	<circle fill="#969696" stroke="#8C8C8C" stroke-miterlimit="10" cx="87.179" cy="258.686" r="2.821"/>
	<circle fill="#919191" stroke="#8C8C8C" stroke-miterlimit="10" cx="74.341" cy="250.776" r="3.549"/>
	<circle fill="#A0A0A0" stroke="#8C8C8C" stroke-miterlimit="10" cx="77.659" cy="238.622" r="2.089"/>
	<path fill="#A8A8A8" stroke="#939393" stroke-miterlimit="10" d="M70.798,241.2c0.448,0.111,0.722,0.563,0.612,1.014
		c-0.111,0.445-0.565,0.72-1.014,0.609c-0.446-0.112-0.72-0.564-0.61-1.012C69.898,241.363,70.353,241.089,70.798,241.2z"/>
	<circle fill="#A0A0A0" stroke="#939393" stroke-miterlimit="10" cx="73.193" cy="259.438" r="1.183"/>
	<path fill="#9B9B9B" d="M87.893,247.239c0.151,0.035,0.244,0.167,0.212,0.293c-0.03,0.128-0.175,0.198-0.324,0.16
		c-0.149-0.035-0.246-0.166-0.214-0.295C87.597,247.273,87.745,247.2,87.893,247.239z"/>
	
		<ellipse transform="matrix(0.2402 -0.9707 0.9707 0.2402 -182.2334 272.6753)" fill="#9B9B9B" cx="83.075" cy="252.753" rx="0.35" ry="0.363"/>
	<circle fill="#939393" cx="81.091" cy="262.651" r="0.696"/>
	<path fill="#939393" d="M75.847,256.486c0.186,0.048,0.3,0.236,0.253,0.425c-0.045,0.186-0.234,0.299-0.421,0.254
		c-0.187-0.049-0.302-0.234-0.254-0.425C75.471,256.555,75.66,256.442,75.847,256.486z"/>
	<circle fill="#9B9B9B" cx="79.684" cy="245.855" r="0.299"/>
	<circle fill="#9B9B9B" cx="82.981" cy="234.461" r="0.451"/>
	<circle fill="#939393" cx="65.341" cy="244.756" r="0.314"/>
	<path fill="#939393" d="M67.199,253.989c0.311,0.077,0.498,0.388,0.422,0.699c-0.076,0.306-0.388,0.492-0.698,0.418
		c-0.308-0.078-0.496-0.389-0.419-0.697C66.58,254.098,66.89,253.914,67.199,253.989z"/>
	<circle fill="#9B9B9B" cx="70.702" cy="238.014" r="0.24"/>
</g>
<path fill="#919191" d="M86.66,273.346c1.965,0,3.562,1.594,3.562,3.562l0,0c0,1.967-1.597,3.564-3.562,3.564H49.65
	c-1.968,0-3.564-1.598-3.564-3.564l0,0c0-1.969,1.597-3.562,3.564-3.562c0,0,17.647-0.02,19.278,0c1.974-0.585,2.233-3.764,0-4.793
	c-1.031,0-1.804,0-1.804,0c-1.52,0-2.747-1.229-2.747-2.746l0,0c0-1.52,1.227-2.75,2.747-2.75h20.007c1.517,0,2.748,1.23,2.748,2.75
	l0,0c0,1.517-1.231,2.746-2.748,2.746H86.53C84.296,269.497,84.467,272.761,86.66,273.346z"/>
<circle fill="#707070" cx="3.4" cy="313.393" r="3.401"/>
<g id="ufo_2_">
	<path fill="#666666" d="M402.707,140.1c-0.285,0.622-1.055,1.092-1.592,1.235c-1.039,0.17-5.254-1.106-6.475-1.496
		c-7.934,2.336-9.137-1.219-10.041-6.311c-0.318-0.746-2.398-4.12-4-6.875c-0.236-0.831,0.18-1.263,0.641-1.218
		c4.5,7.537,9.725,10.37,13.785,12.369C398.246,139.393,399.279,140.411,402.707,140.1z"/>
	<path fill="#AFAFAF" stroke="#7C7C7C" stroke-miterlimit="10" d="M399.41,135.207c2.469,2.271,3.807,4.147,3.297,4.893
		c-0.832,1.221-6.316-1.073-12.244-5.122c-5.93-4.05-10.061-8.318-9.223-9.542c0.525-0.771,2.916-0.137,6.1,1.459"/>
	<path fill="none" stroke="#898989" stroke-miterlimit="10" d="M387.18,127.173c0.621-1.129,1.543-2.121,2.734-2.843
		c3.545-2.149,8.115-1.087,10.209,2.368c1.768,2.917,1.209,6.607-1.141,8.981C398.547,136.118,388.658,130.622,387.18,127.173z"/>
	<path fill="#939393" d="M387.113,127.062c0.664-1.059,1.609-2.01,2.801-2.732c3.545-2.149,7.898-1.444,9.727,1.57
		c1.543,2.546,0.793,5.924-1.609,8.209C397.588,134.532,388.344,130.106,387.113,127.062z"/>
	<path fill="none" stroke="#545454" stroke-miterlimit="10" d="M394.641,139.84c-1.979-0.153-5.896-3.015-7.232-4.556"/>
	<path fill="#A8A8A8" d="M398.801,135.026c0.146-0.257-4.406-3.976-5.162-4.531c-0.867-0.635-5.475-3.491-5.641-3.155
		s3.799,4.272,4.826,4.914C393.57,132.946,398.656,135.283,398.801,135.026z"/>
	<g id="alien_2_">
		<path fill="none" stroke="#757575" stroke-miterlimit="10" d="M397.484,129.742c-1.078,1.217-1.906,1.251-2.434,1.408
			c-0.887,0.086-1.285,0.049-1.484-0.081c-0.23-0.167-0.605-0.814-0.836-1.84c-0.051-0.787-0.322-0.994,0.42-2.59
			c1.131-1.58,3.02-2.167,4.217-1.309C398.562,126.186,398.615,128.162,397.484,129.742z"/>
		<line fill="none" stroke="#757575" stroke-miterlimit="10" x1="394.957" y1="126.199" x2="394.826" y2="127.889"/>
		<line fill="none" stroke="#757575" stroke-miterlimit="10" x1="397.215" y1="127.668" x2="395.793" y2="128.529"/>
		<polyline fill="none" stroke="#757575" stroke-miterlimit="10" points="393.443,128.727 393.832,129.368 394.73,129.174 
			395.012,129.984 395.65,130.057 		"/>
	</g>
</g>
<g id="flashstar_2_">
	<path fill="#939393" stroke="#777777" stroke-miterlimit="10" d="M287.589,76.942c1.023,3.138,4.396,4.855,7.533,3.833
		c0,0,24.531-8.435,25.387-8.777c2.012-0.933,1-2.923-0.947-2.242c-1.217,0.409-14.473,4.88-16.871,5.632
		c-2.396,0.753-4.146-3.292-1.607-4.208c0.76-0.261,3.133-1.078,5.344-1.826c2.57-1.101,1.029-5.26-1.645-4.289
		c-1.793,0.583-13.357,4.346-13.357,4.346C288.284,70.432,286.569,73.805,287.589,76.942L287.589,76.942z"/>
	<circle fill="#AFAFAF" stroke="#666666" stroke-miterlimit="10" cx="293.296" cy="75.042" r="3.2"/>
	<line fill="none" stroke="#9B9B9B" stroke-miterlimit="10" x1="318.108" y1="64.424" x2="313.022" y2="66.19"/>
	<line fill="none" stroke="#9B9B9B" stroke-miterlimit="10" x1="331.476" y1="59.785" x2="319.827" y2="63.829"/>
	<line fill="none" stroke="#9B9B9B" stroke-miterlimit="10" x1="328.161" y1="64.494" x2="303.075" y2="72.962"/>
</g>
<circle fill="none" stroke="#6D6D6D" stroke-miterlimit="10" cx="344.381" cy="179.869" r="2.046"/>
<g opacity="0.7">
	<path fill="#AAAAAA" d="M314.516,3.339c0,0.369-0.238,0.668-0.529,0.668h-5.621c-0.295,0-0.529-0.299-0.529-0.668l0,0
		c0-0.369,0.234-0.667,0.529-0.667h5.621C314.277,2.672,314.516,2.97,314.516,3.339L314.516,3.339z"/>
	<path fill="#AAAAAA" d="M311.174,0c0.371,0,0.672,0.236,0.672,0.53v5.62c0,0.293-0.301,0.53-0.672,0.53l0,0
		c-0.367,0-0.666-0.237-0.666-0.53V0.53C310.508,0.236,310.807,0,311.174,0L311.174,0z"/>
	<circle fill="#AAAAAA" cx="311.174" cy="3.226" r="1.789"/>
</g>
<circle fill="none" stroke="#6D6D6D" stroke-miterlimit="10" cx="472.401" cy="309.992" r="4.946"/>
<circle fill="#707070" cx="303.316" cy="133.592" r="3.481"/>
<g opacity="0.7">
	<path fill="#AAAAAA" d="M296.555,194.995c0,0.36-0.232,0.652-0.518,0.652h-5.484c-0.287,0-0.516-0.292-0.516-0.652l0,0
		c0-0.36,0.229-0.651,0.516-0.651h5.484C296.322,194.344,296.555,194.635,296.555,194.995L296.555,194.995z"/>
	<path fill="#AAAAAA" d="M293.293,191.737c0.363,0,0.656,0.23,0.656,0.517v5.484c0,0.285-0.293,0.518-0.656,0.518l0,0
		c-0.357,0-0.648-0.232-0.648-0.518v-5.484C292.645,191.968,292.936,191.737,293.293,191.737L293.293,191.737z"/>
	<circle fill="#AAAAAA" cx="293.293" cy="194.886" r="1.745"/>
</g>
<g opacity="0.7">
	<path fill="#AAAAAA" d="M441.768,59.783c0,0.369-0.238,0.668-0.529,0.668h-5.621c-0.295,0-0.529-0.299-0.529-0.668l0,0
		c0-0.369,0.234-0.667,0.529-0.667h5.621C441.529,59.116,441.768,59.415,441.768,59.783L441.768,59.783z"/>
	<path fill="#AAAAAA" d="M438.426,56.444c0.371,0,0.67,0.236,0.67,0.53v5.62c0,0.293-0.299,0.53-0.67,0.53l0,0
		c-0.367,0-0.666-0.237-0.666-0.53v-5.62C437.76,56.681,438.059,56.444,438.426,56.444L438.426,56.444z"/>
	<circle fill="#AAAAAA" cx="438.426" cy="59.671" r="1.789"/>
</g>
<g opacity="0.7">
	<path fill="#AAAAAA" d="M214.696,89.904c0,0.328-0.211,0.594-0.471,0.594h-4.996c-0.262,0-0.471-0.266-0.471-0.594l0,0
		c0-0.328,0.209-0.593,0.471-0.593h4.996C214.485,89.311,214.696,89.576,214.696,89.904L214.696,89.904z"/>
	<path fill="#AAAAAA" d="M211.725,86.936c0.33,0,0.597,0.21,0.597,0.471v4.996c0,0.26-0.267,0.471-0.597,0.471l0,0
		c-0.326,0-0.592-0.211-0.592-0.471v-4.996C211.133,87.146,211.399,86.936,211.725,86.936L211.725,86.936z"/>
	<circle fill="#AAAAAA" cx="211.725" cy="89.804" r="1.59"/>
</g>
<circle fill="#A0A0A0" cx="351.697" cy="224.799" r="3.924"/>
<g>
	<path fill="none" stroke="#606060" stroke-miterlimit="10" d="M140.124,148.206l-4.898,4.728c-1.054-1.028-1.697-2.476-1.662-4.065
		c0.068-3.037,2.584-5.442,5.62-5.374c1.571,0.034,2.974,0.725,3.952,1.803l-1.099,1.062"/>
	<line fill="none" stroke="#606060" stroke-miterlimit="10" x1="142.448" y1="152.616" x2="139.12" y2="149.172"/>
	<path fill="none" stroke="#606060" stroke-miterlimit="10" d="M136.215,144.288c-0.378,0.249-1.583-0.715-1.48-0.895"/>
	<path fill="none" stroke="#606060" stroke-miterlimit="10" d="M134.544,145.854c0.24-0.32-0.883-1.372-0.883-1.372"/>
	
		<rect x="127.081" y="137.066" transform="matrix(-0.7295 0.6839 -0.6839 -0.7295 317.2526 151.1536)" fill="none" stroke="#606060" stroke-miterlimit="10" width="3.318" height="2.477"/>
	
		<rect x="123.863" y="133.154" transform="matrix(-0.6988 0.7153 -0.7153 -0.6988 308.485 138.7486)" fill="none" stroke="#606060" stroke-miterlimit="10" width="2.336" height="2.336"/>
	<line fill="none" stroke="#606060" stroke-miterlimit="10" x1="127.968" y1="137.331" x2="125.762" y2="135.246"/>
	<line fill="none" stroke="#606060" stroke-miterlimit="10" x1="140.47" y1="133.103" x2="143.741" y2="129.925"/>
	<line fill="none" stroke="#606060" stroke-miterlimit="10" x1="134.178" y1="139.215" x2="139.706" y2="133.847"/>
	<line fill="none" stroke="#606060" stroke-miterlimit="10" x1="126.223" y1="146.94" x2="129.381" y2="143.874"/>
	<line fill="none" stroke="#606060" stroke-miterlimit="10" x1="122.534" y1="150.524" x2="125.678" y2="147.47"/>
	<line fill="none" stroke="#606060" stroke-miterlimit="10" x1="119.971" y1="153.013" x2="121.753" y2="151.282"/>
	<g>
		
			<rect x="127.131" y="146.732" transform="matrix(-0.7509 0.6604 -0.6604 -0.7509 323.0762 174.5719)" fill="#B5B5B5" width="2.968" height="2.968"/>
		
			<rect x="124.366" y="149.293" transform="matrix(-0.7385 0.6742 -0.6742 -0.7385 320.4362 177.2499)" fill="#828282" width="2.967" height="2.928"/>
		
			<rect x="121.493" y="151.886" transform="matrix(-0.7509 0.6604 -0.6604 -0.7509 316.6321 187.3697)" fill="#B5B5B5" width="2.969" height="3.031"/>
		
			<rect x="123.747" y="143.171" transform="matrix(-0.7509 0.6604 -0.6604 -0.7509 314.8023 170.5641)" fill="#B5B5B5" width="2.97" height="2.969"/>
		
			<rect x="120.981" y="145.732" transform="matrix(-0.7384 0.6743 -0.6743 -0.7384 312.1566 173.3155)" fill="#B5B5B5" width="2.969" height="2.93"/>
		
			<rect x="118.112" y="148.325" transform="matrix(-0.7508 0.6605 -0.6605 -0.7508 308.3636 183.3433)" fill="#8C8C8C" width="2.969" height="3.03"/>
		
			<rect x="142.581" y="131.661" transform="matrix(-0.7506 0.6608 -0.6608 -0.7506 340.1758 137.8909)" fill="#B5B5B5" width="2.968" height="2.968"/>
		
			<rect x="139.813" y="134.223" transform="matrix(-0.7388 0.674 -0.674 -0.7388 337.1299 140.7001)" fill="#8C8C8C" width="2.968" height="2.928"/>
		
			<rect x="136.944" y="136.815" transform="matrix(-0.7506 0.6608 -0.6608 -0.7506 333.7344 150.6928)" fill="#B5B5B5" width="2.968" height="3.031"/>
		
			<rect x="139.197" y="128.1" transform="matrix(-0.7513 0.66 -0.66 -0.7513 331.8955 134.0942)" fill="#B5B5B5" width="2.968" height="2.968"/>
		
			<rect x="136.431" y="130.662" transform="matrix(-0.7382 0.6746 -0.6746 -0.7382 328.8532 136.6352)" fill="#B5B5B5" width="2.968" height="2.93"/>
		
			<rect x="133.559" y="133.255" transform="matrix(-0.7509 0.6605 -0.6605 -0.7509 325.4535 146.7721)" fill="#8C8C8C" width="2.971" height="3.029"/>
	</g>
	<path fill="#C1C1C1" d="M142.447,152.628c-0.022-0.002-0.043,0-0.065,0.001c-0.223,0.227-0.365,0.53-0.373,0.873
		c-0.015,0.713,0.55,1.303,1.262,1.317c0.348,0.008,0.664-0.124,0.9-0.342c0.001-0.02,0.006-0.04,0.006-0.061
		C144.199,153.449,143.425,152.649,142.447,152.628z"/>
	<path fill="#B2B2B2" d="M144.588,153.561c0.016-0.714-0.547-1.304-1.259-1.321c-0.372-0.007-0.706,0.142-0.947,0.389
		c0.022-0.001,0.043-0.004,0.065-0.001c0.978,0.021,1.751,0.821,1.729,1.789c0,0.021-0.004,0.041-0.006,0.061
		C144.421,154.249,144.58,153.925,144.588,153.561z"/>
	<path fill="#C9C9C9" d="M131.897,140.814c1.362,0.03,2.533,0.789,3.162,1.89c0.103-0.311,0.162-0.639,0.169-0.981
		c0.042-1.851-1.424-3.383-3.274-3.424c-1.849-0.041-3.382,1.426-3.423,3.275c-0.007,0.341,0.038,0.674,0.125,0.988
		C129.333,141.487,130.536,140.785,131.897,140.814z"/>
	<path fill="#DDDDDD" d="M131.805,144.995c1.506,0.036,2.803-0.932,3.254-2.291c-0.629-1.101-1.8-1.859-3.162-1.89
		c-1.361-0.03-2.564,0.673-3.241,1.747C129.046,143.939,130.299,144.963,131.805,144.995z"/>
	<circle fill="none" stroke="#606060" stroke-miterlimit="10" cx="131.915" cy="141.688" r="3.313"/>
	<path fill="#C9C9C9" d="M140.033,148.082l1.86-1.7l1.067-1.031c-0.949-1.047-2.312-1.718-3.837-1.752
		c-2.214-0.049-4.143,1.257-4.995,3.161c0.647-0.221,1.266-0.255,2.066-0.324C137.649,146.625,138.859,147.011,140.033,148.082z"/>
	<path fill="#DDDDDD" d="M135.263,152.717l4.714-4.552l0.121-0.116c-1.021-0.961-2.398-1.571-3.928-1.604
		c-0.964-0.021-1.649,0.183-2.048,0.316c-0.281,0.626-0.443,1.316-0.458,2.043C133.628,150.335,134.247,151.727,135.263,152.717z"/>
</g>
<g opacity="0.7">
	<path fill="#AAAAAA" d="M108.715,286.296c0,0.339-0.211,0.614-0.471,0.614h-4.996c-0.262,0-0.471-0.275-0.471-0.614l0,0
		c0-0.338,0.209-0.613,0.471-0.613h4.996C108.504,285.683,108.715,285.958,108.715,286.296L108.715,286.296z"/>
	<path fill="#AAAAAA" d="M105.745,283.228c0.33,0,0.597,0.218,0.597,0.488v5.163c0,0.269-0.267,0.487-0.597,0.487l0,0
		c-0.326,0-0.592-0.219-0.592-0.487v-5.163C105.153,283.446,105.418,283.228,105.745,283.228L105.745,283.228z"/>
	<ellipse fill="#AAAAAA" cx="105.745" cy="286.194" rx="1.59" ry="1.644"/>
</g>
<circle fill="none" stroke="#9E9E9E" stroke-miterlimit="10" cx="331.066" cy="36.353" r="2.532"/>
<circle fill="none" stroke="#9E9E9E" stroke-miterlimit="10" cx="80.773" cy="104.455" r="3.585"/>
<circle fill="none" stroke="#9E9E9E" stroke-miterlimit="10" cx="145.707" cy="223.171" r="3.807"/>
<circle fill="#999999" cx="245.995" cy="47.61" r="2.407"/>
<circle fill="#7A7A7A" cx="166.662" cy="156.523" r="2.571"/>
<circle fill="#999999" cx="187.172" cy="208.298" r="2.407"/>
<circle fill="#999999" cx="424.596" cy="368.189" r="2.25"/>
<circle fill="none" stroke="#6D6D6D" stroke-miterlimit="10" cx="187.172" cy="129.662" r="3.93"/>
<path fill="#7F7F7F" d="M317.084,366.038c0.989,0,8.921,0,8.921,0c2.533,0,4.595,2.063,4.595,4.601l0,0
	c0,2.533-2.062,4.593-4.595,4.593h-50.188c-2.535,0-4.593-2.06-4.593-4.593l0,0c0-2.537,2.058-4.601,4.593-4.601
	c0,0,15.203,0,18.189,0c3.23-1.597,3.47-5.687,0-7.259c-2.355,0-6.8,0-6.8,0c-2.359,0-4.271-1.915-4.271-4.276l0,0
	c0-2.358,1.912-4.274,4.271-4.274h31.41c2.361,0,4.276,1.916,4.276,4.274l0,0c0,2.361-1.915,4.276-4.276,4.276
	c0,0-0.521,0.027-1.54,0C313.664,360.589,313.823,364.596,317.084,366.038z"/>
<path fill="#7F7F7F" d="M390.5,215.662h-0.713c-1.797,0-3.256-1.458-3.256-3.256l0,0c0-1.799,1.459-3.259,3.256-3.259h23.705
	c1.805,0,3.258,1.46,3.258,3.259l0,0c0,1.798-1.453,3.256-3.258,3.256c0,0-0.912,0-2.133,0c-2.646,1.22-2.342,4.985,0,5.679
	c1.932-0.022,22.842,0,22.842,0c2.332,0,4.227,1.891,4.227,4.223l0,0c0,2.33-1.895,4.224-4.227,4.224h-43.857
	c-2.326,0-4.221-1.894-4.221-4.224l0,0c0-2.332,1.895-4.223,4.221-4.223C392.943,220.647,393.146,216.779,390.5,215.662z"/>
<path fill="#8C8C8C" d="M141.896,353.067c-1.332,0.035-2.016,0-2.016,0c-3.092,0-5.598-2.581-5.598-5.762l0,0
	c0-3.178,2.506-5.759,5.598-5.759h41.117c3.09,0,5.594,2.581,5.594,5.759l0,0c0,3.181-2.504,5.762-5.594,5.762c0,0-5.816,0-8.901,0
	c-4.54,2.117-4.227,7.627,0,9.776c3.911,0,23.811,0,23.811,0c3.319,0,6.014,2.783,6.014,6.201l0,0c0,3.412-2.694,6.187-6.014,6.187
	h-75.521c-3.317,0-6.016-2.774-6.016-6.187l0,0c0-3.418,2.698-6.201,6.016-6.201c0,0,20.207,0,21.503,0
	C146.156,360.903,146.365,355.505,141.896,353.067z"/>
<path display="none" fill="#969696" d="M149.154,382.812c3.479,0,6.31,2.91,6.31,6.498l0,0c0,3.584-2.831,6.5-6.31,6.5H83.583
	c-3.486,0-6.317-2.916-6.317-6.5l0,0c0-3.588,2.831-6.498,6.317-6.498c0,0,31.263-0.033,34.152,0c3.5-1.066,3.957-6.861,0-8.736
	c-1.825,0-3.19,0-3.19,0c-2.697,0-4.871-2.244-4.871-5.01l0,0c0-2.768,2.174-5.016,4.871-5.016h35.441
	c2.687,0,4.867,2.248,4.867,5.016l0,0c0,2.766-2.181,5.01-4.867,5.01h-1.065C144.964,375.794,145.268,381.746,149.154,382.812z"/>
<path fill="#7A7A7A" d="M442.857,238.96c0,2.127-1.725,3.85-3.852,3.85h-28.822c-2.129,0-3.85-1.723-3.85-3.85l0,0
	c0-2.123,1.721-3.847,3.85-3.847h28.822C441.133,235.114,442.857,236.837,442.857,238.96L442.857,238.96z"/>
<path fill="#7A7A7A" d="M451.039,238.644c0,2.252,1.826,4.074,4.072,4.074c2.25,0,4.076-1.822,4.076-4.074
	c0-2.251-1.826-4.074-4.076-4.074C452.865,234.57,451.039,236.393,451.039,238.644z"/>
<path fill="#A3A3A3" d="M298.217,374.976h-0.711c-1.797,0-3.239-1.73-3.239-3.529l0,0c0-1.799,1.459-3.258,3.256-3.258h30.249
	c1.803,0,3.258,1.459,3.258,3.258l0,0c0,1.799-1.479,3.529-3.281,3.529c0,0-6.289,0-7.51,0c-3.959-0.029-2.99,5.377-1.146,5.406
	c1.934-0.023,22.844,0,22.844,0c2.332,0,4.225,1.891,4.225,4.223l0,0c0,2.33-1.893,4.223-4.225,4.223h-43.857
	c-2.328,0-4.221-1.893-4.221-4.223l0,0c0-2.332,1.893-4.223,4.221-4.223C300.904,380.322,300.998,375.291,298.217,374.976z"/>
</svg>
