<?xml version="1.0" encoding="iso-8859-1"?>
<!-- Generator: Adobe Illustrator 19.0.0, SVG Export Plug-In . SVG Version: 6.00 Build 0)  -->
<svg version="1.1" id="Layer_1" xmlns="http://www.w3.org/2000/svg" xmlns:xlink="http://www.w3.org/1999/xlink" x="0px" y="0px"
	 viewBox="0 0 512 512" style="enable-background:new 0 0 512 512;" xml:space="preserve">
<g>
	<path style="fill:#FBD971;" d="M512,256c0,141.383-114.617,256-256,256S0,397.383,0,256S114.617,0,256,0S512,114.617,512,256"/>
	<g>
		<path style="fill:#E57E25;" d="M397.241,176.552c-4.882,0-8.828-3.955-8.828-8.828c0-14.601-11.882-26.483-26.483-26.483
			s-26.483,11.882-26.483,26.483c0,4.873-3.946,8.828-8.828,8.828s-8.828-3.955-8.828-8.828c0-24.338,19.8-44.138,44.138-44.138
			s44.138,19.8,44.138,44.138C406.069,172.597,402.123,176.552,397.241,176.552"/>
		<path style="fill:#E57E25;" d="M185.379,176.552c-4.882,0-8.828-3.955-8.828-8.828c0-14.601-11.882-26.483-26.483-26.483
			c-14.601,0-26.483,11.882-26.483,26.483c0,4.873-3.946,8.828-8.828,8.828c-4.882,0-8.828-3.955-8.828-8.828
			c0-24.338,19.8-44.138,44.138-44.138s44.138,19.8,44.138,44.138C194.207,172.597,190.261,176.552,185.379,176.552"/>
	</g>
	<path style="fill:#FB7B76;" d="M317.793,379.586v17.655c0,34.127-27.666,61.793-61.793,61.793s-61.793-27.666-61.793-61.793
		v-17.655v-33.668c0-15.289,12.226-28.628,27.507-28.107c13.18,0.45,25.15,9.445,34.286,17.638
		c9.137-8.192,21.107-17.187,34.286-17.638c15.281-0.521,27.507,12.818,27.507,28.107V379.586"/>
	<path style="fill:#C03A2B;" d="M376.554,282.483H135.543c-9.64,0-15.219,10.805-9.807,18.785
		c16.922,24.982,40.589,44.8,68.476,56.788v-12.138c0-15.289,12.217-28.628,27.498-28.107c13.188,0.45,25.15,9.437,34.295,17.638
		c9.137-8.201,21.098-17.187,34.286-17.638c15.281-0.521,27.507,12.818,27.507,28.107v12.138
		c27.904-12.006,51.597-31.85,68.529-56.867C391.702,293.235,386.158,282.483,376.554,282.483"/>
</g>
<g>
</g>
<g>
</g>
<g>
</g>
<g>
</g>
<g>
</g>
<g>
</g>
<g>
</g>
<g>
</g>
<g>
</g>
<g>
</g>
<g>
</g>
<g>
</g>
<g>
</g>
<g>
</g>
<g>
</g>
</svg>
