<?xml version="1.0" encoding="utf-8"?>
<!-- Generator: Adobe Illustrator 16.0.0, SVG Export Plug-In . SVG Version: 6.00 Build 0)  -->
<!DOCTYPE svg PUBLIC "-//W3C//DTD SVG 1.1//EN" "http://www.w3.org/Graphics/SVG/1.1/DTD/svg11.dtd">
<svg version="1.1" id="图层_1" xmlns="http://www.w3.org/2000/svg" xmlns:xlink="http://www.w3.org/1999/xlink" x="0px" y="0px"
	 width="16px" height="16px" viewBox="0 0 16 16" enable-background="new 0 0 16 16" xml:space="preserve">
<path fill="#ECECEC" d="M9,10H7c0-2,1.2-2.6,2-3c0.3-0.1,0.5-0.2,0.7-0.4C9.8,6.5,10,6.3,9.8,5.9c-0.2-0.5-0.8-1-1.7-1
	c-1.4,0-1.6,1.2-1.7,1.5l-2-0.3C4.5,5,5.4,2.9,8,2.9c1.6,0,3,0.9,3.6,2.2c0.4,1.1,0.2,2.2-0.6,3c-0.4,0.4-0.8,0.6-1.2,0.7
	C9.2,9.2,9,9,9,10z"/>
<path fill="#ECECEC" d="M8,1c3.9,0,7,3.1,7,7c0,3.9-3.1,7-7,7c-3.9,0-7-3.1-7-7C1,4.1,4.1,1,8,1z M8,0C3.6,0,0,3.6,0,8
	c0,4.4,3.6,8,8,8c4.4,0,8-3.6,8-8C16,3.6,12.4,0,8,0L8,0z"/>
<path fill="#ECECEC" d="M6.9,11h2v2h-2V11z"/>
</svg>
