<?xml version="1.0" encoding="utf-8"?>
<!-- Generator: Adobe Illustrator 16.0.0, SVG Export Plug-In . SVG Version: 6.00 Build 0)  -->
<!DOCTYPE svg PUBLIC "-//W3C//DTD SVG 1.1//EN" "http://www.w3.org/Graphics/SVG/1.1/DTD/svg11.dtd">
<svg version="1.1" id="图层_1" xmlns="http://www.w3.org/2000/svg" xmlns:xlink="http://www.w3.org/1999/xlink" x="0px" y="0px"
	 width="10.972px" height="16px" viewBox="2 0 10.972 16" enable-background="new 2 0 10.972 16" xml:space="preserve">
<path fill="#FFFFFF" d="M9,11H6c0-3,1.6-4,2.7-4.6C9.1,6.2,9.4,6,9.6,5.8C10.1,5.3,9.9,4.6,9.8,4.4C9.5,3.7,8.8,3,7.5,3
	C5.4,3,5,4.9,5,5.3L2,4.9C2.2,3.2,3.7,0,7.5,0c2.3,0,4.3,1.3,5.1,3.2c0.7,1.7,0.4,3.5-0.8,4.7c-0.5,0.5-1.1,0.8-1.6,1.1
	C9.3,9.5,9,10,9,11z"/>
<path fill="#FFFFFF" d="M9.5,14c0,1.105-0.895,2-2,2c-1.105,0-2-0.895-2-2s0.895-2,2-2C8.605,12,9.5,12.895,9.5,14z"/>
</svg>
