<?xml version="1.0" encoding="utf-8"?>
<!-- Generator: Adobe Illustrator 16.0.0, SVG Export Plug-In . SVG Version: 6.00 Build 0)  -->
<!DOCTYPE svg PUBLIC "-//W3C//DTD SVG 1.1//EN" "http://www.w3.org/Graphics/SVG/1.1/DTD/svg11.dtd">
<svg version="1.1" id="图层_1" xmlns="http://www.w3.org/2000/svg" xmlns:xlink="http://www.w3.org/1999/xlink" x="0px" y="0px"
	 width="36.006px" height="35.836px" viewBox="0 0 36.006 35.836" enable-background="new 0 0 36.006 35.836" xml:space="preserve">
<path fill="#999999" d="M18.003,0C13.031,0,8.531,2.005,5.273,5.247L2.758,3.208l-1.729,8.725l7.988-3.438L6.861,6.559
	c2.873-2.811,6.805-4.542,11.142-4.542c8.801,0,15.935,7.133,15.935,15.934c0,8.802-7.134,15.936-15.935,15.936
	S2.068,26.752,2.068,17.95L0,17.918c0,9.896,8.061,17.918,18.003,17.918s18.003-8.021,18.003-17.918S27.945,0,18.003,0z"/>
<polygon fill="#999999" points="17.803,21.058 15.837,21.058 15.837,9.933 14.629,9.934 16.826,5.933 19.024,9.934 17.803,9.933 "/>
<polygon fill="#999999" points="15.837,18.973 15.837,21.058 23.889,20.938 23.888,22.147 27.889,19.949 23.888,17.751 
	23.889,18.973 "/>
</svg>
