<?xml version="1.0" encoding="utf-8"?>
<!-- Generator: Adobe Illustrator 16.0.0, SVG Export Plug-In . SVG Version: 6.00 Build 0)  -->
<!DOCTYPE svg PUBLIC "-//W3C//DTD SVG 1.1//EN" "http://www.w3.org/Graphics/SVG/1.1/DTD/svg11.dtd">
<svg version="1.1" id="图层_1" xmlns="http://www.w3.org/2000/svg" xmlns:xlink="http://www.w3.org/1999/xlink" x="0px" y="0px"
	 width="50px" height="51.051px" viewBox="0 0 50 51.051" enable-background="new 0 0 50 51.051" xml:space="preserve">
<path fill="#FFFFFF" d="M26.606,0.298c0.707-0.398,1.415-0.398,2.034,0s16.826,10.063,17.601,10.525
	c0.638,0.722,0.973,1.062,1.062,1.857c0.088,0.796,2.59,23.348,2.697,24.323c0.005,0.576-0.221,0.797-0.221,0.797
	S25.558,50.251,24.66,50.712s-1.504,0.443-2.123,0C21.918,50.271,6.916,38.201,6.528,37.888s-0.531-0.654-0.707-0.973
	c-0.12-0.424-5.528-23.218-5.749-24.146c-0.222-0.708,0.044-1.371,1.149-1.946C2.062,10.47,25.582,0.723,26.606,0.298z
	 M18.911,23.294l26.136-11.409L27.49,1.183L1.753,12.062L18.911,23.294z M1.753,13.123l5.749,23.586l14.74,11.615l-4.068-23.762
	L1.753,13.123z M24.13,49.267l24.234-12.383L45.652,12.71L19.59,24.503L24.13,49.267z"/>
</svg>
