<?xml version="1.0" encoding="utf-8"?>
<!-- Generator: Adobe Illustrator 16.0.0, SVG Export Plug-In . SVG Version: 6.00 Build 0)  -->
<!DOCTYPE svg PUBLIC "-//W3C//DTD SVG 1.1//EN" "http://www.w3.org/Graphics/SVG/1.1/DTD/svg11.dtd">
<svg version="1.1" xmlns="http://www.w3.org/2000/svg" xmlns:xlink="http://www.w3.org/1999/xlink" x="0px" y="0px"
	 width="74.999px" height="69.271px" viewBox="0 0 74.999 69.271" enable-background="new 0 0 74.999 69.271" xml:space="preserve">
<g>
	<g>
		<path fill="#72767D" d="M19.218,0c-4.721,0-8.56,3.804-8.56,8.463l-0.312,43.909l4.669,0.033L15.326,8.48
			c0-2.103,1.745-3.812,3.892-3.812h46.911V0H19.218z"/>
	</g>
</g>
<g>
	<g>
		<path fill="#72767D" d="M66.129,0c-4.889,0-8.867,3.979-8.867,8.869v49.279c0,3.559-2.898,6.457-6.459,6.457
			s-6.456-2.898-6.456-6.457v-5.68c0-1.289-1.046-2.336-2.335-2.336H2.333C1.043,50.132,0,51.179,0,52.468v5.68
			c0,6.135,4.991,11.123,11.125,11.123v-4.666c-3.562,0-6.457-2.898-6.457-6.457v-3.346h35.01v3.346
			c0,6.135,4.99,11.123,11.125,11.123c6.136,0,11.126-4.988,11.126-11.123v-36.52h10.736c1.289,0,2.334-1.044,2.334-2.333V8.869
			C74.999,3.979,71.021,0,66.129,0z M70.331,16.959h-8.402V8.869c0-2.316,1.885-4.201,4.2-4.201s4.202,1.884,4.202,4.201V16.959
			L70.331,16.959z"/>
	</g>
</g>
<g>
	<g>
		<rect x="10.658" y="64.604" fill="#72767D" width="39.6" height="4.666"/>
	</g>
</g>
<g>
	<g>
		<path fill="#72767D" d="M43.904,22.216H21.839c-1.089,0-1.973,1.045-1.973,2.334c0,1.289,0.884,2.333,1.973,2.333h22.065
			c1.09,0,1.975-1.045,1.975-2.333C45.879,23.261,44.994,22.216,43.904,22.216z"/>
	</g>
</g>
<g>
	<g>
		<path fill="#72767D" d="M43.904,31.552H21.839c-1.089,0-1.973,1.045-1.973,2.334s0.884,2.335,1.973,2.335h22.065
			c1.09,0,1.975-1.045,1.975-2.335C45.879,32.597,44.994,31.552,43.904,31.552z"/>
	</g>
</g>
<g>
	<g>
		<path fill="#72767D" d="M43.904,40.916H21.839c-1.089,0-1.973,1.047-1.973,2.336s0.884,2.334,1.973,2.334h22.065
			c1.09,0,1.975-1.045,1.975-2.334S44.994,40.916,43.904,40.916z"/>
	</g>
</g>
<g>
	<g>
		<path fill="#72767D" d="M43.901,12.993H21.835c-1.09,0-1.974,1.045-1.974,2.334s0.884,2.334,1.974,2.334h22.066
			c1.09,0,1.975-1.045,1.975-2.334S44.991,12.993,43.901,12.993z"/>
	</g>
</g>
<path fill="#72767D" d="M53.263,16.661c0,0.552-0.447,1-1,1h-2.668c-0.553,0-1-0.448-1-1v-2.668c0-0.552,0.447-1,1-1h2.668
	c0.553,0,1,0.448,1,1V16.661z"/>
<path fill="#72767D" d="M53.259,25.884c0,0.553-0.447,1-1,1h-2.668c-0.553,0-1-0.447-1-1v-2.667c0-0.553,0.447-1,1-1h2.668
	c0.553,0,1,0.447,1,1V25.884z"/>
<path fill="#72767D" d="M53.255,35.235c0,0.553-0.447,1-1,1h-2.668c-0.553,0-1-0.447-1-1v-2.668c0-0.553,0.447-1,1-1h2.668
	c0.553,0,1,0.447,1,1V35.235z"/>
<path fill="#72767D" d="M53.251,44.585c0,0.553-0.447,1-1,1h-2.668c-0.553,0-1-0.447-1-1v-2.668c0-0.553,0.447-1,1-1h2.668
	c0.553,0,1,0.447,1,1V44.585z"/>
</svg>
