<?xml version="1.0" encoding="utf-8"?>
<!-- Generator: Adobe Illustrator 16.0.0, SVG Export Plug-In . SVG Version: 6.00 Build 0)  -->
<!DOCTYPE svg PUBLIC "-//W3C//DTD SVG 1.1//EN" "http://www.w3.org/Graphics/SVG/1.1/DTD/svg11.dtd">
<svg version="1.1" xmlns="http://www.w3.org/2000/svg" xmlns:xlink="http://www.w3.org/1999/xlink" x="0px" y="0px" width="27.6px"
	 height="60px" viewBox="32.575 19.125 27.6 60" enable-background="new 32.575 19.125 27.6 60" xml:space="preserve">
<g id="Capa_1">
	<g>
		<g>
			<path fill="#2759AA" d="M53.672,19.125c4.018,0,6.026,2.74,6.026,5.874c0,3.913-3.489,7.533-8.034,7.533
				c-3.807,0-6.027-2.251-5.922-5.968C45.742,23.431,48.385,19.125,53.672,19.125z M41.301,79.125
				c-3.172,0-5.498-1.957-3.277-10.568l3.642-15.275c0.634-2.445,0.737-3.424,0-3.424c-0.952,0-5.071,1.689-7.506,3.354
				l-1.584-2.643c7.718-6.555,16.597-10.4,20.402-10.4c3.171,0,3.7,3.816,2.114,9.689l-4.169,16.056
				c-0.74,2.837-0.422,3.815,0.316,3.815c0.952,0,4.072-1.178,7.138-3.625l1.798,2.447C52.668,76.186,44.473,79.125,41.301,79.125z"
				/>
		</g>
	</g>
</g>
<g id="图层_2" display="none">
	<path display="inline" fill="#2759AA" d="M81.875,75.75c0,3.313-2.687,6-6,6h-53.25c-3.313,0-6-2.687-6-6V22.5c0-3.313,2.687-6,6-6
		h53.25c3.313,0,6,2.687,6,6V75.75z M80.25,23.826c0-3.148-2.553-5.701-5.701-5.701H23.951c-3.148,0-5.701,2.553-5.701,5.701v50.598
		c0,3.148,2.553,5.701,5.701,5.701h50.598c3.148,0,5.701-2.553,5.701-5.701V23.826z"/>
</g>
</svg>
