<?xml version="1.0" encoding="utf-8"?>
<!-- Generator: Adobe Illustrator 16.0.0, SVG Export Plug-In . SVG Version: 6.00 Build 0)  -->
<!DOCTYPE svg PUBLIC "-//W3C//DTD SVG 1.1//EN" "http://www.w3.org/Graphics/SVG/1.1/DTD/svg11.dtd">
<svg version="1.1" id="图层_2" xmlns="http://www.w3.org/2000/svg" xmlns:xlink="http://www.w3.org/1999/xlink" x="0px" y="0px"
	 width="21.667px" height="31.233px" viewBox="0 0 21.667 31.233" enable-background="new 0 0 21.667 31.233" xml:space="preserve">
<path fill="none" stroke="#4E525A" stroke-miterlimit="10" d="M21.167,27.733c0,1.657-1.344,3-3,3H3.5c-1.657,0-3-1.343-3-3v-20.5
	c0-1.657,1.343-3,3-3h14.667c1.656,0,3,1.343,3,3V27.733z"/>
<polygon fill="none" stroke="#4E525A" stroke-miterlimit="10" points="9.366,0.5 11.7,0.5 15.2,4.233 15.2,5.333 13.7,7.167 
	8.366,7.167 6.2,5.667 6.2,3.833 "/>
<line fill="none" stroke="#4E525A" stroke-miterlimit="10" x1="7.033" y1="12" x2="17.366" y2="12"/>
<line fill="none" stroke="#4E525A" stroke-miterlimit="10" x1="4.033" y1="15.167" x2="17.366" y2="15.167"/>
<line fill="none" stroke="#4E525A" stroke-miterlimit="10" x1="4.066" y1="18.167" x2="17.399" y2="18.167"/>
<line fill="none" stroke="#4E525A" stroke-miterlimit="10" x1="4.033" y1="21" x2="17.366" y2="21"/>
<line fill="none" stroke="#4E525A" stroke-miterlimit="10" x1="4.066" y1="23.833" x2="14.033" y2="23.833"/>
</svg>
