<?xml version="1.0" encoding="utf-8"?>
<!-- Generator: Adobe Illustrator 16.0.0, SVG Export Plug-In . SVG Version: 6.00 Build 0)  -->
<!DOCTYPE svg PUBLIC "-//W3C//DTD SVG 1.1//EN" "http://www.w3.org/Graphics/SVG/1.1/DTD/svg11.dtd">
<svg version="1.1" id="图层_1" xmlns="http://www.w3.org/2000/svg" xmlns:xlink="http://www.w3.org/1999/xlink" x="0px" y="0px"
	 width="24px" height="18px" viewBox="0 0 24 18" enable-background="new 0 0 24 18" xml:space="preserve">
<path fill="none" stroke="#8DAFCC" stroke-miterlimit="10" d="M23.5,15.663c0,1.015-0.858,1.837-1.916,1.837H2.414
	c-1.056,0-1.914-0.822-1.914-1.837V2.337C0.5,1.322,1.358,0.5,2.414,0.5h19.17c1.058,0,1.916,0.822,1.916,1.837V15.663z"/>
<polyline fill="none" stroke="#8DAFCC" stroke-miterlimit="10" points="23.371,12.129 19.186,9.079 13.259,13.578 11.009,11.268 
	2.018,17.472 "/>
<path fill="none" stroke="#8DAFCC" stroke-miterlimit="10" d="M9.568,6.051c0,1.381-1.121,2.502-2.505,2.502
	c-1.377,0-2.495-1.121-2.495-2.502c0-1.377,1.118-2.498,2.495-2.498C8.447,3.553,9.568,4.673,9.568,6.051z"/>
</svg>
