<?xml version="1.0" encoding="utf-8"?>
<!-- Generator: Adobe Illustrator 16.0.0, SVG Export Plug-In . SVG Version: 6.00 Build 0)  -->
<!DOCTYPE svg PUBLIC "-//W3C//DTD SVG 1.1//EN" "http://www.w3.org/Graphics/SVG/1.1/DTD/svg11.dtd">
<svg version="1.1" id="Capa_1" xmlns="http://www.w3.org/2000/svg" xmlns:xlink="http://www.w3.org/1999/xlink" x="0px" y="0px"
	 width="122.775px" height="122.775px" viewBox="0 0 122.775 122.775" enable-background="new 0 0 122.775 122.775"
	 xml:space="preserve">
<g>
	<path fill="#FFFFFF" d="M86,28.074v-20.7c0-3.3-2.699-6-6-6H6c-3.3,0-6,2.7-6,6v3.899v78.2v2.701c0,2.199,1.3,4.299,3.2,5.299
		l45.6,23.602c2,1,4.4-0.399,4.4-2.7v-23H80c3.301,0,6-2.699,6-6v-32.8H74v23.8c0,1.7-1.3,3-3,3H53.3v-30.8v-19.5v-0.601
		c0-2.2-1.3-4.3-3.199-5.3l-26.9-13.8H71c1.7,0,3,1.3,3,3v11.8h12V28.074z"/>
	<path fill="#FFFFFF" d="M101.4,18.273l19.5,19.5c2.5,2.5,2.5,6.2,0,8.7l-19.5,19.5c-2.5,2.5-6.301,2.602-8.801,0.102
		c-2.399-2.399-2.101-6.4,0.2-8.801l8.8-8.699H67.5c-1.699,0-3.399-0.7-4.5-2c-2.8-3-2.1-8.301,1.5-10.301c0.9-0.5,2-0.8,3-0.8
		H101.6c0,0-8.699-8.7-8.8-8.7c-2.301-2.3-2.601-6.399-0.2-8.699C95,15.674,98.9,15.773,101.4,18.273z"/>
</g>
</svg>
