<?xml version="1.0" encoding="utf-8"?>
<!-- Generator: Adobe Illustrator 16.0.0, SVG Export Plug-In . SVG Version: 6.00 Build 0)  -->
<!DOCTYPE svg PUBLIC "-//W3C//DTD SVG 1.1//EN" "http://www.w3.org/Graphics/SVG/1.1/DTD/svg11.dtd">
<svg version="1.1" xmlns="http://www.w3.org/2000/svg" xmlns:xlink="http://www.w3.org/1999/xlink" x="0px" y="0px"
	 width="199.827px" height="200.267px" viewBox="0 0 199.827 200.267" enable-background="new 0 0 199.827 200.267"
	 xml:space="preserve">
<g id="tag">
	
		<line fill="none" stroke="#8DAFCC" stroke-width="10" stroke-linecap="round" stroke-miterlimit="10" x1="146.641" y1="62.52" x2="192.762" y2="62.52"/>
	
		<line fill="none" stroke="#8DAFCC" stroke-width="10" stroke-linecap="round" stroke-miterlimit="10" x1="5.945" y1="62.52" x2="114.043" y2="62.52"/>
	
		<line fill="none" stroke="#8DAFCC" stroke-width="10" stroke-linecap="round" stroke-miterlimit="10" x1="88.618" y1="128.853" x2="193.322" y2="128.853"/>
	
		<line fill="none" stroke="#8DAFCC" stroke-width="10" stroke-linecap="round" stroke-miterlimit="10" x1="6.506" y1="128.853" x2="52.961" y2="128.853"/>
	
		<line fill="none" stroke="#8DAFCC" stroke-width="10" stroke-linecap="round" stroke-miterlimit="10" x1="65.985" y1="86.521" x2="43.464" y2="193.338"/>
	
		<line fill="none" stroke="#8DAFCC" stroke-width="10" stroke-linecap="round" stroke-miterlimit="10" x1="82.085" y1="6.52" x2="75.971" y2="35.52"/>
	
		<line fill="none" stroke="#8DAFCC" stroke-width="10" stroke-linecap="round" stroke-miterlimit="10" x1="125.94" y1="156.52" x2="118.361" y2="193.338"/>
	
		<line fill="none" stroke="#8DAFCC" stroke-width="10" stroke-linecap="round" stroke-miterlimit="10" x1="156.419" y1="6.52" x2="136.863" y2="101.52"/>
</g>
<g id="图层_4" display="none">
	<path display="inline" fill="#3A729B" d="M77.134,8.48c1.751-8.293,10.975-4.35,9.906,0c-0.626,3.079-4.394,21.566-5.444,26.515
		c-1.413,6.718-11.317,6.1-10.046,0C72.829,28.903,75.871,14.535,77.134,8.48z"/>
	<path display="inline" fill="#3A729B" d="M60.525,85.277c1.752-8.341,11.105-4.969,10.055,0c-1.454,6.94-8.118,37.773-8.118,37.773
		l-1.999,10.219c0,0-11.762,55.803-12.894,61.156c-2.108,9.974-10.857,3.836-10.065,0c1.256-5.923,13.198-62.061,13.198-62.061
		s-41.359,0-45.037,0c-4.69-2.017-5.448-6.376-0.295-9.314c5.843,0,47.194,0,47.194,0S59.245,91.396,60.525,85.277z"/>
	<path display="inline" fill="#3A729B" d="M133.793,103.561c-0.81,3.955,8.174,8.551,9.936,0c1.105-5.372,7.732-37.545,7.732-37.545
		s40.521,0,44.476,0c4.794-1.706,5.566-7.595,0-9.76c-3.578,0-42.467,0-42.467,0s8.81-42.816,9.832-47.776
		c0.72-3.463-7.999-9.364-9.916-0.064C151.8,15.08,134.807,98.604,133.793,103.561z"/>
	<path display="inline" fill="#3A729B" d="M122.894,155.739c1.694-8.185,10.752-3.953,9.939,0
		c-0.523,3.096-6.532,31.759-8.239,40.015c-1.833,8.903-10.884,4.58-10.024,0.396C115.896,189.726,120.919,165.275,122.894,155.739z
		"/>
	<path fill="#3A729B" d="M116.662,56.256c10.365,0,5.049,9.639,2.33,9.76c-3.161,0-109.595,0-113.558,0
		c-4.646-2.37-5.432-6.94,0-9.76C8.862,56.256,113.307,56.256,116.662,56.256z"/>
	<path fill="#3A729B" d="M193.521,123.225c10.247,0,4.996,9.188,2.306,9.29c-3.126,0-108.389,0-112.316,0
		c-4.6-2.261-5.373-6.608,0-9.29C86.903,123.225,190.204,123.225,193.521,123.225z"/>
</g>
<g id="pic">
	<path fill="none" stroke="#8DAFCC" stroke-width="10" stroke-miterlimit="10" d="M-14.031,165.716
		c0,10.391-7.688,18.804-17.163,18.804h-171.514c-9.455,0-17.142-8.413-17.142-18.804V29.385c0-10.39,7.687-18.803,17.142-18.803
		h171.514c9.476,0,17.163,8.413,17.163,18.803V165.716z"/>
	<polyline fill="none" stroke="#8DAFCC" stroke-width="10" stroke-miterlimit="10" points="-15.307,130.976 -52.312,101.035 
		-104.678,145.202 -124.563,122.522 -204.057,183.437 	"/>
	<path fill="none" stroke="#8DAFCC" stroke-width="10" stroke-miterlimit="10" d="M-138.799,69.704
		c0,11.962-10.003,21.667-22.344,21.667c-12.317,0-22.304-9.706-22.304-21.667c0-11.947,9.986-21.649,22.304-21.649
		C-148.802,48.055-138.799,57.757-138.799,69.704z"/>
</g>
<g id="save">
	<path fill="none" stroke="#8DAFCC" stroke-width="10" stroke-linecap="round" stroke-linejoin="round" stroke-miterlimit="10" d="
		M-306.016,35.501l0.021,27.825c-0.107,5.711-6.185,9.07-12.034,9.07l-69.752,0.041c-5.895-0.079-9.585-4.823-9.885-10.129
		l-0.365-57.225c0,0-23.18-0.083-28.237-0.083c-6.311,0-10.258,4.679-10.258,9.667c0,5.005,0.16,166.363,0,170.427
		c-0.149,4.054,2.899,9.794,9.702,10.174h28.687l-0.439-66.58c0-4.063,4.965-8.333,10.023-8.333h94.319
		c5.676,0,10.098,4.528,10.098,9.99l0.355,38.983"/>
	<path fill="none" stroke="#8DAFCC" stroke-width="10" stroke-linecap="round" stroke-linejoin="round" stroke-miterlimit="10" d="
		M-363.782,194.897c0,0,102.521,0.215,107.79,0.092c5.277-0.123,9.288-4.24,9.288-9.466c-0.019-5.232-0.282-117.37-0.141-137.989
		c0.141-20.628-21.784-42.517-42.051-42.42C-309.162,5.22-368.781,5-368.781,5"/>
	
		<line fill="none" stroke="#8DAFCC" stroke-width="10" stroke-linecap="round" stroke-miterlimit="10" x1="-371.786" y1="26.813" x2="-371.786" y2="46.813"/>
</g>
</svg>
