<?xml version="1.0" encoding="utf-8"?>
<!-- Generator: Adobe Illustrator 16.0.0, SVG Export Plug-In . SVG Version: 6.00 Build 0)  -->
<!DOCTYPE svg PUBLIC "-//W3C//DTD SVG 1.1//EN" "http://www.w3.org/Graphics/SVG/1.1/DTD/svg11.dtd">
<svg version="1.1" xmlns="http://www.w3.org/2000/svg" xmlns:xlink="http://www.w3.org/1999/xlink" x="0px" y="0px"
	 width="23.005px" height="16.03px" viewBox="0 0 23.005 16.03" enable-background="new 0 0 23.005 16.03" xml:space="preserve">
<g id="back_x26_forward" display="none">
	<path display="inline" fill="#91969B" d="M46.069,6.221l2.296,2.281l4.221,4.221c0.299,0.299,0.262,0.82-0.084,1.164l-1.039,1.041
		c-0.346,0.344-0.867,0.383-1.166,0.084l-5.984-5.986c-0.299-0.297-0.261-0.818,0.083-1.164L46.069,6.221z M48.364,8.502
		l4.222-4.221c0.299-0.299,0.26-0.82-0.084-1.164l-1.041-1.039c-0.344-0.346-0.865-0.383-1.162-0.086L46.07,6.221L48.364,8.502z
		 M49.979,10.115h6.773c0.422,0,0.764-0.396,0.764-0.883V7.762c0-0.488-0.342-0.883-0.764-0.883h-5.971l-0.795,0.002l-1.621,1.621
		L49.979,10.115z"/>
</g>
<g id="back_x26_forward1" display="none">
	<path display="inline" fill="#91969B" d="M41.696,10.777L39.4,8.498L35.18,4.275c-0.299-0.299-0.262-0.82,0.084-1.164l1.039-1.041
		c0.346-0.344,0.867-0.381,1.166-0.084l5.984,5.986c0.299,0.299,0.261,0.818-0.083,1.164L41.696,10.777z"/>
	<path display="inline" fill="#91969B" d="M39.401,8.496l-4.222,4.223c-0.299,0.299-0.26,0.82,0.084,1.164l1.041,1.039
		c0.344,0.346,0.865,0.383,1.162,0.086l4.229-4.229L39.401,8.496z"/>
	<path display="inline" fill="#91969B" d="M37.787,6.885h-6.773c-0.422,0-0.764,0.395-0.764,0.883v1.471
		c0,0.488,0.342,0.883,0.764,0.883h5.971l0.795-0.004L39.4,8.498L37.787,6.885z"/>
</g>
<g id="图层_10">
	
		<polyline fill="none" stroke="#20C05C" stroke-width="3" stroke-linecap="round" stroke-linejoin="round" stroke-miterlimit="10" points="
		1.5,8.146 8.814,14.53 21.505,1.5 	"/>
</g>
<g id="arrow2" display="none">
	
		<polyline display="inline" fill="none" stroke="#91969B" stroke-width="2" stroke-linecap="round" stroke-linejoin="round" stroke-miterlimit="10" points="
		-13.147,2 -8.123,7.025 -13.098,12 	"/>
</g>
<g id="arrow1" display="none">
	<polyline display="inline" fill="none" stroke="#91969B" stroke-width="2" stroke-miterlimit="10" points="72.738,-27.792 
		81.678,-18.854 72.678,-9.854 	"/>
</g>
<g id="forward-btn" display="none">
	<path display="inline" fill="#AAABAE" d="M61.229-17.5l-5.771,5.463l1.48-5.463 M61.229-17.5 M61.229-17.5l-5.771-5.464l1.48,5.464
		"/>
	<rect x="49.195" y="-18.834" display="inline" fill="#AAABAE" width="8.078" height="2.469"/>
	<circle display="inline" fill="none" stroke="#AAABAE" stroke-width="2" stroke-miterlimit="10" cx="54.971" cy="-17.5" r="10"/>
</g>
<g id="back-btn" display="none">
	<path display="inline" fill="#AAABAE" d="M25.004-17.5l1.48,5.463L20.713-17.5 M20.713-17.5 M25.004-17.5l1.48-5.464L20.713-17.5"
		/>
	<rect x="24.668" y="-18.834" display="inline" fill="#AAABAE" width="8.078" height="2.469"/>
	<circle display="inline" fill="none" stroke="#AAABAE" stroke-width="2" stroke-miterlimit="10" cx="26.971" cy="-17.5" r="10"/>
</g>
<g id="tag1-btn2" display="none">
	
		<polyline display="inline" fill="none" stroke="#91969B" stroke-width="3" stroke-linecap="round" stroke-linejoin="round" stroke-miterlimit="10" points="
		175.934,-57.893 182.951,-50.876 175.95,-43.875 	"/>
	
		<polyline display="inline" fill="none" stroke="#91969B" stroke-width="3" stroke-linecap="round" stroke-linejoin="round" stroke-miterlimit="10" points="
		167.969,-57.893 160.951,-50.876 167.953,-43.875 	"/>
	
		<line display="inline" fill="none" stroke="#91969B" stroke-width="2.5" stroke-linecap="round" stroke-linejoin="round" stroke-miterlimit="10" x1="173.79" y1="-58.625" x2="170.149" y2="-43.143"/>
</g>
<g id="tag1-btn" display="none">
	
		<polyline display="inline" fill="none" stroke="#91969B" stroke-width="2.5" stroke-linejoin="round" stroke-miterlimit="10" points="
		-6.991,-13.041 -14.279,-20.328 -6.991,-27.616 	"/>
	
		<polyline display="inline" fill="none" stroke="#91969B" stroke-width="2.5" stroke-linejoin="round" stroke-miterlimit="10" points="
		1.433,-13.041 8.721,-20.328 1.433,-27.616 	"/>
	
		<line display="inline" fill="none" stroke="#91969B" stroke-width="2.5" stroke-linejoin="round" stroke-miterlimit="10" x1="-1.054" y1="-28.053" x2="-5.1" y2="-12.604"/>
</g>
<g id="tag-btn" display="none">
	
		<line display="inline" fill="none" stroke="#91969B" stroke-width="3" stroke-linecap="round" stroke-miterlimit="10" x1="74.092" y1="-52.533" x2="92.092" y2="-52.533"/>
	
		<line display="inline" fill="none" stroke="#91969B" stroke-width="3" stroke-linecap="round" stroke-miterlimit="10" x1="74.092" y1="-45.923" x2="92.092" y2="-45.923"/>
	
		<line display="inline" fill="none" stroke="#91969B" stroke-width="3" stroke-linecap="round" stroke-miterlimit="10" x1="81.326" y1="-57.556" x2="77.531" y2="-39.556"/>
	
		<line display="inline" fill="none" stroke="#91969B" stroke-width="3" stroke-linecap="round" stroke-miterlimit="10" x1="88.584" y1="-57.556" x2="84.878" y2="-39.556"/>
</g>
<g id="pic-btn2" display="none">
	<path fill="none" stroke="#91969B" stroke-width="2" stroke-linecap="round" stroke-linejoin="round" stroke-miterlimit="10" d="
		M151.471-40.067c0,1.195-0.748,2.162-1.668,2.162h-16.666c-0.918,0-1.666-0.967-1.666-2.162v-15.676
		c0-1.195,0.748-2.162,1.666-2.162h16.666c0.92,0,1.668,0.967,1.668,2.162V-40.067z"/>
	
		<polyline display="inline" fill="none" stroke="#91969B" stroke-width="2.5" stroke-linecap="round" stroke-linejoin="round" stroke-miterlimit="10" points="
		151.009,-44.88 146.94,-48.694 141.793,-43.728 139.851,-46.127 132.413,-39.957 	"/>
	<circle display="inline" fill="#91969B" cx="137.328" cy="-52.093" r="2.511"/>
	
		<path display="inline" fill="none" stroke="#91969B" stroke-width="2" stroke-linecap="round" stroke-linejoin="round" stroke-miterlimit="10" d="
		M151.804-41.959c0,2.169-1.843,3.929-4.118,3.929h-12.264c-2.274,0-4.118-1.76-4.118-3.929v-11.705
		c0-2.169,1.844-3.929,4.118-3.929h12.264c2.275,0,4.118,1.76,4.118,3.929V-41.959z"/>
</g>
<g id="pic-btn" display="none">
	<path display="inline" fill="none" stroke="#91969B" stroke-width="2" stroke-miterlimit="10" d="M65.471-43.035
		c0,1.059-0.859,1.917-1.918,1.917H44.387c-1.057,0-1.916-0.857-1.916-1.917v-13.895c0-1.059,0.859-1.917,1.916-1.917h19.166
		c1.059,0,1.918,0.857,1.918,1.917V-43.035z"/>
	<polyline display="inline" fill="none" stroke="#91969B" stroke-width="2" stroke-miterlimit="10" points="42.471,-47.066 
		46.542,-50.46 52.302,-45.454 54.488,-48.024 63.234,-41.118 	"/>
	
		<circle display="inline" fill="none" stroke="#91969B" stroke-width="2" stroke-miterlimit="10" cx="59.122" cy="-52.806" r="2.456"/>
</g>
<g id="delete-btn2" display="none">
	<g display="inline">
		<path fill="#91969B" d="M117.338-56.161c0.004-0.032,0.015-0.06,0.015-0.092c0-1.742-1.235-3.16-2.753-3.16h-2.886
			c-1.519,0-2.755,1.417-2.755,3.16c0,0.033,0.015,0.06,0.017,0.092H117.338z M110.357-56.253c0-0.857,0.61-1.556,1.356-1.556h2.886
			c0.747,0,1.355,0.698,1.355,1.556c0,0.033,0.015,0.06,0.016,0.092h-5.628C110.346-56.193,110.357-56.221,110.357-56.253z"/>
	</g>
	<path display="inline" fill="#91969B" d="M122.38-53.878h-18l0,0c0-1.296,0.932-2.345,2.085-2.345h13.831
		C121.448-56.223,122.38-55.174,122.38-53.878L122.38-53.878z"/>
	<path fill="none" stroke="#91969B" stroke-width="1.5" stroke-miterlimit="10" d="M121.281-40.304c0,1.107-0.708,2.005-1.581,2.005
		h-12.639c-0.873,0-1.581-0.898-1.581-2.005v-12.91h15.801V-40.304z"/>
	<path display="inline" fill="#91969B" d="M110.344-41.058c0,0.455-0.395,0.824-0.88,0.824l0,0c-0.487,0-0.88-0.369-0.88-0.824
		v-8.248c0-0.455,0.393-0.824,0.88-0.824l0,0c0.485,0,0.88,0.369,0.88,0.824V-41.058z"/>
	<path display="inline" fill="#91969B" d="M114.403-41.058c0,0.455-0.393,0.824-0.879,0.824l0,0c-0.485,0-0.88-0.369-0.88-0.824
		v-8.248c0-0.455,0.395-0.824,0.88-0.824l0,0c0.486,0,0.879,0.369,0.879,0.824V-41.058z"/>
	<path display="inline" fill="#91969B" d="M118.406-41.058c0,0.455-0.393,0.824-0.88,0.824l0,0c-0.486,0-0.88-0.369-0.88-0.824
		v-8.248c0-0.455,0.394-0.824,0.88-0.824l0,0c0.487,0,0.88,0.369,0.88,0.824V-41.058z"/>
	<path display="inline" fill="none" stroke="#91969B" stroke-width="1.8" stroke-miterlimit="10" d="M120.896-43.088
		c0,2.582-1.597,4.676-3.566,4.676h-7.899c-1.969,0-3.566-2.094-3.566-4.676v-8.862h15.032V-43.088z"/>
</g>
<g id="delet-btn" display="none">
	
		<polyline display="inline" fill="none" stroke="#91969B" stroke-width="2.5" stroke-linecap="round" stroke-linejoin="bevel" stroke-miterlimit="10" points="
		14.971,-54.153 22.029,-54.153 34.971,-54.153 	"/>
	<path display="inline" fill="none" stroke="#91969B" stroke-width="2" stroke-miterlimit="10" d="M21.67-54.246
		c-0.714-0.923,0.714-3.232,3.25-3.232c2.538,0,4.033,2.309,3.382,3.232"/>
	<path fill="none" stroke="#91969B" stroke-width="1.5" stroke-miterlimit="10" d="M16.646-55.637c0,0,2.957,18.98,3.039,19.42
		c0.144,0.471,0.561,0.717,0.731,0.717c0.168,0,8.721-0.008,9.031,0c0.31,0.007,0.634-0.249,0.791-0.808
		c0.076-0.509,2.963-19.33,2.963-19.33"/>
	<polygon fill="#91969B" points="20.524,-49.869 23.385,-49.869 23.385,-38.552 	"/>
	
		<line display="inline" fill="none" stroke="#91969B" stroke-width="1.5" stroke-miterlimit="10" x1="17.212" y1="-50.884" x2="32.729" y2="-50.884"/>
	<line fill="none" stroke="#91969B" stroke-miterlimit="10" x1="19.694" y1="-37.469" x2="30.247" y2="-37.469"/>
	<polygon fill="#91969B" points="29.416,-49.869 26.556,-49.869 26.556,-38.552 	"/>
	
		<line display="inline" fill="none" stroke="#91969B" stroke-width="2" stroke-linecap="round" stroke-miterlimit="10" x1="21.224" y1="-47.929" x2="21.224" y2="-40.118"/>
	
		<line display="inline" fill="none" stroke="#91969B" stroke-width="2" stroke-linecap="round" stroke-miterlimit="10" x1="25.05" y1="-47.929" x2="25.05" y2="-40.118"/>
	
		<line display="inline" fill="none" stroke="#91969B" stroke-width="2" stroke-linecap="round" stroke-miterlimit="10" x1="28.717" y1="-47.929" x2="28.717" y2="-40.118"/>
	<path display="inline" fill="none" stroke="#91969B" stroke-width="2" stroke-miterlimit="10" d="M33.331-40.41
		c0,1.975-1.791,3.577-4,3.577h-8.563c-2.209,0-4-1.602-4-3.577v-10.21c0-1.975,1.791-3.577,4-3.577h8.563c2.209,0,4,1.602,4,3.577
		V-40.41z"/>
</g>
<g id="save-btn" display="none">
	<rect x="-6.666" y="-57.022" display="inline" fill="#91969B" width="3.136" height="4.787"/>
	<path display="inline" fill="none" stroke="#91969B" stroke-width="2" stroke-miterlimit="10" d="M6.471-38.768
		c0,0.735-0.596,1.333-1.334,1.333h-17.332c-0.737,0-1.334-0.598-1.334-1.333V-56.1c0-0.735,0.597-1.333,1.334-1.333
		c0,0,13.108,0,15.183,0c1.676-0.077,3.431,1.77,3.483,4.538C6.471-50.664,6.471-38.768,6.471-38.768z"/>
	<polyline display="inline" fill="none" stroke="#91969B" stroke-width="2" stroke-miterlimit="10" points="0.596,-56.85 
		0.596,-49.982 -9.522,-49.982 -9.522,-56.85 	"/>
	<path display="inline" fill="none" stroke="#91969B" stroke-width="2" stroke-miterlimit="10" d="M-9.966-37.692v-6.771
		c0-0.581,0.571-1.051,1.277-1.051H1.63c0.706,0,1.276,0.47,1.276,1.051v6.725"/>
</g>
</svg>
