<?xml version="1.0" encoding="utf-8"?>
<!-- Generator: Adobe Illustrator 16.0.0, SVG Export Plug-In . SVG Version: 6.00 Build 0)  -->
<!DOCTYPE svg PUBLIC "-//W3C//DTD SVG 1.1//EN" "http://www.w3.org/Graphics/SVG/1.1/DTD/svg11.dtd">
<svg version="1.1" id="图层_1" xmlns="http://www.w3.org/2000/svg" xmlns:xlink="http://www.w3.org/1999/xlink" x="0px" y="0px"
	 width="199.827px" height="200.267px" viewBox="0 0 199.827 200.267" enable-background="new 0 0 199.827 200.267"
	 xml:space="preserve">
<path fill="none" stroke="#8DAFCC" stroke-width="10" stroke-linecap="round" stroke-linejoin="round" stroke-miterlimit="10" d="
	M135.516,35.501l0.021,27.825c-0.107,5.711-6.185,9.07-12.034,9.07L53.75,72.437c-5.895-0.079-9.585-4.823-9.885-10.129L43.5,5.083
	C43.5,5.083,20.32,5,15.263,5C8.953,5,5.005,9.679,5.005,14.667c0,5.005,0.16,166.363,0,170.427
	c-0.149,4.054,2.899,9.794,9.702,10.174h28.687l-0.439-66.58c0-4.063,4.965-8.333,10.023-8.333h94.319
	c5.676,0,10.098,4.528,10.098,9.99l0.355,38.983"/>
<path fill="none" stroke="#8DAFCC" stroke-width="10" stroke-linecap="round" stroke-linejoin="round" stroke-miterlimit="10" d="
	M77.749,194.897c0,0,102.521,0.215,107.79,0.092c5.277-0.123,9.288-4.24,9.288-9.466c-0.019-5.232-0.282-117.37-0.141-137.989
	c0.141-20.628-21.784-42.517-42.051-42.42C132.369,5.22,72.75,5,72.75,5"/>
<line fill="none" stroke="#8DAFCC" stroke-width="10" stroke-linecap="round" stroke-miterlimit="10" x1="69.745" y1="26.813" x2="69.745" y2="46.813"/>
</svg>
