<?xml version="1.0" encoding="utf-8"?>
<!-- Generator: Adobe Illustrator 16.0.0, SVG Export Plug-In . SVG Version: 6.00 Build 0)  -->
<!DOCTYPE svg PUBLIC "-//W3C//DTD SVG 1.1//EN" "http://www.w3.org/Graphics/SVG/1.1/DTD/svg11.dtd">
<svg version="1.1" id="图层_1" xmlns="http://www.w3.org/2000/svg" xmlns:xlink="http://www.w3.org/1999/xlink" x="0px" y="0px"
	 width="21.961px" height="21.966px" viewBox="0 0 21.961 21.966" enable-background="new 0 0 21.961 21.966" xml:space="preserve">
<path fill="none" stroke="#8DAFCC" stroke-linecap="round" stroke-miterlimit="10" d="M8.68,3.479c0-1.211,0.594-2.979,2.339-2.979
	l0,0c1.655,0,2.226,1.769,2.226,2.979H8.68z"/>
<path fill="none" stroke="#8DAFCC" stroke-linecap="round" stroke-linejoin="round" stroke-miterlimit="10" d="M19.459,11.745v7.381
	c0,1.107-0.895,2.006-1.938,2.34H5.506c-1.166-0.334-2.062-1.232-2.062-2.34V8.747H3.018c-1.393,0-2.518-1.18-2.518-2.633l0,0
	c0-1.455,1.125-2.635,2.518-2.635h15.928c1.393,0,2.518,1.18,2.518,2.635l0,0c0,1.453-1.072,2.373-2.447,2.311"/>
<line fill="none" stroke="#8DAFCC" stroke-linecap="round" stroke-miterlimit="10" x1="7.432" y1="7.519" x2="7.432" y2="17.839"/>
<line fill="none" stroke="#8DAFCC" stroke-linecap="round" stroke-miterlimit="10" x1="11.479" y1="7.519" x2="11.479" y2="17.839"/>
<line fill="none" stroke="#8DAFCC" stroke-linecap="round" stroke-miterlimit="10" x1="15.434" y1="7.519" x2="15.434" y2="17.839"/>
</svg>
