<?xml version="1.0" encoding="utf-8"?>
<!-- Generator: Adobe Illustrator 16.0.0, SVG Export Plug-In . SVG Version: 6.00 Build 0)  -->
<!DOCTYPE svg PUBLIC "-//W3C//DTD SVG 1.1//EN" "http://www.w3.org/Graphics/SVG/1.1/DTD/svg11.dtd">
<svg version="1.1" id="图层_1" xmlns="http://www.w3.org/2000/svg" xmlns:xlink="http://www.w3.org/1999/xlink" x="0px" y="0px"
	 width="22px" height="22px" viewBox="0 0 22 22" enable-background="new 0 0 22 22" xml:space="preserve">
<path fill="none" stroke="#8DAFCC" stroke-linecap="round" stroke-linejoin="round" stroke-miterlimit="10" d="M14.649,3.018
	l-0.006,3.394c-0.012,0.632-0.448,1.106-1.094,1.106c-0.645,0-7.284-0.028-7.936-0.036C4.961,7.473,4.56,6.971,4.527,6.384
	c0-0.499-0.006-5.884-0.006-5.884s-2.329,0-2.888,0C0.936,0.5,0.5,1.018,0.5,1.568c0,0.553,0.017,18.387,0,18.835
	c-0.018,0.447,0.331,1.033,1.082,1.075c0.661,0,2.926,0.021,2.926,0.021s0-6.66,0-7.108c0-0.449,0.541-0.967,1.1-0.967
	c0.481,0,10.239,0,10.781,0c0.627,0,1.116,0.501,1.116,1.104c0,0.603,0,4.132,0,4.132"/>
<path fill="none" stroke="#8DAFCC" stroke-linecap="round" stroke-linejoin="round" stroke-miterlimit="10" d="M7.817,21.477
	c0,0,12.073,0.025,12.655,0.012c0.585-0.014,1.029-0.469,1.028-1.045c-0.001-0.578-0.031-12.972-0.016-15.251
	c0.016-2.28-2.41-4.698-4.654-4.688c-2.243,0.012-9.013,0-9.013,0"/>
<line fill="none" stroke="#8DAFCC" stroke-linecap="round" stroke-miterlimit="10" x1="7.5" y1="3.001" x2="7.5" y2="4.764"/>
</svg>
