<?xml version="1.0" encoding="utf-8"?>
<!-- Generator: Adobe Illustrator 16.0.0, SVG Export Plug-In . SVG Version: 6.00 Build 0)  -->
<!DOCTYPE svg PUBLIC "-//W3C//DTD SVG 1.1//EN" "http://www.w3.org/Graphics/SVG/1.1/DTD/svg11.dtd">
<svg version="1.1" id="图层_1" xmlns="http://www.w3.org/2000/svg" xmlns:xlink="http://www.w3.org/1999/xlink" x="0px" y="0px"
	 width="52.097px" height="66.805px" viewBox="0 0 52.097 66.805" enable-background="new 0 0 52.097 66.805" xml:space="preserve">
<path fill="#C02026" d="M40.524,48.884c-1.976,0.663-3.977,1.047-5.955,1.173l-0.029,0.016l9.386,16.732l8.072-26.222l-0.196,0.106
	C49.104,44.366,45.24,47.302,40.524,48.884z"/>
<path fill="#C02026" d="M12.235,35.47c-0.926-2.755-1.245-5.573-1.032-8.317L0,52.114l18.471-7.377l-0.001-0.002
	C15.673,42.326,13.481,39.185,12.235,35.47z"/>
<path fill="#C02026" d="M51.186,14.356L44.408,0L29.236,7.008C37.604,5.211,46.052,8.196,51.186,14.356z"/>
<ellipse transform="matrix(0.948 -0.3183 0.3183 0.948 -7.1556 12.117)" fill="none" stroke="#C02026" stroke-width="6" stroke-miterlimit="10" cx="33.497" cy="27.952" rx="15.653" ry="15.078"/>
<ellipse transform="matrix(0.948 -0.3183 0.3183 0.948 -7.2105 12.1354)" fill="none" stroke="#C02026" stroke-width="6" stroke-miterlimit="10" cx="33.531" cy="28.133" rx="6.943" ry="6.688"/>
</svg>
