<?xml version="1.0" encoding="utf-8"?>
<!-- Generator: Adobe Illustrator 16.0.0, SVG Export Plug-In . SVG Version: 6.00 Build 0)  -->
<!DOCTYPE svg PUBLIC "-//W3C//DTD SVG 1.1//EN" "http://www.w3.org/Graphics/SVG/1.1/DTD/svg11.dtd">
<svg version="1.1" id="图层_1" xmlns="http://www.w3.org/2000/svg" xmlns:xlink="http://www.w3.org/1999/xlink" x="0px" y="0px"
	 width="72.758px" height="64.852px" viewBox="0 0 72.758 64.852" enable-background="new 0 0 72.758 64.852" xml:space="preserve">
<path fill="none" stroke="#009CF5" stroke-width="3.5" stroke-miterlimit="10" d="M69.875,14.303
	c-19.25,0-34.125,9.625-34.125,9.625s-15.125-9.625-34-9.625c0,0,0,36.125,0,39.375c18.875,0,34,9.125,34,9.125
	s14.875-9.125,34.125-9.125C69.875,47.178,69.875,18.053,69.875,14.303z"/>
<path id="file-sight-movepath" fill="none" stroke="#009CF5" stroke-width="2" stroke-miterlimit="10" d="M6,1
	c12.285,0.178,29.812,8.875,29.812,8.875S53.75,1,65.123,1.008"/>
<path fill="none" stroke="#009CF5" stroke-width="2" stroke-miterlimit="10" d="M2.938,7.303c15.25,0,32.875,8.875,32.875,8.875
	s17.75-8.875,32.875-8.875"/>
<rect x="8.428" y="27.551" fill="none" width="64.33" height="23.252"/>
<text transform="matrix(1 0 0 1 8.4277 45.811)" fill="#009CF5" font-family="'NuevaStd-Bold'" font-size="22">E=MC</text>
<text transform="matrix(1 0 0 1 59.1592 38.4849)" fill="#009CF5" font-family="'NuevaStd-Bold'" font-size="12.826">2</text>
</svg>
