<?xml version="1.0" encoding="utf-8"?>
<!-- Generator: Adobe Illustrator 16.0.0, SVG Export Plug-In . SVG Version: 6.00 Build 0)  -->
<!DOCTYPE svg PUBLIC "-//W3C//DTD SVG 1.1//EN" "http://www.w3.org/Graphics/SVG/1.1/DTD/svg11.dtd">
<svg version="1.1" xmlns="http://www.w3.org/2000/svg" xmlns:xlink="http://www.w3.org/1999/xlink" x="0px" y="0px"
	 width="126.864px" height="85.814px" viewBox="0 0 126.864 85.814" enable-background="new 0 0 126.864 85.814"
	 xml:space="preserve">
<g id="图层_1">
	<g id="line">
		<line fill="none" stroke="#242628" stroke-miterlimit="10" x1="120.358" y1="85.314" x2="125.68" y2="85.314"/>
		<line fill="none" stroke="#242628" stroke-miterlimit="10" x1="9.258" y1="85.314" x2="117.295" y2="85.314"/>
		<line fill="none" stroke="#242628" stroke-miterlimit="10" x1="0" y1="85.314" x2="5.54" y2="85.314"/>
	</g>
	<g id="bg" display="none">
		<path display="inline" fill="#6E7277" d="M107.526,33.246c0-28.358-23.549-51.343-52.597-51.343
			c-29.048,0-52.597,22.985-52.597,51.343c0,5.125,0.773,10.074,2.206,14.744h100.783C106.753,43.32,107.526,38.371,107.526,33.246z
			"/>
	</g>
</g>
<g id="图层_2" display="none">
	<path display="inline" fill="#242628" d="M144.665-38.231c0,0.372-0.302,0.674-0.674,0.674l0,0c-0.373,0-0.674-0.302-0.674-0.674
		v-2.541c0-0.372,0.301-0.674,0.674-0.674l0,0c0.372,0,0.674,0.302,0.674,0.674V-38.231z"/>
	<path display="inline" fill="#242628" d="M145.262-40.177c0.371,0,0.673,0.303,0.673,0.675l0,0c0,0.372-0.302,0.675-0.673,0.675
		h-2.543c-0.372,0-0.674-0.303-0.674-0.675l0,0c0-0.372,0.302-0.675,0.674-0.675H145.262z"/>
	<circle display="inline" fill="none" stroke="#242628" stroke-miterlimit="10" cx="146.949" cy="-28.26" r="2.082"/>
	<circle display="inline" fill="none" stroke="#242628" stroke-miterlimit="10" cx="132.616" cy="-49.926" r="1.75"/>
	<path display="inline" fill="#242628" d="M123.949-39.813c0,0.479-0.388,0.866-0.866,0.866l0,0c-0.479,0-0.866-0.388-0.866-0.866
		v-3.267c0-0.479,0.387-0.866,0.866-0.866l0,0c0.479,0,0.866,0.388,0.866,0.866V-39.813z"/>
	<path display="inline" fill="#242628" d="M124.717-42.314c0.477,0,0.865,0.389,0.865,0.868l0,0c0,0.479-0.389,0.868-0.865,0.868
		h-3.27c-0.479,0-0.866-0.389-0.866-0.868l0,0c0-0.479,0.388-0.868,0.866-0.868H124.717z"/>
	<path display="inline" fill="#242628" d="M155.067-20.664c0,0.372-0.302,0.674-0.674,0.674l0,0c-0.373,0-0.674-0.302-0.674-0.674
		v-2.541c0-0.372,0.301-0.674,0.674-0.674l0,0c0.372,0,0.674,0.302,0.674,0.674V-20.664z"/>
	<path display="inline" fill="#242628" d="M155.665-22.609c0.371,0,0.673,0.303,0.673,0.675l0,0c0,0.372-0.302,0.675-0.673,0.675
		h-2.543c-0.372,0-0.674-0.303-0.674-0.675l0,0c0-0.372,0.302-0.675,0.674-0.675H155.665z"/>
	<circle display="inline" fill="none" stroke="#242628" stroke-miterlimit="10" cx="154.266" cy="-33.849" r="1.75"/>
</g>
<g id="图层_3">
	<rect x="68.127" y="44.162" fill="none" stroke="#242628" stroke-miterlimit="10" width="6.643" height="1.768"/>
	<rect x="69.59" y="45.93" fill="none" stroke="#242628" stroke-miterlimit="10" width="3.778" height="1.889"/>
	<polyline fill="#444649" stroke="#1C1D1E" stroke-miterlimit="10" points="69.834,84.912 69.011,47.818 74.13,47.818 
		73.369,84.912 	"/>
	<line fill="none" stroke="#1C1D1E" stroke-miterlimit="10" x1="71.023" y1="47.818" x2="71.571" y2="84.912"/>
	<g id="box_2_">
		<path fill="#5F6269" stroke="#242628" stroke-miterlimit="10" d="M62.329,20.714c2.266-0.496,19.819,4.829,22.068,5.476
			c4.326,1.279,4.921,6.227,4.997,6.824c0,1.219,0,9.627,0,9.627h0.548v1.949l-20.931-0.428v-2.193c0,0,0-4.875,0.014-9.644
			C69.043,25.576,66.514,20.682,62.329,20.714z"/>
		<path fill="#6B6C70" stroke="#242628" stroke-miterlimit="10" d="M69.01,31.696l-0.023-0.002
			c-0.221-5.542-1.949-10.98-6.658-10.98c-3.284,0-5.991,3.737-6.571,9.86c-0.181,1.326,0,13.359,0,13.359l13.254,0.229
			L69.01,31.696z"/>
		<polygon fill="#6B6C70" stroke="#242628" stroke-miterlimit="10" points="55.685,41.857 55.757,43.934 69.011,44.162 
			69.011,41.969 		"/>
		<polygon fill="none" stroke="#242628" stroke-miterlimit="10" points="89.942,42.641 89.942,44.59 69.011,44.162 69.011,41.969 		
			"/>
		<path fill="none" stroke="#242628" stroke-miterlimit="10" d="M68.391,21.729c3.211,2.054,4.186,8.025,4.186,10.005
			c0,1.188,0,10.351,0,10.351l1.891,0.061c0,0,0.002-9.527,0-10.716c0-1.889-1.7-8.568-4.385-9.276
			C69.834,22.088,69.361,21.961,68.391,21.729z"/>
		<path fill="none" stroke="#242628" stroke-miterlimit="10" d="M81.95,25.469c0.71,0.21,1.002,0.285,1.751,0.514
			c1.481,0.495,3.499,5.797,3.499,8.858c0,1.12,0,7.712,0,7.712l-1.524-0.049c0,0,0.009-5.766,0.002-7.297
			C85.669,31.23,84.435,27.506,81.95,25.469z"/>
		<polyline fill="#6B6C70" stroke="#242628" stroke-miterlimit="10" points="75.136,32.438 75.136,16.196 81.625,19.623 
			81.95,20.461 77.086,20.547 76.963,30.743 		"/>
		<ellipse fill="none" stroke="#242628" stroke-miterlimit="10" cx="77.36" cy="32.762" rx="1.538" ry="1.851"/>
		<ellipse fill="none" stroke="#242628" stroke-width="0.8" stroke-miterlimit="10" cx="77.086" cy="32.785" rx="1.95" ry="2.041"/>
		
			<ellipse fill="#7C7D7F" stroke="#242628" stroke-width="0.5" stroke-miterlimit="10" cx="77.59" cy="32.693" rx="0.729" ry="0.835"/>
		<path fill="#1E1B1B" stroke="#242628" stroke-width="0.6" stroke-miterlimit="10" d="M66.278,28.809
			c0,0.454-0.368,0.822-0.822,0.822l-6.581-0.152c-0.454,0-0.822-0.368-0.822-0.822v0.152c0-0.455,0.368-0.822,0.822-0.822h6.581
			C65.91,27.986,66.278,28.354,66.278,28.809L66.278,28.809z"/>
		<rect x="56.998" y="34.643" fill="none" width="17.339" height="9.223"/>
		<text transform="matrix(1.3988 0 0 1 56.998 37.0684)" fill="#1C1D1E" font-family="'HoboStd'" font-size="2.9246">MAIL</text>
	</g>
	<g id="leaves_1_">
		<g id="leaf1_1_">
			<path fill="#424449" stroke="#1C1D1E" stroke-linejoin="round" stroke-miterlimit="10" d="M82.886,54.708
				c-0.975-2.646,1.646-1.772,2.262-1.593c2.245,0.514,2.921,0.018,4.831-1.645c-1.165,2.946-1.695,3.443-3.546,4.471
				c-0.668,0.36-1.473,0.378-2.363,0C83.477,55.659,83.16,55.385,82.886,54.708z"/>
			<path fill="none" stroke="#1C1D1E" stroke-linecap="round" stroke-miterlimit="10" d="M80.249,54.18
				c5.876,1.867,7.846,0.018,9.318-1.918"/>
		</g>
		<g id="leaf2_1_">
			<path fill="#424449" stroke="#1C1D1E" stroke-linejoin="round" stroke-miterlimit="10" d="M97.539,36.127
				c0.639,1.311,1.526,0.563,1.934,0.024c1.09-1.182,1.676-1.162,3.433-0.959c-1.834-1.238-2.427-1.359-3.857-1.293
				c-0.527,0.057-1.331,0.422-1.588,1.019C97.171,35.617,97.376,35.673,97.539,36.127z"/>
			<path fill="none" stroke="#1C1D1E" stroke-linecap="round" stroke-miterlimit="10" d="M96.606,37.007
				c2.34-2.868,4.137-2.641,5.75-2.108"/>
		</g>
		<g id="leaf3_1_">
			<path fill="#424449" stroke="#1C1D1E" stroke-linejoin="round" stroke-miterlimit="10" d="M46.825,40.867
				c0,0,1.306-0.404,0.624-1.122c-2.345-2.472-4.616-1.797-3.194,2.021c0.005-3.253,0.399-1.522,0.874-1.173
				C46.251,41.517,46.825,40.867,46.825,40.867z"/>
			<path fill="none" stroke="#1C1D1E" stroke-linecap="round" stroke-linejoin="round" stroke-miterlimit="10" d="M47.773,43.088
				c-0.499-1.646-3.668-6.164-3.693-2.32"/>
		</g>
		<g id="leaf4_1_">
			<path fill="#424449" stroke="#242628" stroke-miterlimit="10" d="M40.763,68.511c-1.292-0.554-1.47,0.551-1.427,1.2
				c-0.05,1.549-0.49,1.904-1.901,2.863c2.119-0.252,2.627-0.538,3.63-1.487c0.349-0.374,0.706-1.146,0.518-1.743
				C41.352,68.651,41.167,68.739,40.763,68.511z"/>
			<path fill="none" stroke="#1C1D1E" stroke-linecap="round" stroke-miterlimit="10" d="M40.889,67.281
				c0.1,3.566-1.355,4.533-2.869,5.161"/>
		</g>
	</g>
	<g id="bird_1_">
		<line fill="none" stroke="#48494C" stroke-width="0.5" stroke-miterlimit="10" x1="63.606" y1="19.697" x2="63.606" y2="20.697"/>
		<path fill="#9B9EA3" d="M60.813,11.389c-0.184,0.315-0.165,0.466-0.121,0.634c0.123,0.229,0.298,0.554-0.291,0.833
			c-0.196,0.243-0.367,0.737-0.454,1.876c-0.099,0.779,0.047,2.226,0.736,3.225c2.79,3.413,7.314,2.442,8.863-0.12
			c0.166-0.558,0.134-1.463-0.238-1.783c-0.375-0.318-4.803-4.097-4.803-4.097s-0.579-0.53-1.618-1.122
			C61.83,10.402,61.112,10.825,60.813,11.389z"/>
		<path fill="#48494C" d="M64.506,11.958c-0.221,1.254-0.34,1.764-0.865,2.665c-0.938,2.039,0.148,2.958,2.279,3.05
			c1.344,0.041,4.535,0.135,4.84,0.184c0.305,0.048,1.735,0.395,1.769,0.28C68.016,15.063,66.987,14.075,64.506,11.958z"/>
		<path fill="#48494C" d="M60.677,11.958c0.136,0.156,0.907,0.534,0.898,0.63c-0.101,0.059-0.901,0.206-1.174,0.268
			c-0.157-0.177-0.306-0.384-0.582-0.521C60.021,12.285,60.5,12.059,60.677,11.958z"/>
		<circle fill="#48494C" cx="62.374" cy="11.973" r="0.33"/>
		<line fill="none" stroke="#48494C" stroke-width="0.5" stroke-miterlimit="10" x1="65.581" y1="19.658" x2="65.581" y2="20.858"/>
	</g>
</g>
</svg>
