<?xml version="1.0" encoding="utf-8"?>
<!-- Generator: Adobe Illustrator 16.0.0, SVG Export Plug-In . SVG Version: 6.00 Build 0)  -->
<!DOCTYPE svg PUBLIC "-//W3C//DTD SVG 1.1//EN" "http://www.w3.org/Graphics/SVG/1.1/DTD/svg11.dtd">
<svg version="1.1" xmlns="http://www.w3.org/2000/svg" xmlns:xlink="http://www.w3.org/1999/xlink" x="0px" y="0px"
	 width="44.741px" height="65.188px" viewBox="0 0 44.741 65.188" enable-background="new 0 0 44.741 65.188" xml:space="preserve">
<g>
	<g>
		<path fill="#BCBCBC" d="M27.113,12.162H4.519C2.028,12.162,0,14.144,0,16.58v47.509c0,0.423,0.245,0.805,0.631,0.992
			c0.391,0.183,0.847,0.141,1.187-0.116l13.999-10.529l13.998,10.529c0.199,0.151,0.443,0.229,0.688,0.229
			c0.17,0,0.342-0.037,0.498-0.112c0.389-0.188,0.633-0.572,0.633-0.992V16.58C31.633,14.144,29.605,12.162,27.113,12.162z"/>
	</g>
</g>
<path fill="#BCBCBC" d="M40.22,0H17.624c-2.491,0-4.519,2.026-4.519,4.519v2.278h19.518c2.494,0,4.521,2.026,4.521,4.519v38.247
	l5.777,4.444c0.201,0.153,0.443,0.232,0.689,0.232c0.168,0,0.34-0.037,0.496-0.115c0.387-0.191,0.633-0.584,0.633-1.015V4.52
	C44.739,2.027,42.712,0,40.22,0z"/>
</svg>
