<?xml version="1.0" encoding="utf-8"?>
<!-- Generator: Adobe Illustrator 16.0.0, SVG Export Plug-In . SVG Version: 6.00 Build 0)  -->
<!DOCTYPE svg PUBLIC "-//W3C//DTD SVG 1.1//EN" "http://www.w3.org/Graphics/SVG/1.1/DTD/svg11.dtd">
<svg version="1.1" xmlns="http://www.w3.org/2000/svg" xmlns:xlink="http://www.w3.org/1999/xlink" x="0px" y="0px"
	 width="18px" height="24px" viewBox="0 0 51 68" enable-background="new 0 0 51 68" xml:space="preserve">
<path fill="#BCBCBC" d="M50.583,14.581L36.42,0.417C36.164,0.16,35.809,0,35.417,0H5.667C2.542,0,0,2.542,0,5.667v56.667
	C0,65.459,2.542,68,5.667,68h39.667C48.458,68,51,65.459,51,62.334v-46.75C51,15.191,50.842,14.836,50.583,14.581z M8.5,4.033
	h14.167v19.163c0,0.51-0.255,0.984-0.673,1.253c-0.227,0.147-0.485,0.221-0.745,0.221c-0.216,0-0.432-0.052-0.633-0.155
	l-5.033-4.312l-5.033,4.312c-0.44,0.228-0.963,0.203-1.378-0.065C8.755,24.179,8.5,23.706,8.5,23.195V4.033z M32.583,59.641H9.917
	c-0.784,0-1.417-0.894-1.417-2s0.634-2,1.417-2h22.667c0.783,0,1.418,0.894,1.418,2S33.367,59.641,32.583,59.641z M41.083,48.506
	H9.917c-0.784,0-1.417-0.894-1.417-2s0.634-2,1.417-2h31.167c0.783,0,1.416,0.894,1.416,2S41.867,48.506,41.083,48.506z
	 M41.083,37.378H9.917c-0.784,0-1.417-0.89-1.417-1.992c0-1.104,0.634-2,1.417-2h31.167c0.783,0,1.416,0.896,1.416,2
	C42.5,36.488,41.867,37.378,41.083,37.378z M38.345,16.303c-2.01,0-3.644-1.635-3.644-3.644V4.303l12,12H38.345z"/>
</svg>
