<?xml version="1.0" encoding="utf-8"?>
<!-- Generator: Adobe Illustrator 16.0.0, SVG Export Plug-In . SVG Version: 6.00 Build 0)  -->
<!DOCTYPE svg PUBLIC "-//W3C//DTD SVG 1.1//EN" "http://www.w3.org/Graphics/SVG/1.1/DTD/svg11.dtd">
<svg version="1.1" xmlns="http://www.w3.org/2000/svg" xmlns:xlink="http://www.w3.org/1999/xlink" x="0px" y="0px"
	 width="70px" height="70px" viewBox="0 0 70 70" enable-background="new 0 0 70 70" xml:space="preserve">
<path fill="#BCBCBC" d="M66.71,61.207L55.024,49.521c4.332-5.21,6.942-11.9,6.942-19.189c0-16.583-13.487-30.074-30.065-30.074
	c-16.583,0-30.075,13.491-30.075,30.074c0,16.575,13.492,30.06,30.075,30.06c5.677,0,10.99-1.582,15.524-4.327l12.212,12.213
	c0.977,0.977,2.257,1.465,3.536,1.465s2.559-0.488,3.535-1.464C68.662,66.325,68.662,63.159,66.71,61.207z M45.357,45.169
	c-0.354,0.21-0.695,0.449-1,0.754c-0.086,0.086-0.146,0.185-0.225,0.274c-3.39,2.619-7.625,4.194-12.231,4.194
	c-11.069,0-20.075-8.999-20.075-20.06c0-11.069,9.006-20.074,20.075-20.074c11.064,0,20.065,9.005,20.065,20.074
	C51.967,36.214,49.405,41.497,45.357,45.169z"/>
</svg>
