<?xml version="1.0" encoding="utf-8"?>
<!-- Generator: Adobe Illustrator 16.0.0, SVG Export Plug-In . SVG Version: 6.00 Build 0)  -->
<!DOCTYPE svg PUBLIC "-//W3C//DTD SVG 1.1//EN" "http://www.w3.org/Graphics/SVG/1.1/DTD/svg11.dtd">
<svg version="1.1" xmlns="http://www.w3.org/2000/svg" xmlns:xlink="http://www.w3.org/1999/xlink" x="0px" y="0px"
	 width="67.625px" height="67.625px" viewBox="0 0 67.625 67.625" enable-background="new 0 0 67.625 67.625" xml:space="preserve">
<g>
	<g>
		<path fill="#FFFFFF" d="M59.939,46.107c-1.926,0-3.668,0.736-5.019,1.914l-10.528-8.054c1.062-1.815,1.715-3.903,1.715-6.156
			c0-2.165-0.609-4.17-1.598-5.939l7.221-5.293c1.362,1.236,3.153,2.011,5.137,2.011c4.236,0,7.685-3.448,7.685-7.685
			c0-4.237-3.448-7.686-7.685-7.686c-4.237,0-7.686,3.448-7.686,7.686c0,1.145,0.27,2.222,0.719,3.2l-7.188,5.271
			c-2.242-2.365-5.393-3.861-8.901-3.861c-0.979,0-1.92,0.145-2.834,0.362l-1.77-4.722c2.739-1.601,4.604-4.541,4.604-7.936
			c0-5.083-4.136-9.22-9.221-9.22s-9.222,4.137-9.222,9.222s4.137,9.222,9.222,9.222c0.599,0,1.183-0.067,1.75-0.177l1.769,4.719
			c-3.262,1.726-5.668,4.836-6.365,8.578l-6.486-0.381c-0.536-3.716-3.71-6.591-7.573-6.591C3.448,24.591,0,28.039,0,32.276
			c0,4.235,3.448,7.684,7.685,7.684c3.55,0,6.517-2.433,7.395-5.71l6.521,0.382c0.211,3.129,1.555,5.944,3.678,7.999l-5.708,7.61
			c-1.266-0.655-2.681-1.06-4.202-1.06c-5.085,0-9.222,4.137-9.222,9.221c0,5.086,4.137,9.223,9.222,9.223s9.222-4.137,9.222-9.223
			c0-2.457-0.98-4.678-2.551-6.332l5.716-7.625c1.795,1.027,3.845,1.662,6.056,1.662c3.422,0,6.516-1.41,8.747-3.674l10.489,8.022
			c-0.491,1.013-0.793,2.136-0.793,3.336c0,4.235,3.448,7.683,7.685,7.683c4.237,0,7.686-3.447,7.686-7.683
			C67.625,49.555,64.178,46.107,59.939,46.107z"/>
	</g>
</g>
</svg>
