<?xml version="1.0" encoding="utf-8"?>
<!-- Generator: Adobe Illustrator 16.0.0, SVG Export Plug-In . SVG Version: 6.00 Build 0)  -->
<!DOCTYPE svg PUBLIC "-//W3C//DTD SVG 1.1//EN" "http://www.w3.org/Graphics/SVG/1.1/DTD/svg11.dtd">
<svg version="1.1" xmlns="http://www.w3.org/2000/svg" xmlns:xlink="http://www.w3.org/1999/xlink" x="0px" y="0px"
	 width="993.781px" height="968.397px" viewBox="-34.659 0.029 993.781 968.397"
	 enable-background="new -34.659 0.029 993.781 968.397" xml:space="preserve">
<g id="Capa_1" display="none">
	<g display="inline">
		<path fill="#5D5F63" d="M220.307,926.41c92.883-114.035,185.765-228.07,278.648-342.104
			c95.458-117.196-8.522-205.655-85.165-299.745c-44.223-54.289-88.445-108.579-132.667-162.868
			C247.067,79.885,213.749,20.504,158.567,4.854C56.57-24.073-23.512,82.723,19.186,174.458
			c34.899,74.981,103.771,136.376,159.049,197.009c25.425,27.888,51.635,56.124,72.417,87.749
			c30.765,46.817-26.129,81.979-55.458,117.98c-43.46,53.349-86.111,107.5-130.656,159.948
			C27.171,781.141-7.846,831.225,14.38,891.238C45.574,975.47,163.446,996.028,220.307,926.41
			C318.995,805.248,148.592,1014.216,220.307,926.41z"/>
		<path fill="#5D5F63" d="M642.208,926.41c92.882-114.035,185.764-228.07,278.646-342.104
			c95.456-117.196-8.523-205.655-85.166-299.745c-44.223-54.289-88.444-108.579-132.667-162.868
			C668.966,79.884,635.646,20.501,580.463,4.853C478.47-24.069,398.39,82.734,441.133,174.452
			c34.937,74.968,103.77,136.368,159.041,197.017c25.415,27.887,51.616,56.123,72.387,87.746
			c30.749,46.814-26.118,81.978-55.437,117.983c-43.441,53.348-86.068,107.504-130.601,159.946
			c-37.359,43.994-72.425,94.057-50.195,154.075C467.516,975.424,585.385,996.146,642.208,926.41
			C740.895,805.248,570.558,1014.343,642.208,926.41z"/>
	</g>
</g>
<g id="图层_2">
	<path fill="#5D5F63" d="M468.666,966.451c-21.754,0-43.507-8.299-60.104-24.896c-33.195-33.194-33.195-87.014,0-120.208
		l337.136-337.138L408.562,147.074c-33.194-33.194-33.194-87.014,0-120.208s87.013-33.194,120.208,0l397.238,397.239
		c33.195,33.194,33.195,87.013,0.001,120.208L528.771,941.555C512.173,958.152,490.419,966.451,468.666,966.451z"/>
	<path fill="#5D5F63" d="M50.341,966.45c-21.756,0.002-43.505-8.297-60.104-24.896c-33.194-33.195-33.194-87.014,0.001-120.208
		L327.38,484.21L-9.762,147.076c-33.195-33.194-33.195-87.013-0.001-120.208C23.432-6.327,77.25-6.328,110.445,26.867
		l397.247,397.239c15.941,15.94,24.897,37.561,24.897,60.104s-8.956,44.164-24.897,60.104l-397.248,397.24
		C93.85,958.15,72.092,966.448,50.341,966.45z"/>
</g>
</svg>
