<?xml version="1.0" encoding="utf-8"?>
<!-- Generator: Adobe Illustrator 16.0.0, SVG Export Plug-In . SVG Version: 6.00 Build 0)  -->
<!DOCTYPE svg PUBLIC "-//W3C//DTD SVG 1.1//EN" "http://www.w3.org/Graphics/SVG/1.1/DTD/svg11.dtd">
<svg version="1.1" xmlns="http://www.w3.org/2000/svg" xmlns:xlink="http://www.w3.org/1999/xlink" x="0px" y="0px"
	 width="56.304px" height="56.303px" viewBox="0 0 56.304 56.303" enable-background="new 0 0 56.304 56.303" xml:space="preserve">
<g>
	<path fill="#ec4545" d="M28.155,17.588L12.307,1.744c-2.323-2.325-6.126-2.325-8.451,0L1.745,3.855
		c-2.326,2.323-2.326,6.126,0,8.451l15.847,15.845L1.745,43.998c-2.323,2.321-2.324,6.126,0,8.449l2.113,2.115
		c2.321,2.321,6.125,2.321,8.45-0.001l15.845-15.845l15.848,15.845c2.323,2.322,6.125,2.321,8.447-0.001l2.112-2.112
		c2.324-2.324,2.325-6.128,0-8.449L38.718,28.152L54.56,12.307c2.325-2.325,2.324-6.128,0.001-8.45l-2.113-2.113
		c-2.323-2.325-6.126-2.325-8.448,0L28.155,17.588z"/>
</g>
</svg>
