<?xml version="1.0" encoding="utf-8"?>
<!-- Generator: Adobe Illustrator 16.0.0, SVG Export Plug-In . SVG Version: 6.00 Build 0)  -->
<!DOCTYPE svg PUBLIC "-//W3C//DTD SVG 1.1//EN" "http://www.w3.org/Graphics/SVG/1.1/DTD/svg11.dtd">
<svg version="1.1" xmlns="http://www.w3.org/2000/svg" xmlns:xlink="http://www.w3.org/1999/xlink" x="0px" y="0px"
	 width="47.947px" height="47.947px" viewBox="0 0 47.947 47.947" enable-background="new 0 0 47.947 47.947" xml:space="preserve">
<path fill="#696b6d" d="M0,47.947l11.839-19.075c0.994,1.311,2.107,2.608,3.367,3.868c1.246,1.247,2.542,2.372,3.863,3.372L0,47.947
	z"/>
<path fill="#696b6d" d="M46.854,16.774c-1.26,1.26-3.396,1.384-5.768,0.577l-6.343,6.34c3.188,5.179,3.946,10.222,1.458,12.712
	c-1.007,1.008-2.432,1.484-4.115,1.484c-3.1,0-7.074-1.623-10.921-4.529c-0.086-0.063-0.171-0.131-0.255-0.197
	c-0.274-0.211-0.547-0.43-0.82-0.654c-0.108-0.089-0.215-0.178-0.323-0.27c-0.259-0.219-0.517-0.445-0.774-0.676
	c-0.101-0.092-0.203-0.18-0.304-0.273c-0.349-0.321-0.696-0.65-1.038-0.992c-0.391-0.391-0.765-0.787-1.127-1.187
	c-0.225-0.247-0.436-0.497-0.65-0.747c-0.117-0.137-0.238-0.272-0.352-0.41c-0.278-0.334-0.541-0.67-0.798-1.006
	c-0.032-0.043-0.065-0.084-0.096-0.125c-4.51-5.951-5.953-12.209-3.084-15.078c1.007-1.007,2.433-1.484,4.116-1.484
	c2.479,0,5.514,1.039,8.599,2.938l6.339-6.337c-0.809-2.373-0.684-4.508,0.578-5.768c2.36-2.363,7.786-0.768,12.115,3.562
	C47.622,8.984,49.217,14.41,46.854,16.774z"/>
</svg>
