<?xml version="1.0" encoding="utf-8"?>
<!-- Generator: Adobe Illustrator 16.0.0, SVG Export Plug-In . SVG Version: 6.00 Build 0)  -->
<!DOCTYPE svg PUBLIC "-//W3C//DTD SVG 1.1//EN" "http://www.w3.org/Graphics/SVG/1.1/DTD/svg11.dtd">
<svg version="1.1" id="图层_1" xmlns="http://www.w3.org/2000/svg" xmlns:xlink="http://www.w3.org/1999/xlink" x="0px" y="0px"
	  viewBox="0 0 80.637 82.705" enable-background="new 0 0 80.637 82.705" xml:space="preserve">
<!--path fill="none" stroke="#2B58B2" stroke-miterlimit="10" d="M52.851,3.321c13.125,4.213,17.399,27.461,9.545,51.927
	c-7.85,24.466-24.855,40.884-37.981,36.676c-2.459-0.79-4.609-2.251-6.427-4.263"/-->
<g id="topo-sight-planet">
	<circle fill="none" stroke="#ECECEC" stroke-width="3" stroke-miterlimit="10" cx="40.194" cy="50.955" r="30.25"/>
	<circle fill="#ECECEC" cx="18.319" cy="42.045" r="8.375"/>
	<circle id="topo-sight-circle2" fill="#ECECEC" cx="0" cy="0" r="4.12"/><!--cx="46.165" cy="36.37"-->
	<path fill="#ECECEC" d="M35.08,61.55c-1.058-1.218-1.698-2.808-1.698-4.548c0-3.831,3.106-6.938,6.938-6.938
		c3.1,0,5.725,2.032,6.614,4.838C45.559,57.75,38.219,61.419,35.08,61.55z"/>
	<path fill="#ECECEC" d="M70.554,51.916c-0.508,16.263-13.85,29.289-30.235,29.289c-4.98,0-9.679-1.203-13.822-3.335
		C41.06,75.916,60.383,62.53,70.554,51.916z"/>
	<path id="topo-sight-planet-ring" fill="#ECECEC" d="M66.182,25.11c6.934-0.751,11.865,0.299,13.951,3.182c3.801,6.208-14.449,27.583-36.335,37.891
	c-16.239,9.066-38.864,15.021-43.25,6.75c-1.39-2.385-0.112-6.922,3.527-12.338l1.282,0.309c-2.138,3.495-2.991,6.651-2.348,9.197
	c1.657,6.562,22.804,1.287,42.496-10.096c19.692-11.381,33.349-24.705,29.779-30.881c-1.227-2.121-4.325-3.124-8.664-3.063
	L66.182,25.11z"/>
</g>
<circle id="topo-sight-planet-star" fill="none" stroke="#ECECEC" stroke-width="2.5" stroke-miterlimit="10" cx="0" cy="0" r="7.5"/>
<!--path fill="none" stroke="#2B58B2" stroke-miterlimit="10" d="M24.415,91.924c-2.46-0.79-4.609-2.251-6.427-4.263
	c-7.873-8.712-9.498-27.789-3.118-47.666C22.722,15.528,39.727-0.89,52.851,3.321"/-->

<style>
@keyframes topo-sight-round {
	100% { 
		##offset-distance: 100%;
	}
}

#topo-sight-planet-star {
	/*cx="60.127" cy="8.75"*/
	##offset-path: Path("M93.77,29.077c1.577,4.4,2.285,8.935,2.206,13.47C95.632,62.194,80.496,81.8,57.288,90.125C28.721,100.372-1.26,89.653-9.679,66.188C-18.098,42.716-1.767,15.384,26.8,5.137C55.364-5.112,85.347,5.606,93.77,29.077z");
	offset-path: Path("M81.878,27.591c11.046,22.191,6.058,47.123-11.143,55.682c-17.205,8.562-40.103-2.487-51.146-24.677C8.543,36.404,13.533,11.475,30.735,2.913C47.937-5.648,70.832,5.401,81.878,27.591z");
	##offset-path: Path("M39.861,87.407c-6.804,7.69-13.369,11.479-18.027,9.507c-9.152-3.877-7.478-28.503,3.739-55.007C36.792,15.398,53.303-2.949,62.456,0.924c5.184,2.194,6.894,11.046,5.363,23.127");
	animation: topo-sight-round 3s linear reverse;
  	animation-iteration-count: infinite;
}

@keyframes topo-sight-move {

	50% {
		##transform: translateY(-25px) translateX(40px) rotate(40deg);
	}
	
	100% {
		##transform: translateY(-20px) translateX(32px) rotate(30deg);
	}
}

#topo-sight-planet {
	##transform: translateY(-20px) translateX(32px) rotate(30deg);
	##transform: scale(1.4,1.4) translateY(-22px) translateX(-12px);
	animation: topo-sight-move 3s ease-in;
  	animation-iteration-count: infinite;
}

@keyframes topo-sight-ring-scale {
	100% {
		##transform: translateY(-25px) translateX(15px) rotate(20deg);
	}
}

#topo-sight-planet-ring {

	animation: topo-sight-ring-scale 3s ease-in;
  	animation-iteration-count: infinite;
}

@keyframes topo-sight-circle2-move {
	10% { 
		offset-distance: 10%;
		transform: scale(0.1,1);
		opacity: 0.9;
	}
	50% { 
		offset-distance: 50%;
		transform: scale(1,1);
		opacity: 1;
	}
	90% { 
		offset-distance: 90%;
		transform: scale(0.2,1);
		opacity: 0.9;
	}
	100% { 
		offset-distance: 100%;
		transform: scale(0.1,1);
		opacity: 0;
	}
}

#topo-sight-circle2 {
	offset-path: Path("M63.893,32.164c-6.213,2.746-14.624,4.727-23.478,4.727c-9.104,0-15.821-1.842-22.097-4.727");
	animation: topo-sight-circle2-move 3s linear reverse;
	animation-iteration-count: infinite;
}
</style>
</svg>
