<?xml version="1.0" encoding="utf-8"?>
<!-- Generator: Adobe Illustrator 16.0.0, SVG Export Plug-In . SVG Version: 6.00 Build 0)  -->
<!DOCTYPE svg PUBLIC "-//W3C//DTD SVG 1.1//EN" "http://www.w3.org/Graphics/SVG/1.1/DTD/svg11.dtd">
<svg version="1.1" id="图层_1" xmlns="http://www.w3.org/2000/svg" xmlns:xlink="http://www.w3.org/1999/xlink" x="0px" y="0px"
	 width="13.416px" height="13.417px" viewBox="0 0 13.416 13.417" enable-background="new 0 0 13.416 13.417" xml:space="preserve">
<path fill="#ECECEC" d="M8.208,12.417c0,0.553-0.556,1-1.241,1H6.45c-0.686,0-1.241-0.447-1.241-1V1c0-0.552,0.556-1,1.241-1h0.517
	c0.686,0,1.241,0.448,1.241,1V12.417z"/>
<path fill="#ECECEC" d="M12.416,5.208c0.553,0,1,0.556,1,1.241v0.518c0,0.685-0.447,1.241-1,1.241H1c-0.552,0-1-0.556-1-1.241V6.449
	c0-0.685,0.448-1.241,1-1.241H12.416z"/>
</svg>
