<?xml version="1.0" encoding="utf-8"?>
<!-- Generator: Adobe Illustrator 16.0.0, SVG Export Plug-In . SVG Version: 6.00 Build 0)  -->
<!DOCTYPE svg PUBLIC "-//W3C//DTD SVG 1.1//EN" "http://www.w3.org/Graphics/SVG/1.1/DTD/svg11.dtd">
<svg version="1.1" xmlns="http://www.w3.org/2000/svg" xmlns:xlink="http://www.w3.org/1999/xlink" x="0px" y="0px"
	 width="975.036px" height="975.036px" viewBox="0 0 975.036 975.036" enable-background="new 0 0 975.036 975.036"
	 xml:space="preserve">
<g>
	<path fill="#ECECEC" d="M-0.001,107.197v239c0,117.001,10.299,209.2,30.9,276.8c20.6,67.6,58.697,128.201,114.299,181.9
		c45.6,44,101.5,80.199,167.701,108.801c24.799,10.701,53.5,0,65.1-24.4l36-76c12-25.4,0.9-55.801-24.801-67.1
		c-55.9-24.701-97.699-56-125.299-93.801c-35-47.9-53.5-111.6-55.4-191.199h145.5c27.6,0,50-22.4,50-50v-304c0-27.601-22.4-50-50-50
		h-304C22.399,57.198-0.001,79.598-0.001,107.197z"/>
	<path fill="#ECECEC" d="M934.299,889.098l35.9-75.801c12-25.4,0.899-55.801-24.801-67.1c-55.9-24.701-97.699-56-125.3-93.801
		c-35-47.9-53.5-111.6-55.399-191.199h145.5c27.6,0,50-22.4,50-50v-304c0-27.601-22.4-50-50-50h-304c-27.602,0-50,22.399-50,50v239
		c0,117.898,10.299,210.398,30.898,277.5c20.6,67.1,58.9,127.5,115,181.199c45.9,43.9,101.5,80.1,166.9,108.6
		C893.798,924.297,922.698,913.497,934.299,889.098z"/>
</g>
</svg>
