<?xml version="1.0" encoding="utf-8"?>
<!-- Generator: Adobe Illustrator 16.0.0, SVG Export Plug-In . SVG Version: 6.00 Build 0)  -->
<!DOCTYPE svg PUBLIC "-//W3C//DTD SVG 1.1//EN" "http://www.w3.org/Graphics/SVG/1.1/DTD/svg11.dtd">
<svg version="1.1" xmlns="http://www.w3.org/2000/svg" xmlns:xlink="http://www.w3.org/1999/xlink" x="0px" y="0px"
	 width="58px" height="58px" viewBox="0 0 58 58" enable-background="new 0 0 58 58" xml:space="preserve">
<g>
	<g>
		<path display="none" fill="#72767D" d="M21.503,28.462h10.487c1.443,0,2.617-1.196,2.617-2.645c0-1.449-1.174-2.644-2.617-2.644
			H21.503c-1.448,0-2.624,1.195-2.624,2.644C18.879,27.266,20.055,28.462,21.503,28.462z"/>
		<path fill="#72767D" d="M9.948,38.031h22.036c1.449,0,2.624-1.196,2.624-2.645c0-1.447-1.174-2.642-2.624-2.642H9.948
			c-1.448,0-2.624,1.194-2.624,2.642C7.324,36.835,8.5,38.031,9.948,38.031z"/>
		<path fill="#72767D" d="M33.034,42.878H9.948c-1.448,0-2.624,1.166-2.624,2.615s1.175,2.617,2.624,2.617h23.086
			c1.448,0,2.625-1.168,2.625-2.617C35.658,44.044,34.482,42.878,33.034,42.878z"/>
		<path fill="#72767D" d="M32.474,9.73H5.867C2.62,9.73,0,12.362,0,15.608v36.497C0,55.351,2.62,58,5.867,58h31.249
			c3.246,0,5.866-2.648,5.866-5.895V20.496L32.474,9.73z M37.116,53.781H5.867c-0.932,0-1.704-0.744-1.704-1.676V15.608
			c0-0.932,0.772-1.715,1.704-1.715h24.569v4.724c0,2.077,1.683,3.767,3.76,3.789l4.623,0.047v29.652
			C38.819,53.037,38.047,53.781,37.116,53.781z"/>
	</g>
</g>
<path fill="#72767D" d="M8.283,17.27h6.38v12.102l-2.714-1.357c-0.299-0.149-0.652-0.149-0.951,0l-2.714,1.357V17.27z"/>
<path fill="#72767D" d="M47.493,0H20.885c-3.247,0-5.867,2.632-5.867,5.877V9.73h4.163V5.877c0-0.932,0.772-1.715,1.704-1.715
	h24.569v4.725c0,2.077,1.683,3.767,3.76,3.788l4.624,0.047v29.652c0,0.932-0.773,1.676-1.705,1.676h-9.151v4.219h9.151
	c3.248,0,5.867-2.648,5.867-5.895V10.766L47.493,0z"/>
</svg>
