<?xml version="1.0" encoding="utf-8"?>
<!-- Generator: Adobe Illustrator 16.0.0, SVG Export Plug-In . SVG Version: 6.00 Build 0)  -->
<!DOCTYPE svg PUBLIC "-//W3C//DTD SVG 1.1//EN" "http://www.w3.org/Graphics/SVG/1.1/DTD/svg11.dtd">
<svg version="1.1" id="图层_1" xmlns="http://www.w3.org/2000/svg" xmlns:xlink="http://www.w3.org/1999/xlink" x="0px" y="0px"
	 width="34.917px" height="22.188px" viewBox="0 0 34.917 22.188" enable-background="new 0 0 34.917 22.188" xml:space="preserve">
<path fill="none" stroke="#FFFFFF" stroke-miterlimit="10" d="M4.135,21.688h28.281c1.104,0,2-1.004,2-2.242v-0.141
	c0-1.238-0.984-1.783-2-2.086s-3.278-0.948-3.875-1.156c-0.391-0.219-0.736-0.572-0.906-0.812c-0.158-0.223-6.336-8.976-7.21-10.214
	c-0.066-0.095-0.218-0.046-0.218-0.046s-1.15,1.01-1.65,1.166c-0.297,0-3.219,0-4.047,0c-1.047,0-2.625-1.406-2.625-2.578
	c0-0.877-0.156-2.234-0.844-2.922C10.928,0.542,10.838,0.5,10.729,0.5c-0.237,0.288-4.141,5.031-4.141,5.031
	C5.838,6.719,5.51,7.625,6.229,9.016c-0.347,0.358-2.283,2.357-2.283,2.357c-0.078,0.08,0.041,0.204,0.041,0.204l21.648,10.11
	C25.635,21.688,3.031,21.688,4.135,21.688z"/>
<line fill="none" stroke="#FFFFFF" stroke-linecap="round" stroke-miterlimit="10" x1="6.229" y1="9.016" x2="9.823" y2="11.094"/>
<line fill="none" stroke="#FFFFFF" stroke-linecap="round" stroke-miterlimit="10" x1="22.823" y1="6.708" x2="20.823" y2="8.333"/>
<line fill="none" stroke="#FFFFFF" stroke-linecap="round" stroke-miterlimit="10" x1="24.99" y1="9.375" x2="22.823" y2="11.094"/>
<line fill="none" stroke="#FFFFFF" stroke-linecap="round" stroke-miterlimit="10" x1="26.865" y1="12.041" x2="24.781" y2="13.625"/>
<line fill="none" stroke="#FFFFFF" stroke-linecap="round" stroke-miterlimit="10" x1="12.031" y1="12.25" x2="19.976" y2="10.116"/>
<line fill="none" stroke="#FFFFFF" stroke-linecap="round" stroke-miterlimit="10" x1="14.739" y1="14" x2="22.198" y2="12.041"/>
<line fill="none" stroke="#FFFFFF" stroke-linecap="round" stroke-miterlimit="10" x1="0.844" y1="18.473" x2="8.844" y2="18.473"/>
<line fill="none" stroke="#FFFFFF" stroke-linecap="round" stroke-miterlimit="10" x1="0.5" y1="15.348" x2="2.5" y2="15.348"/>
</svg>
