<?xml version="1.0" encoding="utf-8"?>
<!-- Generator: Adobe Illustrator 16.0.0, SVG Export Plug-In . SVG Version: 6.00 Build 0)  -->
<!DOCTYPE svg PUBLIC "-//W3C//DTD SVG 1.1//EN" "http://www.w3.org/Graphics/SVG/1.1/DTD/svg11.dtd">
<svg version="1.1" id="图层_1" xmlns="http://www.w3.org/2000/svg" xmlns:xlink="http://www.w3.org/1999/xlink" x="0px" y="0px"
	 width="37.812px" height="38.953px" viewBox="0 0 37.812 38.953" enable-background="new 0 0 37.812 38.953" xml:space="preserve">
<path fill="#999999" d="M15.923,25.802c-0.4-0.302-8.003-6.023-8.003-6.023c-0.606-0.457-0.729-1.318-0.271-1.926l0,0
	c0.456-0.606,1.319-0.729,1.925-0.271c0,0,9.229,6.95,10.229,7.698C18.192,27.355,18.067,27.402,15.923,25.802z M37.274,0.285
	c-0.602-0.463-1.465-0.351-1.928,0.252L17.603,23.625l2.197,1.652L37.526,2.213C37.99,1.611,37.876,0.746,37.274,0.285L37.274,0.285
	z"/>
<path fill="#999999" d="M33.554,17.587c0.248,0.987,0.355,2.209,0.355,3.363c0,8.784-7.121,15.907-15.906,15.907
	S2.097,29.734,2.097,20.95S9.218,5.044,18.003,5.044c1.746,0,3.072,0.243,4.998,0.801c1.363,0.386,1.879-1.63,0.559-2.022
	c-2.023-0.654-3.618-0.874-5.558-0.874C8.06,2.948,0,11.008,0,20.95s8.06,18.002,18.002,18.002s18.002-8.06,18.002-18.002
	c0-1.349-0.188-2.991-0.43-3.926C35.302,15.902,33.286,16.293,33.554,17.587z"/>
</svg>
