<?xml version="1.0" encoding="utf-8"?>
<!-- Generator: Adobe Illustrator 16.0.0, SVG Export Plug-In . SVG Version: 6.00 Build 0)  -->
<!DOCTYPE svg PUBLIC "-//W3C//DTD SVG 1.1//EN" "http://www.w3.org/Graphics/SVG/1.1/DTD/svg11.dtd">
<svg version="1.1" xmlns="http://www.w3.org/2000/svg" xmlns:xlink="http://www.w3.org/1999/xlink" x="0px" y="0px"
	 width="20.125px" height="21.013px" viewBox="0 0 20.125 21.013" enable-background="new 0 0 20.125 21.013" xml:space="preserve">
<g id="calendar2">
	<path fill="none" stroke="#AAABAE" stroke-width="2" stroke-miterlimit="10" d="M43.465,62.11c1.519,0,2.748,1.259,2.748,2.81
		v13.356c0,1.551-1.229,2.81-2.748,2.81H30.409c-1.519,0-2.748-1.259-2.748-2.81V64.919c0-1.551,1.229-2.81,2.748-2.81"/>
	<line fill="none" stroke="#AAABAE" stroke-width="2" stroke-miterlimit="10" x1="28.063" y1="68.112" x2="45.243" y2="68.112"/>
	<line fill="none" stroke="#AAABAE" stroke-width="2" stroke-miterlimit="10" x1="34.534" y1="62.095" x2="39.044" y2="62.095"/>
	<rect x="30.678" y="71.021" fill="#EDEFF4" width="1.947" height="2.129"/>
	<rect x="33.075" y="71.021" fill="#EDEFF4" width="1.946" height="2.129"/>
	<rect x="35.68" y="71.014" fill="#EDEFF4" width="1.947" height="2.129"/>
	<rect x="38.058" y="71.021" fill="#EDEFF4" width="1.947" height="2.129"/>
	<rect x="40.619" y="71.021" fill="#EDEFF4" width="1.947" height="2.129"/>
	<rect x="30.678" y="73.709" fill="#EDEFF4" width="1.947" height="2.128"/>
	<rect x="33.075" y="73.709" fill="#EDEFF4" width="1.946" height="2.128"/>
	<rect x="35.68" y="73.709" fill="#BFC0C4" width="1.947" height="2.128"/>
	<rect x="38.058" y="73.709" fill="#BFC0C4" width="1.947" height="2.128"/>
	<rect x="40.619" y="73.709" fill="#BFC0C4" width="1.947" height="2.128"/>
	<rect x="30.678" y="76.285" fill="#BFC0C4" width="1.947" height="2.129"/>
	<rect x="33.075" y="76.285" fill="#BFC0C4" width="1.946" height="2.129"/>
	<rect x="35.68" y="76.285" fill="#BFC0C4" width="1.947" height="2.129"/>
	<rect x="38.058" y="76.285" fill="#BFC0C4" width="1.947" height="2.129"/>
	<rect x="40.619" y="76.285" fill="#BFC0C4" width="1.947" height="2.129"/>
	<path fill="#AAABAE" d="M33.494,64.509c0,0.519-0.438,0.936-0.979,0.936h-0.245c-0.54,0-0.977-0.417-0.977-0.936v-4.831
		c0-0.515,0.437-0.934,0.977-0.934h0.245c0.541,0,0.979,0.419,0.979,0.934V64.509z"/>
	<path fill="#AAABAE" d="M42.558,64.539c0,0.518-0.438,0.936-0.978,0.936h-0.244c-0.539,0-0.978-0.418-0.978-0.936v-4.832
		c0-0.517,0.438-0.933,0.978-0.933h0.244c0.539,0,0.978,0.416,0.978,0.933V64.539z"/>
</g>
<g id="calendar">
	<path fill="none" stroke="#AAABAE" stroke-width="2" stroke-miterlimit="10" d="M21.957,76.168c0,2.717-2.492,4.92-5.566,4.92
		H8.972c-3.074,0-5.565-2.203-5.565-4.92V64.694c0-2.72,2.491-4.922,5.565-4.922h7.419c3.074,0,5.566,2.202,5.566,4.922V76.168z"/>
	
		<text transform="matrix(1 0 0 1 6.707 77.1753)" fill="#AAABAE" stroke="#AAABAE" stroke-width="0.75" stroke-miterlimit="10" font-family="'HelveticaNeue-Light'" font-size="12">31</text>
	<line fill="none" stroke="#AAABAE" stroke-width="1.5" stroke-miterlimit="10" x1="3.406" y1="65.235" x2="21.957" y2="65.235"/>
</g>
<g id="图层_1">
	<path display="none" fill="none" stroke="#AAABAE" stroke-miterlimit="10" d="M-10.437,16.817c0,0.519-0.448,0.939-1,0.939h-16
		c-0.552,0-1-0.42-1-0.939V-1.971c0-0.519,0.448-0.939,1-0.939h16c0.552,0,1,0.42,1,0.939V16.817z"/>
	<rect x="-23.406" y="4.45" fill="#AAABAE" width="10.5" height="3.233"/>
	<rect x="-26.239" y="6.909" display="none" fill="#AAABAE" width="13.667" height="1.208"/>
	<rect x="-23.406" y="11.588" fill="#AAABAE" width="6.833" height="1.465"/>
	<rect x="-26.239" y="10.909" display="none" fill="#AAABAE" width="13.667" height="1.208"/>
	<rect x="-23.406" y="15.376" fill="#AAABAE" width="13.667" height="1.543"/>
	<path fill="none" stroke="#AAABAE" stroke-width="2" stroke-miterlimit="10" d="M-7.385,16.984c0,2.716-2.492,4.918-5.565,4.918
		h-7.42c-3.074,0-5.565-2.203-5.565-4.918V5.508c0-2.716,2.492-4.918,5.565-4.918h7.42c3.073,0,5.565,2.202,5.565,4.918V16.984z"/>
</g>
<g id="图层_2">
	<circle fill="none" stroke="#AAABAE" stroke-width="2.25" stroke-miterlimit="10" cx="9.365" cy="9.366" r="8.24"/>
	
		<line fill="none" stroke="#AAABAE" stroke-width="2" stroke-linecap="round" stroke-miterlimit="10" x1="14.728" y1="15.616" x2="19.125" y2="20.013"/>
</g>
<g id="图层_8">
	<path fill="#D3D6D9" stroke="#D3D6D9" stroke-width="2" stroke-miterlimit="10" d="M73.401,16.307c0,2.717-2.492,4.919-5.564,4.919
		h-7.421c-3.073,0-5.565-2.202-5.565-4.919V4.831c0-2.717,2.492-4.919,5.565-4.919h7.421c3.072,0,5.564,2.202,5.564,4.919V16.307z"
		/>
	<rect x="57.381" y="3.772" fill="#1E2124" width="10.5" height="3.233"/>
	<rect x="57.381" y="10.911" fill="#1E2124" width="6.833" height="1.466"/>
	<rect x="57.381" y="14.699" fill="#1E2124" width="13.667" height="1.543"/>
	<path fill="none" stroke="#565656" stroke-miterlimit="10" d="M68.063,18.572"/>
</g>
<g id="图层_3">
	<polyline fill="none" stroke="#AAABAE" stroke-miterlimit="10" points="41.702,0.044 39.791,0.919 39.791,4.576 41.72,5.412 	"/>
	<polyline fill="none" stroke="#AAABAE" stroke-miterlimit="10" points="42.527,5.39 44.422,4.521 44.422,0.896 42.509,0.068 	"/>
	<polyline fill="none" stroke="#AAABAE" stroke-miterlimit="10" points="30.267,8.996 27.821,10.117 27.821,14.792 30.29,15.865 	
		"/>
	<polyline fill="none" stroke="#AAABAE" stroke-miterlimit="10" points="31.322,15.835 33.745,14.724 33.745,10.087 31.299,9.025 	
		"/>
	<polyline fill="none" stroke="#AAABAE" stroke-miterlimit="10" points="43.333,15.179 41.422,16.056 41.422,19.71 43.351,20.548 	
		"/>
	<polyline fill="none" stroke="#AAABAE" stroke-miterlimit="10" points="44.158,20.525 46.053,19.658 46.053,16.033 44.14,15.203 	
		"/>
	<path fill="none" stroke="#AAABAE" stroke-miterlimit="10" d="M34.255,12.431c3.625-0.021,1.786-9.709,5.042-9.703"/>
	<path fill="none" stroke="#565656" stroke-miterlimit="10" d="M-12.724,19.25"/>
	<path fill="none" stroke="#AAABAE" stroke-miterlimit="10" d="M34.255,12.486c4.375-0.014,2.875,5.424,7,5.434"/>
</g>
<g id="图层_7">
	<line fill="none" stroke="#AAABAE" stroke-width="2" stroke-miterlimit="10" x1="42.229" y1="40.559" x2="45.783" y2="40.559"/>
	<path fill="none" stroke="#AAABAE" stroke-width="2" stroke-miterlimit="10" d="M46.615,46.297c0,2.717-2.492,4.918-5.565,4.918
		h-7.42c-3.074,0-5.566-2.201-5.566-4.918V34.821c0-2.716,2.492-4.918,5.566-4.918h7.42c3.073,0,5.565,2.202,5.565,4.918V46.297z"/>
	<polyline fill="none" stroke="#AAABAE" stroke-width="2" stroke-miterlimit="10" points="35.854,44.354 32.95,43.024 32.95,37.472 
		35.882,36.2 	"/>
	<line fill="none" stroke="#AAABAE" stroke-width="2" stroke-miterlimit="10" x1="32.194" y1="40.559" x2="28.64" y2="40.559"/>
	<polyline fill="none" stroke="#AAABAE" stroke-width="2" stroke-miterlimit="10" points="39.316,44.354 42.221,43.024 
		42.221,37.472 39.289,36.2 	"/>
</g>
<g id="图层_4">
	<path fill="#6C82CB" d="M21.063,48.63c0,0.519-0.447,0.939-1,0.939h-16c-0.552,0-1-0.421-1-0.939V29.842
		c0-0.52,0.448-0.939,1-0.939h16c0.553,0,1,0.42,1,0.939V48.63z"/>
	<rect x="5.261" y="32.16" fill="#B8BFD3" width="10.5" height="2"/>
	<rect x="5.261" y="36.723" fill="#B8BFD3" width="13.666" height="1.207"/>
	<rect x="5.261" y="39.84" fill="#B8BFD3" width="6.834" height="1.208"/>
	<rect x="5.261" y="42.723" fill="#B8BFD3" width="13.666" height="1.207"/>
	<rect x="5.261" y="45.514" fill="#B8BFD3" width="13.666" height="1.209"/>
	<path fill="none" stroke="#565656" stroke-miterlimit="10" d="M15.943,46.959"/>
</g>
<g id="图层_6">
	<g>
		<path fill="none" stroke="#AAABAE" stroke-width="2" stroke-miterlimit="10" d="M-3.846,72.371c0,0.19-0.154,0.345-0.346,0.345
			h-2.231c-0.718,0-1.334,0.412-1.607,1.074c-0.275,0.663-0.131,1.391,0.377,1.897l1.577,1.577c0.136,0.135,0.136,0.354,0,0.488
			l-2.012,2.012c-0.134,0.135-0.353,0.135-0.486,0l-1.578-1.578c-0.508-0.508-1.234-0.652-1.897-0.377
			c-0.663,0.273-1.074,0.891-1.074,1.607v2.232c0,0.189-0.154,0.344-0.345,0.344h-2.845c-0.19,0-0.346-0.154-0.346-0.344v-2.232
			c0-0.717-0.411-1.334-1.074-1.607c-0.222-0.094-0.45-0.139-0.677-0.139c-0.447,0-0.883,0.178-1.22,0.516l-1.578,1.578
			c-0.135,0.135-0.354,0.134-0.487,0l-2.012-2.012c-0.136-0.135-0.136-0.354,0-0.488l1.578-1.578
			c0.508-0.507,0.651-1.234,0.377-1.896s-0.891-1.074-1.608-1.074h-2.231c-0.19,0-0.345-0.154-0.345-0.345v-2.845
			c0-0.19,0.154-0.346,0.345-0.346h2.231c0.718,0,1.334-0.411,1.608-1.074c0.274-0.662,0.131-1.39-0.377-1.896l-1.578-1.578
			c-0.136-0.135-0.136-0.354,0-0.488l2.012-2.011c0.134-0.135,0.354-0.135,0.487,0l1.578,1.577c0.507,0.508,1.233,0.652,1.896,0.378
			s1.074-0.891,1.074-1.608v-2.231c0-0.19,0.155-0.345,0.346-0.345h2.844c0.191,0,0.346,0.154,0.346,0.345v2.231
			c0,0.718,0.411,1.334,1.074,1.608c0.664,0.274,1.391,0.13,1.897-0.377l1.578-1.578c0.135-0.135,0.354-0.135,0.486,0l2.012,2.012
			c0.136,0.135,0.136,0.354,0,0.487l-1.577,1.578c-0.508,0.508-0.652,1.234-0.377,1.897c0.273,0.663,0.89,1.074,1.607,1.074h2.231
			C-4,69.18-3.846,69.335-3.846,69.526V72.371z"/>
		<path fill="none" stroke="#AAABAE" stroke-width="2" stroke-miterlimit="10" d="M-14.892,74.041c-1.704,0-3.093-1.388-3.093-3.093
			s1.389-3.092,3.093-3.092s3.093,1.387,3.093,3.092S-13.188,74.041-14.892,74.041z"/>
	</g>
</g>
<g id="图层_5">
	<path fill="none" stroke="#AAABAE" stroke-width="2" stroke-miterlimit="10" d="M-3.937,45.903c0,3.313-2.687,6-6,6h-10
		c-3.313,0-6-2.687-6-6v-10c0-3.313,2.687-6,6-6h10c3.313,0,6,2.687,6,6V45.903z"/>
	<path fill="#AAABAE" d="M-12.385,39.782c-0.553,0.606-1.427,0.708-1.957,0.228l0,0c-0.526-0.481-0.503-1.361,0.048-1.968
		l3.08-3.377c0.553-0.606,1.429-0.708,1.955-0.227l0,0c0.529,0.481,0.507,1.361-0.047,1.967L-12.385,39.782z"/>
	<path fill="#AAABAE" d="M-14.234,48.562c0,0.304-0.314,0.55-0.702,0.55l0,0c-0.388,0-0.702-0.246-0.702-0.55v-5.987
		c0-0.303,0.314-0.549,0.702-0.549l0,0c0.388,0,0.702,0.246,0.702,0.549V48.562z"/>
	<path fill="#AAABAE" d="M-16.104,40.945c0,0.256-0.124,0.463-0.279,0.463h-7.523c-0.155,0-0.281-0.207-0.281-0.463l0,0
		c0-0.256,0.126-0.464,0.281-0.464h7.523C-16.228,40.48-16.104,40.689-16.104,40.945L-16.104,40.945z"/>
	<circle fill="#8A8F94" cx="-14.937" cy="40.903" r="1.333"/>
	<circle fill="#E4E5EA" cx="-14.937" cy="40.902" r="0.625"/>
</g>
</svg>
