<?xml version="1.0" encoding="utf-8"?>
<!-- Generator: Adobe Illustrator 16.0.0, SVG Export Plug-In . SVG Version: 6.00 Build 0)  -->
<!DOCTYPE svg PUBLIC "-//W3C//DTD SVG 1.1//EN" "http://www.w3.org/Graphics/SVG/1.1/DTD/svg11.dtd">
<svg version="1.1" id="图层_1" xmlns="http://www.w3.org/2000/svg" xmlns:xlink="http://www.w3.org/1999/xlink" x="0px" y="0px"
	 width="90.642px" height="120.048px" viewBox="0 0 90.642 120.048" enable-background="new 0 0 90.642 120.048"
	 xml:space="preserve">
<g id="search-telescope">
	<polyline fill="none" stroke="#ECECEC" stroke-width="3" stroke-miterlimit="10" points="63.448,35.955 30.896,46.192 36.78,73.802 
		70.634,67.104 "/>
	<polyline fill="none" stroke="#ECECEC" stroke-width="3" stroke-miterlimit="10" points="31.872,50.776 4.568,59.757 8.579,76.296 
		35.972,70.006 "/>
	<line fill="none" stroke="#ECECEC" stroke-width="3" stroke-miterlimit="10" x1="45.837" y1="49.664" x2="61.308" y2="45.237"/>
	<line fill="none" stroke="#ECECEC" stroke-width="3" stroke-miterlimit="10" x1="35.972" y1="52.487" x2="41.786" y2="50.823"/>
	<path fill="none" stroke="#ECECEC" stroke-width="3" stroke-miterlimit="10" d="M7.7,72.675l-1.397,0.37
		c-1.936,0.513-4.006-0.971-4.627-3.313l0,0c-0.619-2.342,0.448-4.656,2.384-5.168l1.573-0.417L7.7,72.675z"/>
	<path fill="none" stroke="#ECECEC" stroke-width="3" stroke-linecap="round" stroke-miterlimit="10" d="M82.481,69.409
		c-0.195,2.202-1.785,4.124-4.061,4.643l0,0c-2.818,0.643-5.625-1.121-6.268-3.938l-9.145-40.181
		c-0.639-2.816,1.129-5.618,3.949-6.263l0,0c2.307-0.524,4.607,0.561,5.719,2.517"/>
	<path fill="#ECECEC" stroke="#ECECEC" stroke-width="3" stroke-miterlimit="10" d="M72.673,26.193
		c9.697,4.27,16.469,13.965,16.469,25.24c0,6.866-2.512,13.146-6.664,17.972L72.673,26.193z"/>
</g>
<g id="search-telescope-bottom">
<polyline fill="none" stroke="#ECECEC" stroke-width="3" stroke-miterlimit="10" points="38.308,73.802 38.308,78.487 
	40.058,78.487 40.058,83.487 48.64,83.487 48.64,78.644 50.765,78.644 50.765,71.987 "/>
<line fill="none" stroke="#ECECEC" stroke-width="3" stroke-miterlimit="10" x1="40.058" y1="83.487" x2="4.558" y2="118.987"/>
<line fill="none" stroke="#ECECEC" stroke-width="3" stroke-miterlimit="10" x1="48.64" y1="83.487" x2="84.14" y2="118.987"/>
<line fill="none" stroke="#ECECEC" stroke-width="4" stroke-miterlimit="10" x1="44.536" y1="83.487" x2="44.536" y2="118.987"/>
</g>

<circle id="search-telescope-circle" fill="none" stroke="#ECECEC" stroke-width="3" stroke-linecap="round" stroke-miterlimit="10" cx="44.536" cy="47.451" r="26.205"/>
<style>
@keyframes search-rotate {
	30% {
		transform: rotateY(25deg) translateX(5px) ;
	}
	50% {
		transform: translateX(12px) rotateY(40deg);
	}
	95% {
		transform: translateX(37px) rotateY(80deg); 
		opacity: 1;
	}
	100% {
		transform: translateX(40px) rotateY(85deg); 
		opacity: 0;
	}
}
#search-telescope {
	animation: search-rotate 1s ease-in;
  	animation-iteration-count: 1;
  	animation-fill-mode: forwards;
}

@keyframes search-bottom-display {
	60% {
		opacity: 0.8
	}
	100% {
		opacity: 0;
	}
}
#search-telescope-bottom {
	animation: search-bottom-display 0.5s ease-in;
	animation-delay:0.5s;
  	animation-iteration-count: 1;
  	animation-fill-mode: forwards;
}


@keyframes search-circle-change {
	30% {
		transform: translateX(-5px) translateY(-3px) scale(1.2,1.2);
	}
	50% {
		transform: translateX(-8px) translateY(-6px) scale(1.3,1.3);
	}
	80% {
		transform: translateX(-20px) translateY(-10px) scale(1.5,1.5);
	}
	100% {
		transform: translateX(-29px) translateY(-17px) scale(1.65,1.65);
	}
}

#search-telescope-circle {
	animation: search-circle-change 0.8s linear;
	animation-delay:0.8s;
  	animation-iteration-count: 1;
  	animation-fill-mode: forwards;
}

</style>
</svg>
