<?xml version="1.0" encoding="utf-8"?>
<!-- Generator: Adobe Illustrator 16.0.0, SVG Export Plug-In . SVG Version: 6.00 Build 0)  -->
<!DOCTYPE svg PUBLIC "-//W3C//DTD SVG 1.1//EN" "http://www.w3.org/Graphics/SVG/1.1/DTD/svg11.dtd">
<svg version="1.1" xmlns="http://www.w3.org/2000/svg" xmlns:xlink="http://www.w3.org/1999/xlink" x="0px" y="0px"
	 width="438.333px" height="373.652px" viewBox="0 0 438.333 373.652" enable-background="new 0 0 438.333 373.652"
	 xml:space="preserve">
<g>
	<path fill="#2F3136" d="M107.778,62.854c39.604-28.857,75.828-43.766,121.379-57.446c94.737-21.494,58.964,26.664,42.347,46.927
		c-4.789,6.395-6.184,9.985-0.797,14.092c9.391,4.946,37.111,1.042,83.926-4.438c145.838-8.086-25.699,82.919,15.121,105.464
		c31.791,17.613,50.762,68.751,19.057,73.176c-125.083,13.65-11.087,23.308-39.879,58.535
		c-48.99,27.177-169.185,24.157-224.143-2.805c-10.938-5.407-23.848-15.422-18.4-38.54c11.025-29.732,0.648-45.167-31.118-30.704
		c-51.511,28.188-89.287-24.847-38.178-45.991c43.262-18.746,113.363-52.241,64.346-68.447
		C80.083,105.107,80.818,79.704,107.778,62.854z"/>
</g>
<g>
	<path fill="#6B6B6B" d="M387.295,185.844h-0.413c-1.044,0-1.889-0.846-1.889-1.889l0,0c0-1.044,0.845-1.89,1.889-1.89h13.756
		c1.044,0,1.889,0.846,1.889,1.89l0,0c0,1.043-0.845,1.889-1.889,1.889c0,0-0.531,0-1.24,0c-1.535,0.708-1.358,2.893,0,3.295
		c1.121-0.013,13.254,0,13.254,0c1.353,0,2.45,1.096,2.45,2.45l0,0c0,1.353-1.098,2.451-2.45,2.451h-25.445
		c-1.352,0-2.449-1.098-2.449-2.451l0,0c0-1.354,1.098-2.45,2.449-2.45C388.713,188.737,388.83,186.494,387.295,185.844z"/>
</g>
<g>
	<path fill="#606060" d="M145.264,365.155h-15.599c-2.209,0-4,1.791-4,4v0.497c0,2.209,1.791,4,4,4h240.25c2.209,0,4-1.791,4-4
		v-0.497c0-2.209-1.791-4-4-4h-22.094c-3.281,0-5.095-1.854-5.115-4.042l0,0c0-2.209,1.74-4.458,5.115-4.458h15.594
		c2.209,0,4-1.791,4-4v-0.5c0-2.209-1.791-4-4-4h-24.947c-2.303,0-3.975-1.766-3.969-4.409l0,0c-0.001-1.883,2.166-3.82,3.969-3.841
		h32.947c2.209,0,4-1.791,4-4v-0.5c0-2.209-1.791-4-4-4c0,0-36.345,0-36.344,0c-2.219,0-3.406-2.75-3.322-4.334l0,0
		c0.248-1.607,1.25-3.916,3.322-3.916h14.895c2.209,0,4-1.791,4-4v-0.25c0-2.209-1.791-4-4-4H108.215c-2.209,0-4,1.791-4,4v0.25
		c0,2.209,1.791,4,4,4h23.349c2.184,0.001,3.768,2.042,3.768,4.251l0.083,0.5c0.083,1.75-1.75,3.417-3.85,3.499h-12.149
		c-2.209,0-4,1.791-4,4v0.5c0,2.209,1.791,4,4,4h22.049c2.033,0.002,3.367,2.164,3.367,4.373l0,0c0,2.209-1.333,3.796-3.366,3.877
		h-30.3c-2.209,0-4,1.791-4,4v0.5c0,2.209,1.791,4,4,4h34.099c2.234-0.075,4.317,2.299,4.317,4.508l0,0
		C149.581,363.372,147.414,365.163,145.264,365.155z"/>
</g>
<g>
	<path fill="#7F7F7F" d="M198.159,365.485c2.173,0,3.173-1.939,3.173-4.333l0,0c0-2.392-1-4.333-3.173-4.333c0,0-38.297,0-38.297,0
		c-2.209,0-4-1.791-4-4v-0.668c0-2.209,1.791-4,4-4c0,0,29.834,0,29.833,0c2.137,0,3.637-1.873,3.637-4.082l0,0
		c0-2.209-1.667-4.083-3.637-4.083h-21.851c-2.199,0-3.982-1.791-3.982-4v-0.5c0-2.209,1.783-4,3.982-4h11.903
		c2.085,0.335,3.918-1.873,3.918-4.082l0,0c0-2.209-2-4.082-3.918-4.082h-32.865c-2.218,0-4.017-1.791-4.017-4v-0.334
		c0-2.209,1.799-4,4.017-4h156.667c2.218,0,4.017,1.791,4.017,4v0.334c0,2.209-1.799,4-4.017,4H284.01
		c-1.282,0-2.845,2.177-2.845,4.082l0,0c0,1.907,1.28,4.082,2.845,4.082h36.173c2.199,0,3.982,1.791,3.982,4v0.5
		c0,2.209-1.783,4-3.982,4H292.23c-1.733,0-3.065,1.874-3.065,4.083l0,0c0,2.209,0.5,4.082,3.065,4.082h10.643c2.209,0,4,1.791,4,4
		v0.668c0,2.209-1.791,4-4,4h-16.339c-2.535,0-4.119,1.941-4.119,4.333l0,0c0,2.394,1.75,4.333,4.119,4.333h42.135
		c2.391,0,4.328,1.791,4.328,4v0.167c0,2.209-1.938,4-4.328,4H178.992c-2.39,0-4.328-1.791-4.328-4v-0.167c0-2.209,1.938-4,4.328-4
		C178.992,365.485,198.159,365.485,198.159,365.485z"/>
</g>
<g>
	<path fill="#D3D3D3" d="M262.245,249.257c0,1.225-0.035,4.032-0.217,5.271c-0.691,4.73-2.662,9.394-5.613,12.627
		c-4.326,4.741-10.737,6-17.75,6h-2c-6.76,0-13.319-1.679-17.625-6.125c-3.242-3.348-4.995-7.869-5.545-12.729
		c-0.129-1.146-0.192-4.599-0.192-5.771v2.29c0-12.746,10.577-23.082,23.625-23.082h1.75c13.048,0,23.625,10.336,23.625,23.082
		L262.245,249.257z M257.54,251.052c0.041-10.226-8.689-17.394-19.406-17.394h-1.438c-10.718,0-19.406,7.789-19.406,17.394
		l0.122-1.959c0,0.883-0.023,3.438,0.036,4.582c0.904,4.73,1.529,6.23,4.717,9.355c4.062,3.312,8.763,4.853,14.315,4.853h1.643
		c5.76,0,10.551-0.968,14.104-4.54c2.425-2.437,4.744-5.622,5.312-9.188c0.149-0.934,0-3.104-0.049-4.281L257.54,251.052z"/>
	<path fill="#A0A0A0" d="M221.545,269.147c-0.116,1.078-0.492,2.525,0.466,4.008c9.842,6.125,26.654,3.765,31.288,0.159
		c0.429-0.784,0.508-2.465,0.285-3.72C245.478,274.905,230.728,275.28,221.545,269.147z"/>
	<path fill="#D0D0D0" stroke="#BABABA" stroke-miterlimit="10" d="M222.011,273.155c-0.111-0.828,0.967-2.438-2.37-5.008
		c-0.134-0.119-1.351-0.477-1.976-0.265c-0.859,0.385-1.25,0.397-2.167,2.636c-0.458,1.178-0.395,4.086-0.395,4.086
		S219.103,274.28,222.011,273.155z"/>
	<polygon fill="#A0A0A0" points="213.532,247.597 213.686,255.683 211.696,255.683 211.696,254.593 210.696,254.624 
		210.696,253.655 209.571,253.624 209.571,249.655 210.634,249.624 210.665,248.593 211.629,248.624 211.629,247.597 	"/>
	<path fill="#D0D0D0" stroke="#BABABA" stroke-miterlimit="10" d="M265.651,249.638l0.013,4.028c0.697,0.007,1.54,0.017,1.751,0.019
		c1.281-0.029,2.25,1.986,2.25,2.971c0.031,1.406,0.002,7.969,0,8.312c0,1.266-3.109,4.656-4.5,4.656c0,0-5.172,0.029-5.5,0.031
		c-0.656-1.281-1.281-1.741-3.281-1.772c-0.672,0.819-1.947,1.729-2.516,2.132c0.453,1.734-0.234,2.562-0.368,3.247
		c2.409-0.344,4.728,0.365,4.728,0.365h6.562c4.094,0,8.906-4.909,8.906-9.003v-6.531
		C273.696,253.444,271.415,249.593,265.651,249.638z"/>
	<path fill="#A0A0A0" d="M264.696,249.593l-0.969-0.938l-0.062-0.938l-1.689-0.738l-0.05,8.193l1.739,0.014l0.062-0.906l0.938-0.625
		c0,0,0.455,0.005,0.999,0.011l-0.013-4.028C265.542,249.627,264.906,249.593,264.696,249.593z"/>
	<path fill="#C1C1C1" stroke="#AFAFAF" stroke-miterlimit="10" d="M266.04,314.306c0,3.313-2.638,6-5.892,6l-2.233-0.015
		l-1.75-0.011c0,0-0.062,16.625-0.062,18.25c3.48,3.17,2.771,4.331,3.062,6.812c0,1.145,0,4.562,0,4.562h-19.938l0.062-21.078
		c-0.015-0.859-0.223-1.374-1.031-1.745c-0.384,0.004-1.156,0.011-1.156,0.011c-0.812,0.352-1,0.94-1,1.75s0,21.062,0,21.062
		h-19.938c0,0,0-3.25,0-4.625c0.406-2.469-0.291-3.622,2.819-6.957c0.004-1.375,0.056-18.018,0.056-18.018h-1.5h-2.558
		c-3.253,0-5.892-2.687-5.892-6v-30.588c0-4,5.658-9.312,7.493-10.062c4.623-1.834,5.213-0.506,7.667,0.75
		c5.412,3.047,21.579,3.338,26.955,0.02c1.457-0.973,2.583-1.931,6.624-0.682c3.084,0.918,8.211,6.1,8.211,9.85V314.306z"/>
	<path fill="none" stroke="#AFAFAF" stroke-miterlimit="10" d="M239.253,341.072c4.245-5.584,12.579-5.5,16.849-2.542"/>
	<path fill="none" stroke="#AFAFAF" stroke-miterlimit="10" d="M218.984,338.323c3.015-1.918,12.598-4.335,17.119,2.749"/>
	<rect x="222.249" y="327.234" fill="#9B9B9B" width="10.583" height="6.75"/>
	<rect x="242.386" y="327.234" fill="#9B9B9B" width="10.583" height="6.75"/>
	<rect x="224.166" y="281.153" fill="#8E8E8E" width="27" height="24"/>
	<rect x="224.069" y="281.153" fill="#BABABA" width="27.096" height="9.999"/>
	<circle fill="#D0D0D0" cx="230.098" cy="286.47" r="1.917"/>
	<circle fill="#D0D0D0" cx="237.54" cy="286.47" r="1.917"/>
	<circle fill="#D0D0D0" cx="245.413" cy="286.47" r="1.917"/>
	<rect x="228.182" y="293.669" fill="#D0D0D0" width="7.983" height="3"/>
	<rect x="228.182" y="299.169" fill="#D0D0D0" width="7.983" height="3"/>
	<rect x="239.082" y="293.669" fill="#D0D0D0" width="8.596" height="8.5"/>
	<line fill="none" stroke="#AAAAAA" stroke-miterlimit="10" x1="217.499" y1="290.068" x2="217.499" y2="320.306"/>
	<line fill="none" stroke="#AAAAAA" stroke-miterlimit="10" x1="257.665" y1="289.485" x2="257.665" y2="320.291"/>
	
		<line fill="none" stroke="#A5A5A5" stroke-width="3" stroke-miterlimit="10" x1="207.499" y1="291.735" x2="218.556" y2="291.735"/>
	
		<line fill="none" stroke="#A5A5A5" stroke-width="3" stroke-miterlimit="10" x1="207.499" y1="296.669" x2="218.556" y2="296.669"/>
	
		<line fill="none" stroke="#A5A5A5" stroke-width="3" stroke-miterlimit="10" x1="256.665" y1="291.735" x2="268.082" y2="291.735"/>
	
		<line fill="none" stroke="#A5A5A5" stroke-width="3" stroke-miterlimit="10" x1="256.665" y1="296.669" x2="268.082" y2="296.669"/>
	<rect x="219.056" y="310.317" fill="#939393" width="10.026" height="2.834"/>
	<rect x="232.016" y="310.317" fill="#939393" width="10.026" height="2.834"/>
	<rect x="245.735" y="310.317" fill="#939393" width="10.027" height="2.834"/>
	<rect x="216.165" y="347.4" fill="#B7B7B7" width="19.938" height="2.505"/>
	<rect x="239.235" y="347.4" fill="#B7B7B7" width="19.93" height="2.505"/>
	<rect x="217.898" y="346.65" fill="#A8A8A8" width="2.417" height="3.255"/>
	<rect x="222.249" y="346.65" fill="#A8A8A8" width="2.417" height="3.255"/>
	<rect x="226.815" y="346.65" fill="#A8A8A8" width="2.417" height="3.255"/>
	<rect x="231.623" y="346.65" fill="#A8A8A8" width="2.417" height="3.255"/>
	<rect x="240.665" y="346.65" fill="#A8A8A8" width="2.417" height="3.255"/>
	<rect x="245.46" y="346.65" fill="#A8A8A8" width="2.417" height="3.255"/>
	<rect x="250.147" y="346.65" fill="#A8A8A8" width="2.417" height="3.255"/>
	<rect x="254.689" y="346.65" fill="#A8A8A8" width="2.417" height="3.255"/>
	<path fill="#A5A5A5" d="M217.407,249.175c0.001-0.01,0.003-0.02,0.005-0.029c0-0.016,0-0.038,0-0.053L217.407,249.175z"/>
	<path fill="#A5A5A5" d="M217.407,249.175c-0.074,0.617-0.117,1.242-0.117,1.877L217.407,249.175z"/>
	<path fill="#AAAAAA" d="M255.804,243.591c-3.052-6.077-9.82-9.933-17.67-9.933h-1.438c-7.747,0-14.414,4.079-17.526,9.963
		c4.462,1.684,10.994,2.747,18.277,2.747C244.774,246.368,251.34,245.292,255.804,243.591z"/>
	<path fill="#A5A5A5" d="M257.54,251.052c0-0.106-0.007-0.21-0.008-0.315c-0.016-0.315-0.03-0.614-0.041-0.862L257.54,251.052z"/>
	<path fill="#999999" d="M257.532,250.736c0.001,0.105,0.008,0.209,0.008,0.315l-0.049-1.178
		C257.502,250.122,257.517,250.421,257.532,250.736c-0.038-2.612-0.657-5.013-1.729-7.146c-4.464,1.701-11.029,2.777-18.356,2.777
		c-7.284,0-13.815-1.063-18.277-2.747c-0.904,1.709-1.52,3.563-1.758,5.524c-0.001,0.922-0.022,3.403,0.036,4.529
		c0.061,0.319,0.121,0.62,0.18,0.911c5.552,1.853,12.403,2.949,19.819,2.949c7.501,0,14.426-1.12,20.011-3.011
		c0.024-0.124,0.062-0.244,0.082-0.369C257.658,253.419,257.59,251.918,257.532,250.736z"/>
	<path fill="#8E8E8E" d="M217.628,254.586c0.82,4.026,1.564,5.53,4.537,8.444c4.062,3.312,8.763,4.853,14.315,4.853h1.643
		c5.76,0,10.551-0.968,14.104-4.54c2.34-2.352,4.565-5.403,5.23-8.818c-5.585,1.891-12.51,3.011-20.011,3.011
		C230.031,257.535,223.18,256.438,217.628,254.586z"/>
</g>
<g id="sun">
	<path fill="#CCCCCC" d="M165.179,76.861c0,18.462-14.96,33.416-33.423,33.416c-18.464,0-33.425-14.954-33.425-33.416
		c0-18.458,14.961-33.424,33.425-33.424C150.218,43.437,165.179,58.403,165.179,76.861z"/>
	<path fill="#A3A3A3" d="M165.179,77.408c0,2.809-1.234,13.837-4.044,13.837l-23.444-0.18l-35.549,0.525l-1.59-3.909l31.82-0.211
		c2.638-1.54,2.778-3.785,0-5.174c-3.531,0.078-33.747,0.737-33.747,0.737s-0.295-3.364-0.295-6.172l0,0
		c0-2.808-1.345-4.59,1.461-4.59h61.772C164.372,72.271,165.179,74.601,165.179,77.408L165.179,77.408z"/>
	<path fill="#878787" stroke="#CDCEC2" stroke-miterlimit="10" d="M147.36,94.444c0,2.581-2.089,4.672-4.673,4.672
		c-2.581,0-4.67-2.092-4.67-4.672s2.089-4.672,4.67-4.672C145.271,89.772,147.36,91.864,147.36,94.444z"/>
	<path fill="#969696" d="M132.332,64.001c0,4.03-3.267,7.295-7.294,7.295c-4.025,0-7.295-3.266-7.295-7.295s3.27-7.294,7.295-7.294
		C129.065,56.707,132.332,59.972,132.332,64.001z"/>
	<circle fill="#878787" stroke="#CDCEC2" stroke-miterlimit="10" cx="120.945" cy="69.466" r="3.773"/>
	<ellipse fill="#878787" cx="138.646" cy="77.339" rx="2.426" ry="2.372"/>
	<path fill="#878787" d="M164.613,77.408c0,1.191,0.011,2.158,0.011,2.158h-19.206c-0.875,0-1.583-0.966-1.583-2.158l0,0
		c0-1.19,0.708-2.156,1.583-2.156h19.206C164.624,75.252,164.613,76.218,164.613,77.408L164.613,77.408z"/>
	<path fill="#A5A5A0" d="M136.225,55.037c3.229,1.077,16.387-0.125,20.661,0.898c2.604,2.268,4.27,3.487,4.33,5.66
		c-3.053,0-26.868,0-26.868,0c-0.16-2.326-3.358-7.363-9.311-7.278c-5.562-0.005-9.16,4.632-9.16,7.278l-13.736-0.236
		c5.589-10.653,16.753-17.919,29.62-17.919c4.615,0,9.014,0.936,13.009,2.627c0.434,0.792-0.014,1.242-0.373,1.78l-8.172-0.269
		C133.434,48.298,133.704,54.497,136.225,55.037z"/>
	<path fill="#A3A3A3" d="M148.375,105.698c0,0-2.525,2.179-4.54,2.221c-3.146,2.184-10.51,2.791-18.643,1.712c0,0,0-2.661,0-4.099
		l0,0c0.089-2.605,0.089-2.605,0.089-2.605h18.701c4.48,0,4.393-0.265,4.393,1.172V105.698z"/>
	<g>
		
			<image overflow="visible" width="100" height="100" xlink:href="2083F457D3333968.png"  transform="matrix(1 0 0 1 81.5469 26.5859)">
		</image>
		<g>
			<path fill="none" stroke="#B5B5B4" stroke-width="2" stroke-miterlimit="10" d="M164.905,76.858
				c0,18.465-14.959,33.424-33.425,33.424c-18.464,0-33.424-14.959-33.424-33.424c0-18.455,14.96-33.421,33.424-33.421
				C149.945,43.437,164.905,58.403,164.905,76.858z"/>
		</g>
	</g>
</g>
<g id="planet3">
	<circle fill="#7C7C7C" cx="382.728" cy="175.275" r="12.967"/>
	<path fill="#666666" d="M378.45,187.518c-1.034-0.342-4.944-2.142-4.604-3.177l2.927-8.611l4.142-13.156l1.635-0.109l-3.804,11.745
		c0.245,1.159,1.055,1.485,1.905,0.631c0.401-1.31,3.844-12.517,3.844-12.517s1.275,0.3,2.31,0.644l0,0
		c1.035,0.343,1.855,0.064,1.513,1.098l-7.535,22.749C380.439,187.848,379.483,187.861,378.45,187.518L378.45,187.518z"/>
	<circle fill="#595959" stroke="#777777" stroke-miterlimit="10" cx="389.151" cy="174.721" r="1.812"/>
	
		<ellipse transform="matrix(-0.3144 0.9493 -0.9493 -0.3144 670.4758 -128.7023)" fill="#878787" cx="381.712" cy="177.756" rx="0.941" ry="0.921"/>
	<path fill="#878787" d="M378.519,187.31c-0.438-0.145-0.795-0.259-0.795-0.259l2.342-7.073c0.106-0.323,0.551-0.466,0.988-0.321
		l0,0c0.438,0.146,0.707,0.524,0.6,0.846l-2.342,7.073C379.312,187.576,378.958,187.455,378.519,187.31L378.519,187.31z"/>
	<path fill="#666666" d="M390.221,179.584c-0.791,1.058-1.953,6.05-2.852,7.499c-1.153,0.683-1.804,1.147-2.612,0.904
		c0.373-1.125,3.277-9.894,3.277-9.894c0.877,0.224,3.122-0.338,3.816-2.541c0.68-2.048-0.591-3.938-1.563-4.262l1.762-5.029
		c3.243,3.359,4.557,8.354,2.986,13.094c-0.562,1.7-1.444,3.206-2.554,4.47c-0.345,0.064-0.456-0.157-0.61-0.354l1.096-2.978
		C393.043,179.379,390.727,178.722,390.221,179.584z"/>
	<path fill="#666666" d="M370.081,177.878c0,0-0.494-1.195-0.265-1.942c-0.42-1.425,0.255-4.211,1.645-7.075
		c0,0,0.979,0.326,1.509,0.501l0,0c0.948,0.351,0.948,0.351,0.948,0.351l-2.28,6.887c-0.547,1.65-0.438,1.649-0.967,1.475
		L370.081,177.878z"/>
	<g>
		<path fill="none" stroke="#757575" stroke-miterlimit="10" d="M378.687,187.484c-6.802-2.253-10.485-9.586-8.231-16.386
			c2.251-6.8,9.583-10.484,16.385-8.232c6.795,2.251,10.483,9.586,8.231,16.385C392.818,186.051,385.482,189.735,378.687,187.484z"
			/>
	</g>
</g>
<g id="planet2">
	
		<linearGradient id="SVGID_1_" gradientUnits="userSpaceOnUse" x1="425.6621" y1="84.4136" x2="431.7671" y2="90.5186" gradientTransform="matrix(0.9714 -0.2373 0.2373 0.9714 -27.2685 101.4462)">
		<stop  offset="0" style="stop-color:#FFFFFF"/>
		<stop  offset="0.6202" style="stop-color:#666666"/>
	</linearGradient>
	<path fill="url(#SVGID_1_)" d="M417.665,80.379c-1.526-0.398-3.169-0.436-4.809-0.035c-4.838,1.182-7.946,5.761-7.429,10.582
		l8.886-7.166L417.665,80.379z"/>
	
		<linearGradient id="SVGID_2_" gradientUnits="userSpaceOnUse" x1="428.0127" y1="87.4771" x2="432.6575" y2="92.2869" gradientTransform="matrix(0.9714 -0.2373 0.2373 0.9714 -27.2685 101.4462)">
		<stop  offset="0.1412" style="stop-color:#7D7D7D"/>
		<stop  offset="0.8458" style="stop-color:#474747"/>
	</linearGradient>
	<path fill="url(#SVGID_2_)" d="M407.258,91.827c0.498-1.199,1.167-2.001,3.189-2.797c0.773-0.373,6.905-5.94,9.102-7.943
		c-0.601-0.297-1.229-0.536-1.884-0.707l-3.352,3.381l-8.886,7.166c0.047,0.432,0.109,0.862,0.216,1.295
		c0.063,0.259,0.143,0.507,0.227,0.755C406.481,92.558,407.189,92.066,407.258,91.827z"/>
	
		<linearGradient id="SVGID_3_" gradientUnits="userSpaceOnUse" x1="428.835" y1="88.9258" x2="433.5617" y2="93.9945" gradientTransform="matrix(0.9714 -0.2373 0.2373 0.9714 -27.2685 101.4462)">
		<stop  offset="0.1412" style="stop-color:#4F4F4F"/>
		<stop  offset="0.8458" style="stop-color:#333333"/>
	</linearGradient>
	<path fill="url(#SVGID_3_)" d="M411.657,90.126c0.313-0.478,7.163-6.005,9.596-7.96c-0.53-0.416-1.099-0.779-1.704-1.079
		c-2.196,2.003-8.328,7.57-9.102,7.943c-2.022,0.796-2.691,1.598-3.189,2.797c-0.068,0.24-0.776,0.731-1.388,1.15
		c0.192,0.582,0.437,1.133,0.721,1.653c0.499-0.561,1.173-1.268,1.532-1.421C410.227,92.281,410.875,92.01,411.657,90.126z"/>
	
		<linearGradient id="SVGID_4_" gradientUnits="userSpaceOnUse" x1="429.6025" y1="90.4829" x2="436.3938" y2="98.0254" gradientTransform="matrix(0.9714 -0.2373 0.2373 0.9714 -27.2685 101.4462)">
		<stop  offset="0.1412" style="stop-color:#454545"/>
		<stop  offset="0.8458" style="stop-color:#303030"/>
	</linearGradient>
	<path fill="url(#SVGID_4_)" d="M423.289,87.097l1.117-0.589c-0.645-1.76-1.752-3.245-3.153-4.342
		c-2.433,1.956-9.282,7.482-9.596,7.96c-0.782,1.884-1.431,2.155-3.534,3.083c-0.359,0.153-1.033,0.86-1.532,1.421
		c0.854,1.552,2.104,2.811,3.579,3.692l9.272-7.728L423.289,87.097z"/>
	
		<linearGradient id="SVGID_5_" gradientUnits="userSpaceOnUse" x1="432.5752" y1="95.0068" x2="438.2862" y2="101.813" gradientTransform="matrix(0.9714 -0.2373 0.2373 0.9714 -27.2685 101.4462)">
		<stop  offset="0.1412" style="stop-color:#262626"/>
		<stop  offset="0.8458" style="stop-color:#0F0F0F"/>
	</linearGradient>
	<path fill="url(#SVGID_5_)" d="M423.289,87.097l-3.847,3.497l-9.272,7.728c2.136,1.275,4.745,1.751,7.352,1.114
		c5.271-1.288,8.5-6.605,7.213-11.877c-0.089-0.361-0.201-0.709-0.328-1.05L423.289,87.097z"/>
	
		<ellipse transform="matrix(0.9713 -0.238 0.238 0.9713 -8.2892 99.9857)" fill="#A5A5A5" cx="409.995" cy="84.327" rx="0.201" ry="0.219"/>
	<circle fill="#6B6B6B" cx="415.708" cy="83.307" r="0.145"/>
	
		<ellipse transform="matrix(0.9715 -0.237 0.237 0.9715 -8.7649 100.1742)" fill="#6B6B6B" cx="412.247" cy="86.541" rx="0.292" ry="0.238"/>
	
		<ellipse transform="matrix(0.9715 -0.2372 0.2372 0.9715 -9.22 99.1982)" fill="#A5A5A5" cx="407.598" cy="87.912" rx="0.238" ry="0.228"/>
	
		<ellipse transform="matrix(0.9708 -0.2399 0.2399 0.9708 -10.0345 101.6034)" fill="#565656" cx="412.306" cy="92.017" rx="0.219" ry="0.164"/>
	
		<ellipse transform="matrix(0.9714 -0.2374 0.2374 0.9714 -10.9372 100.1273)" fill="#565656" cx="410.352" cy="95.485" rx="0.311" ry="0.22"/>
	
		<ellipse transform="matrix(0.9721 -0.2347 0.2347 0.9721 -9.9066 101.2087)" fill="#686868" cx="420.293" cy="92.229" rx="0.22" ry="0.255"/>
	
		<ellipse transform="matrix(0.9717 -0.2362 0.2362 0.9717 -10.9599 101.2471)" fill="#686868" cx="417.015" cy="96.358" rx="0.183" ry="0.2"/>
	
		<ellipse transform="matrix(0.9711 -0.2385 0.2385 0.9711 -8.7923 102.156)" fill="#565656" cx="417.706" cy="87.407" rx="0.201" ry="0.219"/>
	
		<ellipse transform="matrix(0.972 -0.2349 0.2349 0.972 -8.4431 101.4089)" fill="#4F4F4F" cx="421.362" cy="86.138" rx="0.182" ry="0.146"/>
</g>
<g id="planet4">
	<linearGradient id="SVGID_6_" gradientUnits="userSpaceOnUse" x1="294.1133" y1="63.9097" x2="305.0535" y2="60.9782">
		<stop  offset="0" style="stop-color:#292929"/>
		<stop  offset="0" style="stop-color:#54565D"/>
		<stop  offset="1" style="stop-color:#1C1C1C"/>
	</linearGradient>
	<circle fill="url(#SVGID_6_)" cx="299.583" cy="62.442" r="5.662"/>
</g>
<g id="planet5">
	<circle fill="#A0A0A0" stroke="#B7B7B7" stroke-miterlimit="10" cx="159.976" cy="187.789" r="17.956"/>
	<path fill="#898989" d="M170.521,173.266c-2.924-2.079-6.49-3.313-10.351-3.313c-4.036,0-7.746,1.352-10.741,3.605l10.101-0.615
		L170.521,173.266z"/>
	<path fill="none" d="M174.324,176.925l2.154-0.308l-2.844-3.259l-3.112-0.092C171.964,174.292,173.242,175.526,174.324,176.925z"/>
	<path fill="none" d="M149.429,173.558l-3.529,0.215l-5.808,12.563c0,0,0.896-0.077,2.268-0.194
		C142.847,180.997,145.519,176.501,149.429,173.558z"/>
	<path fill="#A0A0A0" d="M157.751,181.95c-0.711-1.067-2.921-0.476-5.096-0.83c-1.66,0.119-1.185-3.437,0-3.437
		c1.186,0,5.808,0,5.808,0h10.548l5.313-0.759c-1.082-1.399-2.36-2.633-3.803-3.659l-10.991-0.323l-10.101,0.615
		c-3.91,2.944-6.583,7.439-7.069,12.583c4.283-0.367,13.24-1.135,14.325-1.228C158.095,184.245,158.818,183.965,157.751,181.95z"/>
	<path fill="none" d="M175.529,190.484c-2.489-0.237-2.251,4.029-0.83,4.029c0.457,0,1.23,0,2.071,0
		c0.513-1.276,0.873-2.627,1.081-4.029C176.989,190.484,176.135,190.484,175.529,190.484z"/>
	<path fill="none" d="M178.066,198.425l2.56-3.912c0,0-2.077,0-3.855,0c-0.569,1.415-1.317,2.733-2.209,3.942
		C176.547,198.441,178.066,198.425,178.066,198.425z"/>
	<path fill="none" d="M177.851,190.484c1.668,0,3.367,0,3.367,0v-3.674c0,0-1.275,0-3.196,0c0.02,0.345,0.044,0.689,0.044,1.039
		C178.066,188.746,177.979,189.622,177.851,190.484z"/>
	<path fill="#A0A0A0" d="M175.529,190.484c0.606,0,1.459,0,2.322,0c0.127-0.862,0.215-1.738,0.215-2.635
		c0-0.35-0.024-0.694-0.044-1.039c-5.541,0-16.48,0-17.853,0c-1.078,0.771-1.47,2.844,0,3.674c1.471,0,6.003-0.189,7.182-0.237
		c1.896-0.119,1.066,3.911-1.541,4.03c-2.252,1.422-1.778,4.03-0.237,4.148c0.967,0.074,5.64,0.055,8.987,0.031
		c0.893-1.209,1.641-2.527,2.209-3.942c-0.84,0-1.614,0-2.071,0C173.278,194.513,173.041,190.247,175.529,190.484z"/>
	<path fill="#898989" d="M165.574,198.425c-1.541-0.119-2.015-2.726,0.237-4.148c2.607-0.119,3.437-4.148,1.541-4.03
		c-1.179,0.048-5.711,0.237-7.182,0.237c-1.47-0.83-1.078-2.903,0-3.674c1.373,0,12.312,0,17.853,0
		c-0.215-3.713-1.561-7.118-3.699-9.885l-5.313,0.759h-10.548c0,0-4.622,0-5.808,0c-1.185,0-1.66,3.556,0,3.437
		c2.175,0.354,4.385-0.237,5.096,0.83c1.067,2.015,0.344,2.294-1.066,2.963c-1.085,0.093-10.042,0.86-14.325,1.228
		c-0.053,0.562-0.086,1.131-0.086,1.708c0,1.219,0.125,2.409,0.357,3.56c4.609-0.027,12.276-0.059,13.344,0.023
		c1.54,0.118,1.659,3.911,0,3.911c-1.66,0-2.727,0-4.148,0c-1.422,0-1.884,2.939-0.237,3.082c1.647,0.142,8.177,0.711,9.6,0.83
		c1.422,0.118,1.28,3.144,0,3.318c-0.787,0.107-5.539,0.755-9.079,1.238c2.423,1.227,5.157,1.934,8.061,1.934
		c5.909,0,11.132-2.875,14.391-7.29C171.214,198.48,166.541,198.499,165.574,198.425z"/>
	<path fill="none" d="M142.63,191.409c-2.042,0.012-3.486,0.023-3.486,0.023l9.007,12.918c0,0,1.743-0.238,3.958-0.54
		C147.297,201.376,143.729,196.846,142.63,191.409z"/>
	<path fill="#A0A0A0" d="M161.188,199.254c-1.422-0.119-7.953-0.688-9.6-0.83c-1.647-0.143-1.186-3.082,0.237-3.082
		c1.422,0,2.489,0,4.148,0c1.659,0,1.54-3.792,0-3.911c-1.068-0.082-8.734-0.051-13.344-0.023c1.098,5.438,4.667,9.967,9.479,12.402
		c3.54-0.483,8.292-1.131,9.079-1.238C162.468,202.398,162.611,199.373,161.188,199.254z"/>
</g>
<g id="moon">
	<path fill="#AAAAAA" d="M81.508,165.959c3.189-0.038,6.073-1.339,8.211-3.434c1.62-2.068,2.578-4.675,2.545-7.505
		c-0.077-6.601-5.491-11.888-12.091-11.81c-4.296,0.05-8.024,2.369-10.091,5.795c-0.547,1.444-0.841,3.015-0.822,4.66
		C69.341,160.534,74.825,166.038,81.508,165.959z"/>
	<path fill="#7A7A7A" d="M89.719,162.525c-2.138,2.095-5.022,3.396-8.211,3.434c-6.683,0.079-12.167-5.425-12.249-12.293
		c-0.019-1.645,0.275-3.216,0.822-4.66c-1.108,1.838-1.746,3.991-1.719,6.295c0.077,6.6,5.49,11.888,12.091,11.811
		C84.224,167.067,87.56,165.278,89.719,162.525z"/>
	<circle fill="#9B9B9B" cx="88.738" cy="149.304" r="0.205"/>
	<ellipse fill="#B2B2B2" cx="89.014" cy="155.398" rx="0" ry="0.114"/>
	<circle fill="#A0A0A0" stroke="#8E8E8E" stroke-miterlimit="10" cx="82.536" cy="151.711" r="0.91"/>
	<circle fill="#969696" stroke="#8C8C8C" stroke-miterlimit="10" cx="86.366" cy="159.661" r="1.844"/>
	<circle fill="#919191" stroke="#8C8C8C" stroke-miterlimit="10" cx="76.978" cy="156.659" r="2.32"/>
	<circle fill="#A0A0A0" stroke="#8C8C8C" stroke-miterlimit="10" cx="77.174" cy="148.425" r="1.365"/>
	<circle fill="#A8A8A8" stroke="#939393" stroke-miterlimit="10" cx="73.226" cy="151.685" r="0.546"/>
	<circle fill="#A0A0A0" stroke="#939393" stroke-miterlimit="10" cx="77.61" cy="162.335" r="0.773"/>
	<ellipse fill="#9B9B9B" cx="85.021" cy="152.438" rx="0.182" ry="0.154"/>
	<ellipse fill="#9B9B9B" cx="82.83" cy="156.541" rx="0.237" ry="0.228"/>
	<circle fill="#939393" cx="83.126" cy="163.134" r="0.455"/>
	<circle fill="#939393" cx="78.83" cy="160.273" r="0.228"/>
	<circle fill="#9B9B9B" cx="79.595" cy="152.697" r="0.195"/>
	<circle fill="#9B9B9B" cx="79.897" cy="144.949" r="0.295"/>
	<circle fill="#939393" cx="70.321" cy="154.253" r="0.205"/>
	<circle fill="#939393" cx="72.95" cy="160.195" r="0.376"/>
	<circle fill="#9B9B9B" cx="72.664" cy="149.132" r="0.157"/>
</g>
<g id="planet1">
	<path fill="#B7B7B7" d="M329.92,129.228c2.149-1.131,3.039-3.386,3.853-4.114c0.812-0.729,1.626-1.513,3.28-2.941
		c0.686-0.453,0.905-0.113,3.507-1.131c2.603-1.018,2.645-2.796,3.733-3.281s3.733-1.244,5.091-2.263
		c0.814-0.611,1.686-2.467,2.255-3.856c-2.841-1.362-6.021-2.125-9.382-2.125c-11.768,0-21.338,9.355-21.704,21.03
		C323.962,130.82,328.237,130.113,329.92,129.228z"/>
	<path fill="#A0A0A0" d="M334.79,134.616c1.888-0.696,6.251-1.357,7.367-2.715c1.117-1.357,2.674-2.79,3.713-4.751
		c1.04-1.962,4.645-1.131,6.794-1.471s3.812-1.835,4.639-2.941c0.558-0.745,1.933-2.702,2.772-3.903
		c-2.139-3.066-5.038-5.562-8.437-7.193c-0.569,1.389-1.44,3.245-2.255,3.856c-1.357,1.019-4.002,1.778-5.091,2.263
		s-1.131,2.263-3.733,3.281c-2.602,1.018-2.821,0.679-3.507,1.131c-1.654,1.428-2.468,2.213-3.28,2.941
		c-0.813,0.728-1.703,2.983-3.853,4.114c-1.683,0.885-5.958,1.593-9.367,1.318c-0.007,0.23-0.017,0.458-0.017,0.69
		c0,4.393,1.309,8.479,3.551,11.897c1.619-1.432,4.348-2.862,5.323-3.838C330.768,137.938,332.902,135.312,334.79,134.616z"/>
	<path fill="#7A7A7A" d="M361.051,130.504c-0.552,1.884-0.014,2.188-1.938,3.659c-1.924,1.471-3.161,0.722-5.304,1.209
		c-2.142,0.488-6.01,2.977-7.48,4.9c-1.471,1.923-5.316,4.412-8.371,4.521c-2.544,0.091-5.23,1.976-7.293,4.811
		c3.354,2.122,7.328,3.352,11.592,3.352c11.998,0,21.722-9.725,21.722-21.72c0-1.209-0.104-2.392-0.296-3.546
		C362.578,128.461,361.341,129.51,361.051,130.504z"/>
	<path fill="#919191" d="M337.958,144.794c3.055-0.11,6.9-2.599,8.371-4.521c1.471-1.923,5.339-4.412,7.48-4.9
		c2.143-0.488,3.38,0.261,5.304-1.209c1.924-1.47,1.386-1.774,1.938-3.659c0.29-0.994,1.527-2.043,2.632-2.814
		c-0.539-3.252-1.796-6.26-3.607-8.856c-0.84,1.201-2.215,3.158-2.772,3.903c-0.827,1.106-2.489,2.602-4.639,2.941
		s-5.754-0.491-6.794,1.471c-1.039,1.962-2.596,3.394-3.713,4.751c-1.116,1.357-5.479,2.019-7.367,2.715
		c-1.888,0.697-4.022,3.323-5.38,4.68c-0.976,0.976-3.704,2.406-5.323,3.838c1.705,2.598,3.952,4.808,6.578,6.471
		C332.728,146.77,335.414,144.885,337.958,144.794z"/>
	<path fill="#A8A8A8" d="M375.064,114.733c-0.836-1.477-6.682-0.112-13.654,2.847c-0.493,0.153-0.191,0.681,0.065,0.622
		c4.53-1.551,8.044-1.948,8.733-0.728c1.513,2.677-9.831,11.934-25.323,20.683c-15.49,8.752-29.268,13.677-30.788,11
		c-0.813-1.443,7.413-8.963,7.413-8.963c0.338-0.277,0.191-0.653-0.16-0.404c-0.352,0.249-13.042,10.445-12.106,12.108
		c1.52,2.676,17.471-3.475,35.642-13.741C363.059,127.896,376.578,117.41,375.064,114.733z"/>
	<path fill="#B2B2B2" d="M381.584,111.425c-1.217-2.131-12.446,0.928-20.341,4.695c-0.93,0.419-0.392,1.686,0.172,1.456
		c1.499-0.603,0.007-0.003,0.009-0.004c7.572-3.104,12.807-4.314,13.641-2.838c1.514,2.676-12.006,13.162-30.178,23.425
		c-18.171,10.266-34.122,16.417-35.643,13.741c-0.936-1.664,3.931-6.345,12.118-12.116c0,0-0.407,0.352,0.002-0.001
		c0.708-0.515,0.07-1.598-0.542-1.284c-0.517,0.351-0.029,0.019-0.041,0.027c-11.504,7.8-18.555,14.379-17.285,17.001
		c0.835,1.729,4.723,1.771,10.075,0.216c12.766-4.775,18.505-7.824,32.758-15.47c16.284-9.893,28.276-18.49,34.046-24.443
		C382.319,113.992,382.143,112.429,381.584,111.425z"/>
	<path fill="none" stroke="#36393E" stroke-linecap="round" stroke-miterlimit="10" d="M321.351,139.791
		c-8.181,5.768-13.042,10.446-12.106,12.109c1.52,2.676,17.471-3.475,35.642-13.741c18.173-10.263,31.692-20.749,30.179-23.425
		c-0.836-1.477-6.075-0.265-13.654,2.845"/>
</g>
<g id="planet6">
	<circle fill="#6D6D6D" cx="270.096" cy="80.048" r="13.675"/>
	<path fill="none" stroke="#8C8C8C" stroke-miterlimit="10" d="M270.498,66.38c0,0-3.064,1.894-2.079,4.384
		c0.934,1.607,4.668,5.809-3.009,8.039c-1.027,0.333-5.134,1.453-8.619,4.411"/>
	<path fill="none" stroke="#8C8C8C" stroke-miterlimit="10" d="M256.434,79.475c1.872-0.568,4.828-3.369,4.828-3.369
		c2.334-1.089,3.579-2.646,4.461-5.187c0.57-1.401,0.423-3.966,0.423-3.966"/>
	<path fill="none" stroke="#8C8C8C" stroke-miterlimit="10" d="M272.931,66.667c-1.244,3.681-0.985,5.289,0,6.015
		c0.273,0.123,0.582,0.267,0.831,0c1.867-1.349,2.877-2.943,3.435-4.324"/>
	<path fill="none" stroke="#8C8C8C" stroke-miterlimit="10" d="M258.563,87.399c1.868-2.891,6.73-5.588,8.715-6.106
		c1.982-0.519,4.2-0.938,6.95-1.817c3.423-1.191,4.604-3.854,5.134-5.288c0.529-1.435,0.733-1.813,1.118-3.033"/>
	<path fill="none" stroke="#8C8C8C" stroke-miterlimit="10" d="M260.703,89.987c1.44-2.055,8.553-5.271,9.795-5.945
		c1.24-0.674,4.664-1.66,5.961-1.711c1.296-0.052,5.03-0.83,7.131-4.508"/>
	<path fill="none" stroke="#8C8C8C" stroke-miterlimit="10" d="M262.522,91.436c1.021-1.896,6.83-0.807,9.009-1.222
		c2.179-0.415,3.631-1.141,4.564-2.282c0.934-1.142,4.823-3.838,6.927-3.414"/>
	<circle fill="none" stroke="#666666" stroke-miterlimit="10" cx="270.104" cy="80.048" r="13.674"/>
</g>
<g id="lines">
	<path fill="none" stroke="#5E5E5E" stroke-miterlimit="10" d="M135.628,16.157c20.747-0.463,40.043,5.316,51.918,27.283
		c19.115,47.996-25.424,73.693-43.712,79.419c-38.288,8.727-71.26-4.025-71.26-4.025c-11.675-3.296-24.588-13.324-32.028-15.092"/>
	<path fill="none" stroke="#6D6D6D" stroke-miterlimit="10" d="M274.644,14.586c-21.899,4.954-38.097,14-49.979,37.932
		c-11.868,27.818,4.549,70.068,56.882,52.568c116-46.75,121.75,1.25,106.85,25.52c-22.516,36.313-127.693,88.98-48.091,97.98"/>
</g>
<g id="rocket">
	<g>
		<path fill="#C8C8C8" stroke="#7E7E7F" stroke-miterlimit="10" d="M353.954,229.893c0.542-4.577,6.003-5.916,12.552-4.728
			c3.524,0.638,8.191,3.418,8.709,3.898c0.262,0.939,0.318,2.247,0.178,3.532l-21.442-2.55
			C353.952,229.992,353.948,229.943,353.954,229.893z"/>
		<path fill="#9C9C9C" stroke="#7E7E7F" stroke-miterlimit="10" d="M375.393,232.596c-0.14,1.257-0.47,2.498-0.993,3.346
			c-0.494,0.589-5.777,1.687-9.347,1.485c-6.49-0.372-11.491-3.057-11.103-7.381L375.393,232.596z"/>
		<path fill="#7E7E7F" d="M375.656,228.837c0.919,0.611,2.634,2.797,3.077,3.482c0.158,0.248,0.2,0.568,0.2,0.568
			s-0.091,0.378-0.327,0.673c-0.737,0.929-2.449,2.57-3.884,2.639c-0.166-0.132-0.271-0.105-0.324-0.311l0.817-6.879
			C375.236,228.836,375.292,228.795,375.656,228.837z"/>
		<polygon fill="#707070" points="362.688,224.712 359.542,222.536 350.413,222.873 357.383,225.543 		"/>
		<polygon fill="#707070" points="361.241,236.904 357.667,238.275 348.744,235.491 356.472,234.874 		"/>
		<path fill="#C8C8C8" d="M353.955,229.836c0.543-4.572,6.004-5.911,12.554-4.722c3.524,0.642,8.188,3.42,8.707,3.896
			c0.262,0.944,0.319,2.25,0.179,3.532l-21.446-2.55C353.955,229.942,353.948,229.891,353.955,229.836z"/>
		<path fill="#9C9C9C" d="M375.395,232.542c-0.14,1.261-0.471,2.5-0.996,3.347c-0.493,0.593-5.774,1.689-9.351,1.485
			c-6.483-0.369-11.486-3.055-11.1-7.382L375.395,232.542z"/>
		<polygon fill="#C4C4C6" points="381.956,233.247 379.953,232.156 378.594,232.848 379.704,233.881 		"/>
		<polygon fill="#707070" points="359.423,230.568 355.484,227.072 347.162,229.114 354.73,232.346 		"/>
		<g>
			<circle fill="#848484" cx="366.817" cy="231.416" r="2.174"/>
			<path fill="#555555" d="M366.824,228.748c1.512,0.178,2.593,1.551,2.411,3.062c-0.177,1.511-1.549,2.594-3.062,2.412
				c-1.513-0.178-2.593-1.55-2.415-3.062C363.94,229.648,365.312,228.568,366.824,228.748z M365.272,231.264
				c-0.112,0.938,0.558,1.786,1.49,1.896c0.938,0.112,1.784-0.556,1.896-1.49c0.113-0.936-0.558-1.784-1.491-1.895
				C366.231,229.662,365.383,230.33,365.272,231.264z"/>
		</g>
	</g>
</g>
<g id="stars">
	<g opacity="0.7">
		<path fill="#AAAAAA" d="M83.73,29.857c0,0.328-0.21,0.594-0.471,0.594h-4.996c-0.261,0-0.471-0.266-0.471-0.594l0,0
			c0-0.328,0.21-0.593,0.471-0.593h4.996C83.521,29.265,83.73,29.529,83.73,29.857L83.73,29.857z"/>
		<path fill="#AAAAAA" d="M80.761,26.89c0.329,0,0.595,0.21,0.595,0.471v4.996c0,0.26-0.266,0.471-0.595,0.471l0,0
			c-0.327,0-0.593-0.211-0.593-0.471V27.36C80.168,27.1,80.434,26.89,80.761,26.89L80.761,26.89z"/>
		<circle fill="#AAAAAA" cx="80.762" cy="29.757" r="1.59"/>
	</g>
	<g opacity="0.7">
		<path fill="#898989" d="M328.716,176.814c0,0.512-0.327,0.926-0.734,0.926h-7.789c-0.406,0-0.734-0.414-0.734-0.926l0,0
			c0-0.511,0.328-0.924,0.734-0.924h7.789C328.389,175.89,328.716,176.303,328.716,176.814L328.716,176.814z"/>
		<path fill="#898989" d="M324.086,172.188c0.513,0,0.927,0.327,0.927,0.734v7.79c0,0.405-0.414,0.734-0.927,0.734l0,0
			c-0.511,0-0.925-0.329-0.925-0.734v-7.79C323.161,172.515,323.575,172.188,324.086,172.188L324.086,172.188z"/>
		<circle fill="#898989" cx="324.087" cy="176.658" r="2.479"/>
	</g>
	<g opacity="0.7">
		<path fill="#AAAAAA" d="M173.49,264.53c0,0.328-0.21,0.594-0.471,0.594h-4.996c-0.261,0-0.471-0.266-0.471-0.594l0,0
			c0-0.328,0.21-0.593,0.471-0.593h4.996C173.28,263.938,173.49,264.202,173.49,264.53L173.49,264.53z"/>
		<path fill="#AAAAAA" d="M170.52,261.562c0.329,0,0.595,0.21,0.595,0.471v4.996c0,0.26-0.266,0.471-0.595,0.471l0,0
			c-0.327,0-0.593-0.211-0.593-0.471v-4.996C169.927,261.772,170.193,261.562,170.52,261.562L170.52,261.562z"/>
		<circle fill="#AAAAAA" cx="170.521" cy="264.43" r="1.59"/>
	</g>
	<circle fill="#AAAAAA" cx="292.422" cy="292.032" r="1.5"/>
	<circle fill="#999999" cx="80.762" cy="252.859" r="3.022"/>
	<circle fill="#707070" cx="209.091" cy="175.021" r="2.435"/>
	<g opacity="0.7">
		<path fill="#AAAAAA" d="M139.752,166.26c0,0.328-0.21,0.594-0.471,0.594h-4.996c-0.261,0-0.471-0.266-0.471-0.594l0,0
			c0-0.328,0.21-0.593,0.471-0.593h4.996C139.542,165.667,139.752,165.932,139.752,166.26L139.752,166.26z"/>
		<path fill="#AAAAAA" d="M136.783,163.292c0.329,0,0.595,0.21,0.595,0.471v4.996c0,0.26-0.266,0.471-0.595,0.471l0,0
			c-0.327,0-0.593-0.211-0.593-0.471v-4.996C136.19,163.502,136.456,163.292,136.783,163.292L136.783,163.292z"/>
		<circle fill="#AAAAAA" cx="136.784" cy="166.159" r="1.59"/>
	</g>
	<g opacity="0.7">
		<path fill="#AAAAAA" d="M263.672,110.152c0,0.328-0.21,0.594-0.471,0.594h-4.996c-0.261,0-0.471-0.266-0.471-0.594l0,0
			c0-0.328,0.21-0.593,0.471-0.593h4.996C263.462,109.559,263.672,109.824,263.672,110.152L263.672,110.152z"/>
		<path fill="#AAAAAA" d="M260.702,107.184c0.329,0,0.595,0.21,0.595,0.471v4.996c0,0.26-0.266,0.471-0.595,0.471l0,0
			c-0.327,0-0.593-0.211-0.593-0.471v-4.996C260.109,107.394,260.375,107.184,260.702,107.184L260.702,107.184z"/>
		<circle fill="#AAAAAA" cx="260.703" cy="110.051" r="1.59"/>
	</g>
	<circle fill="#707070" cx="299.948" cy="129.314" r="3.401"/>
	<circle fill="#999999" cx="303.349" cy="253.476" r="4.189"/>
	<circle fill="#707070" cx="425.017" cy="242.06" r="2.41"/>
	<circle fill="#707070" cx="100.236" cy="118.992" r="1.906"/>
	<circle fill="#999999" cx="63.797" cy="178.14" r="2.25"/>
	<circle fill="#707070" cx="321.608" cy="32.827" r="2.049"/>
	<circle fill="#999999" cx="389.151" cy="69.465" r="2.407"/>
	<circle fill="#999999" cx="188.818" cy="87.399" r="3.401"/>
	<circle fill="#939393" cx="362.693" cy="156.868" r="2.5"/>
	<g opacity="0.7">
		<path fill="#AAAAAA" d="M286.746,31.346c0,0.328-0.211,0.594-0.471,0.594h-4.996c-0.262,0-0.471-0.266-0.471-0.594l0,0
			c0-0.328,0.209-0.593,0.471-0.593h4.996C286.535,30.753,286.746,31.018,286.746,31.346L286.746,31.346z"/>
		<path fill="#AAAAAA" d="M283.775,28.378c0.33,0,0.596,0.21,0.596,0.471v4.996c0,0.26-0.266,0.471-0.596,0.471l0,0
			c-0.326,0-0.592-0.211-0.592-0.471v-4.996C283.184,28.588,283.449,28.378,283.775,28.378L283.775,28.378z"/>
		<circle fill="#AAAAAA" cx="283.776" cy="31.246" r="1.59"/>
	</g>
	<g opacity="0.7">
		<path fill="#AAAAAA" d="M71.331,133.795c0,0.328-0.211,0.594-0.471,0.594h-4.996c-0.262,0-0.471-0.266-0.471-0.594l0,0
			c0-0.328,0.209-0.593,0.471-0.593h4.996C71.12,133.202,71.331,133.467,71.331,133.795L71.331,133.795z"/>
		<path fill="#AAAAAA" d="M68.36,130.827c0.33,0,0.596,0.21,0.596,0.471v4.996c0,0.26-0.266,0.471-0.596,0.471l0,0
			c-0.326,0-0.592-0.211-0.592-0.471v-4.996C67.769,131.037,68.034,130.827,68.36,130.827L68.36,130.827z"/>
		<circle fill="#AAAAAA" cx="68.361" cy="133.694" r="1.59"/>
	</g>
	<g opacity="0.7">
		<path fill="#AAAAAA" d="M383.758,273.695c0,0.328-0.211,0.594-0.471,0.594h-4.996c-0.262,0-0.471-0.266-0.471-0.594l0,0
			c0-0.328,0.209-0.593,0.471-0.593h4.996C383.547,273.103,383.758,273.367,383.758,273.695L383.758,273.695z"/>
		<path fill="#AAAAAA" d="M380.787,270.728c0.33,0,0.596,0.21,0.596,0.471v4.996c0,0.26-0.266,0.471-0.596,0.471l0,0
			c-0.326,0-0.592-0.211-0.592-0.471v-4.996C380.195,270.938,380.461,270.728,380.787,270.728L380.787,270.728z"/>
		<circle fill="#AAAAAA" cx="380.788" cy="273.595" r="1.59"/>
	</g>
	<circle fill="#AAAAAA" cx="168.638" cy="205.745" r="2.41"/>
	<g opacity="0.7">
		<path fill="#AAAAAA" d="M275.741,214.585c0,0.328-0.21,0.594-0.471,0.594h-4.996c-0.261,0-0.471-0.266-0.471-0.594l0,0
			c0-0.328,0.21-0.593,0.471-0.593h4.996C275.531,213.992,275.741,214.257,275.741,214.585L275.741,214.585z"/>
		<path fill="#AAAAAA" d="M272.771,211.617c0.329,0,0.595,0.21,0.595,0.471v4.996c0,0.26-0.266,0.471-0.595,0.471l0,0
			c-0.327,0-0.593-0.211-0.593-0.471v-4.996C272.179,211.827,272.444,211.617,272.771,211.617L272.771,211.617z"/>
		<circle fill="#AAAAAA" cx="272.772" cy="214.484" r="1.59"/>
	</g>
	<path fill="#7C7C7C" d="M374.433,184.967c0.411,0,6.841,0,6.841,0c1.056,0,1.914,0.858,1.914,1.915l0,0
		c0,1.056-0.858,1.913-1.914,1.913h-24.027c-1.056,0-1.913-0.857-1.913-1.913l0,0c0-1.057,0.857-1.915,1.913-1.915
		c0,0,6.331,0,7.575,0c1.345-0.667,1.445-2.369-0.001-3.024c-0.98,0-2.831,0-2.831,0c-0.983,0-1.779-0.797-1.779-1.781l0,0
		c0-0.982,0.796-1.779,1.779-1.779h13.082c0.983,0,1.78,0.797,1.78,1.779l0,0c0,0.984-0.797,1.781-1.78,1.781
		c0,0-0.218,0.013-0.641,0C373.008,182.698,373.075,184.366,374.433,184.967z"/>
	<path fill="#4F4F4F" d="M432.72,94.606c0.264,0,4.387,0,4.387,0c0.677,0,1.227,0.551,1.227,1.228l0,0
		c0,0.677-0.55,1.227-1.227,1.227h-15.405c-0.677,0-1.227-0.55-1.227-1.227l0,0c0-0.677,0.55-1.228,1.227-1.228c0,0,4.059,0,4.856,0
		c0.862-0.427,0.927-1.519-0.001-1.938c-0.628,0-1.814,0-1.814,0c-0.631,0-1.142-0.511-1.142-1.142l0,0
		c0-0.629,0.511-1.141,1.142-1.141h8.388c0.63,0,1.142,0.512,1.142,1.141l0,0c0,0.631-0.512,1.142-1.142,1.142
		c0,0-0.14,0.008-0.411,0C431.807,93.152,431.85,94.222,432.72,94.606z"/>
	<path fill="#848484" d="M118.846,209.409h-0.413c-1.044,0-1.889-0.846-1.889-1.889l0,0c0-1.044,0.845-1.89,1.889-1.89h13.756
		c1.044,0,1.889,0.846,1.889,1.89l0,0c0,1.043-0.845,1.889-1.889,1.889c0,0-0.531,0-1.24,0c-1.535,0.708-1.358,2.893,0,3.295
		c1.121-0.013,13.254,0,13.254,0c1.353,0,2.45,1.096,2.45,2.45l0,0c0,1.353-1.098,2.45-2.45,2.45h-25.445
		c-1.352,0-2.449-1.098-2.449-2.45l0,0c0-1.354,1.098-2.45,2.449-2.45C120.264,212.302,120.381,210.058,118.846,209.409z"/>
	<path fill="#7C7C7C" d="M72.94,164.852c0.411,0,6.841,0,6.841,0c1.056,0,1.914,0.858,1.914,1.915l0,0
		c0,1.056-0.858,1.913-1.914,1.913H55.754c-1.056,0-1.913-0.857-1.913-1.913l0,0c0-1.057,0.857-1.915,1.913-1.915
		c0,0,6.331,0,7.575,0c1.345-0.667,1.445-2.369-0.001-3.024c-0.98,0-2.831,0-2.831,0c-0.983,0-1.779-0.797-1.779-1.781l0,0
		c0-0.982,0.796-1.779,1.779-1.779h13.082c0.983,0,1.78,0.797,1.78,1.779l0,0c0,0.984-0.797,1.781-1.78,1.781
		c0,0-0.218,0.013-0.641,0C71.516,162.583,71.583,164.251,72.94,164.852z"/>
	<path fill="#7A7A7A" d="M101.453,170.123c0,1.342-1.087,2.43-2.43,2.43H80.834c-1.343,0-2.429-1.088-2.429-2.43l0,0
		c0-1.34,1.086-2.428,2.429-2.428h18.189C100.366,167.695,101.453,168.783,101.453,170.123L101.453,170.123z"/>
	<circle fill="#7A7A7A" cx="109.188" cy="169.922" r="2.571"/>
	<path fill="#5E5E5E" d="M425.481,100.559c1.051,0,1.904,0.852,1.904,1.904l0,0c0,1.051-0.854,1.905-1.904,1.905h-19.782
		c-1.051,0-1.904-0.854-1.904-1.905l0,0c0-1.052,0.854-1.904,1.904-1.904c0,0,9.432-0.01,10.305,0c1.056-0.313,1.192-2.011,0-2.562
		c-0.551,0-0.964,0-0.964,0c-0.812,0-1.47-0.657-1.47-1.468l0,0c0-0.811,0.657-1.469,1.47-1.469h10.693
		c0.812,0,1.469,0.658,1.469,1.469l0,0c0,0.811-0.657,1.468-1.469,1.468h-0.321C424.219,98.502,424.312,100.246,425.481,100.559z"/>
	<circle fill="none" stroke="#6D6D6D" stroke-width="2" stroke-miterlimit="10" cx="427.386" cy="133.694" r="4.5"/>
	<circle fill="none" stroke="#6D6D6D" stroke-miterlimit="10" cx="167.552" cy="135.285" r="2.046"/>
	<circle fill="none" stroke="#6D6D6D" stroke-miterlimit="10" cx="128.648" cy="286.45" r="3.93"/>
	<circle fill="none" stroke="#6D6D6D" stroke-miterlimit="10" cx="2.546" cy="240.014" r="2.046"/>
	<g opacity="0.7">
		<path fill="#AAAAAA" d="M92.898,224.044c0,0.328-0.211,0.594-0.471,0.594h-4.996c-0.262,0-0.471-0.266-0.471-0.594l0,0
			c0-0.328,0.209-0.593,0.471-0.593h4.996C92.687,223.451,92.898,223.716,92.898,224.044L92.898,224.044z"/>
		<path fill="#AAAAAA" d="M89.927,221.076c0.33,0,0.596,0.21,0.596,0.471v4.996c0,0.26-0.266,0.471-0.596,0.471l0,0
			c-0.326,0-0.592-0.211-0.592-0.471v-4.996C89.335,221.286,89.601,221.076,89.927,221.076L89.927,221.076z"/>
		<circle fill="#AAAAAA" cx="89.928" cy="223.943" r="1.59"/>
	</g>
	<circle fill="#707070" cx="23.214" cy="197.88" r="2.435"/>
	<circle fill="none" stroke="#6D6D6D" stroke-width="2" stroke-miterlimit="10" cx="23.213" cy="143.134" r="4.5"/>
	<g opacity="0.7">
		<path fill="#AAAAAA" d="M406.764,205.629c0,0.328-0.21,0.594-0.471,0.594h-4.996c-0.261,0-0.471-0.266-0.471-0.594l0,0
			c0-0.328,0.21-0.593,0.471-0.593h4.996C406.554,205.036,406.764,205.301,406.764,205.629L406.764,205.629z"/>
		<path fill="#AAAAAA" d="M403.794,202.661c0.329,0,0.595,0.21,0.595,0.471v4.996c0,0.26-0.266,0.471-0.595,0.471l0,0
			c-0.327,0-0.593-0.211-0.593-0.471v-4.996C403.201,202.871,403.467,202.661,403.794,202.661L403.794,202.661z"/>
		<circle fill="#AAAAAA" cx="403.795" cy="205.528" r="1.59"/>
	</g>
</g>
</svg>
