<?xml version="1.0" encoding="utf-8"?>
<!-- Generator: Adobe Illustrator 16.0.0, SVG Export Plug-In . SVG Version: 6.00 Build 0)  -->
<!DOCTYPE svg PUBLIC "-//W3C//DTD SVG 1.1//EN" "http://www.w3.org/Graphics/SVG/1.1/DTD/svg11.dtd">
<svg version="1.1" xmlns="http://www.w3.org/2000/svg" xmlns:xlink="http://www.w3.org/1999/xlink" x="0px" y="0px"
	 width="37.606px" height="37.436px" viewBox="0 0 37.606 37.436" enable-background="new 0 0 37.606 37.436" xml:space="preserve">
<polygon fill="#AAABAE" points="15.911,23.054 15.911,11.932 14.357,11.934 17.4,6.393 20.442,11.934 18.875,11.932 18.875,23.054 
	"/>
<polygon fill="#AAABAE" points="23.96,22.941 15.911,23.062 15.911,19.97 23.96,19.97 23.958,18.403 29.5,21.445 23.958,24.488 "/>
<path fill="#AAABAE" d="M18.803,0C14.108,0,9.616,1.728,6.155,4.865L6.028,4.98l-2.997-2.43L0.748,14.069l10.534-4.534L8.846,7.348
	L9.021,7.2c2.722-2.311,6.195-3.583,9.782-3.583c8.346,0,15.135,6.79,15.135,15.134c0,8.346-6.79,15.136-15.135,15.136
	c-7.677,0-14.022-5.751-14.992-13.168h-3.7c1.007,9.383,9.003,16.717,18.692,16.717c10.368,0,18.803-8.396,18.803-18.718
	S29.171,0,18.803,0z"/>
</svg>
