<?xml version="1.0" encoding="utf-8"?>
<!-- Generator: Adobe Illustrator 16.0.0, SVG Export Plug-In . SVG Version: 6.00 Build 0)  -->
<!DOCTYPE svg PUBLIC "-//W3C//DTD SVG 1.1//EN" "http://www.w3.org/Graphics/SVG/1.1/DTD/svg11.dtd">
<svg version="1.1" xmlns="http://www.w3.org/2000/svg" xmlns:xlink="http://www.w3.org/1999/xlink" x="0px" y="0px"
	 width="40.612px" height="40.553px" viewBox="0 0 40.612 40.553" enable-background="new 0 0 40.612 40.553" xml:space="preserve">
<path fill="#AAABAE" d="M19.746,28.927c-0.805,0-1.52-0.504-2.62-1.324c-0.404-0.306-8.006-6.025-8.006-6.025
	c-1.046-0.789-1.255-2.28-0.468-3.325c0.446-0.593,1.156-0.946,1.898-0.946c0.52,0,1.013,0.166,1.428,0.479
	c0,0,4.197,3.159,7.236,5.446L36.35,0.929C36.803,0.339,37.49,0,38.233,0c0.527,0,1.028,0.17,1.447,0.493
	c0.502,0.385,0.825,0.944,0.907,1.574c0.083,0.63-0.085,1.254-0.473,1.757L23.007,26.082l0.007,0.006l-1.227,1.581l-0.009-0.007
	C21.14,28.426,20.563,28.927,19.746,28.927z"/>
<path fill="#AAABAE" d="M18.902,40.553C8.479,40.553,0,32.073,0,21.651c0-5.049,1.966-9.796,5.537-13.366
	C9.106,4.716,13.852,2.75,18.9,2.75c2.131,0,3.822,0.266,5.837,0.917c0.949,0.281,1.511,1.167,1.368,2.155
	c-0.141,0.969-0.927,1.672-1.87,1.672c-0.189,0-0.384-0.028-0.58-0.083c-1.979-0.574-3.178-0.768-4.752-0.768
	c-8.274,0-15.005,6.732-15.005,15.006c0,8.275,6.731,15.007,15.005,15.007c8.274,0,15.006-6.732,15.006-15.007
	c0-1.184-0.116-2.3-0.327-3.145c-0.126-0.604-0.004-1.157,0.354-1.597c0.379-0.466,0.985-0.744,1.622-0.744
	c0.876,0,1.596,0.541,1.792,1.347c0.268,1.033,0.455,2.734,0.455,4.139C37.804,32.073,29.325,40.553,18.902,40.553z"/>
</svg>
