<?xml version="1.0" encoding="utf-8"?>
<!-- Generator: Adobe Illustrator 16.0.0, SVG Export Plug-In . SVG Version: 6.00 Build 0)  -->
<!DOCTYPE svg PUBLIC "-//W3C//DTD SVG 1.1//EN" "http://www.w3.org/Graphics/SVG/1.1/DTD/svg11.dtd">
<svg version="1.1" id="图层_1" xmlns="http://www.w3.org/2000/svg" xmlns:xlink="http://www.w3.org/1999/xlink" x="0px" y="0px"
	 width="267.096px" height="175.646px" viewBox="0 0 267.096 175.646" enable-background="new 0 0 267.096 175.646"
	 xml:space="preserve">
<path fill="#4D4E51" d="M64.605,22c0,12.15-9.85,22-22,22s-22-9.85-22-22s9.85-22,22-22S64.605,9.85,64.605,22z M42.605,4.65
	c-9.582,0-17.35,7.768-17.35,17.351c0,9.582,7.768,17.35,17.35,17.35s17.35-7.768,17.35-17.35
	C59.956,12.418,52.188,4.65,42.605,4.65z"/>
<path id="cloud_2_" fill="#4D4E51" d="M38,31.362c0,1.243-1.007,2.25-2.25,2.25H2.25c-1.243,0-2.25-1.007-2.25-2.25l0,0
	c0-1.243,1.007-2.25,2.25-2.25h33.5C36.993,29.112,38,30.12,38,31.362L38,31.362z"/>
<path id="cloud_1_" fill="#4D4E51" d="M82.332,25.162c0,1.243-1.007,2.25-2.25,2.25H44.557c-1.242,0-2.25-1.007-2.25-2.25l0,0
	c0-1.242,1.007-2.25,2.25-2.25h35.524C81.324,22.912,82.332,23.92,82.332,25.162L82.332,25.162z"/>
<path id="cloud" fill="#4D4E51" d="M95.034,25.262c0,1.243-1.007,2.25-2.25,2.25h-5.167c-1.243,0-2.25-1.007-2.25-2.25l0,0
	c0-1.243,1.007-2.25,2.25-2.25h5.167C94.026,23.012,95.034,24.02,95.034,25.262L95.034,25.262z"/>
<path fill="#4D4E51" d="M77.85,143.895v26.751h-4.477v-26.248c0-5.892-4.776-10.667-10.667-10.667
	c-5.891,0-10.667,4.775-10.667,10.667v26.248h-5.19v-26.751c0-8.284,6.716-15,15-15h1C71.134,128.895,77.85,135.61,77.85,143.895z
	 M73.374,145.815H52.04v5.167h21.334V145.815z"/>
<polyline fill="#4D4E51" points="77.85,147.147 85.352,151.98 85.352,170.646 80.435,170.646 80.435,154.647 77.819,153.208 "/>
<polyline fill="#4D4E51" points="47.019,147.147 39.518,151.98 39.518,170.646 44.434,170.646 44.434,154.647 47.05,153.208 "/>
<path fill="#4D4E51" d="M60.884,162.312c0-0.944,0.765-1.709,1.708-1.709s1.708,0.765,1.708,1.709v8.334h2.967v-9.329
	c0-2.623-2.126-4.75-4.75-4.75s-4.75,2.127-4.75,4.75v9.329h3.116V162.312z"/>
<path fill="#4D4E51" d="M249.208,133.356c0,7.571-6.138,13.709-13.708,13.709c-7.571,0-13.709-6.138-13.709-13.709
	c0-7.57,6.138-13.708,13.709-13.708C243.071,119.648,249.208,125.786,249.208,133.356z M235.5,124.05
	c-5.141,0-9.308,4.167-9.308,9.308c0,5.14,4.167,9.308,9.308,9.308c5.14,0,9.308-4.168,9.308-9.308
	C244.808,128.217,240.64,124.05,235.5,124.05z"/>
<path fill="#4D4E51" d="M221.693,142.286c0,6.121-4.964,11.085-11.087,11.085c-6.121,0-11.085-4.964-11.085-11.085
	c0-6.123,4.964-11.087,11.085-11.087C216.729,131.199,221.693,136.163,221.693,142.286z M210.607,135.743
	c-3.612,0-6.541,2.929-6.541,6.542c0,3.612,2.929,6.541,6.541,6.541c3.613,0,6.542-2.929,6.542-6.541
	C217.149,138.672,214.22,135.743,210.607,135.743z"/>
<path fill="#4D4E51" d="M238.023,133.274c0-1.357-1.101-2.458-2.458-2.458c-1.358,0-2.459,1.101-2.459,2.458v42.371h4.917V133.274z"
	/>
<path fill="#4D4E51" d="M212.857,141.853c0-1.357-1.101-2.458-2.458-2.458c-1.358,0-2.459,1.101-2.459,2.458v33.793h4.917V141.853z"
	/>
<g>
	<path fill="#4D4E51" d="M222.049,78.797c-0.053,0.111-0.104,0.224-0.158,0.334c-13.454,27.777-45.412,47.082-84.277,47.082
		c-38.868,0-70.958-19.64-84.414-47.416c0,0-5.267,0-3.29,5.029c12.607,26.653,45.728,47.19,87.7,47.19
		c41.972,0,75.246-19.7,87.489-47.291C226.6,78.797,222.049,78.797,222.049,78.797z"/>
</g>
<polygon fill="#4D4E51" points="220.602,83.726 53.936,83.726 53.2,78.797 222.049,78.797 "/>
<path fill="#4D4E51" d="M137.911,126.191c-13.743,0-26.186-17.046-30.686-42.465h-5c5.625,29.544,19.606,47.291,35.686,47.291
	c16.082,0,30.314-18.621,35.564-47.291h-5C163.244,109.619,151.635,126.191,137.911,126.191z"/>
<g>
	<path fill="#4D4E51" d="M199.521,83.726c-10.451,24.708-33.155,42.017-61.671,42.017c-28.503,0-51.29-17.328-61.75-42.017h-5.608
		c10.038,27.477,36.407,47.091,67.358,47.091c30.951,0,57.32-19.614,67.357-47.091H199.521z"/>
</g>
<path fill="#4D4E51" d="M135.042,55.75h-5.206c-0.552,0-1-0.448-1-1v-15c0-0.552,0.448-1,1-1h14.998c0.553,0,1,0.448,1,1v15
	c0,0.552-0.447,1-1,1h-4.627 M141.434,43.994c0-0.536-0.434-0.97-0.97-0.97h-6.058c-0.536,0-0.971,0.434-0.971,0.97v6.061
	c0,0.536,0.435,0.97,0.971,0.97h6.058c0.536,0,0.97-0.434,0.97-0.97V43.994z M135.042,55.75v71.729h5.166V55.75"/>
<polyline fill="#4D4E51" points="145.834,50.04 182.522,78.798 174.147,78.798 144.834,55.75 "/>
<polygon fill="#4D4E51" points="128.836,51.09 93.489,78.798 101.864,78.798 131.393,55.65 "/>
<rect x="135.042" y="142.285" fill="#4D4E51" width="5.809" height="3.235"/>
<rect x="134.72" y="150.136" fill="#4D4E51" width="5.809" height="3.235"/>
<rect x="134.946" y="158.576" fill="#4D4E51" width="5.809" height="3.235"/>
<rect x="126.475" y="128.271" fill="#4D4E51" width="4.375" height="9.75"/>
<rect x="144.775" y="128.481" fill="#4D4E51" width="4.375" height="9.75"/>
<path fill="#4D4E51" d="M267.096,173.146c0,1.381-1.119,2.5-2.5,2.5H11.601c-1.381,0-2.5-1.119-2.5-2.5l0,0
	c0-1.381,1.119-2.5,2.5-2.5h252.995C265.977,170.646,267.096,171.765,267.096,173.146L267.096,173.146z"/>
<path fill="#4D4E51" d="M143.903,141.521c0-0.553,0.447-1,1-1h4.125c0.553,0,1,0.447,1,1v34.125h4.5v-37.25c0-1.104-0.896-2-2-2
	h-11.125c-1.104,0-2.004,0.896-2.004,2v37.25h4.504V141.521z"/>
<path fill="#4D4E51" d="M125.6,141.521c0-0.553,0.448-1,1-1h4.125c0.553,0,1,0.447,1,1v34.125h4.5v-37.25c0-1.104-0.896-2-2-2H123.1
	c-1.104,0-2,0.896-2,2v37.25h4.5V141.521z"/>
<polygon fill="#4D4E51" points="121.297,150.517 97.744,175.646 104.497,175.646 124.812,153.968 "/>
<polygon fill="#4D4E51" points="154.389,150.517 150.874,153.968 171.19,175.646 177.943,175.646 "/>
</svg>
