<?xml version="1.0" encoding="utf-8"?>
<!-- Generator: Adobe Illustrator 16.0.0, SVG Export Plug-In . SVG Version: 6.00 Build 0)  -->
<!DOCTYPE svg PUBLIC "-//W3C//DTD SVG 1.1//EN" "http://www.w3.org/Graphics/SVG/1.1/DTD/svg11.dtd">
<svg version="1.1" id="图层_1" xmlns="http://www.w3.org/2000/svg" xmlns:xlink="http://www.w3.org/1999/xlink" x="0px" y="0px"
	 width="20.482px" height="18.358px" viewBox="0 0 20.482 18.358" enable-background="new 0 0 20.482 18.358" xml:space="preserve">
<path fill="#4E535C" d="M16.409,13.568H4.947V1.863H9.83V0.193H4.859c-0.85,0-1.54,0.709-1.54,1.58v11.885
	c0,0.871,0.69,1.58,1.54,1.58h11.637c0.849,0,1.54-0.709,1.54-1.58V8.542h-1.627V13.568z"/>
<polygon fill="#4E535C" points="14.164,11.827 5.969,11.827 7.98,9.383 9.634,10.987 11.695,8.598 "/>
<g>
	<path fill="#4E535C" d="M20.439,1.289L14.243,7.49c-0.054,0.054-0.141,0.054-0.195,0l-3.516-3.521
		c-0.054-0.055-0.054-0.143,0-0.197l1.107-1.096c0.054-0.055,0.144-0.055,0.198,0l2.312,2.312l4.948-4.947
		c0.055-0.054,0.142-0.054,0.197,0l1.144,1.05C20.496,1.145,20.496,1.234,20.439,1.289z"/>
</g>
<path fill="#4E535C" d="M12.765,16.772H1.587V5.632h2.161V4.044H1.502C0.673,4.044,0,4.719,0,5.547v11.309
	c0,0.828,0.673,1.502,1.502,1.502h11.347c0.829,0,1.502-0.674,1.502-1.502v-2.24h-1.586V16.772z"/>
</svg>
