<?xml version="1.0" encoding="utf-8"?>
<!-- Generator: Adobe Illustrator 16.0.0, SVG Export Plug-In . SVG Version: 6.00 Build 0)  -->
<!DOCTYPE svg PUBLIC "-//W3C//DTD SVG 1.1//EN" "http://www.w3.org/Graphics/SVG/1.1/DTD/svg11.dtd">
<svg version="1.1" xmlns="http://www.w3.org/2000/svg" xmlns:xlink="http://www.w3.org/1999/xlink" x="0px" y="0px"
	 width="24.091px" height="24.09px" viewBox="0 0 24.091 24.09" enable-background="new 0 0 24.091 24.09" xml:space="preserve">
<g id="图层_1" display="none">
	<rect x="3.53" y="-54.453" display="inline" fill="#AAABAE" width="10.5" height="3.233"/>
	<rect x="3.53" y="-47.314" display="inline" fill="#AAABAE" width="6.833" height="1.465"/>
	<path display="inline" fill="none" stroke="#AAABAE" stroke-width="2" stroke-miterlimit="10" d="M19.551-41.918
		c0,2.716-2.492,4.918-5.565,4.918h-7.42C3.492-37,1-39.203,1-41.918v-11.477c0-2.716,2.492-4.918,5.565-4.918h7.42
		c3.073,0,5.565,2.202,5.565,4.918V-41.918z"/>
	<rect x="3.53" y="-43.526" display="inline" fill="#AAABAE" width="13.667" height="1.543"/>
</g>
<g id="图层_2" display="none">
	
		<circle display="inline" fill="none" stroke="#AAABAE" stroke-width="2" stroke-miterlimit="10" cx="36.259" cy="-49.604" r="8.708"/>
	
		<line display="inline" fill="none" stroke="#AAABAE" stroke-width="2" stroke-linecap="round" stroke-miterlimit="10" x1="41.926" y1="-43.001" x2="46.572" y2="-38.354"/>
</g>
<g id="图层_8" display="none">
	<path display="inline" fill="#D3D6D9" stroke="#D3D6D9" stroke-width="2" stroke-miterlimit="10" d="M100.338-42.596
		c0,2.717-2.492,4.919-5.564,4.919h-7.421c-3.073,0-5.565-2.202-5.565-4.919v-11.476c0-2.717,2.492-4.919,5.565-4.919h7.421
		c3.072,0,5.564,2.202,5.564,4.919V-42.596z"/>
	<rect x="84.317" y="-55.13" display="inline" fill="#1E2124" width="10.5" height="3.233"/>
	<rect x="84.317" y="-47.992" display="inline" fill="#1E2124" width="6.833" height="1.466"/>
	<rect x="84.317" y="-44.204" display="inline" fill="#1E2124" width="13.667" height="1.543"/>
</g>
<g id="图层_3" display="none">
	<polyline display="inline" fill="none" stroke="#AAABAE" stroke-miterlimit="10" points="68.639,-58.858 66.728,-57.983 
		66.728,-54.327 68.656,-53.491 	"/>
	<polyline display="inline" fill="none" stroke="#AAABAE" stroke-miterlimit="10" points="69.464,-53.513 71.358,-54.382 
		71.358,-58.007 69.445,-58.835 	"/>
	<polyline display="inline" fill="none" stroke="#AAABAE" stroke-miterlimit="10" points="57.203,-49.907 54.758,-48.786 
		54.758,-44.11 57.227,-43.038 	"/>
	<polyline display="inline" fill="none" stroke="#AAABAE" stroke-miterlimit="10" points="58.259,-43.067 60.682,-44.179 
		60.682,-48.815 58.235,-49.878 	"/>
	<polyline display="inline" fill="none" stroke="#AAABAE" stroke-miterlimit="10" points="70.27,-43.724 68.358,-42.847 
		68.358,-39.192 70.287,-38.354 	"/>
	<polyline display="inline" fill="none" stroke="#AAABAE" stroke-miterlimit="10" points="71.095,-38.378 72.989,-39.245 
		72.989,-42.87 71.076,-43.7 	"/>
	<path display="inline" fill="none" stroke="#AAABAE" stroke-miterlimit="10" d="M61.191-46.472
		c3.625-0.021,1.786-9.709,5.042-9.703"/>
	<path display="inline" fill="none" stroke="#565656" stroke-miterlimit="10" d="M14.213-39.653"/>
	<path display="inline" fill="none" stroke="#AAABAE" stroke-miterlimit="10" d="M61.191-46.417c4.375-0.014,2.875,5.424,7,5.434"/>
</g>
<g id="图层_7" display="none">
	
		<line display="inline" fill="none" stroke="#AAABAE" stroke-width="2" stroke-miterlimit="10" x1="69.165" y1="-18.344" x2="72.72" y2="-18.344"/>
	<path display="inline" fill="none" stroke="#AAABAE" stroke-width="2" stroke-miterlimit="10" d="M73.552-12.605
		c0,2.717-2.492,4.918-5.565,4.918h-7.42C57.492-7.688,55-9.889,55-12.605v-11.476C55-26.798,57.492-29,60.566-29h7.42
		c3.073,0,5.565,2.202,5.565,4.918V-12.605z"/>
	<polyline display="inline" fill="none" stroke="#AAABAE" stroke-width="2" stroke-miterlimit="10" points="62.79,-14.549 
		59.887,-15.879 59.887,-21.431 62.818,-22.703 	"/>
	
		<line display="inline" fill="none" stroke="#AAABAE" stroke-width="2" stroke-miterlimit="10" x1="59.131" y1="-18.344" x2="55.576" y2="-18.344"/>
	<polyline display="inline" fill="none" stroke="#AAABAE" stroke-width="2" stroke-miterlimit="10" points="66.253,-14.549 
		69.157,-15.879 69.157,-21.431 66.226,-22.703 	"/>
</g>
<g id="图层_4" display="none">
	<path display="inline" fill="#6C82CB" d="M48-10.272c0,0.519-0.447,0.939-1,0.939H31c-0.552,0-1-0.421-1-0.939v-18.788
		C30-29.58,30.448-30,31-30h16c0.553,0,1,0.42,1,0.939V-10.272z"/>
	<rect x="32.197" y="-26.743" display="inline" fill="#B8BFD3" width="10.5" height="2"/>
	<rect x="32.197" y="-22.18" display="inline" fill="#B8BFD3" width="13.666" height="1.207"/>
	<rect x="32.197" y="-19.062" display="inline" fill="#B8BFD3" width="6.834" height="1.208"/>
	<rect x="32.197" y="-16.18" display="inline" fill="#B8BFD3" width="13.666" height="1.207"/>
	<rect x="32.197" y="-13.389" display="inline" fill="#B8BFD3" width="13.666" height="1.209"/>
	<path display="inline" fill="none" stroke="#565656" stroke-miterlimit="10" d="M42.88-11.943"/>
</g>
<g id="图层_6">
	<g>
		<path fill="none" stroke="#AAABAE" stroke-width="2" stroke-miterlimit="10" d="M23.091,13.468c0,0.19-0.154,0.345-0.346,0.345
			h-2.231c-0.718,0-1.334,0.412-1.607,1.074c-0.275,0.663-0.131,1.391,0.377,1.897l1.577,1.577c0.136,0.135,0.136,0.354,0,0.488
			l-2.012,2.012c-0.134,0.135-0.353,0.135-0.486,0l-1.578-1.578c-0.508-0.508-1.234-0.652-1.897-0.377
			c-0.663,0.273-1.074,0.891-1.074,1.607v2.232c0,0.189-0.154,0.344-0.345,0.344h-2.845c-0.19,0-0.346-0.154-0.346-0.344v-2.232
			c0-0.717-0.411-1.334-1.074-1.607c-0.222-0.094-0.45-0.139-0.677-0.139c-0.447,0-0.883,0.178-1.22,0.516l-1.578,1.578
			c-0.135,0.135-0.354,0.134-0.487,0L3.229,18.85c-0.136-0.135-0.136-0.354,0-0.488l1.578-1.578
			c0.508-0.507,0.651-1.234,0.377-1.896s-0.891-1.074-1.608-1.074H1.345C1.154,13.812,1,13.658,1,13.468v-2.845
			c0-0.19,0.154-0.346,0.345-0.346h2.231c0.718,0,1.334-0.411,1.608-1.074c0.274-0.662,0.131-1.39-0.377-1.896L3.229,5.729
			c-0.136-0.135-0.136-0.354,0-0.488l2.012-2.011c0.134-0.135,0.354-0.135,0.487,0l1.578,1.577C7.813,5.314,8.54,5.459,9.203,5.185
			s1.074-0.891,1.074-1.608V1.345c0-0.19,0.155-0.345,0.346-0.345h2.844c0.191,0,0.346,0.154,0.346,0.345v2.231
			c0,0.718,0.411,1.334,1.074,1.608c0.664,0.274,1.391,0.13,1.897-0.377l1.578-1.578c0.135-0.135,0.354-0.135,0.486,0l2.012,2.012
			c0.136,0.135,0.136,0.354,0,0.487l-1.577,1.578c-0.508,0.508-0.652,1.234-0.377,1.897c0.273,0.663,0.89,1.074,1.607,1.074h2.231
			c0.191-0.001,0.346,0.154,0.346,0.345V13.468z"/>
		<path fill="none" stroke="#AAABAE" stroke-width="2" stroke-miterlimit="10" d="M12.045,15.138c-1.704,0-3.093-1.388-3.093-3.093
			s1.389-3.092,3.093-3.092s3.093,1.387,3.093,3.092S13.749,15.138,12.045,15.138z"/>
	</g>
</g>
<g id="图层_5" display="none">
	<path display="inline" fill="none" stroke="#AAABAE" stroke-width="2" stroke-miterlimit="10" d="M23-13c0,3.313-2.687,6-6,6H7
		c-3.313,0-6-2.687-6-6v-10c0-3.313,2.687-6,6-6h10c3.313,0,6,2.687,6,6V-13z"/>
	<path display="inline" fill="#AAABAE" d="M14.552-19.121c-0.553,0.606-1.427,0.708-1.957,0.228l0,0
		c-0.526-0.481-0.503-1.361,0.048-1.968l3.08-3.377c0.553-0.606,1.429-0.708,1.955-0.227l0,0c0.529,0.481,0.507,1.361-0.047,1.967
		L14.552-19.121z"/>
	<path display="inline" fill="#AAABAE" d="M12.702-10.341c0,0.304-0.314,0.55-0.702,0.55l0,0c-0.388,0-0.702-0.246-0.702-0.55
		v-5.987c0-0.303,0.314-0.549,0.702-0.549l0,0c0.388,0,0.702,0.246,0.702,0.549V-10.341z"/>
	<path display="inline" fill="#AAABAE" d="M10.833-17.958c0,0.256-0.124,0.463-0.279,0.463H3.031c-0.155,0-0.281-0.207-0.281-0.463
		l0,0c0-0.256,0.126-0.464,0.281-0.464h7.523C10.709-18.422,10.833-18.214,10.833-17.958L10.833-17.958z"/>
	<circle display="inline" fill="#8A8F94" cx="12" cy="-18" r="1.333"/>
	<circle display="inline" fill="#E4E5EA" cx="12" cy="-18.001" r="0.625"/>
</g>
</svg>
