<?xml version="1.0" encoding="utf-8"?>
<!-- Generator: Adobe Illustrator 16.0.0, SVG Export Plug-In . SVG Version: 6.00 Build 0)  -->
<!DOCTYPE svg PUBLIC "-//W3C//DTD SVG 1.1//EN" "http://www.w3.org/Graphics/SVG/1.1/DTD/svg11.dtd">
<svg version="1.1" xmlns="http://www.w3.org/2000/svg" xmlns:xlink="http://www.w3.org/1999/xlink" x="0px" y="0px"
	 width="77.577px" height="91.838px" viewBox="12.775 1.586 77.577 91.838" enable-background="new 12.775 1.586 77.577 91.838"
	 xml:space="preserve">
<g>
	<g>
		<path fill="rgba(73,140,243,.15)" d="M65.036,59.94l2.649-0.597l2.648-0.599c1-0.218,1.68-1.125,1.627-2.146l-0.231-4.172
			c-0.048-0.844,0.383-1.638,1.116-2.067c0.99-0.6,1.932-1.268,2.841-2.011c0.659-0.529,1.546-0.687,2.339-0.36l3.795,1.582
			c0.96,0.409,2.048,0.07,2.593-0.811l1.471-2.313l1.473-2.313c0.54-0.852,0.387-2.002-0.372-2.693l-3.068-2.734
			c-0.631-0.555-0.893-1.44-0.682-2.25c0.31-1.191,0.513-2.383,0.617-3.603c0.057-0.844,0.581-1.581,1.373-1.9l3.823-1.57
			c0.952-0.415,1.484-1.415,1.249-2.401l-0.598-2.65l-0.598-2.651c-0.218-0.999-1.123-1.678-2.145-1.625l-4.127,0.222
			c-0.845,0.049-1.637-0.382-2.067-1.115c-0.622-1.053-1.327-2.043-2.124-2.988c-0.545-0.647-0.69-1.518-0.364-2.31l1.584-3.796
			c0.407-0.958,0.07-2.047-0.812-2.591l-2.312-1.471L74.42,4.536c-0.859-0.484-1.982-0.327-2.654,0.419l-2.734,3.068
			c-0.555,0.63-1.442,0.893-2.25,0.681c-1.192-0.307-2.384-0.513-3.603-0.618c-0.845-0.055-1.581-0.581-1.901-1.371L59.706,2.89
			c-0.414-0.951-1.414-1.483-2.4-1.248l-2.651,0.598l-2.649,0.598c-0.998,0.218-1.68,1.125-1.625,2.146l0.237,4.115
			c0.049,0.842-0.397,1.648-1.132,2.079c-1.081,0.618-2.104,1.346-3.07,2.186c-0.633,0.56-1.55,0.716-2.342,0.388l-3.727-1.558
			c-0.959-0.41-2.046-0.07-2.591,0.811l-1.472,2.313l-1.472,2.312c-0.541,0.852-0.387,2.004,0.372,2.693l3.105,2.784
			c0.644,0.57,0.88,1.424,0.681,2.25c-0.291,1.179-0.483,2.387-0.584,3.578c-0.072,0.856-0.612,1.606-1.404,1.926l-3.771,1.504
			c-0.951,0.413-1.483,1.413-1.249,2.4l0.597,2.65l0.597,2.65c0.234,0.986,1.141,1.667,2.162,1.613l4.173-0.23
			c0.843-0.049,1.626,0.365,2.056,1.098c0.625,1.025,1.33,2.015,2.125,2.96c0.544,0.646,0.705,1.534,0.377,2.328l-1.563,3.754
			c-0.407,0.957-0.068,2.048,0.813,2.59l2.312,1.472l2.313,1.472c0.853,0.542,2.002,0.388,2.694-0.371l2.782-3.105
			c0.571-0.643,1.426-0.88,2.249-0.683c1.193,0.309,2.401,0.502,3.592,0.604c0.856,0.07,1.593,0.595,1.914,1.39l1.548,3.761
			C63.09,59.663,64.105,60.184,65.036,59.94z M51.076,24.225c3.645-5.574,11.112-7.153,16.687-3.509
			c5.573,3.644,7.154,11.111,3.51,16.686c-3.646,5.573-11.112,7.152-16.702,3.521C48.996,37.28,47.416,29.812,51.076,24.225z"/>
		<path fill="rgba(73,140,243,.15)" d="M39.397,85.317l0.987,1.292l0.984,1.292c0.362,0.475,1.034,0.61,1.574,0.329l2.183-1.175
			c0.458-0.246,0.995-0.188,1.413,0.087c0.563,0.399,1.179,0.732,1.799,1.035c0.456,0.224,0.764,0.661,0.784,1.165l0.08,2.447
			c0.021,0.605,0.482,1.109,1.088,1.189l1.616,0.216l1.616,0.219c0.577,0.078,1.171-0.297,1.352-0.876l0.716-2.354
			c0.149-0.479,0.551-0.837,1.049-0.931c0.724-0.138,1.409-0.324,2.102-0.568c0.465-0.173,1.009-0.07,1.374,0.272l1.817,1.671
			c0.441,0.412,1.13,0.429,1.605,0.067l1.293-0.986l1.294-0.985c0.474-0.361,0.608-1.034,0.328-1.572l-1.161-2.167
			c-0.235-0.442-0.178-0.979,0.099-1.396c0.419-0.606,0.769-1.234,1.093-1.896c0.212-0.471,0.662-0.763,1.164-0.783l2.446-0.079
			c0.604-0.023,1.108-0.482,1.189-1.091l0.219-1.614l0.217-1.617c0.037-0.596-0.314-1.157-0.892-1.337l-2.355-0.715
			c-0.479-0.151-0.838-0.552-0.932-1.051c-0.137-0.724-0.324-1.408-0.568-2.104c-0.171-0.462-0.069-1.007,0.273-1.372l1.67-1.816
			c0.411-0.442,0.429-1.131,0.069-1.605l-0.987-1.294l-0.985-1.294c-0.362-0.475-1.034-0.607-1.57-0.327l-2.169,1.161
			c-0.46,0.247-0.995,0.19-1.412-0.086c-0.605-0.421-1.261-0.772-1.953-1.103c-0.454-0.223-0.775-0.677-0.795-1.177l-0.103-2.408
			c-0.021-0.604-0.483-1.108-1.088-1.189l-1.616-0.218l-1.614-0.218c-0.577-0.077-1.172,0.297-1.351,0.876l-0.718,2.386
			c-0.154,0.478-0.554,0.835-1.051,0.931c-0.707,0.122-1.411,0.322-2.075,0.572c-0.493,0.167-1.023,0.082-1.4-0.279l-1.76-1.66
			c-0.444-0.411-1.131-0.432-1.605-0.07l-1.293,0.987l-1.294,0.985c-0.475,0.362-0.608,1.033-0.329,1.573l1.175,2.182
			c0.233,0.443,0.191,0.968-0.086,1.386c-0.388,0.607-0.765,1.233-1.062,1.898c-0.192,0.456-0.662,0.763-1.163,0.781l-2.419,0.085
			c-0.604,0.023-1.108,0.483-1.188,1.089l-0.219,1.617l-0.218,1.614c-0.076,0.578,0.298,1.171,0.875,1.351l2.387,0.719
			c0.477,0.152,0.835,0.553,0.928,1.05c0.14,0.724,0.338,1.427,0.586,2.092c0.186,0.479,0.083,1.023-0.259,1.389l-1.649,1.775
			C39.089,84.128,39.069,84.815,39.397,85.317z M47.083,74.822c0.574-3.932,4.214-6.658,8.145-6.083
			c3.932,0.573,6.659,4.214,6.085,8.146c-0.574,3.934-4.215,6.658-8.147,6.083C49.234,82.396,46.508,78.754,47.083,74.822z"/>
		<path fill="rgba(73,140,243,.15)" d="M15.63,88.973l0.804,0.784l0.807,0.783c0.296,0.29,0.763,0.322,1.102,0.091l1.383-1.005
			c0.263-0.197,0.633-0.222,0.951-0.077c0.444,0.206,0.889,0.385,1.338,0.533c0.34,0.104,0.597,0.374,0.654,0.72l0.288,1.669
			c0.088,0.422,0.43,0.732,0.858,0.719l1.13-0.012l1.133-0.009c0.412-0.001,0.776-0.307,0.847-0.723l0.252-1.667
			c0.047-0.349,0.306-0.623,0.63-0.739c0.477-0.154,0.943-0.358,1.385-0.592c0.304-0.181,0.683-0.156,0.963,0.041l1.384,0.964
			c0.364,0.241,0.826,0.202,1.115-0.098l0.783-0.804l0.784-0.806c0.292-0.3,0.324-0.764,0.093-1.105l-0.992-1.367
			c-0.213-0.276-0.236-0.648-0.079-0.95c0.236-0.438,0.416-0.912,0.57-1.391c0.105-0.341,0.374-0.596,0.719-0.653l1.67-0.29
			c0.422-0.087,0.734-0.429,0.716-0.856l-0.008-1.132l-0.009-1.133c-0.02-0.398-0.312-0.746-0.728-0.816l-1.669-0.253
			c-0.346-0.049-0.619-0.304-0.737-0.63c-0.157-0.478-0.359-0.943-0.592-1.386c-0.18-0.303-0.158-0.685,0.041-0.964l0.965-1.384
			c0.239-0.364,0.198-0.824-0.101-1.113l-0.803-0.786l-0.806-0.783c-0.298-0.289-0.764-0.323-1.103-0.09l-1.367,0.992
			c-0.292,0.193-0.678,0.231-0.979,0.074c-0.456-0.225-0.931-0.406-1.437-0.562c-0.326-0.089-0.595-0.374-0.652-0.72l-0.293-1.64
			c-0.09-0.424-0.43-0.734-0.858-0.718l-1.133,0.009l-1.131,0.009c-0.412,0.004-0.776,0.308-0.847,0.726l-0.271,1.68
			c-0.047,0.348-0.303,0.619-0.628,0.738c-0.463,0.173-0.916,0.362-1.358,0.596c-0.315,0.163-0.691,0.142-0.975-0.06l-1.354-0.959
			c-0.366-0.24-0.825-0.199-1.115,0.099l-0.784,0.806l-0.785,0.806c-0.288,0.298-0.323,0.763-0.088,1.104l1.004,1.382
			c0.211,0.279,0.235,0.65,0.076,0.951c-0.206,0.442-0.386,0.916-0.541,1.396c-0.105,0.34-0.373,0.597-0.719,0.653l-1.64,0.291
			c-0.423,0.091-0.733,0.432-0.718,0.858l0.009,1.133l0.009,1.13c0.003,0.414,0.308,0.776,0.725,0.847l1.681,0.272
			c0.345,0.046,0.621,0.305,0.738,0.627c0.172,0.465,0.361,0.915,0.593,1.358c0.166,0.314,0.143,0.696-0.056,0.978l-0.949,1.369
			C15.287,88.252,15.326,88.712,15.63,88.973z M19.856,81.142c0.002-2.746,2.237-4.942,4.966-4.925
			c2.746,0.001,4.941,2.235,4.927,4.965c-0.003,2.746-2.238,4.942-4.966,4.927C22.052,86.093,19.841,83.871,19.856,81.142z"/>
	</g>
</g>
</svg>
