<?xml version="1.0" encoding="utf-8"?>
<!-- Generator: Adobe Illustrator 16.0.0, SVG Export Plug-In . SVG Version: 6.00 Build 0)  -->
<!DOCTYPE svg PUBLIC "-//W3C//DTD SVG 1.1//EN" "http://www.w3.org/Graphics/SVG/1.1/DTD/svg11.dtd">
<svg version="1.1" id="图层_1" xmlns="http://www.w3.org/2000/svg" xmlns:xlink="http://www.w3.org/1999/xlink" x="0px" y="0px"
	 width="58.444px" height="58.413px" viewBox="0 0 58.444 58.413" enable-background="new 0 0 58.444 58.413" xml:space="preserve">
<path fill="#FFFFFF" d="M33.129,58.354l2.648-0.598l2.648-0.599c1-0.218,1.68-1.125,1.627-2.146l-0.23-4.173
	c-0.049-0.844,0.383-1.638,1.115-2.067c0.99-0.6,1.932-1.268,2.842-2.01c0.658-0.529,1.545-0.688,2.338-0.361l3.795,1.582
	c0.961,0.41,2.049,0.07,2.594-0.811l1.471-2.312l1.473-2.313c0.541-0.852,0.387-2.002-0.371-2.692l-3.068-2.734
	c-0.631-0.555-0.893-1.439-0.682-2.25c0.309-1.191,0.512-2.383,0.617-3.604c0.057-0.844,0.58-1.58,1.373-1.899l3.822-1.57
	c0.951-0.415,1.484-1.415,1.248-2.401l-0.598-2.649l-0.598-2.651c-0.219-0.998-1.123-1.678-2.145-1.625l-4.127,0.223
	c-0.846,0.049-1.637-0.383-2.066-1.115c-0.623-1.053-1.328-2.043-2.125-2.988c-0.545-0.646-0.689-1.518-0.363-2.31l1.584-3.796
	c0.406-0.958,0.07-2.047-0.812-2.591L44.826,4.42l-2.314-1.471c-0.857-0.484-1.98-0.327-2.652,0.419l-2.734,3.068
	c-0.555,0.63-1.443,0.893-2.25,0.681c-1.193-0.307-2.384-0.513-3.603-0.618c-0.846-0.055-1.581-0.581-1.901-1.371l-1.571-3.825
	c-0.414-0.951-1.414-1.483-2.4-1.248l-2.651,0.598l-2.649,0.598c-0.998,0.218-1.68,1.125-1.625,2.146l0.238,4.115
	c0.049,0.842-0.397,1.648-1.133,2.08c-1.081,0.617-2.104,1.346-3.07,2.186c-0.633,0.56-1.549,0.716-2.342,0.388L8.44,10.607
	c-0.959-0.41-2.046-0.07-2.591,0.811L4.377,13.73l-1.472,2.312c-0.541,0.852-0.387,2.004,0.372,2.693l3.105,2.783
	c0.644,0.57,0.88,1.425,0.681,2.25c-0.291,1.18-0.483,2.388-0.584,3.578c-0.072,0.856-0.612,1.606-1.404,1.926l-3.771,1.505
	c-0.951,0.413-1.483,1.413-1.249,2.399l0.597,2.65l0.597,2.65c0.234,0.985,1.141,1.666,2.162,1.613l4.174-0.23
	c0.842-0.049,1.625,0.365,2.055,1.098c0.625,1.025,1.33,2.016,2.125,2.96c0.545,0.646,0.705,1.534,0.377,2.328l-1.562,3.754
	c-0.406,0.957-0.068,2.048,0.812,2.591l2.312,1.471l2.312,1.473c0.854,0.542,2.002,0.388,2.695-0.371l2.781-3.105
	c0.571-0.643,1.426-0.879,2.249-0.683c1.192,0.31,2.401,0.502,3.593,0.604c0.855,0.07,1.592,0.595,1.913,1.39l1.548,3.761
	C31.182,58.076,32.198,58.598,33.129,58.354z M19.168,22.639c3.646-5.574,11.112-7.154,16.687-3.51
	c5.572,3.645,7.154,11.111,3.51,16.686c-3.646,5.574-11.111,7.152-16.702,3.521C17.088,35.693,15.508,28.225,19.168,22.639z"/>
</svg>
