<?xml version="1.0" encoding="utf-8"?>
<!-- Generator: Adobe Illustrator 16.0.0, SVG Export Plug-In . SVG Version: 6.00 Build 0)  -->
<!DOCTYPE svg PUBLIC "-//W3C//DTD SVG 1.1//EN" "http://www.w3.org/Graphics/SVG/1.1/DTD/svg11.dtd">
<svg version="1.1"  xmlns="http://www.w3.org/2000/svg" xmlns:xlink="http://www.w3.org/1999/xlink" x="0px" y="0px"
	 width="44.377px" height="54.623px" viewBox="0 0 44.377 54.623" enable-background="new 0 0 44.377 54.623" xml:space="preserve">
<path fill="rgba(73,140,243,.15)" d="M31.413,27.848l0.857-1.383l0.855-1.379c0.314-0.507,0.204-1.184-0.251-1.588L31,21.877
	c-0.395-0.342-0.529-0.864-0.421-1.352c0.171-0.668,0.266-1.362,0.327-2.049c0.047-0.505,0.346-0.948,0.81-1.147l2.258-0.946
	c0.559-0.236,0.865-0.845,0.724-1.44l-0.371-1.587l-0.371-1.588c-0.13-0.567-0.693-0.988-1.301-0.951l-2.452,0.168
	c-0.503,0.03-0.979-0.217-1.244-0.648c-0.386-0.628-0.805-1.202-1.28-1.763c-0.326-0.373-0.424-0.917-0.233-1.381L28.36,4.9
	c0.227-0.56-0.001-1.209-0.508-1.525L26.47,2.518l-1.382-0.858c-0.506-0.313-1.182-0.201-1.586,0.253L21.89,3.767
	c-0.33,0.378-0.851,0.515-1.34,0.405c-0.715-0.176-1.427-0.278-2.16-0.347c-0.515-0.031-0.949-0.347-1.146-0.81L16.3,0.759
	c-0.237-0.557-0.846-0.865-1.442-0.725L13.27,0.404l-1.587,0.373c-0.57,0.177-0.969,0.705-0.932,1.309l0.17,2.456
	c0.028,0.502-0.218,0.979-0.65,1.244C9.642,6.171,9.069,6.59,8.507,7.065C8.134,7.39,7.589,7.489,7.126,7.299L4.835,6.384
	C4.274,6.157,3.625,6.385,3.31,6.89L2.452,8.273L1.593,9.654c-0.315,0.508-0.2,1.183,0.252,1.584l1.857,1.614
	c0.395,0.342,0.532,0.863,0.422,1.351c-0.178,0.716-0.273,1.453-0.335,2.217c-0.046,0.503-0.357,0.965-0.817,1.162l-2.214,0.953
	c-0.557,0.235-0.864,0.846-0.725,1.44l0.371,1.588l0.371,1.586c0.134,0.567,0.695,0.99,1.3,0.95l2.484-0.178
	c0.502-0.025,0.978,0.221,1.244,0.651c0.365,0.617,0.804,1.204,1.273,1.736c0.332,0.401,0.441,0.927,0.237,1.408l-0.925,2.235
	c-0.227,0.562-0.001,1.211,0.505,1.526l1.383,0.856l1.382,0.859c0.507,0.314,1.182,0.2,1.586-0.252l1.621-1.876
	c0.332-0.374,0.836-0.522,1.325-0.411c0.707,0.146,1.425,0.275,2.153,0.317c0.494,0.017,0.948,0.346,1.144,0.808l0.939,2.232
	c0.237,0.556,0.846,0.862,1.441,0.722l1.589-0.371l1.585-0.37c0.567-0.136,0.989-0.695,0.952-1.298l-0.177-2.487
	c-0.027-0.5,0.22-0.977,0.65-1.24c0.627-0.39,1.214-0.824,1.747-1.292c0.383-0.345,0.927-0.442,1.39-0.252l2.247,0.911
	C30.41,28.56,31.06,28.333,31.413,27.848z M19.046,25.189c-4.315,0.959-8.592-1.747-9.549-6.062
	c-0.96-4.316,1.746-8.593,6.062-9.552c4.317-0.96,8.592,1.747,9.551,6.063C26.069,19.955,23.363,24.231,19.046,25.189z"/>
<path fill="rgba(73,140,243,.15)" d="M43.285,48.76l0.446-1.031l0.446-1.032c0.165-0.38,0.027-0.826-0.308-1.062l-1.433-0.935
	c-0.278-0.177-0.432-0.515-0.408-0.861c0.032-0.487,0.043-0.967,0.022-1.439c-0.024-0.355,0.135-0.691,0.438-0.868l1.459-0.863
	c0.363-0.232,0.531-0.661,0.367-1.057L43.9,38.56l-0.41-1.058c-0.147-0.385-0.564-0.616-0.978-0.535l-1.647,0.358
	c-0.343,0.081-0.69-0.064-0.915-0.326c-0.314-0.391-0.671-0.753-1.047-1.084c-0.276-0.22-0.388-0.582-0.304-0.915l0.41-1.636
	c0.094-0.426-0.106-0.843-0.49-1.007l-1.03-0.446l-1.031-0.446c-0.383-0.165-0.827-0.031-1.065,0.306l-0.924,1.413
	c-0.185,0.299-0.523,0.453-0.862,0.414c-0.49-0.065-0.999-0.065-1.501-0.038c-0.355,0.021-0.689-0.138-0.865-0.44l-0.866-1.457
	c-0.231-0.364-0.66-0.533-1.056-0.365l-1.055,0.41l-1.055,0.412c-0.365,0.159-0.586,0.557-0.504,0.969l0.358,1.651
	c0.077,0.341-0.064,0.688-0.327,0.912c-0.39,0.317-0.754,0.673-1.083,1.047c-0.219,0.276-0.584,0.392-0.917,0.306l-1.636-0.411
	c-0.426-0.094-0.84,0.108-1.004,0.491l-0.45,1.03l-0.445,1.032c-0.164,0.382-0.029,0.827,0.309,1.062l1.414,0.925
	c0.285,0.204,0.458,0.551,0.417,0.889c-0.048,0.507-0.049,1.015-0.015,1.544c0.034,0.335-0.137,0.688-0.439,0.863l-1.43,0.859
	c-0.363,0.233-0.532,0.663-0.365,1.057l0.411,1.056l0.411,1.053c0.149,0.385,0.563,0.616,0.979,0.534l1.667-0.345
	c0.342-0.08,0.686,0.063,0.913,0.324c0.327,0.372,0.665,0.728,1.04,1.058c0.266,0.236,0.379,0.595,0.292,0.932l-0.415,1.607
	c-0.094,0.428,0.107,0.842,0.488,1.007l1.034,0.446l1.03,0.448c0.382,0.162,0.829,0.029,1.062-0.312l0.936-1.432
	c0.188-0.295,0.524-0.449,0.862-0.407c0.486,0.033,0.993,0.034,1.496,0.009c0.354-0.023,0.691,0.135,0.866,0.438l0.856,1.431
	c0.233,0.364,0.664,0.531,1.057,0.366l1.056-0.413l1.053-0.409c0.386-0.15,0.615-0.564,0.533-0.978l-0.344-1.669
	c-0.08-0.339,0.065-0.688,0.324-0.912c0.374-0.327,0.727-0.663,1.058-1.038c0.235-0.267,0.601-0.382,0.934-0.297l1.618,0.4
	C42.733,49.337,43.149,49.138,43.285,48.76z M34.461,47.597c-2.567,0.976-5.414-0.333-6.368-2.89
	c-0.978-2.566,0.33-5.413,2.887-6.372c2.566-0.973,5.414,0.334,6.369,2.891C38.308,43.784,37.019,46.64,34.461,47.597z"/>
</svg>
