<?xml version="1.0" encoding="utf-8"?>
<!-- Generator: Adobe Illustrator 16.0.0, SVG Export Plug-In . SVG Version: 6.00 Build 0)  -->
<!DOCTYPE svg PUBLIC "-//W3C//DTD SVG 1.1//EN" "http://www.w3.org/Graphics/SVG/1.1/DTD/svg11.dtd">
<svg version="1.1" xmlns="http://www.w3.org/2000/svg" xmlns:xlink="http://www.w3.org/1999/xlink" x="0px" y="0px"
	 width="83.128px" height="83.131px" viewBox="0 0 83.128 83.131" enable-background="new 0 0 83.128 83.131" xml:space="preserve">
<g id="图层_1">
	<g id="Settings">
		<g>
			<path fill="#696B6D" d="M82.868,36.95c-0.132-1.168-1.494-2.047-2.673-2.047c-3.809,0-7.188-2.236-8.605-5.696
				c-1.448-3.542-0.515-7.674,2.324-10.278c0.894-0.817,1.002-2.184,0.253-3.134c-1.95-2.476-4.166-4.712-6.585-6.65
				c-0.948-0.76-2.338-0.655-3.159,0.255c-2.478,2.744-6.928,3.764-10.366,2.329c-3.579-1.506-5.835-5.132-5.614-9.024
				c0.072-1.223-0.822-2.286-2.041-2.428c-3.104-0.359-6.236-0.37-9.351-0.025c-1.205,0.133-2.099,1.171-2.058,2.378
				c0.136,3.854-2.148,7.417-5.691,8.868c-3.397,1.388-7.817,0.377-10.289-2.342c-0.818-0.896-2.185-1.006-3.137-0.264
				c-2.491,1.955-4.757,4.193-6.724,6.648c-0.767,0.954-0.654,2.338,0.248,3.159c2.893,2.62,3.827,6.787,2.324,10.371
				c-1.435,3.417-4.982,5.619-9.044,5.619c-1.318-0.042-2.257,0.842-2.401,2.04c-0.365,3.124-0.37,6.305-0.018,9.454
				c0.131,1.172,1.534,2.043,2.726,2.043c3.62-0.092,7.095,2.148,8.552,5.696c1.453,3.543,0.519,7.672-2.324,10.278
				c-0.89,0.817-1.002,2.183-0.253,3.132c1.931,2.46,4.147,4.698,6.575,6.652c0.953,0.769,2.338,0.659,3.164-0.25
				c2.487-2.75,6.937-3.769,10.362-2.331c3.588,1.501,5.844,5.127,5.624,9.021c-0.072,1.224,0.826,2.288,2.04,2.428
				c1.588,0.186,3.187,0.278,4.788,0.278c1.521,0,3.042-0.084,4.562-0.254c1.207-0.132,2.1-1.171,2.06-2.38
				c-0.14-3.852,2.147-7.414,5.686-8.863c3.421-1.397,7.821-0.375,10.294,2.342c0.822,0.894,2.181,1.002,3.138,0.262
				c2.486-1.949,4.747-4.186,6.725-6.647c0.766-0.952,0.659-2.338-0.249-3.159c-2.894-2.62-3.832-6.788-2.329-10.369
				c1.414-3.371,4.83-5.635,8.504-5.635l0.514,0.014c1.191,0.097,2.289-0.821,2.433-2.039C83.216,43.276,83.221,40.098,82.868,36.95
				z M41.63,55.518c-7.646,0-13.864-6.219-13.864-13.865c0-7.645,6.219-13.864,13.864-13.864c7.645,0,13.863,6.219,13.863,13.864
				C55.493,49.299,49.275,55.518,41.63,55.518z"/>
		</g>
	</g>
</g>
<g id="图层_2" display="none">
	<g transform="matrix(1.25 0 0 -1.25 0 45)" display="inline">
		<g>
			<g>
				<path fill="#696B6D" d="M147.328-1.468L121.777,36.18c-2.213,3.262-5.74,3.195-7.841-0.136L90.388-1.33
					c-2.099-3.335-0.666-6.062,3.188-6.062h6.902v-12.996c0-4.067,3.302-7.37,7.371-7.37h22.114c4.076,0,7.371,3.303,7.371,7.37
					v12.996h7C148.191-7.391,149.545-4.73,147.328-1.468"/>
				<path display="none" fill="#696B6D" d="M97.662-3.995h-3.405c-1.5,0-2.124,1.096-2.124,2.155c0,1.091,0.782,2.154,2.124,2.154
					h11.491c1.345,0,2.125-1.062,2.125-2.154c0-1.059-0.624-2.155-2.125-2.155h-3.403V-19.67c0-1.562-0.999-2.436-2.341-2.436
					c-1.343,0-2.341,0.873-2.341,2.436V-3.995z"/>
				<path display="none" fill="#696B6D" d="M124.643-10.802c0,3.778-1.966,7.183-5.87,7.183c-3.905,0-5.872-3.405-5.872-7.183
					c0-3.809,1.905-7.181,5.872-7.181C122.739-17.983,124.643-14.611,124.643-10.802 M108.03-10.802
					c0,6.494,4.371,11.492,10.743,11.492c6.274,0,10.741-5.155,10.741-11.492c0-6.462-4.34-11.493-10.741-11.493
					C112.434-22.295,108.03-17.264,108.03-10.802"/>
				<path display="none" fill="#696B6D" d="M136.155-10.427h3.186c1.966,0,3.213,1.437,3.213,3.309c0,1.875-1.247,3.312-3.213,3.312
					h-3.186V-10.427z M131.469-2.122c0,1.47,0.876,2.434,2.439,2.434h5.523c4.592,0,7.995-2.995,7.995-7.461
					c0-4.558-3.527-7.401-7.805-7.401h-3.466v-5.121c0-1.562-0.998-2.437-2.34-2.437c-1.346,0-2.346,0.875-2.346,2.437V-2.122z"/>
			</g>
		</g>
	</g>
</g>
</svg>
