<?xml version="1.0" encoding="utf-8"?>
<!-- Generator: Adobe Illustrator 16.0.0, SVG Export Plug-In . SVG Version: 6.00 Build 0)  -->
<!DOCTYPE svg PUBLIC "-//W3C//DTD SVG 1.1//EN" "http://www.w3.org/Graphics/SVG/1.1/DTD/svg11.dtd">
<svg version="1.1" id="Capa_1" xmlns="http://www.w3.org/2000/svg" xmlns:xlink="http://www.w3.org/1999/xlink" x="0px" y="0px"
	 width="100px" height="100px" viewBox="0 0 100 100" enable-background="new 0 0 100 100" xml:space="preserve">
<g>
	<g>
		<path fill="#FFFFFF" d="M50,35.352c-6.463,0-11.719,5.256-11.719,11.719S43.537,58.789,50,58.789s11.719-5.256,11.719-11.719
			S56.463,35.352,50,35.352z"/>
	</g>
</g>
<g>
	<g>
		<path fill="#FFFFFF" d="M97.551,41.251l-7.783-1.265c-0.975-3.885-2.509-7.576-4.571-11.018l4.475-6.269
			c0.833-1.165,0.701-2.761-0.312-3.774l-8.286-8.286c-1.019-1.016-2.612-1.15-3.773-0.312l-6.269,4.475
			c-3.441-2.063-7.133-3.597-11.018-4.572l-1.265-7.783C58.515,1.036,57.293,0,55.859,0H44.141c-1.434,0-2.655,1.036-2.89,2.449
			l-1.265,7.783c-3.885,0.976-7.576,2.509-11.018,4.572L22.7,10.329c-1.165-0.838-2.764-0.704-3.774,0.312l-8.286,8.285
			c-1.013,1.013-1.144,2.609-0.312,3.774l4.475,6.269c-2.063,3.441-3.597,7.132-4.572,11.018l-7.783,1.265
			C1.036,41.485,0,42.707,0,44.141v11.719c0,1.434,1.036,2.655,2.449,2.89l7.783,1.265c0.976,3.885,2.509,7.576,4.572,11.018
			L10.329,77.3c-0.833,1.165-0.701,2.761,0.312,3.774l8.286,8.285c1.01,1.01,2.609,1.139,3.773,0.312l6.269-4.475
			c3.442,2.063,7.133,3.597,11.018,4.572l1.265,7.782c0.234,1.414,1.456,2.449,2.89,2.449h11.719c1.434,0,2.655-1.035,2.89-2.449
			l1.265-7.783c3.885-0.975,7.576-2.509,11.018-4.571l6.269,4.475c1.161,0.827,2.755,0.698,3.774-0.312l8.285-8.286
			c1.013-1.013,1.145-2.608,0.312-3.773l-4.475-6.269c2.063-3.441,3.597-7.133,4.572-11.018l7.782-1.265
			c1.414-0.234,2.449-1.456,2.449-2.89V44.141C100,42.707,98.965,41.485,97.551,41.251z M50,82.227
			C32.23,82.227,17.773,67.77,17.773,50S32.23,17.773,50,17.773S82.227,32.23,82.227,50S67.77,82.227,50,82.227z"/>
	</g>
</g>
<g>
	<g>
		<path fill="#FFFFFF" d="M63.533,58.15c-3.227,3.933-8.061,6.498-13.533,6.498c-5.472,0-10.307-2.565-13.533-6.498
			c-2.809,2.489-4.857,5.752-5.987,9.414c4.83,5.363,11.752,8.803,19.521,8.803s14.69-3.439,19.521-8.803
			C68.391,63.902,66.342,60.64,63.533,58.15z"/>
	</g>
</g>
</svg>
