<?xml version="1.0" encoding="utf-8"?>
<!-- Generator: Adobe Illustrator 16.0.0, SVG Export Plug-In . SVG Version: 6.00 Build 0)  -->
<!DOCTYPE svg PUBLIC "-//W3C//DTD SVG 1.1//EN" "http://www.w3.org/Graphics/SVG/1.1/DTD/svg11.dtd">
<svg version="1.1" id="图层_1" xmlns="http://www.w3.org/2000/svg" xmlns:xlink="http://www.w3.org/1999/xlink" x="0px" y="0px"
	 width="19px" height="20.382px" viewBox="0.5 -0.192 19 20.382" enable-background="new 0.5 -0.192 19 20.382"
	 xml:space="preserve">
<path fill="none" stroke="#009CF5" stroke-miterlimit="10" d="M10.908,0.308H9.092c-0.668,0-1.21,0.543-1.21,1.211v1.527
	C6.824,3.37,5.854,3.931,5.046,4.688L3.724,3.922C3.445,3.761,3.115,3.718,2.805,3.801S2.23,4.087,2.07,4.366L1.163,5.941
	c-0.161,0.279-0.205,0.61-0.121,0.92s0.286,0.575,0.564,0.736L2.927,8.36c-0.251,1.079-0.251,2.202,0,3.281l-1.321,0.763
	c-0.278,0.161-0.481,0.427-0.564,0.736c-0.083,0.312-0.04,0.642,0.121,0.92l0.907,1.573c0.161,0.277,0.425,0.482,0.735,0.564
	c0.311,0.084,0.641,0.039,0.919-0.121l1.323-0.765c0.808,0.756,1.778,1.315,2.836,1.642v1.526c0,0.668,0.542,1.21,1.21,1.21h1.816
	c0.668,0,1.209-0.542,1.209-1.21v-1.526c1.059-0.324,2.026-0.886,2.836-1.642l1.323,0.765c0.277,0.16,0.608,0.205,0.918,0.121
	c0.312-0.082,0.574-0.287,0.734-0.564l0.908-1.573c0.16-0.278,0.204-0.608,0.121-0.92c-0.084-0.31-0.287-0.575-0.564-0.736
	l-1.32-0.763c0.25-1.079,0.25-2.202,0-3.281l1.32-0.763c0.277-0.161,0.48-0.425,0.564-0.736c0.083-0.311,0.039-0.642-0.121-0.92
	L17.93,4.369c-0.16-0.279-0.424-0.482-0.734-0.565c-0.31-0.083-0.641-0.04-0.918,0.121L14.954,4.69
	c-0.81-0.757-1.777-1.319-2.836-1.644V1.519C12.117,0.851,11.576,0.308,10.908,0.308z M12.77,10c0,1.529-1.24,2.77-2.77,2.77
	c-1.53,0-2.769-1.24-2.769-2.77S8.47,7.231,10,7.231c0.734,0,1.438,0.292,1.958,0.811S12.77,9.266,12.77,10z"/>
</svg>
