<?xml version="1.0" encoding="utf-8"?>
<!-- Generator: Adobe Illustrator 16.0.0, SVG Export Plug-In . SVG Version: 6.00 Build 0)  -->
<!DOCTYPE svg PUBLIC "-//W3C//DTD SVG 1.1//EN" "http://www.w3.org/Graphics/SVG/1.1/DTD/svg11.dtd">
<svg version="1.1" xmlns="http://www.w3.org/2000/svg" xmlns:xlink="http://www.w3.org/1999/xlink" x="0px" y="0px" width="10px"
	 height="2px" viewBox="0 0 10 2" enable-background="new 0 0 10 2" xml:space="preserve">
<g id="图层_2" display="none">
	<polygon display="inline" fill="#FFFFFF" stroke="#DCF7FF" stroke-miterlimit="10" points="-102.364,-6.365 -96.449,5.62 
		-83.223,7.542 -92.794,16.871 -90.534,30.044 -102.364,23.826 -114.194,30.044 -111.935,16.871 -121.506,7.542 -108.279,5.62 	"/>
</g>
<g id="图层_3" display="none">
	<polygon display="inline" fill="#AAABAE" points="-67.148,-7.495 -64.367,-1.86 -58.148,-0.956 -62.648,3.43 -61.585,9.625 
		-67.148,6.7 -72.712,9.625 -71.648,3.43 -76.148,-0.956 -69.93,-1.86 	"/>
</g>
<g id="图层_6" display="none">
	<polyline display="inline" fill="#AAABAE" stroke="#AAABAE" stroke-width="3" stroke-miterlimit="10" points="-75.47,38.455 
		-78.411,39.802 -78.411,45.43 -75.442,46.718 	"/>
	<polyline display="inline" fill="#AAABAE" stroke="#AAABAE" stroke-width="3" stroke-miterlimit="10" points="-74.199,46.684 
		-71.283,45.347 -71.283,39.767 -74.227,38.492 	"/>
	<polyline display="inline" fill="#AAABAE" stroke="#AAABAE" stroke-width="3" stroke-miterlimit="10" points="-93.073,52.236 
		-96.837,53.959 -96.837,61.159 -93.037,62.808 	"/>
	<polyline display="inline" fill="#AAABAE" stroke="#AAABAE" stroke-width="3" stroke-miterlimit="10" points="-91.449,62.762 
		-87.719,61.053 -87.719,53.915 -91.484,52.281 	"/>
	<polyline display="inline" fill="#AAABAE" stroke="#AAABAE" stroke-width="3" stroke-miterlimit="10" points="-72.96,61.753 
		-75.901,63.103 -75.901,68.729 -72.932,70.017 	"/>
	<polyline display="inline" fill="#AAABAE" stroke="#AAABAE" stroke-width="3" stroke-miterlimit="10" points="-71.688,69.983 
		-68.773,68.646 -68.773,63.067 -71.719,61.789 	"/>
	<path display="inline" fill="none" stroke="#AAABAE" stroke-width="3" stroke-miterlimit="10" d="M-86.934,57.523
		c5.582-0.033,2.75-14.945,7.762-14.938"/>
	<path display="inline" fill="none" stroke="#AAABAE" stroke-width="3" stroke-miterlimit="10" d="M-86.934,57.607
		c6.735-0.021,4.426,8.349,10.775,8.363"/>
</g>
<g id="图层_5" display="none">
	<path display="inline" fill="#AAABAE" d="M-105.58,52.069c0,1.044-0.846,1.889-1.889,1.889h-13.222
		c-1.043,0-1.889-0.845-1.889-1.889V38.847c0-1.044,0.846-1.889,1.889-1.889h13.222c1.043,0,1.889,0.845,1.889,1.889V52.069z"/>
	
		<polyline display="inline" fill="none" stroke="#2F3136" stroke-width="3" stroke-linecap="round" stroke-linejoin="round" stroke-miterlimit="10" points="
		-118.759,45.504 -114.686,48.658 -108.919,41.094 	"/>
</g>
<g id="图层_4" display="none">
	<circle display="inline" fill="#AAABAE" cx="-44.206" cy="2.559" r="7.943"/>
	<circle fill="none" stroke="#2452C6" stroke-miterlimit="10" cx="40.751" cy="-14.29" r="17.3"/>
	<path display="inline" fill="#2F3136" stroke="#D7D9DD" stroke-miterlimit="10" d="M-44.206,2.559l1.419-9.486
		c4.029,0.599,6.845,3.448,7.881,6.766L-44.206,2.559z"/>
</g>
<g id="图层_7" display="none">
	<path display="inline" fill="#AAABAE" d="M-14.914,0.661c0,0.5-0.405,0.905-0.905,0.905h-7.189c-0.5,0-0.905-0.405-0.905-0.905l0,0
		c0-0.5,0.405-0.905,0.905-0.905h7.189C-15.319-0.244-14.914,0.161-14.914,0.661L-14.914,0.661z"/>
	<path display="inline" fill="#AAABAE" d="M-19.415-3.839c0.5,0,0.905,0.405,0.905,0.905v7.189c0,0.5-0.405,0.905-0.905,0.905l0,0
		c-0.5,0-0.904-0.405-0.904-0.905v-7.189C-20.319-3.434-19.915-3.839-19.415-3.839L-19.415-3.839z"/>
</g>
<g id="图层_8">
	<path fill="#AAABAE" d="M10,1c0,0.552-0.447,1-1,1H1C0.447,2,0,1.552,0,1l0,0c0-0.552,0.447-1,1-1h8C9.553,0,10,0.448,10,1L10,1z"
		/>
</g>
</svg>
