<?xml version="1.0" encoding="utf-8"?>
<!-- Generator: Adobe Illustrator 16.0.0, SVG Export Plug-In . SVG Version: 6.00 Build 0)  -->
<!DOCTYPE svg PUBLIC "-//W3C//DTD SVG 1.1//EN" "http://www.w3.org/Graphics/SVG/1.1/DTD/svg11.dtd">
<svg version="1.1" xmlns="http://www.w3.org/2000/svg" xmlns:xlink="http://www.w3.org/1999/xlink" x="0px" y="0px" width="1366px"
	 height="850px" viewBox="0 0 1366 850" enable-background="new 0 0 1366 850" xml:space="preserve">
<g id="图层_1" display="none">
	
		<image display="inline" overflow="visible" width="1440" height="900" xlink:href="../../../../../../../Desktop/屏幕快照 2017-07-25 08.57.16.png"  transform="matrix(1 0 0 1 -41.75 -43.917)">
	</image>
</g>
<g id="ellipse1">
	
		<ellipse transform="matrix(0.9908 0.1352 -0.1352 0.9908 78.6605 -153.0309)" fill="none" stroke="#263955" stroke-miterlimit="10" cx="1166.197" cy="502.713" rx="115.703" ry="36.462"/>
</g>
<g id="ellipse2">
	<path fill="none" stroke="#263955" stroke-miterlimit="10" d="M1287.192,521.732c-6.663,32.411-83.669,43.961-171.999,25.796
		c-88.326-18.168-154.527-59.17-147.859-91.583c6.661-32.412,83.673-43.962,172.002-25.796
		C1227.662,448.318,1293.86,489.316,1287.192,521.732z"/>
</g>
<g id="ellipse3">
	<path fill="none" stroke="#263955" stroke-miterlimit="10" d="M1291.756,528.94c-22.298,59.648-147.273,68.036-279.146,18.729
		c-131.863-49.312-220.683-137.638-198.378-197.29c22.298-59.652,147.284-68.038,279.154-18.731
		C1225.248,380.961,1314.065,469.28,1291.756,528.94z"/>
</g>
<g id="ellipse4">
	<path fill="none" stroke="#263955" stroke-miterlimit="10" d="M1298.572,528.692c-33.375,95.049-225.314,114.197-428.722,42.764
		c-203.39-71.438-341.217-206.403-307.831-301.458c33.371-95.051,225.332-114.199,428.731-42.763
		C1194.141,298.678,1331.961,433.63,1298.572,528.692z"/>
</g>
<g id="ellipse5">
	<path fill="none" stroke="#263955" stroke-miterlimit="10" d="M1307.508,523.575c-41.151,134.454-301.205,174.06-580.866,88.457
		c-279.639-85.609-472.977-264.01-431.813-398.472c41.145-134.457,301.227-174.063,580.88-88.459
		C1155.346,210.72,1348.677,389.102,1307.508,523.575z"/>
</g>
<g id="ellipse6">
	<path fill="none" stroke="#263955" stroke-miterlimit="10" d="M1312.076,539.644c-67.978,186.852-410.812,233.64-765.766,104.5
		C191.386,514.99-41.236,258.807,26.759,71.941c67.973-186.858,410.845-233.65,765.788-104.502
		C1147.469,96.604,1380.082,352.759,1312.076,539.644z"/>
</g>
<g id="sun3">
	<circle fill="#A31310" stroke="#00040C" stroke-miterlimit="10" cx="1254.34" cy="515.905" r="24"/>
</g>
<g id="sun2">
	<circle fill="#C02026" cx="1254.34" cy="515.285" r="19"/>
</g>
<g id="sun1">
	<circle fill="#D62E34" cx="1254.34" cy="515.285" r="13"/>
</g>
<g id="planet1">
	<circle fill="#8A9AB2" stroke="#0F1E34" stroke-miterlimit="10" cx="1064.332" cy="472.666" r="6"/>
</g>
<g id="planet2">
	<circle fill="#8A9AB2" stroke="#0F1E34" stroke-miterlimit="10" cx="1180.801" cy="440.499" r="7.5"/>
</g>
<g id="planet3">
	<circle fill="#8A9AB2" stroke="#0F1E34" stroke-miterlimit="10" cx="1022.805" cy="310.476" r="9.5"/>
</g>
<g id="planet4">
	<circle fill="#8A9AB2" stroke="#0F1E34" stroke-miterlimit="10" cx="1206.91" cy="599.099" r="13"/>
</g>
<g id="planet5">
	<circle fill="#8A9AB2" stroke="#0F1E34" stroke-miterlimit="10" cx="833.133" cy="711.718" r="8.5"/>
</g>
</svg>
