<?xml version="1.0" encoding="utf-8"?>
<!-- Generator: Adobe Illustrator 16.0.0, SVG Export Plug-In . SVG Version: 6.00 Build 0)  -->
<!DOCTYPE svg PUBLIC "-//W3C//DTD SVG 1.1//EN" "http://www.w3.org/Graphics/SVG/1.1/DTD/svg11.dtd">
<svg version="1.1" xmlns="http://www.w3.org/2000/svg" xmlns:xlink="http://www.w3.org/1999/xlink" x="0px" y="0px"
	 width="75.797px" height="72.719px" viewBox="0 0 75.797 72.719" enable-background="new 0 0 75.797 72.719" xml:space="preserve">
<path fill="#72767D" d="M57.304,72.719c-1.046,0-2.095-0.261-3.031-0.754l-16.328-8.584l-16.421,8.584
	c-0.938,0.493-1.986,0.754-3.033,0.754c-1.373,0-2.693-0.432-3.815-1.248c-2.017-1.465-3.008-3.902-2.586-6.358l3.118-18.182
	L1.969,33.965c-1.785-1.74-2.417-4.294-1.646-6.665c0.772-2.372,2.784-4.067,5.25-4.425l18.256-2.652l8.24-16.599
	C33.171,1.389,35.404,0,37.898,0s4.728,1.389,5.831,3.625l8.165,16.543l18.331,2.708c2.467,0.357,4.479,2.053,5.25,4.424
	c0.77,2.372,0.14,4.926-1.645,6.666L60.619,46.841l3.089,18.271c0.422,2.456-0.569,4.893-2.586,6.358
	C60,72.288,58.679,72.719,57.304,72.719z M29.93,23.43c-0.922,1.869-2.705,3.164-4.767,3.463l-17.685,2.57l-0.061,0.089
	l12.821,12.499c1.492,1.457,2.172,3.552,1.82,5.604L19.036,65.27l0.066,0.083l15.849-8.331c0.91-0.476,1.928-0.726,2.946-0.726
	c1.021,0,2.039,0.25,2.946,0.724l15.823,8.321l0.098-0.036l-3.023-17.65c-0.354-2.052,0.327-4.147,1.82-5.604l12.798-12.475
	l-0.005-0.106l-17.72-2.577c-2.06-0.299-3.842-1.594-4.765-3.462l-7.91-16.028l-0.103-0.029L29.93,23.43z"/>
</svg>
