<?xml version="1.0" encoding="utf-8"?>
<!-- Generator: Adobe Illustrator 16.0.0, SVG Export Plug-In . SVG Version: 6.00 Build 0)  -->
<!DOCTYPE svg PUBLIC "-//W3C//DTD SVG 1.1//EN" "http://www.w3.org/Graphics/SVG/1.1/DTD/svg11.dtd">
<svg version="1.1" xmlns="http://www.w3.org/2000/svg" xmlns:xlink="http://www.w3.org/1999/xlink" x="0px" y="0px" width="16px"
	 height="15.353px" viewBox="0 0 16 15.353" enable-background="new 0 0 16 15.353" xml:space="preserve">
<g id="stretch-icon">
	<g>
		<g>
			<path fill="#91969B" d="M0,7.677L16,0l-4.923,7.677L16,15.353L0,7.677z"/>
		</g>
	</g>
</g>
<g id="test-icon-3-2">
	
		<line fill="none" stroke="#ECECEC" stroke-width="1.5" stroke-linecap="round" stroke-miterlimit="10" x1="91.073" y1="-15.377" x2="95.025" y2="-15.377"/>
	
		<polyline fill="none" stroke="#ECECEC" stroke-width="1.5" stroke-linecap="round" stroke-linejoin="round" stroke-miterlimit="10" points="
		83.983,-11.154 80.754,-12.633 80.754,-18.809 84.015,-20.223 	"/>
	
		<line fill="none" stroke="#ECECEC" stroke-width="1.5" stroke-linecap="round" stroke-miterlimit="10" x1="80.167" y1="-15.375" x2="76.215" y2="-15.375"/>
	
		<polyline fill="none" stroke="#ECECEC" stroke-width="1.5" stroke-linecap="round" stroke-linejoin="round" stroke-miterlimit="10" points="
		87.834,-11.154 91.064,-12.633 91.064,-18.809 87.804,-20.223 	"/>
</g>
<g id="test-icon-3">
	
		<line fill="none" stroke="#AAABAE" stroke-linecap="round" stroke-miterlimit="10" x1="66.447" y1="-16.758" x2="70.399" y2="-16.758"/>
	<polyline fill="none" stroke="#AAABAE" stroke-linecap="round" stroke-linejoin="round" stroke-miterlimit="10" points="
		59.357,-12.535 56.128,-14.014 56.128,-20.188 59.389,-21.603 	"/>
	
		<line fill="none" stroke="#AAABAE" stroke-linecap="round" stroke-miterlimit="10" x1="55.541" y1="-16.756" x2="51.589" y2="-16.756"/>
	<polyline fill="none" stroke="#AAABAE" stroke-linecap="round" stroke-linejoin="round" stroke-miterlimit="10" points="
		63.208,-12.535 66.438,-14.014 66.438,-20.188 63.178,-21.603 	"/>
</g>
<g id="test-icon-2">
	<g display="none">
		<g display="inline">
			<g id="Chart_1_">
				<g>
					<path fill="#91969B" d="M27.656-9.356v-17.43h-2.49v18.675c0,0.687,0.557,1.245,1.245,1.245h18.674v-2.49H27.656z
						 M30.769-11.847h1.245c0.344,0,0.623-0.278,0.623-0.622v-6.225c0-0.344-0.278-0.623-0.623-0.623h-1.245
						c-0.344,0-0.623,0.279-0.623,0.623v6.225C30.146-12.125,30.424-11.847,30.769-11.847z M34.503-11.847h1.245
						c0.344,0,0.623-0.278,0.623-0.622v-11.205c0-0.343-0.278-0.622-0.623-0.622h-1.245c-0.344,0-0.623,0.279-0.623,0.622v11.205
						C33.881-12.125,34.159-11.847,34.503-11.847z M38.238-11.847h1.245c0.344,0,0.623-0.278,0.623-0.622v-3.735
						c0-0.344-0.279-0.622-0.623-0.622h-1.245c-0.344,0-0.623,0.278-0.623,0.622v3.735C37.616-12.125,37.894-11.847,38.238-11.847z
						 M41.973-11.847h1.245c0.344,0,0.623-0.278,0.623-0.622v-8.715c0-0.344-0.278-0.622-0.623-0.622h-1.245
						c-0.344,0-0.623,0.278-0.623,0.622v8.715C41.351-12.125,41.629-11.847,41.973-11.847z"/>
				</g>
			</g>
		</g>
	</g>
	<g>
		<g>
			<g id="Chart">
				<g>
					<path fill="#AAABAE" d="M29.408-10.358h0.825c0.229,0,0.414-0.274,0.414-0.611v-6.118c0-0.338-0.185-0.612-0.414-0.612h-0.825
						c-0.229,0-0.414,0.274-0.414,0.612v6.118C28.994-10.633,29.179-10.358,29.408-10.358z"/>
				</g>
			</g>
		</g>
	</g>
	<polyline fill="none" stroke="#AAABAE" stroke-linecap="round" stroke-linejoin="round" stroke-miterlimit="10" points="
		44.635,-7.58 25.677,-7.58 25.677,-25.072 	"/>
	<g>
		<g>
			<g id="Chart_2_">
				<g>
					<path fill="#AAABAE" d="M33.105-10.358h0.825c0.228,0,0.414-0.274,0.414-0.612v-11.013c0-0.337-0.186-0.611-0.414-0.611h-0.825
						c-0.229,0-0.414,0.274-0.414,0.611v11.013C32.691-10.633,32.876-10.358,33.105-10.358z"/>
				</g>
			</g>
		</g>
	</g>
	<g>
		<g>
			<g id="Chart_3_">
				<g>
					<path fill="#AAABAE" d="M36.908-10.339h0.824c0.229,0,0.414-0.183,0.414-0.408v-4.096c0-0.225-0.186-0.41-0.414-0.41h-0.824
						c-0.229,0-0.414,0.186-0.414,0.41v4.096C36.494-10.521,36.68-10.339,36.908-10.339z"/>
				</g>
			</g>
		</g>
	</g>
	<g>
		<g>
			<g id="Chart_4_">
				<g>
					<path fill="#AAABAE" d="M40.668-10.358h0.824c0.229,0,0.414-0.221,0.414-0.492v-8.846c0-0.271-0.186-0.491-0.414-0.491h-0.824
						c-0.229,0-0.414,0.221-0.414,0.491v8.846C40.254-10.579,40.438-10.358,40.668-10.358z"/>
				</g>
			</g>
		</g>
	</g>
</g>
<g id="test-icon-1">
	<path fill="#AAABAE" stroke="#AAABAE" stroke-miterlimit="10" d="M2.34-22.288c0,0.6-0.486,1.086-1.087,1.086h-0.61
		c-0.601,0-1.088-0.486-1.088-1.086V-22.9c0-0.601,0.487-1.087,1.088-1.087h0.61c0.601,0,1.087,0.486,1.087,1.087V-22.288z"/>
	<path fill="#AAABAE" stroke="#AAABAE" stroke-miterlimit="10" d="M2.34-16.869c0,0.601-0.486,1.087-1.087,1.087h-0.61
		c-0.601,0-1.088-0.486-1.088-1.087v-0.611c0-0.601,0.487-1.087,1.088-1.087h0.61c0.601,0,1.087,0.486,1.087,1.087V-16.869z"/>
	<path fill="#AAABAE" stroke="#AAABAE" stroke-miterlimit="10" d="M2.34-11.388c0,0.601-0.486,1.087-1.087,1.087h-0.61
		c-0.601,0-1.088-0.486-1.088-1.087v-0.611c0-0.601,0.487-1.087,1.088-1.087h0.61c0.601,0,1.087,0.486,1.087,1.087V-11.388z"/>
	<rect x="4.95" y="-23.344" fill="#AAABAE" width="14.131" height="1.5"/>
	<rect x="4.95" y="-17.925" fill="#AAABAE" width="14.131" height="1.5"/>
	<rect x="4.95" y="-12.443" fill="#AAABAE" width="14.131" height="1.5"/>
</g>
<g id="circle">
	<path fill="#AAABAE" d="M88.994-56.197c0,6.074-4.925,11-11,11s-11-4.926-11-11c0-6.075,4.925-11,11-11
		S88.994-62.272,88.994-56.197z M77.994-63.697c-4.143,0-7.5,3.357-7.5,7.5c0,4.143,3.357,7.5,7.5,7.5s7.5-3.357,7.5-7.5
		C85.494-60.339,82.137-63.697,77.994-63.697z"/>
</g>
<g id="minus">
	<path fill="#AAABAE" d="M60.994-66.197c0,0.553-0.447,1-1,1h-8c-0.553,0-1-0.447-1-1l0,0c0-0.553,0.447-1,1-1h8
		C60.547-67.197,60.994-66.75,60.994-66.197L60.994-66.197z"/>
</g>
<g id="plus">
	<path fill="#AAABAE" d="M44.994-62.697c0,0.5-0.405,0.904-0.905,0.904h-7.189c-0.5,0-0.905-0.404-0.905-0.904l0,0
		c0-0.5,0.405-0.905,0.905-0.905h7.189C44.589-63.602,44.994-63.197,44.994-62.697L44.994-62.697z"/>
	<path fill="#AAABAE" d="M40.493-67.197c0.5,0,0.905,0.405,0.905,0.905v7.189c0,0.5-0.405,0.905-0.905,0.905l0,0
		c-0.5,0-0.904-0.405-0.904-0.905v-7.189C39.589-66.792,39.993-67.197,40.493-67.197L40.493-67.197z"/>
</g>
<g id="topo">
	<polyline fill="#AAABAE" stroke="#AAABAE" stroke-width="3" stroke-miterlimit="10" points="21.799,-65.833 18.857,-64.486 
		18.857,-58.858 21.826,-57.57 	"/>
	<polyline fill="#AAABAE" stroke="#AAABAE" stroke-width="3" stroke-miterlimit="10" points="23.068,-57.604 25.984,-58.941 
		25.984,-64.521 23.041,-65.796 	"/>
	<polyline fill="#AAABAE" stroke="#AAABAE" stroke-width="3" stroke-miterlimit="10" points="4.195,-52.053 0.432,-50.328 
		0.432,-43.129 4.23,-41.48 	"/>
	<polyline fill="#AAABAE" stroke="#AAABAE" stroke-width="3" stroke-miterlimit="10" points="5.818,-41.525 9.549,-43.234 
		9.549,-50.373 5.783,-52.008 	"/>
	<polyline fill="#AAABAE" stroke="#AAABAE" stroke-width="3" stroke-miterlimit="10" points="24.309,-42.535 21.367,-41.186 
		21.367,-35.559 24.336,-34.271 	"/>
	<polyline fill="#AAABAE" stroke="#AAABAE" stroke-width="3" stroke-miterlimit="10" points="25.58,-34.305 28.494,-35.643 
		28.494,-41.221 25.549,-42.5 	"/>
	<path fill="none" stroke="#AAABAE" stroke-width="3" stroke-miterlimit="10" d="M10.334-46.766
		c5.582-0.033,2.75-14.945,7.762-14.937"/>
	<path fill="none" stroke="#AAABAE" stroke-width="3" stroke-miterlimit="10" d="M10.334-46.682
		c6.736-0.021,4.426,8.35,10.775,8.363"/>
</g>
<g id="check-box">
	<path fill="#AAABAE" d="M89.95-77.249c0,1.044-0.846,1.889-1.889,1.889H74.84c-1.044,0-1.89-0.845-1.89-1.889v-13.222
		c0-1.044,0.846-1.889,1.89-1.889h13.222c1.043,0,1.889,0.845,1.889,1.889V-77.249z"/>
	
		<polyline fill="none" stroke="#2F3136" stroke-width="3" stroke-linecap="round" stroke-linejoin="round" stroke-miterlimit="10" points="
		76.772,-83.813 80.845,-80.66 86.612,-88.224 	"/>
</g>
<g id="chart-pie">
	<circle fill="#AAABAE" cx="57.023" cy="-82.305" r="7.943"/>
	<circle display="none" fill="none" stroke="#2452C6" stroke-miterlimit="10" cx="152.263" cy="-92.155" r="17.3"/>
	<path fill="#2F3136" stroke="#D7D9DD" stroke-miterlimit="10" d="M57.022-82.305l1.419-9.486c4.029,0.6,6.845,3.448,7.881,6.766
		L57.022-82.305z"/>
</g>
<g id="small-star">
	<polygon fill="#AAABAE" points="34.079,-92.359 36.86,-86.724 43.079,-85.821 38.579,-81.435 39.644,-75.24 34.079,-78.166 
		28.517,-75.24 29.579,-81.435 25.079,-85.821 31.298,-86.724 	"/>
</g>
<g id="big-star">
	<polygon fill="none" stroke="#AAABAE" stroke-linejoin="round" stroke-miterlimit="10" points="9.006,-91.229 11.787,-85.594 
		18.006,-84.69 13.506,-80.305 14.568,-74.11 9.006,-77.034 3.443,-74.11 4.506,-80.305 0.006,-84.69 6.225,-85.594 	"/>
</g>
</svg>
