<?xml version="1.0" encoding="utf-8"?>
<!-- Generator: Adobe Illustrator 16.0.0, SVG Export Plug-In . SVG Version: 6.00 Build 0)  -->
<!DOCTYPE svg PUBLIC "-//W3C//DTD SVG 1.1//EN" "http://www.w3.org/Graphics/SVG/1.1/DTD/svg11.dtd">
<svg version="1.1" xmlns="http://www.w3.org/2000/svg" xmlns:xlink="http://www.w3.org/1999/xlink" x="0px" y="0px"
	 width="31.599px" height="31.599px" viewBox="0 0 31.599 31.599" enable-background="new 0 0 31.599 31.599" xml:space="preserve">
<g id="delete">
	<path fill="#43464C" d="M3.937,31.599c-0.498,0-0.966-0.194-1.319-0.547l-2.072-2.069C0.194,28.63,0,28.161,0,27.663
		s0.194-0.967,0.546-1.318L26.343,0.546C26.695,0.194,27.164,0,27.663,0s0.968,0.194,1.319,0.546l2.07,2.072
		c0.728,0.727,0.728,1.91,0.001,2.638L5.256,31.052C4.903,31.404,4.435,31.599,3.937,31.599z"/>
	<path fill="#43464C" d="M27.663,31.599c-0.499,0-0.968-0.194-1.319-0.547L0.546,5.256c-0.727-0.728-0.727-1.912,0-2.639
		l2.073-2.071C2.971,0.194,3.439,0,3.937,0s0.966,0.194,1.319,0.546l25.796,25.799c0.353,0.352,0.547,0.82,0.547,1.318
		s-0.194,0.967-0.547,1.318l-2.07,2.07C28.63,31.404,28.162,31.599,27.663,31.599z"/>
</g>
</svg>
