<?xml version="1.0" encoding="utf-8"?>
<!-- Generator: Adobe Illustrator 16.0.0, SVG Export Plug-In . SVG Version: 6.00 Build 0)  -->
<!DOCTYPE svg PUBLIC "-//W3C//DTD SVG 1.1//EN" "http://www.w3.org/Graphics/SVG/1.1/DTD/svg11.dtd">
<svg version="1.1" xmlns="http://www.w3.org/2000/svg" xmlns:xlink="http://www.w3.org/1999/xlink" x="0px" y="0px"
	 width="28.996px" height="30.8px" viewBox="0 0 28.996 30.8" enable-background="new 0 0 28.996 30.8" xml:space="preserve">
<path id="cut" fill="#43464C" d="M11.438,30.8c-0.351,0-0.705-0.037-1.05-0.109c-2.747-0.581-4.512-3.29-3.936-6.039
	c0.45-2.146,2.232-3.755,4.392-4.009l0.677-3.211c-1.18-0.593-5.685-2.873-6.839-3.739L0.286,9.495
	c-0.322-0.308-0.378-0.803-0.135-1.176c0.172-0.262,0.461-0.418,0.774-0.418c0.123,0,0.243,0.024,0.356,0.071l11.247,4.685
	l2.514-11.924C15.133,0.308,15.513,0,15.946,0c0.463,0.011,0.838,0.335,0.916,0.771l0.965,5.958
	c0.082,1.265-0.609,6.465-0.791,7.802l3.027,1.264c0.963-1.095,2.377-1.741,3.843-1.741c0.67,0,1.326,0.131,1.949,0.39
	c2.149,0.9,3.419,3.135,3.087,5.436c-0.062,0.427-0.178,0.841-0.341,1.233c-0.521,1.252-1.502,2.23-2.762,2.752
	c-0.626,0.258-1.28,0.388-1.947,0.388c-0.671,0-1.329-0.132-1.956-0.393c-1.854-0.771-3.059-2.515-3.136-4.499l-3.17-0.806
	l-1.134,3.072c1.481,1.114,2.257,2.965,1.991,4.804c-0.019,0.116-0.038,0.222-0.061,0.327C15.933,29.099,13.834,30.8,11.438,30.8z
	 M11.439,23.513c-1.028,0-1.928,0.731-2.14,1.739c-0.015,0.056-0.02,0.089-0.023,0.123c-0.167,1.153,0.587,2.231,1.714,2.471
	c0.147,0.031,0.299,0.047,0.449,0.047c1.028,0,1.928-0.73,2.14-1.736c0.126-0.571,0.023-1.15-0.29-1.636
	c-0.32-0.497-0.817-0.838-1.399-0.96C11.741,23.529,11.589,23.513,11.439,23.513z M23.901,16.963c-0.888,0-1.684,0.528-2.026,1.347
	c-0.073,0.17-0.123,0.348-0.149,0.531c-0.141,0.986,0.406,1.944,1.33,2.331c0.269,0.112,0.551,0.169,0.839,0.169
	c0.286,0,0.566-0.056,0.833-0.166c0.542-0.223,0.964-0.643,1.188-1.183c0.223-0.531,0.222-1.123-0.003-1.668
	c-0.226-0.548-0.643-0.972-1.175-1.192C24.47,17.02,24.188,16.963,23.901,16.963z M14.057,14.187c-0.643,0-1.196,0.479-1.286,1.116
	c-0.05,0.342,0.036,0.681,0.243,0.958c0.208,0.278,0.512,0.459,0.855,0.509c0.064,0.009,0.128,0.014,0.192,0.014
	c0.64,0,1.191-0.476,1.282-1.108c0.05-0.346-0.036-0.688-0.243-0.967c-0.208-0.278-0.512-0.459-0.857-0.509
	C14.181,14.191,14.118,14.187,14.057,14.187z"/>
</svg>
