<?xml version="1.0" encoding="utf-8"?>
<!-- Generator: Adobe Illustrator 16.0.0, SVG Export Plug-In . SVG Version: 6.00 Build 0)  -->
<!DOCTYPE svg PUBLIC "-//W3C//DTD SVG 1.1//EN" "http://www.w3.org/Graphics/SVG/1.1/DTD/svg11.dtd">
<svg version="1.1" xmlns="http://www.w3.org/2000/svg" xmlns:xlink="http://www.w3.org/1999/xlink" x="0px" y="0px"
	 width="30.8px" height="30.8px" viewBox="0 0 30.8 30.8" enable-background="new 0 0 30.8 30.8" xml:space="preserve">
<path fill="#43464C" d="M20.001,30.8l-0.021-4.423h6.379v-6.373L30.8,20v7.067c0,2.059-1.675,3.733-3.732,3.733H20.001z M3.734,30.8
	C1.675,30.8,0,29.125,0,27.067V20l4.407,0.005v6.373h6.373l0.022,4.423H3.734z M26.359,10.8V4.467H19.98L20.001,0h7.065
	C29.125,0,30.8,1.674,30.8,3.733V10.8H26.359z M0,10.8V3.733C0,1.674,1.675,0,3.734,0h7.068L10.78,4.467H4.407V10.8H0z"/>
<rect x="11.816" y="11.816" transform="matrix(0.7071 -0.7071 0.7071 0.7071 -6.3788 15.4001)" fill="#43464C" width="7.168" height="7.167"/>
</svg>
