<?xml version="1.0" encoding="utf-8"?>
<!-- Generator: Adobe Illustrator 16.0.0, SVG Export Plug-In . SVG Version: 6.00 Build 0)  -->
<!DOCTYPE svg PUBLIC "-//W3C//DTD SVG 1.1//EN" "http://www.w3.org/Graphics/SVG/1.1/DTD/svg11.dtd">
<svg version="1.1" xmlns="http://www.w3.org/2000/svg" xmlns:xlink="http://www.w3.org/1999/xlink" x="0px" y="0px"
	 width="30.793px" height="30.994px" viewBox="0 0 30.793 30.994" enable-background="new 0 0 30.793 30.994" xml:space="preserve">
<g id="paste">
	<path fill="#43464C" d="M10.99,22.608c-1.546,0-2.803-1.259-2.803-2.806V2.804C8.187,1.258,9.444,0,10.99,0h17
		c1.546,0,2.804,1.258,2.804,2.804v16.999c0,1.547-1.258,2.806-2.804,2.806H10.99z M27.016,18.833V3.777H11.961v15.056H27.016z"/>
	<path fill="#43464C" d="M2.322,30.994V30.93C1.01,30.717,0,29.568,0,28.206v-0.938h3.7v3.726H2.322z M18.02,30.971v-3.702h3.702
		v0.913c0,1.549-1.24,2.789-2.765,2.789H18.02z M12.085,30.971v-3.702h3.738v3.702H12.085z M6.029,30.971v-3.702h3.737v3.702H6.029z
		 M18.02,25.103v-3.74h3.702v3.74H18.02z M0,24.99v-3.736h3.7v3.736H0z M18.02,18.952v-3.728h3.702v3.728H18.02z M0,18.933v-3.729
		h3.7v3.729H0z M18.02,12.974V9.255h1.32l0.005,0.032c1.337,0.191,2.377,1.355,2.377,2.733v0.954H18.02z M12.032,12.957V9.255h3.738
		v3.702H12.032z M5.978,12.957V9.255h3.737v3.702H5.978z M0.034,12.957L0,12.046c0-1.551,1.239-2.791,2.763-2.791H3.7v3.702H0.034z"
		/>
	<rect x="11.075" y="2.845" opacity="0.3" fill="#43464C" width="16.828" height="16.827"/>
</g>
</svg>
