<?xml version="1.0" encoding="utf-8"?>
<!-- Generator: Adobe Illustrator 16.0.0, SVG Export Plug-In . SVG Version: 6.00 Build 0)  -->
<!DOCTYPE svg PUBLIC "-//W3C//DTD SVG 1.1//EN" "http://www.w3.org/Graphics/SVG/1.1/DTD/svg11.dtd">
<svg version="1.1" id="图层_1" xmlns="http://www.w3.org/2000/svg" xmlns:xlink="http://www.w3.org/1999/xlink" x="0px" y="0px"
	 width="90.642px" height="98.009px" viewBox="0 0 90.642 98.009" enable-background="new 0 0 90.642 98.009" xml:space="preserve">
<polyline fill="none" stroke="#ECECEC" stroke-width="3" stroke-miterlimit="10" points="63.448,13.917 30.896,24.154 36.78,51.763 
	70.634,45.066 "/>
<polyline fill="none" stroke="#ECECEC" stroke-width="3" stroke-miterlimit="10" points="31.872,28.738 4.568,37.718 8.579,54.257 
	35.972,47.967 "/>
<line fill="none" stroke="#ECECEC" stroke-width="3" stroke-miterlimit="10" x1="45.837" y1="27.625" x2="61.308" y2="23.199"/>
<line fill="none" stroke="#ECECEC" stroke-width="3" stroke-miterlimit="10" x1="35.972" y1="30.449" x2="41.786" y2="28.785"/>
<path fill="none" stroke="#ECECEC" stroke-width="3" stroke-miterlimit="10" d="M7.7,50.636l-1.397,0.37
	c-1.936,0.513-4.006-0.971-4.627-3.313l0,0c-0.619-2.342,0.448-4.656,2.384-5.168l1.573-0.417L7.7,50.636z"/>
<polyline fill="none" stroke="#ECECEC" stroke-width="3" stroke-miterlimit="10" points="38.308,51.763 38.308,56.449 
	40.058,56.449 40.058,61.449 48.64,61.449 48.64,56.605 50.765,56.605 50.765,49.949 "/>
<line fill="none" stroke="#ECECEC" stroke-width="3" stroke-miterlimit="10" x1="40.058" y1="61.449" x2="4.558" y2="96.949"/>
<line fill="none" stroke="#ECECEC" stroke-width="3" stroke-miterlimit="10" x1="48.64" y1="61.449" x2="84.14" y2="96.949"/>
<line fill="none" stroke="#ECECEC" stroke-width="4" stroke-miterlimit="10" x1="44.536" y1="61.449" x2="44.536" y2="96.949"/>
<path fill="none" stroke="#ECECEC" stroke-width="3" stroke-linecap="round" stroke-miterlimit="10" d="M82.481,47.371
	c-0.195,2.202-1.785,4.124-4.061,4.643l0,0c-2.818,0.643-5.625-1.121-6.268-3.938L63.009,7.894
	c-0.639-2.816,1.129-5.618,3.949-6.263l0,0c2.307-0.524,4.607,0.561,5.719,2.517"/>
<path fill="#ECECEC" stroke="#ECECEC" stroke-width="3" stroke-miterlimit="10" d="M72.673,4.155
	c9.697,4.27,16.469,13.965,16.469,25.24c0,6.866-2.512,13.146-6.664,17.972L72.673,4.155z"/>
<path id="lv1-b" display="none" fill="none" stroke="#ECECEC" stroke-width="3" stroke-linecap="round" stroke-miterlimit="10" d="
	M80.265,47.058c-0.127,2.207-1.657,4.177-3.915,4.767l0,0c-2.798,0.729-4.89-0.943-6.387-3.744c0,0-5.075-11.634-7.343-20.232
	c-2.267-8.598-3.039-19.647-3.039-19.647c-0.219-2.843,0.955-5.65,3.754-6.382l0,0c2.29-0.595,4.623,0.418,5.794,2.339"/>
<path id="lv1-c" display="none" fill="#ECECEC" stroke="#ECECEC" stroke-width="3" stroke-linecap="round" stroke-miterlimit="10" d="
	M80.261,47.054C90.644,32.2,86.109,9.619,69.125,4.166c0,0,1.162,13.137,3.031,20.641C74.035,33.003,80.261,47.054,80.261,47.054z"
	/>
<path id="lv2-b" display="none" fill="none" stroke="#ECECEC" stroke-width="3" stroke-linecap="round" stroke-miterlimit="10" d="
	M68.67,23.509c2.509,14.088-3.789,26.992-14.067,28.822c-10.277,1.827-20.647-8.105-23.156-22.194
	c-2.509-14.088,3.791-26.992,14.07-28.822C55.795-0.516,66.162,9.42,68.67,23.509z"/>
<path id="lv2-c" display="none" fill="none" stroke="#ECECEC" stroke-width="3" stroke-miterlimit="10" d="M46.774,1.098
	c-12.5,5.862-12.003,45.964,9.537,50.815"/>
<path id="lv3" display="none" fill="none" stroke="#ECECEC" stroke-width="3" stroke-linecap="round" stroke-miterlimit="10" d="
	M72.99,24.61c0,14.997-12.156,27.154-27.153,27.154c-14.996,0-27.153-12.158-27.153-27.154c0-8.015,3.473-15.219,8.996-20.189
	c4.811-4.329,11.176-6.964,18.157-6.964C60.834-2.543,72.99,9.614,72.99,24.61z"/>
<path id="lv1-b_1_" display="none" fill="none" stroke="#ECECEC" stroke-width="3" stroke-linecap="round" stroke-miterlimit="10" d="
	M84.455,24.808c2.491,13.99-2.574,26.591-11.313,28.146s-17.848-8.52-20.34-22.511c-1.519-8.533-0.226-16.549,2.997-21.858
	c2.061-3.395,4.911-5.682,8.32-6.29C72.858,0.739,81.965,10.817,84.455,24.808z"/>
<path id="lv1-c_1_" display="none" fill="none" stroke="#ECECEC" stroke-width="3" stroke-miterlimit="10" d="M66.041,2.138
	C53.541,8,54.316,47.7,75.856,52.55"/>
<ellipse display="none" fill="none" stroke="#ECECEC" stroke-width="3" stroke-linecap="round" stroke-miterlimit="10" cx="44.536" cy="34.829" rx="6.177" ry="6.09"/>
</svg>
