<?xml version="1.0" encoding="utf-8"?>
<!-- Generator: Adobe Illustrator 16.0.0, SVG Export Plug-In . SVG Version: 6.00 Build 0)  -->
<!DOCTYPE svg PUBLIC "-//W3C//DTD SVG 1.1//EN" "http://www.w3.org/Graphics/SVG/1.1/DTD/svg11.dtd">
<svg version="1.1" id="图层_1" xmlns="http://www.w3.org/2000/svg" xmlns:xlink="http://www.w3.org/1999/xlink" x="0px" y="0px"
	 width="20.365px" height="24px" viewBox="0 0 20.365 24" enable-background="new 0 0 20.365 24" xml:space="preserve">
<circle fill="none" stroke="#19BAF9" stroke-miterlimit="10" cx="10.183" cy="13.817" r="9.683"/>
<circle fill="none" stroke="#19BAF9" stroke-miterlimit="10" cx="10.183" cy="13.817" r="1.267"/>
<path fill="none" stroke="#19BAF9" stroke-miterlimit="10" d="M11.643,13.747h6.036c0-3.895-3.258-7.429-7.438-7.429"/>
<line fill="none" stroke="#19BAF9" stroke-miterlimit="10" x1="6.087" y1="6.829" x2="6.699" y2="7.809"/>
<line fill="none" stroke="#19BAF9" stroke-miterlimit="10" x1="3.227" y1="9.729" x2="4.207" y2="10.301"/>
<line fill="none" stroke="#19BAF9" stroke-miterlimit="10" x1="2.123" y1="13.747" x2="3.227" y2="13.747"/>
<line fill="none" stroke="#19BAF9" stroke-miterlimit="10" x1="3.227" y1="17.818" x2="4.207" y2="17.247"/>
<line fill="none" stroke="#19BAF9" stroke-miterlimit="10" x1="6.087" y1="20.76" x2="6.699" y2="19.78"/>
<line fill="none" stroke="#19BAF9" stroke-miterlimit="10" x1="10.183" y1="21.823" x2="10.183" y2="20.76"/>
<line fill="none" stroke="#19BAF9" stroke-miterlimit="10" x1="14.191" y1="20.76" x2="13.626" y2="19.78"/>
<line fill="none" stroke="#19BAF9" stroke-miterlimit="10" x1="17.147" y1="17.808" x2="16.188" y2="17.257"/>
<path fill="none" stroke="#19BAF9" stroke-miterlimit="10" d="M1.919,6.895L1.337,6.313c-0.223-0.223-0.223-0.585,0-0.808
	l0.581-0.581c0.223-0.223,0.585-0.223,0.807,0l0.569,0.57"/>
<path fill="none" stroke="#19BAF9" stroke-miterlimit="10" d="M17.104,5.513l0.582-0.582c0.224-0.223,0.585-0.223,0.808,0
	l0.581,0.58c0.224,0.223,0.224,0.584,0,0.808l-0.569,0.569"/>
<path fill="none" stroke="#19BAF9" stroke-miterlimit="10" d="M12.609,1.687c0,0.655-0.531,1.187-1.188,1.187H8.942
	c-0.655,0-1.187-0.531-1.187-1.187l0,0c0-0.656,0.531-1.187,1.187-1.187h2.479C12.078,0.5,12.609,1.031,12.609,1.687L12.609,1.687z"
	/>
<line fill="none" stroke="#19BAF9" stroke-miterlimit="10" x1="10.183" y1="1.687" x2="10.183" y2="3.901"/>
</svg>
