<?xml version="1.0" encoding="utf-8"?>
<!-- Generator: Adobe Illustrator 16.0.0, SVG Export Plug-In . SVG Version: 6.00 Build 0)  -->
<!DOCTYPE svg PUBLIC "-//W3C//DTD SVG 1.1//EN" "http://www.w3.org/Graphics/SVG/1.1/DTD/svg11.dtd">
<svg version="1.1" xmlns="http://www.w3.org/2000/svg" xmlns:xlink="http://www.w3.org/1999/xlink" x="0px" y="0px" width="24px"
	 height="24px" viewBox="0 0 24 24" enable-background="new 0 0 24 24" xml:space="preserve">
<g id="图层_1" display="none">
	<rect x="3.53" y="-24.453" display="inline" fill="#AAABAE" width="10.5" height="3.233"/>
	<rect x="3.53" y="-17.314" display="inline" fill="#AAABAE" width="6.833" height="1.465"/>
	<path display="inline" fill="none" stroke="#AAABAE" stroke-width="2" stroke-miterlimit="10" d="M19.551-11.918
		C19.551-9.203,17.059-7,13.986-7h-7.42C3.492-7,1-9.203,1-11.918v-11.477c0-2.716,2.492-4.918,5.565-4.918h7.42
		c3.073,0,5.565,2.202,5.565,4.918V-11.918z"/>
	<rect x="3.53" y="-13.526" display="inline" fill="#AAABAE" width="13.667" height="1.543"/>
</g>
<g id="图层_2" display="none">
	
		<circle display="inline" fill="none" stroke="#AAABAE" stroke-width="2" stroke-miterlimit="10" cx="36.259" cy="-19.604" r="8.708"/>
	
		<line display="inline" fill="none" stroke="#AAABAE" stroke-width="2" stroke-linecap="round" stroke-miterlimit="10" x1="41.926" y1="-13.001" x2="46.572" y2="-8.354"/>
</g>
<g id="图层_8" display="none">
	<path display="inline" fill="#D3D6D9" stroke="#D3D6D9" stroke-width="2" stroke-miterlimit="10" d="M100.338-12.596
		c0,2.717-2.492,4.919-5.564,4.919h-7.421c-3.073,0-5.565-2.202-5.565-4.919v-11.476c0-2.717,2.492-4.919,5.565-4.919h7.421
		c3.072,0,5.564,2.202,5.564,4.919V-12.596z"/>
	<rect x="84.317" y="-25.13" display="inline" fill="#1E2124" width="10.5" height="3.233"/>
	<rect x="84.317" y="-17.992" display="inline" fill="#1E2124" width="6.833" height="1.466"/>
	<rect x="84.317" y="-14.204" display="inline" fill="#1E2124" width="13.667" height="1.543"/>
</g>
<g id="图层_3" display="none">
	<polyline display="inline" fill="none" stroke="#AAABAE" stroke-miterlimit="10" points="68.639,-28.858 66.728,-27.983 
		66.728,-24.327 68.656,-23.491 	"/>
	<polyline display="inline" fill="none" stroke="#AAABAE" stroke-miterlimit="10" points="69.464,-23.513 71.358,-24.382 
		71.358,-28.007 69.445,-28.835 	"/>
	<polyline display="inline" fill="none" stroke="#AAABAE" stroke-miterlimit="10" points="57.203,-19.907 54.758,-18.786 
		54.758,-14.11 57.227,-13.038 	"/>
	<polyline display="inline" fill="none" stroke="#AAABAE" stroke-miterlimit="10" points="58.259,-13.067 60.682,-14.179 
		60.682,-18.815 58.235,-19.878 	"/>
	<polyline display="inline" fill="none" stroke="#AAABAE" stroke-miterlimit="10" points="70.27,-13.724 68.358,-12.847 
		68.358,-9.192 70.287,-8.354 	"/>
	<polyline display="inline" fill="none" stroke="#AAABAE" stroke-miterlimit="10" points="71.095,-8.378 72.989,-9.245 
		72.989,-12.87 71.076,-13.7 	"/>
	<path display="inline" fill="none" stroke="#AAABAE" stroke-miterlimit="10" d="M61.191-16.472
		c3.625-0.021,1.786-9.709,5.042-9.703"/>
	<path display="inline" fill="none" stroke="#565656" stroke-miterlimit="10" d="M14.213-9.653"/>
	<path display="inline" fill="none" stroke="#AAABAE" stroke-miterlimit="10" d="M61.191-16.417c4.375-0.014,2.875,5.424,7,5.434"/>
</g>
<g id="图层_7" display="none">
	
		<line display="inline" fill="none" stroke="#AAABAE" stroke-width="2" stroke-miterlimit="10" x1="69.165" y1="11.656" x2="72.72" y2="11.656"/>
	<path display="inline" fill="none" stroke="#AAABAE" stroke-width="2" stroke-miterlimit="10" d="M73.552,17.395
		c0,2.717-2.492,4.918-5.565,4.918h-7.42c-3.074,0-5.566-2.201-5.566-4.918V5.918C55,3.202,57.492,1,60.566,1h7.42
		c3.073,0,5.565,2.202,5.565,4.918V17.395z"/>
	<polyline display="inline" fill="none" stroke="#AAABAE" stroke-width="2" stroke-miterlimit="10" points="62.79,15.451 
		59.887,14.121 59.887,8.569 62.818,7.297 	"/>
	
		<line display="inline" fill="none" stroke="#AAABAE" stroke-width="2" stroke-miterlimit="10" x1="59.131" y1="11.656" x2="55.576" y2="11.656"/>
	<polyline display="inline" fill="none" stroke="#AAABAE" stroke-width="2" stroke-miterlimit="10" points="66.253,15.451 
		69.157,14.121 69.157,8.569 66.226,7.297 	"/>
</g>
<g id="图层_4" display="none">
	<path display="inline" fill="#6C82CB" d="M48,19.728c0,0.519-0.447,0.939-1,0.939H31c-0.552,0-1-0.421-1-0.939V0.939
		C30,0.42,30.448,0,31,0h16c0.553,0,1,0.42,1,0.939V19.728z"/>
	<rect x="32.197" y="3.257" display="inline" fill="#B8BFD3" width="10.5" height="2"/>
	<rect x="32.197" y="7.82" display="inline" fill="#B8BFD3" width="13.666" height="1.207"/>
	<rect x="32.197" y="10.938" display="inline" fill="#B8BFD3" width="6.834" height="1.208"/>
	<rect x="32.197" y="13.82" display="inline" fill="#B8BFD3" width="13.666" height="1.207"/>
	<rect x="32.197" y="16.611" display="inline" fill="#B8BFD3" width="13.666" height="1.209"/>
	<path display="inline" fill="none" stroke="#565656" stroke-miterlimit="10" d="M42.88,18.057"/>
</g>
<g id="图层_6" display="none">
	<g display="inline">
		<path fill="none" stroke="#AAABAE" stroke-width="2" stroke-miterlimit="10" d="M23.091,43.468c0,0.19-0.154,0.345-0.346,0.345
			h-2.231c-0.718,0-1.334,0.412-1.607,1.074c-0.275,0.663-0.131,1.391,0.377,1.897l1.577,1.577c0.136,0.135,0.136,0.354,0,0.488
			l-2.012,2.012c-0.134,0.135-0.353,0.135-0.486,0l-1.578-1.578c-0.508-0.508-1.234-0.652-1.897-0.377
			c-0.663,0.273-1.074,0.891-1.074,1.607v2.232c0,0.189-0.154,0.344-0.345,0.344h-2.845c-0.19,0-0.346-0.154-0.346-0.344v-2.232
			c0-0.717-0.411-1.334-1.074-1.607c-0.222-0.094-0.45-0.139-0.677-0.139c-0.447,0-0.883,0.178-1.22,0.516l-1.578,1.578
			c-0.135,0.135-0.354,0.134-0.487,0L3.229,48.85c-0.136-0.135-0.136-0.354,0-0.488l1.578-1.578
			c0.508-0.507,0.651-1.234,0.377-1.896s-0.891-1.074-1.608-1.074H1.345C1.154,43.812,1,43.658,1,43.468v-2.845
			c0-0.19,0.154-0.346,0.345-0.346h2.231c0.718,0,1.334-0.411,1.608-1.074c0.274-0.662,0.131-1.39-0.377-1.896l-1.578-1.578
			c-0.136-0.135-0.136-0.354,0-0.488l2.012-2.011c0.134-0.135,0.354-0.135,0.487,0l1.578,1.577c0.507,0.508,1.233,0.652,1.896,0.378
			s1.074-0.891,1.074-1.608v-2.231c0-0.19,0.155-0.345,0.346-0.345h2.844c0.191,0,0.346,0.154,0.346,0.345v2.231
			c0,0.718,0.411,1.334,1.074,1.608c0.664,0.274,1.391,0.13,1.897-0.377l1.578-1.578c0.135-0.135,0.354-0.135,0.486,0l2.012,2.012
			c0.136,0.135,0.136,0.354,0,0.487l-1.577,1.578c-0.508,0.508-0.652,1.234-0.377,1.897c0.273,0.663,0.89,1.074,1.607,1.074h2.231
			c0.191-0.001,0.346,0.154,0.346,0.345V43.468z"/>
		<path fill="none" stroke="#AAABAE" stroke-width="2" stroke-miterlimit="10" d="M12.045,45.138c-1.704,0-3.093-1.388-3.093-3.093
			s1.389-3.092,3.093-3.092s3.093,1.387,3.093,3.092S13.749,45.138,12.045,45.138z"/>
	</g>
</g>
<g id="图层_5">
	<path fill="none" stroke="#AAABAE" stroke-width="2" stroke-miterlimit="10" d="M23,17c0,3.313-2.687,6-6,6H7c-3.313,0-6-2.687-6-6
		V7c0-3.313,2.687-6,6-6h10c3.313,0,6,2.687,6,6V17z"/>
	<path fill="#AAABAE" d="M14.552,10.879c-0.553,0.606-1.427,0.708-1.957,0.228l0,0c-0.526-0.481-0.503-1.361,0.048-1.968l3.08-3.377
		c0.553-0.606,1.429-0.708,1.955-0.227l0,0c0.529,0.481,0.507,1.361-0.047,1.967L14.552,10.879z"/>
	<path fill="#AAABAE" d="M12.702,19.659c0,0.304-0.314,0.55-0.702,0.55l0,0c-0.388,0-0.702-0.246-0.702-0.55v-5.987
		c0-0.303,0.314-0.549,0.702-0.549l0,0c0.388,0,0.702,0.246,0.702,0.549V19.659z"/>
	<path fill="#AAABAE" d="M10.833,12.042c0,0.256-0.124,0.463-0.279,0.463H3.031c-0.155,0-0.281-0.207-0.281-0.463l0,0
		c0-0.256,0.126-0.464,0.281-0.464h7.523C10.709,11.578,10.833,11.786,10.833,12.042L10.833,12.042z"/>
	<circle fill="#8A8F94" cx="12" cy="12" r="1.333"/>
	<circle fill="#E4E5EA" cx="12" cy="11.999" r="0.625"/>
</g>
</svg>
