<?xml version="1.0" encoding="utf-8"?>
<!-- Generator: Adobe Illustrator 16.0.0, SVG Export Plug-In . SVG Version: 6.00 Build 0)  -->
<!DOCTYPE svg PUBLIC "-//W3C//DTD SVG 1.1//EN" "http://www.w3.org/Graphics/SVG/1.1/DTD/svg11.dtd">
<svg version="1.1" xmlns="http://www.w3.org/2000/svg" xmlns:xlink="http://www.w3.org/1999/xlink" x="0px" y="0px"
	 width="20.551px" height="23.314px" viewBox="0 0 20.551 23.314" enable-background="new 0 0 20.551 23.314" xml:space="preserve">
<g id="calendar2">
	<path fill="none" stroke="#AAABAE" stroke-width="2" stroke-miterlimit="10" d="M16.804,3.339c1.519,0,2.748,1.259,2.748,2.81
		v13.356c0,1.551-1.229,2.81-2.748,2.81H3.748C2.229,22.314,1,21.056,1,19.505V6.148c0-1.551,1.229-2.81,2.748-2.81"/>
	<line fill="none" stroke="#AAABAE" stroke-width="2" stroke-miterlimit="10" x1="1.402" y1="9.341" x2="18.582" y2="9.341"/>
	<line fill="none" stroke="#AAABAE" stroke-width="2" stroke-miterlimit="10" x1="7.873" y1="3.324" x2="12.383" y2="3.324"/>
	<rect x="4.017" y="12.25" fill="#EDEFF4" width="1.947" height="2.129"/>
	<rect x="6.414" y="12.25" fill="#EDEFF4" width="1.946" height="2.129"/>
	<rect x="9.019" y="12.243" fill="#EDEFF4" width="1.947" height="2.129"/>
	<rect x="11.396" y="12.25" fill="#EDEFF4" width="1.947" height="2.129"/>
	<rect x="13.958" y="12.25" fill="#EDEFF4" width="1.947" height="2.129"/>
	<rect x="4.017" y="14.938" fill="#EDEFF4" width="1.947" height="2.128"/>
	<rect x="6.414" y="14.938" fill="#EDEFF4" width="1.946" height="2.128"/>
	<rect x="9.019" y="14.938" fill="#BFC0C4" width="1.947" height="2.128"/>
	<rect x="11.396" y="14.938" fill="#BFC0C4" width="1.947" height="2.128"/>
	<rect x="13.958" y="14.938" fill="#BFC0C4" width="1.947" height="2.128"/>
	<rect x="4.017" y="17.514" fill="#BFC0C4" width="1.947" height="2.129"/>
	<rect x="6.414" y="17.514" fill="#BFC0C4" width="1.946" height="2.129"/>
	<rect x="9.019" y="17.514" fill="#BFC0C4" width="1.947" height="2.129"/>
	<rect x="11.396" y="17.514" fill="#BFC0C4" width="1.947" height="2.129"/>
	<rect x="13.958" y="17.514" fill="#BFC0C4" width="1.947" height="2.129"/>
	<path fill="#AAABAE" d="M6.833,5.738c0,0.519-0.438,0.936-0.979,0.936H5.609c-0.54,0-0.977-0.417-0.977-0.936V0.907
		c0-0.515,0.437-0.934,0.977-0.934h0.245c0.541,0,0.979,0.419,0.979,0.934V5.738z"/>
	<path fill="#AAABAE" d="M15.896,5.768c0,0.518-0.438,0.936-0.978,0.936h-0.244c-0.539,0-0.978-0.418-0.978-0.936V0.936
		c0-0.517,0.438-0.933,0.978-0.933h0.244c0.539,0,0.978,0.416,0.978,0.933V5.768z"/>
</g>
<g id="calendar">
	<path fill="none" stroke="#AAABAE" stroke-width="2" stroke-miterlimit="10" d="M-4.704,17.397c0,2.717-2.492,4.92-5.566,4.92
		h-7.419c-3.074,0-5.565-2.203-5.565-4.92V5.923c0-2.72,2.491-4.922,5.565-4.922h7.419c3.074,0,5.566,2.202,5.566,4.922V17.397z"/>
	
		<text transform="matrix(1 0 0 1 -19.9541 18.4043)" fill="#AAABAE" stroke="#AAABAE" stroke-width="0.75" stroke-miterlimit="10" font-family="'HelveticaNeue-Light'" font-size="12">31</text>
	<line fill="none" stroke="#AAABAE" stroke-width="1.5" stroke-miterlimit="10" x1="-23.255" y1="6.464" x2="-4.704" y2="6.464"/>
</g>
<g id="图层_1">
	<path display="none" fill="none" stroke="#AAABAE" stroke-miterlimit="10" d="M-37.098-41.954c0,0.519-0.448,0.939-1,0.939h-16
		c-0.552,0-1-0.42-1-0.939v-18.788c0-0.519,0.448-0.939,1-0.939h16c0.552,0,1,0.42,1,0.939V-41.954z"/>
	<rect x="-50.067" y="-54.321" fill="#AAABAE" width="10.5" height="3.233"/>
	<rect x="-52.9" y="-51.862" display="none" fill="#AAABAE" width="13.667" height="1.208"/>
	<rect x="-50.067" y="-47.183" fill="#AAABAE" width="6.833" height="1.465"/>
	<rect x="-52.9" y="-47.862" display="none" fill="#AAABAE" width="13.667" height="1.208"/>
	<rect x="-50.067" y="-43.395" fill="#AAABAE" width="13.667" height="1.543"/>
	<path fill="none" stroke="#AAABAE" stroke-width="2" stroke-miterlimit="10" d="M-34.046-41.787c0,2.716-2.492,4.918-5.565,4.918
		h-7.42c-3.074,0-5.565-2.203-5.565-4.918v-11.477c0-2.716,2.492-4.918,5.565-4.918h7.42c3.073,0,5.565,2.202,5.565,4.918V-41.787z"
		/>
</g>
<g id="图层_2">
	<circle fill="none" stroke="#AAABAE" stroke-width="2" stroke-miterlimit="10" cx="-17.339" cy="-49.473" r="8.708"/>
	
		<line fill="none" stroke="#AAABAE" stroke-width="2" stroke-linecap="round" stroke-miterlimit="10" x1="-11.672" y1="-42.869" x2="-7.025" y2="-38.223"/>
</g>
<g id="图层_8">
	<path fill="#D3D6D9" stroke="#D3D6D9" stroke-width="2" stroke-miterlimit="10" d="M46.74-42.464c0,2.717-2.492,4.919-5.564,4.919
		h-7.421c-3.073,0-5.565-2.202-5.565-4.919V-53.94c0-2.717,2.492-4.919,5.565-4.919h7.421c3.072,0,5.564,2.202,5.564,4.919V-42.464z
		"/>
	<rect x="30.72" y="-54.999" fill="#1E2124" width="10.5" height="3.233"/>
	<rect x="30.72" y="-47.86" fill="#1E2124" width="6.833" height="1.466"/>
	<rect x="30.72" y="-44.072" fill="#1E2124" width="13.667" height="1.543"/>
	<path fill="none" stroke="#565656" stroke-miterlimit="10" d="M41.402-40.199"/>
</g>
<g id="图层_3">
	<polyline fill="none" stroke="#AAABAE" stroke-miterlimit="10" points="15.041,-58.727 13.13,-57.852 13.13,-54.195 
		15.059,-53.359 	"/>
	<polyline fill="none" stroke="#AAABAE" stroke-miterlimit="10" points="15.866,-53.381 17.761,-54.25 17.761,-57.875 
		15.848,-58.703 	"/>
	<polyline fill="none" stroke="#AAABAE" stroke-miterlimit="10" points="3.605,-49.775 1.16,-48.654 1.16,-43.979 3.629,-42.906 	
		"/>
	<polyline fill="none" stroke="#AAABAE" stroke-miterlimit="10" points="4.661,-42.936 7.084,-44.047 7.084,-48.684 4.638,-49.746 	
		"/>
	<polyline fill="none" stroke="#AAABAE" stroke-miterlimit="10" points="16.672,-43.592 14.761,-42.715 14.761,-39.061 
		16.689,-38.223 	"/>
	<polyline fill="none" stroke="#AAABAE" stroke-miterlimit="10" points="17.497,-38.246 19.392,-39.113 19.392,-42.738 
		17.479,-43.568 	"/>
	<path fill="none" stroke="#AAABAE" stroke-miterlimit="10" d="M7.594-46.34c3.625-0.021,1.786-9.709,5.042-9.703"/>
	<path fill="none" stroke="#565656" stroke-miterlimit="10" d="M-39.385-39.521"/>
	<path fill="none" stroke="#AAABAE" stroke-miterlimit="10" d="M7.594-46.285c4.375-0.014,2.875,5.424,7,5.434"/>
</g>
<g id="图层_7">
	<line fill="none" stroke="#AAABAE" stroke-width="2" stroke-miterlimit="10" x1="15.567" y1="-18.212" x2="19.122" y2="-18.212"/>
	<path fill="none" stroke="#AAABAE" stroke-width="2" stroke-miterlimit="10" d="M19.954-12.474c0,2.717-2.492,4.918-5.565,4.918
		h-7.42c-3.074,0-5.566-2.201-5.566-4.918V-23.95c0-2.716,2.492-4.918,5.566-4.918h7.42c3.073,0,5.565,2.202,5.565,4.918V-12.474z"
		/>
	<polyline fill="none" stroke="#AAABAE" stroke-width="2" stroke-miterlimit="10" points="9.192,-14.417 6.289,-15.747 
		6.289,-21.299 9.221,-22.571 	"/>
	<line fill="none" stroke="#AAABAE" stroke-width="2" stroke-miterlimit="10" x1="5.533" y1="-18.212" x2="1.979" y2="-18.212"/>
	<polyline fill="none" stroke="#AAABAE" stroke-width="2" stroke-miterlimit="10" points="12.655,-14.417 15.56,-15.747 
		15.56,-21.299 12.628,-22.571 	"/>
</g>
<g id="图层_4">
	<path fill="#6C82CB" d="M-5.598-10.141c0,0.519-0.447,0.939-1,0.939h-16c-0.552,0-1-0.421-1-0.939v-18.788
		c0-0.52,0.448-0.939,1-0.939h16c0.553,0,1,0.42,1,0.939V-10.141z"/>
	<rect x="-21.4" y="-26.611" fill="#B8BFD3" width="10.5" height="2"/>
	<rect x="-21.4" y="-22.048" fill="#B8BFD3" width="13.666" height="1.207"/>
	<rect x="-21.4" y="-18.931" fill="#B8BFD3" width="6.834" height="1.208"/>
	<rect x="-21.4" y="-16.048" fill="#B8BFD3" width="13.666" height="1.207"/>
	<rect x="-21.4" y="-13.257" fill="#B8BFD3" width="13.666" height="1.209"/>
	<path fill="none" stroke="#565656" stroke-miterlimit="10" d="M-10.718-11.812"/>
</g>
<g id="图层_6">
	<g>
		<path fill="none" stroke="#AAABAE" stroke-width="2" stroke-miterlimit="10" d="M-30.507,13.6c0,0.19-0.154,0.345-0.346,0.345
			h-2.231c-0.718,0-1.334,0.412-1.607,1.074c-0.275,0.663-0.131,1.391,0.377,1.897l1.577,1.577c0.136,0.135,0.136,0.354,0,0.488
			l-2.012,2.012c-0.134,0.135-0.353,0.135-0.486,0l-1.578-1.578c-0.508-0.508-1.234-0.652-1.897-0.377
			c-0.663,0.273-1.074,0.891-1.074,1.607v2.232c0,0.189-0.154,0.344-0.345,0.344h-2.845c-0.19,0-0.346-0.154-0.346-0.344v-2.232
			c0-0.717-0.411-1.334-1.074-1.607c-0.222-0.094-0.45-0.139-0.677-0.139c-0.447,0-0.883,0.178-1.22,0.516l-1.578,1.578
			c-0.135,0.135-0.354,0.134-0.487,0l-2.012-2.012c-0.136-0.135-0.136-0.354,0-0.488l1.578-1.578
			c0.508-0.507,0.651-1.234,0.377-1.896s-0.891-1.074-1.608-1.074h-2.231c-0.19,0-0.345-0.154-0.345-0.345v-2.845
			c0-0.19,0.154-0.346,0.345-0.346h2.231c0.718,0,1.334-0.411,1.608-1.074c0.274-0.662,0.131-1.39-0.377-1.896l-1.578-1.578
			c-0.136-0.135-0.136-0.354,0-0.488l2.012-2.011c0.134-0.135,0.354-0.135,0.487,0l1.578,1.577c0.507,0.508,1.233,0.652,1.896,0.378
			s1.074-0.891,1.074-1.608V1.477c0-0.19,0.155-0.345,0.346-0.345h2.844c0.191,0,0.346,0.154,0.346,0.345v2.231
			c0,0.718,0.411,1.334,1.074,1.608c0.664,0.274,1.391,0.13,1.897-0.377l1.578-1.578c0.135-0.135,0.354-0.135,0.486,0l2.012,2.012
			c0.136,0.135,0.136,0.354,0,0.487l-1.577,1.578c-0.508,0.508-0.652,1.234-0.377,1.897c0.273,0.663,0.89,1.074,1.607,1.074h2.231
			c0.191-0.001,0.346,0.154,0.346,0.345V13.6z"/>
		<path fill="none" stroke="#AAABAE" stroke-width="2" stroke-miterlimit="10" d="M-41.553,15.27c-1.704,0-3.093-1.388-3.093-3.093
			s1.389-3.092,3.093-3.092s3.093,1.387,3.093,3.092S-39.849,15.27-41.553,15.27z"/>
	</g>
</g>
<g id="图层_5">
	<path fill="none" stroke="#AAABAE" stroke-width="2" stroke-miterlimit="10" d="M-30.598-12.868c0,3.313-2.687,6-6,6h-10
		c-3.313,0-6-2.687-6-6v-10c0-3.313,2.687-6,6-6h10c3.313,0,6,2.687,6,6V-12.868z"/>
	<path fill="#AAABAE" d="M-39.046-18.989c-0.553,0.606-1.427,0.708-1.957,0.228l0,0c-0.526-0.481-0.503-1.361,0.048-1.968
		l3.08-3.377c0.553-0.606,1.429-0.708,1.955-0.227l0,0c0.529,0.481,0.507,1.361-0.047,1.967L-39.046-18.989z"/>
	<path fill="#AAABAE" d="M-40.896-10.209c0,0.304-0.314,0.55-0.702,0.55l0,0c-0.388,0-0.702-0.246-0.702-0.55v-5.987
		c0-0.303,0.314-0.549,0.702-0.549l0,0c0.388,0,0.702,0.246,0.702,0.549V-10.209z"/>
	<path fill="#AAABAE" d="M-42.765-17.826c0,0.256-0.124,0.463-0.279,0.463h-7.523c-0.155,0-0.281-0.207-0.281-0.463l0,0
		c0-0.256,0.126-0.464,0.281-0.464h7.523C-42.889-18.291-42.765-18.082-42.765-17.826L-42.765-17.826z"/>
	<circle fill="#8A8F94" cx="-41.598" cy="-17.868" r="1.333"/>
	<circle fill="#E4E5EA" cx="-41.598" cy="-17.869" r="0.625"/>
</g>
</svg>
