<?xml version="1.0" encoding="utf-8"?>
<!-- Generator: Adobe Illustrator 16.0.0, SVG Export Plug-In . SVG Version: 6.00 Build 0)  -->
<!DOCTYPE svg PUBLIC "-//W3C//DTD SVG 1.1//EN" "http://www.w3.org/Graphics/SVG/1.1/DTD/svg11.dtd">
<svg version="1.1" xmlns="http://www.w3.org/2000/svg" xmlns:xlink="http://www.w3.org/1999/xlink" x="0px" y="0px" width="14.5px"
	 height="15.282px" viewBox="0 0 14.5 15.282" enable-background="new 0 0 14.5 15.282" xml:space="preserve">
<g id="b_x26_f3-rigjt">
	<path fill="none" stroke="#AAABAE" stroke-width="2" stroke-linecap="round" stroke-linejoin="round" stroke-miterlimit="10" d="
		M7.39,14.282l5.734-5.735c0.501-0.5,0.501-1.311,0-1.812L7.39,1"/>
	
		<line fill="none" stroke="#AAABAE" stroke-width="2" stroke-linecap="round" stroke-miterlimit="10" x1="13.5" y1="7.642" x2="1" y2="7.642"/>
</g>
<g id="b_x26_f3-left" display="none">
	
		<path display="inline" fill="none" stroke="#707070" stroke-width="2" stroke-linecap="round" stroke-linejoin="round" stroke-miterlimit="10" d="
		M0.784,14.282L-4.95,8.547c-0.501-0.5-0.501-1.311,0-1.812L0.784,1"/>
	
		<line display="inline" fill="none" stroke="#707070" stroke-width="2" stroke-linecap="round" stroke-miterlimit="10" x1="-5.326" y1="7.642" x2="7.174" y2="7.642"/>
</g>
<g id="b_x26_f2-right">
	<path fill="none" stroke="#91969B" stroke-linecap="round" stroke-linejoin="round" stroke-miterlimit="10" d="M-17.318,1.695
		c-3.952,0-7.156,3.204-7.156,7.156s3.204,7.156,7.156,7.156"/>
	<polyline fill="none" stroke="#91969B" stroke-linecap="round" stroke-linejoin="round" stroke-miterlimit="10" points="
		-18.807,3.985 -15.113,1.71 -18.807,-0.562 	"/>
</g>
<g id="b_x26_f2-left">
	<path fill="none" stroke="#91969B" stroke-linecap="round" stroke-linejoin="round" stroke-miterlimit="10" d="M-34.589,1.532
		c3.952,0,7.156,3.204,7.156,7.156s-3.204,7.156-7.156,7.156"/>
	<polyline fill="none" stroke="#91969B" stroke-linecap="round" stroke-linejoin="round" stroke-miterlimit="10" points="
		-33.101,3.822 -36.794,1.547 -33.101,-0.726 	"/>
</g>
<g id="back_x26_forward">
	<path fill="#91969B" d="M-57.979,4.692l2.296,2.281l4.221,4.221c0.299,0.299,0.262,0.82-0.084,1.164l-1.039,1.041
		c-0.346,0.344-0.867,0.383-1.166,0.084l-5.984-5.986c-0.299-0.297-0.261-0.818,0.083-1.164L-57.979,4.692z M-55.685,6.974
		l4.222-4.221c0.299-0.299,0.26-0.82-0.084-1.164l-1.041-1.039c-0.344-0.346-0.865-0.383-1.162-0.086l-4.229,4.229L-55.685,6.974z
		 M-54.07,8.587h6.773c0.422,0,0.764-0.396,0.764-0.883V6.233c0-0.488-0.342-0.883-0.764-0.883h-5.971l-0.795,0.002l-1.621,1.621
		L-54.07,8.587z"/>
</g>
<g id="back_x26_forward1">
	<path fill="#91969B" d="M-62.353,9.249l-2.296-2.279l-4.221-4.223c-0.299-0.299-0.262-0.82,0.084-1.164l1.039-1.041
		c0.346-0.344,0.867-0.381,1.166-0.084l5.984,5.986c0.299,0.299,0.261,0.818-0.083,1.164L-62.353,9.249z"/>
	<path fill="#91969B" d="M-64.647,6.968l-4.222,4.223c-0.299,0.299-0.26,0.82,0.084,1.164l1.041,1.039
		c0.344,0.346,0.865,0.383,1.162,0.086l4.229-4.229L-64.647,6.968z"/>
	<path fill="#91969B" d="M-66.262,5.356h-6.773c-0.422,0-0.764,0.395-0.764,0.883V7.71c0,0.488,0.342,0.883,0.764,0.883h5.971
		l0.795-0.004l1.621-1.619L-66.262,5.356z"/>
</g>
<g id="图层_10">
	
		<polyline fill="none" stroke="#20C05C" stroke-width="3" stroke-linecap="round" stroke-linejoin="round" stroke-miterlimit="10" points="
		-102.549,6.618 -95.234,13.002 -82.544,-0.028 	"/>
</g>
<g id="arrow2">
	
		<polyline fill="none" stroke="#91969B" stroke-width="2" stroke-linecap="round" stroke-linejoin="round" stroke-miterlimit="10" points="
		-117.196,0.472 -112.172,5.497 -117.146,10.472 	"/>
</g>
<g id="arrow1">
	<polyline fill="none" stroke="#91969B" stroke-width="2" stroke-miterlimit="10" points="-31.311,-29.321 -22.371,-20.383 
		-31.371,-11.383 	"/>
</g>
<g id="forward-btn">
	<path fill="#AAABAE" d="M-42.82-19.028l-5.771,5.463l1.48-5.463 M-42.82-19.028 M-42.82-19.028l-5.771-5.464l1.48,5.464"/>
	<rect x="-54.854" y="-20.362" fill="#AAABAE" width="8.078" height="2.469"/>
	<circle fill="none" stroke="#AAABAE" stroke-width="2" stroke-miterlimit="10" cx="-49.078" cy="-19.028" r="10"/>
</g>
<g id="back-btn">
	<path fill="#AAABAE" d="M-79.044-19.028l1.48,5.463l-5.772-5.463 M-83.336-19.028 M-79.044-19.028l1.48-5.464l-5.772,5.464"/>
	<rect x="-79.381" y="-20.362" fill="#AAABAE" width="8.078" height="2.469"/>
	<circle fill="none" stroke="#AAABAE" stroke-width="2" stroke-miterlimit="10" cx="-77.078" cy="-19.028" r="10"/>
</g>
<g id="tag1-btn2">
	
		<polyline fill="none" stroke="#91969B" stroke-width="2" stroke-linecap="round" stroke-linejoin="round" stroke-miterlimit="10" points="
		71.885,-59.421 78.902,-52.405 71.901,-45.403 	"/>
	
		<polyline fill="none" stroke="#91969B" stroke-width="2" stroke-linecap="round" stroke-linejoin="round" stroke-miterlimit="10" points="
		63.92,-59.421 56.902,-52.405 63.904,-45.403 	"/>
	
		<line fill="none" stroke="#91969B" stroke-width="2" stroke-linecap="round" stroke-linejoin="round" stroke-miterlimit="10" x1="69.92" y1="-60.912" x2="65.922" y2="-43.912"/>
</g>
<g id="tag1-btn">
	<polyline fill="none" stroke="#91969B" stroke-width="2.5" stroke-linejoin="round" stroke-miterlimit="10" points="
		-111.04,-14.569 -118.328,-21.856 -111.04,-29.144 	"/>
	<polyline fill="none" stroke="#91969B" stroke-width="2.5" stroke-linejoin="round" stroke-miterlimit="10" points="
		-102.616,-14.569 -95.328,-21.856 -102.616,-29.144 	"/>
	
		<line fill="none" stroke="#91969B" stroke-width="2.5" stroke-linejoin="round" stroke-miterlimit="10" x1="-105.103" y1="-29.582" x2="-109.148" y2="-14.132"/>
</g>
<g id="tag-btn">
	
		<line fill="none" stroke="#91969B" stroke-width="2.5" stroke-linecap="round" stroke-miterlimit="10" x1="-29.707" y1="-53.951" x2="-12.207" y2="-53.951"/>
	
		<line fill="none" stroke="#91969B" stroke-width="2.5" stroke-linecap="round" stroke-miterlimit="10" x1="-29.707" y1="-47.524" x2="-12.207" y2="-47.524"/>
	
		<line fill="none" stroke="#91969B" stroke-width="2.5" stroke-linecap="round" stroke-miterlimit="10" x1="-22.674" y1="-58.834" x2="-26.363" y2="-41.333"/>
	
		<line fill="none" stroke="#91969B" stroke-width="2.5" stroke-linecap="round" stroke-miterlimit="10" x1="-15.617" y1="-58.834" x2="-19.22" y2="-41.333"/>
</g>
<g id="pic-btn2">
	
		<path display="none" fill="none" stroke="#91969B" stroke-width="2" stroke-linecap="round" stroke-linejoin="round" stroke-miterlimit="10" d="
		M47.422-41.595c0,1.195-0.748,2.162-1.668,2.162H29.088c-0.918,0-1.666-0.967-1.666-2.162v-15.676c0-1.195,0.748-2.162,1.666-2.162
		h16.666c0.92,0,1.668,0.967,1.668,2.162V-41.595z"/>
	
		<polyline fill="none" stroke="#91969B" stroke-width="2" stroke-linecap="round" stroke-linejoin="round" stroke-miterlimit="10" points="
		46.729,-46.48 42.76,-50.201 37.738,-45.356 35.844,-47.697 28.587,-41.676 	"/>
	<circle fill="#91969B" cx="33.382" cy="-53.517" r="2.45"/>
	<path fill="none" stroke="#91969B" stroke-width="2" stroke-linecap="round" stroke-linejoin="round" stroke-miterlimit="10" d="
		M47.505-43.63c0,2.116-1.798,3.833-4.018,3.833H31.522c-2.219,0-4.018-1.717-4.018-3.833v-11.419c0-2.116,1.799-3.833,4.018-3.833
		h11.965c2.22,0,4.018,1.717,4.018,3.833V-43.63z"/>
</g>
<g id="pic-btn">
	<path fill="none" stroke="#91969B" stroke-width="2" stroke-miterlimit="10" d="M-38.578-44.563c0,1.059-0.859,1.917-1.918,1.917
		h-19.166c-1.057,0-1.916-0.857-1.916-1.917v-13.895c0-1.059,0.859-1.917,1.916-1.917h19.166c1.059,0,1.918,0.857,1.918,1.917
		V-44.563z"/>
	<polyline fill="none" stroke="#91969B" stroke-width="2" stroke-miterlimit="10" points="-61.578,-48.595 -57.507,-51.989 
		-51.747,-46.982 -49.561,-49.553 -40.814,-42.646 	"/>
	<circle fill="none" stroke="#91969B" stroke-width="2" stroke-miterlimit="10" cx="-44.927" cy="-54.334" r="2.456"/>
</g>
<g id="delete-btn2">
	<g>
		<path fill="#91969B" d="M13.289-57.689c0.004-0.032,0.015-0.06,0.015-0.092c0-1.742-1.235-3.16-2.753-3.16H7.665
			c-1.519,0-2.755,1.417-2.755,3.16c0,0.033,0.015,0.06,0.017,0.092H13.289z M6.309-57.781c0-0.857,0.61-1.556,1.356-1.556h2.886
			c0.747,0,1.355,0.698,1.355,1.556c0,0.033,0.015,0.06,0.016,0.092H6.294C6.297-57.721,6.309-57.75,6.309-57.781z"/>
	</g>
	<path fill="#91969B" d="M18.331-55.406h-18l0,0c0-1.296,0.932-2.345,2.085-2.345h13.831C17.399-57.751,18.331-56.702,18.331-55.406
		L18.331-55.406z"/>
	<path display="none" fill="none" stroke="#91969B" stroke-width="1.5" stroke-miterlimit="10" d="M17.232-41.833
		c0,1.107-0.708,2.005-1.581,2.005H3.013c-0.873,0-1.581-0.898-1.581-2.005v-12.91h15.801V-41.833z"/>
	<path fill="#91969B" d="M6.295-42.586c0,0.455-0.395,0.824-0.88,0.824l0,0c-0.487,0-0.88-0.369-0.88-0.824v-8.248
		c0-0.455,0.393-0.824,0.88-0.824l0,0c0.485,0,0.88,0.369,0.88,0.824V-42.586z"/>
	<path fill="#91969B" d="M10.354-42.586c0,0.455-0.393,0.824-0.879,0.824l0,0c-0.485,0-0.88-0.369-0.88-0.824v-8.248
		c0-0.455,0.395-0.824,0.88-0.824l0,0c0.486,0,0.879,0.369,0.879,0.824V-42.586z"/>
	<path fill="#91969B" d="M14.357-42.586c0,0.455-0.393,0.824-0.88,0.824l0,0c-0.486,0-0.88-0.369-0.88-0.824v-8.248
		c0-0.455,0.394-0.824,0.88-0.824l0,0c0.487,0,0.88,0.369,0.88,0.824V-42.586z"/>
	<path fill="none" stroke="#91969B" stroke-width="1.8" stroke-miterlimit="10" d="M16.847-44.617c0,2.582-1.597,4.676-3.566,4.676
		H5.381c-1.969,0-3.566-2.094-3.566-4.676v-8.862h15.032V-44.617z"/>
</g>
<g id="delet-btn">
	
		<polyline fill="none" stroke="#91969B" stroke-width="2.5" stroke-linecap="round" stroke-linejoin="bevel" stroke-miterlimit="10" points="
		-89.078,-55.682 -82.02,-55.682 -69.078,-55.682 	"/>
	<path fill="none" stroke="#91969B" stroke-width="2" stroke-miterlimit="10" d="M-82.379-55.774
		c-0.714-0.923,0.714-3.232,3.25-3.232c2.538,0,4.033,2.309,3.382,3.232"/>
	<path display="none" fill="none" stroke="#91969B" stroke-width="1.5" stroke-miterlimit="10" d="M-87.403-57.166
		c0,0,2.957,18.98,3.039,19.42c0.144,0.471,0.561,0.717,0.731,0.717c0.168,0,8.721-0.008,9.031,0
		c0.31,0.007,0.634-0.249,0.791-0.808c0.076-0.509,2.963-19.33,2.963-19.33"/>
	<polygon display="none" fill="#91969B" points="-83.524,-51.397 -80.664,-51.397 -80.664,-40.08 	"/>
	
		<line fill="none" stroke="#91969B" stroke-width="1.5" stroke-miterlimit="10" x1="-86.836" y1="-52.412" x2="-71.32" y2="-52.412"/>
	<line display="none" fill="none" stroke="#91969B" stroke-miterlimit="10" x1="-84.354" y1="-38.997" x2="-73.802" y2="-38.997"/>
	<polygon display="none" fill="#91969B" points="-74.633,-51.397 -77.493,-51.397 -77.493,-40.08 	"/>
	
		<line fill="none" stroke="#91969B" stroke-width="2" stroke-linecap="round" stroke-miterlimit="10" x1="-82.825" y1="-49.457" x2="-82.825" y2="-41.646"/>
	
		<line fill="none" stroke="#91969B" stroke-width="2" stroke-linecap="round" stroke-miterlimit="10" x1="-78.999" y1="-49.457" x2="-78.999" y2="-41.646"/>
	
		<line fill="none" stroke="#91969B" stroke-width="2" stroke-linecap="round" stroke-miterlimit="10" x1="-75.332" y1="-49.457" x2="-75.332" y2="-41.646"/>
	<path fill="none" stroke="#91969B" stroke-width="2" stroke-miterlimit="10" d="M-70.718-41.938c0,1.975-1.791,3.577-4,3.577
		h-8.563c-2.209,0-4-1.602-4-3.577v-10.21c0-1.975,1.791-3.577,4-3.577h8.563c2.209,0,4,1.602,4,3.577V-41.938z"/>
</g>
<g id="save-btn">
	<rect x="-110.715" y="-58.55" fill="#91969B" width="3.136" height="4.787"/>
	<path fill="none" stroke="#91969B" stroke-width="2" stroke-miterlimit="10" d="M-97.578-40.296c0,0.735-0.596,1.333-1.334,1.333
		h-17.332c-0.737,0-1.334-0.598-1.334-1.333v-17.332c0-0.735,0.597-1.333,1.334-1.333c0,0,13.108,0,15.183,0
		c1.676-0.077,3.431,1.77,3.483,4.538C-97.578-52.192-97.578-40.296-97.578-40.296z"/>
	<polyline fill="none" stroke="#91969B" stroke-width="2" stroke-miterlimit="10" points="-103.453,-58.378 -103.453,-51.51 
		-113.571,-51.51 -113.571,-58.378 	"/>
	<path fill="none" stroke="#91969B" stroke-width="2" stroke-miterlimit="10" d="M-114.015-39.22v-6.771
		c0-0.581,0.571-1.051,1.277-1.051h10.32c0.706,0,1.276,0.47,1.276,1.051v6.725"/>
</g>
</svg>
