<?xml version="1.0" encoding="utf-8"?>
<!-- Generator: Adobe Illustrator 16.0.0, SVG Export Plug-In . SVG Version: 6.00 Build 0)  -->
<!DOCTYPE svg PUBLIC "-//W3C//DTD SVG 1.1//EN" "http://www.w3.org/Graphics/SVG/1.1/DTD/svg11.dtd">
<svg version="1.1" xmlns="http://www.w3.org/2000/svg" xmlns:xlink="http://www.w3.org/1999/xlink" x="0px" y="0px" width="22px"
	 height="22px" viewBox="0 0 22 22" enable-background="new 0 0 22 22" xml:space="preserve">
<g id="forward-btn" display="none">
	<path display="inline" fill="#AAABAE" d="M56.429,10.899l-5.771,5.464l1.48-5.464 M56.429,10.899 M56.429,10.899l-5.771-5.464
		l1.48,5.464"/>
	<rect x="44.396" y="9.565" display="inline" fill="#AAABAE" width="8.078" height="2.47"/>
	<circle display="inline" fill="none" stroke="#AAABAE" stroke-width="2" stroke-miterlimit="10" cx="50.171" cy="10.9" r="10"/>
</g>
<g id="back-btn">
	<path fill="#AAABAE" d="M9.034,10.999l1.48,5.464l-5.772-5.464 M4.742,10.999 M9.034,10.999l1.48-5.464l-5.772,5.464"/>
	<rect x="8.697" y="9.665" fill="#AAABAE" width="8.078" height="2.47"/>
	<circle fill="none" stroke="#AAABAE" stroke-width="2" stroke-miterlimit="10" cx="11" cy="11" r="10"/>
</g>
<g id="tag1-btn" display="none">
	
		<polyline display="inline" fill="none" stroke="#91969B" stroke-width="2.5" stroke-linejoin="round" stroke-miterlimit="10" points="
		-33.788,20.717 -43.506,10.999 -33.788,1.281 	"/>
	
		<polyline display="inline" fill="none" stroke="#91969B" stroke-width="2.5" stroke-linejoin="round" stroke-miterlimit="10" points="
		-22.554,20.717 -12.835,10.999 -22.554,1.281 	"/>
	
		<line display="inline" fill="none" stroke="#91969B" stroke-width="2.5" stroke-linejoin="round" stroke-miterlimit="10" x1="-25.871" y1="0.698" x2="-31.265" y2="21.301"/>
</g>
<g id="tag-btn" display="none">
	
		<line display="inline" fill="none" stroke="#91969B" stroke-width="2.5" stroke-miterlimit="10" x1="51.668" y1="-25.9" x2="75.905" y2="-25.9"/>
	
		<line display="inline" fill="none" stroke="#91969B" stroke-width="2.5" stroke-miterlimit="10" x1="51.668" y1="-18.512" x2="75.905" y2="-18.512"/>
	
		<line display="inline" fill="none" stroke="#91969B" stroke-width="2.5" stroke-miterlimit="10" x1="62.36" y1="-33.242" x2="57.371" y2="-9.475"/>
	
		<line display="inline" fill="none" stroke="#91969B" stroke-width="2.5" stroke-miterlimit="10" x1="70.202" y1="-33.757" x2="65.212" y2="-9.434"/>
</g>
<g id="pic-btn" display="none">
	<path display="inline" fill="none" stroke="#91969B" stroke-width="2" stroke-miterlimit="10" d="M44.668-14.639
		c0,1.23-0.998,2.227-2.229,2.227H20.173c-1.228,0-2.226-0.996-2.226-2.227v-16.143c0-1.23,0.998-2.227,2.226-2.227H42.44
		c1.23,0,2.229,0.997,2.229,2.227V-14.639z"/>
	<polyline display="inline" fill="none" stroke="#91969B" stroke-width="2" stroke-miterlimit="10" points="17.948,-19.323 
		22.677,-23.266 29.369,-17.449 31.91,-20.436 42.071,-12.412 	"/>
	
		<circle display="inline" fill="none" stroke="#91969B" stroke-width="2" stroke-miterlimit="10" cx="37.292" cy="-25.991" r="2.853"/>
</g>
<g id="delet-btn" display="none">
	
		<polyline display="inline" fill="none" stroke="#91969B" stroke-width="2.5" stroke-linejoin="bevel" stroke-miterlimit="10" points="
		-12.761,-29.242 -4.394,-29.242 10.948,-29.242 	"/>
	<path display="inline" fill="none" stroke="#91969B" stroke-width="1.5" stroke-miterlimit="10" d="M-4.447-29.354
		c-0.767-1.115,0.766-3.904,3.486-3.904c2.722,0,4.325,2.79,3.627,3.904"/>
	<path display="inline" fill="none" stroke="#91969B" stroke-width="2" stroke-miterlimit="10" d="M-10.305-29.354
		c0,0,3.338,21.429,3.431,21.926c0.162,0.532,0.634,0.81,0.825,0.81c0.19,0,9.847-0.009,10.196,0S4.864-6.898,5.04-7.53
		c0.086-0.575,3.346-21.824,3.346-21.824"/>
	<polygon display="inline" fill="#91969B" points="-5.926,-22.841 -2.697,-22.841 -2.697,-10.064 	"/>
	
		<line display="inline" fill="none" stroke="#91969B" stroke-width="1.5" stroke-miterlimit="10" x1="-9.628" y1="-25.591" x2="7.741" y2="-25.591"/>
	<line display="inline" fill="none" stroke="#91969B" stroke-miterlimit="10" x1="-6.864" y1="-8.841" x2="5.05" y2="-8.841"/>
	<polygon display="inline" fill="#91969B" points="4.112,-22.841 0.882,-22.841 0.882,-10.064 	"/>
</g>
<g id="save-btn" display="none">
	<rect x="-35.522" y="-32.494" display="inline" fill="#91969B" width="3.763" height="5.958"/>
	<path display="inline" fill="none" stroke="#91969B" stroke-width="2" stroke-miterlimit="10" d="M-19.761-9.774
		c0,0.916-0.716,1.659-1.601,1.659h-20.794c-0.884,0-1.601-0.743-1.601-1.659v-21.572c0-0.915,0.716-1.659,1.601-1.659
		c0,0,15.727,0,18.216,0c2.011-0.095,4.116,2.203,4.179,5.648C-19.761-24.581-19.761-9.774-19.761-9.774z"/>
	<polyline display="inline" fill="none" stroke="#91969B" stroke-width="2" stroke-miterlimit="10" points="-26.255,-32.28 
		-26.255,-23.505 -38.95,-23.505 -38.95,-32.28 	"/>
	<path display="inline" fill="none" stroke="#91969B" stroke-width="2" stroke-miterlimit="10" d="M-39.482-8.436v-8.427
		c0-0.724,0.686-1.309,1.532-1.309h12.381c0.846,0,1.531,0.585,1.531,1.309v8.37"/>
</g>
</svg>
