<?xml version="1.0" encoding="utf-8"?>
<!-- Generator: Adobe Illustrator 16.0.0, SVG Export Plug-In . SVG Version: 6.00 Build 0)  -->
<!DOCTYPE svg PUBLIC "-//W3C//DTD SVG 1.1//EN" "http://www.w3.org/Graphics/SVG/1.1/DTD/svg11.dtd">
<svg version="1.1" xmlns="http://www.w3.org/2000/svg" xmlns:xlink="http://www.w3.org/1999/xlink" x="0px" y="0px" width="14.5px"
	 height="15.282px" viewBox="0 0 14.5 15.282" enable-background="new 0 0 14.5 15.282" xml:space="preserve">
<g id="b_x26_f3-rigjt" display="none">
	
		<path display="inline" fill="none" stroke="#AAABAE" stroke-width="3" stroke-linecap="round" stroke-linejoin="round" stroke-miterlimit="10" d="
		M13.716,14.282l5.734-5.735c0.501-0.5,0.501-1.311,0-1.812L13.716,1"/>
	
		<line display="inline" fill="none" stroke="#AAABAE" stroke-width="3" stroke-linecap="round" stroke-miterlimit="10" x1="19.826" y1="7.642" x2="7.326" y2="7.642"/>
</g>
<g id="b_x26_f3-left">
	<path fill="none" stroke="#707070" stroke-width="2" stroke-linecap="round" stroke-linejoin="round" stroke-miterlimit="10" d="
		M7.11,14.282L1.376,8.547c-0.501-0.5-0.501-1.311,0-1.812L7.11,1"/>
	
		<line fill="none" stroke="#707070" stroke-width="2" stroke-linecap="round" stroke-miterlimit="10" x1="1" y1="7.642" x2="13.5" y2="7.642"/>
</g>
<g id="b_x26_f2-right">
	<path fill="none" stroke="#91969B" stroke-linecap="round" stroke-linejoin="round" stroke-miterlimit="10" d="M-10.992,1.695
		c-3.952,0-7.156,3.204-7.156,7.156s3.204,7.156,7.156,7.156"/>
	<polyline fill="none" stroke="#91969B" stroke-linecap="round" stroke-linejoin="round" stroke-miterlimit="10" points="
		-12.48,3.985 -8.787,1.71 -12.48,-0.562 	"/>
</g>
<g id="b_x26_f2-left">
	<path fill="none" stroke="#91969B" stroke-linecap="round" stroke-linejoin="round" stroke-miterlimit="10" d="M-28.263,1.532
		c3.952,0,7.156,3.204,7.156,7.156s-3.204,7.156-7.156,7.156"/>
	<polyline fill="none" stroke="#91969B" stroke-linecap="round" stroke-linejoin="round" stroke-miterlimit="10" points="
		-26.774,3.822 -30.468,1.547 -26.774,-0.726 	"/>
</g>
<g id="back_x26_forward">
	<path fill="#91969B" d="M-51.653,4.692l2.296,2.281l4.221,4.221c0.299,0.299,0.262,0.82-0.084,1.164l-1.039,1.041
		c-0.346,0.344-0.867,0.383-1.166,0.084l-5.984-5.986c-0.299-0.297-0.261-0.818,0.083-1.164L-51.653,4.692z M-49.358,6.974
		l4.222-4.221c0.299-0.299,0.26-0.82-0.084-1.164l-1.041-1.039c-0.344-0.346-0.865-0.383-1.162-0.086l-4.229,4.229L-49.358,6.974z
		 M-47.744,8.587h6.773c0.422,0,0.764-0.396,0.764-0.883V6.233c0-0.488-0.342-0.883-0.764-0.883h-5.971l-0.795,0.002l-1.621,1.621
		L-47.744,8.587z"/>
</g>
<g id="back_x26_forward1">
	<path fill="#91969B" d="M-56.026,9.249l-2.296-2.279l-4.221-4.223c-0.299-0.299-0.262-0.82,0.084-1.164l1.039-1.041
		c0.346-0.344,0.867-0.381,1.166-0.084l5.984,5.986c0.299,0.299,0.261,0.818-0.083,1.164L-56.026,9.249z"/>
	<path fill="#91969B" d="M-58.321,6.968l-4.222,4.223c-0.299,0.299-0.26,0.82,0.084,1.164l1.041,1.039
		c0.344,0.346,0.865,0.383,1.162,0.086l4.229-4.229L-58.321,6.968z"/>
	<path fill="#91969B" d="M-59.936,5.356h-6.773c-0.422,0-0.764,0.395-0.764,0.883V7.71c0,0.488,0.342,0.883,0.764,0.883h5.971
		l0.795-0.004l1.621-1.619L-59.936,5.356z"/>
</g>
<g id="图层_10">
	
		<polyline fill="none" stroke="#20C05C" stroke-width="3" stroke-linecap="round" stroke-linejoin="round" stroke-miterlimit="10" points="
		-96.223,6.618 -88.908,13.002 -76.218,-0.028 	"/>
</g>
<g id="arrow2">
	
		<polyline fill="none" stroke="#91969B" stroke-width="2" stroke-linecap="round" stroke-linejoin="round" stroke-miterlimit="10" points="
		-110.87,0.472 -105.846,5.497 -110.82,10.472 	"/>
</g>
<g id="arrow1">
	<polyline fill="none" stroke="#91969B" stroke-width="2" stroke-miterlimit="10" points="-24.984,-29.321 -16.045,-20.383 
		-25.045,-11.383 	"/>
</g>
<g id="forward-btn">
	<path fill="#AAABAE" d="M-36.494-19.028l-5.771,5.463l1.48-5.463 M-36.494-19.028 M-36.494-19.028l-5.771-5.464l1.48,5.464"/>
	<rect x="-48.527" y="-20.362" fill="#AAABAE" width="8.078" height="2.469"/>
	<circle fill="none" stroke="#AAABAE" stroke-width="2" stroke-miterlimit="10" cx="-42.752" cy="-19.028" r="10"/>
</g>
<g id="back-btn">
	<path fill="#AAABAE" d="M-72.718-19.028l1.48,5.463l-5.772-5.463 M-77.01-19.028 M-72.718-19.028l1.48-5.464l-5.772,5.464"/>
	<rect x="-73.055" y="-20.362" fill="#AAABAE" width="8.078" height="2.469"/>
	<circle fill="none" stroke="#AAABAE" stroke-width="2" stroke-miterlimit="10" cx="-70.752" cy="-19.028" r="10"/>
</g>
<g id="tag1-btn2">
	
		<polyline fill="none" stroke="#91969B" stroke-width="2" stroke-linecap="round" stroke-linejoin="round" stroke-miterlimit="10" points="
		78.211,-59.421 85.229,-52.405 78.228,-45.403 	"/>
	
		<polyline fill="none" stroke="#91969B" stroke-width="2" stroke-linecap="round" stroke-linejoin="round" stroke-miterlimit="10" points="
		70.246,-59.421 63.229,-52.405 70.23,-45.403 	"/>
	
		<line fill="none" stroke="#91969B" stroke-width="2" stroke-linecap="round" stroke-linejoin="round" stroke-miterlimit="10" x1="76.246" y1="-60.912" x2="72.248" y2="-43.912"/>
</g>
<g id="tag1-btn">
	<polyline fill="none" stroke="#91969B" stroke-width="2.5" stroke-linejoin="round" stroke-miterlimit="10" points="
		-104.714,-14.569 -112.002,-21.856 -104.714,-29.144 	"/>
	<polyline fill="none" stroke="#91969B" stroke-width="2.5" stroke-linejoin="round" stroke-miterlimit="10" points="
		-96.29,-14.569 -89.002,-21.856 -96.29,-29.144 	"/>
	
		<line fill="none" stroke="#91969B" stroke-width="2.5" stroke-linejoin="round" stroke-miterlimit="10" x1="-98.777" y1="-29.582" x2="-102.822" y2="-14.132"/>
</g>
<g id="tag-btn">
	
		<line fill="none" stroke="#91969B" stroke-width="2.5" stroke-linecap="round" stroke-miterlimit="10" x1="-23.381" y1="-53.951" x2="-5.881" y2="-53.951"/>
	
		<line fill="none" stroke="#91969B" stroke-width="2.5" stroke-linecap="round" stroke-miterlimit="10" x1="-23.381" y1="-47.524" x2="-5.881" y2="-47.524"/>
	
		<line fill="none" stroke="#91969B" stroke-width="2.5" stroke-linecap="round" stroke-miterlimit="10" x1="-16.348" y1="-58.834" x2="-20.037" y2="-41.333"/>
	
		<line fill="none" stroke="#91969B" stroke-width="2.5" stroke-linecap="round" stroke-miterlimit="10" x1="-9.291" y1="-58.834" x2="-12.894" y2="-41.333"/>
</g>
<g id="pic-btn2">
	
		<path display="none" fill="none" stroke="#91969B" stroke-width="2" stroke-linecap="round" stroke-linejoin="round" stroke-miterlimit="10" d="
		M53.748-41.595c0,1.195-0.748,2.162-1.668,2.162H35.414c-0.918,0-1.666-0.967-1.666-2.162v-15.676c0-1.195,0.748-2.162,1.666-2.162
		H52.08c0.92,0,1.668,0.967,1.668,2.162V-41.595z"/>
	
		<polyline fill="none" stroke="#91969B" stroke-width="2" stroke-linecap="round" stroke-linejoin="round" stroke-miterlimit="10" points="
		53.056,-46.48 49.086,-50.201 44.064,-45.356 42.17,-47.697 34.913,-41.676 	"/>
	<circle fill="#91969B" cx="39.708" cy="-53.517" r="2.45"/>
	<path fill="none" stroke="#91969B" stroke-width="2" stroke-linecap="round" stroke-linejoin="round" stroke-miterlimit="10" d="
		M53.831-43.63c0,2.116-1.798,3.833-4.018,3.833H37.849c-2.219,0-4.018-1.717-4.018-3.833v-11.419c0-2.116,1.799-3.833,4.018-3.833
		h11.965c2.22,0,4.018,1.717,4.018,3.833V-43.63z"/>
</g>
<g id="pic-btn">
	<path fill="none" stroke="#91969B" stroke-width="2" stroke-miterlimit="10" d="M-32.252-44.563c0,1.059-0.859,1.917-1.918,1.917
		h-19.166c-1.057,0-1.916-0.857-1.916-1.917v-13.895c0-1.059,0.859-1.917,1.916-1.917h19.166c1.059,0,1.918,0.857,1.918,1.917
		V-44.563z"/>
	<polyline fill="none" stroke="#91969B" stroke-width="2" stroke-miterlimit="10" points="-55.252,-48.595 -51.181,-51.989 
		-45.421,-46.982 -43.234,-49.553 -34.488,-42.646 	"/>
	<circle fill="none" stroke="#91969B" stroke-width="2" stroke-miterlimit="10" cx="-38.601" cy="-54.334" r="2.456"/>
</g>
<g id="delete-btn2">
	<g>
		<path fill="#91969B" d="M19.615-57.689c0.004-0.032,0.015-0.06,0.015-0.092c0-1.742-1.235-3.16-2.753-3.16h-2.886
			c-1.519,0-2.755,1.417-2.755,3.16c0,0.033,0.015,0.06,0.017,0.092H19.615z M12.635-57.781c0-0.857,0.61-1.556,1.356-1.556h2.886
			c0.747,0,1.355,0.698,1.355,1.556c0,0.033,0.015,0.06,0.016,0.092H12.62C12.623-57.721,12.635-57.75,12.635-57.781z"/>
	</g>
	<path fill="#91969B" d="M24.657-55.406h-18l0,0c0-1.296,0.932-2.345,2.085-2.345h13.831C23.726-57.751,24.657-56.702,24.657-55.406
		L24.657-55.406z"/>
	<path display="none" fill="none" stroke="#91969B" stroke-width="1.5" stroke-miterlimit="10" d="M23.559-41.833
		c0,1.107-0.708,2.005-1.581,2.005H9.339c-0.873,0-1.581-0.898-1.581-2.005v-12.91h15.801V-41.833z"/>
	<path fill="#91969B" d="M12.621-42.586c0,0.455-0.395,0.824-0.88,0.824l0,0c-0.487,0-0.88-0.369-0.88-0.824v-8.248
		c0-0.455,0.393-0.824,0.88-0.824l0,0c0.485,0,0.88,0.369,0.88,0.824V-42.586z"/>
	<path fill="#91969B" d="M16.681-42.586c0,0.455-0.393,0.824-0.879,0.824l0,0c-0.485,0-0.88-0.369-0.88-0.824v-8.248
		c0-0.455,0.395-0.824,0.88-0.824l0,0c0.486,0,0.879,0.369,0.879,0.824V-42.586z"/>
	<path fill="#91969B" d="M20.684-42.586c0,0.455-0.393,0.824-0.88,0.824l0,0c-0.486,0-0.88-0.369-0.88-0.824v-8.248
		c0-0.455,0.394-0.824,0.88-0.824l0,0c0.487,0,0.88,0.369,0.88,0.824V-42.586z"/>
	<path fill="none" stroke="#91969B" stroke-width="1.8" stroke-miterlimit="10" d="M23.173-44.617c0,2.582-1.597,4.676-3.566,4.676
		h-7.899c-1.969,0-3.566-2.094-3.566-4.676v-8.862h15.032V-44.617z"/>
</g>
<g id="delet-btn">
	
		<polyline fill="none" stroke="#91969B" stroke-width="2.5" stroke-linecap="round" stroke-linejoin="bevel" stroke-miterlimit="10" points="
		-82.752,-55.682 -75.694,-55.682 -62.752,-55.682 	"/>
	<path fill="none" stroke="#91969B" stroke-width="2" stroke-miterlimit="10" d="M-76.053-55.774
		c-0.714-0.923,0.714-3.232,3.25-3.232c2.538,0,4.033,2.309,3.382,3.232"/>
	<path display="none" fill="none" stroke="#91969B" stroke-width="1.5" stroke-miterlimit="10" d="M-81.077-57.166
		c0,0,2.957,18.98,3.039,19.42c0.144,0.471,0.561,0.717,0.731,0.717c0.168,0,8.721-0.008,9.031,0
		c0.31,0.007,0.634-0.249,0.791-0.808c0.076-0.509,2.963-19.33,2.963-19.33"/>
	<polygon display="none" fill="#91969B" points="-77.198,-51.397 -74.337,-51.397 -74.337,-40.08 	"/>
	
		<line fill="none" stroke="#91969B" stroke-width="1.5" stroke-miterlimit="10" x1="-80.51" y1="-52.412" x2="-64.994" y2="-52.412"/>
	<line display="none" fill="none" stroke="#91969B" stroke-miterlimit="10" x1="-78.028" y1="-38.997" x2="-67.476" y2="-38.997"/>
	<polygon display="none" fill="#91969B" points="-68.307,-51.397 -71.167,-51.397 -71.167,-40.08 	"/>
	
		<line fill="none" stroke="#91969B" stroke-width="2" stroke-linecap="round" stroke-miterlimit="10" x1="-76.499" y1="-49.457" x2="-76.499" y2="-41.646"/>
	
		<line fill="none" stroke="#91969B" stroke-width="2" stroke-linecap="round" stroke-miterlimit="10" x1="-72.673" y1="-49.457" x2="-72.673" y2="-41.646"/>
	
		<line fill="none" stroke="#91969B" stroke-width="2" stroke-linecap="round" stroke-miterlimit="10" x1="-69.006" y1="-49.457" x2="-69.006" y2="-41.646"/>
	<path fill="none" stroke="#91969B" stroke-width="2" stroke-miterlimit="10" d="M-64.392-41.938c0,1.975-1.791,3.577-4,3.577
		h-8.563c-2.209,0-4-1.602-4-3.577v-10.21c0-1.975,1.791-3.577,4-3.577h8.563c2.209,0,4,1.602,4,3.577V-41.938z"/>
</g>
<g id="save-btn">
	<rect x="-104.389" y="-58.55" fill="#91969B" width="3.136" height="4.787"/>
	<path fill="none" stroke="#91969B" stroke-width="2" stroke-miterlimit="10" d="M-91.252-40.296c0,0.735-0.596,1.333-1.334,1.333
		h-17.332c-0.737,0-1.334-0.598-1.334-1.333v-17.332c0-0.735,0.597-1.333,1.334-1.333c0,0,13.108,0,15.183,0
		c1.676-0.077,3.431,1.77,3.483,4.538C-91.252-52.192-91.252-40.296-91.252-40.296z"/>
	<polyline fill="none" stroke="#91969B" stroke-width="2" stroke-miterlimit="10" points="-97.127,-58.378 -97.127,-51.51 
		-107.245,-51.51 -107.245,-58.378 	"/>
	<path fill="none" stroke="#91969B" stroke-width="2" stroke-miterlimit="10" d="M-107.689-39.22v-6.771
		c0-0.581,0.571-1.051,1.277-1.051h10.32c0.706,0,1.276,0.47,1.276,1.051v6.725"/>
</g>
</svg>
