<?xml version="1.0" encoding="utf-8"?>
<!-- Generator: Adobe Illustrator 16.0.0, SVG Export Plug-In . SVG Version: 6.00 Build 0)  -->
<!DOCTYPE svg PUBLIC "-//W3C//DTD SVG 1.1//EN" "http://www.w3.org/Graphics/SVG/1.1/DTD/svg11.dtd">
<svg version="1.1" xmlns="http://www.w3.org/2000/svg" xmlns:xlink="http://www.w3.org/1999/xlink" x="0px" y="0px"
	 width="14.984px" height="15px" viewBox="387.078 122.134 14.984 15" enable-background="new 387.078 122.134 14.984 15"
	 xml:space="preserve">
<g id="图层_1" display="none">
	<g>
		<path display="inline" d="M282.326,143.256L156.744,17.674c-1.628-1.628-4.186-2.791-6.744-2.791
			c-2.558,0-5.116,1.163-6.744,2.791L17.674,143.256c-3.721,3.721-3.721,9.768,0,13.488c1.86,1.86,4.186,2.791,6.744,2.791
			s4.884-0.931,6.744-2.791L140.465,47.442v228.14c0,5.348,4.186,9.534,9.535,9.534s9.535-4.187,9.535-9.534V47.442l109.303,109.302
			c3.721,3.721,9.767,3.721,13.488,0C286.047,153.023,285.814,146.977,282.326,143.256z"/>
	</g>
	<g display="inline">
		<path d="M144.98,141.341c-1.532,0.894-2.745,2.107-3.639,3.639c-0.894,1.533-1.341,3.205-1.341,5.02
			c0,1.814,0.447,3.488,1.341,5.02s2.107,2.745,3.639,3.639c1.532,0.895,3.206,1.342,5.02,1.342c1.814,0,3.487-0.447,5.02-1.341
			c1.532-0.895,2.745-2.107,3.64-3.64c0.894-1.532,1.341-3.205,1.341-5.02s-0.447-3.488-1.341-5.02
			c-0.895-1.532-2.107-2.745-3.64-3.639C153.487,140.447,151.814,140,150,140C148.186,140,146.513,140.447,144.98,141.341z
			 M150.586,143.502l1.185,1.185l4.714,4.713c0.156,0.156,0.234,0.352,0.234,0.586s-0.078,0.43-0.234,0.585l-1.185,1.186
			c-0.165,0.165-0.36,0.247-0.586,0.247s-0.421-0.082-0.586-0.247l-2.461-2.461v6.536c0,0.226-0.083,0.421-0.248,0.586
			c-0.164,0.165-0.359,0.248-0.585,0.248l-1.667-0.001c-0.226,0.001-0.421-0.082-0.586-0.247c-0.165-0.165-0.248-0.36-0.248-0.586
			v-6.536l-2.461,2.461c-0.156,0.156-0.352,0.234-0.586,0.234s-0.43-0.078-0.586-0.234l-1.185-1.186
			c-0.156-0.156-0.234-0.351-0.234-0.585c0-0.235,0.078-0.43,0.234-0.586l4.714-4.714l1.185-1.185
			c0.156-0.156,0.352-0.234,0.586-0.234S150.43,143.346,150.586,143.502z"/>
	</g>
</g>
<g id="图层_2" display="none">
	<path display="inline" fill="#3689CE" d="M152.275,145.225l-2.28,2.295l-4.222,4.222c-0.298,0.298-0.819,0.261-1.164-0.085
		l-1.041-1.039c-0.344-0.345-0.381-0.867-0.083-1.165l5.986-5.985c0.298-0.298,0.819-0.26,1.165,0.083L152.275,145.225z"/>
	<path display="inline" fill="#3689CE" d="M152.218,145.167l4.28,4.28c0.301,0.302,0.267,0.826-0.079,1.17l-1.039,1.041
		c-0.344,0.344-0.868,0.379-1.171,0.077l-4.273-4.274L152.218,145.167z"/>
	<path display="inline" fill="#3689CE" d="M150,147.396l1.615,1.745l0.003,0.796v5.971c0,0.421-0.395,0.764-0.883,0.764h-1.471
		c-0.487,0-0.883-0.342-0.883-0.764v-6.774L150,147.396z"/>
</g>
<g id="图层_3" display="none">
	<path display="inline" fill="#91969B" d="M147.25,148.686l2.295,2.28l4.222,4.222c0.298,0.299,0.261,0.82-0.085,1.164l-1.039,1.041
		c-0.345,0.344-0.866,0.382-1.165,0.084l-5.985-5.986c-0.298-0.298-0.26-0.818,0.083-1.164L147.25,148.686z M149.545,150.966
		l4.215-4.214c0.302-0.303,0.267-0.827-0.077-1.171l-1.041-1.039c-0.344-0.346-0.868-0.38-1.17-0.079l-4.222,4.223L149.545,150.966z
		 M151.158,152.579h6.774c0.422,0,0.764-0.396,0.764-0.883v-1.471c0-0.488-0.343-0.883-0.764-0.883h-5.971l-0.796,0.003l-1.621,1.62
		L151.158,152.579z"/>
</g>
<g id="图层_4">
	<path fill="#91969B" d="M389.269,127.083l2.565,2.549l4.719,4.719c0.333,0.334,0.292,0.917-0.095,1.301l-1.162,1.164
		c-0.385,0.384-0.968,0.427-1.302,0.094l-6.69-6.692c-0.334-0.333-0.291-0.915,0.094-1.301L389.269,127.083z M391.834,129.632
		l4.711-4.71c0.338-0.338,0.299-0.925-0.086-1.309l-1.164-1.162c-0.384-0.386-0.971-0.424-1.308-0.088l-4.719,4.72L391.834,129.632z
		 M393.637,131.436h7.572c0.472,0,0.854-0.442,0.854-0.987v-1.644c0-0.546-0.383-0.987-0.854-0.987h-6.674l-0.89,0.003l-1.812,1.811
		L393.637,131.436z"/>
</g>
</svg>
