<?xml version="1.0" encoding="utf-8"?>
<!-- Generator: Adobe Illustrator 16.0.0, SVG Export Plug-In . SVG Version: 6.00 Build 0)  -->
<!DOCTYPE svg PUBLIC "-//W3C//DTD SVG 1.1//EN" "http://www.w3.org/Graphics/SVG/1.1/DTD/svg11.dtd">
<svg version="1.1" id="图层_1" xmlns="http://www.w3.org/2000/svg" xmlns:xlink="http://www.w3.org/1999/xlink" x="0px" y="0px"
	 width="50px" height="32.623px" viewBox="0 0 50 32.623" enable-background="new 0 0 50 32.623" xml:space="preserve">
<rect x="12.989" y="22.549" transform="matrix(0.7128 0.7014 -0.7014 0.7128 23.6713 -12.5301)" fill="#B8B8B8" width="28.292" height="0.178"/>
<path fill="#FFFFFF" d="M50,20.838c0-2.778-2.631-5.369-7.41-7.296C37.886,11.648,31.64,10.605,25,10.605
	c-6.39,0-12.41,0.969-17.045,2.73C7.792,13.133,7.545,13,7.266,13c-0.491,0-0.89,0.398-0.89,0.89c0,0.032,0.006,0.062,0.009,0.093
	C2.258,15.855,0,18.266,0,20.838c0,2.778,2.632,5.368,7.412,7.295C12.114,30.027,18.36,31.072,25,31.072
	c6.64,0,12.886-1.045,17.589-2.939c0.216-0.088,0.426-0.177,0.634-0.267c0.222,0.294,0.573,0.485,0.97,0.485
	c0.672,0,1.217-0.545,1.217-1.216c0-0.114-0.018-0.226-0.047-0.33C48.375,25.086,50,23.02,50,20.838z M7.266,13.458
	c0.078,0,0.15,0.022,0.214,0.06c-0.002,0.001-0.005,0.002-0.007,0.003c0.132,0.072,0.222,0.211,0.222,0.372
	c0,0.043-0.008,0.083-0.02,0.121c0.001,0,0.002,0,0.002-0.001c-0.053,0.179-0.217,0.31-0.412,0.31c-0.075,0-0.144-0.021-0.205-0.054
	c0.001-0.001,0.003-0.001,0.005-0.002c-0.133-0.072-0.225-0.212-0.225-0.374c0-0.041,0.008-0.081,0.019-0.119
	c-0.003,0.002-0.006,0.003-0.01,0.005C6.9,13.594,7.066,13.458,7.266,13.458z M45.11,26.338c-0.224-0.256-0.55-0.419-0.917-0.419
	c-0.671,0-1.216,0.545-1.216,1.217c0,0.083,0.009,0.165,0.024,0.245c-0.199,0.086-0.402,0.172-0.611,0.257
	C37.75,29.507,31.574,30.537,25,30.537s-12.749-1.03-17.39-2.899c-4.563-1.839-7.077-4.254-7.077-6.8
	c0-2.351,2.144-4.589,6.064-6.366c0.164,0.188,0.4,0.308,0.667,0.308c0.491,0,0.89-0.399,0.89-0.89c0-0.02-0.004-0.038-0.006-0.058
	c4.575-1.737,10.526-2.694,16.851-2.694c6.573,0,12.749,1.03,17.39,2.9c4.562,1.839,7.076,4.254,7.076,6.8
	C49.466,22.822,47.941,24.725,45.11,26.338z"/>
<path fill="#ECECEC" d="M26.8,25.43c-0.475-0.007-0.974-0.068-1.482-0.183l0.155-0.694c0.462,0.104,0.911,0.159,1.337,0.165
	L26.8,25.43z M27.556,25.393l-0.081-0.707c0.451-0.052,0.876-0.166,1.265-0.34l0.291,0.65C28.576,25.199,28.08,25.333,27.556,25.393
	z M24.602,25.055c-0.448-0.14-0.909-0.32-1.369-0.537l0.302-0.645c0.432,0.203,0.863,0.372,1.279,0.502L24.602,25.055z
	 M29.705,24.625l-0.394-0.593c0.358-0.237,0.679-0.536,0.953-0.888l0.562,0.438C30.503,23.994,30.126,24.344,29.705,24.625z
	 M22.58,24.188c-0.414-0.224-0.833-0.479-1.246-0.757l0.398-0.59c0.394,0.266,0.793,0.508,1.186,0.721L22.58,24.188z M31.25,22.949
	l-0.619-0.354c0.211-0.368,0.385-0.783,0.518-1.233l0.684,0.201C31.682,22.067,31.486,22.534,31.25,22.949z M32.007,20.839
	l-0.697-0.137c0.041-0.213,0.076-0.436,0.102-0.662l0.707,0.083C32.09,20.368,32.052,20.609,32.007,20.839z"/>
<path fill="#ECECEC" d="M21.334,23.431c-2.256-1.522-4.352-3.741-6.062-6.414c-2.022-3.162-3.245-6.575-3.442-9.61
	c-0.203-3.112,0.693-5.471,2.523-6.641c1.83-1.171,4.347-0.995,7.086,0.495c2.672,1.453,5.258,3.994,7.28,7.156
	c2.521,3.943,3.793,8.319,3.399,11.706l-0.707-0.082c0.375-3.229-0.855-7.431-3.292-11.24c-4.003-6.26-10.007-9.595-13.383-7.436
	C13.135,2.39,12.354,4.519,12.54,7.36c0.19,2.918,1.374,6.211,3.332,9.273c1.658,2.593,3.685,4.739,5.86,6.208L21.334,23.431z"/>
<path fill="#FFFFFF" d="M18.524,32.559c-3.009,0-5.399-0.959-6.786-2.74l0.562-0.437c1.36,1.748,3.841,2.615,6.985,2.445
	c1.933-0.104,4.065-0.607,6.168-1.459l0.268,0.66c-2.175,0.879-4.387,1.402-6.397,1.51C19.052,32.553,18.786,32.559,18.524,32.559z"
	/>
<path fill="#FFFFFF" d="M32.035,27.493l-0.543-0.705c6.061-4.662,8.803-10.966,6.381-14.663c-1.27-1.938-3.787-2.917-7.086-2.755
	c-3.385,0.166-7.162,1.511-10.635,3.785c-0.495,0.324-1.002,0.684-1.507,1.066l-0.538-0.708c0.521-0.396,1.046-0.767,1.558-1.103
	c3.603-2.359,7.537-3.756,11.079-3.93c3.627-0.179,6.424,0.942,7.873,3.156c1.33,2.029,1.359,4.781,0.084,7.748
	C37.468,22.254,35.101,25.133,32.035,27.493z"/>
<path fill="#FFFFFF" d="M25.72,31.027l-0.268-0.66c0.322-0.129,0.647-0.27,0.967-0.414l0.295,0.646
	C26.385,30.75,26.05,30.895,25.72,31.027z M27.205,30.371l-0.309-0.641c0.313-0.151,0.629-0.311,0.939-0.476l0.334,0.628
	C27.851,30.053,27.527,30.217,27.205,30.371z M28.645,29.624l-0.347-0.621c0.303-0.17,0.609-0.349,0.908-0.532l0.371,0.607
	C29.271,29.265,28.957,29.45,28.645,29.624z M30.037,28.791l-0.383-0.6c0.08-0.052,0.162-0.104,0.243-0.157
	c0.214-0.141,0.425-0.283,0.632-0.428l0.408,0.583c-0.215,0.149-0.434,0.298-0.65,0.439C30.204,28.683,30.121,28.737,30.037,28.791z
	 M31.376,27.875l-0.419-0.575c0.199-0.146,0.396-0.293,0.589-0.441l0.434,0.564C31.783,27.575,31.582,27.726,31.376,27.875z"/>
<path fill="#FFFFFF" d="M11.809,29.764c-0.103-0.133-0.193-0.259-0.276-0.386c-0.11-0.168-0.213-0.344-0.305-0.522l0.474-0.244
	c0.083,0.162,0.177,0.321,0.277,0.475c0.075,0.114,0.157,0.229,0.251,0.35L11.809,29.764z M10.995,28.347
	c-0.136-0.339-0.243-0.698-0.317-1.067l0.523-0.106c0.068,0.338,0.166,0.666,0.29,0.976L10.995,28.347z M10.59,26.731
	c-0.033-0.279-0.05-0.568-0.05-0.86c0-0.081,0.001-0.163,0.004-0.245l0.533,0.017c-0.002,0.076-0.003,0.152-0.003,0.229
	c0,0.271,0.016,0.539,0.046,0.798L10.59,26.731z M11.11,25.126l-0.531-0.051c0.034-0.354,0.092-0.719,0.171-1.085l0.521,0.113
	C11.197,24.45,11.143,24.794,11.11,25.126z M11.395,23.599l-0.515-0.14c0.092-0.342,0.205-0.691,0.334-1.039l0.5,0.186
	C11.59,22.939,11.483,23.273,11.395,23.599z M11.906,22.12l-0.493-0.206c0.136-0.325,0.291-0.657,0.458-0.986l0.476,0.242
	C12.186,21.487,12.037,21.806,11.906,22.12z M12.593,20.707l-0.467-0.258c0.172-0.311,0.358-0.624,0.555-0.932l0.45,0.286
	C12.94,20.102,12.759,20.407,12.593,20.707z M13.42,19.365l-0.441-0.301c0.2-0.293,0.413-0.588,0.634-0.877l0.424,0.323
	C13.822,18.792,13.615,19.079,13.42,19.365z M14.362,18.096l-0.416-0.335c0.222-0.276,0.457-0.554,0.699-0.824l0.398,0.354
	C14.808,17.556,14.579,17.827,14.362,18.096z M15.399,16.902l-0.39-0.364c0.242-0.26,0.496-0.52,0.754-0.772l0.374,0.382
	C15.884,16.394,15.636,16.648,15.399,16.902z M16.518,15.782l-0.365-0.39c0.26-0.243,0.53-0.486,0.803-0.721l0.348,0.404
	C17.037,15.305,16.772,15.543,16.518,15.782z M17.708,14.736l-0.34-0.412c0.275-0.228,0.56-0.452,0.846-0.669l0.322,0.425
	C18.257,14.292,17.978,14.513,17.708,14.736z"/>
</svg>
