<?xml version="1.0" encoding="utf-8"?>
<!-- Generator: Adobe Illustrator 16.0.0, SVG Export Plug-In . SVG Version: 6.00 Build 0)  -->
<!DOCTYPE svg PUBLIC "-//W3C//DTD SVG 1.1//EN" "http://www.w3.org/Graphics/SVG/1.1/DTD/svg11.dtd">
<svg version="1.1" xmlns="http://www.w3.org/2000/svg" xmlns:xlink="http://www.w3.org/1999/xlink" x="0px" y="0px" width="15.5px"
	 height="16.282px" viewBox="0 0 15.5 16.282" enable-background="new 0 0 15.5 16.282" xml:space="preserve">
<g id="b_x26_f3-rigjt">
	<path fill="none" stroke="#AAABAE" stroke-width="3" stroke-linecap="round" stroke-linejoin="round" stroke-miterlimit="10" d="
		M7.89,14.782l5.734-5.735c0.501-0.5,0.501-1.311,0-1.812L7.89,1.5"/>
	
		<line fill="none" stroke="#AAABAE" stroke-width="3" stroke-linecap="round" stroke-miterlimit="10" x1="14" y1="8.142" x2="1.5" y2="8.142"/>
</g>
<g id="b_x26_f3-left" display="none">
	
		<path display="inline" fill="none" stroke="#91969B" stroke-width="3" stroke-linecap="round" stroke-linejoin="round" stroke-miterlimit="10" d="
		M1.284,14.782L-4.45,9.047c-0.501-0.5-0.501-1.311,0-1.812L1.284,1.5"/>
	
		<line display="inline" fill="none" stroke="#91969B" stroke-width="3" stroke-linecap="round" stroke-miterlimit="10" x1="-4.826" y1="8.142" x2="7.674" y2="8.142"/>
</g>
<g id="b_x26_f2-right">
	<path fill="none" stroke="#91969B" stroke-linecap="round" stroke-linejoin="round" stroke-miterlimit="10" d="M-16.818,2.195
		c-3.952,0-7.156,3.204-7.156,7.156s3.204,7.156,7.156,7.156"/>
	<polyline fill="none" stroke="#91969B" stroke-linecap="round" stroke-linejoin="round" stroke-miterlimit="10" points="
		-18.307,4.485 -14.613,2.21 -18.307,-0.062 	"/>
</g>
<g id="b_x26_f2-left">
	<path fill="none" stroke="#91969B" stroke-linecap="round" stroke-linejoin="round" stroke-miterlimit="10" d="M-34.089,2.032
		c3.952,0,7.156,3.204,7.156,7.156s-3.204,7.156-7.156,7.156"/>
	<polyline fill="none" stroke="#91969B" stroke-linecap="round" stroke-linejoin="round" stroke-miterlimit="10" points="
		-32.601,4.322 -36.294,2.047 -32.601,-0.226 	"/>
</g>
<g id="back_x26_forward">
	<path fill="#91969B" d="M-57.479,5.192l2.296,2.281l4.221,4.221c0.299,0.299,0.262,0.82-0.084,1.164l-1.039,1.041
		c-0.346,0.344-0.867,0.383-1.166,0.084l-5.984-5.986c-0.299-0.297-0.261-0.818,0.083-1.164L-57.479,5.192z M-55.185,7.474
		l4.222-4.221c0.299-0.299,0.26-0.82-0.084-1.164l-1.041-1.039c-0.344-0.346-0.865-0.383-1.162-0.086l-4.229,4.229L-55.185,7.474z
		 M-53.57,9.087h6.773c0.422,0,0.764-0.396,0.764-0.883V6.733c0-0.488-0.342-0.883-0.764-0.883h-5.971l-0.795,0.002l-1.621,1.621
		L-53.57,9.087z"/>
</g>
<g id="back_x26_forward1">
	<path fill="#91969B" d="M-61.853,9.749l-2.296-2.279l-4.221-4.223c-0.299-0.299-0.262-0.82,0.084-1.164l1.039-1.041
		c0.346-0.344,0.867-0.381,1.166-0.084l5.984,5.986c0.299,0.299,0.261,0.818-0.083,1.164L-61.853,9.749z"/>
	<path fill="#91969B" d="M-64.147,7.468l-4.222,4.223c-0.299,0.299-0.26,0.82,0.084,1.164l1.041,1.039
		c0.344,0.346,0.865,0.383,1.162,0.086l4.229-4.229L-64.147,7.468z"/>
	<path fill="#91969B" d="M-65.762,5.856h-6.773c-0.422,0-0.764,0.395-0.764,0.883V8.21c0,0.488,0.342,0.883,0.764,0.883h5.971
		l0.795-0.004l1.621-1.619L-65.762,5.856z"/>
</g>
<g id="图层_10">
	
		<polyline fill="none" stroke="#20C05C" stroke-width="3" stroke-linecap="round" stroke-linejoin="round" stroke-miterlimit="10" points="
		-102.049,7.118 -94.734,13.502 -82.044,0.472 	"/>
</g>
<g id="arrow2">
	
		<polyline fill="none" stroke="#91969B" stroke-width="2" stroke-linecap="round" stroke-linejoin="round" stroke-miterlimit="10" points="
		-116.696,0.972 -111.672,5.997 -116.646,10.972 	"/>
</g>
<g id="arrow1">
	<polyline fill="none" stroke="#91969B" stroke-width="2" stroke-miterlimit="10" points="-30.811,-28.821 -21.871,-19.883 
		-30.871,-10.883 	"/>
</g>
<g id="forward-btn">
	<path fill="#AAABAE" d="M-42.32-18.528l-5.771,5.463l1.48-5.463 M-42.32-18.528 M-42.32-18.528l-5.771-5.464l1.48,5.464"/>
	<rect x="-54.354" y="-19.862" fill="#AAABAE" width="8.078" height="2.469"/>
	<circle fill="none" stroke="#AAABAE" stroke-width="2" stroke-miterlimit="10" cx="-48.578" cy="-18.528" r="10"/>
</g>
<g id="back-btn">
	<path fill="#AAABAE" d="M-78.544-18.528l1.48,5.463l-5.772-5.463 M-82.836-18.528 M-78.544-18.528l1.48-5.464l-5.772,5.464"/>
	<rect x="-78.881" y="-19.862" fill="#AAABAE" width="8.078" height="2.469"/>
	<circle fill="none" stroke="#AAABAE" stroke-width="2" stroke-miterlimit="10" cx="-76.578" cy="-18.528" r="10"/>
</g>
<g id="tag1-btn2">
	
		<polyline fill="none" stroke="#91969B" stroke-width="2" stroke-linecap="round" stroke-linejoin="round" stroke-miterlimit="10" points="
		72.385,-58.921 79.402,-51.905 72.401,-44.903 	"/>
	
		<polyline fill="none" stroke="#91969B" stroke-width="2" stroke-linecap="round" stroke-linejoin="round" stroke-miterlimit="10" points="
		64.42,-58.921 57.402,-51.905 64.404,-44.903 	"/>
	
		<line fill="none" stroke="#91969B" stroke-width="2" stroke-linecap="round" stroke-linejoin="round" stroke-miterlimit="10" x1="70.42" y1="-60.412" x2="66.422" y2="-43.412"/>
</g>
<g id="tag1-btn">
	<polyline fill="none" stroke="#91969B" stroke-width="2.5" stroke-linejoin="round" stroke-miterlimit="10" points="
		-110.54,-14.069 -117.828,-21.356 -110.54,-28.644 	"/>
	<polyline fill="none" stroke="#91969B" stroke-width="2.5" stroke-linejoin="round" stroke-miterlimit="10" points="
		-102.116,-14.069 -94.828,-21.356 -102.116,-28.644 	"/>
	
		<line fill="none" stroke="#91969B" stroke-width="2.5" stroke-linejoin="round" stroke-miterlimit="10" x1="-104.603" y1="-29.082" x2="-108.648" y2="-13.632"/>
</g>
<g id="tag-btn">
	
		<line fill="none" stroke="#91969B" stroke-width="2.5" stroke-linecap="round" stroke-miterlimit="10" x1="-29.207" y1="-53.451" x2="-11.707" y2="-53.451"/>
	
		<line fill="none" stroke="#91969B" stroke-width="2.5" stroke-linecap="round" stroke-miterlimit="10" x1="-29.207" y1="-47.024" x2="-11.707" y2="-47.024"/>
	
		<line fill="none" stroke="#91969B" stroke-width="2.5" stroke-linecap="round" stroke-miterlimit="10" x1="-22.174" y1="-58.334" x2="-25.863" y2="-40.833"/>
	
		<line fill="none" stroke="#91969B" stroke-width="2.5" stroke-linecap="round" stroke-miterlimit="10" x1="-15.117" y1="-58.334" x2="-18.72" y2="-40.833"/>
</g>
<g id="pic-btn2">
	
		<path display="none" fill="none" stroke="#91969B" stroke-width="2" stroke-linecap="round" stroke-linejoin="round" stroke-miterlimit="10" d="
		M47.922-41.095c0,1.195-0.748,2.162-1.668,2.162H29.588c-0.918,0-1.666-0.967-1.666-2.162v-15.676c0-1.195,0.748-2.162,1.666-2.162
		h16.666c0.92,0,1.668,0.967,1.668,2.162V-41.095z"/>
	
		<polyline fill="none" stroke="#91969B" stroke-width="2" stroke-linecap="round" stroke-linejoin="round" stroke-miterlimit="10" points="
		47.229,-45.98 43.26,-49.701 38.238,-44.856 36.344,-47.197 29.087,-41.176 	"/>
	<circle fill="#91969B" cx="33.882" cy="-53.017" r="2.45"/>
	<path fill="none" stroke="#91969B" stroke-width="2" stroke-linecap="round" stroke-linejoin="round" stroke-miterlimit="10" d="
		M48.005-43.13c0,2.116-1.798,3.833-4.018,3.833H32.022c-2.219,0-4.018-1.717-4.018-3.833v-11.419c0-2.116,1.799-3.833,4.018-3.833
		h11.965c2.22,0,4.018,1.717,4.018,3.833V-43.13z"/>
</g>
<g id="pic-btn">
	<path fill="none" stroke="#91969B" stroke-width="2" stroke-miterlimit="10" d="M-38.078-44.063c0,1.059-0.859,1.917-1.918,1.917
		h-19.166c-1.057,0-1.916-0.857-1.916-1.917v-13.895c0-1.059,0.859-1.917,1.916-1.917h19.166c1.059,0,1.918,0.857,1.918,1.917
		V-44.063z"/>
	<polyline fill="none" stroke="#91969B" stroke-width="2" stroke-miterlimit="10" points="-61.078,-48.095 -57.007,-51.489 
		-51.247,-46.482 -49.061,-49.053 -40.314,-42.146 	"/>
	<circle fill="none" stroke="#91969B" stroke-width="2" stroke-miterlimit="10" cx="-44.427" cy="-53.834" r="2.456"/>
</g>
<g id="delete-btn2">
	<g>
		<path fill="#91969B" d="M13.789-57.189c0.004-0.032,0.015-0.06,0.015-0.092c0-1.742-1.235-3.16-2.753-3.16H8.165
			c-1.519,0-2.755,1.417-2.755,3.16c0,0.033,0.015,0.06,0.017,0.092H13.789z M6.809-57.281c0-0.857,0.61-1.556,1.356-1.556h2.886
			c0.747,0,1.355,0.698,1.355,1.556c0,0.033,0.015,0.06,0.016,0.092H6.794C6.797-57.221,6.809-57.25,6.809-57.281z"/>
	</g>
	<path fill="#91969B" d="M18.831-54.906h-18l0,0c0-1.296,0.932-2.345,2.085-2.345h13.831C17.899-57.251,18.831-56.202,18.831-54.906
		L18.831-54.906z"/>
	<path display="none" fill="none" stroke="#91969B" stroke-width="1.5" stroke-miterlimit="10" d="M17.732-41.333
		c0,1.107-0.708,2.005-1.581,2.005H3.513c-0.873,0-1.581-0.898-1.581-2.005v-12.91h15.801V-41.333z"/>
	<path fill="#91969B" d="M6.795-42.086c0,0.455-0.395,0.824-0.88,0.824l0,0c-0.487,0-0.88-0.369-0.88-0.824v-8.248
		c0-0.455,0.393-0.824,0.88-0.824l0,0c0.485,0,0.88,0.369,0.88,0.824V-42.086z"/>
	<path fill="#91969B" d="M10.854-42.086c0,0.455-0.393,0.824-0.879,0.824l0,0c-0.485,0-0.88-0.369-0.88-0.824v-8.248
		c0-0.455,0.395-0.824,0.88-0.824l0,0c0.486,0,0.879,0.369,0.879,0.824V-42.086z"/>
	<path fill="#91969B" d="M14.857-42.086c0,0.455-0.393,0.824-0.88,0.824l0,0c-0.486,0-0.88-0.369-0.88-0.824v-8.248
		c0-0.455,0.394-0.824,0.88-0.824l0,0c0.487,0,0.88,0.369,0.88,0.824V-42.086z"/>
	<path fill="none" stroke="#91969B" stroke-width="1.8" stroke-miterlimit="10" d="M17.347-44.117c0,2.582-1.597,4.676-3.566,4.676
		H5.881c-1.969,0-3.566-2.094-3.566-4.676v-8.862h15.032V-44.117z"/>
</g>
<g id="delet-btn">
	
		<polyline fill="none" stroke="#91969B" stroke-width="2.5" stroke-linecap="round" stroke-linejoin="bevel" stroke-miterlimit="10" points="
		-88.578,-55.182 -81.52,-55.182 -68.578,-55.182 	"/>
	<path fill="none" stroke="#91969B" stroke-width="2" stroke-miterlimit="10" d="M-81.879-55.274
		c-0.714-0.923,0.714-3.232,3.25-3.232c2.538,0,4.033,2.309,3.382,3.232"/>
	<path display="none" fill="none" stroke="#91969B" stroke-width="1.5" stroke-miterlimit="10" d="M-86.903-56.666
		c0,0,2.957,18.98,3.039,19.42c0.144,0.471,0.561,0.717,0.731,0.717c0.168,0,8.721-0.008,9.031,0
		c0.31,0.007,0.634-0.249,0.791-0.808c0.076-0.509,2.963-19.33,2.963-19.33"/>
	<polygon display="none" fill="#91969B" points="-83.024,-50.897 -80.164,-50.897 -80.164,-39.58 	"/>
	
		<line fill="none" stroke="#91969B" stroke-width="1.5" stroke-miterlimit="10" x1="-86.336" y1="-51.912" x2="-70.82" y2="-51.912"/>
	<line display="none" fill="none" stroke="#91969B" stroke-miterlimit="10" x1="-83.854" y1="-38.497" x2="-73.302" y2="-38.497"/>
	<polygon display="none" fill="#91969B" points="-74.133,-50.897 -76.993,-50.897 -76.993,-39.58 	"/>
	
		<line fill="none" stroke="#91969B" stroke-width="2" stroke-linecap="round" stroke-miterlimit="10" x1="-82.325" y1="-48.957" x2="-82.325" y2="-41.146"/>
	
		<line fill="none" stroke="#91969B" stroke-width="2" stroke-linecap="round" stroke-miterlimit="10" x1="-78.499" y1="-48.957" x2="-78.499" y2="-41.146"/>
	
		<line fill="none" stroke="#91969B" stroke-width="2" stroke-linecap="round" stroke-miterlimit="10" x1="-74.832" y1="-48.957" x2="-74.832" y2="-41.146"/>
	<path fill="none" stroke="#91969B" stroke-width="2" stroke-miterlimit="10" d="M-70.218-41.438c0,1.975-1.791,3.577-4,3.577
		h-8.563c-2.209,0-4-1.602-4-3.577v-10.21c0-1.975,1.791-3.577,4-3.577h8.563c2.209,0,4,1.602,4,3.577V-41.438z"/>
</g>
<g id="save-btn">
	<rect x="-110.215" y="-58.05" fill="#91969B" width="3.136" height="4.787"/>
	<path fill="none" stroke="#91969B" stroke-width="2" stroke-miterlimit="10" d="M-97.078-39.796c0,0.735-0.596,1.333-1.334,1.333
		h-17.332c-0.737,0-1.334-0.598-1.334-1.333v-17.332c0-0.735,0.597-1.333,1.334-1.333c0,0,13.108,0,15.183,0
		c1.676-0.077,3.431,1.77,3.483,4.538C-97.078-51.692-97.078-39.796-97.078-39.796z"/>
	<polyline fill="none" stroke="#91969B" stroke-width="2" stroke-miterlimit="10" points="-102.953,-57.878 -102.953,-51.01 
		-113.071,-51.01 -113.071,-57.878 	"/>
	<path fill="none" stroke="#91969B" stroke-width="2" stroke-miterlimit="10" d="M-113.515-38.72v-6.771
		c0-0.581,0.571-1.051,1.277-1.051h10.32c0.706,0,1.276,0.47,1.276,1.051v6.725"/>
</g>
</svg>
