<?xml version="1.0" encoding="utf-8"?>
<!-- Generator: Adobe Illustrator 16.0.0, SVG Export Plug-In . SVG Version: 6.00 Build 0)  -->
<!DOCTYPE svg PUBLIC "-//W3C//DTD SVG 1.1//EN" "http://www.w3.org/Graphics/SVG/1.1/DTD/svg11.dtd">
<svg version="1.1" xmlns="http://www.w3.org/2000/svg" xmlns:xlink="http://www.w3.org/1999/xlink" x="0px" y="0px" width="15.5px"
	 height="16.282px" viewBox="0 0 15.5 16.282" enable-background="new 0 0 15.5 16.282" xml:space="preserve">
<g id="b_x26_f3-rigjt" display="none">
	
		<path display="inline" fill="none" stroke="#AAABAE" stroke-width="3" stroke-linecap="round" stroke-linejoin="round" stroke-miterlimit="10" d="
		M14.216,14.782l5.734-5.735c0.501-0.5,0.501-1.311,0-1.812L14.216,1.5"/>
	
		<line display="inline" fill="none" stroke="#AAABAE" stroke-width="3" stroke-linecap="round" stroke-miterlimit="10" x1="20.326" y1="8.142" x2="7.826" y2="8.142"/>
</g>
<g id="b_x26_f3-left">
	<path fill="none" stroke="#707070" stroke-width="2.5" stroke-linecap="round" stroke-linejoin="round" stroke-miterlimit="10" d="
		M7.61,14.782L1.876,9.047c-0.501-0.5-0.501-1.311,0-1.812L7.61,1.5"/>
	
		<line fill="none" stroke="#707070" stroke-width="2.5" stroke-linecap="round" stroke-miterlimit="10" x1="1.5" y1="8.142" x2="14" y2="8.142"/>
</g>
<g id="b_x26_f2-right">
	<path fill="none" stroke="#91969B" stroke-linecap="round" stroke-linejoin="round" stroke-miterlimit="10" d="M-10.492,2.195
		c-3.952,0-7.156,3.204-7.156,7.156s3.204,7.156,7.156,7.156"/>
	<polyline fill="none" stroke="#91969B" stroke-linecap="round" stroke-linejoin="round" stroke-miterlimit="10" points="
		-11.98,4.485 -8.287,2.21 -11.98,-0.062 	"/>
</g>
<g id="b_x26_f2-left">
	<path fill="none" stroke="#91969B" stroke-linecap="round" stroke-linejoin="round" stroke-miterlimit="10" d="M-27.763,2.032
		c3.952,0,7.156,3.204,7.156,7.156s-3.204,7.156-7.156,7.156"/>
	<polyline fill="none" stroke="#91969B" stroke-linecap="round" stroke-linejoin="round" stroke-miterlimit="10" points="
		-26.274,4.322 -29.968,2.047 -26.274,-0.226 	"/>
</g>
<g id="back_x26_forward">
	<path fill="#91969B" d="M-51.153,5.192l2.296,2.281l4.221,4.221c0.299,0.299,0.262,0.82-0.084,1.164l-1.039,1.041
		c-0.346,0.344-0.867,0.383-1.166,0.084l-5.984-5.986c-0.299-0.297-0.261-0.818,0.083-1.164L-51.153,5.192z M-48.858,7.474
		l4.222-4.221c0.299-0.299,0.26-0.82-0.084-1.164l-1.041-1.039c-0.344-0.346-0.865-0.383-1.162-0.086l-4.229,4.229L-48.858,7.474z
		 M-47.244,9.087h6.773c0.422,0,0.764-0.396,0.764-0.883V6.733c0-0.488-0.342-0.883-0.764-0.883h-5.971l-0.795,0.002l-1.621,1.621
		L-47.244,9.087z"/>
</g>
<g id="back_x26_forward1">
	<path fill="#91969B" d="M-55.526,9.749l-2.296-2.279l-4.221-4.223c-0.299-0.299-0.262-0.82,0.084-1.164l1.039-1.041
		c0.346-0.344,0.867-0.381,1.166-0.084l5.984,5.986c0.299,0.299,0.261,0.818-0.083,1.164L-55.526,9.749z"/>
	<path fill="#91969B" d="M-57.821,7.468l-4.222,4.223c-0.299,0.299-0.26,0.82,0.084,1.164l1.041,1.039
		c0.344,0.346,0.865,0.383,1.162,0.086l4.229-4.229L-57.821,7.468z"/>
	<path fill="#91969B" d="M-59.436,5.856h-6.773c-0.422,0-0.764,0.395-0.764,0.883V8.21c0,0.488,0.342,0.883,0.764,0.883h5.971
		l0.795-0.004l1.621-1.619L-59.436,5.856z"/>
</g>
<g id="图层_10">
	
		<polyline fill="none" stroke="#20C05C" stroke-width="3" stroke-linecap="round" stroke-linejoin="round" stroke-miterlimit="10" points="
		-95.723,7.118 -88.408,13.502 -75.718,0.472 	"/>
</g>
<g id="arrow2">
	
		<polyline fill="none" stroke="#91969B" stroke-width="2" stroke-linecap="round" stroke-linejoin="round" stroke-miterlimit="10" points="
		-110.37,0.972 -105.346,5.997 -110.32,10.972 	"/>
</g>
<g id="arrow1">
	<polyline fill="none" stroke="#91969B" stroke-width="2" stroke-miterlimit="10" points="-24.484,-28.821 -15.545,-19.883 
		-24.545,-10.883 	"/>
</g>
<g id="forward-btn">
	<path fill="#AAABAE" d="M-35.994-18.528l-5.771,5.463l1.48-5.463 M-35.994-18.528 M-35.994-18.528l-5.771-5.464l1.48,5.464"/>
	<rect x="-48.027" y="-19.862" fill="#AAABAE" width="8.078" height="2.469"/>
	<circle fill="none" stroke="#AAABAE" stroke-width="2" stroke-miterlimit="10" cx="-42.252" cy="-18.528" r="10"/>
</g>
<g id="back-btn">
	<path fill="#AAABAE" d="M-72.218-18.528l1.48,5.463l-5.772-5.463 M-76.51-18.528 M-72.218-18.528l1.48-5.464l-5.772,5.464"/>
	<rect x="-72.555" y="-19.862" fill="#AAABAE" width="8.078" height="2.469"/>
	<circle fill="none" stroke="#AAABAE" stroke-width="2" stroke-miterlimit="10" cx="-70.252" cy="-18.528" r="10"/>
</g>
<g id="tag1-btn2">
	
		<polyline fill="none" stroke="#91969B" stroke-width="2" stroke-linecap="round" stroke-linejoin="round" stroke-miterlimit="10" points="
		78.711,-58.921 85.729,-51.905 78.728,-44.903 	"/>
	
		<polyline fill="none" stroke="#91969B" stroke-width="2" stroke-linecap="round" stroke-linejoin="round" stroke-miterlimit="10" points="
		70.746,-58.921 63.729,-51.905 70.73,-44.903 	"/>
	
		<line fill="none" stroke="#91969B" stroke-width="2" stroke-linecap="round" stroke-linejoin="round" stroke-miterlimit="10" x1="76.746" y1="-60.412" x2="72.748" y2="-43.412"/>
</g>
<g id="tag1-btn">
	<polyline fill="none" stroke="#91969B" stroke-width="2.5" stroke-linejoin="round" stroke-miterlimit="10" points="
		-104.214,-14.069 -111.502,-21.356 -104.214,-28.644 	"/>
	<polyline fill="none" stroke="#91969B" stroke-width="2.5" stroke-linejoin="round" stroke-miterlimit="10" points="
		-95.79,-14.069 -88.502,-21.356 -95.79,-28.644 	"/>
	
		<line fill="none" stroke="#91969B" stroke-width="2.5" stroke-linejoin="round" stroke-miterlimit="10" x1="-98.277" y1="-29.082" x2="-102.322" y2="-13.632"/>
</g>
<g id="tag-btn">
	
		<line fill="none" stroke="#91969B" stroke-width="2.5" stroke-linecap="round" stroke-miterlimit="10" x1="-22.881" y1="-53.451" x2="-5.381" y2="-53.451"/>
	
		<line fill="none" stroke="#91969B" stroke-width="2.5" stroke-linecap="round" stroke-miterlimit="10" x1="-22.881" y1="-47.024" x2="-5.381" y2="-47.024"/>
	
		<line fill="none" stroke="#91969B" stroke-width="2.5" stroke-linecap="round" stroke-miterlimit="10" x1="-15.848" y1="-58.334" x2="-19.537" y2="-40.833"/>
	
		<line fill="none" stroke="#91969B" stroke-width="2.5" stroke-linecap="round" stroke-miterlimit="10" x1="-8.791" y1="-58.334" x2="-12.394" y2="-40.833"/>
</g>
<g id="pic-btn2">
	
		<path display="none" fill="none" stroke="#91969B" stroke-width="2" stroke-linecap="round" stroke-linejoin="round" stroke-miterlimit="10" d="
		M54.248-41.095c0,1.195-0.748,2.162-1.668,2.162H35.914c-0.918,0-1.666-0.967-1.666-2.162v-15.676c0-1.195,0.748-2.162,1.666-2.162
		H52.58c0.92,0,1.668,0.967,1.668,2.162V-41.095z"/>
	
		<polyline fill="none" stroke="#91969B" stroke-width="2" stroke-linecap="round" stroke-linejoin="round" stroke-miterlimit="10" points="
		53.556,-45.98 49.586,-49.701 44.564,-44.856 42.67,-47.197 35.413,-41.176 	"/>
	<circle fill="#91969B" cx="40.208" cy="-53.017" r="2.45"/>
	<path fill="none" stroke="#91969B" stroke-width="2" stroke-linecap="round" stroke-linejoin="round" stroke-miterlimit="10" d="
		M54.331-43.13c0,2.116-1.798,3.833-4.018,3.833H38.349c-2.219,0-4.018-1.717-4.018-3.833v-11.419c0-2.116,1.799-3.833,4.018-3.833
		h11.965c2.22,0,4.018,1.717,4.018,3.833V-43.13z"/>
</g>
<g id="pic-btn">
	<path fill="none" stroke="#91969B" stroke-width="2" stroke-miterlimit="10" d="M-31.752-44.063c0,1.059-0.859,1.917-1.918,1.917
		h-19.166c-1.057,0-1.916-0.857-1.916-1.917v-13.895c0-1.059,0.859-1.917,1.916-1.917h19.166c1.059,0,1.918,0.857,1.918,1.917
		V-44.063z"/>
	<polyline fill="none" stroke="#91969B" stroke-width="2" stroke-miterlimit="10" points="-54.752,-48.095 -50.681,-51.489 
		-44.921,-46.482 -42.734,-49.053 -33.988,-42.146 	"/>
	<circle fill="none" stroke="#91969B" stroke-width="2" stroke-miterlimit="10" cx="-38.101" cy="-53.834" r="2.456"/>
</g>
<g id="delete-btn2">
	<g>
		<path fill="#91969B" d="M20.115-57.189c0.004-0.032,0.015-0.06,0.015-0.092c0-1.742-1.235-3.16-2.753-3.16h-2.886
			c-1.519,0-2.755,1.417-2.755,3.16c0,0.033,0.015,0.06,0.017,0.092H20.115z M13.135-57.281c0-0.857,0.61-1.556,1.356-1.556h2.886
			c0.747,0,1.355,0.698,1.355,1.556c0,0.033,0.015,0.06,0.016,0.092H13.12C13.123-57.221,13.135-57.25,13.135-57.281z"/>
	</g>
	<path fill="#91969B" d="M25.157-54.906h-18l0,0c0-1.296,0.932-2.345,2.085-2.345h13.831C24.226-57.251,25.157-56.202,25.157-54.906
		L25.157-54.906z"/>
	<path display="none" fill="none" stroke="#91969B" stroke-width="1.5" stroke-miterlimit="10" d="M24.059-41.333
		c0,1.107-0.708,2.005-1.581,2.005H9.839c-0.873,0-1.581-0.898-1.581-2.005v-12.91h15.801V-41.333z"/>
	<path fill="#91969B" d="M13.121-42.086c0,0.455-0.395,0.824-0.88,0.824l0,0c-0.487,0-0.88-0.369-0.88-0.824v-8.248
		c0-0.455,0.393-0.824,0.88-0.824l0,0c0.485,0,0.88,0.369,0.88,0.824V-42.086z"/>
	<path fill="#91969B" d="M17.181-42.086c0,0.455-0.393,0.824-0.879,0.824l0,0c-0.485,0-0.88-0.369-0.88-0.824v-8.248
		c0-0.455,0.395-0.824,0.88-0.824l0,0c0.486,0,0.879,0.369,0.879,0.824V-42.086z"/>
	<path fill="#91969B" d="M21.184-42.086c0,0.455-0.393,0.824-0.88,0.824l0,0c-0.486,0-0.88-0.369-0.88-0.824v-8.248
		c0-0.455,0.394-0.824,0.88-0.824l0,0c0.487,0,0.88,0.369,0.88,0.824V-42.086z"/>
	<path fill="none" stroke="#91969B" stroke-width="1.8" stroke-miterlimit="10" d="M23.673-44.117c0,2.582-1.597,4.676-3.566,4.676
		h-7.899c-1.969,0-3.566-2.094-3.566-4.676v-8.862h15.032V-44.117z"/>
</g>
<g id="delet-btn">
	
		<polyline fill="none" stroke="#91969B" stroke-width="2.5" stroke-linecap="round" stroke-linejoin="bevel" stroke-miterlimit="10" points="
		-82.252,-55.182 -75.194,-55.182 -62.252,-55.182 	"/>
	<path fill="none" stroke="#91969B" stroke-width="2" stroke-miterlimit="10" d="M-75.553-55.274
		c-0.714-0.923,0.714-3.232,3.25-3.232c2.538,0,4.033,2.309,3.382,3.232"/>
	<path display="none" fill="none" stroke="#91969B" stroke-width="1.5" stroke-miterlimit="10" d="M-80.577-56.666
		c0,0,2.957,18.98,3.039,19.42c0.144,0.471,0.561,0.717,0.731,0.717c0.168,0,8.721-0.008,9.031,0
		c0.31,0.007,0.634-0.249,0.791-0.808c0.076-0.509,2.963-19.33,2.963-19.33"/>
	<polygon display="none" fill="#91969B" points="-76.698,-50.897 -73.837,-50.897 -73.837,-39.58 	"/>
	
		<line fill="none" stroke="#91969B" stroke-width="1.5" stroke-miterlimit="10" x1="-80.01" y1="-51.912" x2="-64.494" y2="-51.912"/>
	<line display="none" fill="none" stroke="#91969B" stroke-miterlimit="10" x1="-77.528" y1="-38.497" x2="-66.976" y2="-38.497"/>
	<polygon display="none" fill="#91969B" points="-67.807,-50.897 -70.667,-50.897 -70.667,-39.58 	"/>
	
		<line fill="none" stroke="#91969B" stroke-width="2" stroke-linecap="round" stroke-miterlimit="10" x1="-75.999" y1="-48.957" x2="-75.999" y2="-41.146"/>
	
		<line fill="none" stroke="#91969B" stroke-width="2" stroke-linecap="round" stroke-miterlimit="10" x1="-72.173" y1="-48.957" x2="-72.173" y2="-41.146"/>
	
		<line fill="none" stroke="#91969B" stroke-width="2" stroke-linecap="round" stroke-miterlimit="10" x1="-68.506" y1="-48.957" x2="-68.506" y2="-41.146"/>
	<path fill="none" stroke="#91969B" stroke-width="2" stroke-miterlimit="10" d="M-63.892-41.438c0,1.975-1.791,3.577-4,3.577
		h-8.563c-2.209,0-4-1.602-4-3.577v-10.21c0-1.975,1.791-3.577,4-3.577h8.563c2.209,0,4,1.602,4,3.577V-41.438z"/>
</g>
<g id="save-btn">
	<rect x="-103.889" y="-58.05" fill="#91969B" width="3.136" height="4.787"/>
	<path fill="none" stroke="#91969B" stroke-width="2" stroke-miterlimit="10" d="M-90.752-39.796c0,0.735-0.596,1.333-1.334,1.333
		h-17.332c-0.737,0-1.334-0.598-1.334-1.333v-17.332c0-0.735,0.597-1.333,1.334-1.333c0,0,13.108,0,15.183,0
		c1.676-0.077,3.431,1.77,3.483,4.538C-90.752-51.692-90.752-39.796-90.752-39.796z"/>
	<polyline fill="none" stroke="#91969B" stroke-width="2" stroke-miterlimit="10" points="-96.627,-57.878 -96.627,-51.01 
		-106.745,-51.01 -106.745,-57.878 	"/>
	<path fill="none" stroke="#91969B" stroke-width="2" stroke-miterlimit="10" d="M-107.189-38.72v-6.771
		c0-0.581,0.571-1.051,1.277-1.051h10.32c0.706,0,1.276,0.47,1.276,1.051v6.725"/>
</g>
</svg>
