<?xml version="1.0" encoding="utf-8"?>
<!-- Generator: Adobe Illustrator 16.0.0, SVG Export Plug-In . SVG Version: 6.00 Build 0)  -->
<!DOCTYPE svg PUBLIC "-//W3C//DTD SVG 1.1//EN" "http://www.w3.org/Graphics/SVG/1.1/DTD/svg11.dtd">
<svg version="1.1" xmlns="http://www.w3.org/2000/svg" xmlns:xlink="http://www.w3.org/1999/xlink" x="0px" y="0px" width="22px"
	 height="22px" viewBox="0 0 22 22" enable-background="new 0 0 22 22" xml:space="preserve">
<g id="forward-btn">
	<path fill="#AAABAE" d="M17.258,10.999l-5.771,5.464l1.48-5.464 M17.258,10.999 M17.258,10.999l-5.771-5.464l1.48,5.464"/>
	<rect x="5.225" y="9.665" fill="#AAABAE" width="8.078" height="2.47"/>
	<circle fill="none" stroke="#AAABAE" stroke-width="2" stroke-miterlimit="10" cx="11" cy="11" r="10"/>
</g>
<g id="back-btn" display="none">
	<path display="inline" fill="#AAABAE" d="M-30.138,11.099l1.48,5.464l-5.772-5.464 M-34.429,11.099 M-30.138,11.099l1.48-5.464
		l-5.772,5.464"/>
	<rect x="-30.474" y="9.765" display="inline" fill="#AAABAE" width="8.078" height="2.47"/>
	<circle display="inline" fill="none" stroke="#AAABAE" stroke-width="2" stroke-miterlimit="10" cx="-28.171" cy="11.1" r="10"/>
</g>
<g id="tag1-btn" display="none">
	
		<polyline display="inline" fill="none" stroke="#91969B" stroke-width="2.5" stroke-linejoin="round" stroke-miterlimit="10" points="
		-72.959,20.816 -82.678,11.099 -72.959,1.381 	"/>
	
		<polyline display="inline" fill="none" stroke="#91969B" stroke-width="2.5" stroke-linejoin="round" stroke-miterlimit="10" points="
		-61.726,20.816 -52.007,11.099 -61.726,1.381 	"/>
	
		<line display="inline" fill="none" stroke="#91969B" stroke-width="2.5" stroke-linejoin="round" stroke-miterlimit="10" x1="-65.042" y1="0.798" x2="-70.437" y2="21.4"/>
</g>
<g id="tag-btn" display="none">
	
		<line display="inline" fill="none" stroke="#91969B" stroke-width="2.5" stroke-miterlimit="10" x1="12.497" y1="-25.801" x2="36.733" y2="-25.801"/>
	
		<line display="inline" fill="none" stroke="#91969B" stroke-width="2.5" stroke-miterlimit="10" x1="12.497" y1="-18.413" x2="36.733" y2="-18.413"/>
	
		<line display="inline" fill="none" stroke="#91969B" stroke-width="2.5" stroke-miterlimit="10" x1="23.188" y1="-33.142" x2="18.199" y2="-9.375"/>
	
		<line display="inline" fill="none" stroke="#91969B" stroke-width="2.5" stroke-miterlimit="10" x1="31.03" y1="-33.657" x2="26.041" y2="-9.334"/>
</g>
<g id="pic-btn" display="none">
	<path display="inline" fill="none" stroke="#91969B" stroke-width="2" stroke-miterlimit="10" d="M5.497-14.539
		c0,1.23-0.998,2.227-2.229,2.227h-22.267c-1.228,0-2.226-0.996-2.226-2.227v-16.143c0-1.23,0.998-2.227,2.226-2.227H3.269
		c1.23,0,2.229,0.997,2.229,2.227V-14.539z"/>
	<polyline display="inline" fill="none" stroke="#91969B" stroke-width="2" stroke-miterlimit="10" points="-21.224,-19.223 
		-16.494,-23.167 -9.803,-17.35 -7.262,-20.336 2.899,-12.312 	"/>
	
		<circle display="inline" fill="none" stroke="#91969B" stroke-width="2" stroke-miterlimit="10" cx="-1.879" cy="-25.891" r="2.853"/>
</g>
<g id="delet-btn" display="none">
	
		<polyline display="inline" fill="none" stroke="#91969B" stroke-width="2.5" stroke-linejoin="bevel" stroke-miterlimit="10" points="
		-51.933,-29.142 -43.565,-29.142 -28.224,-29.142 	"/>
	<path display="inline" fill="none" stroke="#91969B" stroke-width="1.5" stroke-miterlimit="10" d="M-43.618-29.254
		c-0.767-1.115,0.766-3.904,3.486-3.904c2.722,0,4.325,2.79,3.627,3.904"/>
	<path display="inline" fill="none" stroke="#91969B" stroke-width="2" stroke-miterlimit="10" d="M-49.477-29.254
		c0,0,3.338,21.429,3.431,21.926c0.162,0.532,0.634,0.81,0.825,0.81c0.19,0,9.847-0.009,10.196,0s0.717-0.28,0.893-0.912
		c0.086-0.575,3.346-21.824,3.346-21.824"/>
	<polygon display="inline" fill="#91969B" points="-45.098,-22.741 -41.868,-22.741 -41.868,-9.964 	"/>
	
		<line display="inline" fill="none" stroke="#91969B" stroke-width="1.5" stroke-miterlimit="10" x1="-48.8" y1="-25.492" x2="-31.431" y2="-25.492"/>
	<line display="inline" fill="none" stroke="#91969B" stroke-miterlimit="10" x1="-46.035" y1="-8.742" x2="-34.121" y2="-8.742"/>
	<polygon display="inline" fill="#91969B" points="-35.06,-22.741 -38.289,-22.741 -38.289,-9.964 	"/>
</g>
<g id="save-btn" display="none">
	<rect x="-74.694" y="-32.394" display="inline" fill="#91969B" width="3.763" height="5.958"/>
	<path display="inline" fill="none" stroke="#91969B" stroke-width="2" stroke-miterlimit="10" d="M-58.933-9.675
		c0,0.916-0.716,1.659-1.601,1.659h-20.794c-0.884,0-1.601-0.743-1.601-1.659v-21.572c0-0.915,0.716-1.659,1.601-1.659
		c0,0,15.727,0,18.216,0c2.011-0.095,4.116,2.203,4.179,5.648C-58.933-24.481-58.933-9.675-58.933-9.675z"/>
	<polyline display="inline" fill="none" stroke="#91969B" stroke-width="2" stroke-miterlimit="10" points="-65.427,-32.18 
		-65.427,-23.406 -78.121,-23.406 -78.121,-32.18 	"/>
	<path display="inline" fill="none" stroke="#91969B" stroke-width="2" stroke-miterlimit="10" d="M-78.653-8.336v-8.427
		c0-0.724,0.686-1.309,1.532-1.309h12.381c0.846,0,1.531,0.585,1.531,1.309v8.37"/>
</g>
</svg>
