<?xml version="1.0" encoding="utf-8"?>
<!-- Generator: Adobe Illustrator 16.0.0, SVG Export Plug-In . SVG Version: 6.00 Build 0)  -->
<!DOCTYPE svg PUBLIC "-//W3C//DTD SVG 1.1//EN" "http://www.w3.org/Graphics/SVG/1.1/DTD/svg11.dtd">
<svg version="1.1" xmlns="http://www.w3.org/2000/svg" xmlns:xlink="http://www.w3.org/1999/xlink" x="0px" y="0px" width="19.75px"
	 height="16.394px" viewBox="0 0 19.75 16.394" enable-background="new 0 0 19.75 16.394" xml:space="preserve">
<g id="stretch-icon">
	<g>
		<g>
			<path fill="#91969B" d="M1.897,32.911l16-7.677l-4.923,7.677l4.923,7.676L1.897,32.911z"/>
		</g>
	</g>
</g>
<g id="test-icon-3-2">
	
		<line fill="none" stroke="#ECECEC" stroke-width="1.5" stroke-linecap="round" stroke-miterlimit="10" x1="92.971" y1="9.857" x2="96.923" y2="9.857"/>
	
		<polyline fill="none" stroke="#ECECEC" stroke-width="1.5" stroke-linecap="round" stroke-linejoin="round" stroke-miterlimit="10" points="
		85.881,14.08 82.651,12.602 82.651,6.426 85.912,5.012 	"/>
	
		<line fill="none" stroke="#ECECEC" stroke-width="1.5" stroke-linecap="round" stroke-miterlimit="10" x1="82.064" y1="9.859" x2="78.112" y2="9.859"/>
	
		<polyline fill="none" stroke="#ECECEC" stroke-width="1.5" stroke-linecap="round" stroke-linejoin="round" stroke-miterlimit="10" points="
		89.731,14.08 92.962,12.602 92.962,6.426 89.701,5.012 	"/>
</g>
<g id="test-icon-3">
	
		<line fill="none" stroke="#AAABAE" stroke-linecap="round" stroke-miterlimit="10" x1="68.345" y1="9.855" x2="72.297" y2="9.855"/>
	<polyline fill="none" stroke="#AAABAE" stroke-linecap="round" stroke-linejoin="round" stroke-miterlimit="10" points="
		61.255,14.078 58.025,12.6 58.025,6.426 61.286,5.012 	"/>
	
		<line fill="none" stroke="#AAABAE" stroke-linecap="round" stroke-miterlimit="10" x1="57.438" y1="9.857" x2="53.486" y2="9.857"/>
	<polyline fill="none" stroke="#AAABAE" stroke-linecap="round" stroke-linejoin="round" stroke-miterlimit="10" points="
		65.105,14.078 68.336,12.6 68.336,6.426 65.075,5.012 	"/>
</g>
<g id="test-icon-2-selected">
	<g>
		<g>
			<g id="Chart_8_">
				<g>
					<path fill="#ECECEC" d="M86.665,36.663h0.999c0.276,0,0.5-0.251,0.5-0.56v-5.596c0-0.31-0.224-0.561-0.5-0.561h-0.999
						c-0.276,0-0.501,0.251-0.501,0.561v5.596C86.164,36.412,86.389,36.663,86.665,36.663z"/>
				</g>
			</g>
		</g>
	</g>
	
		<polyline fill="none" stroke="#ECECEC" stroke-width="1.5" stroke-linecap="round" stroke-linejoin="round" stroke-miterlimit="10" points="
		101.579,39.204 82.621,39.204 82.621,23.204 	"/>
	<g>
		<g>
			<g id="Chart_7_">
				<g>
					<path fill="#ECECEC" d="M90.362,36.663h0.999c0.275,0,0.5-0.251,0.5-0.561V26.029c0-0.308-0.225-0.559-0.5-0.559h-0.999
						c-0.276,0-0.501,0.251-0.501,0.559v10.073C89.861,36.412,90.086,36.663,90.362,36.663z"/>
				</g>
			</g>
		</g>
	</g>
	<g>
		<g>
			<g id="Chart_6_">
				<g>
					<path fill="#ECECEC" d="M94.165,36.681h0.998c0.276,0,0.501-0.167,0.501-0.373v-3.747c0-0.205-0.225-0.375-0.501-0.375h-0.998
						c-0.276,0-0.501,0.17-0.501,0.375v3.747C93.664,36.514,93.889,36.681,94.165,36.681z"/>
				</g>
			</g>
		</g>
	</g>
	<g>
		<g>
			<g id="Chart_5_">
				<g>
					<path fill="#ECECEC" d="M97.925,36.663h0.998c0.276,0,0.501-0.202,0.501-0.45v-8.092c0-0.247-0.225-0.449-0.501-0.449h-0.998
						c-0.276,0-0.501,0.202-0.501,0.449v8.092C97.424,36.461,97.648,36.663,97.925,36.663z"/>
				</g>
			</g>
		</g>
	</g>
</g>
<g id="test-icon-2">
	<g display="none">
		<g display="inline">
			<g id="Chart_1_">
				<g>
					<path fill="#91969B" d="M29.553,15.878v-17.43h-2.49v18.675c0,0.687,0.557,1.245,1.245,1.245h18.674v-2.49H29.553z
						 M32.666,13.388h1.245c0.344,0,0.623-0.278,0.623-0.622V6.541c0-0.344-0.278-0.623-0.623-0.623h-1.245
						c-0.344,0-0.623,0.279-0.623,0.623v6.225C32.043,13.109,32.322,13.388,32.666,13.388z M36.401,13.388h1.245
						c0.344,0,0.623-0.278,0.623-0.622V1.561c0-0.343-0.278-0.622-0.623-0.622h-1.245c-0.344,0-0.623,0.279-0.623,0.622v11.205
						C35.778,13.109,36.057,13.388,36.401,13.388z M40.136,13.388h1.245c0.344,0,0.623-0.278,0.623-0.622V9.03
						c0-0.344-0.279-0.622-0.623-0.622h-1.245c-0.344,0-0.623,0.278-0.623,0.622v3.735C39.513,13.109,39.792,13.388,40.136,13.388z
						 M43.871,13.388h1.245c0.344,0,0.623-0.278,0.623-0.622V4.051c0-0.344-0.278-0.622-0.623-0.622h-1.245
						c-0.344,0-0.623,0.278-0.623,0.622v8.715C43.248,13.109,43.527,13.388,43.871,13.388z"/>
				</g>
			</g>
		</g>
	</g>
	<g>
		<g>
			<g id="Chart">
				<g>
					<path fill="#AAABAE" d="M31.706,14.367h0.825c0.229,0,0.414-0.251,0.414-0.56V8.212c0-0.31-0.185-0.561-0.414-0.561h-0.825
						c-0.229,0-0.414,0.251-0.414,0.561v5.596C31.292,14.116,31.477,14.367,31.706,14.367z"/>
				</g>
			</g>
		</g>
	</g>
	<polyline fill="none" stroke="#AAABAE" stroke-linecap="round" stroke-linejoin="round" stroke-miterlimit="10" points="
		46.533,16.908 27.574,16.908 27.574,0.908 	"/>
	<g>
		<g>
			<g id="Chart_2_">
				<g>
					<path fill="#AAABAE" d="M35.403,14.367h0.825c0.228,0,0.414-0.251,0.414-0.561V3.733c0-0.308-0.186-0.559-0.414-0.559h-0.825
						c-0.229,0-0.414,0.251-0.414,0.559v10.073C34.989,14.116,35.174,14.367,35.403,14.367z"/>
				</g>
			</g>
		</g>
	</g>
	<g>
		<g>
			<g id="Chart_3_">
				<g>
					<path fill="#AAABAE" d="M39.206,14.385h0.824c0.229,0,0.414-0.167,0.414-0.373v-3.747c0-0.205-0.186-0.375-0.414-0.375h-0.824
						c-0.229,0-0.414,0.17-0.414,0.375v3.747C38.792,14.218,38.978,14.385,39.206,14.385z"/>
				</g>
			</g>
		</g>
	</g>
	<g>
		<g>
			<g id="Chart_4_">
				<g>
					<path fill="#AAABAE" d="M42.966,14.367h0.824c0.229,0,0.414-0.202,0.414-0.45V5.825c0-0.247-0.186-0.449-0.414-0.449h-0.824
						c-0.229,0-0.414,0.202-0.414,0.449v8.092C42.552,14.165,42.736,14.367,42.966,14.367z"/>
				</g>
			</g>
		</g>
	</g>
</g>
<g id="test-icon-1-selected">
	<path fill="#ECECEC" stroke="#ECECEC" stroke-miterlimit="10" d="M58.672,33.799c0,0.533-0.431,0.964-0.963,0.964h-0.54
		c-0.532,0-0.963-0.431-0.963-0.964v-0.541c0-0.531,0.431-0.961,0.963-0.961h0.54c0.532,0,0.963,0.43,0.963,0.961V33.799z"/>
	<path fill="#ECECEC" stroke="#ECECEC" stroke-miterlimit="10" d="M58.672,39.369c0,0.533-0.431,0.964-0.963,0.964h-0.54
		c-0.532,0-0.963-0.431-0.963-0.964v-0.541c0-0.531,0.431-0.962,0.963-0.962h0.54c0.532,0,0.963,0.431,0.963,0.962V39.369z"/>
	<rect x="60.983" y="27.328" fill="#ECECEC" width="12.512" height="1.328"/>
	<rect x="60.983" y="32.865" fill="#ECECEC" width="12.512" height="1.328"/>
	<rect x="60.983" y="38.436" fill="#ECECEC" width="12.512" height="1.328"/>
	
		<polyline fill="none" stroke="#ECECEC" stroke-width="1.5" stroke-linecap="round" stroke-linejoin="round" stroke-miterlimit="10" points="
		54.495,27.145 56.648,29.023 60.382,25.188 	"/>
</g>
<g id="test-icon-1">
	<path display="none" fill="#AAABAE" stroke="#AAABAE" stroke-miterlimit="10" d="M4.237,3.241c0,0.6-0.486,1.086-1.087,1.086H2.54
		c-0.601,0-1.088-0.486-1.088-1.086V2.629c0-0.601,0.487-1.087,1.088-1.087h0.61c0.601,0,1.087,0.486,1.087,1.087V3.241z"/>
	<path fill="#AAABAE" stroke="#AAABAE" stroke-miterlimit="10" d="M4.926,9.36c0,0.533-0.43,0.963-0.962,0.963h-0.54
		c-0.532,0-0.964-0.43-0.964-0.963V8.819c0-0.531,0.432-0.962,0.964-0.962h0.54c0.532,0,0.962,0.431,0.962,0.962V9.36z"/>
	<path fill="#AAABAE" stroke="#AAABAE" stroke-miterlimit="10" d="M4.926,14.932c0,0.531-0.43,0.962-0.962,0.962h-0.54
		c-0.532,0-0.964-0.431-0.964-0.962V14.39c0-0.532,0.432-0.962,0.964-0.962h0.54c0.532,0,0.962,0.43,0.962,0.962V14.932z"/>
	<rect x="7.237" y="2.889" fill="#AAABAE" width="12.513" height="1.328"/>
	<rect x="7.237" y="8.427" fill="#AAABAE" width="12.513" height="1.327"/>
	<rect x="7.237" y="13.996" fill="#AAABAE" width="12.513" height="1.328"/>
	
		<polyline fill="none" stroke="#AAABAE" stroke-width="1.5" stroke-linecap="round" stroke-linejoin="round" stroke-miterlimit="10" points="
		0.75,2.705 2.902,4.585 6.637,0.75 	"/>
</g>
<g id="circle">
	<path fill="#AAABAE" d="M90.892-30.963c0,6.074-4.925,11-11,11s-11-4.926-11-11c0-6.075,4.925-11,11-11
		S90.892-37.038,90.892-30.963z M79.892-38.462c-4.143,0-7.5,3.357-7.5,7.5c0,4.143,3.357,7.5,7.5,7.5s7.5-3.357,7.5-7.5
		C87.392-35.105,84.034-38.462,79.892-38.462z"/>
</g>
<g id="minus">
	<path fill="#AAABAE" d="M62.892-40.962c0,0.553-0.447,1-1,1h-8c-0.553,0-1-0.447-1-1l0,0c0-0.553,0.447-1,1-1h8
		C62.444-41.962,62.892-41.515,62.892-40.962L62.892-40.962z"/>
</g>
<g id="plus">
	<path fill="#AAABAE" d="M46.892-37.462c0,0.5-0.405,0.904-0.905,0.904h-7.189c-0.5,0-0.905-0.404-0.905-0.904l0,0
		c0-0.5,0.405-0.905,0.905-0.905h7.189C46.486-38.368,46.892-37.962,46.892-37.462L46.892-37.462z"/>
	<path fill="#AAABAE" d="M42.391-41.962c0.5,0,0.905,0.405,0.905,0.905v7.189c0,0.5-0.405,0.905-0.905,0.905l0,0
		c-0.5,0-0.904-0.405-0.904-0.905v-7.189C41.486-41.557,41.891-41.962,42.391-41.962L42.391-41.962z"/>
</g>
<g id="topo">
	<polyline fill="#AAABAE" stroke="#AAABAE" stroke-width="3" stroke-miterlimit="10" points="23.696,-40.599 20.755,-39.251 
		20.755,-33.624 23.724,-32.335 	"/>
	<polyline fill="#AAABAE" stroke="#AAABAE" stroke-width="3" stroke-miterlimit="10" points="24.966,-32.37 27.882,-33.707 
		27.882,-39.287 24.938,-40.562 	"/>
	<polyline fill="#AAABAE" stroke="#AAABAE" stroke-width="3" stroke-miterlimit="10" points="6.093,-26.818 2.329,-25.094 
		2.329,-17.895 6.128,-16.246 	"/>
	<polyline fill="#AAABAE" stroke="#AAABAE" stroke-width="3" stroke-miterlimit="10" points="7.716,-16.291 11.446,-18 
		11.446,-25.139 7.681,-26.773 	"/>
	<polyline fill="#AAABAE" stroke="#AAABAE" stroke-width="3" stroke-miterlimit="10" points="26.206,-17.301 23.265,-15.951 
		23.265,-10.324 26.233,-9.037 	"/>
	<polyline fill="#AAABAE" stroke="#AAABAE" stroke-width="3" stroke-miterlimit="10" points="27.478,-9.07 30.392,-10.408 
		30.392,-15.986 27.446,-17.266 	"/>
	<path fill="none" stroke="#AAABAE" stroke-width="3" stroke-miterlimit="10" d="M12.231-21.531
		c5.582-0.033,2.75-14.945,7.762-14.937"/>
	<path fill="none" stroke="#AAABAE" stroke-width="3" stroke-miterlimit="10" d="M12.231-21.447
		c6.736-0.021,4.426,8.35,10.775,8.363"/>
</g>
<g id="check-box">
	<path fill="#AAABAE" d="M91.848-52.015c0,1.044-0.846,1.889-1.889,1.889H76.737c-1.044,0-1.89-0.845-1.89-1.889v-13.222
		c0-1.044,0.846-1.889,1.89-1.889h13.222c1.043,0,1.889,0.845,1.889,1.889V-52.015z"/>
	
		<polyline fill="none" stroke="#2F3136" stroke-width="3" stroke-linecap="round" stroke-linejoin="round" stroke-miterlimit="10" points="
		78.67,-58.579 82.742,-55.426 88.51,-62.989 	"/>
</g>
<g id="chart-pie">
	<circle fill="#AAABAE" cx="58.92" cy="-57.07" r="7.943"/>
	<circle display="none" fill="none" stroke="#2452C6" stroke-miterlimit="10" cx="154.16" cy="-66.92" r="17.3"/>
	<path fill="#2F3136" stroke="#D7D9DD" stroke-miterlimit="10" d="M58.92-57.07l1.419-9.486c4.029,0.6,6.845,3.448,7.881,6.766
		L58.92-57.07z"/>
</g>
<g id="small-star">
	<polygon fill="#AAABAE" points="35.977,-67.125 38.758,-61.49 44.977,-60.586 40.477,-56.201 41.541,-50.005 35.977,-52.931 
		30.414,-50.005 31.477,-56.201 26.977,-60.586 33.195,-61.49 	"/>
</g>
<g id="big-star-selected">
	<polygon fill="none" stroke="#ECECEC" stroke-width="1.5" stroke-linejoin="round" stroke-miterlimit="10" points="36.574,25.506 
		39.355,31.141 45.574,32.045 41.074,36.43 42.137,42.625 36.574,39.701 31.012,42.625 32.074,36.43 27.574,32.045 33.793,31.141 	
		"/>
</g>
<g id="big-star">
	<polygon fill="none" stroke="#AAABAE" stroke-linejoin="round" stroke-miterlimit="10" points="10.903,-65.995 13.685,-60.359 
		19.903,-59.456 15.403,-55.07 16.466,-48.876 10.903,-51.8 5.341,-48.876 6.403,-55.07 1.903,-59.456 8.122,-60.359 	"/>
</g>
</svg>
