<?xml version="1.0" encoding="utf-8"?>
<!-- Generator: Adobe Illustrator 16.0.0, SVG Export Plug-In . SVG Version: 6.00 Build 0)  -->
<!DOCTYPE svg PUBLIC "-//W3C//DTD SVG 1.1//EN" "http://www.w3.org/Graphics/SVG/1.1/DTD/svg11.dtd">
<svg version="1.1" xmlns="http://www.w3.org/2000/svg" xmlns:xlink="http://www.w3.org/1999/xlink" x="0px" y="0px"
	 width="22.208px" height="18.353px" viewBox="0 0 22.208 18.353" enable-background="new 0 0 22.208 18.353" xml:space="preserve">
<g id="stretch-icon">
	<g>
		<g>
			<path fill="#91969B" d="M3.126,33.891l16-7.677l-4.923,7.677l4.923,7.676L3.126,33.891z"/>
		</g>
	</g>
</g>
<g id="test-icon-3-2">
	
		<line fill="none" stroke="#ECECEC" stroke-width="1.5" stroke-linecap="round" stroke-miterlimit="10" x1="94.2" y1="10.837" x2="98.152" y2="10.837"/>
	
		<polyline fill="none" stroke="#ECECEC" stroke-width="1.5" stroke-linecap="round" stroke-linejoin="round" stroke-miterlimit="10" points="
		87.11,15.06 83.88,13.581 83.88,7.405 87.141,5.991 	"/>
	
		<line fill="none" stroke="#ECECEC" stroke-width="1.5" stroke-linecap="round" stroke-miterlimit="10" x1="83.293" y1="10.839" x2="79.341" y2="10.839"/>
	
		<polyline fill="none" stroke="#ECECEC" stroke-width="1.5" stroke-linecap="round" stroke-linejoin="round" stroke-miterlimit="10" points="
		90.96,15.06 94.191,13.581 94.191,7.405 90.93,5.991 	"/>
</g>
<g id="test-icon-3">
	
		<line fill="none" stroke="#AAABAE" stroke-linecap="round" stroke-miterlimit="10" x1="69.574" y1="9.456" x2="73.526" y2="9.456"/>
	<polyline fill="none" stroke="#AAABAE" stroke-linecap="round" stroke-linejoin="round" stroke-miterlimit="10" points="
		62.484,13.679 59.254,12.2 59.254,6.025 62.515,4.611 	"/>
	
		<line fill="none" stroke="#AAABAE" stroke-linecap="round" stroke-miterlimit="10" x1="58.667" y1="9.458" x2="54.715" y2="9.458"/>
	<polyline fill="none" stroke="#AAABAE" stroke-linecap="round" stroke-linejoin="round" stroke-miterlimit="10" points="
		66.334,13.679 69.565,12.2 69.565,6.025 66.304,4.611 	"/>
</g>
<g id="test-icon-2">
	<g display="none">
		<g display="inline">
			<g id="Chart_1_">
				<g>
					<path fill="#91969B" d="M30.782,16.857v-17.43h-2.49v18.675c0,0.687,0.557,1.245,1.245,1.245h18.674v-2.49H30.782z
						 M33.895,14.367h1.245c0.344,0,0.623-0.278,0.623-0.622V7.521c0-0.344-0.278-0.623-0.623-0.623h-1.245
						c-0.344,0-0.623,0.279-0.623,0.623v6.225C33.272,14.089,33.551,14.367,33.895,14.367z M37.63,14.367h1.245
						c0.344,0,0.623-0.278,0.623-0.622V2.54c0-0.343-0.278-0.622-0.623-0.622H37.63c-0.344,0-0.623,0.279-0.623,0.622v11.205
						C37.007,14.089,37.286,14.367,37.63,14.367z M41.365,14.367h1.245c0.344,0,0.623-0.278,0.623-0.622V10.01
						c0-0.344-0.279-0.622-0.623-0.622h-1.245c-0.344,0-0.623,0.278-0.623,0.622v3.735C40.742,14.089,41.021,14.367,41.365,14.367z
						 M45.1,14.367h1.245c0.344,0,0.623-0.278,0.623-0.622V5.03c0-0.344-0.278-0.622-0.623-0.622H45.1
						c-0.344,0-0.623,0.278-0.623,0.622v8.715C44.477,14.089,44.756,14.367,45.1,14.367z"/>
				</g>
			</g>
		</g>
	</g>
	<g>
		<g>
			<g id="Chart">
				<g>
					<path fill="#AAABAE" d="M32.535,15.855h0.825c0.229,0,0.414-0.274,0.414-0.611V9.126c0-0.338-0.185-0.612-0.414-0.612h-0.825
						c-0.229,0-0.414,0.274-0.414,0.612v6.118C32.121,15.581,32.306,15.855,32.535,15.855z"/>
				</g>
			</g>
		</g>
	</g>
	<polyline fill="none" stroke="#AAABAE" stroke-linecap="round" stroke-linejoin="round" stroke-miterlimit="10" points="
		47.762,18.634 28.803,18.634 28.803,1.142 	"/>
	<g>
		<g>
			<g id="Chart_2_">
				<g>
					<path fill="#AAABAE" d="M36.231,15.855h0.825c0.228,0,0.414-0.274,0.414-0.612V4.23c0-0.337-0.186-0.611-0.414-0.611h-0.825
						c-0.229,0-0.414,0.274-0.414,0.611v11.013C35.818,15.581,36.002,15.855,36.231,15.855z"/>
				</g>
			</g>
		</g>
	</g>
	<g>
		<g>
			<g id="Chart_3_">
				<g>
					<path fill="#AAABAE" d="M40.035,15.875h0.824c0.229,0,0.414-0.183,0.414-0.408v-4.096c0-0.225-0.186-0.41-0.414-0.41h-0.824
						c-0.229,0-0.414,0.186-0.414,0.41v4.096C39.621,15.692,39.806,15.875,40.035,15.875z"/>
				</g>
			</g>
		</g>
	</g>
	<g>
		<g>
			<g id="Chart_4_">
				<g>
					<path fill="#AAABAE" d="M43.794,15.855h0.824c0.229,0,0.414-0.221,0.414-0.492V6.518c0-0.271-0.186-0.491-0.414-0.491h-0.824
						c-0.229,0-0.414,0.221-0.414,0.491v8.846C43.38,15.635,43.565,15.855,43.794,15.855z"/>
				</g>
			</g>
		</g>
	</g>
</g>
<g id="test-icon-1">
	<path display="none" fill="#AAABAE" stroke="#AAABAE" stroke-miterlimit="10" d="M5.466,4.221c0,0.6-0.486,1.086-1.087,1.086h-0.61
		c-0.601,0-1.088-0.486-1.088-1.086V3.608c0-0.601,0.487-1.087,1.088-1.087h0.61c0.601,0,1.087,0.486,1.087,1.087V4.221z"/>
	<path fill="#AAABAE" stroke="#AAABAE" stroke-miterlimit="10" d="M5.466,10.475c0,0.601-0.486,1.087-1.087,1.087h-0.61
		c-0.601,0-1.088-0.486-1.088-1.087V9.863c0-0.601,0.487-1.087,1.088-1.087h0.61c0.601,0,1.087,0.486,1.087,1.087V10.475z"/>
	<path fill="#AAABAE" stroke="#AAABAE" stroke-miterlimit="10" d="M5.466,16.766c0,0.601-0.486,1.087-1.087,1.087h-0.61
		c-0.601,0-1.088-0.486-1.088-1.087v-0.611c0-0.601,0.487-1.087,1.088-1.087h0.61c0.601,0,1.087,0.486,1.087,1.087V16.766z"/>
	<rect x="8.077" y="3.165" fill="#AAABAE" width="14.131" height="1.5"/>
	<rect x="8.077" y="9.419" fill="#AAABAE" width="14.131" height="1.5"/>
	<rect x="8.077" y="15.71" fill="#AAABAE" width="14.131" height="1.5"/>
	
		<polyline fill="none" stroke="#AAABAE" stroke-width="1.5" stroke-linecap="round" stroke-linejoin="round" stroke-miterlimit="10" points="
		0.75,2.959 3.181,5.08 7.398,0.75 	"/>
</g>
<g id="circle">
	<path fill="#AAABAE" d="M92.121-29.983c0,6.074-4.925,11-11,11s-11-4.926-11-11c0-6.075,4.925-11,11-11
		S92.121-36.058,92.121-29.983z M81.121-37.483c-4.143,0-7.5,3.357-7.5,7.5c0,4.143,3.357,7.5,7.5,7.5s7.5-3.357,7.5-7.5
		C88.621-34.125,85.263-37.483,81.121-37.483z"/>
</g>
<g id="minus">
	<path fill="#AAABAE" d="M64.121-39.983c0,0.553-0.447,1-1,1h-8c-0.553,0-1-0.447-1-1l0,0c0-0.553,0.447-1,1-1h8
		C63.673-40.983,64.121-40.536,64.121-39.983L64.121-39.983z"/>
</g>
<g id="plus">
	<path fill="#AAABAE" d="M48.121-36.483c0,0.5-0.405,0.904-0.905,0.904h-7.189c-0.5,0-0.905-0.404-0.905-0.904l0,0
		c0-0.5,0.405-0.905,0.905-0.905h7.189C47.715-37.388,48.121-36.983,48.121-36.483L48.121-36.483z"/>
	<path fill="#AAABAE" d="M43.62-40.983c0.5,0,0.905,0.405,0.905,0.905v7.189c0,0.5-0.405,0.905-0.905,0.905l0,0
		c-0.5,0-0.904-0.405-0.904-0.905v-7.189C42.715-40.578,43.12-40.983,43.62-40.983L43.62-40.983z"/>
</g>
<g id="topo">
	<polyline fill="#AAABAE" stroke="#AAABAE" stroke-width="3" stroke-miterlimit="10" points="24.925,-39.62 21.984,-38.272 
		21.984,-32.644 24.953,-31.356 	"/>
	<polyline fill="#AAABAE" stroke="#AAABAE" stroke-width="3" stroke-miterlimit="10" points="26.195,-31.39 29.111,-32.727 
		29.111,-38.307 26.167,-39.583 	"/>
	<polyline fill="#AAABAE" stroke="#AAABAE" stroke-width="3" stroke-miterlimit="10" points="7.322,-25.839 3.558,-24.114 
		3.558,-16.915 7.357,-15.267 	"/>
	<polyline fill="#AAABAE" stroke="#AAABAE" stroke-width="3" stroke-miterlimit="10" points="8.945,-15.312 12.675,-17.021 
		12.675,-24.159 8.91,-25.794 	"/>
	<polyline fill="#AAABAE" stroke="#AAABAE" stroke-width="3" stroke-miterlimit="10" points="27.435,-16.321 24.494,-14.972 
		24.494,-9.345 27.462,-8.058 	"/>
	<polyline fill="#AAABAE" stroke="#AAABAE" stroke-width="3" stroke-miterlimit="10" points="28.707,-8.091 31.621,-9.429 
		31.621,-15.007 28.675,-16.286 	"/>
	<path fill="none" stroke="#AAABAE" stroke-width="3" stroke-miterlimit="10" d="M13.46-20.552
		c5.582-0.033,2.75-14.945,7.762-14.937"/>
	<path fill="none" stroke="#AAABAE" stroke-width="3" stroke-miterlimit="10" d="M13.46-20.468c6.736-0.021,4.426,8.35,10.775,8.363
		"/>
</g>
<g id="check-box">
	<path fill="#AAABAE" d="M93.077-51.035c0,1.044-0.846,1.889-1.889,1.889H77.966c-1.044,0-1.89-0.845-1.89-1.889v-13.222
		c0-1.044,0.846-1.889,1.89-1.889h13.222c1.043,0,1.889,0.845,1.889,1.889V-51.035z"/>
	
		<polyline fill="none" stroke="#2F3136" stroke-width="3" stroke-linecap="round" stroke-linejoin="round" stroke-miterlimit="10" points="
		79.899,-57.6 83.971,-54.446 89.739,-62.01 	"/>
</g>
<g id="chart-pie">
	<circle fill="#AAABAE" cx="60.149" cy="-56.091" r="7.943"/>
	<circle display="none" fill="none" stroke="#2452C6" stroke-miterlimit="10" cx="155.389" cy="-65.941" r="17.3"/>
	<path fill="#2F3136" stroke="#D7D9DD" stroke-miterlimit="10" d="M60.149-56.091l1.419-9.486c4.029,0.6,6.845,3.448,7.881,6.766
		L60.149-56.091z"/>
</g>
<g id="small-star">
	<polygon fill="#AAABAE" points="37.206,-66.145 39.987,-60.51 46.206,-59.607 41.706,-55.221 42.77,-49.026 37.206,-51.952 
		31.643,-49.026 32.706,-55.221 28.206,-59.607 34.424,-60.51 	"/>
</g>
<g id="big-star">
	<polygon fill="none" stroke="#AAABAE" stroke-linejoin="round" stroke-miterlimit="10" points="12.132,-65.016 14.914,-59.38 
		21.132,-58.477 16.632,-54.091 17.695,-47.896 12.132,-50.82 6.57,-47.896 7.632,-54.091 3.132,-58.477 9.351,-59.38 	"/>
</g>
</svg>
