<?xml version="1.0" encoding="utf-8"?>
<!-- Generator: Adobe Illustrator 16.0.0, SVG Export Plug-In . SVG Version: 6.00 Build 0)  -->
<!DOCTYPE svg PUBLIC "-//W3C//DTD SVG 1.1//EN" "http://www.w3.org/Graphics/SVG/1.1/DTD/svg11.dtd">
<svg version="1.1" xmlns="http://www.w3.org/2000/svg" xmlns:xlink="http://www.w3.org/1999/xlink" x="0px" y="0px" width="19.75px"
	 height="16.395px" viewBox="0 0 19.75 16.395" enable-background="new 0 0 19.75 16.395" xml:space="preserve">
<g id="stretch-icon">
	<g>
		<g>
			<path fill="#91969B" d="M-51.848,8.473l16-7.677l-4.923,7.677l4.923,7.676L-51.848,8.473z"/>
		</g>
	</g>
</g>
<g id="test-icon-3-2">
	
		<line fill="none" stroke="#ECECEC" stroke-width="1.5" stroke-linecap="round" stroke-miterlimit="10" x1="39.226" y1="-14.581" x2="43.178" y2="-14.581"/>
	
		<polyline fill="none" stroke="#ECECEC" stroke-width="1.5" stroke-linecap="round" stroke-linejoin="round" stroke-miterlimit="10" points="
		32.136,-10.358 28.906,-11.837 28.906,-18.013 32.167,-19.427 	"/>
	
		<line fill="none" stroke="#ECECEC" stroke-width="1.5" stroke-linecap="round" stroke-miterlimit="10" x1="28.319" y1="-14.579" x2="24.367" y2="-14.579"/>
	
		<polyline fill="none" stroke="#ECECEC" stroke-width="1.5" stroke-linecap="round" stroke-linejoin="round" stroke-miterlimit="10" points="
		35.986,-10.358 39.217,-11.837 39.217,-18.013 35.956,-19.427 	"/>
</g>
<g id="test-icon-3">
	
		<line fill="none" stroke="#AAABAE" stroke-linecap="round" stroke-miterlimit="10" x1="14.6" y1="-14.583" x2="18.552" y2="-14.583"/>
	<polyline fill="none" stroke="#AAABAE" stroke-linecap="round" stroke-linejoin="round" stroke-miterlimit="10" points="
		7.51,-10.36 4.28,-11.839 4.28,-18.013 7.541,-19.427 	"/>
	
		<line fill="none" stroke="#AAABAE" stroke-linecap="round" stroke-miterlimit="10" x1="3.693" y1="-14.581" x2="-0.259" y2="-14.581"/>
	<polyline fill="none" stroke="#AAABAE" stroke-linecap="round" stroke-linejoin="round" stroke-miterlimit="10" points="
		11.36,-10.36 14.591,-11.839 14.591,-18.013 11.33,-19.427 	"/>
</g>
<g id="test-icon-2-selected">
	<g>
		<g>
			<g id="Chart_8_">
				<g>
					<path fill="#ECECEC" d="M32.92,12.225h0.999c0.276,0,0.5-0.251,0.5-0.56V6.069c0-0.31-0.224-0.561-0.5-0.561H32.92
						c-0.276,0-0.501,0.251-0.501,0.561v5.596C32.419,11.974,32.644,12.225,32.92,12.225z"/>
				</g>
			</g>
		</g>
	</g>
	
		<polyline fill="none" stroke="#ECECEC" stroke-width="1.5" stroke-linecap="round" stroke-linejoin="round" stroke-miterlimit="10" points="
		47.834,14.766 28.876,14.766 28.876,-1.234 	"/>
	<g>
		<g>
			<g id="Chart_7_">
				<g>
					<path fill="#ECECEC" d="M36.617,12.225h0.999c0.275,0,0.5-0.251,0.5-0.561V1.591c0-0.308-0.225-0.559-0.5-0.559h-0.999
						c-0.276,0-0.501,0.251-0.501,0.559v10.073C36.116,11.974,36.341,12.225,36.617,12.225z"/>
				</g>
			</g>
		</g>
	</g>
	<g>
		<g>
			<g id="Chart_6_">
				<g>
					<path fill="#ECECEC" d="M40.42,12.242h0.998c0.276,0,0.501-0.167,0.501-0.373V8.122c0-0.205-0.225-0.375-0.501-0.375H40.42
						c-0.276,0-0.501,0.17-0.501,0.375v3.747C39.919,12.075,40.144,12.242,40.42,12.242z"/>
				</g>
			</g>
		</g>
	</g>
	<g>
		<g>
			<g id="Chart_5_">
				<g>
					<path fill="#ECECEC" d="M44.18,12.225h0.998c0.276,0,0.501-0.202,0.501-0.45V3.683c0-0.247-0.225-0.449-0.501-0.449H44.18
						c-0.276,0-0.501,0.202-0.501,0.449v8.092C43.679,12.022,43.903,12.225,44.18,12.225z"/>
				</g>
			</g>
		</g>
	</g>
</g>
<g id="test-icon-2">
	<g display="none">
		<g display="inline">
			<g id="Chart_1_">
				<g>
					<path fill="#91969B" d="M-24.192-8.561v-17.43h-2.49v18.675c0,0.687,0.557,1.245,1.245,1.245h18.674v-2.49H-24.192z
						 M-21.079-11.051h1.245c0.344,0,0.623-0.278,0.623-0.622v-6.225c0-0.344-0.278-0.623-0.623-0.623h-1.245
						c-0.344,0-0.623,0.279-0.623,0.623v6.225C-21.702-11.329-21.423-11.051-21.079-11.051z M-17.344-11.051h1.245
						c0.344,0,0.623-0.278,0.623-0.622v-11.205c0-0.343-0.278-0.622-0.623-0.622h-1.245c-0.344,0-0.623,0.279-0.623,0.622v11.205
						C-17.967-11.329-17.688-11.051-17.344-11.051z M-13.609-11.051h1.245c0.344,0,0.623-0.278,0.623-0.622v-3.735
						c0-0.344-0.279-0.622-0.623-0.622h-1.245c-0.344,0-0.623,0.278-0.623,0.622v3.735C-14.232-11.329-13.954-11.051-13.609-11.051z
						 M-9.875-11.051h1.245c0.344,0,0.623-0.278,0.623-0.622v-8.715c0-0.344-0.278-0.622-0.623-0.622h-1.245
						c-0.344,0-0.623,0.278-0.623,0.622v8.715C-10.497-11.329-10.218-11.051-9.875-11.051z"/>
				</g>
			</g>
		</g>
	</g>
	<g>
		<g>
			<g id="Chart">
				<g>
					<path fill="#AAABAE" d="M-22.039-10.071h0.825c0.229,0,0.414-0.251,0.414-0.56v-5.596c0-0.31-0.185-0.561-0.414-0.561h-0.825
						c-0.229,0-0.414,0.251-0.414,0.561v5.596C-22.453-10.322-22.268-10.071-22.039-10.071z"/>
				</g>
			</g>
		</g>
	</g>
	<polyline fill="none" stroke="#AAABAE" stroke-linecap="round" stroke-linejoin="round" stroke-miterlimit="10" points="
		-7.212,-7.53 -26.171,-7.53 -26.171,-23.53 	"/>
	<g>
		<g>
			<g id="Chart_2_">
				<g>
					<path fill="#AAABAE" d="M-18.342-10.071h0.825c0.228,0,0.414-0.251,0.414-0.561v-10.073c0-0.308-0.186-0.559-0.414-0.559
						h-0.825c-0.229,0-0.414,0.251-0.414,0.559v10.073C-18.756-10.322-18.571-10.071-18.342-10.071z"/>
				</g>
			</g>
		</g>
	</g>
	<g>
		<g>
			<g id="Chart_3_">
				<g>
					<path fill="#AAABAE" d="M-14.539-10.054h0.824c0.229,0,0.414-0.167,0.414-0.373v-3.747c0-0.205-0.186-0.375-0.414-0.375h-0.824
						c-0.229,0-0.414,0.17-0.414,0.375v3.747C-14.953-10.221-14.768-10.054-14.539-10.054z"/>
				</g>
			</g>
		</g>
	</g>
	<g>
		<g>
			<g id="Chart_4_">
				<g>
					<path fill="#AAABAE" d="M-10.779-10.071h0.824c0.229,0,0.414-0.202,0.414-0.45v-8.092c0-0.247-0.186-0.449-0.414-0.449h-0.824
						c-0.229,0-0.414,0.202-0.414,0.449v8.092C-11.193-10.273-11.009-10.071-10.779-10.071z"/>
				</g>
			</g>
		</g>
	</g>
</g>
<g id="test-icon-1-selected">
	<path fill="#ECECEC" stroke="#ECECEC" stroke-miterlimit="10" d="M4.927,9.36c0,0.533-0.431,0.964-0.963,0.964h-0.54
		c-0.532,0-0.963-0.431-0.963-0.964V8.819c0-0.531,0.431-0.961,0.963-0.961h0.54c0.532,0,0.963,0.43,0.963,0.961V9.36z"/>
	<path fill="#ECECEC" stroke="#ECECEC" stroke-miterlimit="10" d="M4.927,14.931c0,0.533-0.431,0.964-0.963,0.964h-0.54
		c-0.532,0-0.963-0.431-0.963-0.964V14.39c0-0.531,0.431-0.962,0.963-0.962h0.54c0.532,0,0.963,0.431,0.963,0.962V14.931z"/>
	<rect x="7.238" y="2.89" fill="#ECECEC" width="12.512" height="1.328"/>
	<rect x="7.238" y="8.427" fill="#ECECEC" width="12.512" height="1.328"/>
	<rect x="7.238" y="13.997" fill="#ECECEC" width="12.512" height="1.328"/>
	
		<polyline fill="none" stroke="#ECECEC" stroke-width="1.5" stroke-linecap="round" stroke-linejoin="round" stroke-miterlimit="10" points="
		0.75,2.706 2.903,4.585 6.637,0.75 	"/>
</g>
<g id="test-icon-1">
	<path display="none" fill="#AAABAE" stroke="#AAABAE" stroke-miterlimit="10" d="M-49.508-21.197c0,0.6-0.486,1.086-1.087,1.086
		h-0.61c-0.601,0-1.088-0.486-1.088-1.086v-0.612c0-0.601,0.487-1.087,1.088-1.087h0.61c0.601,0,1.087,0.486,1.087,1.087V-21.197z"
		/>
	<path fill="#AAABAE" stroke="#AAABAE" stroke-miterlimit="10" d="M-48.539-15.133c0,0.505-0.408,0.912-0.912,0.912h-0.512
		c-0.504,0-0.913-0.407-0.913-0.912v-0.513c0-0.503,0.409-0.911,0.913-0.911h0.512c0.504,0,0.912,0.408,0.912,0.911V-15.133z"/>
	<path fill="#AAABAE" stroke="#AAABAE" stroke-miterlimit="10" d="M-48.539-9.854c0,0.503-0.408,0.911-0.912,0.911h-0.512
		c-0.504,0-0.913-0.408-0.913-0.911v-0.514c0-0.504,0.409-0.911,0.913-0.911h0.512c0.504,0,0.912,0.407,0.912,0.911V-9.854z"/>
	<rect x="-46.35" y="-21.264" fill="#AAABAE" width="11.854" height="1.258"/>
	<rect x="-46.35" y="-16.018" fill="#AAABAE" width="11.854" height="1.258"/>
	<rect x="-46.35" y="-10.741" fill="#AAABAE" width="11.854" height="1.259"/>
	
		<polyline fill="none" stroke="#AAABAE" stroke-width="1.5" stroke-linecap="round" stroke-linejoin="round" stroke-miterlimit="10" points="
		-52.495,-21.438 -50.457,-19.657 -46.918,-23.29 	"/>
</g>
<g id="circle">
	<path fill="#AAABAE" d="M37.146-55.401c0,6.074-4.925,11-11,11s-11-4.926-11-11c0-6.075,4.925-11,11-11
		S37.146-61.476,37.146-55.401z M26.146-62.901c-4.143,0-7.5,3.357-7.5,7.5c0,4.143,3.357,7.5,7.5,7.5s7.5-3.357,7.5-7.5
		C33.646-59.543,30.289-62.901,26.146-62.901z"/>
</g>
<g id="minus">
	<path fill="#AAABAE" d="M9.146-65.401c0,0.553-0.447,1-1,1h-8c-0.553,0-1-0.447-1-1l0,0c0-0.553,0.447-1,1-1h8
		C8.699-66.401,9.146-65.954,9.146-65.401L9.146-65.401z"/>
</g>
<g id="plus">
	<path fill="#AAABAE" d="M-6.854-61.901c0,0.5-0.405,0.904-0.905,0.904h-7.189c-0.5,0-0.905-0.404-0.905-0.904l0,0
		c0-0.5,0.405-0.905,0.905-0.905h7.189C-7.259-62.806-6.854-62.401-6.854-61.901L-6.854-61.901z"/>
	<path fill="#AAABAE" d="M-11.354-66.401c0.5,0,0.905,0.405,0.905,0.905v7.189c0,0.5-0.405,0.905-0.905,0.905l0,0
		c-0.5,0-0.904-0.405-0.904-0.905v-7.189C-12.259-65.996-11.854-66.401-11.354-66.401L-11.354-66.401z"/>
</g>
<g id="topo">
	<polyline fill="#AAABAE" stroke="#AAABAE" stroke-width="3" stroke-miterlimit="10" points="-30.049,-65.038 -32.99,-63.69 
		-32.99,-58.062 -30.021,-56.774 	"/>
	<polyline fill="#AAABAE" stroke="#AAABAE" stroke-width="3" stroke-miterlimit="10" points="-28.779,-56.808 -25.863,-58.145 
		-25.863,-63.725 -28.807,-65 	"/>
	<polyline fill="#AAABAE" stroke="#AAABAE" stroke-width="3" stroke-miterlimit="10" points="-47.652,-51.257 -51.416,-49.532 
		-51.416,-42.333 -47.617,-40.685 	"/>
	<polyline fill="#AAABAE" stroke="#AAABAE" stroke-width="3" stroke-miterlimit="10" points="-46.029,-40.729 -42.299,-42.438 
		-42.299,-49.577 -46.064,-51.212 	"/>
	<polyline fill="#AAABAE" stroke="#AAABAE" stroke-width="3" stroke-miterlimit="10" points="-27.539,-41.739 -30.48,-40.39 
		-30.48,-34.763 -27.512,-33.476 	"/>
	<polyline fill="#AAABAE" stroke="#AAABAE" stroke-width="3" stroke-miterlimit="10" points="-26.268,-33.509 -23.354,-34.847 
		-23.354,-40.425 -26.299,-41.704 	"/>
	<path fill="none" stroke="#AAABAE" stroke-width="3" stroke-miterlimit="10" d="M-41.514-45.97
		c5.582-0.033,2.75-14.945,7.762-14.937"/>
	<path fill="none" stroke="#AAABAE" stroke-width="3" stroke-miterlimit="10" d="M-41.514-45.886
		c6.736-0.021,4.426,8.35,10.775,8.363"/>
</g>
<g id="check-box">
	<path fill="#AAABAE" d="M38.103-76.453c0,1.044-0.846,1.889-1.889,1.889H22.992c-1.044,0-1.89-0.845-1.89-1.889v-13.222
		c0-1.044,0.846-1.889,1.89-1.889h13.222c1.043,0,1.889,0.845,1.889,1.889V-76.453z"/>
	
		<polyline fill="none" stroke="#2F3136" stroke-width="3" stroke-linecap="round" stroke-linejoin="round" stroke-miterlimit="10" points="
		24.925,-83.018 28.997,-79.864 34.765,-87.428 	"/>
</g>
<g id="chart-pie">
	<circle fill="#AAABAE" cx="5.175" cy="-81.509" r="7.943"/>
	<circle display="none" fill="none" stroke="#2452C6" stroke-miterlimit="10" cx="100.415" cy="-91.359" r="17.3"/>
	<path fill="#2F3136" stroke="#D7D9DD" stroke-miterlimit="10" d="M5.175-81.509l1.419-9.486c4.029,0.6,6.845,3.448,7.881,6.766
		L5.175-81.509z"/>
</g>
<g id="small-star">
	<polygon fill="#AAABAE" points="-17.769,-91.563 -14.987,-85.928 -8.769,-85.025 -13.269,-80.639 -12.204,-74.444 -17.769,-77.37 
		-23.331,-74.444 -22.269,-80.639 -26.769,-85.025 -20.55,-85.928 	"/>
</g>
<g id="big-star-selected">
	<polygon fill="none" stroke="#ECECEC" stroke-width="1.5" stroke-linejoin="round" stroke-miterlimit="10" points="-17.171,1.067 
		-14.39,6.702 -8.171,7.606 -12.671,11.991 -11.608,18.187 -17.171,15.263 -22.733,18.187 -21.671,11.991 -26.171,7.606 
		-19.952,6.702 	"/>
</g>
<g id="big-star">
	<polygon fill="none" stroke="#AAABAE" stroke-linejoin="round" stroke-miterlimit="10" points="-42.842,-90.434 -40.061,-84.798 
		-33.842,-83.895 -38.342,-79.509 -37.279,-73.314 -42.842,-76.238 -48.404,-73.314 -47.342,-79.509 -51.842,-83.895 
		-45.623,-84.798 	"/>
</g>
</svg>
