<?xml version="1.0" encoding="utf-8"?>
<!-- Generator: Adobe Illustrator 16.0.0, SVG Export Plug-In . SVG Version: 6.00 Build 0)  -->
<!DOCTYPE svg PUBLIC "-//W3C//DTD SVG 1.1//EN" "http://www.w3.org/Graphics/SVG/1.1/DTD/svg11.dtd">
<svg version="1.1" id="图层_1" xmlns="http://www.w3.org/2000/svg" xmlns:xlink="http://www.w3.org/1999/xlink" x="0px" y="0px"
	 width="27px" height="21px" viewBox="-0.5 -0.5 27 21" enable-background="new -0.5 -0.5 27 21" xml:space="preserve">
<path fill="#76A3F7" d="M17.545,18.833c-0.259,0-0.518-0.1-0.713-0.299c-0.388-0.394-0.382-1.026,0.012-1.414l7.23-7.113
	l-7.25-7.128c-0.394-0.387-0.399-1.02-0.012-1.414c0.386-0.395,1.02-0.401,1.414-0.012l7.975,7.841
	C26.393,9.483,26.5,9.74,26.5,10.008s-0.107,0.525-0.299,0.713l-7.955,7.826C18.052,18.738,17.798,18.833,17.545,18.833z"/>
<path fill="#76A3F7" d="M8.457,18.833c-0.253,0-0.506-0.096-0.701-0.287l-7.957-7.826C-0.393,10.533-0.5,10.276-0.5,10.008
	s0.108-0.525,0.299-0.713l7.975-7.841c0.394-0.388,1.027-0.383,1.414,0.012C9.575,1.86,9.57,2.493,9.176,2.88l-7.25,7.128
	l7.232,7.113c0.394,0.387,0.399,1.021,0.012,1.414C8.974,18.734,8.716,18.833,8.457,18.833z"/>
<path fill="#76A3F7" d="M10.75,20.5c-0.077,0-0.155-0.009-0.233-0.027c-0.537-0.129-0.869-0.668-0.74-1.205l4.544-19
	c0.128-0.537,0.67-0.867,1.205-0.74c0.537,0.128,0.868,0.668,0.74,1.205l-4.544,19C11.612,20.191,11.202,20.5,10.75,20.5z"/>
</svg>
