<?xml version="1.0" encoding="utf-8"?>
<!-- Generator: Adobe Illustrator 16.0.0, SVG Export Plug-In . SVG Version: 6.00 Build 0)  -->
<!DOCTYPE svg PUBLIC "-//W3C//DTD SVG 1.1//EN" "http://www.w3.org/Graphics/SVG/1.1/DTD/svg11.dtd">
<svg version="1.1" id="图层_1" xmlns="http://www.w3.org/2000/svg" xmlns:xlink="http://www.w3.org/1999/xlink" x="0px" y="0px"
	 width="25.001px" height="20.8px" viewBox="0 0 25.001 20.8" enable-background="new 0 0 25.001 20.8" xml:space="preserve">
<path fill="#76A3F7" d="M17.275,20.8H3.687C1.654,20.8,0,19.157,0,17.136V3.663C0,1.643,1.654,0,3.687,0h13.588
	c0.983,0,1.909,0.38,2.606,1.07c0.092,0.091,0.18,0.187,0.261,0.287c0.315,0.384,0.26,0.951-0.124,1.267
	c-0.386,0.316-0.951,0.259-1.267-0.125c-0.043-0.052-0.089-0.103-0.137-0.15C18.258,1.995,17.782,1.8,17.275,1.8H3.687
	C2.646,1.8,1.8,2.636,1.8,3.663v13.473C1.8,18.164,2.646,19,3.687,19h13.588c1.042,0,1.89-0.836,1.89-1.863v-4.688
	c0-0.497,0.403-0.9,0.9-0.9s0.9,0.403,0.9,0.9v4.688C20.966,19.157,19.311,20.8,17.275,20.8z"/>
<path fill="#76A3F7" d="M11.325,15.64c-0.269,0-0.538-0.098-0.749-0.294L3.891,9.137C3.446,8.724,3.42,8.027,3.833,7.583
	c0.414-0.444,1.109-0.471,1.555-0.058l5.932,5.51L23.147,1.914c0.443-0.416,1.139-0.395,1.556,0.048
	c0.416,0.442,0.395,1.139-0.048,1.555L12.078,15.342C11.867,15.541,11.596,15.64,11.325,15.64z"/>
</svg>
