<?xml version="1.0" encoding="utf-8"?>
<!-- Generator: Adobe Illustrator 16.0.0, SVG Export Plug-In . SVG Version: 6.00 Build 0)  -->
<!DOCTYPE svg PUBLIC "-//W3C//DTD SVG 1.1//EN" "http://www.w3.org/Graphics/SVG/1.1/DTD/svg11.dtd">
<svg version="1.1" id="图层_1" xmlns="http://www.w3.org/2000/svg" xmlns:xlink="http://www.w3.org/1999/xlink" x="0px" y="0px"
	 width="22.765px" height="22.766px" viewBox="-0.4 -0.4 22.765 22.766" enable-background="new -0.4 -0.4 22.765 22.766"
	 xml:space="preserve">
<path fill="#76A3F7" d="M14.146,4.379H7.78v-0.9c0-1.928,1.112-3.879,3.239-3.879c2.053,0,3.127,1.951,3.127,3.879V4.379z
	 M9.719,2.579h2.499c-0.15-0.562-0.48-1.179-1.198-1.179C10.24,1.4,9.883,2.017,9.719,2.579z"/>
<path fill="#76A3F7" d="M17.521,22.366H5.506c-0.084,0-0.167-0.012-0.248-0.035c-1.623-0.465-2.714-1.753-2.714-3.205V9.613
	C0.883,9.374-0.4,7.896-0.4,6.114c0-1.949,1.533-3.535,3.418-3.535h15.927c1.886,0,3.42,1.586,3.42,3.535
	c0,0.924-0.34,1.756-0.955,2.345c-0.628,0.6-1.484,0.917-2.433,0.864c-0.496-0.022-0.881-0.443-0.858-0.939
	c0.023-0.497,0.426-0.896,0.94-0.858c0.435,0.012,0.838-0.111,1.106-0.368c0.261-0.25,0.398-0.61,0.398-1.044
	c0-0.957-0.727-1.735-1.619-1.735H3.018C2.126,4.379,1.4,5.157,1.4,6.114c0,0.956,0.726,1.733,1.618,1.733h0.426
	c0.497,0,0.9,0.403,0.9,0.9v10.379c0,0.7,0.635,1.217,1.298,1.439h11.726c0.595-0.229,1.19-0.756,1.19-1.439v-7.381
	c0-0.497,0.403-0.9,0.9-0.9s0.9,0.403,0.9,0.9v7.381c0,1.421-1.03,2.706-2.563,3.197C17.707,22.352,17.614,22.366,17.521,22.366z"/>
<path fill="#76A3F7" d="M7.432,18.738c-0.497,0-0.9-0.403-0.9-0.9V7.519c0-0.497,0.403-0.9,0.9-0.9s0.9,0.403,0.9,0.9v10.319
	C8.332,18.335,7.929,18.738,7.432,18.738z"/>
<path fill="#76A3F7" d="M11.479,18.738c-0.497,0-0.9-0.403-0.9-0.9V7.519c0-0.497,0.403-0.9,0.9-0.9s0.9,0.403,0.9,0.9v10.319
	C12.379,18.335,11.976,18.738,11.479,18.738z"/>
<path fill="#76A3F7" d="M15.434,18.738c-0.497,0-0.9-0.403-0.9-0.9V7.519c0-0.497,0.403-0.9,0.9-0.9s0.9,0.403,0.9,0.9v10.319
	C16.334,18.335,15.931,18.738,15.434,18.738z"/>
</svg>
