<?xml version="1.0" encoding="utf-8"?>
<!-- Generator: Adobe Illustrator 16.0.0, SVG Export Plug-In . SVG Version: 6.00 Build 0)  -->
<!DOCTYPE svg PUBLIC "-//W3C//DTD SVG 1.1//EN" "http://www.w3.org/Graphics/SVG/1.1/DTD/svg11.dtd">
<svg version="1.1" xmlns="http://www.w3.org/2000/svg" xmlns:xlink="http://www.w3.org/1999/xlink" x="0px" y="0px"
	 width="100px" height="97.711px" viewBox="99.996 101.147 100 97.711" enable-background="new 99.996 101.147 100 97.711"
	 xml:space="preserve">
<g>
	<path fill="#76A3F7" d="M171.306,155.525c-3.528,0-6.853-1.279-9.43-3.614l7.262-7.127c0.442,0.092,0.909,0.139,1.393,0.139
		c2.256,0,4.679-0.996,6.321-2.599l9.027-8.808c1.491-1.459,2.314-3.398,2.32-5.461c0.006-2.062-0.806-4.004-2.286-5.47
		l-7.679-7.589c-1.483-1.468-3.46-2.277-5.564-2.277c-2.085,0-4.055,0.796-5.545,2.242l-9.028,8.803
		c-2.171,2.127-3.109,5.043-2.458,7.537l-7.416,7.124c-2.355-2.525-3.64-5.781-3.63-9.23c0.01-3.647,1.465-7.07,4.098-9.638
		l14.189-13.841c2.617-2.559,6.097-3.968,9.798-3.968c3.735,0,7.247,1.431,9.886,4.029l12.786,12.651
		c2.621,2.587,4.059,6.018,4.047,9.662c-0.011,3.643-1.47,7.065-4.106,9.636l-14.174,13.829
		C178.49,154.114,175.007,155.525,171.306,155.525C171.307,155.525,171.307,155.525,171.306,155.525z"/>
	<path fill="#76A3F7" d="M127.799,198.259c-3.807,0-7.379-1.456-10.059-4.099l-13.025-12.879c-2.668-2.639-4.13-6.139-4.119-9.854
		c0.012-3.715,1.496-7.204,4.179-9.824l13.681-13.358c2.672-2.608,6.223-4.044,10-4.044c3.604,0,7,1.305,9.628,3.688l-7.441,7.373
		c-0.562-0.15-1.15-0.227-1.751-0.227c-2.144,0-4.362,0.959-6.086,2.633l-8.439,8.238c-1.513,1.471-2.352,3.44-2.361,5.546
		c-0.009,2.109,0.815,4.091,2.321,5.58l7.834,7.718c1.511,1.493,3.524,2.316,5.667,2.316c2.121,0,4.117-0.809,5.621-2.276
		l8.433-8.239c2.069-2.019,3.128-5.198,2.603-7.702l7.477-7.243c2.402,2.581,3.713,5.903,3.703,9.421
		c-0.01,3.716-1.492,7.207-4.174,9.832l-13.68,13.357C135.13,196.822,131.576,198.259,127.799,198.259z"/>
	<path fill="#76A3F7" d="M138.436,165.841c-1.169,0-2.264-0.456-3.083-1.283c-1.687-1.706-1.675-4.469,0.027-6.157l23.383-23.249
		c0.82-0.812,1.909-1.26,3.065-1.26c1.165,0,2.258,0.454,3.079,1.277c0.82,0.824,1.271,1.916,1.269,3.074
		c-0.003,1.163-0.462,2.258-1.291,3.082l-23.377,23.254C140.684,165.393,139.592,165.841,138.436,165.841
		C138.436,165.841,138.436,165.841,138.436,165.841z"/>
</g>
</svg>
