<?xml version="1.0" encoding="utf-8"?>
<!-- Generator: Adobe Illustrator 16.0.0, SVG Export Plug-In . SVG Version: 6.00 Build 0)  -->
<!DOCTYPE svg PUBLIC "-//W3C//DTD SVG 1.1//EN" "http://www.w3.org/Graphics/SVG/1.1/DTD/svg11.dtd">
<svg version="1.1" id="图层_1" xmlns="http://www.w3.org/2000/svg" xmlns:xlink="http://www.w3.org/1999/xlink" x="0px" y="0px"
	 width="24.8px" height="18.8px" viewBox="-0.4 -0.4 24.8 18.8" enable-background="new -0.4 -0.4 24.8 18.8" xml:space="preserve">
<path fill="#76A3F7" d="M21.584,18.4H2.414c-1.552,0-2.814-1.229-2.814-2.737V2.337C-0.4,0.828,0.862-0.4,2.414-0.4h19.17
	c1.553,0,2.816,1.228,2.816,2.737v13.326C24.4,17.172,23.137,18.4,21.584,18.4z M2.414,1.4C1.855,1.4,1.4,1.82,1.4,2.337v13.326
	c0,0.517,0.455,0.937,1.014,0.937h19.17c0.561,0,1.016-0.42,1.016-0.937V2.337c0-0.517-0.455-0.937-1.016-0.937H2.414z"/>
<path fill="#76A3F7" d="M3.809,12.989c-0.3,0-0.592-0.149-0.763-0.422c-0.264-0.421-0.137-0.977,0.284-1.241l4.174-2.619
	L3.328,6.072c-0.42-0.266-0.546-0.821-0.281-1.242C3.312,4.411,3.868,4.286,4.289,4.55l5.385,3.399
	c0.262,0.165,0.42,0.453,0.419,0.762c0,0.31-0.16,0.597-0.421,0.761l-5.385,3.379C4.138,12.944,3.972,12.989,3.809,12.989z"/>
<path fill="#76A3F7" d="M15.609,13.59h-5.384c-0.497,0-0.9-0.403-0.9-0.9s0.403-0.9,0.9-0.9h5.384c0.497,0,0.9,0.403,0.9,0.9
	S16.106,13.59,15.609,13.59z"/>
<circle fill="#76A3F7" cx="17.029" cy="3.726" r="1"/>
<circle fill="#76A3F7" cx="20.417" cy="3.726" r="1"/>
</svg>
