<?xml version="1.0" encoding="utf-8"?>
<!-- Generator: Adobe Illustrator 16.0.0, SVG Export Plug-In . SVG Version: 6.00 Build 0)  -->
<!DOCTYPE svg PUBLIC "-//W3C//DTD SVG 1.1//EN" "http://www.w3.org/Graphics/SVG/1.1/DTD/svg11.dtd">
<svg version="1.1" id="Capa_1" xmlns="http://www.w3.org/2000/svg" xmlns:xlink="http://www.w3.org/1999/xlink" x="0px" y="0px"
	 width="67.721px" height="77.044px" viewBox="16.14 17.132 67.721 77.044" enable-background="new 16.14 17.132 67.721 77.044"
	 xml:space="preserve">
<path fill="#76A3F7" d="M23.022,93.976c-3.685,0-6.682-2.998-6.682-6.684V24.015c0-3.685,2.998-6.683,6.682-6.683h53.955
	c3.686,0,6.684,2.998,6.684,6.683v52.429c0,0.843-0.343,1.67-0.939,2.269L68.397,93.036c-0.607,0.605-1.413,0.939-2.269,0.939
	H23.022z M23.23,86.889l38.288-0.001V75.887c0-2.343,1.905-4.249,4.248-4.249h11.002V24.417H23.23V86.889z"/>
<path display="none" fill="#76A3F7" d="M41.632,58.392c4.874,0,8.838-3.968,8.838-8.847l0.007-16.027
	c0-1.885-1.534-3.418-3.419-3.418s-3.419,1.534-3.419,3.418l-0.007,16.027c0,1.107-0.897,2.005-2,2.005h-3.253
	c-1.105,0-2.003-0.897-2.003-2.005V13.764c0-1.105,0.898-2.003,2.003-2.003h8.673c1.105,0,2.003,0.898,2.003,2.003v3.471h6.83
	v-3.471c0-4.874-3.964-8.84-8.833-8.84h-8.673c-4.876,0-8.845,3.966-8.845,8.84v35.777c0,4.881,3.968,8.851,8.845,8.851H41.632z"/>
<path fill="#76A3F7" d="M35.72,40.899c-1.616,0-2.931-1.315-2.931-2.931c0-1.62,1.315-2.938,2.931-2.938h28.562
	c1.615,0,2.93,1.318,2.93,2.938c0,1.616-1.314,2.931-2.93,2.931H35.72z"/>
<path display="none" fill="#76A3F7" d="M35.72,39.432c-1.286,0-2.331-1.045-2.331-2.331c0-1.289,1.045-2.337,2.331-2.337h28.562
	c1.285,0,2.33,1.049,2.33,2.337c0,1.286-1.045,2.331-2.33,2.331H35.72z"/>
<path fill="#76A3F7" d="M35.72,53.605c-1.616,0-2.931-1.315-2.931-2.932c0-1.626,1.315-2.945,2.931-2.945h28.562
	c1.615,0,2.93,1.319,2.93,2.945c0,1.616-1.314,2.932-2.93,2.932H35.72z"/>
<path fill="#76A3F7" d="M35.72,66.346c-1.616,0-2.931-1.315-2.931-2.932c0-1.619,1.315-2.938,2.931-2.938h28.562
	c1.615,0,2.93,1.318,2.93,2.938c0,1.616-1.314,2.932-2.93,2.932H35.72z"/>
</svg>
