<?xml version="1.0" encoding="utf-8"?>
<!-- Generator: Adobe Illustrator 16.0.0, SVG Export Plug-In . SVG Version: 6.00 Build 0)  -->
<!DOCTYPE svg PUBLIC "-//W3C//DTD SVG 1.1//EN" "http://www.w3.org/Graphics/SVG/1.1/DTD/svg11.dtd">
<svg version="1.1" id="图层_1" xmlns="http://www.w3.org/2000/svg" xmlns:xlink="http://www.w3.org/1999/xlink" x="0px" y="0px"
	 width="21.8px" height="22.259px" viewBox="-0.771 -0.629 21.8 22.259" enable-background="new -0.771 -0.629 21.8 22.259"
	 xml:space="preserve">
<path fill="#7DA8F9" d="M8.565,21.629c-4.498,0-9.313-2.739-9.335-10.427V6.65c0-3.613,2.759-6.553,6.15-6.553h1.039
	c3.392,0,6.152,2.939,6.152,6.553v4.516c0,2.42-1.725,4.389-3.845,4.389c-2.12,0-3.844-1.969-3.844-4.389V6.443
	c0-0.497,0.403-0.9,0.9-0.9s0.9,0.403,0.9,0.9v4.723c0,1.427,0.917,2.588,2.044,2.588c1.127,0,2.045-1.161,2.045-2.588V6.65
	c0-2.621-1.952-4.753-4.352-4.753H5.38c-2.399,0-4.351,2.132-4.351,4.753V11.2c0.024,8.007,5.774,8.629,7.536,8.629
	c1.768,0,7.536-0.619,7.536-8.594V0.998c0-0.497,0.403-0.9,0.9-0.9s0.9,0.403,0.9,0.9v10.237
	C17.902,18.898,13.079,21.629,8.565,21.629z"/>
<path fill="#7DA8F9" d="M20.129,4.286c-0.23,0-0.46-0.088-0.636-0.263l-2.482-2.48l-2.479,2.479c-0.352,0.352-0.922,0.352-1.273,0
	c-0.352-0.351-0.352-0.921,0-1.272l3.115-3.116c0.352-0.352,0.921-0.351,1.272,0l3.118,3.116c0.352,0.352,0.353,0.921,0.001,1.273
	C20.59,4.198,20.36,4.286,20.129,4.286z"/>
</svg>
