<?xml version="1.0" encoding="utf-8"?>
<!-- Generator: Adobe Illustrator 16.0.0, SVG Export Plug-In . SVG Version: 6.00 Build 0)  -->
<!DOCTYPE svg PUBLIC "-//W3C//DTD SVG 1.1//EN" "http://www.w3.org/Graphics/SVG/1.1/DTD/svg11.dtd">
<svg version="1.1" id="图层_1" xmlns="http://www.w3.org/2000/svg" xmlns:xlink="http://www.w3.org/1999/xlink" x="0px" y="0px"
	 width="25.8px" height="19.539px" viewBox="-0.9 -0.77 25.8 19.539" enable-background="new -0.9 -0.77 25.8 19.539"
	 xml:space="preserve">
<g>
	<path fill="#76A3F7" d="M22.001-0.77H1.997C0.399-0.77-0.9,0.494-0.9,2.047v13.906c0,1.553,1.299,2.816,2.897,2.816h20.004
		c1.599,0,2.899-1.264,2.899-2.816V2.047C24.9,0.494,23.6-0.77,22.001-0.77z M0.9,2.047c0-0.561,0.492-1.017,1.097-1.017h20.004
		c0.606,0,1.099,0.457,1.099,1.017v8.545l-3.612-2.632l-6.084,4.618l-2.323-2.386l-9.61,6.633c-0.334-0.175-0.57-0.493-0.57-0.873
		V2.047z M22.001,16.969H4.433l6.419-4.43l2.372,2.437l6.285-4.771L23.1,12.82v3.133C23.1,16.514,22.607,16.969,22.001,16.969z"/>
	<path fill="#76A3F7" d="M6.748,9.734c1.938,0,3.514-1.575,3.514-3.511c0-1.933-1.576-3.506-3.514-3.506
		c-1.932,0-3.503,1.573-3.503,3.506C3.245,8.159,4.816,9.734,6.748,9.734z M6.748,4.517c0.945,0,1.714,0.766,1.714,1.706
		c0,0.944-0.769,1.711-1.714,1.711c-0.939,0-1.704-0.768-1.704-1.711C5.044,5.282,5.809,4.517,6.748,4.517z"/>
</g>
</svg>
