<?xml version="1.0" encoding="utf-8"?>
<!-- Generator: Adobe Illustrator 16.0.0, SVG Export Plug-In . SVG Version: 6.00 Build 0)  -->
<!DOCTYPE svg PUBLIC "-//W3C//DTD SVG 1.1//EN" "http://www.w3.org/Graphics/SVG/1.1/DTD/svg11.dtd">
<svg version="1.1" id="图层_1" xmlns="http://www.w3.org/2000/svg" xmlns:xlink="http://www.w3.org/1999/xlink" x="0px" y="0px"
	 width="24.8px" height="18.8px" viewBox="-0.4 -0.4 24.8 18.8" enable-background="new -0.4 -0.4 24.8 18.8" xml:space="preserve">
<path fill="#76A3F7" d="M21.584,18.4H2.414c-1.552,0-2.814-1.229-2.814-2.737V2.337C-0.4,0.828,0.862-0.4,2.414-0.4h19.17
	c1.553,0,2.816,1.228,2.816,2.737v13.326C24.4,17.172,23.137,18.4,21.584,18.4z M2.414,1.4C1.855,1.4,1.4,1.82,1.4,2.337v13.326
	c0,0.517,0.455,0.937,1.014,0.937h19.17c0.561,0,1.016-0.42,1.016-0.937V2.337c0-0.517-0.455-0.937-1.016-0.937H2.414z"/>
<circle fill="#76A3F7" cx="17.029" cy="3.726" r="1"/>
<circle fill="#76A3F7" cx="20.417" cy="3.726" r="1"/>
<rect x="2.584" y="6.208" fill="#76A3F7" width="1.8" height="8.399"/>
<rect x="6.726" y="6.589" fill="#76A3F7" width="11.875" height="1.8"/>
<rect x="6.719" y="9.632" fill="#76A3F7" width="13.793" height="1.8"/>
<rect x="6.725" y="12.584" fill="#76A3F7" width="9.563" height="1.801"/>
</svg>
