<?xml version="1.0" encoding="utf-8"?>
<!-- Generator: Adobe Illustrator 16.0.0, SVG Export Plug-In . SVG Version: 6.00 Build 0)  -->
<!DOCTYPE svg PUBLIC "-//W3C//DTD SVG 1.1//EN" "http://www.w3.org/Graphics/SVG/1.1/DTD/svg11.dtd">
<svg version="1.1" id="图层_1" xmlns="http://www.w3.org/2000/svg" xmlns:xlink="http://www.w3.org/1999/xlink" x="0px" y="0px"
	 width="22.2px" height="22.264px" viewBox="-0.154 -0.152 22.2 22.264" enable-background="new -0.154 -0.152 22.2 22.264"
	 xml:space="preserve">
<path fill="#76A3F7" d="M8.092,5.398c-0.079,0-0.158-0.008-0.238-0.026C7.261,5.242,6.886,4.655,7.017,4.062l0.739-3.35
	c0.131-0.593,0.721-0.965,1.311-0.837c0.593,0.131,0.968,0.718,0.837,1.311l-0.739,3.35C9.052,5.049,8.597,5.398,8.092,5.398z"/>
<path fill="#76A3F7" d="M12.104,7.768H0.947c-0.607,0-1.1-0.493-1.1-1.1s0.493-1.1,1.1-1.1h11.158c0.607,0,1.1,0.493,1.1,1.1
	S12.712,7.768,12.104,7.768z"/>
<path fill="#76A3F7" d="M20.947,15.424L20.947,15.424L9.592,15.422c-0.608,0-1.1-0.492-1.1-1.1s0.493-1.1,1.1-1.1l0,0l11.355,0.002
	c0.607,0,1.101,0.492,1.1,1.1C22.047,14.932,21.554,15.424,20.947,15.424z"/>
<path fill="#76A3F7" d="M5.419,15.426H0.947c-0.607,0-1.1-0.492-1.1-1.1s0.493-1.1,1.1-1.1h4.472c0.607,0,1.1,0.492,1.1,1.1
	S6.026,15.426,5.419,15.426z"/>
<path fill="#76A3F7" d="M4.664,22.113c-0.071,0-0.144-0.008-0.217-0.021c-0.596-0.12-0.982-0.699-0.863-1.295L5.832,9.565
	c0.119-0.595,0.7-0.981,1.294-0.863c0.596,0.119,0.982,0.699,0.863,1.294L5.742,21.228C5.637,21.75,5.178,22.113,4.664,22.113z"/>
<path fill="#76A3F7" d="M20.947,7.768H16.34c-0.607,0-1.1-0.493-1.1-1.1s0.492-1.1,1.1-1.1h4.607c0.607,0,1.1,0.493,1.1,1.1
	S21.554,7.768,20.947,7.768z"/>
<path fill="#76A3F7" d="M14.835,12.859c-0.074,0-0.149-0.008-0.225-0.023c-0.595-0.124-0.977-0.706-0.854-1.301l2.248-10.81
	c0.124-0.594,0.708-0.974,1.301-0.853c0.595,0.124,0.977,0.707,0.854,1.301l-2.248,10.81C15.802,12.501,15.345,12.859,14.835,12.859
	z"/>
<path fill="#76A3F7" d="M13.024,22.062c-0.071,0-0.144-0.008-0.216-0.021c-0.596-0.119-0.983-0.698-0.864-1.294l0.739-3.709
	c0.119-0.596,0.703-0.974,1.294-0.864c0.596,0.119,0.982,0.698,0.864,1.294l-0.739,3.709C13.998,21.7,13.538,22.062,13.024,22.062z"
	/>
</svg>
