<?xml version="1.0" encoding="utf-8"?>
<!-- Generator: Adobe Illustrator 16.0.0, SVG Export Plug-In . SVG Version: 6.00 Build 0)  -->
<!DOCTYPE svg PUBLIC "-//W3C//DTD SVG 1.1//EN" "http://www.w3.org/Graphics/SVG/1.1/DTD/svg11.dtd">
<svg version="1.1" id="图层_1" xmlns="http://www.w3.org/2000/svg" xmlns:xlink="http://www.w3.org/1999/xlink" x="0px" y="0px"
	 width="55.051px" height="22.299px" viewBox="0 0 55.051 22.299" enable-background="new 0 0 55.051 22.299" xml:space="preserve">
<polyline fill="none" stroke="#565656" stroke-width="0.5" stroke-linecap="round" stroke-linejoin="round" stroke-miterlimit="10" points="
	16.793,12.25 17.679,11.845 17.679,10.15 16.785,9.762 "/>
<polyline fill="none" stroke="#565656" stroke-linejoin="round" stroke-miterlimit="10" points="17.778,11.091 25.516,11.091 
	25.516,20.736 29.71,20.736 "/>
<polyline fill="none" stroke="#565656" stroke-linejoin="round" stroke-miterlimit="10" points="17.778,11.097 25.516,11.097 
	25.516,1.654 29.71,1.654 "/>
<line fill="none" stroke="#565656" stroke-linejoin="round" stroke-miterlimit="10" x1="26.044" y1="11.097" x2="29.997" y2="11.097"/>
<polyline fill="none" stroke="#565656" stroke-width="0.5" stroke-linecap="round" stroke-linejoin="round" stroke-miterlimit="10" points="
	30.632,19.496 29.75,19.902 29.75,21.597 30.64,21.984 "/>
<polyline fill="none" stroke="#565656" stroke-width="0.5" stroke-linecap="round" stroke-linejoin="round" stroke-miterlimit="10" points="
	30.829,9.853 29.948,10.259 29.948,11.953 30.837,12.341 "/>
<polyline fill="none" stroke="#565656" stroke-width="0.5" stroke-linecap="round" stroke-linejoin="round" stroke-miterlimit="10" points="
	30.632,0.372 29.75,0.778 29.75,2.473 30.64,2.86 "/>
<path fill="#0CAD2B" d="M43.14,21.775c0,0.28-0.213,0.508-0.477,0.508h-9.536c-0.264,0-0.477-0.228-0.477-0.508v-2.131
	c0-0.281,0.213-0.508,0.477-0.508h9.536c0.264,0,0.477,0.227,0.477,0.508V21.775z"/>
<path fill="#E55353" d="M10.491,12.062c0,0.26-0.235,0.471-0.524,0.471H0.526c-0.29,0-0.524-0.211-0.524-0.471V9.859
	c0-0.262,0.235-0.473,0.524-0.473h9.441c0.29,0,0.524,0.211,0.524,0.473V12.062z"/>
<path fill="#E1B622" d="M50.422,2.719c0,0.244-0.235,0.441-0.524,0.441H33.174c-0.29,0-0.523-0.197-0.523-0.441V0.456
	c0-0.244,0.233-0.442,0.523-0.442h16.724c0.289,0,0.524,0.198,0.524,0.442V2.719z"/>
<rect x="32.65" y="9.188" fill="none" width="20.658" height="4.236"/>
<text transform="matrix(1 0 0 1 32.6738 12.252)" fill="#79B2EA" font-family="'HelveticaNeue-Medium'" font-size="3.5754">#myinbility</text>
<path fill="#3DD3A5" d="M14.75,11.712c0,0.476-0.384,0.858-0.858,0.858h-1.43c-0.474,0-0.858-0.383-0.858-0.858v-1.43
	c0-0.474,0.384-0.858,0.858-0.858h1.43c0.474,0,0.858,0.385,0.858,0.858V11.712z"/>
<polygon fill="#E576E5" points="47.531,22.212 44.072,22.204 45.807,19.212 "/>
<g>
	<path fill="#FBD971" d="M55.05,11.09c0,0.967-0.783,1.751-1.75,1.751c-0.966,0-1.75-0.784-1.75-1.751s0.784-1.75,1.75-1.75
		C54.267,9.34,55.05,10.123,55.05,11.09"/>
	<g>
		<path fill="#E57E25" d="M54.266,10.547c-0.034,0-0.061-0.027-0.061-0.061c0-0.1-0.082-0.18-0.181-0.18
			c-0.101,0-0.182,0.08-0.182,0.18c0,0.033-0.027,0.061-0.061,0.061s-0.061-0.027-0.061-0.061c0-0.166,0.136-0.301,0.303-0.301
			c0.166,0,0.302,0.135,0.302,0.301C54.326,10.52,54.299,10.547,54.266,10.547"/>
		<path fill="#E57E25" d="M52.817,10.547c-0.033,0-0.061-0.027-0.061-0.061c0-0.1-0.081-0.18-0.181-0.18
			c-0.101,0-0.182,0.08-0.182,0.18c0,0.033-0.026,0.061-0.061,0.061c-0.033,0-0.061-0.027-0.061-0.061
			c0-0.166,0.136-0.301,0.303-0.301c0.166,0,0.301,0.135,0.301,0.301C52.877,10.52,52.851,10.547,52.817,10.547"/>
	</g>
	<path fill="#FB7B76" d="M53.722,11.936v0.121c0,0.232-0.188,0.422-0.422,0.422s-0.423-0.189-0.423-0.422v-0.121v-0.23
		c0-0.104,0.084-0.195,0.188-0.191c0.09,0.002,0.172,0.063,0.234,0.119c0.062-0.056,0.145-0.117,0.234-0.119
		c0.104-0.004,0.188,0.087,0.188,0.191V11.936"/>
	<path fill="#C03A2B" d="M54.123,11.271h-1.646c-0.066,0-0.104,0.074-0.067,0.129c0.116,0.17,0.277,0.306,0.468,0.388v-0.083
		c0-0.104,0.084-0.195,0.188-0.191c0.09,0.002,0.172,0.063,0.234,0.119c0.062-0.056,0.145-0.117,0.234-0.119
		c0.104-0.004,0.188,0.087,0.188,0.191v0.083c0.19-0.082,0.354-0.218,0.469-0.39C54.228,11.345,54.189,11.271,54.123,11.271"/>
</g>
</svg>
