<?xml version="1.0" encoding="utf-8"?>
<!-- Generator: Adobe Illustrator 16.0.0, SVG Export Plug-In . SVG Version: 6.00 Build 0)  -->
<!DOCTYPE svg PUBLIC "-//W3C//DTD SVG 1.1//EN" "http://www.w3.org/Graphics/SVG/1.1/DTD/svg11.dtd">
<svg version="1.1" xmlns="http://www.w3.org/2000/svg" xmlns:xlink="http://www.w3.org/1999/xlink" x="0px" y="0px"
	 width="20.311px" height="10.567px" viewBox="0 0 20.311 10.567" enable-background="new 0 0 20.311 10.567" xml:space="preserve">
<g id="test-icon-3-2">
	
		<line fill="none" stroke="#ECECEC" stroke-width="1.5" stroke-linecap="round" stroke-miterlimit="10" x1="15.608" y1="5.595" x2="19.561" y2="5.595"/>
	
		<polyline fill="none" stroke="#ECECEC" stroke-width="1.5" stroke-linecap="round" stroke-linejoin="round" stroke-miterlimit="10" points="
		8.519,9.817 5.289,8.339 5.289,2.164 8.55,0.75 	"/>
	
		<line fill="none" stroke="#ECECEC" stroke-width="1.5" stroke-linecap="round" stroke-miterlimit="10" x1="4.702" y1="5.597" x2="0.75" y2="5.597"/>
	
		<polyline fill="none" stroke="#ECECEC" stroke-width="1.5" stroke-linecap="round" stroke-linejoin="round" stroke-miterlimit="10" points="
		12.369,9.817 15.6,8.339 15.6,2.164 12.339,0.75 	"/>
</g>
<g id="test-icon-3">
	
		<line fill="none" stroke="#AAABAE" stroke-linecap="round" stroke-miterlimit="10" x1="-29.328" y1="71.09" x2="-25.376" y2="71.09"/>
	<polyline fill="none" stroke="#AAABAE" stroke-linecap="round" stroke-linejoin="round" stroke-miterlimit="10" points="
		-36.418,75.313 -39.647,73.834 -39.647,67.66 -36.387,66.246 	"/>
	
		<line fill="none" stroke="#AAABAE" stroke-linecap="round" stroke-miterlimit="10" x1="-40.234" y1="71.092" x2="-44.187" y2="71.092"/>
	<polyline fill="none" stroke="#AAABAE" stroke-linecap="round" stroke-linejoin="round" stroke-miterlimit="10" points="
		-32.567,75.313 -29.337,73.834 -29.337,67.66 -32.598,66.246 	"/>
</g>
<g id="test-icon-2">
	<g display="none">
		<g display="inline">
			<g id="Chart_1_">
				<g>
					<path fill="#91969B" d="M-68.12,78.492v-17.43h-2.49v18.675c0,0.687,0.557,1.245,1.245,1.245h18.674v-2.49H-68.12z
						 M-65.007,76.001h1.245c0.344,0,0.623-0.278,0.623-0.622v-6.225c0-0.344-0.278-0.623-0.623-0.623h-1.245
						c-0.344,0-0.623,0.279-0.623,0.623v6.225C-65.629,75.723-65.351,76.001-65.007,76.001z M-61.272,76.001h1.245
						c0.344,0,0.623-0.278,0.623-0.622V64.174c0-0.343-0.278-0.622-0.623-0.622h-1.245c-0.344,0-0.623,0.279-0.623,0.622v11.205
						C-61.895,75.723-61.616,76.001-61.272,76.001z M-57.537,76.001h1.245c0.344,0,0.623-0.278,0.623-0.622v-3.735
						c0-0.344-0.279-0.622-0.623-0.622h-1.245c-0.344,0-0.623,0.278-0.623,0.622v3.735C-58.16,75.723-57.881,76.001-57.537,76.001z
						 M-53.802,76.001h1.245c0.344,0,0.623-0.278,0.623-0.622v-8.715c0-0.344-0.278-0.622-0.623-0.622h-1.245
						c-0.344,0-0.623,0.278-0.623,0.622v8.715C-54.425,75.723-54.146,76.001-53.802,76.001z"/>
				</g>
			</g>
		</g>
	</g>
	<g>
		<g>
			<g id="Chart">
				<g>
					<path fill="#AAABAE" d="M-66.367,77.441h0.825c0.229,0,0.414-0.278,0.414-0.621v-6.226c0-0.344-0.185-0.623-0.414-0.623h-0.825
						c-0.229,0-0.414,0.279-0.414,0.623v6.226C-66.781,77.163-66.596,77.441-66.367,77.441z"/>
				</g>
			</g>
		</g>
	</g>
	<polyline fill="none" stroke="#AAABAE" stroke-linecap="round" stroke-linejoin="round" stroke-miterlimit="10" points="
		-51.14,80.268 -70.099,80.268 -70.099,62.204 	"/>
	<g>
		<g>
			<g id="Chart_2_">
				<g>
					<path fill="#AAABAE" d="M-62.67,77.441h0.825c0.228,0,0.414-0.278,0.414-0.622V65.614c0-0.343-0.186-0.622-0.414-0.622h-0.825
						c-0.229,0-0.414,0.279-0.414,0.622v11.205C-63.084,77.163-62.899,77.441-62.67,77.441z"/>
				</g>
			</g>
		</g>
	</g>
	<g>
		<g>
			<g id="Chart_3_">
				<g>
					<path fill="#AAABAE" d="M-58.867,77.461h0.824c0.229,0,0.414-0.186,0.414-0.415v-4.168c0-0.229-0.186-0.417-0.414-0.417h-0.824
						c-0.229,0-0.414,0.188-0.414,0.417v4.168C-59.281,77.276-59.096,77.461-58.867,77.461z"/>
				</g>
			</g>
		</g>
	</g>
	<g>
		<g>
			<g id="Chart_4_">
				<g>
					<path fill="#AAABAE" d="M-55.107,77.441h0.824c0.229,0,0.414-0.224,0.414-0.5v-9c0-0.275-0.186-0.5-0.414-0.5h-0.824
						c-0.229,0-0.414,0.225-0.414,0.5v9C-55.521,77.217-55.337,77.441-55.107,77.441z"/>
				</g>
			</g>
		</g>
	</g>
</g>
<g id="test-icon-1">
	<path fill="#AAABAE" stroke="#AAABAE" stroke-miterlimit="10" d="M-93.436,65.56c0,0.6-0.486,1.086-1.087,1.086h-0.61
		c-0.601,0-1.088-0.486-1.088-1.086v-0.612c0-0.601,0.487-1.087,1.088-1.087h0.61c0.601,0,1.087,0.486,1.087,1.087V65.56z"/>
	<path fill="#AAABAE" stroke="#AAABAE" stroke-miterlimit="10" d="M-93.436,70.979c0,0.601-0.486,1.087-1.087,1.087h-0.61
		c-0.601,0-1.088-0.486-1.088-1.087v-0.611c0-0.601,0.487-1.087,1.088-1.087h0.61c0.601,0,1.087,0.486,1.087,1.087V70.979z"/>
	<path fill="#AAABAE" stroke="#AAABAE" stroke-miterlimit="10" d="M-93.436,76.46c0,0.601-0.486,1.087-1.087,1.087h-0.61
		c-0.601,0-1.088-0.486-1.088-1.087v-0.611c0-0.601,0.487-1.087,1.088-1.087h0.61c0.601,0,1.087,0.486,1.087,1.087V76.46z"/>
	<rect x="-90.825" y="64.504" fill="#AAABAE" width="14.131" height="1.5"/>
	<rect x="-90.825" y="69.923" fill="#AAABAE" width="14.131" height="1.5"/>
	<rect x="-90.825" y="75.405" fill="#AAABAE" width="14.131" height="1.5"/>
</g>
<g id="circle">
	<path fill="#AAABAE" d="M-6.781,31.651c0,6.074-4.925,11-11,11s-11-4.926-11-11c0-6.075,4.925-11,11-11S-6.781,25.576-6.781,31.651
		z M-17.781,24.151c-4.143,0-7.5,3.357-7.5,7.5c0,4.143,3.357,7.5,7.5,7.5s7.5-3.357,7.5-7.5
		C-10.281,27.509-13.639,24.151-17.781,24.151z"/>
</g>
<g id="minus">
	<path fill="#AAABAE" d="M-34.781,21.651c0,0.553-0.447,1-1,1h-8c-0.553,0-1-0.447-1-1l0,0c0-0.553,0.447-1,1-1h8
		C-35.229,20.651-34.781,21.099-34.781,21.651L-34.781,21.651z"/>
</g>
<g id="plus">
	<path fill="#AAABAE" d="M-50.781,25.151c0,0.5-0.405,0.904-0.905,0.904h-7.189c-0.5,0-0.905-0.404-0.905-0.904l0,0
		c0-0.5,0.405-0.905,0.905-0.905h7.189C-51.187,24.246-50.781,24.651-50.781,25.151L-50.781,25.151z"/>
	<path fill="#AAABAE" d="M-55.282,20.651c0.5,0,0.905,0.405,0.905,0.905v7.189c0,0.5-0.405,0.905-0.905,0.905l0,0
		c-0.5,0-0.904-0.405-0.904-0.905v-7.189C-56.187,21.057-55.782,20.651-55.282,20.651L-55.282,20.651z"/>
</g>
<g id="topo">
	<polyline fill="#AAABAE" stroke="#AAABAE" stroke-width="3" stroke-miterlimit="10" points="-73.977,22.015 -76.918,23.362 
		-76.918,28.99 -73.949,30.278 	"/>
	<polyline fill="#AAABAE" stroke="#AAABAE" stroke-width="3" stroke-miterlimit="10" points="-72.707,30.244 -69.791,28.907 
		-69.791,23.327 -72.734,22.052 	"/>
	<polyline fill="#AAABAE" stroke="#AAABAE" stroke-width="3" stroke-miterlimit="10" points="-91.58,35.795 -95.344,37.52 
		-95.344,44.719 -91.545,46.368 	"/>
	<polyline fill="#AAABAE" stroke="#AAABAE" stroke-width="3" stroke-miterlimit="10" points="-89.957,46.323 -86.227,44.614 
		-86.227,37.475 -89.992,35.84 	"/>
	<polyline fill="#AAABAE" stroke="#AAABAE" stroke-width="3" stroke-miterlimit="10" points="-71.467,45.313 -74.408,46.663 
		-74.408,52.29 -71.439,53.577 	"/>
	<polyline fill="#AAABAE" stroke="#AAABAE" stroke-width="3" stroke-miterlimit="10" points="-70.195,53.543 -67.281,52.206 
		-67.281,46.627 -70.227,45.348 	"/>
	<path fill="none" stroke="#AAABAE" stroke-width="3" stroke-miterlimit="10" d="M-85.441,41.083
		c5.582-0.033,2.75-14.945,7.762-14.937"/>
	<path fill="none" stroke="#AAABAE" stroke-width="3" stroke-miterlimit="10" d="M-85.441,41.167
		c6.736-0.021,4.426,8.35,10.775,8.363"/>
</g>
<g id="check-box">
	<path fill="#AAABAE" d="M-5.825,10.599c0,1.044-0.846,1.889-1.889,1.889h-13.222c-1.044,0-1.89-0.845-1.89-1.889V-2.623
		c0-1.044,0.846-1.889,1.89-1.889h13.222c1.043,0,1.889,0.845,1.889,1.889V10.599z"/>
	
		<polyline fill="none" stroke="#2F3136" stroke-width="3" stroke-linecap="round" stroke-linejoin="round" stroke-miterlimit="10" points="
		-19.003,4.035 -14.931,7.188 -9.163,-0.375 	"/>
</g>
<g id="chart-pie">
	<circle fill="#AAABAE" cx="-38.752" cy="5.543" r="7.943"/>
	<circle display="none" fill="none" stroke="#2452C6" stroke-miterlimit="10" cx="56.487" cy="-4.307" r="17.3"/>
	<path fill="#2F3136" stroke="#D7D9DD" stroke-miterlimit="10" d="M-38.753,5.543l1.419-9.486c4.029,0.6,6.845,3.448,7.881,6.766
		L-38.753,5.543z"/>
</g>
<g id="small-star">
	<polygon fill="#AAABAE" points="-61.696,-4.511 -58.915,1.124 -52.696,2.027 -57.196,6.413 -56.132,12.608 -61.696,9.683 
		-67.259,12.608 -66.196,6.413 -70.696,2.027 -64.478,1.124 	"/>
</g>
<g id="big-star">
	<polygon fill="none" stroke="#AAABAE" stroke-miterlimit="10" points="-86.77,-3.381 -83.988,2.254 -77.77,3.158 -82.27,7.543 
		-81.207,13.737 -86.77,10.813 -92.332,13.737 -91.27,7.543 -95.77,3.158 -89.551,2.254 	"/>
</g>
</svg>
