<?xml version="1.0" encoding="utf-8"?>
<!-- Generator: Adobe Illustrator 16.0.0, SVG Export Plug-In . SVG Version: 6.00 Build 0)  -->
<!DOCTYPE svg PUBLIC "-//W3C//DTD SVG 1.1//EN" "http://www.w3.org/Graphics/SVG/1.1/DTD/svg11.dtd">
<svg version="1.1" xmlns="http://www.w3.org/2000/svg" xmlns:xlink="http://www.w3.org/1999/xlink" x="0px" y="0px"
	 width="19.811px" height="10.066px" viewBox="0 0 19.811 10.066" enable-background="new 0 0 19.811 10.066" xml:space="preserve">
<g id="stretch-icon">
	<g>
		<g>
			<path fill="#91969B" d="M-51.089,28.399l16-7.677l-4.923,7.677l4.923,7.676L-51.089,28.399z"/>
		</g>
	</g>
</g>
<g id="test-icon-3-2">
	
		<line fill="none" stroke="#ECECEC" stroke-width="1.5" stroke-linecap="round" stroke-miterlimit="10" x1="39.984" y1="5.346" x2="43.937" y2="5.346"/>
	
		<polyline fill="none" stroke="#ECECEC" stroke-width="1.5" stroke-linecap="round" stroke-linejoin="round" stroke-miterlimit="10" points="
		32.895,9.568 29.665,8.09 29.665,1.914 32.926,0.5 	"/>
	
		<line fill="none" stroke="#ECECEC" stroke-width="1.5" stroke-linecap="round" stroke-miterlimit="10" x1="29.078" y1="5.348" x2="25.126" y2="5.348"/>
	
		<polyline fill="none" stroke="#ECECEC" stroke-width="1.5" stroke-linecap="round" stroke-linejoin="round" stroke-miterlimit="10" points="
		36.745,9.568 39.976,8.09 39.976,1.914 36.715,0.5 	"/>
</g>
<g id="test-icon-3">
	
		<line fill="none" stroke="#AAABAE" stroke-linecap="round" stroke-miterlimit="10" x1="15.358" y1="5.344" x2="19.311" y2="5.344"/>
	<polyline fill="none" stroke="#AAABAE" stroke-linecap="round" stroke-linejoin="round" stroke-miterlimit="10" points="
		8.269,9.566 5.039,8.088 5.039,1.914 8.3,0.5 	"/>
	<line fill="none" stroke="#AAABAE" stroke-linecap="round" stroke-miterlimit="10" x1="4.452" y1="5.346" x2="0.5" y2="5.346"/>
	<polyline fill="none" stroke="#AAABAE" stroke-linecap="round" stroke-linejoin="round" stroke-miterlimit="10" points="
		12.119,9.566 15.35,8.088 15.35,1.914 12.089,0.5 	"/>
</g>
<g id="test-icon-2">
	<g display="none">
		<g display="inline">
			<g id="Chart_1_">
				<g>
					<path fill="#91969B" d="M-23.433,11.366v-17.43h-2.49v18.675c0,0.687,0.557,1.245,1.245,1.245h18.674v-2.49H-23.433z
						 M-20.32,8.876h1.245c0.344,0,0.623-0.278,0.623-0.622V2.029c0-0.344-0.278-0.623-0.623-0.623h-1.245
						c-0.344,0-0.623,0.279-0.623,0.623v6.225C-20.943,8.598-20.665,8.876-20.32,8.876z M-16.585,8.876h1.245
						c0.344,0,0.623-0.278,0.623-0.622V-2.951c0-0.343-0.278-0.622-0.623-0.622h-1.245c-0.344,0-0.623,0.279-0.623,0.622V8.254
						C-17.208,8.598-16.93,8.876-16.585,8.876z M-12.851,8.876h1.245c0.344,0,0.623-0.278,0.623-0.622V4.519
						c0-0.344-0.279-0.622-0.623-0.622h-1.245c-0.344,0-0.623,0.278-0.623,0.622v3.735C-13.473,8.598-13.195,8.876-12.851,8.876z
						 M-9.116,8.876h1.245c0.344,0,0.623-0.278,0.623-0.622v-8.715c0-0.344-0.278-0.622-0.623-0.622h-1.245
						c-0.344,0-0.623,0.278-0.623,0.622v8.715C-9.738,8.598-9.459,8.876-9.116,8.876z"/>
				</g>
			</g>
		</g>
	</g>
	<g>
		<g>
			<g id="Chart">
				<g>
					<path fill="#AAABAE" d="M-21.681,10.364h0.825c0.229,0,0.414-0.274,0.414-0.611V3.635c0-0.338-0.185-0.612-0.414-0.612h-0.825
						c-0.229,0-0.414,0.274-0.414,0.612v6.118C-22.095,10.09-21.91,10.364-21.681,10.364z"/>
				</g>
			</g>
		</g>
	</g>
	<polyline fill="none" stroke="#AAABAE" stroke-linecap="round" stroke-linejoin="round" stroke-miterlimit="10" points="
		-6.454,13.143 -25.412,13.143 -25.412,-4.35 	"/>
	<g>
		<g>
			<g id="Chart_2_">
				<g>
					<path fill="#AAABAE" d="M-17.984,10.364h0.825c0.228,0,0.414-0.274,0.414-0.612V-1.261c0-0.337-0.186-0.611-0.414-0.611h-0.825
						c-0.229,0-0.414,0.274-0.414,0.611V9.752C-18.397,10.09-18.213,10.364-17.984,10.364z"/>
				</g>
			</g>
		</g>
	</g>
	<g>
		<g>
			<g id="Chart_3_">
				<g>
					<path fill="#AAABAE" d="M-14.181,10.384h0.824c0.229,0,0.414-0.183,0.414-0.408V5.88c0-0.225-0.186-0.41-0.414-0.41h-0.824
						c-0.229,0-0.414,0.186-0.414,0.41v4.096C-14.595,10.201-14.409,10.384-14.181,10.384z"/>
				</g>
			</g>
		</g>
	</g>
	<g>
		<g>
			<g id="Chart_4_">
				<g>
					<path fill="#AAABAE" d="M-10.421,10.364h0.824c0.229,0,0.414-0.221,0.414-0.492V1.026c0-0.271-0.186-0.491-0.414-0.491h-0.824
						c-0.229,0-0.414,0.221-0.414,0.491v8.846C-10.835,10.144-10.65,10.364-10.421,10.364z"/>
				</g>
			</g>
		</g>
	</g>
</g>
<g id="test-icon-1">
	<path display="none" fill="#AAABAE" stroke="#AAABAE" stroke-miterlimit="10" d="M-48.749-1.271c0,0.6-0.486,1.086-1.087,1.086
		h-0.61c-0.601,0-1.088-0.486-1.088-1.086v-0.612c0-0.601,0.487-1.087,1.088-1.087h0.61c0.601,0,1.087,0.486,1.087,1.087V-1.271z"/>
	<path fill="#AAABAE" stroke="#AAABAE" stroke-miterlimit="10" d="M-48.749,4.983c0,0.601-0.486,1.087-1.087,1.087h-0.61
		c-0.601,0-1.088-0.486-1.088-1.087V4.372c0-0.601,0.487-1.087,1.088-1.087h0.61c0.601,0,1.087,0.486,1.087,1.087V4.983z"/>
	<path fill="#AAABAE" stroke="#AAABAE" stroke-miterlimit="10" d="M-48.749,11.274c0,0.601-0.486,1.087-1.087,1.087h-0.61
		c-0.601,0-1.088-0.486-1.088-1.087v-0.611c0-0.601,0.487-1.087,1.088-1.087h0.61c0.601,0,1.087,0.486,1.087,1.087V11.274z"/>
	<rect x="-46.139" y="-2.326" fill="#AAABAE" width="14.131" height="1.5"/>
	<rect x="-46.139" y="3.928" fill="#AAABAE" width="14.131" height="1.5"/>
	<rect x="-46.139" y="10.219" fill="#AAABAE" width="14.131" height="1.5"/>
	
		<polyline fill="none" stroke="#AAABAE" stroke-width="1.5" stroke-linecap="round" stroke-linejoin="round" stroke-miterlimit="10" points="
		-53.465,-2.532 -51.035,-0.411 -46.817,-4.741 	"/>
</g>
<g id="circle">
	<path fill="#AAABAE" d="M37.905-35.475c0,6.074-4.925,11-11,11s-11-4.926-11-11c0-6.075,4.925-11,11-11
		S37.905-41.549,37.905-35.475z M26.905-42.974c-4.143,0-7.5,3.357-7.5,7.5c0,4.143,3.357,7.5,7.5,7.5s7.5-3.357,7.5-7.5
		C34.405-39.617,31.048-42.974,26.905-42.974z"/>
</g>
<g id="minus">
	<path fill="#AAABAE" d="M9.905-45.474c0,0.553-0.447,1-1,1h-8c-0.553,0-1-0.447-1-1l0,0c0-0.553,0.447-1,1-1h8
		C9.458-46.474,9.905-46.027,9.905-45.474L9.905-45.474z"/>
</g>
<g id="plus">
	<path fill="#AAABAE" d="M-6.095-41.974c0,0.5-0.405,0.904-0.905,0.904h-7.189c-0.5,0-0.905-0.404-0.905-0.904l0,0
		c0-0.5,0.405-0.905,0.905-0.905H-7C-6.5-42.879-6.095-42.474-6.095-41.974L-6.095-41.974z"/>
	<path fill="#AAABAE" d="M-10.596-46.474c0.5,0,0.905,0.405,0.905,0.905v7.189c0,0.5-0.405,0.905-0.905,0.905l0,0
		c-0.5,0-0.904-0.405-0.904-0.905v-7.189C-11.5-46.069-11.096-46.474-10.596-46.474L-10.596-46.474z"/>
</g>
<g id="topo">
	<polyline fill="#AAABAE" stroke="#AAABAE" stroke-width="3" stroke-miterlimit="10" points="-29.29,-45.111 -32.231,-43.763 
		-32.231,-38.135 -29.263,-36.847 	"/>
	<polyline fill="#AAABAE" stroke="#AAABAE" stroke-width="3" stroke-miterlimit="10" points="-28.021,-36.881 -25.104,-38.218 
		-25.104,-43.798 -28.048,-45.074 	"/>
	<polyline fill="#AAABAE" stroke="#AAABAE" stroke-width="3" stroke-miterlimit="10" points="-46.894,-31.33 -50.657,-29.605 
		-50.657,-22.406 -46.858,-20.758 	"/>
	<polyline fill="#AAABAE" stroke="#AAABAE" stroke-width="3" stroke-miterlimit="10" points="-45.271,-20.803 -41.54,-22.512 
		-41.54,-29.65 -45.306,-31.285 	"/>
	<polyline fill="#AAABAE" stroke="#AAABAE" stroke-width="3" stroke-miterlimit="10" points="-26.78,-21.812 -29.722,-20.463 
		-29.722,-14.836 -26.753,-13.549 	"/>
	<polyline fill="#AAABAE" stroke="#AAABAE" stroke-width="3" stroke-miterlimit="10" points="-25.509,-13.582 -22.595,-14.92 
		-22.595,-20.498 -25.54,-21.777 	"/>
	<path fill="none" stroke="#AAABAE" stroke-width="3" stroke-miterlimit="10" d="M-40.755-26.043
		c5.582-0.033,2.75-14.945,7.762-14.937"/>
	<path fill="none" stroke="#AAABAE" stroke-width="3" stroke-miterlimit="10" d="M-40.755-25.959
		c6.736-0.021,4.426,8.35,10.775,8.363"/>
</g>
<g id="check-box">
	<path fill="#AAABAE" d="M38.861-56.526c0,1.044-0.846,1.889-1.889,1.889H23.751c-1.044,0-1.89-0.845-1.89-1.889v-13.222
		c0-1.044,0.846-1.889,1.89-1.889h13.222c1.043,0,1.889,0.845,1.889,1.889V-56.526z"/>
	
		<polyline fill="none" stroke="#2F3136" stroke-width="3" stroke-linecap="round" stroke-linejoin="round" stroke-miterlimit="10" points="
		25.684,-63.091 29.756,-59.938 35.523,-67.501 	"/>
</g>
<g id="chart-pie">
	<circle fill="#AAABAE" cx="5.934" cy="-61.582" r="7.943"/>
	<circle display="none" fill="none" stroke="#2452C6" stroke-miterlimit="10" cx="101.174" cy="-71.432" r="17.3"/>
	<path fill="#2F3136" stroke="#D7D9DD" stroke-miterlimit="10" d="M5.934-61.582l1.419-9.486c4.029,0.6,6.845,3.448,7.881,6.766
		L5.934-61.582z"/>
</g>
<g id="small-star">
	<polygon fill="#AAABAE" points="-17.01,-71.636 -14.229,-66.001 -8.01,-65.098 -12.51,-60.712 -11.445,-54.517 -17.01,-57.443 
		-22.572,-54.517 -21.51,-60.712 -26.01,-65.098 -19.791,-66.001 	"/>
</g>
<g id="big-star">
	<polygon fill="none" stroke="#AAABAE" stroke-linejoin="round" stroke-miterlimit="10" points="-42.083,-70.507 -39.302,-64.871 
		-33.083,-63.968 -37.583,-59.582 -36.521,-53.388 -42.083,-56.312 -47.646,-53.388 -46.583,-59.582 -51.083,-63.968 
		-44.864,-64.871 	"/>
</g>
</svg>
