<?xml version="1.0" encoding="utf-8"?>
<!-- Generator: Adobe Illustrator 16.0.0, SVG Export Plug-In . SVG Version: 6.00 Build 0)  -->
<!DOCTYPE svg PUBLIC "-//W3C//DTD SVG 1.1//EN" "http://www.w3.org/Graphics/SVG/1.1/DTD/svg11.dtd">
<svg version="1.1" id="图层_1" xmlns="http://www.w3.org/2000/svg" xmlns:xlink="http://www.w3.org/1999/xlink" x="0px" y="0px"
	 width="323.803px" height="116.699px" viewBox="0 0 323.803 116.699" enable-background="new 0 0 323.803 116.699"
	 xml:space="preserve">
<path opacity="0.7" fill="#D0D0D0" stroke="#BABABA" stroke-miterlimit="10" d="M181.569,51.725c0-1.465-1.45-2.652-3.992-3.051
	c-0.932-0.208-1.32-1.159-1.313-2.795c1.777-0.698,3.715-3.305,3.725-5.171c0.016-3.136-2.77-6.007-6.219-6.007
	s-6.283,2.872-6.273,6.007c0.008,2.12,0.479,3.428,2.25,4.356c-0.176,0.955-0.426,2.648-1.302,2.663
	c-2.409-0.07-3.74-0.046-5.12-0.146c-1.418-0.244-1.18-0.87-1.797-1.124c-0.727-0.327-2.426-0.067-2.557,0.507
	c-0.199,0.872,0.071,1.562,0.726,2.144c1.144,0.78,2.36,1.034,3.763,1.228c1.303,0.081,2.521-0.012,3.354,0.023
	c-0.01,0.72-0.375,1.81-0.639,2.52c-0.091,0.242-0.146,0.364-0.255,0.896c-0.086,0.67-0.333,7.528,1.085,8.909
	c0.209,0.202,0.474,0.286,0.773,0.286c0.191,0,0.77-0.124,0.997-0.26c1.464-0.871-0.218-5.338,1.464-5.365
	c0.771-0.127,2.05-0.055,2.621-0.026c0.219,0.953-0.244,3.721,0.383,5.084c0.363,0.509,0.952,0.605,1.598,0.607
	c0.818,0.002,1.018-0.08,1.326-0.516c0.883-2.795,1.123-5.453,1.252-7.609c0.64-0.184,1.145-0.259,1.531-0.451
	C180.516,53.881,181.569,52.876,181.569,51.725z"/>
<path opacity="0.7" fill="#AFAFAF" d="M177.484,40.623h-8.65c0-2.385,1.938-4.322,4.326-4.322S177.484,38.237,177.484,40.623z"/>
<path opacity="0.7" fill="#BEBEBE" d="M179.439,51.942c0,0.519-1.014,0.937-2.266,0.937v-1.95
	C178.426,50.928,179.439,51.426,179.439,51.942z"/>
<g opacity="0.7">
	<path fill="#D0D0D0" d="M172.986,37.113c0.095,0.121,0.038,0.241-0.108,0.277c-0.918,0.238-1.635,0.745-2.08,1.341
		c-0.071,0.095-0.199,0.122-0.302,0.063l0,0c-0.104-0.056-0.146-0.184-0.072-0.288c0.445-0.648,1.17-1.217,2.111-1.523
		C172.684,36.932,172.894,36.993,172.986,37.113L172.986,37.113z"/>
</g>
<circle opacity="0.7" fill="#D0D0D0" cx="170.164" cy="39.421" r="0.297"/>
<rect x="159.809" y="40.277" opacity="0.7" fill="#C2C2C2" width="2.613" height="21.913"/>
<g opacity="0.7">
	<path fill="#A0A0A0" d="M162.434,41.196c-5.621-2.222-11.243,2.222-16.864,0c0-3.703,0-7.405,0-11.107
		c5.621,2.222,11.243-2.222,16.864,0C162.434,33.791,162.434,37.493,162.434,41.196z"/>
</g>
<g id="planet" opacity="0.7">
	<g id="XMLID_1_">
		<g>
			<path fill="#81847F" d="M245.347,107.635c6.362,10.006,11.024,21.325,13.496,33.649c10.748,53.597-23.983,105.754-77.58,116.502
				c-9.323,1.87-18.59,2.361-27.614,1.617c1.231-0.752,2.446-1.508,3.652-2.271c65.207-41.054,91.849-89.764,57.561-175.67
				c-0.741-1.878-1.519-3.779-2.33-5.698l0.007-0.001c8.999,5.378,17.131,12.164,24.056,20.132l0.002,0.007
				c0,0,1.754,0.347,3.845,1.092c3.174,1.305,4.739,5.2,5.379,7.463C245.634,105.699,245.347,107.635,245.347,107.635z"/>
			<path fill="#81847F" d="M157.301,257.133c65.097-41.141,90.328-93.163,57.561-175.67
				C249.149,167.369,222.508,216.079,157.301,257.133z"/>
			<path fill="#B9BBB8" d="M214.861,81.462c32.768,82.508,7.536,134.53-57.561,175.67c-1.206,0.763-2.421,1.519-3.652,2.271
				l-0.007,0.001c-42.862-3.518-80.002-34.925-88.881-79.198c-6.941-34.614,5.088-68.637,28.92-91.284
				c0.542-0.512,0.344-3.781,0.408-4.663c1.29-3.015,5.432-5.593,8.156-7.071c1.255-0.788,5.781-0.445,7.505-0.791
				c0.269-0.054,0.473-0.118,0.578-0.217c9.598-5.846,20.361-10.14,32.013-12.477c0.56-0.112,1.12-0.225,1.675-0.32
				c1.311-0.24,4.872-0.682,8.07-1.036c2.318-0.248,4.436-0.455,5.367-0.494c19.784-0.893,38.829,4.202,55.079,13.911
				C213.343,77.683,214.12,79.584,214.861,81.462z"/>
			<path fill="#81847F" d="M157.301,257.133c-1.206,0.763-2.421,1.519-3.652,2.271C154.88,258.651,156.095,257.896,157.301,257.133z
				"/>
		</g>
		<g>
		</g>
	</g>
	<circle fill="#A4A6A3" cx="125.443" cy="106.583" r="24.997"/>
	<circle fill="#A4A6A3" cx="99.62" cy="159.959" r="9.809"/>
	<circle fill="#484C51" stroke="#B9BBB8" stroke-width="3" stroke-miterlimit="10" cx="230.257" cy="114.254" r="9.317"/>
	<circle fill="#484C51" stroke="#B9BBB8" stroke-width="2" stroke-miterlimit="10" cx="219.131" cy="93.374" r="5.47"/>
	<path fill="#9B9B9B" d="M206.117,132.995c1.777,8.868-3.967,17.492-12.83,19.269c-8.863,1.78-17.49-3.965-19.268-12.829
		c-1.777-8.863,3.966-17.492,12.83-19.267C195.715,118.388,204.34,124.131,206.117,132.995z"/>
	<path fill="#484C51" stroke="#B9BBB8" stroke-width="4" stroke-miterlimit="10" d="M230.387,205.263
		c1.785,8.9-3.983,17.564-12.883,19.348c-8.9,1.786-17.562-3.982-19.348-12.884c-1.786-8.9,3.982-17.558,12.883-19.342
		C219.939,190.597,228.603,196.368,230.387,205.263z"/>
	<circle fill="#484C51" cx="167.787" cy="214.834" r="8.374"/>
	<path fill="#B9BBB8" d="M144.018,63.385c0,0,0.397-1.877,0.995-2.771c2.735-1.195,7.454-1.164,9.765-0.674
		c1.271,0.911,2.675,1.915,2.675,1.915"/>
	<path fill="#A4A6A3" d="M158.796,71.256c0.706,3.524-1.578,6.957-5.104,7.662c-3.521,0.706-6.953-1.577-7.66-5.103
		c-0.706-3.524,1.579-6.956,5.102-7.663C154.656,65.447,158.089,67.73,158.796,71.256z"/>
</g>
<path opacity="0.7" fill="#AAAAAA" d="M97.196,38.832c0.803,0,13.377,0,13.377,0c2.065,0,3.742,1.678,3.742,3.744l0,0
	c0,2.064-1.677,3.74-3.742,3.74H63.59c-2.065,0-3.742-1.676-3.742-3.74l0,0c0-2.066,1.676-3.744,3.742-3.744c0,0,12.379,0,14.812,0
	c2.63-1.305,2.827-4.633-0.002-5.913c-1.915,0-5.535,0-5.535,0c-1.923,0-3.481-1.559-3.481-3.483l0,0
	c0-1.921,1.558-3.479,3.481-3.479h25.581c1.923,0,3.481,1.559,3.481,3.479l0,0c0,1.925-1.558,3.483-3.481,3.483
	c0,0-0.426,0.024-1.252,0C94.41,34.395,94.542,37.657,97.196,38.832z"/>
<circle opacity="0.7" fill="#AAAAAA" cx="56.849" cy="29.496" r="3.393"/>
<path opacity="0.7" fill="#AAAAAA" d="M253.191,84.176c0,1.342-1.087,2.43-2.43,2.43h-18.189c-1.343,0-2.429-1.088-2.429-2.43l0,0
	c0-1.34,1.086-2.428,2.429-2.428h18.189C252.104,81.749,253.191,82.836,253.191,84.176L253.191,84.176z"/>
<circle opacity="0.7" fill="#AAAAAA" cx="260.927" cy="83.976" r="2.571"/>
<path opacity="0.7" fill="#AAAAAA" d="M82.494,97.423c2.533,0,4.588,2.053,4.588,4.587l0,0c0,2.532-2.056,4.589-4.588,4.589H34.847
	c-2.532,0-4.588-2.057-4.588-4.589l0,0c0-2.534,2.056-4.587,4.588-4.587c0,0,22.718-0.024,24.819,0c2.542-0.753,2.874-4.844,0-6.171
	c-1.327,0-2.322,0-2.322,0c-1.956,0-3.538-1.583-3.538-3.536l0,0c0-1.954,1.583-3.539,3.538-3.539h25.758
	c1.955,0,3.538,1.585,3.538,3.539l0,0c0,1.953-1.583,3.536-3.538,3.536h-0.774C79.454,92.469,79.675,96.67,82.494,97.423z"/>
<path opacity="0.7" fill="#AAAAAA" d="M23.737,102.149c0,2.532-2.062,4.596-4.602,4.596c-2.536,0-4.595-2.063-4.595-4.596
	c0-2.543,2.059-4.602,4.595-4.602C21.674,97.547,23.737,99.606,23.737,102.149z"/>
<path opacity="0.7" fill="#AAAAAA" d="M261.922,61.663h-0.667c-1.684,0-3.047-1.364-3.047-3.047l0,0
	c0-1.684,1.363-3.049,3.047-3.049h22.191c1.684,0,3.047,1.365,3.047,3.049l0,0c0,1.683-1.363,3.047-3.047,3.047c0,0-0.857,0-2,0
	c-2.477,1.143-2.191,4.667,0,5.315c1.809-0.021,21.381,0,21.381,0c2.182,0,3.952,1.769,3.952,3.952l0,0
	c0,2.182-1.771,3.953-3.952,3.953h-41.048c-2.182,0-3.952-1.771-3.952-3.953l0,0c0-2.184,1.771-3.952,3.952-3.952
	C264.208,66.33,264.397,62.71,261.922,61.663z"/>
<path opacity="0.7" fill="#AAAAAA" d="M312.397,71.049c0,2.182,1.777,3.959,3.965,3.959c2.185,0,3.959-1.777,3.959-3.959
	c0-2.19-1.774-3.964-3.959-3.964C314.175,67.085,312.397,68.859,312.397,71.049z"/>
<path opacity="0.7" fill="#AAAAAA" d="M234.443,25.52c-0.826,0.024-1.252,0-1.252,0c-1.924,0-3.482-1.559-3.482-3.483l0,0
	c0-1.921,1.559-3.479,3.482-3.479h25.58c1.924,0,3.48,1.559,3.48,3.479l0,0c0,1.925-1.557,3.483-3.48,3.483c0,0-3.619,0-5.535,0
	c-2.828,1.28-2.633,4.608-0.002,5.913c2.434,0,14.812,0,14.812,0c2.064,0,3.741,1.677,3.741,3.743l0,0
	c0,2.064-1.677,3.74-3.741,3.74h-46.984c-2.064,0-3.742-1.676-3.742-3.74l0,0c0-2.065,1.678-3.743,3.742-3.743
	c0,0,12.574,0,13.378,0C237.096,30.257,237.227,26.996,234.443,25.52z M244.223,38.916c0,0,19.393,0,18.25,0
	c-2.476,1.141-1.574,4.011,0.616,4.655c1.81-0.02,21.381,0,21.381,0c2.182,0,3.952,1.766,3.952,3.949l0,0
	c0,2.182-1.771,3.953-3.952,3.953h-41.048c-2.182,0-3.952-1.771-3.952-3.953l0,0c0-2.184,1.771-3.949,3.952-3.949
	C245.851,42.926,246.699,39.96,244.223,38.916z"/>
<path opacity="0.7" fill="#AAAAAA" d="M75.492,70.823c0,2.209-1.791,4-4,4s-4-1.791-4-4s1.791-4,4-4S75.492,68.614,75.492,70.823z
	 M71.492,68.689c-1.179,0-2.134,0.955-2.134,2.133c0,1.179,0.955,2.134,2.134,2.134c1.178,0,2.133-0.955,2.133-2.134
	C73.625,69.644,72.67,68.689,71.492,68.689z"/>
<path opacity="0.7" fill="#AAAAAA" d="M221.131,55.629c0,1.105-0.896,2-2,2s-2-0.895-2-2c0-1.104,0.896-2,2-2
	S221.131,54.526,221.131,55.629z M219.131,54.563c-0.59,0-1.066,0.478-1.066,1.066c0,0.59,0.477,1.066,1.066,1.066
	c0.589,0,1.066-0.477,1.066-1.066C220.197,55.041,219.72,54.563,219.131,54.563z"/>
<g opacity="0.7">
	<path fill="#AAAAAA" d="M97.242,51.972c0,0.276-0.177,0.5-0.396,0.5h-4.207c-0.219,0-0.396-0.224-0.396-0.5l0,0
		c0-0.276,0.177-0.499,0.396-0.499h4.207C97.065,51.473,97.242,51.696,97.242,51.972L97.242,51.972z"/>
	<path fill="#AAAAAA" d="M94.742,49.473c0.277,0,0.5,0.177,0.5,0.396v4.207c0,0.219-0.224,0.396-0.5,0.396l0,0
		c-0.276,0-0.5-0.178-0.5-0.396V49.87C94.242,49.65,94.466,49.473,94.742,49.473L94.742,49.473z"/>
	<circle fill="#AAAAAA" cx="94.742" cy="51.888" r="1.339"/>
</g>
<g opacity="0.7">
	<path fill="#AAAAAA" d="M258.536,13.142c0,0.166-0.106,0.299-0.238,0.299h-2.523c-0.132,0-0.238-0.134-0.238-0.299l0,0
		c0-0.167,0.106-0.299,0.238-0.299h2.523C258.43,12.843,258.536,12.976,258.536,13.142L258.536,13.142z"/>
	<path fill="#AAAAAA" d="M257.036,11.642c0.165,0,0.3,0.106,0.3,0.238v2.525c0,0.131-0.135,0.237-0.3,0.237l0,0
		c-0.165,0-0.3-0.106-0.3-0.237V11.88C256.736,11.748,256.871,11.642,257.036,11.642L257.036,11.642z"/>
	<circle fill="#AAAAAA" cx="257.036" cy="13.091" r="0.803"/>
</g>
<g opacity="0.7">
	<path fill="#AAAAAA" d="M294.189,95.854c0,0.328-0.21,0.594-0.471,0.594h-4.996c-0.261,0-0.471-0.266-0.471-0.594l0,0
		c0-0.328,0.21-0.593,0.471-0.593h4.996C293.979,95.261,294.189,95.525,294.189,95.854L294.189,95.854z"/>
	<path fill="#AAAAAA" d="M291.22,92.886c0.329,0,0.595,0.21,0.595,0.471v4.996c0,0.26-0.266,0.471-0.595,0.471l0,0
		c-0.327,0-0.593-0.211-0.593-0.471v-4.996C290.627,93.096,290.893,92.886,291.22,92.886L291.22,92.886z"/>
	<circle fill="#AAAAAA" cx="291.221" cy="95.753" r="1.59"/>
</g>
<g opacity="0.7">
	<path fill="#AAAAAA" d="M197.762,8.56c0,0.387-0.213,0.7-0.477,0.7h-5.048c-0.263,0-0.476-0.313-0.476-0.7l0,0
		c0-0.387,0.213-0.699,0.476-0.699h5.048C197.549,7.861,197.762,8.173,197.762,8.56L197.762,8.56z"/>
	<path fill="#AAAAAA" d="M194.762,5.06c0.331,0,0.6,0.248,0.6,0.555v5.893c0,0.307-0.269,0.555-0.6,0.555l0,0
		c-0.332,0-0.601-0.249-0.601-0.555V5.615C194.161,5.308,194.43,5.06,194.762,5.06L194.762,5.06z"/>
	<path fill="#AAAAAA" d="M196.359,8.24c0.096,1.029-0.543,1.955-1.426,2.066c-0.883,0.112-1.674-0.634-1.77-1.663
		c-0.096-1.031,0.542-1.955,1.424-2.066C195.472,6.467,196.264,7.21,196.359,8.24z"/>
</g>
</svg>
