<?xml version="1.0" encoding="utf-8"?>
<!-- Generator: Adobe Illustrator 16.0.0, SVG Export Plug-In . SVG Version: 6.00 Build 0)  -->
<!DOCTYPE svg PUBLIC "-//W3C//DTD SVG 1.1//EN" "http://www.w3.org/Graphics/SVG/1.1/DTD/svg11.dtd">
<svg version="1.1" id="图层_1" xmlns="http://www.w3.org/2000/svg" xmlns:xlink="http://www.w3.org/1999/xlink" x="0px" y="0px"
	 width="205.825px" height="114.605px" viewBox="0 0 205.825 114.605" enable-background="new 0 0 205.825 114.605"
	 xml:space="preserve">
<path fill="#A8A8A8" d="M152.81,87.186c0,2.103-1.793,3.81-4.005,3.81H64.189c-2.212,0-4.005-1.707-4.005-3.81V38.118
	c0-2.104,1.793-3.81,4.005-3.81h84.615c2.212,0,4.005,1.706,4.005,3.81V87.186z"/>
<path fill="#E5E5E5" d="M138.966,81.445c0,1.104-0.896,2-2,2H68.571c-1.105,0-2-0.896-2-2V43.384c0-1.105,0.895-2,2-2h68.395
	c1.104,0,2,0.895,2,2V81.445z"/>
<circle fill="#D3D3D3" cx="101.381" cy="8.572" r="3"/>
<path fill="#999999" d="M88.306,71.523c0.822,0.915-0.176,3.152-2.229,4.999l-1.498,1.349c-2.055,1.847-4.383,2.604-5.206,1.689
	l-1.364-1.516c-0.821-0.913,0.177-3.151,2.23-4.998l1.498-1.349c2.053-1.847,4.385-2.603,5.205-1.689L88.306,71.523z"/>
<path fill="#999999" d="M130.442,68.741c-0.787,0.945-3.145,0.277-5.268-1.49l-1.549-1.29c-2.121-1.771-3.203-3.979-2.416-4.929
	l1.305-1.569c0.785-0.943,3.143-0.276,5.266,1.494l1.549,1.296c2.121,1.776,3.203,3.979,2.418,4.923L130.442,68.741z"/>
<polygon fill="#A8A8A8" points="102.386,71.08 91.085,81.917 91.085,81.917 73.85,81.917 93.306,62.413 "/>
<path fill="#A8A8A8" d="M137.526,81.46c-0.049,0.29-0.16,0.562-0.52,0.562c-0.562,0-41.631-0.073-41.631-0.073l25.168-25.07
	l17.072,17.013C137.528,80.387,137.532,81.257,137.526,81.46z"/>
<path opacity="0.8" fill="#727272" stroke="#686868" stroke-miterlimit="10" d="M141.335,56.669c0,1.354-3.25,1.312-3.25-0.021
	c0-1.188,0-2.396,0-3.043c0-1.332,3.25-1.374,3.25-0.02C141.335,54.461,141.335,55.649,141.335,56.669z M141.335,50.149
	c0-0.959,0-7.375,0-7.375c0-2.209-1.791-4-4-4h-69.25c-2.209,0-4,1.791-4,4v38.397c0,2.209,1.791,4,4,4h69.25c2.209,0,4-1.791,4-4
	c0,0,0-19.62,0-20.98c0-1.459-3.25-1.563-3.25-0.001c0,1.256-0.129,20.981-0.129,20.981c0,0.553-0.318,1-0.871,1h-68.75
	c-0.553,0-1-0.447-1-1V42.774c0-0.553,0.447-1,1-1h68.75c0.553,0,1,0.447,1,1c0,0,0,5.917,0,7.375
	C138.085,51.586,141.335,51.544,141.335,50.149z M54.768,50.731c0-1,0-0.791,0-2.082c0-1.459,3.233-1.416,3.233,0
	c0,1.292,0,1.438,0,2.082C58.001,52.377,54.768,52.294,54.768,50.731z M147.501,73.359v16.438c0,0.553-0.447,1-1,1h-87.5
	c-0.552,0-1-0.447-1-0.375c0,0,0-33.542,0-35.272c0-1.543-3.233-1.585-3.233,0c0,0.686,0,34.147,0,34.147c0,2.209,1.791,4,4,4h88
	c2.209,0,4-1.791,4-4V73.359 M150.769,73.359c-0.059-1.708-3.287-1.729-3.268,0 M146.769,30.736h-9.182h-0.002h-0.082
	l-30.465-19.961v0c0.264-0.676,0.408-1.412,0.408-2.182c0-3.325-2.695-6.021-6.021-6.021c-3.324,0-6.02,2.696-6.02,6.021
	c-0.002,0.769,0.143,1.504,0.406,2.18l0.002,0.002L65.335,30.736h-6.567c-2.209,0-4,1.792-4,4.001c0,0,0,9.038,0,10.204
	c0,1.583,3.233,1.541,3.233-0.001c0-1.083,0-9.707,0-9.707c0-1.178,0.448-1.625,1-1.625h87.5c0.553,0,1,0.447,1,1
	c0,0,0.012,33.532,0,34.751c0.053,1.75,3.24,1.781,3.268,0c0-0.969,0-34.622,0-34.622C150.769,32.528,148.978,30.736,146.769,30.736
	z M101.425,5.51c1.703,0,3.084,1.38,3.084,3.083c0,1.703-1.381,3.083-3.084,3.083s-3.082-1.38-3.082-3.083
	C98.343,6.89,99.722,5.51,101.425,5.51z M70.876,30.736l26.474-17.71c1.072,0.986,2.504,1.588,4.074,1.588
	c1.574,0,3.004-0.603,4.076-1.59l26.584,17.712H70.876z M129.769,65.699l8.273,8.414l0.023-3.837l-6.436-6.441 M131.63,63.834
	c-0.99-0.994-2.822,0.961-1.859,1.864 M123.644,59.552c0.57,0.503,1.508-0.06,1.508-0.06s1.184-1.094,0.354-1.801 M129.573,61.769
	c0,0-1.078-1.053-1.922-1.931c-0.844-0.876-2.781,0.813-1.83,1.898c0.531,0.535,1.891,1.902,1.891,1.902 M129.573,61.769
	c0.828,0.829-1.078,2.651-1.861,1.869 M123.644,59.551c-0.619-0.619-3-2.999-3-2.999L95.058,82.17l-1.262-0.001l-2.398-0.002
	c0.047-0.182,0.141-0.353,0.281-0.494l28.123-28.155c0.424-0.422,1.107-0.422,1.529,0c0,0,3.496,3.528,4.174,4.174 M82.204,72.753
	c0.355-0.355,11.07-11.086,11.07-11.086l9.197,9.213l1.652-1.652L93.95,59.03c-0.391-0.391-1.023-0.391-1.416,0
	c0,0-11.678,11.708-12.018,12.042C79.724,71.859,81.505,73.5,82.204,72.753z M78.125,73.463c-0.562,0.562-8.708,8.708-8.708,8.708
	l3.367,0.004c0,0,6.322-6.336,7.03-7.029C80.806,74.193,79.098,72.526,78.125,73.463z"/>
<path fill="#C9C9C9" d="M120.491,62.771c-0.4-0.402-0.4-1.054,0-1.457l0.096-0.094c0.4-0.403,1.049-0.403,1.449,0l6.855,6.873
	c0.4,0.4,0.4,1.049,0,1.449l-0.094,0.094c-0.4,0.401-1.049,0.401-1.451,0L120.491,62.771z M131.509,73.442
	c0.391,0.391,1.023,0.391,1.414,0l0,0c0.391-0.391,0.391-1.023,0-1.414l-1.193-1.193c-0.391-0.391-1.023-0.391-1.414,0l0,0
	c-0.391,0.391-0.391,1.023,0,1.414L131.509,73.442z"/>
<path fill="#C9C9C9" d="M92.944,64.813c0.336-0.337,0.881-0.336,1.217,0.001l2.494,2.495c0.336,0.337,0.336,0.881,0,1.218l0,0
	c-0.336,0.336-0.881,0.336-1.217,0l-2.494-2.494C92.606,65.696,92.606,65.151,92.944,64.813L92.944,64.813z M97.216,69.035
	c-0.342,0.342-0.342,0.896,0,1.238l0.707,0.707c0.342,0.342,0.896,0.342,1.238,0l0,0c0.342-0.342,0.342-0.896,0-1.238l-0.707-0.707
	C98.112,68.693,97.558,68.693,97.216,69.035L97.216,69.035z"/>
<g id="face">
	<circle fill="#3D3D3D" cx="115.295" cy="72.037" r="1.25"/>
	<circle fill="#3D3D3D" cx="127.057" cy="72.037" r="1.249"/>
	<circle fill="#606060" cx="113.549" cy="75.697" r="1.498"/>
	<circle fill="#606060" cx="128.554" cy="75.697" r="1.498"/>
	<path fill="#595959" d="M124.481,74.952c-0.171,0.855-1.366,2.493-2.771,2.493h-0.712c-0.868,0-2.352-1.748-2.565-2.415
		l-0.212-0.821h6.372L124.481,74.952z"/>
	<path fill="#AAAAAA" d="M119.213,75.66c0,1.213,0.855,2.196,1.912,2.196l0,0c1.057,0,1.912-0.983,1.912-2.196v-0.494l-3.824-0.02
		V75.66z"/>
</g>
<g id="face-s">
	<circle fill="#2D2D2D" cx="87.896" cy="74.342" r="0.831"/>
	<circle fill="#2D2D2D" cx="95.733" cy="74.342" r="0.833"/>
	<circle fill="#606060" cx="86.732" cy="76.781" r="0.999"/>
	<circle fill="#606060" cx="96.734" cy="76.781" r="0.999"/>
	<path fill="#595959" d="M94.018,76.284c-0.113,0.571-0.908,1.663-1.846,1.663h-0.474c-0.579,0-1.567-1.166-1.71-1.61l-0.143-0.546
		h4.249L94.018,76.284z"/>
	<path fill="#AAAAAA" d="M90.509,76.756c0,0.809,0.569,1.464,1.273,1.464l0,0c0.702,0,1.275-0.655,1.275-1.464v-0.329l-2.549-0.012
		V76.756z"/>
</g>
<g id="flower_5_">
	<path fill="#D3D3D3" d="M149.976,10.332c0,0.477-0.387,0.862-0.861,0.862l0,0c-0.477,0-0.863-0.385-0.863-0.862V9.235
		c0-0.476,0.387-0.862,0.863-0.862l0,0c0.475,0,0.861,0.386,0.861,0.862V10.332z"/>
	<path fill="#D3D3D3" d="M152.251,11.807c-0.328,0.344-0.875,0.355-1.217,0.026l0,0c-0.344-0.33-0.355-0.875-0.025-1.219
		l0.758-0.792c0.33-0.344,0.875-0.355,1.221-0.025l0,0c0.342,0.329,0.354,0.875,0.023,1.218L152.251,11.807z"/>
	<path fill="#D3D3D3" d="M153.642,12.971c0.477,0,0.863,0.386,0.863,0.861l0,0c0,0.477-0.387,0.862-0.863,0.862h-1.096
		c-0.477,0-0.863-0.386-0.863-0.862l0,0c0-0.476,0.387-0.861,0.863-0.861H153.642z"/>
	<path fill="#D3D3D3" d="M149.978,18.441c0,0.477-0.387,0.862-0.861,0.862l0,0c-0.477,0-0.863-0.385-0.863-0.862v-1.097
		c0-0.476,0.387-0.862,0.863-0.862l0,0c0.475,0,0.861,0.386,0.861,0.862V18.441z"/>
	<path fill="#D3D3D3" d="M145.778,13.001c0.477,0,0.863,0.386,0.863,0.861l0,0c0,0.477-0.387,0.862-0.863,0.862h-1.096
		c-0.477,0-0.863-0.386-0.863-0.862l0,0c0-0.476,0.387-0.861,0.863-0.861H145.778z"/>
	<path fill="#D3D3D3" d="M153.007,16.344c0.338,0.337,0.336,0.882,0,1.218l0,0c-0.336,0.337-0.881,0.337-1.219,0l-0.775-0.776
		c-0.336-0.336-0.336-0.882,0-1.219l0,0c0.336-0.336,0.883-0.336,1.219,0L153.007,16.344z"/>
	<path fill="#D3D3D3" d="M147.257,10.972c0.336,0.337,0.336,0.882,0,1.218l0,0c-0.338,0.337-0.883,0.337-1.219,0l-0.777-0.776
		c-0.336-0.336-0.336-0.882,0.002-1.219l0,0c0.336-0.336,0.881-0.336,1.217,0L147.257,10.972z"/>
	<path fill="#D3D3D3" d="M146.038,15.835c0.336-0.337,0.881-0.337,1.217,0l0,0c0.338,0.337,0.338,0.882,0.002,1.219l-0.777,0.776
		c-0.336,0.336-0.881,0.336-1.219,0l0,0c-0.336-0.336-0.336-0.882,0-1.218L146.038,15.835z"/>
</g>
<path fill="#A8A8A8" d="M45.247,3.844c0,2.123-1.721,3.844-3.844,3.844s-3.844-1.721-3.844-3.844S39.28,0,41.403,0
	S45.247,1.721,45.247,3.844z M41.403,1.828c-1.113,0-2.016,0.903-2.016,2.016s0.902,2.016,2.016,2.016s2.016-0.903,2.016-2.016
	S42.516,1.828,41.403,1.828z"/>
<g id="flower_4_">
	<path fill="#B7B7B7" d="M30.621,23.619c0.125,0.46-0.147,0.933-0.606,1.057l0,0c-0.46,0.125-0.933-0.146-1.058-0.606l-0.287-1.059
		c-0.125-0.46,0.147-0.933,0.607-1.057l0,0c0.459-0.125,0.932,0.147,1.056,0.606L30.621,23.619z"/>
	<path fill="#B7B7B7" d="M33.204,24.448c-0.228,0.417-0.752,0.571-1.169,0.343l0,0c-0.418-0.229-0.572-0.751-0.343-1.17l0.525-0.962
		c0.229-0.418,0.752-0.571,1.171-0.343l0,0c0.416,0.228,0.57,0.751,0.342,1.169L33.204,24.448z"/>
	<path fill="#B7B7B7" d="M34.85,25.208c0.461-0.125,0.934,0.147,1.058,0.606l0,0c0.124,0.46-0.147,0.933-0.606,1.058l-1.059,0.287
		c-0.461,0.125-0.934-0.147-1.058-0.607l0,0c-0.125-0.459,0.148-0.933,0.607-1.057L34.85,25.208z"/>
	<path fill="#B7B7B7" d="M32.742,31.446c0.125,0.46-0.147,0.933-0.606,1.057l0,0c-0.46,0.125-0.933-0.146-1.058-0.606l-0.287-1.059
		c-0.124-0.459,0.147-0.933,0.607-1.057l0,0c0.459-0.125,0.932,0.147,1.057,0.607L32.742,31.446z"/>
	<path fill="#B7B7B7" d="M27.268,27.292c0.46-0.125,0.933,0.147,1.057,0.606l0,0c0.125,0.46-0.147,0.933-0.607,1.058l-1.059,0.287
		c-0.46,0.125-0.933-0.147-1.058-0.607l0,0c-0.125-0.459,0.147-0.932,0.607-1.057L27.268,27.292z"/>
	<path fill="#B7B7B7" d="M35.119,28.63c0.413,0.237,0.555,0.764,0.318,1.176l0,0c-0.237,0.413-0.763,0.556-1.177,0.319l-0.951-0.546
		c-0.413-0.237-0.555-0.764-0.318-1.177l0,0c0.236-0.412,0.763-0.555,1.175-0.318L35.119,28.63z"/>
	<path fill="#B7B7B7" d="M28.164,24.947c0.414,0.237,0.556,0.763,0.318,1.176l0,0c-0.237,0.413-0.763,0.556-1.176,0.319
		l-0.952-0.546c-0.412-0.237-0.555-0.764-0.317-1.177l0,0c0.236-0.412,0.763-0.555,1.175-0.318L28.164,24.947z"/>
	<path fill="#B7B7B7" d="M28.258,29.959c0.237-0.414,0.763-0.556,1.175-0.319l0,0c0.414,0.237,0.557,0.764,0.319,1.177l-0.547,0.952
		c-0.236,0.413-0.763,0.555-1.176,0.318l0,0c-0.412-0.237-0.555-0.763-0.318-1.176L28.258,29.959z"/>
</g>
<g id="flower_3_">
	<path fill="#878787" d="M39.322,105.588c0.054,0.474-0.286,0.899-0.759,0.953l0,0c-0.474,0.054-0.9-0.286-0.953-0.759l-0.125-1.091
		c-0.053-0.474,0.287-0.899,0.761-0.954l0,0c0.473-0.053,0.899,0.288,0.952,0.761L39.322,105.588z"/>
	<path fill="#878787" d="M41.749,106.799c-0.287,0.378-0.829,0.449-1.206,0.161l0,0c-0.378-0.289-0.452-0.829-0.163-1.208
		l0.666-0.871c0.289-0.38,0.828-0.452,1.209-0.163l0,0c0.377,0.289,0.45,0.831,0.162,1.209L41.749,106.799z"/>
	<path fill="#878787" d="M43.263,107.799c0.475-0.054,0.9,0.286,0.953,0.759l0,0c0.053,0.474-0.287,0.899-0.76,0.954l-1.09,0.123
		c-0.475,0.053-0.9-0.287-0.954-0.76l0,0c-0.053-0.473,0.288-0.9,0.76-0.952L43.263,107.799z"/>
	<path fill="#878787" d="M40.234,113.646c0.054,0.474-0.286,0.899-0.759,0.954l0,0c-0.474,0.052-0.901-0.287-0.954-0.761
		l-0.122-1.09c-0.055-0.473,0.285-0.899,0.76-0.952l0,0c0.473-0.055,0.898,0.285,0.952,0.759L40.234,113.646z"/>
	<path fill="#878787" d="M35.452,108.711c0.473-0.054,0.9,0.287,0.953,0.76l0,0c0.054,0.472-0.286,0.899-0.76,0.952l-1.09,0.123
		c-0.473,0.055-0.9-0.285-0.954-0.76l0,0c-0.054-0.472,0.288-0.897,0.76-0.952L35.452,108.711z"/>
	<path fill="#878787" d="M43.01,111.222c0.373,0.297,0.433,0.84,0.138,1.211l0,0c-0.297,0.371-0.839,0.434-1.213,0.137l-0.857-0.685
		c-0.371-0.296-0.432-0.839-0.137-1.211l0,0c0.297-0.371,0.84-0.433,1.211-0.137L43.01,111.222z"/>
	<path fill="#878787" d="M36.692,106.529c0.373,0.298,0.434,0.84,0.138,1.211l0,0c-0.298,0.373-0.839,0.436-1.212,0.138
		l-0.858-0.684c-0.372-0.298-0.433-0.839-0.136-1.213l0,0c0.296-0.371,0.838-0.432,1.209-0.136L36.692,106.529z"/>
	<path fill="#878787" d="M36.027,111.499c0.296-0.372,0.839-0.434,1.21-0.138l0,0c0.374,0.298,0.436,0.839,0.138,1.212l-0.685,0.858
		c-0.297,0.371-0.838,0.433-1.211,0.137l0,0c-0.371-0.297-0.433-0.839-0.137-1.211L36.027,111.499z"/>
</g>
<path fill="#B5B5B5" d="M17.479,63.023c0,1.984-1.609,3.594-3.594,3.594s-3.594-1.609-3.594-3.594s1.609-3.594,3.594-3.594
	S17.479,61.039,17.479,63.023z M13.885,60.721c-1.271,0-2.301,1.03-2.301,2.302s1.03,2.301,2.301,2.301
	c1.271,0,2.302-1.029,2.302-2.301S15.156,60.721,13.885,60.721z"/>
<path fill="#C4C4C4" d="M6.5,43.627c0,1.795-1.455,3.25-3.25,3.25S0,45.422,0,43.627s1.455-3.25,3.25-3.25S6.5,41.833,6.5,43.627z
	 M3.25,41.459c-1.197,0-2.168,0.971-2.168,2.168s0.971,2.168,2.168,2.168s2.168-0.971,2.168-2.168S4.447,41.459,3.25,41.459z"/>
<path fill="#878787" d="M177.644,32.533c0,1.979-1.605,3.583-3.584,3.583s-3.582-1.604-3.582-3.583s1.604-3.583,3.582-3.583
	S177.644,30.554,177.644,32.533z M174.06,30.751c-0.984,0-1.781,0.798-1.781,1.781c0,0.984,0.797,1.781,1.781,1.781
	c0.982,0,1.781-0.797,1.781-1.781C175.841,31.549,175.042,30.751,174.06,30.751z"/>
<path fill="#999999" d="M170.478,83.788c0,2.057-1.668,3.725-3.725,3.725s-3.725-1.668-3.725-3.725s1.668-3.725,3.725-3.725
	S170.478,81.731,170.478,83.788z M166.753,81.694c-1.156,0-2.094,0.938-2.094,2.094s0.938,2.094,2.094,2.094
	s2.094-0.938,2.094-2.094S167.909,81.694,166.753,81.694z"/>
<g>
	<path fill="#999999" d="M165.085,54.038c0,0.567-0.461,1.028-1.029,1.028l0,0c-0.568,0-1.027-0.461-1.027-1.028v-6.318
		c0-0.567,0.459-1.028,1.027-1.028l0,0c0.568,0,1.029,0.461,1.029,1.028V54.038z"/>
	<path fill="#999999" d="M167.3,50.163c0.566,0.055,0.979,0.558,0.924,1.124l0,0c-0.055,0.564-0.559,0.979-1.123,0.922l-6.289-0.614
		c-0.566-0.056-0.979-0.558-0.922-1.124l0,0c0.055-0.565,0.557-0.979,1.123-0.922L167.3,50.163z"/>
</g>
<g>
	<path fill="#C4C4C4" d="M46.409,64.035c0,0.725-0.587,1.312-1.312,1.312h-4.875c-0.725,0-1.312-0.588-1.312-1.312l0,0
		c0-0.725,0.588-1.312,1.312-1.312h4.875C45.822,62.722,46.409,63.31,46.409,64.035L46.409,64.035z"/>
	<path fill="#C4C4C4" d="M43.834,67.003c0,0.621-0.504,1.125-1.125,1.125l0,0c-0.621,0-1.125-0.504-1.125-1.125v-5.938
		c0-0.621,0.504-1.125,1.125-1.125l0,0c0.621,0,1.125,0.504,1.125,1.125V67.003z"/>
</g>
<g>
	<path fill="#878787" d="M194.802,70.915c0,0.76-0.615,1.375-1.375,1.375l0,0c-0.76,0-1.375-0.615-1.375-1.375v-3.938
		c0-0.76,0.615-1.375,1.375-1.375l0,0c0.76,0,1.375,0.615,1.375,1.375V70.915z"/>
	<path fill="#878787" d="M196.614,68.946c0,0.587-0.477,1.062-1.062,1.062h-4.25c-0.588,0-1.062-0.476-1.062-1.062l0,0
		c0-0.587,0.475-1.062,1.062-1.062h4.25C196.138,67.883,196.614,68.359,196.614,68.946L196.614,68.946z"/>
</g>
<g>
	<path fill="#999999" d="M204.043,9.99c0,0.517-0.418,0.937-0.936,0.937l0,0c-0.518,0-0.938-0.419-0.938-0.937V6.756
		c0-0.517,0.42-0.937,0.938-0.937l0,0c0.518,0,0.936,0.419,0.936,0.937V9.99z"/>
	<path fill="#999999" d="M205.826,8.545c0,0.381-0.309,0.689-0.689,0.689h-3.809c-0.381,0-0.689-0.309-0.689-0.689l0,0
		c0-0.381,0.309-0.689,0.689-0.689h3.809C205.518,7.856,205.826,8.165,205.826,8.545L205.826,8.545z"/>
</g>
<circle fill="#A8A8A8" cx="146.259" cy="23.314" r="1.203"/>
<circle fill="#A8A8A8" cx="192.052" cy="103.733" r="1.3"/>
<circle fill="#B5B5B5" cx="31.586" cy="54.628" r="1.03"/>
<circle fill="#A8A8A8" cx="62.59" cy="9.55" r="1.203"/>
<circle fill="#A8A8A8" cx="48.168" cy="43.627" r="1.203"/>
<g>
	<path fill="#C8C8C8" stroke="#7E7E7F" stroke-miterlimit="10" d="M75.688,56.347c-1.693-2.569,0.518-5.605,4.374-7.821
		c2.074-1.192,5.654-1.782,6.125-1.761c0.539,0.367,1.131,1.01,1.613,1.727l-12.048,7.937C75.73,56.399,75.708,56.376,75.688,56.347
		z"/>
	<path fill="#9C9C9C" stroke="#7E7E7F" stroke-miterlimit="10" d="M87.8,48.492c0.471,0.702,0.836,1.478,0.934,2.137
		c0.002,0.514-2.223,3.35-4.133,4.785c-3.473,2.605-7.184,3.391-8.849,1.015L87.8,48.492z"/>
	<path fill="#7E7E7F" d="M86.315,46.46c0.732-0.084,2.549,0.294,3.07,0.452c0.188,0.058,0.348,0.204,0.348,0.204
		s0.115,0.231,0.123,0.482c0.023,0.794-0.145,2.369-0.848,3.022c-0.141,0.003-0.184,0.063-0.299-0.019l-2.545-3.865
		C86.101,46.64,86.11,46.595,86.315,46.46z"/>
	<polygon fill="#707070" points="77.917,49.939 75.373,50.185 70.856,54.289 75.566,52.65 	"/>
	<polygon fill="#707070" points="82.429,56.789 81.196,59.028 75.44,61.452 79.12,57.807 	"/>
	<path fill="#C8C8C8" d="M75.665,56.32c-1.692-2.569,0.519-5.605,4.375-7.82c2.076-1.191,5.654-1.781,6.125-1.762
		c0.539,0.369,1.131,1.011,1.611,1.727l-12.047,7.938C75.709,56.373,75.685,56.349,75.665,56.32z"/>
	<path fill="#9C9C9C" d="M87.776,48.464c0.473,0.704,0.838,1.479,0.934,2.139c0.004,0.514-2.221,3.35-4.133,4.785
		c-3.471,2.604-7.182,3.389-8.848,1.014L87.776,48.464z"/>
	<polygon fill="#C4C4C6" points="91.431,45.999 89.938,46.303 89.542,47.242 90.554,47.291 	"/>
	<polygon fill="#707070" points="78.772,54.337 75.254,54.25 71.884,58.876 77.141,57.266 	"/>
	<g>
		<circle fill="#848484" cx="82.912" cy="51.585" r="1.452"/>
		<path fill="#555555" d="M81.767,50.218c0.85-0.56,1.992-0.324,2.551,0.525c0.561,0.849,0.326,1.992-0.523,2.552
			s-1.992,0.324-2.553-0.524C80.683,51.921,80.917,50.779,81.767,50.218z M82.058,52.173c0.348,0.525,1.055,0.67,1.578,0.324
			c0.527-0.347,0.672-1.053,0.326-1.578s-1.053-0.67-1.578-0.325C81.858,50.941,81.712,51.648,82.058,52.173z"/>
	</g>
</g>
<g display="none">
	<path display="inline" fill="#DDDDDD" d="M71.29,65.718c-4.453,4.992-59.454,38.289-107.621,37.267V91.773
		c65,0,105.773-27.053,106.689-26.964"/>
	<path id="line2" display="inline" fill="none" stroke="#D3D3D3" stroke-miterlimit="10" d="M70.989,65.71
		C66.536,70.703,11.535,104-36.632,102.977"/>
	<path id="line1" display="inline" fill="none" stroke="#D3D3D3" stroke-miterlimit="10" d="M-36.632,91.765
		c65,0,105.773-27.053,106.689-26.964"/>
</g>
</svg>
