<?xml version="1.0" encoding="utf-8"?>
<!-- Generator: Adobe Illustrator 16.0.0, SVG Export Plug-In . SVG Version: 6.00 Build 0)  -->
<!DOCTYPE svg PUBLIC "-//W3C//DTD SVG 1.1//EN" "http://www.w3.org/Graphics/SVG/1.1/DTD/svg11.dtd">
<svg version="1.1" id="图层_1" xmlns="http://www.w3.org/2000/svg" xmlns:xlink="http://www.w3.org/1999/xlink" x="0px" y="0px"
	 width="205.825px" height="114.605px" viewBox="0 0 205.825 114.605" enable-background="new 0 0 205.825 114.605"
	 xml:space="preserve">
<path fill="#46494C" d="M152.81,87.186c0,2.103-1.793,3.81-4.005,3.81H64.189c-2.212,0-4.005-1.707-4.005-3.81V38.118
	c0-2.104,1.793-3.81,4.005-3.81h84.615c2.212,0,4.005,1.706,4.005,3.81L152.81,87.186L152.81,87.186z"/>
<path fill="#36393E" d="M138.965,81.445c0,1.104-0.896,2-2,2H68.571c-1.105,0-2-0.896-2-2V43.384c0-1.104,0.895-2,2-2h68.395
	c1.104,0,2,0.896,2,2V81.445z"/>
<circle fill="#36393E" cx="101.381" cy="8.572" r="3"/>
<path fill="#484A4C" d="M88.306,71.523c0.822,0.915-0.176,3.151-2.229,4.999l-1.498,1.349c-2.055,1.847-4.383,2.604-5.206,1.689
	l-1.364-1.517c-0.821-0.913,0.177-3.15,2.23-4.998l1.498-1.349c2.053-1.847,4.385-2.604,5.205-1.689L88.306,71.523z"/>
<path fill="#999999" d="M130.442,68.741c-0.787,0.945-3.145,0.277-5.268-1.49l-1.549-1.29c-2.121-1.771-3.203-3.979-2.416-4.929
	l1.305-1.569c0.785-0.942,3.143-0.275,5.266,1.494l1.549,1.296c2.121,1.776,3.203,3.979,2.418,4.923L130.442,68.741z"/>
<polygon fill="#484A4C" points="102.386,71.08 91.085,81.917 91.085,81.917 73.85,81.917 93.306,62.413 "/>
<path fill="#484A4C" d="M137.526,81.46c-0.049,0.29-0.16,0.562-0.52,0.562c-0.562,0-41.631-0.073-41.631-0.073l25.168-25.07
	l17.072,17.014C137.528,80.387,137.532,81.257,137.526,81.46z"/>
<path opacity="0.8" fill="#484A4C" stroke="#101011" stroke-miterlimit="10" enable-background="new    " d="M141.334,56.669
	c0,1.354-3.25,1.312-3.25-0.021c0-1.188,0-2.396,0-3.043c0-1.332,3.25-1.374,3.25-0.021
	C141.334,54.461,141.334,55.649,141.334,56.669z M141.334,50.149c0-0.959,0-7.375,0-7.375c0-2.209-1.791-4-4-4h-69.25
	c-2.209,0-4,1.791-4,4v38.396c0,2.209,1.791,4,4,4h69.25c2.209,0,4-1.791,4-4c0,0,0-19.62,0-20.979c0-1.459-3.25-1.563-3.25-0.001
	c0,1.256-0.129,20.98-0.129,20.98c0,0.554-0.317,1-0.871,1h-68.75c-0.553,0-1-0.446-1-1V42.774c0-0.553,0.447-1,1-1h68.75
	c0.554,0,1,0.447,1,1c0,0,0,5.917,0,7.375C138.084,51.586,141.334,51.544,141.334,50.149z M54.768,50.731c0-1,0-0.791,0-2.082
	c0-1.459,3.233-1.416,3.233,0c0,1.292,0,1.438,0,2.082C58.001,52.377,54.768,52.294,54.768,50.731z M147.5,73.359v16.438
	c0,0.554-0.446,1-1,1h-87.5c-0.552,0-1-0.446-1-0.375c0,0,0-33.542,0-35.271c0-1.543-3.233-1.585-3.233,0c0,0.686,0,34.146,0,34.146
	c0,2.209,1.791,4,4,4h88c2.209,0,4-1.791,4-4V73.359 M150.769,73.359c-0.06-1.708-3.287-1.729-3.269,0 M146.769,30.736h-9.183
	h-0.002h-0.082l-30.465-19.961l0,0c0.264-0.676,0.408-1.412,0.408-2.183c0-3.324-2.695-6.021-6.021-6.021
	c-3.324,0-6.02,2.696-6.02,6.021c-0.002,0.77,0.143,1.505,0.406,2.181l0.002,0.002L65.335,30.736h-6.567c-2.209,0-4,1.792-4,4.001
	c0,0,0,9.038,0,10.204c0,1.583,3.233,1.541,3.233-0.001c0-1.083,0-9.707,0-9.707c0-1.178,0.448-1.625,1-1.625h87.5
	c0.554,0,1,0.447,1,1c0,0,0.013,33.532,0,34.751c0.054,1.75,3.24,1.781,3.269,0c0-0.969,0-34.622,0-34.622
	C150.769,32.528,148.978,30.736,146.769,30.736z M101.425,5.51c1.703,0,3.083,1.381,3.083,3.083c0,1.703-1.38,3.083-3.083,3.083
	c-1.703,0-3.082-1.38-3.082-3.083C98.343,6.89,99.722,5.51,101.425,5.51z M70.876,30.736l26.474-17.71
	c1.072,0.986,2.504,1.588,4.074,1.588c1.574,0,3.004-0.604,4.077-1.59l26.584,17.712H70.876z M129.769,65.699l8.272,8.414
	l0.023-3.837l-6.436-6.441 M131.629,63.834c-0.989-0.994-2.821,0.961-1.858,1.864 M123.644,59.552
	c0.569,0.504,1.508-0.06,1.508-0.06s1.185-1.094,0.354-1.801 M129.573,61.769c0,0-1.078-1.054-1.922-1.932
	c-0.844-0.876-2.781,0.813-1.83,1.898c0.531,0.535,1.891,1.902,1.891,1.902 M129.573,61.769c0.828,0.829-1.078,2.65-1.861,1.869
	 M123.644,59.551c-0.619-0.618-3-2.999-3-2.999L95.058,82.17l-1.262-0.001l-2.398-0.002c0.047-0.182,0.141-0.353,0.281-0.494
	l28.122-28.154c0.425-0.422,1.107-0.422,1.529,0c0,0,3.496,3.527,4.174,4.174 M82.204,72.753c0.355-0.354,11.07-11.086,11.07-11.086
	l9.197,9.213l1.652-1.651L93.95,59.03c-0.391-0.391-1.023-0.391-1.416,0c0,0-11.678,11.708-12.018,12.042
	C79.724,71.859,81.505,73.5,82.204,72.753z M78.125,73.463c-0.562,0.562-8.708,8.708-8.708,8.708l3.367,0.004
	c0,0,6.322-6.336,7.03-7.028C80.806,74.193,79.098,72.526,78.125,73.463z"/>
<path fill="#63676B" d="M120.491,62.771c-0.4-0.402-0.4-1.055,0-1.457l0.096-0.094c0.4-0.403,1.05-0.403,1.449,0l6.855,6.872
	c0.4,0.4,0.4,1.05,0,1.449l-0.094,0.094c-0.4,0.401-1.049,0.401-1.451,0L120.491,62.771z M131.508,73.442
	c0.392,0.391,1.023,0.391,1.414,0l0,0c0.392-0.392,0.392-1.023,0-1.414l-1.192-1.193c-0.392-0.391-1.022-0.391-1.414,0l0,0
	c-0.392,0.392-0.392,1.023,0,1.414L131.508,73.442z"/>
<path fill="#63676B" d="M92.944,64.813c0.336-0.337,0.881-0.336,1.217,0.001l2.494,2.495c0.336,0.337,0.336,0.881,0,1.218l0,0
	c-0.336,0.336-0.881,0.336-1.217,0l-2.494-2.494C92.606,65.696,92.606,65.151,92.944,64.813L92.944,64.813z M97.216,69.035
	c-0.342,0.342-0.342,0.896,0,1.238l0.707,0.707c0.342,0.342,0.896,0.342,1.238,0l0,0c0.342-0.342,0.342-0.896,0-1.238l-0.707-0.707
	C98.112,68.693,97.558,68.693,97.216,69.035L97.216,69.035z"/>
<g id="face">
	<circle fill="#1A1B1C" cx="115.295" cy="72.037" r="1.25"/>
	<circle fill="#1A1B1C" cx="127.057" cy="72.037" r="1.249"/>
	<circle fill="#27292B" cx="113.549" cy="75.697" r="1.498"/>
	<circle fill="#27292B" cx="128.554" cy="75.697" r="1.498"/>
	<path fill="#27292B" d="M124.481,74.952c-0.171,0.855-1.365,2.493-2.771,2.493h-0.711c-0.869,0-2.353-1.748-2.565-2.415
		l-0.212-0.821h6.371L124.481,74.952z"/>
	<path fill="#6B6F72" d="M119.213,75.66c0,1.213,0.854,2.196,1.912,2.196l0,0c1.057,0,1.912-0.983,1.912-2.196v-0.494l-3.824-0.02
		V75.66L119.213,75.66z"/>
</g>
<g id="face-s">
	<circle fill="#1A1B1C" cx="87.896" cy="74.342" r="0.831"/>
	<circle fill="#1A1B1C" cx="95.733" cy="74.342" r="0.833"/>
	<circle fill="#27292B" cx="86.732" cy="76.781" r="0.999"/>
	<circle fill="#27292B" cx="96.734" cy="76.781" r="0.999"/>
	<path fill="#27292B" d="M94.018,76.284c-0.113,0.571-0.908,1.663-1.846,1.663h-0.474c-0.579,0-1.567-1.166-1.71-1.61l-0.143-0.546
		h4.249L94.018,76.284z"/>
	<path fill="#6B6F72" d="M90.509,76.756c0,0.81,0.569,1.465,1.273,1.465l0,0c0.702,0,1.275-0.655,1.275-1.465v-0.329l-2.549-0.012
		L90.509,76.756L90.509,76.756z"/>
</g>
<g id="flower_5_">
	<path fill="#4A4D51" d="M160.662,8.566c0,0.478-0.388,0.862-0.86,0.862l0,0c-0.478,0-0.863-0.385-0.863-0.862V7.469
		c0-0.477,0.387-0.862,0.863-0.862l0,0c0.475,0,0.86,0.386,0.86,0.862V8.566z"/>
	<path fill="#4A4D51" d="M162.936,10.042c-0.328,0.344-0.875,0.354-1.217,0.025l0,0c-0.344-0.33-0.354-0.875-0.025-1.219
		l0.759-0.792c0.33-0.344,0.875-0.355,1.221-0.025l0,0c0.343,0.329,0.354,0.875,0.023,1.219L162.936,10.042z"/>
	<path fill="#4A4D51" d="M164.328,11.206c0.478,0,0.862,0.386,0.862,0.86l0,0c0,0.478-0.387,0.862-0.862,0.862h-1.097
		c-0.477,0-0.862-0.386-0.862-0.862l0,0c0-0.476,0.387-0.86,0.862-0.86H164.328z"/>
	<path fill="#4A4D51" d="M160.664,16.676c0,0.477-0.388,0.862-0.86,0.862l0,0c-0.478,0-0.863-0.386-0.863-0.862v-1.098
		c0-0.476,0.387-0.861,0.863-0.861l0,0c0.475,0,0.86,0.386,0.86,0.861V16.676z"/>
	<path fill="#4A4D51" d="M156.463,11.235c0.477,0,0.863,0.387,0.863,0.861l0,0c0,0.477-0.387,0.862-0.863,0.862h-1.096
		c-0.477,0-0.863-0.387-0.863-0.862l0,0c0-0.477,0.387-0.861,0.863-0.861H156.463z"/>
	<path fill="#4A4D51" d="M163.692,14.578c0.339,0.338,0.336,0.883,0,1.219l0,0c-0.336,0.337-0.881,0.337-1.219,0l-0.774-0.776
		c-0.336-0.336-0.336-0.882,0-1.219l0,0c0.336-0.336,0.883-0.336,1.219,0L163.692,14.578z"/>
	<path fill="#4A4D51" d="M157.942,9.207c0.336,0.337,0.336,0.882,0,1.218l0,0c-0.338,0.337-0.883,0.337-1.219,0l-0.776-0.776
		c-0.337-0.336-0.337-0.882,0.002-1.219l0,0c0.336-0.336,0.881-0.336,1.217,0L157.942,9.207z"/>
	<path fill="#4A4D51" d="M156.723,14.069c0.336-0.337,0.881-0.337,1.217,0l0,0c0.338,0.337,0.338,0.882,0.002,1.22l-0.776,0.775
		c-0.336,0.336-0.881,0.336-1.219,0l0,0c-0.337-0.336-0.337-0.882,0-1.218L156.723,14.069z"/>
</g>
<path fill="#202123" d="M45.247,3.844c0,2.123-1.721,3.845-3.844,3.845s-3.844-1.722-3.844-3.845C37.559,1.721,39.28,0,41.403,0
	S45.247,1.721,45.247,3.844z M41.403,1.828c-1.113,0-2.016,0.903-2.016,2.016c0,1.113,0.902,2.017,2.016,2.017
	c1.114,0,2.016-0.903,2.016-2.017C43.419,2.731,42.516,1.828,41.403,1.828z"/>
<g id="flower_4_">
	<path fill="#4A4D51" d="M30.621,23.619c0.125,0.46-0.147,0.933-0.606,1.057l0,0c-0.46,0.125-0.933-0.146-1.058-0.605l-0.287-1.06
		c-0.125-0.46,0.147-0.933,0.607-1.057l0,0c0.459-0.125,0.932,0.147,1.056,0.606L30.621,23.619z"/>
	<path fill="#4A4D51" d="M33.204,24.448c-0.228,0.417-0.752,0.571-1.169,0.343l0,0c-0.418-0.229-0.572-0.751-0.343-1.17l0.525-0.962
		c0.229-0.418,0.752-0.571,1.171-0.343l0,0c0.416,0.228,0.57,0.751,0.342,1.169L33.204,24.448z"/>
	<path fill="#4A4D51" d="M34.85,25.208c0.461-0.125,0.934,0.147,1.058,0.606l0,0c0.124,0.46-0.147,0.933-0.606,1.058l-1.059,0.287
		c-0.461,0.125-0.934-0.146-1.058-0.607l0,0c-0.125-0.459,0.148-0.933,0.607-1.057L34.85,25.208z"/>
	<path fill="#4A4D51" d="M32.742,31.446c0.125,0.46-0.147,0.933-0.606,1.057l0,0c-0.46,0.125-0.933-0.146-1.058-0.605l-0.287-1.06
		c-0.124-0.459,0.147-0.933,0.607-1.057l0,0c0.459-0.125,0.932,0.147,1.057,0.607L32.742,31.446z"/>
	<path fill="#4A4D51" d="M27.268,27.292c0.46-0.125,0.933,0.147,1.057,0.606l0,0c0.125,0.46-0.147,0.933-0.607,1.058l-1.059,0.287
		c-0.46,0.125-0.933-0.146-1.058-0.607l0,0c-0.125-0.459,0.147-0.932,0.607-1.057L27.268,27.292z"/>
	<path fill="#4A4D51" d="M35.119,28.63c0.413,0.237,0.555,0.765,0.318,1.177l0,0c-0.237,0.412-0.763,0.556-1.177,0.318l-0.951-0.546
		c-0.413-0.237-0.555-0.764-0.318-1.177l0,0c0.236-0.412,0.763-0.555,1.175-0.318L35.119,28.63z"/>
	<path fill="#4A4D51" d="M28.164,24.947c0.414,0.237,0.556,0.763,0.318,1.176l0,0c-0.237,0.413-0.763,0.557-1.176,0.319
		l-0.952-0.546c-0.412-0.237-0.555-0.765-0.317-1.178l0,0c0.236-0.411,0.763-0.555,1.175-0.317L28.164,24.947z"/>
	<path fill="#4A4D51" d="M28.258,29.959c0.237-0.414,0.763-0.556,1.175-0.318l0,0c0.414,0.236,0.557,0.764,0.319,1.177l-0.547,0.952
		c-0.236,0.413-0.763,0.555-1.176,0.317l0,0c-0.412-0.236-0.555-0.763-0.318-1.176L28.258,29.959z"/>
</g>
<g id="flower_3_">
	<path fill="#202123" d="M39.422,98.914c0.054,0.475-0.286,0.899-0.759,0.953l0,0c-0.474,0.055-0.9-0.286-0.953-0.759l-0.125-1.091
		c-0.053-0.475,0.287-0.899,0.761-0.954l0,0c0.473-0.053,0.899,0.288,0.952,0.761L39.422,98.914z"/>
	<path fill="#202123" d="M41.849,100.125c-0.287,0.378-0.829,0.449-1.206,0.161l0,0c-0.378-0.289-0.452-0.829-0.163-1.208
		l0.666-0.871c0.289-0.38,0.828-0.451,1.209-0.163l0,0c0.377,0.289,0.45,0.831,0.162,1.209L41.849,100.125z"/>
	<path fill="#202123" d="M43.363,101.125c0.475-0.054,0.9,0.286,0.953,0.76l0,0c0.053,0.474-0.287,0.898-0.76,0.954l-1.09,0.122
		c-0.475,0.054-0.9-0.286-0.954-0.76l0,0c-0.053-0.473,0.288-0.899,0.76-0.952L43.363,101.125z"/>
	<path fill="#202123" d="M40.334,106.972c0.054,0.474-0.286,0.898-0.759,0.954l0,0c-0.474,0.052-0.901-0.287-0.954-0.762
		l-0.122-1.09c-0.055-0.473,0.285-0.898,0.76-0.952l0,0c0.473-0.055,0.898,0.285,0.952,0.76L40.334,106.972z"/>
	<path fill="#202123" d="M35.552,102.037c0.473-0.054,0.9,0.287,0.953,0.761l0,0c0.054,0.472-0.286,0.898-0.76,0.951l-1.09,0.123
		c-0.473,0.056-0.9-0.285-0.954-0.76l0,0c-0.054-0.472,0.288-0.896,0.76-0.952L35.552,102.037z"/>
	<path fill="#202123" d="M43.11,104.549c0.373,0.297,0.433,0.84,0.138,1.211l0,0c-0.297,0.371-0.839,0.434-1.213,0.137l-0.857-0.686
		c-0.371-0.296-0.432-0.839-0.137-1.211l0,0c0.297-0.37,0.84-0.433,1.211-0.137L43.11,104.549z"/>
	<path fill="#202123" d="M36.792,99.855c0.373,0.298,0.434,0.84,0.138,1.211l0,0c-0.298,0.373-0.839,0.436-1.212,0.138l-0.858-0.684
		c-0.372-0.298-0.433-0.839-0.136-1.213l0,0c0.296-0.371,0.838-0.433,1.209-0.136L36.792,99.855z"/>
	<path fill="#202123" d="M36.127,104.825c0.296-0.372,0.839-0.434,1.21-0.138l0,0c0.374,0.298,0.436,0.839,0.138,1.212l-0.685,0.858
		c-0.297,0.37-0.838,0.433-1.211,0.137l0,0c-0.371-0.297-0.433-0.839-0.137-1.211L36.127,104.825z"/>
</g>
<path fill="#101011" d="M17.479,63.023c0,1.983-1.609,3.594-3.594,3.594c-1.985,0-3.594-1.609-3.594-3.594
	c0-1.985,1.609-3.594,3.594-3.594C15.87,59.429,17.479,61.039,17.479,63.023z M13.885,60.721c-1.271,0-2.301,1.029-2.301,2.302
	c0,1.271,1.03,2.301,2.301,2.301c1.271,0,2.302-1.029,2.302-2.301C16.187,61.751,15.156,60.721,13.885,60.721z"/>
<path fill="#343538" d="M6.5,43.627c0,1.795-1.455,3.25-3.25,3.25S0,45.422,0,43.627s1.455-3.25,3.25-3.25S6.5,41.833,6.5,43.627z
	 M3.25,41.459c-1.197,0-2.168,0.972-2.168,2.168c0,1.197,0.971,2.168,2.168,2.168s2.168-0.971,2.168-2.168
	C5.418,42.43,4.447,41.459,3.25,41.459z"/>
<path fill="#101011" d="M169.272,49.914c0,1.979-1.604,3.583-3.584,3.583s-3.582-1.604-3.582-3.583c0-1.979,1.604-3.583,3.582-3.583
	S169.272,47.935,169.272,49.914z M165.688,48.132c-0.983,0-1.781,0.798-1.781,1.781c0,0.984,0.798,1.781,1.781,1.781
	c0.981,0,1.78-0.797,1.78-1.781C167.468,48.929,166.669,48.132,165.688,48.132z"/>
<path fill="#101011" d="M186.047,93.297c0,2.058-1.668,3.726-3.726,3.726c-2.057,0-3.725-1.668-3.725-3.726
	c0-2.057,1.668-3.725,3.725-3.725C184.379,89.572,186.047,91.24,186.047,93.297z M182.322,91.203c-1.155,0-2.094,0.938-2.094,2.094
	s0.938,2.094,2.094,2.094c1.156,0,2.095-0.938,2.095-2.094S183.478,91.203,182.322,91.203z"/>
<g>
	<path fill="#202123" d="M193.413,75.323c0,0.568-0.461,1.029-1.028,1.029l0,0c-0.568,0-1.027-0.461-1.027-1.029v-6.316
		c0-0.568,0.459-1.029,1.027-1.029l0,0c0.567,0,1.028,0.461,1.028,1.029V75.323z"/>
	<path fill="#202123" d="M195.627,71.448c0.566,0.055,0.979,0.559,0.925,1.125l0,0c-0.056,0.564-0.56,0.979-1.123,0.922
		l-6.289-0.613c-0.565-0.057-0.979-0.559-0.922-1.125l0,0c0.055-0.564,0.557-0.979,1.123-0.922L195.627,71.448z"/>
</g>
<g>
	<path fill="#343538" d="M46.409,64.035c0,0.725-0.587,1.312-1.312,1.312h-4.875c-0.725,0-1.312-0.589-1.312-1.312l0,0
		c0-0.725,0.588-1.312,1.312-1.312h4.875C45.822,62.722,46.409,63.31,46.409,64.035L46.409,64.035z"/>
	<path fill="#343538" d="M43.834,67.003c0,0.621-0.504,1.125-1.125,1.125l0,0c-0.621,0-1.125-0.504-1.125-1.125v-5.938
		c0-0.621,0.504-1.125,1.125-1.125l0,0c0.621,0,1.125,0.504,1.125,1.125V67.003z"/>
</g>
<g>
	<path fill="#202123" d="M146.382,106.787c0,0.76-0.614,1.375-1.375,1.375l0,0c-0.76,0-1.375-0.615-1.375-1.375v-3.938
		c0-0.761,0.615-1.375,1.375-1.375l0,0c0.761,0,1.375,0.614,1.375,1.375V106.787z"/>
	<path fill="#202123" d="M148.195,104.818c0,0.587-0.477,1.062-1.062,1.062h-4.25c-0.588,0-1.061-0.476-1.061-1.062l0,0
		c0-0.587,0.475-1.062,1.061-1.062h4.25C147.719,103.755,148.195,104.231,148.195,104.818L148.195,104.818z"/>
</g>
<g>
	<path fill="#202123" d="M181.875,28.879c0,0.517-0.418,0.937-0.937,0.937l0,0c-0.519,0-0.938-0.419-0.938-0.937v-3.234
		c0-0.517,0.42-0.937,0.938-0.937l0,0c0.519,0,0.937,0.419,0.937,0.937V28.879z"/>
	<path fill="#202123" d="M183.658,27.433c0,0.381-0.31,0.689-0.689,0.689h-3.809c-0.382,0-0.689-0.31-0.689-0.689l0,0
		c0-0.381,0.309-0.688,0.689-0.688h3.809C183.349,26.745,183.658,27.053,183.658,27.433L183.658,27.433z"/>
</g>
<circle fill="#101011" cx="146.258" cy="23.314" r="1.203"/>
<circle fill="#343538" cx="162.885" cy="79.949" r="1.3"/>
<circle fill="#4A4D51" cx="31.586" cy="54.628" r="1.03"/>
<circle fill="#101011" cx="62.59" cy="9.55" r="1.203"/>
<circle fill="#101011" cx="48.168" cy="43.627" r="1.203"/>
<g>
	<path fill="#C8C8C8" stroke="#333638" stroke-miterlimit="10" d="M74.94,56.531c-1.887-2.863,0.577-6.247,4.875-8.716
		c2.312-1.329,6.301-1.986,6.826-1.962c0.601,0.408,1.26,1.125,1.797,1.924l-13.426,8.846C74.986,56.589,74.962,56.562,74.94,56.531
		z"/>
	<path fill="#9C9C9C" stroke="#333638" stroke-miterlimit="10" d="M88.438,47.776c0.525,0.783,0.932,1.648,1.041,2.381
		c0.002,0.574-2.477,3.734-4.605,5.333c-3.871,2.909-8.006,3.785-9.862,1.132L88.438,47.776z"/>
	<path fill="#202223" d="M86.783,45.511c0.816-0.094,2.841,0.328,3.421,0.504c0.21,0.065,0.388,0.228,0.388,0.228
		s0.128,0.258,0.137,0.538c0.026,0.885-0.162,2.639-0.945,3.367c-0.157,0.003-0.205,0.071-0.333-0.021l-2.836-4.308
		C86.544,45.713,86.554,45.663,86.783,45.511z"/>
	<polygon fill="#141516" points="77.424,49.389 74.589,49.663 69.555,54.237 74.804,52.41 	"/>
	<polygon fill="#141516" points="82.452,57.023 81.078,59.523 74.663,62.224 78.765,58.163 	"/>
	<path fill="#9098A5" d="M74.914,56.5c-1.885-2.863,0.579-6.247,4.876-8.715c2.313-1.327,6.301-1.985,6.826-1.963
		c0.601,0.412,1.26,1.126,1.795,1.924l-13.426,8.847C74.963,56.559,74.937,56.533,74.914,56.5z"/>
	<path fill="#69707A" d="M88.411,47.745c0.527,0.785,0.934,1.648,1.041,2.384c0.004,0.573-2.476,3.733-4.606,5.333
		c-3.869,2.906-8.004,3.781-9.861,1.129L88.411,47.745z"/>
	<polygon fill="#75839B" points="92.484,44.998 90.82,45.337 90.379,46.383 91.507,46.438 	"/>
	<polygon fill="#141516" points="78.376,54.29 74.456,54.193 70.7,59.353 76.559,57.558 	"/>
	<g>
		<circle fill="#484A4C" cx="82.991" cy="51.223" r="1.618"/>
		<path fill="#1A1B1C" d="M81.714,49.699c0.948-0.624,2.22-0.36,2.843,0.585c0.625,0.946,0.364,2.22-0.583,2.844
			c-0.946,0.625-2.22,0.361-2.845-0.583C80.506,51.597,80.767,50.325,81.714,49.699z M82.039,51.878
			c0.388,0.585,1.175,0.747,1.758,0.361c0.587-0.386,0.749-1.173,0.363-1.759c-0.385-0.584-1.173-0.747-1.759-0.362
			C81.816,50.506,81.653,51.294,82.039,51.878z"/>
	</g>
</g>
<g display="none">
	<path display="inline" fill="#DDDDDD" d="M71.29,65.718c-4.453,4.992-59.454,38.289-107.621,37.268V91.773
		c65,0,105.773-27.053,106.689-26.964"/>
	<path id="line2" display="inline" fill="none" stroke="#D3D3D3" stroke-miterlimit="10" d="M70.989,65.71
		C66.536,70.703,11.535,104-36.632,102.977"/>
	<path id="line1" display="inline" fill="none" stroke="#D3D3D3" stroke-miterlimit="10" d="M-36.632,91.765
		c65,0,105.773-27.054,106.689-26.965"/>
</g>
</svg>
