<?xml version="1.0" encoding="utf-8"?>
<!-- Generator: Adobe Illustrator 16.0.0, SVG Export Plug-In . SVG Version: 6.00 Build 0)  -->
<!DOCTYPE svg PUBLIC "-//W3C//DTD SVG 1.1//EN" "http://www.w3.org/Graphics/SVG/1.1/DTD/svg11.dtd">
<svg version="1.1" id="图层_1" xmlns="http://www.w3.org/2000/svg" xmlns:xlink="http://www.w3.org/1999/xlink" x="0px" y="0px"
	 width="18.727px" height="19.96px" viewBox="0 0 18.727 19.96" enable-background="new 0 0 18.727 19.96" xml:space="preserve">
<path fill="#4E535C" d="M16.082,17.96H2V3.938h6v-2H1.893C0.849,1.938,0,2.788,0,3.832v14.234c0,1.045,0.849,1.895,1.893,1.895
	h14.297c1.044,0,1.893-0.85,1.893-1.895v-6.129h-2V17.96z"/>
<polygon fill="#4E535C" points="14.031,15.905 3.969,15.905 6.438,12.905 8.469,14.874 11,11.937 "/>
<path fill="#4E535C" d="M18.726,4.355l-3.068-4.008C15.49,0.128,15.231,0,14.956,0c0,0,0,0-0.001,0
	c-0.275,0-0.534,0.127-0.701,0.344l-3.097,4.009l1.4,1.082l1.563-2.023l0.02,6.351l1.771-0.006L15.89,3.562l1.432,1.869
	L18.726,4.355z"/>
</svg>
