<?xml version="1.0" encoding="utf-8"?>
<!-- Generator: Adobe Illustrator 16.0.0, SVG Export Plug-In . SVG Version: 6.00 Build 0)  -->
<!DOCTYPE svg PUBLIC "-//W3C//DTD SVG 1.1//EN" "http://www.w3.org/Graphics/SVG/1.1/DTD/svg11.dtd">
<svg version="1.1" id="图层_1" xmlns="http://www.w3.org/2000/svg" xmlns:xlink="http://www.w3.org/1999/xlink" x="0px" y="0px"
	 width="323.803px" height="116.699px" viewBox="0 0 323.803 116.699" enable-background="new 0 0 323.803 116.699"
	 xml:space="preserve">
<path opacity="0.7" fill="#484A4C" stroke="#191B1C" stroke-miterlimit="10" enable-background="new    " d="M181.569,51.725
	c0-1.465-1.45-2.652-3.992-3.051c-0.932-0.208-1.32-1.159-1.312-2.795c1.776-0.698,3.715-3.305,3.725-5.171
	c0.016-3.136-2.771-6.007-6.219-6.007c-3.449,0-6.283,2.872-6.273,6.007c0.008,2.12,0.479,3.428,2.25,4.356
	c-0.176,0.955-0.426,2.648-1.303,2.663c-2.408-0.07-3.739-0.046-5.119-0.146c-1.418-0.244-1.18-0.87-1.797-1.124
	c-0.727-0.327-2.426-0.067-2.557,0.507c-0.199,0.872,0.071,1.562,0.726,2.144c1.144,0.78,2.36,1.034,3.763,1.228
	c1.303,0.081,2.521-0.012,3.354,0.023c-0.01,0.72-0.375,1.81-0.639,2.52c-0.091,0.242-0.146,0.364-0.255,0.896
	c-0.086,0.67-0.333,7.528,1.085,8.909c0.209,0.202,0.475,0.287,0.773,0.287c0.19,0,0.77-0.125,0.996-0.261
	c1.465-0.871-0.217-5.338,1.465-5.365c0.771-0.127,2.05-0.055,2.621-0.026c0.219,0.953-0.244,3.721,0.383,5.083
	c0.363,0.51,0.951,0.605,1.598,0.607c0.818,0.002,1.018-0.08,1.326-0.516c0.883-2.795,1.123-5.453,1.252-7.609
	c0.641-0.184,1.145-0.259,1.531-0.451C180.517,53.881,181.569,52.876,181.569,51.725z"/>
<path opacity="0.7" fill="#252628" enable-background="new    " d="M177.483,40.623h-8.649c0-2.385,1.938-4.322,4.326-4.322
	S177.483,38.237,177.483,40.623z"/>
<path opacity="0.7" fill="#1F2123" enable-background="new    " d="M179.438,51.942c0,0.519-1.014,0.937-2.266,0.937v-1.95
	C178.426,50.928,179.438,51.426,179.438,51.942z"/>
<g opacity="0.7">
	<path fill="#505456" d="M172.985,37.113c0.096,0.121,0.039,0.241-0.107,0.277c-0.918,0.238-1.635,0.745-2.08,1.341
		c-0.07,0.095-0.199,0.122-0.302,0.063l0,0c-0.104-0.056-0.146-0.184-0.072-0.288c0.445-0.648,1.17-1.217,2.111-1.523
		C172.685,36.932,172.894,36.993,172.985,37.113L172.985,37.113z"/>
</g>
<circle opacity="0.7" fill="#505456" enable-background="new    " cx="170.164" cy="39.421" r="0.297"/>
<g opacity="0.7" enable-background="new    ">
	<g>
		<path fill="#75839B" d="M148.42,41.55c-1.138,0-2.208-0.221-3.333-0.692c1.897-3.826,1.74-6.672,1.133-10.02
			c0.908,0.263,1.869,0.392,2.914,0.392c1.672,0,3.346-0.331,4.965-0.651c1.572-0.311,3.198-0.632,4.772-0.632
			c1.116,0,2.122,0.16,3.063,0.488v10.115c-1.367-0.328-2.674-0.488-3.978-0.488c-2.132,0-3.924,0.44-5.505,0.829
			C151.074,41.23,149.773,41.55,148.42,41.55z"/>
		<path fill="#141516" d="M158.872,29.448v1c0.926,0,1.771,0.116,2.562,0.352v9.127c-1.185-0.245-2.332-0.364-3.478-0.364
			c-2.192,0-4.016,0.448-5.625,0.843c-1.347,0.331-2.62,0.644-3.913,0.644c-0.903,0-1.764-0.149-2.65-0.464
			c1.569-3.417,1.538-6.159,1.071-9.079c0.726,0.149,1.486,0.223,2.292,0.223c1.721,0,3.42-0.336,5.063-0.661
			c1.62-0.32,3.149-0.622,4.674-0.622L158.872,29.448 M158.871,29.448c-3.246,0-6.492,1.283-9.737,1.283
			c-1.188,0-2.376-0.172-3.564-0.642c0.769,3.948,1.019,6.876-1.168,11.011c1.482,0.702,2.783,0.951,4.019,0.951
			c3.019,0,5.643-1.487,9.537-1.487c1.324,0,2.795,0.172,4.478,0.633c0-3.703,0-7.405,0-11.107
			C161.247,29.619,160.059,29.447,158.871,29.448L158.871,29.448z"/>
	</g>
</g>
<g id="planet">
	<g id="XMLID_1_">
		<g>
			<path opacity="0.7" fill="#141516" enable-background="new    " d="M245.347,107.635c6.362,10.006,11.024,21.325,13.496,33.649
				c10.748,53.597-23.982,105.754-77.58,116.502c-9.322,1.87-18.59,2.36-27.614,1.616c1.231-0.752,2.446-1.508,3.652-2.271
				c65.207-41.054,91.849-89.764,57.562-175.67c-0.741-1.878-1.52-3.778-2.33-5.698h0.007c8.999,5.377,17.131,12.164,24.056,20.131
				l0.002,0.008c0,0,1.754,0.347,3.846,1.092c3.174,1.305,4.738,5.199,5.379,7.463C245.634,105.699,245.347,107.635,245.347,107.635
				z"/>
			<path opacity="0.7" fill="#2A2D30" enable-background="new    " d="M157.301,257.133c65.097-41.141,90.328-93.162,57.562-175.67
				C249.149,167.369,222.508,216.079,157.301,257.133z"/>
			<path opacity="0.7" fill="#2A2D30" enable-background="new    " d="M214.86,81.462c32.769,82.509,7.537,134.53-57.561,175.67
				c-1.206,0.763-2.421,1.519-3.652,2.271l-0.007,0.002c-42.862-3.519-80.002-34.926-88.881-79.198
				c-6.941-34.614,5.088-68.638,28.92-91.284c0.542-0.512,0.344-3.781,0.408-4.663c1.29-3.015,5.432-5.593,8.156-7.071
				c1.255-0.787,5.781-0.444,7.505-0.791c0.269-0.054,0.473-0.117,0.578-0.217c9.598-5.846,20.361-10.14,32.013-12.477
				c0.56-0.112,1.12-0.225,1.675-0.32c1.311-0.24,4.872-0.682,8.07-1.035c2.318-0.248,4.436-0.455,5.367-0.494
				c19.783-0.894,38.828,4.201,55.078,13.91C213.343,77.684,214.12,79.584,214.86,81.462z"/>
			<path fill="#81847F" d="M157.301,257.133c-1.206,0.764-2.421,1.52-3.652,2.271C154.88,258.65,156.095,257.896,157.301,257.133z"
				/>
		</g>
	</g>
	<circle fill="#232528" cx="125.443" cy="106.583" r="24.997"/>
	<circle fill="#232528" cx="99.62" cy="159.959" r="9.809"/>
	<circle fill="#1A1B1C" stroke="#2A2B2D" stroke-width="3" stroke-miterlimit="10" cx="230.257" cy="114.254" r="9.316"/>
	<circle fill="#1A1B1C" stroke="#2A2B2D" stroke-width="2" stroke-miterlimit="10" cx="219.131" cy="93.374" r="5.47"/>
	<path fill="#232528" d="M206.117,132.995c1.776,8.868-3.968,17.491-12.83,19.269c-8.863,1.78-17.49-3.965-19.269-12.828
		c-1.776-8.863,3.967-17.492,12.83-19.268C195.715,118.389,204.34,124.131,206.117,132.995z"/>
	<path fill="#1A1B1C" stroke="#2A2B2D" stroke-width="4" stroke-miterlimit="10" d="M230.388,205.264
		c1.784,8.899-3.984,17.563-12.884,19.348c-8.899,1.785-17.562-3.982-19.348-12.885c-1.786-8.899,3.981-17.558,12.883-19.342
		C219.938,190.598,228.603,196.368,230.388,205.264z"/>
	<circle fill="#484C51" cx="167.787" cy="214.834" r="8.374"/>
	<path opacity="0.7" fill="#282A2D" enable-background="new    " d="M144.018,63.385c0,0,0.397-1.877,0.995-2.771
		c2.735-1.195,7.454-1.164,9.765-0.675c1.271,0.912,2.675,1.916,2.675,1.916"/>
	<path fill="#232528" d="M158.796,71.256c0.706,3.523-1.578,6.957-5.104,7.662c-3.521,0.706-6.953-1.577-7.66-5.104
		c-0.706-3.523,1.579-6.955,5.102-7.662C154.656,65.447,158.089,67.73,158.796,71.256z"/>
</g>
<path opacity="0.7" fill="#292B2D" enable-background="new    " d="M97.196,38.832c0.803,0,13.377,0,13.377,0
	c2.065,0,3.742,1.678,3.742,3.744l0,0c0,2.064-1.677,3.74-3.742,3.74H63.59c-2.065,0-3.742-1.676-3.742-3.74l0,0
	c0-2.066,1.676-3.744,3.742-3.744c0,0,12.379,0,14.812,0c2.63-1.305,2.827-4.633-0.002-5.913c-1.915,0-5.535,0-5.535,0
	c-1.923,0-3.481-1.559-3.481-3.483l0,0c0-1.921,1.558-3.479,3.481-3.479h25.581c1.923,0,3.481,1.559,3.481,3.479l0,0
	c0,1.925-1.558,3.483-3.481,3.483c0,0-0.426,0.024-1.252,0C94.41,34.395,94.542,37.657,97.196,38.832z"/>
<circle opacity="0.7" fill="#292B2D" enable-background="new    " cx="56.849" cy="29.496" r="3.393"/>
<path opacity="0.7" fill="#292C2D" enable-background="new    " d="M253.19,84.176c0,1.342-1.086,2.43-2.43,2.43h-18.189
	c-1.342,0-2.428-1.088-2.428-2.43l0,0c0-1.34,1.086-2.428,2.428-2.428h18.189C252.104,81.749,253.19,82.836,253.19,84.176
	L253.19,84.176z"/>
<circle opacity="0.7" fill="#292C2D" enable-background="new    " cx="260.927" cy="83.976" r="2.571"/>
<path opacity="0.7" fill="#232628" enable-background="new    " d="M82.494,97.423c2.533,0,4.588,2.054,4.588,4.587l0,0
	c0,2.532-2.056,4.59-4.588,4.59H34.847c-2.532,0-4.588-2.058-4.588-4.59l0,0c0-2.533,2.056-4.587,4.588-4.587
	c0,0,22.718-0.024,24.819,0c2.542-0.753,2.874-4.844,0-6.171c-1.327,0-2.322,0-2.322,0c-1.956,0-3.538-1.583-3.538-3.536l0,0
	c0-1.954,1.583-3.539,3.538-3.539h25.758c1.955,0,3.538,1.585,3.538,3.539l0,0c0,1.953-1.583,3.536-3.538,3.536h-0.774
	C79.454,92.469,79.675,96.67,82.494,97.423z"/>
<path opacity="0.7" fill="#232628" enable-background="new    " d="M23.737,102.148c0,2.533-2.062,4.597-4.602,4.597
	c-2.536,0-4.595-2.063-4.595-4.597c0-2.543,2.059-4.602,4.595-4.602C21.674,97.547,23.737,99.605,23.737,102.148z"/>
<path opacity="0.7" fill="#292C2D" enable-background="new    " d="M261.922,61.663h-0.667c-1.684,0-3.047-1.364-3.047-3.047l0,0
	c0-1.684,1.363-3.049,3.047-3.049h22.191c1.684,0,3.047,1.365,3.047,3.049l0,0c0,1.683-1.363,3.047-3.047,3.047c0,0-0.857,0-2,0
	c-2.477,1.144-2.191,4.667,0,5.315c1.809-0.021,21.381,0,21.381,0c2.182,0,3.952,1.769,3.952,3.951l0,0
	c0,2.182-1.771,3.953-3.952,3.953h-41.049c-2.182,0-3.951-1.771-3.951-3.953l0,0c0-2.184,1.771-3.951,3.951-3.951
	C264.208,66.33,264.397,62.71,261.922,61.663z"/>
<path opacity="0.7" fill="#292C2D" enable-background="new    " d="M312.397,71.049c0,2.182,1.776,3.959,3.965,3.959
	c2.185,0,3.959-1.777,3.959-3.959c0-2.189-1.774-3.964-3.959-3.964C314.175,67.085,312.397,68.859,312.397,71.049z"/>
<path opacity="0.7" fill="#292C2D" enable-background="new    " d="M234.442,25.52c-0.825,0.024-1.252,0-1.252,0
	c-1.924,0-3.481-1.559-3.481-3.483l0,0c0-1.921,1.56-3.479,3.481-3.479h25.58c1.924,0,3.48,1.559,3.48,3.479l0,0
	c0,1.925-1.557,3.483-3.48,3.483c0,0-3.619,0-5.535,0c-2.827,1.28-2.633,4.608-0.002,5.913c2.435,0,14.812,0,14.812,0
	c2.064,0,3.741,1.677,3.741,3.743l0,0c0,2.064-1.677,3.74-3.741,3.74h-46.984c-2.063,0-3.742-1.676-3.742-3.74l0,0
	c0-2.065,1.679-3.743,3.742-3.743c0,0,12.574,0,13.379,0C237.097,30.257,237.228,26.996,234.442,25.52z M244.224,38.916
	c0,0,19.393,0,18.25,0c-2.477,1.141-1.574,4.011,0.615,4.655c1.811-0.02,21.381,0,21.381,0c2.182,0,3.952,1.766,3.952,3.949l0,0
	c0,2.182-1.771,3.953-3.952,3.953h-41.048c-2.182,0-3.952-1.771-3.952-3.953l0,0c0-2.184,1.771-3.949,3.952-3.949
	C245.851,42.926,246.699,39.96,244.224,38.916z"/>
<path opacity="0.7" fill="#101011" enable-background="new    " d="M75.492,70.823c0,2.209-1.791,4-4,4s-4-1.791-4-4s1.791-4,4-4
	S75.492,68.614,75.492,70.823z M71.492,68.689c-1.179,0-2.134,0.955-2.134,2.133c0,1.179,0.955,2.134,2.134,2.134
	c1.178,0,2.133-0.955,2.133-2.134C73.625,69.645,72.67,68.689,71.492,68.689z"/>
<path opacity="0.7" fill="#101011" enable-background="new    " d="M221.131,55.629c0,1.105-0.896,2-2,2s-2-0.895-2-2
	c0-1.104,0.896-2,2-2S221.131,54.526,221.131,55.629z M219.131,54.563c-0.59,0-1.065,0.478-1.065,1.066
	c0,0.59,0.477,1.066,1.065,1.066s1.065-0.477,1.065-1.066C220.196,55.041,219.72,54.563,219.131,54.563z"/>
<g opacity="0.7">
	<path fill="#101011" d="M97.242,51.972c0,0.276-0.177,0.5-0.396,0.5h-4.207c-0.219,0-0.396-0.224-0.396-0.5l0,0
		c0-0.276,0.177-0.499,0.396-0.499h4.207C97.065,51.473,97.242,51.696,97.242,51.972L97.242,51.972z"/>
	<path fill="#101011" d="M94.742,49.473c0.277,0,0.5,0.177,0.5,0.396v4.207c0,0.219-0.224,0.396-0.5,0.396l0,0
		c-0.276,0-0.5-0.178-0.5-0.396V49.87C94.242,49.65,94.466,49.473,94.742,49.473L94.742,49.473z"/>
	<circle fill="#101011" cx="94.742" cy="51.888" r="1.339"/>
</g>
<g opacity="0.7">
	<path fill="#101011" d="M258.536,13.142c0,0.166-0.105,0.299-0.238,0.299h-2.523c-0.131,0-0.237-0.134-0.237-0.299l0,0
		c0-0.167,0.106-0.299,0.237-0.299h2.523C258.431,12.843,258.536,12.976,258.536,13.142L258.536,13.142z"/>
	<path fill="#101011" d="M257.036,11.642c0.165,0,0.3,0.106,0.3,0.238v2.525c0,0.131-0.135,0.237-0.3,0.237l0,0
		c-0.165,0-0.301-0.106-0.301-0.237V11.88C256.735,11.748,256.871,11.642,257.036,11.642L257.036,11.642z"/>
	<circle fill="#101011" cx="257.036" cy="13.091" r="0.803"/>
</g>
<g opacity="0.7">
	<path fill="#101011" d="M294.188,95.854c0,0.328-0.209,0.595-0.471,0.595h-4.996c-0.261,0-0.471-0.267-0.471-0.595l0,0
		c0-0.328,0.21-0.593,0.471-0.593h4.996C293.979,95.261,294.188,95.525,294.188,95.854L294.188,95.854z"/>
	<path fill="#101011" d="M291.22,92.886c0.329,0,0.596,0.21,0.596,0.472v4.996c0,0.26-0.267,0.471-0.596,0.471l0,0
		c-0.326,0-0.593-0.211-0.593-0.471v-4.996C290.627,93.096,290.894,92.886,291.22,92.886L291.22,92.886z"/>
	<circle fill="#101011" cx="291.222" cy="95.753" r="1.59"/>
</g>
<g opacity="0.7">
	<path fill="#101011" d="M197.763,8.56c0,0.387-0.214,0.7-0.478,0.7h-5.048c-0.264,0-0.477-0.313-0.477-0.7l0,0
		c0-0.387,0.213-0.699,0.477-0.699h5.048C197.549,7.861,197.763,8.173,197.763,8.56L197.763,8.56z"/>
	<path fill="#101011" d="M194.763,5.06c0.33,0,0.6,0.248,0.6,0.555v5.893c0,0.307-0.27,0.555-0.6,0.555l0,0
		c-0.332,0-0.602-0.249-0.602-0.555V5.615C194.161,5.308,194.431,5.06,194.763,5.06L194.763,5.06z"/>
	<path fill="#101011" d="M196.358,8.24c0.097,1.029-0.543,1.955-1.426,2.066c-0.883,0.112-1.674-0.634-1.77-1.663
		c-0.096-1.031,0.542-1.955,1.424-2.066C195.472,6.467,196.265,7.21,196.358,8.24z"/>
</g>
<path opacity="0.9" fill="#141516" enable-background="new    " d="M159.709,40.598v21.592h2.613v-21.03
	C161.451,40.829,160.58,40.662,159.709,40.598z"/>
</svg>
