<?xml version="1.0" encoding="utf-8"?>
<!-- Generator: Adobe Illustrator 16.0.0, SVG Export Plug-In . SVG Version: 6.00 Build 0)  -->
<!DOCTYPE svg PUBLIC "-//W3C//DTD SVG 1.1//EN" "http://www.w3.org/Graphics/SVG/1.1/DTD/svg11.dtd">
<svg version="1.1" xmlns="http://www.w3.org/2000/svg" xmlns:xlink="http://www.w3.org/1999/xlink" x="0px" y="0px" width="19px"
	 height="18.119px" viewBox="0 0 19 18.119" enable-background="new 0 0 19 18.119" xml:space="preserve">
<g id="test-icon-3-2">
	
		<line fill="none" stroke="#ECECEC" stroke-width="1.5" stroke-linecap="round" stroke-miterlimit="10" x1="111.878" y1="9.476" x2="115.83" y2="9.476"/>
	
		<polyline fill="none" stroke="#ECECEC" stroke-width="1.5" stroke-linecap="round" stroke-linejoin="round" stroke-miterlimit="10" points="
		104.788,13.699 101.559,12.22 101.559,6.045 104.819,4.631 	"/>
	
		<line fill="none" stroke="#ECECEC" stroke-width="1.5" stroke-linecap="round" stroke-miterlimit="10" x1="100.972" y1="9.478" x2="97.02" y2="9.478"/>
	
		<polyline fill="none" stroke="#ECECEC" stroke-width="1.5" stroke-linecap="round" stroke-linejoin="round" stroke-miterlimit="10" points="
		108.639,13.699 111.869,12.22 111.869,6.045 108.608,4.631 	"/>
</g>
<g id="test-icon-3">
	
		<line fill="none" stroke="#AAABAE" stroke-linecap="round" stroke-miterlimit="10" x1="66.941" y1="74.972" x2="70.894" y2="74.972"/>
	<polyline fill="none" stroke="#AAABAE" stroke-linecap="round" stroke-linejoin="round" stroke-miterlimit="10" points="
		59.852,79.194 56.622,77.716 56.622,71.541 59.883,70.127 	"/>
	
		<line fill="none" stroke="#AAABAE" stroke-linecap="round" stroke-miterlimit="10" x1="56.035" y1="74.974" x2="52.083" y2="74.974"/>
	<polyline fill="none" stroke="#AAABAE" stroke-linecap="round" stroke-linejoin="round" stroke-miterlimit="10" points="
		63.702,79.194 66.933,77.716 66.933,71.541 63.672,70.127 	"/>
</g>
<g id="test-icon-2">
	<g display="none">
		<g display="inline">
			<g id="Chart_1_">
				<g>
					<path fill="#91969B" d="M28.15,82.373v-17.43h-2.49v18.675c0,0.687,0.557,1.245,1.245,1.245H45.58v-2.49H28.15z M31.263,79.883
						h1.245c0.344,0,0.623-0.278,0.623-0.622v-6.225c0-0.344-0.278-0.623-0.623-0.623h-1.245c-0.344,0-0.623,0.279-0.623,0.623
						v6.225C30.64,79.604,30.918,79.883,31.263,79.883z M34.998,79.883h1.245c0.344,0,0.623-0.278,0.623-0.622V68.056
						c0-0.343-0.278-0.622-0.623-0.622h-1.245c-0.344,0-0.623,0.279-0.623,0.622v11.205C34.375,79.604,34.653,79.883,34.998,79.883z
						 M38.732,79.883h1.245c0.344,0,0.623-0.278,0.623-0.622v-3.735c0-0.344-0.279-0.622-0.623-0.622h-1.245
						c-0.344,0-0.623,0.278-0.623,0.622v3.735C38.11,79.604,38.388,79.883,38.732,79.883z M42.467,79.883h1.245
						c0.344,0,0.623-0.278,0.623-0.622v-8.715c0-0.344-0.278-0.622-0.623-0.622h-1.245c-0.344,0-0.623,0.278-0.623,0.622v8.715
						C41.845,79.604,42.124,79.883,42.467,79.883z"/>
				</g>
			</g>
		</g>
	</g>
	<g>
		<g>
			<g id="Chart">
				<g>
					<path fill="#AAABAE" d="M29.902,81.371h0.825c0.229,0,0.414-0.274,0.414-0.611v-6.118c0-0.338-0.185-0.612-0.414-0.612h-0.825
						c-0.229,0-0.414,0.274-0.414,0.612v6.118C29.488,81.097,29.673,81.371,29.902,81.371z"/>
				</g>
			</g>
		</g>
	</g>
	<polyline fill="none" stroke="#AAABAE" stroke-linecap="round" stroke-linejoin="round" stroke-miterlimit="10" points="
		45.129,84.149 26.171,84.149 26.171,66.657 	"/>
	<g>
		<g>
			<g id="Chart_2_">
				<g>
					<path fill="#AAABAE" d="M33.599,81.371h0.825c0.228,0,0.414-0.274,0.414-0.612V69.746c0-0.337-0.186-0.611-0.414-0.611h-0.825
						c-0.229,0-0.414,0.274-0.414,0.611v11.013C33.186,81.097,33.37,81.371,33.599,81.371z"/>
				</g>
			</g>
		</g>
	</g>
	<g>
		<g>
			<g id="Chart_3_">
				<g>
					<path fill="#AAABAE" d="M37.402,81.391h0.824c0.229,0,0.414-0.183,0.414-0.408v-4.096c0-0.225-0.186-0.41-0.414-0.41h-0.824
						c-0.229,0-0.414,0.186-0.414,0.41v4.096C36.988,81.208,37.174,81.391,37.402,81.391z"/>
				</g>
			</g>
		</g>
	</g>
	<g>
		<g>
			<g id="Chart_4_">
				<g>
					<path fill="#AAABAE" d="M41.162,81.371h0.824c0.229,0,0.414-0.221,0.414-0.492v-8.846c0-0.271-0.186-0.491-0.414-0.491h-0.824
						c-0.229,0-0.414,0.221-0.414,0.491v8.846C40.748,81.15,40.933,81.371,41.162,81.371z"/>
				</g>
			</g>
		</g>
	</g>
</g>
<g id="test-icon-1">
	<path fill="#AAABAE" stroke="#AAABAE" stroke-miterlimit="10" d="M2.834,69.441c0,0.6-0.486,1.086-1.087,1.086h-0.61
		c-0.601,0-1.088-0.486-1.088-1.086v-0.612c0-0.601,0.487-1.087,1.088-1.087h0.61c0.601,0,1.087,0.486,1.087,1.087V69.441z"/>
	<path fill="#AAABAE" stroke="#AAABAE" stroke-miterlimit="10" d="M2.834,74.86c0,0.601-0.486,1.087-1.087,1.087h-0.61
		c-0.601,0-1.088-0.486-1.088-1.087v-0.611c0-0.601,0.487-1.087,1.088-1.087h0.61c0.601,0,1.087,0.486,1.087,1.087V74.86z"/>
	<path fill="#AAABAE" stroke="#AAABAE" stroke-miterlimit="10" d="M2.834,80.342c0,0.601-0.486,1.087-1.087,1.087h-0.61
		c-0.601,0-1.088-0.486-1.088-1.087V79.73c0-0.601,0.487-1.087,1.088-1.087h0.61c0.601,0,1.087,0.486,1.087,1.087V80.342z"/>
	<rect x="5.444" y="68.386" fill="#AAABAE" width="14.131" height="1.5"/>
	<rect x="5.444" y="73.805" fill="#AAABAE" width="14.131" height="1.5"/>
	<rect x="5.444" y="79.286" fill="#AAABAE" width="14.131" height="1.5"/>
</g>
<g id="circle">
	<path fill="#AAABAE" d="M89.488,35.532c0,6.074-4.925,11-11,11s-11-4.926-11-11c0-6.075,4.925-11,11-11
		S89.488,29.458,89.488,35.532z M78.488,28.033c-4.143,0-7.5,3.357-7.5,7.5c0,4.143,3.357,7.5,7.5,7.5s7.5-3.357,7.5-7.5
		C85.988,31.39,82.631,28.033,78.488,28.033z"/>
</g>
<g id="minus">
	<path fill="#AAABAE" d="M61.488,25.533c0,0.553-0.447,1-1,1h-8c-0.553,0-1-0.447-1-1l0,0c0-0.553,0.447-1,1-1h8
		C61.041,24.533,61.488,24.98,61.488,25.533L61.488,25.533z"/>
</g>
<g id="plus">
	<path fill="#AAABAE" d="M45.488,29.033c0,0.5-0.405,0.904-0.905,0.904h-7.189c-0.5,0-0.905-0.404-0.905-0.904l0,0
		c0-0.5,0.405-0.905,0.905-0.905h7.189C45.083,28.127,45.488,28.533,45.488,29.033L45.488,29.033z"/>
	<path fill="#AAABAE" d="M40.987,24.533c0.5,0,0.905,0.405,0.905,0.905v7.189c0,0.5-0.405,0.905-0.905,0.905l0,0
		c-0.5,0-0.904-0.405-0.904-0.905v-7.189C40.083,24.938,40.487,24.533,40.987,24.533L40.987,24.533z"/>
</g>
<g id="topo">
	<polyline fill="#AAABAE" stroke="#AAABAE" stroke-width="3" stroke-miterlimit="10" points="22.293,25.896 19.352,27.244 
		19.352,32.872 22.32,34.16 	"/>
	<polyline fill="#AAABAE" stroke="#AAABAE" stroke-width="3" stroke-miterlimit="10" points="23.562,34.125 26.479,32.789 
		26.479,27.208 23.535,25.933 	"/>
	<polyline fill="#AAABAE" stroke="#AAABAE" stroke-width="3" stroke-miterlimit="10" points="4.689,39.677 0.926,41.401 
		0.926,48.601 4.725,50.249 	"/>
	<polyline fill="#AAABAE" stroke="#AAABAE" stroke-width="3" stroke-miterlimit="10" points="6.312,50.204 10.043,48.495 
		10.043,41.356 6.277,39.722 	"/>
	<polyline fill="#AAABAE" stroke="#AAABAE" stroke-width="3" stroke-miterlimit="10" points="24.803,49.194 21.861,50.544 
		21.861,56.171 24.83,57.458 	"/>
	<polyline fill="#AAABAE" stroke="#AAABAE" stroke-width="3" stroke-miterlimit="10" points="26.074,57.425 28.988,56.087 
		28.988,50.509 26.043,49.229 	"/>
	<path fill="none" stroke="#AAABAE" stroke-width="3" stroke-miterlimit="10" d="M10.828,44.964
		c5.582-0.033,2.75-14.945,7.762-14.937"/>
	<path fill="none" stroke="#AAABAE" stroke-width="3" stroke-miterlimit="10" d="M10.828,45.048
		c6.736-0.021,4.426,8.35,10.775,8.363"/>
</g>
<g id="check-box">
	<path fill="#AAABAE" d="M90.444,14.48c0,1.044-0.846,1.889-1.889,1.889H75.334c-1.044,0-1.89-0.845-1.89-1.889V1.259
		c0-1.044,0.846-1.889,1.89-1.889h13.222c1.043,0,1.889,0.845,1.889,1.889V14.48z"/>
	
		<polyline fill="none" stroke="#2F3136" stroke-width="3" stroke-linecap="round" stroke-linejoin="round" stroke-miterlimit="10" points="
		77.267,7.916 81.339,11.069 87.106,3.506 	"/>
</g>
<g id="chart-pie">
	<circle fill="#AAABAE" cx="57.517" cy="9.425" r="7.943"/>
	<circle display="none" fill="none" stroke="#2452C6" stroke-miterlimit="10" cx="152.757" cy="-0.425" r="17.3"/>
	<path fill="#2F3136" stroke="#D7D9DD" stroke-miterlimit="10" d="M57.517,9.425l1.419-9.486c4.029,0.6,6.845,3.448,7.881,6.766
		L57.517,9.425z"/>
</g>
<g id="small-star">
	<polygon fill="#AAABAE" points="34.573,-0.629 37.354,5.005 43.573,5.909 39.073,10.294 40.138,16.49 34.573,13.564 29.011,16.49 
		30.073,10.294 25.573,5.909 31.792,5.005 	"/>
</g>
<g id="big-star">
	<polygon fill="none" stroke="#AAABAE" stroke-linejoin="round" stroke-miterlimit="10" points="9.5,0.5 12.281,6.136 18.5,7.039 
		14,11.425 15.062,17.619 9.5,14.695 3.938,17.619 5,11.425 0.5,7.039 6.719,6.136 	"/>
</g>
</svg>
