<?xml version="1.0" encoding="utf-8"?>
<!-- Generator: Adobe Illustrator 16.0.0, SVG Export Plug-In . SVG Version: 6.00 Build 0)  -->
<!DOCTYPE svg PUBLIC "-//W3C//DTD SVG 1.1//EN" "http://www.w3.org/Graphics/SVG/1.1/DTD/svg11.dtd">
<svg version="1.1" xmlns="http://www.w3.org/2000/svg" xmlns:xlink="http://www.w3.org/1999/xlink" x="0px" y="0px" width="19.5px"
	 height="18.619px" viewBox="0 0 19.5 18.619" enable-background="new 0 0 19.5 18.619" xml:space="preserve">
<g id="stretch-icon">
	<g>
		<g>
			<path fill="#91969B" d="M-24.927,8.155l16-7.677l-4.923,7.677l4.923,7.676L-24.927,8.155z"/>
		</g>
	</g>
</g>
<g id="test-icon-3-2">
	
		<line fill="none" stroke="#ECECEC" stroke-width="1.5" stroke-linecap="round" stroke-miterlimit="10" x1="66.146" y1="-14.898" x2="70.099" y2="-14.898"/>
	
		<polyline fill="none" stroke="#ECECEC" stroke-width="1.5" stroke-linecap="round" stroke-linejoin="round" stroke-miterlimit="10" points="
		59.057,-10.676 55.827,-12.154 55.827,-18.33 59.088,-19.744 	"/>
	
		<line fill="none" stroke="#ECECEC" stroke-width="1.5" stroke-linecap="round" stroke-miterlimit="10" x1="55.24" y1="-14.896" x2="51.288" y2="-14.896"/>
	
		<polyline fill="none" stroke="#ECECEC" stroke-width="1.5" stroke-linecap="round" stroke-linejoin="round" stroke-miterlimit="10" points="
		62.907,-10.676 66.138,-12.154 66.138,-18.33 62.877,-19.744 	"/>
</g>
<g id="test-icon-3">
	
		<line fill="none" stroke="#AAABAE" stroke-linecap="round" stroke-miterlimit="10" x1="41.521" y1="-14.9" x2="45.473" y2="-14.9"/>
	<polyline fill="none" stroke="#AAABAE" stroke-linecap="round" stroke-linejoin="round" stroke-miterlimit="10" points="
		34.431,-10.678 31.201,-12.156 31.201,-18.33 34.462,-19.744 	"/>
	
		<line fill="none" stroke="#AAABAE" stroke-linecap="round" stroke-miterlimit="10" x1="30.614" y1="-14.898" x2="26.662" y2="-14.898"/>
	<polyline fill="none" stroke="#AAABAE" stroke-linecap="round" stroke-linejoin="round" stroke-miterlimit="10" points="
		38.281,-10.678 41.512,-12.156 41.512,-18.33 38.251,-19.744 	"/>
</g>
<g id="test-icon-2">
	<g display="none">
		<g display="inline">
			<g id="Chart_1_">
				<g>
					<path fill="#91969B" d="M2.729-8.878v-17.43h-2.49v18.675c0,0.687,0.557,1.245,1.245,1.245h18.674v-2.49H2.729z M5.842-11.368
						h1.245c0.344,0,0.623-0.278,0.623-0.622v-6.225c0-0.344-0.278-0.623-0.623-0.623H5.842c-0.344,0-0.623,0.279-0.623,0.623v6.225
						C5.219-11.646,5.498-11.368,5.842-11.368z M9.577-11.368h1.245c0.344,0,0.623-0.278,0.623-0.622v-11.205
						c0-0.343-0.278-0.622-0.623-0.622H9.577c-0.344,0-0.623,0.279-0.623,0.622v11.205C8.954-11.646,9.232-11.368,9.577-11.368z
						 M13.312-11.368h1.245c0.344,0,0.623-0.278,0.623-0.622v-3.735c0-0.344-0.279-0.622-0.623-0.622h-1.245
						c-0.344,0-0.623,0.278-0.623,0.622v3.735C12.689-11.646,12.967-11.368,13.312-11.368z M17.046-11.368h1.245
						c0.344,0,0.623-0.278,0.623-0.622v-8.715c0-0.344-0.278-0.622-0.623-0.622h-1.245c-0.344,0-0.623,0.278-0.623,0.622v8.715
						C16.424-11.646,16.703-11.368,17.046-11.368z"/>
				</g>
			</g>
		</g>
	</g>
	<g>
		<g>
			<g id="Chart">
				<g>
					<path fill="#AAABAE" d="M4.481-9.88h0.825c0.229,0,0.414-0.274,0.414-0.611v-6.118c0-0.338-0.185-0.612-0.414-0.612H4.481
						c-0.229,0-0.414,0.274-0.414,0.612v6.118C4.067-10.154,4.252-9.88,4.481-9.88z"/>
				</g>
			</g>
		</g>
	</g>
	<polyline fill="none" stroke="#AAABAE" stroke-linecap="round" stroke-linejoin="round" stroke-miterlimit="10" points="
		19.708,-7.102 0.75,-7.102 0.75,-24.594 	"/>
	<g>
		<g>
			<g id="Chart_2_">
				<g>
					<path fill="#AAABAE" d="M8.178-9.88h0.825c0.228,0,0.414-0.274,0.414-0.612v-11.013c0-0.337-0.186-0.611-0.414-0.611H8.178
						c-0.229,0-0.414,0.274-0.414,0.611v11.013C7.765-10.154,7.949-9.88,8.178-9.88z"/>
				</g>
			</g>
		</g>
	</g>
	<g>
		<g>
			<g id="Chart_3_">
				<g>
					<path fill="#AAABAE" d="M11.981-9.86h0.824c0.229,0,0.414-0.183,0.414-0.408v-4.096c0-0.225-0.186-0.41-0.414-0.41h-0.824
						c-0.229,0-0.414,0.186-0.414,0.41v4.096C11.567-10.043,11.753-9.86,11.981-9.86z"/>
				</g>
			</g>
		</g>
	</g>
	<g>
		<g>
			<g id="Chart_4_">
				<g>
					<path fill="#AAABAE" d="M15.741-9.88h0.824c0.229,0,0.414-0.221,0.414-0.492v-8.846c0-0.271-0.186-0.491-0.414-0.491h-0.824
						c-0.229,0-0.414,0.221-0.414,0.491v8.846C15.327-10.101,15.512-9.88,15.741-9.88z"/>
				</g>
			</g>
		</g>
	</g>
</g>
<g id="test-icon-1-selected">
	<path fill="#AAABAE" stroke="#AAABAE" stroke-miterlimit="10" d="M31.159,9.178c0,0.602-0.486,1.088-1.087,1.088h-0.61
		c-0.601,0-1.088-0.486-1.088-1.088V8.566c0-0.6,0.487-1.086,1.088-1.086h0.61c0.601,0,1.087,0.486,1.087,1.086V9.178z"/>
	<path fill="#AAABAE" stroke="#AAABAE" stroke-miterlimit="10" d="M31.159,15.469c0,0.602-0.486,1.088-1.087,1.088h-0.61
		c-0.601,0-1.088-0.486-1.088-1.088v-0.611c0-0.6,0.487-1.086,1.088-1.086h0.61c0.601,0,1.087,0.486,1.087,1.086V15.469z"/>
	<rect x="33.77" y="1.869" fill="#AAABAE" width="14.131" height="1.5"/>
	<rect x="33.77" y="8.123" fill="#AAABAE" width="14.131" height="1.5"/>
	<rect x="33.77" y="14.414" fill="#AAABAE" width="14.131" height="1.5"/>
	
		<polyline fill="none" stroke="#AAABAE" stroke-width="1.5" stroke-linecap="round" stroke-linejoin="round" stroke-miterlimit="10" points="
		26.442,1.662 28.874,3.783 33.091,-0.547 	"/>
</g>
<g id="test-icon-1">
	<path display="none" fill="#AAABAE" stroke="#AAABAE" stroke-miterlimit="10" d="M-22.587-21.515c0,0.6-0.486,1.086-1.087,1.086
		h-0.61c-0.601,0-1.088-0.486-1.088-1.086v-0.612c0-0.601,0.487-1.087,1.088-1.087h0.61c0.601,0,1.087,0.486,1.087,1.087V-21.515z"
		/>
	<path fill="#AAABAE" stroke="#AAABAE" stroke-miterlimit="10" d="M-22.587-15.261c0,0.601-0.486,1.087-1.087,1.087h-0.61
		c-0.601,0-1.088-0.486-1.088-1.087v-0.611c0-0.601,0.487-1.087,1.088-1.087h0.61c0.601,0,1.087,0.486,1.087,1.087V-15.261z"/>
	<path fill="#AAABAE" stroke="#AAABAE" stroke-miterlimit="10" d="M-22.587-8.97c0,0.601-0.486,1.087-1.087,1.087h-0.61
		c-0.601,0-1.088-0.486-1.088-1.087v-0.611c0-0.601,0.487-1.087,1.088-1.087h0.61c0.601,0,1.087,0.486,1.087,1.087V-8.97z"/>
	<rect x="-19.977" y="-22.57" fill="#AAABAE" width="14.131" height="1.5"/>
	<rect x="-19.977" y="-16.316" fill="#AAABAE" width="14.131" height="1.5"/>
	<rect x="-19.977" y="-10.025" fill="#AAABAE" width="14.131" height="1.5"/>
	
		<polyline fill="none" stroke="#AAABAE" stroke-width="1.5" stroke-linecap="round" stroke-linejoin="round" stroke-miterlimit="10" points="
		-27.303,-22.776 -24.873,-20.655 -20.655,-24.985 	"/>
</g>
<g id="circle">
	<path fill="#AAABAE" d="M64.067-55.719c0,6.074-4.925,11-11,11s-11-4.926-11-11c0-6.075,4.925-11,11-11
		S64.067-61.793,64.067-55.719z M53.067-63.218c-4.143,0-7.5,3.357-7.5,7.5c0,4.143,3.357,7.5,7.5,7.5s7.5-3.357,7.5-7.5
		C60.567-59.861,57.21-63.218,53.067-63.218z"/>
</g>
<g id="minus">
	<path fill="#AAABAE" d="M36.067-65.718c0,0.553-0.447,1-1,1h-8c-0.553,0-1-0.447-1-1l0,0c0-0.553,0.447-1,1-1h8
		C35.62-66.718,36.067-66.271,36.067-65.718L36.067-65.718z"/>
</g>
<g id="plus">
	<path fill="#AAABAE" d="M20.067-62.218c0,0.5-0.405,0.904-0.905,0.904h-7.189c-0.5,0-0.905-0.404-0.905-0.904l0,0
		c0-0.5,0.405-0.905,0.905-0.905h7.189C19.662-63.124,20.067-62.718,20.067-62.218L20.067-62.218z"/>
	<path fill="#AAABAE" d="M15.566-66.718c0.5,0,0.905,0.405,0.905,0.905v7.189c0,0.5-0.405,0.905-0.905,0.905l0,0
		c-0.5,0-0.904-0.405-0.904-0.905v-7.189C14.662-66.313,15.066-66.718,15.566-66.718L15.566-66.718z"/>
</g>
<g id="topo">
	<polyline fill="#AAABAE" stroke="#AAABAE" stroke-width="3" stroke-miterlimit="10" points="-3.128,-65.355 -6.069,-64.007 
		-6.069,-58.379 -3.101,-57.091 	"/>
	<polyline fill="#AAABAE" stroke="#AAABAE" stroke-width="3" stroke-miterlimit="10" points="-1.858,-57.125 1.058,-58.462 
		1.058,-64.042 -1.886,-65.318 	"/>
	<polyline fill="#AAABAE" stroke="#AAABAE" stroke-width="3" stroke-miterlimit="10" points="-20.731,-51.574 -24.495,-49.85 
		-24.495,-42.65 -20.696,-41.002 	"/>
	<polyline fill="#AAABAE" stroke="#AAABAE" stroke-width="3" stroke-miterlimit="10" points="-19.108,-41.047 -15.378,-42.756 
		-15.378,-49.895 -19.144,-51.529 	"/>
	<polyline fill="#AAABAE" stroke="#AAABAE" stroke-width="3" stroke-miterlimit="10" points="-0.618,-42.057 -3.56,-40.707 
		-3.56,-35.08 -0.591,-33.793 	"/>
	<polyline fill="#AAABAE" stroke="#AAABAE" stroke-width="3" stroke-miterlimit="10" points="0.653,-33.826 3.567,-35.164 
		3.567,-40.742 0.622,-42.021 	"/>
	<path fill="none" stroke="#AAABAE" stroke-width="3" stroke-miterlimit="10" d="M-14.593-46.287
		c5.582-0.033,2.75-14.945,7.762-14.937"/>
	<path fill="none" stroke="#AAABAE" stroke-width="3" stroke-miterlimit="10" d="M-14.593-46.203
		c6.736-0.021,4.426,8.35,10.775,8.363"/>
</g>
<g id="check-box">
	<path fill="#AAABAE" d="M65.023-76.771c0,1.044-0.846,1.889-1.889,1.889H49.913c-1.044,0-1.89-0.845-1.89-1.889v-13.222
		c0-1.044,0.846-1.889,1.89-1.889h13.222c1.043,0,1.889,0.845,1.889,1.889V-76.771z"/>
	
		<polyline fill="none" stroke="#2F3136" stroke-width="3" stroke-linecap="round" stroke-linejoin="round" stroke-miterlimit="10" points="
		51.846,-83.335 55.918,-80.182 61.686,-87.745 	"/>
</g>
<g id="chart-pie">
	<circle fill="#AAABAE" cx="32.096" cy="-81.826" r="7.943"/>
	<circle display="none" fill="none" stroke="#2452C6" stroke-miterlimit="10" cx="127.336" cy="-91.676" r="17.3"/>
	<path fill="#2F3136" stroke="#D7D9DD" stroke-miterlimit="10" d="M32.096-81.826l1.419-9.486c4.029,0.6,6.845,3.448,7.881,6.766
		L32.096-81.826z"/>
</g>
<g id="small-star">
	<polygon fill="#AAABAE" points="9.152,-91.88 11.934,-86.246 18.152,-85.342 13.652,-80.957 14.717,-74.761 9.152,-77.687 
		3.59,-74.761 4.652,-80.957 0.152,-85.342 6.371,-86.246 	"/>
</g>
<g id="big-star-selected">
	<polygon fill="none" stroke="#ECECEC" stroke-width="1.5" stroke-linejoin="round" stroke-miterlimit="10" points="9.75,0.75 
		12.531,6.385 18.75,7.289 14.25,11.674 15.312,17.869 9.75,14.945 4.188,17.869 5.25,11.674 0.75,7.289 6.969,6.385 	"/>
</g>
<g id="big-star">
	<polygon fill="none" stroke="#AAABAE" stroke-linejoin="round" stroke-miterlimit="10" points="-15.921,-90.751 -13.14,-85.115 
		-6.921,-84.212 -11.421,-79.826 -10.358,-73.632 -15.921,-76.556 -21.483,-73.632 -20.421,-79.826 -24.921,-84.212 
		-18.702,-85.115 	"/>
</g>
</svg>
