<?xml version="1.0" encoding="utf-8"?>
<!-- Generator: Adobe Illustrator 16.0.0, SVG Export Plug-In . SVG Version: 6.00 Build 0)  -->
<!DOCTYPE svg PUBLIC "-//W3C//DTD SVG 1.1//EN" "http://www.w3.org/Graphics/SVG/1.1/DTD/svg11.dtd">
<svg version="1.1" xmlns="http://www.w3.org/2000/svg" xmlns:xlink="http://www.w3.org/1999/xlink" x="0px" y="0px"
	 width="15.607px" height="14.674px" viewBox="0 0 15.607 14.674" enable-background="new 0 0 15.607 14.674" xml:space="preserve">
<path fill="#F9F9F9" d="M6.906,5.469c0,0.553-0.447,1-1,1H1c-0.553,0-1-0.447-1-1V1c0-0.553,0.447-1,1-1h4.906c0.553,0,1,0.447,1,1
	V5.469z"/>
<path fill="#F9F9F9" d="M15.607,5.469c0,0.553-0.447,1-1,1H9.701c-0.553,0-1-0.447-1-1V1c0-0.553,0.447-1,1-1h4.906
	c0.553,0,1,0.447,1,1V5.469z"/>
<path fill="#F9F9F9" d="M6.906,13.674c0,0.553-0.447,1-1,1H1c-0.553,0-1-0.447-1-1V9.205c0-0.553,0.447-1,1-1h4.906
	c0.553,0,1,0.447,1,1V13.674z"/>
<path fill="#F9F9F9" d="M15.607,13.674c0,0.553-0.447,1-1,1H9.701c-0.553,0-1-0.447-1-1V9.205c0-0.553,0.447-1,1-1h4.906
	c0.553,0,1,0.447,1,1V13.674z"/>
</svg>
