<?xml version="1.0" encoding="utf-8"?>
<!-- Generator: Adobe Illustrator 16.0.0, SVG Export Plug-In . SVG Version: 6.00 Build 0)  -->
<!DOCTYPE svg PUBLIC "-//W3C//DTD SVG 1.1//EN" "http://www.w3.org/Graphics/SVG/1.1/DTD/svg11.dtd">
<svg version="1.1" xmlns="http://www.w3.org/2000/svg" xmlns:xlink="http://www.w3.org/1999/xlink" x="0px" y="0px"
	 width="15.312px" height="14.312px" viewBox="0 0 15.312 14.312" enable-background="new 0 0 15.312 14.312" xml:space="preserve">
<path fill="#F9F9F9" d="M15.312,2c0,0.553-0.448,1-1,1H1C0.448,3,0,2.553,0,2V1c0-0.553,0.448-1,1-1h13.312c0.552,0,1,0.447,1,1V2z"
	/>
<path fill="#F9F9F9" d="M15.312,7.656c0,0.553-0.448,1-1,1H1c-0.552,0-1-0.447-1-1v-1c0-0.553,0.448-1,1-1h13.312
	c0.552,0,1,0.447,1,1V7.656z"/>
<path fill="#F9F9F9" d="M15.312,13.312c0,0.553-0.448,1-1,1H1c-0.552,0-1-0.447-1-1v-1c0-0.553,0.448-1,1-1h13.312
	c0.552,0,1,0.447,1,1V13.312z"/>
</svg>
