<?xml version="1.0" encoding="utf-8"?>
<!-- Generator: Adobe Illustrator 16.0.0, SVG Export Plug-In . SVG Version: 6.00 Build 0)  -->
<!DOCTYPE svg PUBLIC "-//W3C//DTD SVG 1.1//EN" "http://www.w3.org/Graphics/SVG/1.1/DTD/svg11.dtd">
<svg version="1.1" id="Capa_1" xmlns="http://www.w3.org/2000/svg" xmlns:xlink="http://www.w3.org/1999/xlink" x="0px" y="0px"
	 width="33.694px" height="50.64px" viewBox="8.473 0 33.694 50.64" enable-background="new 8.473 0 33.694 50.64"
	 xml:space="preserve">
<g>
	<g>
		<path fill="#AF5B23" d="M26.82,1.786c0.146-0.828-0.409-1.617-1.239-1.763c-0.826-0.146-1.615,0.41-1.761,1.239
			c-0.03,0.176-0.026,0.354,0,0.521l1.5,8.625L26.82,1.786z"/>
		<path fill="#AF5B23" d="M41.89,4.99c-0.481-0.688-1.436-0.854-2.121-0.369C39.623,4.724,39.498,4.85,39.4,4.99l-5.039,7.157
			l7.16-5.038C42.207,6.625,42.373,5.677,41.89,4.99z"/>
		<path fill="#AF5B23" d="M11.24,4.987c-0.48-0.688-1.435-0.854-2.121-0.367C8.431,5.102,8.267,6.054,8.752,6.741
			c0.104,0.146,0.229,0.271,0.367,0.366l7.159,5.039L11.24,4.987z"/>
		<path fill="#AF5B23" d="M25.32,12.463c-7.877,0-14.284,6.408-14.284,14.284c0,4.851,2.438,9.324,6.506,11.972
			c0.875,0.575,2.862,2.1,3.426,3.121c0.886,1.615,3.22,1.855,4.531,1.855c1.319,0,3.66-0.247,4.506-1.909
			c0.414-0.812,2.104-2.312,3.146-3.103c4.043-2.654,6.455-7.112,6.455-11.938C39.604,18.872,33.195,12.463,25.32,12.463z
			 M30.91,35.37l-0.104,0.071c-0.52,0.387-3,2.288-4.143,4.127c-0.229,0.062-0.634,0.127-1.17,0.127
			c-0.574,0-1.007-0.074-1.238-0.142c-1.276-1.985-3.967-3.813-4.526-4.188c-2.938-1.91-4.692-5.136-4.692-8.623
			c0-5.67,4.612-10.284,10.284-10.284c5.671,0,10.282,4.612,10.282,10.284C35.604,30.236,33.851,33.46,30.91,35.37z"/>
		<path fill="#AF5B23" d="M26.385,48.577h-2.131c-0.274,0-0.5,0.226-0.5,0.5c0,0.86,0.701,1.562,1.563,1.562
			c0.863,0,1.565-0.702,1.565-1.562C26.886,48.802,26.662,48.577,26.385,48.577z"/>
		<path fill="#AF5B23" d="M26.608,31.071h-2.573c-0.193,0-0.354,0.157-0.354,0.353v2.451c0,0.191,0.157,0.354,0.354,0.354h2.573
			c0.193,0,0.354-0.16,0.354-0.354v-2.451C26.959,31.229,26.802,31.071,26.608,31.071z"/>
		<path fill="#AF5B23" d="M26.713,20.597h-2.75c-0.195,0-0.392,0.143-0.392,0.335v0.02l0.44,8.657c0.02,0.192,0.193,0.37,0.39,0.37
			h1.868c0.195,0,0.334-0.178,0.354-0.37l0.438-8.657v-0.02C27.067,20.737,26.908,20.597,26.713,20.597z"/>
		<path fill="#AF5B23" d="M26.812,44.581H23.83c-0.709,0-1.281,0.573-1.281,1.284v0.521c0,0.71,0.572,1.282,1.281,1.282h2.981
			c0.709,0,1.283-0.572,1.283-1.282v-0.521C28.095,45.155,27.521,44.581,26.812,44.581z"/>
	</g>
</g>
</svg>
