<?xml version="1.0" encoding="utf-8"?>
<!-- Generator: Adobe Illustrator 16.0.0, SVG Export Plug-In . SVG Version: 6.00 Build 0)  -->
<!DOCTYPE svg PUBLIC "-//W3C//DTD SVG 1.1//EN" "http://www.w3.org/Graphics/SVG/1.1/DTD/svg11.dtd">
<svg version="1.1" id="图层_1" xmlns="http://www.w3.org/2000/svg" xmlns:xlink="http://www.w3.org/1999/xlink" x="0px" y="0px"
	 width="806.959px" height="604.473px" viewBox="0 0 806.959 604.473" enable-background="new 0 0 806.959 604.473"
	 xml:space="preserve">
<rect y="0.181" fill="#F3F3F3" width="806.959" height="604.982"/>
<g>
	<path id="bg2" opacity="0.8" fill="#DCDEE2" stroke="#D2D7DB" stroke-width="1.6" stroke-miterlimit="10" d="M135.589,373.396
		c-67-75-52.334-153.667-70.546-198.65C54.207,147.982,26.801,138.62-0.8,140.884v464.087h274.858
		c38.847-19.953,99.894-96.05,51.53-147.575C277.042,405.674,183.787,427.349,135.589,373.396z"/>
	<path id="bg1" opacity="0.8" fill="#DCDEE2" stroke="#D2D7DB" stroke-width="1.6" stroke-miterlimit="10" d="M806.159,0H302.026
		c5.738,55.301,42.591,113.49,123.562,133.895c35.243,8.064,81-3,135,27c57.516,31.953-6.824,76.134,58,96
		c62,19-2.152,41.792,94.218,102.687c15.095,9.538,28.855,49.9-25.142,82.898c-24.251,14.819-67.117-22.652-84.812,39.069
		c-20.932,73.014-61.598,70.348-68.765,92.348c-3.5,12.667-0.914,18.399,13.341,30.575h258.729V0z"/>
	<g id="satellite">
		<path fill="none" stroke="#606060" stroke-miterlimit="10" d="M622.544,139.325l4.103,4.669c1.037-0.856,1.73-2.126,1.817-3.575
			c0.166-2.769-1.945-5.147-4.712-5.312c-1.431-0.087-2.761,0.436-3.731,1.344l0.921,1.049"/>
		<line fill="none" stroke="#747577" stroke-miterlimit="10" x1="620.098" y1="143.165" x2="623.385" y2="140.28"/>
		<path fill="none" stroke="#747577" stroke-miterlimit="10" d="M626.394,136.053c0.325,0.255,1.495-0.532,1.414-0.703"/>
		<path fill="none" stroke="#747577" stroke-miterlimit="10" d="M627.798,137.604c-0.194-0.31,0.905-1.183,0.905-1.183"/>
		
			<rect x="632.13" y="130.037" transform="matrix(0.6714 0.7411 -0.7411 0.6714 305.4437 -426.5025)" fill="none" stroke="#747577" stroke-miterlimit="10" width="3.031" height="2.26"/>
		
			<rect x="636.253" y="126.754" transform="matrix(0.6377 0.7703 -0.7703 0.6377 329.3388 -444.5973)" fill="none" stroke="#747577" stroke-miterlimit="10" width="2.133" height="2.133"/>
		<line fill="none" stroke="#747577" stroke-miterlimit="10" x1="634.421" y1="130.339" x2="636.585" y2="128.607"/>
		<line fill="none" stroke="#747577" stroke-miterlimit="10" x1="623.36" y1="125.555" x2="620.62" y2="122.417"/>
		<line fill="none" stroke="#747577" stroke-miterlimit="10" x1="628.627" y1="131.589" x2="623.999" y2="126.289"/>
		<line fill="none" stroke="#747577" stroke-miterlimit="10" x1="635.289" y1="139.215" x2="632.645" y2="136.188"/>
		<line fill="none" stroke="#747577" stroke-miterlimit="10" x1="638.377" y1="142.753" x2="635.745" y2="139.738"/>
		<line fill="none" stroke="#747577" stroke-miterlimit="10" x1="640.524" y1="145.21" x2="639.031" y2="143.502"/>
		<g>
			
				<rect x="631.661" y="138.842" transform="matrix(0.6941 0.7199 -0.7199 0.6941 294.56 -412.806)" fill="#B5B5B5" width="2.71" height="2.71"/>
			
				<rect x="633.988" y="141.38" transform="matrix(0.6806 0.7327 -0.7327 0.6806 307.504 -419.9109)" fill="#828282" width="2.709" height="2.674"/>
			
				<rect x="636.403" y="143.955" transform="matrix(0.6944 0.7196 -0.7196 0.6944 299.4918 -414.5138)" fill="#B5B5B5" width="2.711" height="2.767"/>
			
				<rect x="635.006" y="135.854" transform="matrix(0.694 0.72 -0.72 0.694 293.4973 -416.1677)" fill="#B5B5B5" width="2.711" height="2.712"/>
			
				<rect x="637.334" y="138.394" transform="matrix(0.6805 0.7327 -0.7327 0.6805 306.444 -423.3516)" fill="#B5B5B5" width="2.711" height="2.675"/>
			
				<rect x="639.746" y="140.967" transform="matrix(0.6938 0.7201 -0.7201 0.6938 298.794 -418.0956)" fill="#8C8C8C" width="2.711" height="2.768"/>
			
				<rect x="618.731" y="123.969" transform="matrix(0.694 0.72 -0.72 0.694 279.9648 -408.09)" fill="#B5B5B5" width="2.71" height="2.71"/>
			
				<rect x="621.059" y="126.507" transform="matrix(0.6808 0.7325 -0.7325 0.6808 292.3343 -415.1019)" fill="#8C8C8C" width="2.71" height="2.674"/>
			
				<rect x="623.472" y="129.082" transform="matrix(0.6939 0.72 -0.72 0.6939 285.1848 -409.9727)" fill="#B5B5B5" width="2.71" height="2.767"/>
			
				<rect x="622.077" y="120.982" transform="matrix(0.6947 0.7193 -0.7193 0.6947 278.294 -411.0613)" fill="#B5B5B5" width="2.71" height="2.709"/>
			
				<rect x="624.404" y="123.52" transform="matrix(0.6806 0.7327 -0.7327 0.6806 291.3478 -418.5876)" fill="#B5B5B5" width="2.71" height="2.676"/>
			
				<rect x="626.817" y="126.095" transform="matrix(0.6941 0.7199 -0.7199 0.6941 283.9127 -413.2036)" fill="#8C8C8C" width="2.713" height="2.767"/>
		</g>
		<path fill="#C1C1C1" d="M620.098,143.176c0.02,0,0.039,0.003,0.06,0.006c0.185,0.223,0.292,0.511,0.272,0.822
			c-0.038,0.65-0.597,1.145-1.246,1.104c-0.317-0.019-0.595-0.163-0.795-0.378c0.001-0.018-0.001-0.037,0-0.056
			C618.441,143.792,619.206,143.122,620.098,143.176z"/>
		<path fill="#B2B2B2" d="M618.08,143.865c0.038-0.651,0.595-1.146,1.245-1.107c0.339,0.021,0.631,0.182,0.832,0.424
			c-0.021-0.002-0.04-0.006-0.06-0.006c-0.892-0.054-1.656,0.616-1.709,1.498c-0.001,0.019,0.001,0.038,0,0.056
			C618.18,144.502,618.06,144.196,618.08,143.865z"/>
		<path fill="#C9C9C9" d="M630.584,133.215c-1.242-0.074-2.363,0.528-3.019,1.483c-0.071-0.291-0.1-0.594-0.081-0.906
			c0.102-1.688,1.551-2.973,3.236-2.871c1.687,0.102,2.972,1.551,2.87,3.236c-0.02,0.312-0.084,0.61-0.188,0.89
			C632.867,134.02,631.824,133.291,630.584,133.215z"/>
		<path fill="#DDDDDD" d="M630.355,137.027c-1.373-0.081-2.481-1.058-2.79-2.329c0.655-0.955,1.776-1.557,3.019-1.483
			c1.24,0.075,2.283,0.804,2.818,1.833C632.944,136.272,631.728,137.111,630.355,137.027z"/>
		<circle fill="none" stroke="#747577" stroke-miterlimit="10" cx="630.501" cy="134.008" r="3.025"/>
		<path fill="#C9C9C9" d="M622.636,139.219l-1.567-1.686l-0.893-1.018c0.942-0.882,2.233-1.39,3.622-1.307
			c2.02,0.122,3.678,1.455,4.311,3.251c-0.572-0.25-1.133-0.327-1.856-0.45C624.913,138.072,623.784,138.333,622.636,139.219z"/>
		<path fill="#DDDDDD" d="M626.629,143.795l-3.949-4.496l-0.101-0.114c1.001-0.798,2.299-1.25,3.694-1.166
			c0.878,0.052,1.487,0.29,1.839,0.441c0.21,0.591,0.306,1.231,0.266,1.895C628.295,141.75,627.627,142.97,626.629,143.795z"/>
	</g>
	<g id="rocket">
		<path fill="#C8C8C8" stroke="#8C8C8C" stroke-miterlimit="10" d="M707.024,284.117c-3.941-5.948,1.166-12.997,10.08-18.142
			c4.8-2.775,13.095-4.164,14.186-4.114c1.251,0.847,2.627,2.333,3.748,3.993l-27.866,18.447
			C707.12,284.236,707.067,284.183,707.024,284.117z"/>
		<path fill="#9C9C9C" stroke="#757575" stroke-miterlimit="10" d="M735.038,265.854c1.093,1.625,1.945,3.421,2.176,4.946
			c0.007,1.189-5.135,7.775-9.552,11.112c-8.025,6.05-17.005,8.097-20.49,2.39L735.038,265.854z"/>
		<polygon fill="#9DA0A5" points="743.754,259.849 740.297,260.565 739.384,262.743 741.729,262.852 		"/>
		<path fill="#8D8F91" d="M731.648,261.216c2.714-0.57,5.337,0.312,7.021,0.86c0.452,0.137,0.757,0.448,0.842,0.578
			c0.1,0.152,0.236,0.524,0.234,1.056c0.001,2.037-0.363,4.909-1.921,6.936c-0.104,0.068-0.286,0.188-0.667,0.092l-5.919-8.942
			C731.279,261.421,731.434,261.315,731.648,261.216z"/>
		<polygon fill="#8A8C8E" points="712.146,269.26 706.259,269.834 695.814,279.371 706.719,275.547 		"/>
		<polygon fill="#8A8C8E" points="722.643,285.106 719.8,290.301 706.477,295.943 714.985,287.479 		"/>
		<path fill="#757575" d="M710.403,282.063l-3.285,2.176c1.924,2.731,5.013,3.649,8.62,3.143
			C713.494,285.795,711.745,284.042,710.403,282.063z"/>
		<path fill="#AAADB2" d="M727.622,281.885c4.429-3.338,9.569-9.921,9.559-11.115c-0.228-1.525-1.078-3.321-2.174-4.949
			l-24.582,16.274c1.34,1.978,3.091,3.732,5.332,5.318C719.411,286.902,723.586,284.929,727.622,281.885z"/>
		<path fill="#A0A2A5" d="M707.76,273.821c-2.39,3.413-2.939,6.986-0.791,10.228c0.047,0.072,0.106,0.126,0.149,0.19L710.5,282
			C708.895,279.552,707.891,276.639,707.76,273.821z"/>
		<path fill="#DCE1E5" d="M731.26,261.828c-1.089-0.042-9.379,1.346-14.182,4.116c-4.054,2.339-7.312,5.068-9.298,7.909
			c0.131,2.818,1.134,5.732,2.74,8.179l24.486-16.21C733.889,264.165,732.514,262.681,731.26,261.828z"/>
		<polygon fill="#8A8C8E" points="714.271,279.617 705.729,280.979 699.005,289.595 709.728,286.935 		"/>
		<g>
			<path fill="#95999E" d="M720.925,274.905c1.026,1.55,3.112,1.979,4.663,0.944c1.553-1.025,1.979-3.112,0.946-4.662
				c-1.024-1.548-3.113-1.972-4.664-0.944C720.318,271.268,719.897,273.358,720.925,274.905z"/>
			<path fill="#75787C" d="M721.066,269.888c1.963-1.304,4.613-0.764,5.913,1.203c1.305,1.961,0.767,4.614-1.2,5.913
				c-1.966,1.305-4.614,0.765-5.917-1.2C718.562,273.838,719.1,271.188,721.066,269.888z M721.753,274.412
				c0.807,1.22,2.446,1.551,3.657,0.747c1.223-0.807,1.55-2.442,0.748-3.659c-0.804-1.218-2.445-1.549-3.659-0.745
				C721.282,271.562,720.948,273.2,721.753,274.412z"/>
		</g>
		<g>
			
				<linearGradient id="SVGID_1_" gradientUnits="userSpaceOnUse" x1="597.0576" y1="322.5977" x2="698.6699" y2="300.9993" gradientTransform="matrix(0.998 -0.0629 0.0629 0.998 -18.7222 40.9596)">
				<stop  offset="0" style="stop-color:#FFFFFF;stop-opacity:0"/>
				<stop  offset="0.1884" style="stop-color:#EAEAEA;stop-opacity:0.1964"/>
				<stop  offset="0.4129" style="stop-color:#D9D9D9;stop-opacity:0.4303"/>
				<stop  offset="0.6579" style="stop-color:#CFCFCF;stop-opacity:0.6857"/>
				<stop  offset="0.9595" style="stop-color:#CCCCCC"/>
			</linearGradient>
			
				<linearGradient id="SVGID_2_" gradientUnits="userSpaceOnUse" x1="596.3691" y1="322.665" x2="698.9443" y2="300.862" gradientTransform="matrix(0.998 -0.0629 0.0629 0.998 -18.7222 40.9596)">
				<stop  offset="0" style="stop-color:#FFFFFF;stop-opacity:0"/>
				<stop  offset="0.3804" style="stop-color:#CECECE;stop-opacity:0.605"/>
				<stop  offset="0.6288" style="stop-color:#B2B2B2"/>
			</linearGradient>
			<path fill="url(#SVGID_1_)" stroke="url(#SVGID_2_)" stroke-miterlimit="10" d="M696.019,292.116
				c-2.211,2.836-40.199,32.2-95.299,35.403l-5.129-8.799c53.675-3.507,99.402-27.075,99.896-27.06"/>
			
				<linearGradient id="line2_2_" gradientUnits="userSpaceOnUse" x1="601.8125" y1="310.4326" x2="697.7715" y2="310.4326" gradientTransform="matrix(0.998 -0.0629 0.0629 0.998 -18.7222 40.9596)">
				<stop  offset="0" style="stop-color:#FFFFFF;stop-opacity:0"/>
				<stop  offset="0.1971" style="stop-color:#F9F9F9;stop-opacity:0.1978"/>
				<stop  offset="0.471" style="stop-color:#E7E7E7;stop-opacity:0.4726"/>
				<stop  offset="0.7886" style="stop-color:#C9C9C9;stop-opacity:0.7912"/>
				<stop  offset="0.9967" style="stop-color:#B2B2B2"/>
				<stop  offset="1" style="stop-color:#B5B5B5"/>
			</linearGradient>
			<path id="line2_1_" fill="none" stroke="url(#line2_2_)" stroke-miterlimit="10" d="M695.899,292.243
				c-2.219,2.832-38.611,31.744-93.56,35.174"/>
			
				<linearGradient id="line1_2_" gradientUnits="userSpaceOnUse" x1="595.6182" y1="305.5527" x2="696.9463" y2="305.5527" gradientTransform="matrix(0.998 -0.0629 0.0629 0.998 -18.7222 40.9596)">
				<stop  offset="0" style="stop-color:#FFFFFF;stop-opacity:0"/>
				<stop  offset="0.1971" style="stop-color:#F9F9F9;stop-opacity:0.1978"/>
				<stop  offset="0.471" style="stop-color:#E7E7E7;stop-opacity:0.4726"/>
				<stop  offset="0.7886" style="stop-color:#C9C9C9;stop-opacity:0.7912"/>
				<stop  offset="0.9967" style="stop-color:#B2B2B2"/>
				<stop  offset="1" style="stop-color:#B5B5B5"/>
			</linearGradient>
			<path id="line1_1_" fill="none" stroke="url(#line1_2_)" stroke-miterlimit="10" d="M595.591,318.721
				c58.041-4.196,99.284-26.95,99.777-26.933"/>
		</g>
	</g>
	<g id="planet">
		<circle opacity="0.7" fill="#B1B5BC" cx="235.039" cy="591.589" r="17.938"/>
		<path fill="#D3DAE2" d="M250.2,581.998c-0.919-1.449-2.032-2.749-3.303-3.866c-5.004,1.589-15.414,4.923-15.414,4.923
			L250.2,581.998z"/>
		<path fill="#D3DAE2" d="M251.948,597.585c0.521-1.47,0.853-3.018,0.975-4.613l-23.531,6.272
			C229.392,599.244,243.628,598.168,251.948,597.585z"/>
		<path fill="#D3DAE2" d="M217.109,591.176c-0.023,1.017,0.036,2.051,0.193,3.092c0.061,0.401,0.139,0.796,0.225,1.188l15.183-4.271
			C232.71,591.185,223.16,591.151,217.109,591.176z"/>
	</g>
	<g id="planet2">
		<path fill="#D5DAE2" d="M641.137,549.223c-0.607,1.488-1.36,2.877-2.231,4.154c-2.511,3.682-6.02,6.445-9.997,8.067
			c-1.923,0.782-3.956,1.302-6.037,1.527c-2.12,0.229-4.289,0.158-6.449-0.241c-1.475-0.275-2.943-0.703-4.384-1.293
			c-0.347-0.142-0.687-0.29-1.022-0.447c-3.814-1.781-6.908-4.528-9.1-7.823c-0.686-1.03-1.286-2.114-1.791-3.24
			c-0.558-1.235-0.999-2.521-1.322-3.84c-1.081-4.403-0.837-9.178,0.999-13.696c0.039-0.096,0.079-0.191,0.118-0.287
			c0.033-0.077,0.067-0.154,0.101-0.231c0.028-0.069,0.058-0.138,0.088-0.205c2.044-4.574,5.458-8.138,9.552-10.404
			c0.788-0.438,1.602-0.825,2.436-1.161c3.679-1.493,7.757-2.01,11.812-1.377c1.14,0.179,2.277,0.447,3.402,0.812
			c0.541,0.174,1.078,0.369,1.611,0.587c3.566,1.457,6.552,3.73,8.829,6.521c0.692,0.845,1.319,1.74,1.878,2.673
			c0.54,0.904,1.014,1.843,1.422,2.812c0.198,0.475,0.383,0.954,0.548,1.441c0.794,2.314,1.21,4.766,1.204,7.254
			C642.798,543.623,642.262,546.471,641.137,549.223z"/>
		<path fill="#CED4DD" d="M642.774,541.888c-5.148,3.081-11.247,6.164-17.927,8.966c-6.742,2.833-13.272,5.04-19.117,6.559
			c-0.036,0.01-0.071,0.018-0.107,0.028c-1.205-1.075-2.278-2.269-3.21-3.557c0.032-0.002,0.063-0.006,0.096-0.009h0.002
			c0.005,0,0.015-0.003,0.02-0.004c5.533-0.626,13.07-2.725,21.036-6.067c7.886-3.312,14.608-7.177,18.935-10.661
			c0.202,1.21,0.305,2.44,0.301,3.682C642.802,541.178,642.793,541.532,642.774,541.888z"/>
		<g>
			<path fill="#EBEEF2" d="M636.378,529.527c-0.108-0.045-0.208-0.12-0.281-0.225c-0.533-0.738-1.121-1.444-1.752-2.098
				c-0.25-0.261-0.244-0.675,0.016-0.926c0.262-0.252,0.674-0.243,0.925,0.018c0.675,0.697,1.304,1.454,1.872,2.245
				c0.211,0.291,0.144,0.699-0.15,0.911C636.817,529.591,636.58,529.609,636.378,529.527z"/>
			<path fill="#EBEEF2" d="M627.413,559.451c-0.161-0.066-0.297-0.195-0.364-0.372c-0.128-0.336,0.042-0.716,0.378-0.845
				c4.916-1.873,8.874-5.73,10.856-10.585c1.995-4.881,1.896-10.227-0.283-15.046c-0.148-0.33-0.002-0.719,0.328-0.866
				c0.328-0.148,0.716-0.002,0.864,0.328c2.328,5.151,2.433,10.862,0.302,16.077c-2.119,5.189-6.348,9.312-11.601,11.314
				C627.733,559.519,627.562,559.513,627.413,559.451z"/>
			<path fill="#EBEEF2" d="M624.054,560.404c-0.2-0.081-0.353-0.258-0.397-0.484c-0.065-0.354,0.166-0.697,0.522-0.765
				c0.389-0.072,0.783-0.162,1.167-0.259c0.352-0.089,0.708,0.121,0.798,0.47c0.087,0.351-0.122,0.705-0.473,0.797
				c-0.412,0.105-0.834,0.199-1.248,0.277C624.293,560.464,624.165,560.449,624.054,560.404z"/>
		</g>
		<path opacity="0.7" fill="#B6B8BA" enable-background="new    " d="M641.05,532.129c-0.408-0.97-0.882-1.908-1.422-2.812
			c-0.559-0.933-1.186-1.828-1.878-2.673c0.009,0.09,0.031,0.175,0.065,0.259c0.76,1.805-1.14,4.537-4.871,7.573
			c-0.004,0.002-0.01,0.006-0.017,0.012c-0.042,0.035-0.088,0.069-0.13,0.104c-4.329,3.484-11.048,7.35-18.934,10.66
			c-1.387,0.583-2.758,1.124-4.109,1.631c-1.367,0.51-2.839-0.464-2.899-1.922c-0.132-3.108,0.389-6.297,1.643-9.365
			c2.276-5.573,6.551-9.729,11.658-11.979c2.813-1.238,5.881-1.9,9.006-1.899c1.3,0,2.612,0.117,3.92,0.352
			c-1.272-0.868-2.655-1.617-4.14-2.225c-2.764-1.129-5.624-1.664-8.437-1.663c-3.125-0.001-6.19,0.66-9.003,1.9
			c-5.107,2.249-9.384,6.406-11.66,11.979c-2.443,5.979-2.103,12.403,0.418,17.833c-0.045,0.012-0.092,0.024-0.136,0.035
			c0.505,1.126,1.104,2.209,1.791,3.24c0.057-0.018,0.115-0.037,0.172-0.056c1.012,1.48,2.204,2.847,3.565,4.058
			c1.843,1.641,3.991,3.003,6.405,3.99c1.482,0.605,2.995,1.039,4.513,1.312c-0.8-0.544-1.554-1.133-2.264-1.766
			c-2.068-1.841-3.75-4.036-4.991-6.449c-0.066-0.128-0.132-0.26-0.197-0.392c-0.703-1.437,0.002-3.165,1.494-3.739
			c1.497-0.575,3.009-1.183,4.532-1.822c6.68-2.803,12.778-5.886,17.927-8.968c0.046-0.029,0.096-0.056,0.143-0.086
			c3.189-1.916,6.014-3.834,8.383-5.679C641.433,533.083,641.248,532.604,641.05,532.129z"/>
		<path opacity="0.9" fill="#C8CFDB" d="M659.168,524.565c-1.604-3.813-11.062-3.749-23.686-0.472l-0.121,0.052
			c1.201,1.071,2.268,2.262,3.195,3.546l0.147-0.062c4.779-0.54,8.059,0.021,8.814,1.825c0.76,1.806-1.14,4.536-4.87,7.572
			c-0.006,0.005-0.013,0.008-0.018,0.011c-0.043,0.035-0.086,0.071-0.13,0.104c-4.326,3.484-11.049,7.35-18.935,10.661
			c-7.966,3.343-15.503,5.441-21.036,6.067c-0.005,0.001-0.015,0.004-0.02,0.004h-0.002c-0.032,0.003-0.063,0.007-0.096,0.009
			c-1.166,0.13-2.243,0.192-3.215,0.186c-2.961-0.016-4.938-0.669-5.504-2.02c-0.754-1.791,1.111-4.494,4.787-7.502
			c-0.269-1.563-0.373-3.165-0.3-4.774c-11.113,6.693-17.732,13.367-16.136,17.167c1.239,2.955,7.193,3.581,15.682,2.19l0.001,0.001
			c2.44-0.399,5.088-0.967,7.895-1.691c0.036-0.011,0.071-0.019,0.107-0.028c5.845-1.519,12.375-3.726,19.117-6.559
			c6.68-2.802,12.778-5.885,17.927-8.966c0.047-0.03,0.096-0.059,0.141-0.088C654.097,535.085,660.77,528.379,659.168,524.565z"/>
		<path fill="#A1A5A8" d="M611.903,562.048c-2.447-1-4.682-2.395-6.635-4.142l0.871-0.975c1.843,1.647,3.949,2.961,6.26,3.905
			c11.073,4.524,23.766-0.804,28.292-11.877c0.942-2.309,1.48-4.731,1.594-7.201l0.006-0.113l0.043-0.104l0.607,0.248l0.65,0.03
			c-0.122,2.616-0.69,5.188-1.69,7.634C637.102,561.198,623.646,566.847,611.903,562.048z"/>
		<path opacity="0.9" fill="#A8ACAF" d="M584.124,559.588c-1.345-0.55-2.243-1.348-2.682-2.395
			c-0.895-2.129,0.272-4.902,3.463-8.235c2.907-3.037,7.422-6.431,13.054-9.813l0.674,1.121c-5.534,3.324-9.954,6.643-12.783,9.597
			c-2.719,2.84-3.855,5.266-3.201,6.824c0.656,1.561,3.182,2.446,7.114,2.494c4.09,0.052,9.554-0.779,15.802-2.401
			c5.974-1.552,12.554-3.807,19.03-6.526c6.477-2.718,12.693-5.834,17.984-9.015c5.534-3.322,9.955-6.641,12.784-9.596
			c2.718-2.839,3.855-5.264,3.201-6.823c-0.655-1.562-3.181-2.446-7.114-2.494c-4.089-0.053-9.554,0.78-15.801,2.401l-0.329-1.265
			c6.357-1.651,11.941-2.496,16.146-2.444c4.614,0.055,7.409,1.164,8.304,3.294c0.895,2.131-0.271,4.903-3.463,8.235
			c-2.908,3.037-7.421,6.433-13.054,9.813c-5.344,3.212-11.622,6.354-18.153,9.098c-6.533,2.743-13.175,5.021-19.208,6.587
			c-6.357,1.65-11.941,2.496-16.147,2.443C587.397,560.459,585.52,560.159,584.124,559.588z M595.072,554.073
			c-0.99-0.403-1.656-0.996-1.98-1.771c-0.864-2.054,0.887-4.936,5.064-8.331l0.823,1.015c-3.521,2.863-5.272,5.409-4.684,6.812
			c0.591,1.403,3.632,1.938,8.141,1.426l0.168-0.02c5.649-0.66,13.186-2.845,20.708-6.004c7.58-3.181,14.464-7.066,18.895-10.659
			l0.023-0.018c3.524-2.867,5.274-5.413,4.685-6.815c-0.588-1.403-3.63-1.938-8.139-1.428l-0.146-1.301
			c5.348-0.604,8.629,0.166,9.492,2.222c0.863,2.055-0.886,4.935-5.057,8.326l-0.022,0.021c-4.521,3.67-11.528,7.628-19.224,10.857
			c-7.697,3.232-15.43,5.462-21.215,6.116l-0.012,0.001c-0.014,0.003-0.024,0.005-0.035,0.004h-0.003
			C599.232,554.901,596.71,554.743,595.072,554.073z"/>
		<path fill="#BABEBF" d="M585.271,556.803c-0.561-0.229-0.944-0.512-1.056-0.774c-0.022-0.056-0.545-1.432,2.862-4.99
			c1.849-1.931,4.417-4.032,7.565-6.197c-3.047,3.072-4.097,5.796-3.121,8.12c0.348,0.828,1.135,1.967,2.91,2.692
			c1.287,0.525,2.981,0.784,5.056,0.771C592.965,557.691,587.838,557.853,585.271,556.803L585.271,556.803z M646.571,536.663
			c3.046-3.072,4.095-5.796,3.119-8.12c-0.347-0.826-1.135-1.966-2.909-2.691c-1.286-0.524-2.979-0.783-5.051-0.771
			c6.52-1.268,11.646-1.427,14.212-0.378c0.56,0.229,0.942,0.512,1.054,0.773c0.023,0.057,0.546,1.432-2.861,4.991
			C652.287,532.397,649.718,534.498,646.571,536.663z"/>
		<path opacity="0.9" fill="#A3A7AA" d="M602.409,554.271l-0.419-0.467c-2.048-2.832-3.439-6.146-4.024-9.587
			c-0.272-1.604-0.372-3.239-0.297-4.862c0.118-2.596,0.682-5.144,1.675-7.574c4.759-11.643,18.105-17.246,29.75-12.487
			c2.43,0.994,4.645,2.376,6.579,4.109c1.209,1.081,2.306,2.297,3.261,3.615c2.05,2.831,3.442,6.146,4.025,9.591l-1.206,0.91
			l-0.083-0.69c-0.551-3.249-1.864-6.375-3.796-9.043c-0.898-1.242-1.934-2.391-3.072-3.407c-1.824-1.634-3.913-2.938-6.203-3.875
			c-10.977-4.484-23.558,0.797-28.044,11.772c-0.937,2.29-1.466,4.692-1.579,7.141c-0.072,1.53,0.022,3.07,0.279,4.581
			c0.551,3.231,1.854,6.346,3.772,9.011l0.349,0.38L602.409,554.271z"/>
	</g>
	<g id="flashstar_2_">
		<path fill="#D0D3D6" stroke="#959799" stroke-miterlimit="10" d="M208.176,483.301c-1.226,3.254-4.857,4.901-8.111,3.677
			c0,0-25.423-10.04-26.307-10.441c-2.073-1.077-0.913-3.125,1.104-2.316c1.261,0.489,15.003,5.823,17.492,6.729
			c2.487,0.906,4.521-3.269,1.892-4.355c-0.787-0.31-3.247-1.283-5.539-2.173c-2.653-1.281-0.833-5.588,1.934-4.437
			c1.861,0.697,13.855,5.208,13.855,5.208C207.753,476.414,209.399,480.045,208.176,483.301L208.176,483.301z"/>
		<circle fill="#CACCCE" stroke="#838587" stroke-miterlimit="10" cx="202.259" cy="481.029" r="3.372"/>
		<path fill="#929599" d="M200.737,482.549c0.421,0.744,1.368,1.007,2.113,0.586c0.248-0.139,0.336-0.453,0.195-0.703
			c-0.14-0.247-0.455-0.336-0.703-0.194c-0.248,0.139-0.564,0.05-0.705-0.197c-0.14-0.25-0.455-0.337-0.703-0.196
			C200.686,481.984,200.598,482.3,200.737,482.549z"/>
		<line fill="none" stroke="#9B9B9B" stroke-miterlimit="10" x1="176.644" y1="468.677" x2="181.914" y2="470.775"/>
		<line fill="none" stroke="#9B9B9B" stroke-miterlimit="10" x1="162.792" y1="463.159" x2="174.863" y2="467.97"/>
		<line fill="none" stroke="#9B9B9B" stroke-miterlimit="10" x1="166.06" y1="468.274" x2="192.064" y2="478.377"/>
		<line fill="none" stroke="#B5B8BC" stroke-miterlimit="10" x1="95.922" y1="443.062" x2="-0.8" y2="411.729"/>
		<line fill="none" stroke="#B5B8BC" stroke-miterlimit="10" x1="79.089" y1="444.396" x2="130.589" y2="460.396"/>
	</g>
	<g id="ufo_2_">
		<path fill="#9FA2A5" d="M27.083,342.321c0.548,0.648,0.667,1.759,0.546,2.438c-0.358,1.255-4.015,5.308-5.094,6.471
			c-1.567,10.13-6.188,9.603-12.375,7.93c-1.004-0.036-5.885,0.516-9.82,0.858c-1.057-0.174-1.321-0.868-1.028-1.361
			c10.826-1.069,16.761-5.433,21.146-8.931C23.936,346.95,25.624,346.33,27.083,342.321z"/>
		<path fill="#C0C2C4" stroke="#868889" stroke-miterlimit="10" d="M19.857,343.438c3.85-1.57,6.659-2.081,7.226-1.116
			c0.931,1.577-4.536,6.518-12.204,11.028c-7.67,4.512-14.637,6.892-15.567,5.307c-0.587-0.996,1.384-3.343,4.856-6.069"/>
		<path fill="none" stroke="#929293" stroke-miterlimit="10" d="M4.394,352.912c-0.938-1.292-1.564-2.849-1.746-4.566
			c-0.539-5.108,3.062-9.675,8.042-10.199c4.204-0.442,8.047,2.131,9.469,6.019C20.423,344.886,9.041,353.074,4.394,352.912z"/>
		<path fill="#B0B2B5" d="M4.235,352.929c-0.837-1.304-1.405-2.865-1.586-4.583c-0.539-5.108,2.548-9.619,6.894-10.078
			c3.669-0.387,7.062,2.236,8.356,6.136C18.138,345.124,8.296,353.154,4.235,352.929z"/>
		<path fill="none" stroke="#888B8E" stroke-miterlimit="10" d="M22.535,351.229c-1.216,2.138-6.493,5.021-8.925,5.707"/>
		<path fill="#C6C9CC" d="M19.333,344.024c-0.211-0.3-6.783,2.844-7.805,3.397c-1.17,0.638-6.805,4.297-6.515,4.661
			c0.289,0.363,6.795-2.006,8.057-2.819C14.239,348.792,19.544,344.322,19.333,344.024z"/>
		<path fill="#858789" d="M17.084,348.275l-4.051-1.376l-0.139,0.079c-0.001,0.004,0.001,0.01,0,0.013
			c-0.015-0.027-0.029-0.057-0.042-0.082l-0.254-0.628l-0.008,0.004c0.722-1.048,0.839-2.778,0.59-4.372
			c-0.05-0.152-0.121-0.331-0.181-0.432c-0.879-1.229-2.494-1.622-4.65-0.56c-2.136,1.051-2.768,2.447-2.248,4.004
			c0.073,0.207,0.15,0.327,0.216,0.441c1.12,1.337,2.567,2.099,3.793,2.125l-0.008,0.003l0.325,0.588l-0.148,0.061l-1.377,4.05
			c-0.111,0.331,0.065,0.689,0.396,0.804c0.332,0.111,1.109,0.009,1.218-0.326c0,0,0.176-0.429,0.033-0.641
			c0,0-0.573-1.854-0.252-2.088c0.507-0.081,0.507-0.081,0.616-0.246c-0.415,1.035,0.175,2.236,0.175,2.236
			c0.596,0.785,1.208,0.617,2.014,0.221l1.37-0.675c0.805-0.396,1.309-0.761,1.008-1.634c0,0-0.495-1.203-1.444-1.503
			c0.084-0.023,0.169-0.102,0.414-0.334c0.38-0.11,1.502,1.472,1.502,1.472c0.081,0.244,0.527,0.366,0.527,0.366
			c0.332,0.117,0.888-0.437,1-0.767C17.591,348.746,17.415,348.389,17.084,348.275z M8.553,346.063l-0.778-0.271
			c-0.355-0.123-0.542-0.511-0.419-0.866c0.125-0.354,0.512-0.544,0.866-0.419l0.78,0.271c0.354,0.124,0.541,0.512,0.419,0.867
			C9.297,346,8.908,346.188,8.553,346.063z M13.294,350.924c-0.547,0.269-1.186,0.088-1.429-0.404
			c-0.174-0.77-0.068-1.865,0.237-2.015c0.348-0.172,1.278,0.472,1.741,1.04C14.085,350.037,13.839,350.654,13.294,350.924z
			 M11.109,343.74l0.258-0.783c0.119-0.356,0.504-0.55,0.861-0.432c0.357,0.117,0.55,0.503,0.433,0.86l-0.261,0.782
			c-0.118,0.357-0.504,0.551-0.86,0.433C11.184,344.481,10.99,344.097,11.109,343.74z"/>
	</g>
	<g id="earth_1_">
		<path opacity="0.65" fill="#BCC4CC" stroke="#C0C5C9" stroke-miterlimit="10" d="M786.143,16.038
			c15.343,24.619,7.824,57.021-16.8,72.367c-24.624,15.345-57.022,7.818-72.365-16.801c-15.343-24.624-7.825-57.021,16.799-72.366
			C738.401-16.107,770.799-8.586,786.143,16.038z"/>
		<polygon fill="#E0E1E2" points="746.927,3.111 747.469,3.77 746.531,4.665 747.346,6.285 748.632,5.482 750.247,4.247 
			750.473,2.642 749.306,2.862 748.42,2.591 746.865,1.817 745.386,0.274 744.117,1.477 744.098,2.357 744.539,3.063 745.538,3.105 
					"/>
		<polygon fill="#E0E1E2" points="746.054,4.473 745.536,3.465 744.451,3.628 743.425,4.651 743.429,6.623 744.002,7.544 
			745.034,6.901 		"/>
		<path fill="#E0E1E2" d="M724.003,23.874l0.158,0.84l-1.272,0.794l0.408,0.658l0.306-0.19c0,0,0.104,0.128,0.243,0.295l0.741-0.553
			l0.298-0.606l-0.254-0.688l0.599-0.447l-0.07-0.671l-0.652,0.241L724.003,23.874z"/>
		<polygon fill="#E0E1E2" points="721.468,27.11 721.818,27.785 722.691,27.132 722.385,26.428 721.557,26.338 		"/>
		<path fill="#E0E1E2" d="M688.955,50.486l0.864,1.387c-0.221-1.433-0.376-2.868-0.478-4.306L688.955,50.486z"/>
		<path fill="#E0E1E2" d="M713.776-0.762c-17.348,10.812-26.191,30.09-24.545,49.15l0.11-0.82c-0.102-1.384-0.141-2.768-0.126-4.153
			l0.574,0.763l-0.448,3.389c0.102,1.435,0.257,2.87,0.478,4.306l1.576,2.529l2.398-0.263l2.189,3.515l3.65,1.918l1.58-0.677
			l-0.461-1.15l-3.332-1.563l-1.917-2.34l0.995-0.62l2.052,2.358l4.688,2.053l0.087,1.551l3.051,1.414l4.475-1.454l-0.393-0.628
			l1.689-0.744l0.542,1.197l1.36-0.536l2.201-0.66l4.544,1.371l3.557-1.856l2.058,2.562l-1.313,3.072l1.435,2.542l0.611,1.721
			l5.981,2.111l1.158,1.282c0,0,1.422-0.427,1.57-0.521c0.151-0.093,3.952,0.253,3.952,0.253l4.738,7.605l1.084-0.314l1.56,3.898
			l2.838,1.104l1.883,3.653l4.295,2.326l4.061,0.659l2.675-1.601l-0.27-1.01l-2.964-0.428l-0.397-0.882l-0.271-1.211l-0.558-1.062
			l-1.34,0.782l-1.179-0.422l0.433-1.728l-0.346-0.885l-1.433,0.41l-0.392-0.782l1.575-1.344l1.849-2.913l-0.126-2.18l0.561-5.269
			l-2.354-2.379l-0.071-2.007l2.594-1.508l0.868-2.426l-2.778-5.692l0.398-3.601l-0.633-1.759l-2.083,0.524l-2.316-1.165
			l-3.937,2.398l-3.839,0.751l-1.526-2.12l-2.162-1.167l-2.834,1.71l-3.207-1.538l-1.88,0.196l0.414,0.821l-2.524,1.787
			l-1.793-0.738l-3.08,1.148l-0.63,4.005l-3.919,1.608l-2.746-3.832l-2.861,1.169l-0.183-2.606l-0.999-0.941l-1.983,4.388
			l-2.299,1.072l-1.806-1.194l-0.609-2.013l-0.173-2.907l1.857-3.064l5.236-3.267l0.986,1.606l2.432-0.299l-1.855-2.637l0.509-2.214
			l1.615-3.506l-0.6-1.383l0.959-4.546l1.905-3.42l-0.39-0.051l0.812-3.076l0.84-0.26l0.588,0.208l0.229-1.292l0.134-0.195
			l-0.891,0.395l-1.002,0.24l-0.496-0.796l0.214-0.635l0.972-0.605l0.566-0.081l0.867,0.536l0.427-0.364L723,21.93l0.163-0.037
			l1.232-1.059l-0.223-0.786l0.899-0.288l0.452,0.721l-0.414,0.944v0l0.601,0.724l2.938-0.776c0,0,0.011,0.009,0.028,0.026
			l0.538-0.401l-0.628-1.095l-2.512,0.331l-0.434-0.444l1.279-1.565l-0.896-1.598l-2.337,0.022l-1.747-2.547l-1.614,2.592
			l-0.847,0.528l-1.022-2.131l-3.629,1.226l-0.693,1.805l1.88,3.02l-1.89,2.215l0.285,2.553l-0.921,0.803l-1.569-2.517l-2.407,1.076
			l-1.557-0.032l-1.46-1.352l2.514-4.787l1.569-1.795l1.011,1.178l1.042-0.727l-0.322-0.708l1.024-0.863l-0.12-0.242l-0.611,0.101
			l-0.545-0.622l1.316-0.983l0.293-1.395l0.008-0.093h0.01l0.094-0.424l2.688-2.186l1.972,0.292l-2.261,3.91l4.938-1.667
			l-0.34-1.786l1.882-1.173l-0.117-1.67l-1.537,0.496l-0.989-1.586l-5.324,0.753l-2.669,2.126l-1.097,1.863l1.4,1.997l-1.864,0.8
			l-0.971-0.981l0.707-2.491l-3.044,1.692l-0.69,0.786l0.253,1.227l1.225-0.504l0.47,1.244l-1.814,1.285l0.167,0.92l-2.685,1.777
			c0,0-1.043-1.502-1.15-1.433c-0.108,0.065,2.116-1.374,2.116-1.374l0.638-2.601l-1.164,0.108l-0.47,1.883l-2.024,1.109
			l-2.196-0.888l-2.51,1.565l-1.399,3.588l2.399-1.497l0.658,0.567l-0.265,0.969l2.707-1.583l1.003,0.707l-3.061,1.753l-0.607-0.647
			l-2.133,0.765l-1.341,0.069l-2.232,1.414c4.008-9.915,11.054-18.694,20.802-24.769c11.231-7,24.114-9.2,36.246-7.179l0.061,1.271
			l-1.55,2.083l-0.279,1.475l0.882,0.969l1.148-0.512l1.63,1.197l1.365-1.872l1.627,1.943l-0.548,0.342l-1.634,0.713l-1.488,1.314
			l-0.194,3.271l-2.073,1.793l0.894,2.174l1.114-0.375l0.505,1.438l-2.566,0.964l-1.808,1.762l0.282,1.442l1.887,2.22l1.585-0.19
			l2.056-1.295l1.312-0.994l-0.266-1.373l0.417-4.179l1.611-0.6l0.617-2.154l0.883,0.833l4.926,0.175l-0.069,0.837l-1.613,0.889
			l1.131,0.477l1.092-0.387l0.837-1.174l-0.872-1.344l0.346-0.562l-0.669-0.175l-3.118,0.154l-1.678-1.336l1.922-1.198l0.996,0.226
			l2.547,0.397l1.146,1.681l2.855,0.758l-0.921-2.904l0.783-1.389l1.5,1.91l1.955,0.551l2.292-1.484
			c1.168,0.875,2.301,1.795,3.396,2.774l-0.104,0.373l-3.542,2.208l-3.158-0.262l-2.135,1.635l0.865,1.387l-0.72,0.447l-1.124-0.069
			l-4.556,1.454l-1.587-2.548l-4.743,3.495l-1.029,1.792l-1.979,1.234l-1.032,0.508l-1.571,2.831l1.566,2.512l-2.705,6.604
			l1.352,1.259l0.997-0.621l0.636,1.604l-0.538,0.693l2.308,3.791l7.26,2.189l1.849-1.152l-0.074-0.365l3.321-2.07l0.404-1.484
			l1.885-1.172l1.678,0.391l2.989-1.46l1.953,3.965l6.547,3.562l0.314,4.159l1.03,1.407l2.093,0.485l2.215,3.552l3.122,1.224
			l1.838,2.95l1.466-0.914c-1.917,15.097-10.33,29.247-24.223,37.903c-24.495,15.267-56.843,7.755-72.112-16.744
			c-3.843-6.167-6.237-12.833-7.286-19.597l-0.227-0.362c1.021,6.929,3.443,13.768,7.386,20.092
			c15.345,24.623,47.741,32.146,72.365,16.801c24.624-15.347,32.145-47.745,16.8-72.367C770.799-8.586,738.401-16.107,713.776-0.762
			z M714.632,33.912l-0.235,1.034l-1.409,0.878l-0.383-1.106l0.628-0.474l-0.069-0.417l0.932-0.777L714.632,33.912z M713.881,31.958
			l-0.4,0.843l-0.732,0.668c0,0-0.828-1.328-0.913-1.468l1.492-0.929L713.881,31.958z M714.499,30.15l0.941-0.001l-0.264,0.788
			l-0.817-0.114L714.499,30.15z M714.294,31.815l0.109-0.069l1.997-0.554l0.535,0.86l-1.409,0.88l-0.733-0.318L714.294,31.815z
			 M711.697,30.125l1.432,0.265l-0.776,0.788L711.697,30.125z M707.905,32.681l0.949-1.323l1.744-1.087l0.33,0.527l0.378-0.236
			l0.571,0.912l-2.656,1.655l-1.167,0.346L707.905,32.681z M709.146,35.215l0.333-1.745l1.466-0.914l-0.244,3.803l-1.033,0.067
			L709.146,35.215z M703.888,29.803l1.205-0.404l0.518,1.638l-0.909,1.067l-1.633-1.024L703.888,29.803z M698.896,27.725
			l-2.101,1.499l-0.727-0.238l1.275-1.41c0,0,0.864-0.768,0.949-0.82C698.376,26.703,698.896,27.725,698.896,27.725z
			 M695.368,25.697l-0.129-0.384l1.589-0.99l0.433,0.693l-0.076,0.893l-2.186,1.363l-0.552-0.891l-0.051-0.081L695.368,25.697z
			 M758.542-3.832l-3.066,1.873l-0.588-0.516l1.307-2.16l-1.339-2.168c1.262,0.332,2.513,0.706,3.749,1.127L758.542-3.832z
			 M770.467,0.76l-0.788,0.658l-1.226-1.968l0.083-0.487c0.815,0.484,1.615,0.997,2.399,1.529L770.467,0.76z M778.403,6.63
			c0.213,0.215,0.432,0.426,0.646,0.647l-0.685-0.397L778.403,6.63z"/>
	</g>
	<g id="planet_1_">
		<g id="XMLID_3_">
			<g>
				<path fill="#CBCFD1" d="M162.058,336.6c-75.386-8.355-120.164-43.539-126.729-130.723
					C42.014,296.726,86.611,328.369,162.058,336.6z"/>
				<path fill="#CBCFD1" d="M163.23,336.728c-0.392-0.045-0.781-0.083-1.173-0.128C162.449,336.645,162.839,336.683,163.23,336.728z
					"/>
				<path fill="#CBCFD1" d="M22.183,277.816c13.595,52.087,66.846,83.3,118.939,69.697c9.062-2.365,17.481-5.919,25.151-10.471
					l-0.002-0.007c-1.018-0.099-2.028-0.199-3.041-0.308c-0.392-0.045-0.781-0.083-1.173-0.128
					c-75.446-8.23-120.044-39.874-126.729-130.723c-0.153-1.983-0.285-4.002-0.394-6.051l-0.007,0.002
					c-5.651,8.636-9.923,18.159-12.621,28.194l0.002,0.007c0,0-1.404,1.064-2.934,2.626c-2.246,2.531-1.954,6.647-1.545,8.928
					c0.702,1.026,1.79,2.61,1.79,2.61C18.301,253.797,19.054,265.83,22.183,277.816z"/>
				<path fill="#CBCFD1" d="M166.28,337.04c36.435-21.607,55.777-65.436,44.548-108.461c-8.783-33.651-34.109-58.59-64.979-68.366
					c-0.701-0.22-1.936-3.199-2.373-3.953c-2.442-2.114-7.222-2.61-10.271-2.744c-1.451-0.156-5.311,2.099-6.987,2.537
					c-0.261,0.068-0.47,0.1-0.605,0.057c-11.018-1.03-22.402-0.198-33.728,2.758c-0.544,0.142-1.086,0.292-1.622,0.439
					c-1.264,0.353-4.608,1.497-7.59,2.57c-2.162,0.773-4.126,1.503-4.968,1.87c-17.897,7.74-32.57,20.467-42.771,36.079
					c0.108,2.048,0.24,4.068,0.394,6.051c6.566,87.185,51.344,122.368,126.729,130.723c0.392,0.045,0.781,0.083,1.173,0.128
					c1.012,0.108,2.022,0.209,3.041,0.308l0.002,0.007L166.28,337.04z"/>
			</g>
			<g>
			</g>
		</g>
		<path fill="#A0A5A8" d="M166.268,337.035c-85.75-6.41-129.423-50.482-131.323-136.742c-5.502,8.514-9.68,17.872-12.329,27.729
			l0.002,0.007c0,0-1.404,1.063-2.934,2.625c-2.246,2.531-1.954,6.648-1.545,8.928c0.702,1.026,1.79,2.61,1.79,2.61
			c-1.319,11.604-0.565,23.637,2.563,35.623c13.595,52.088,66.846,83.302,118.939,69.697c9.048-2.361,17.461-5.91,25.122-10.451
			C166.456,337.053,166.365,337.042,166.268,337.035z"/>
		<circle fill="#B8BCC1" cx="125.34" cy="189.546" r="24.621"/>
		<circle fill="#C1C3C6" cx="171.226" cy="225.673" r="9.661"/>
		<path fill="#898E93" stroke="#C6CACC" stroke-width="3" stroke-miterlimit="10" d="M26.958,243.856
			c1.278,4.903,6.293,7.845,11.197,6.565c4.903-1.283,7.843-6.294,6.56-11.199c-1.279-4.903-6.293-7.841-11.195-6.562
			C28.614,233.941,25.679,238.952,26.958,243.856z"/>
		<circle fill="#898E93" stroke="#C6CACC" stroke-width="2" stroke-miterlimit="10" cx="36.683" cy="218.254" r="5.388"/>
		<circle fill="#B8BCC1" cx="80.894" cy="243.654" r="16.122"/>
		<path fill="#898E93" stroke="#C6CACC" stroke-width="4" stroke-miterlimit="10" d="M74.973,322.196
			c2.259,8.649,11.103,13.833,19.752,11.577c8.652-2.255,13.835-11.103,11.577-19.749c-2.259-8.654-11.102-13.836-19.752-11.58
			C77.897,304.703,72.714,313.546,74.973,322.196z"/>
		<path fill="#898E93" d="M126.552,305.761c1.149,4.406,5.655,7.047,10.063,5.896c4.407-1.148,7.048-5.656,5.897-10.062
			c-1.149-4.418-5.657-7.061-10.063-5.91C128.04,296.834,125.402,301.354,126.552,305.761z"/>
		<path fill="#B9BBB8" d="M90.263,159.304c0,0-1.162-1.489-2.076-2.024c-2.939,0.122-7.102,2.187-8.938,3.616
			c-0.734,1.355-1.543,2.85-1.543,2.85"/>
		<path fill="#B8BCC1" d="M80.57,172.648c0.894,3.426,4.399,5.479,7.827,4.585c3.422-0.893,5.475-4.396,4.58-7.824
			c-0.893-3.426-4.396-5.478-7.82-4.585C81.729,165.718,79.676,169.221,80.57,172.648z"/>
	</g>
	<g id="astronaut">
		<g>
			<g enable-background="new    ">
				<defs>
					<rect id="SVGID_3_" x="82.646" y="67.157" enable-background="new    " width="102.295" height="91.728"/>
				</defs>
				<clipPath id="SVGID_4_">
					<use xlink:href="#SVGID_3_"  overflow="visible"/>
				</clipPath>
				<g clip-path="url(#SVGID_4_)">
					<g>
						<g>
							<g>
								<path fill="#D3D3D3" d="M113.066,97.258c0,0.001,0,0.002,0,0.004c0.002,0.033,0.004,0.066,0.006,0.1
									c0-0.006,0-0.012,0-0.018C113.07,97.315,113.068,97.286,113.066,97.258 M102.356,87.098L102.356,87.098
									c0.001,0,0.002,0,0.003,0c0.08,0,0.16,0.001,0.24,0.002c0.025,0,0.05,0.001,0.075,0.002
									c0.059,0.001,0.118,0.003,0.177,0.006c0.025,0.001,0.049,0.001,0.074,0.003c0.074,0.003,0.149,0.008,0.223,0.013
									c0.034,0.002,0.067,0.005,0.1,0.007c0.043,0.003,0.087,0.007,0.13,0.01c0.042,0.004,0.083,0.008,0.125,0.012
									c0.029,0.003,0.058,0.006,0.086,0.009c5.229,0.546,9.341,4.544,9.48,10.182c0.043,0.683,0.088,1.511,0.041,1.953
									c-0.001,0.015-0.003,0.03-0.005,0.044c-0.279,2.178-1.529,4.149-2.853,5.661c-1.932,2.223-4.587,2.871-7.794,2.943
									l-0.913,0.018c-0.116,0.002-0.231,0.004-0.346,0.004c-2.926,0-5.438-0.888-7.646-2.776c-0.03-0.031-0.06-0.062-0.088-0.092
									c-1.62-1.686-2.042-2.606-2.535-5.002c-0.033-0.18-0.074-0.36-0.107-0.549c-0.049-0.684-0.065-2.196-0.074-2.763
									c0-0.001,0-0.002,0-0.003c0-0.008,0-0.016,0-0.023v0.027l0,0.002l-0.048,1.159c-0.006-0.333,0.004-0.664,0.029-0.99
									c0.001-0.009,0.001-0.017,0.002-0.025c0.002-0.031,0.005-0.061,0.007-0.091c0.001-0.012,0.002-0.024,0.003-0.037l0,0.011
									c0-0.004,0.001-0.009,0.001-0.013l-0.001,0.002l0.001-0.008c0.452-4.922,4.347-8.918,9.328-9.581
									c0.011-0.001,0.021-0.003,0.031-0.004c0.053-0.007,0.105-0.013,0.158-0.02c0.028-0.003,0.056-0.006,0.084-0.009
									c0.063-0.006,0.125-0.013,0.189-0.019c0.054-0.005,0.108-0.01,0.163-0.014c0.033-0.003,0.068-0.005,0.102-0.007
									c0.05-0.003,0.1-0.006,0.151-0.009c0.031-0.002,0.062-0.003,0.093-0.005c0.08-0.003,0.161-0.006,0.241-0.008l0.797-0.018
									C102.174,87.099,102.265,87.098,102.356,87.098C102.356,87.098,102.356,87.098,102.356,87.098 M102.599,83.489
									c-0.092,0-0.186,0.001-0.279,0.003l-0.978,0.027c-6.617,0.148-12.002,5.527-12.769,12.386l0.181,4.912h0
									c0.444,2.633,1.443,5.042,3.108,6.849c0.106,0.115,0.215,0.228,0.326,0.336c0.083,0.032,0.151,0.068,0.192,0.104
									c0.305,0.245,0.55,0.48,0.746,0.703c0.058,0.043,0.116,0.086,0.175,0.129c2.721,1.459,5.897,2.129,8.948,2.129
									c3.353,0,6.554-0.81,8.828-2.268c0,0,0,0,0,0.001c0.115-0.088,0.229-0.18,0.339-0.274c0.091-0.078,0.189-0.164,0.289-0.255
									c0.206-0.19,0.404-0.392,0.597-0.605c0.038-0.045,0.074-0.091,0.106-0.135c0.019-0.027,0.042-0.049,0.068-0.066
									c0.052-0.062,0.103-0.123,0.154-0.186c1.531-1.917,2.551-4.621,2.927-7.376l-0.066-4.973
									C114.351,88.396,108.988,83.489,102.599,83.489"/>
								<path fill="#A0A0A0" d="M111.076,108.8c-2.274,1.458-5.475,2.268-8.828,2.268c-3.05,0-6.227-0.67-8.948-2.129
									c-0.008-0.004-0.016-0.008-0.024-0.013c-0.001,0.019-0.003,0.039-0.005,0.058c0.701,0.89,0.632,1.587,0.589,2.048
									c-0.008,0.108-0.017,0.216-0.008,0.279c0.008,0.068-0.005,0.137-0.035,0.195c0.086,0.053,0.174,0.104,0.262,0.155
									c0.076-0.005,0.148-0.007,0.217-0.007c0.345,0,0.633,0.054,0.839,0.162c1.332,0.783,4.012,1.269,6.997,1.269
									c3.387,0,6.339-0.603,7.704-1.575c0.236-0.175,0.55-0.273,0.929-0.287c0.023-0.018,0.046-0.036,0.068-0.054
									c-0.029-0.061-0.039-0.13-0.027-0.2c0.016-0.117,0.057-0.234,0.107-0.378c0.115-0.36,0.247-0.765,0.065-1.467
									c-0.024-0.114,0.015-0.237,0.102-0.31C111.078,108.81,111.078,108.805,111.076,108.8
									C111.077,108.8,111.077,108.8,111.076,108.8"/>
								<path fill="#D0D0D0" d="M91.401,108.449c-0.115,0-0.172,0.018-0.206,0.036l-0.083,0.045
									c-0.362,0.171-0.526,0.252-0.929,1.404c-0.148,0.45-0.172,1.449-0.165,2.052c0.617-0.09,2.097-0.342,3.28-0.837l0.017-0.171
									c0.049-0.513,0.115-1.278-1.274-2.403C92.001,108.548,91.673,108.449,91.401,108.449"/>
								<path fill="#BABABA" d="M90.02,111.986c-0.008-0.603,0.017-1.602,0.165-2.052c0.403-1.152,0.567-1.233,0.929-1.404
									l0.083-0.045c0.033-0.018,0.091-0.036,0.206-0.036c0.271,0,0.6,0.099,0.641,0.126c1.39,1.125,1.324,1.89,1.274,2.403
									l-0.017,0.171C92.117,111.644,90.637,111.896,90.02,111.986 M91.401,107.854c-0.148,0-0.279,0.018-0.411,0.072l-0.107,0.054
									c-0.485,0.243-0.748,0.414-1.208,1.746c-0.263,0.774-0.197,2.529-0.189,2.61l0.09,0.216l0.181,0.072l0.024-0.009
									c0.057-0.006,0.923-0.102,1.961-0.349c0.611-0.246,1.176-0.416,1.662-0.513c0.095-0.038,0.19-0.078,0.282-0.119
									c0.057-0.027,0.102-0.073,0.13-0.129c0.03-0.058,0.043-0.126,0.035-0.195c-0.008-0.063,0-0.171,0.008-0.279
									c0.043-0.461,0.112-1.158-0.589-2.048c-0.045-0.057-0.093-0.116-0.146-0.174c-0.196-0.223-0.44-0.458-0.746-0.703
									c-0.041-0.037-0.108-0.072-0.192-0.104C91.967,107.917,91.634,107.854,91.401,107.854"/>
								<polyline fill="#A0A0A0" points="88.573,95.894 87.521,95.921 87.529,96.542 86.994,96.533 86.986,97.163 86.395,97.199 
									86.443,99.611 87.068,99.62 87.077,100.205 87.636,100.178 87.644,100.844 88.753,100.817 88.754,100.817 88.573,95.905 
									88.573,95.894 								"/>
								<path fill="#D0D0D0" d="M117.843,96.785l0.042,1.854c0.312-0.009,0.616-0.009,0.707-0.009c0.913,0,1.545,1.35,1.562,2.079
									c0.025,0.657,0.066,3.213,0.083,4.446l0.008,0.612c0.017,0.918-1.759,3.177-2.713,3.204c0,0-2.877,0.081-3.058,0.09
									c-0.107,0-0.206-0.063-0.255-0.162c-0.312-0.648-0.567-0.864-1.472-0.882c-0.345,0.432-0.863,0.882-1.192,1.152
									c0.14,0.684,0.016,1.161-0.09,1.503c0.164-0.009,0.337-0.018,0.509-0.018c0.88,0,1.595,0.189,1.768,0.234l3.609-0.081
									c0.995-0.018,2.163-0.684,3.108-1.782c0.946-1.098,1.497-2.403,1.48-3.501l-0.074-3.987
									C121.839,100.124,121.387,96.839,117.843,96.785"/>
								<path fill="#BABABA" d="M117.884,98.639l-0.042-1.854c3.544,0.054,3.996,3.339,4.021,4.752l0.074,3.987
									c0.017,1.098-0.534,2.403-1.48,3.501c-0.945,1.098-2.113,1.764-3.108,1.782l-3.609,0.081
									c-0.173-0.045-0.888-0.234-1.768-0.234c-0.172,0-0.345,0.009-0.509,0.018c0.106-0.342,0.23-0.819,0.09-1.503
									c0.329-0.27,0.847-0.72,1.192-1.152c0.905,0.018,1.16,0.234,1.472,0.882c0.05,0.099,0.148,0.162,0.255,0.162
									c0.181-0.009,3.058-0.09,3.058-0.09c0.954-0.027,2.73-2.286,2.713-3.204l-0.008-0.612c-0.017-1.233-0.058-3.789-0.083-4.446
									c-0.017-0.729-0.649-2.079-1.562-2.079C118.5,98.63,118.197,98.63,117.884,98.639 M117.761,96.19h-0.206
									c-0.142,0-0.261,0.133-0.263,0.287c0.121,0.005,0.24,0.01,0.271,0.01l0.049,2.457c-0.098,0-0.19,0-0.271,0
									c0.007,0.161,0.125,0.298,0.255,0.298c0.008,0,0.016,0,0.024-0.001c0.387-0.009,0.855-0.009,1.003-0.009
									c0.501,0,0.97,1.008,0.979,1.494c0.025,0.657,0.066,3.213,0.083,4.437l0.016,0.621c0.008,0.603-1.546,2.574-2.187,2.583
									c0,0-2.245,0.063-2.894,0.081c-0.428-0.783-0.913-1.026-1.998-1.026c-0.051,0-0.103,0.014-0.146,0.042
									c-0.026,0.017-0.05,0.039-0.068,0.066c-0.033,0.044-0.069,0.089-0.106,0.135c-0.17,0.203-0.387,0.415-0.597,0.605
									c-0.1,0.091-0.198,0.178-0.289,0.255c-0.136,0.117-0.253,0.215-0.332,0.282c-0.002,0.001-0.004,0.004-0.005,0.005
									c-0.086,0.073-0.125,0.195-0.102,0.31c0.181,0.702,0.05,1.107-0.065,1.467c-0.05,0.144-0.091,0.261-0.107,0.378
									c-0.012,0.07-0.002,0.139,0.027,0.2c0.009,0.019,0.02,0.036,0.033,0.052c0.179,0.001,0.373,0.02,0.577,0.057
									c0.173-0.02,0.35-0.03,0.531-0.03c0.913,0,1.653,0.225,1.661,0.234l0.074,0.009h0.008l3.65-0.081
									c1.134-0.027,2.442-0.765,3.486-1.971c1.044-1.206,1.653-2.673,1.628-3.924l-0.074-3.987
									C122.349,98.18,120.605,96.19,117.761,96.19"/>
								<path fill="#A0A0A0" d="M115.491,94.913l0,0.017l0.066,4.973v0.005l0.97-0.018l0.017-0.549l0.518-0.396c0,0,0.115,0,0.28,0
									c0.081,0,0.173,0,0.271,0l-0.049-2.457c-0.031,0-0.151-0.005-0.271-0.01c-0.101-0.004-0.202-0.008-0.254-0.008l-0.551-0.558
									l-0.049-0.567L115.491,94.913"/>
								<path fill="#AFAFAF" d="M92.535,150.842c-0.051,0.032-0.1,0.064-0.147,0.096l0.066,0.113
									c0.027-0.035,0.054-0.069,0.082-0.104L92.535,150.842"/>
								<path fill="#C1C1C1" d="M137.65,117.152c-0.337,0-0.444,0.063-0.864,0.324l-0.049,0.036v4.77
									c0.485-0.081,0.551-0.108,1.126-0.351c0.642-0.333,1.604-2.178,1.423-3.465c-0.115-0.747-0.601-1.188-1.447-1.305
									L137.65,117.152"/>
								<path fill="#AFAFAF" d="M136.737,122.282v-4.77l0.049-0.036c0.419-0.261,0.526-0.324,0.864-0.324l0.189,0.009
									c0.847,0.117,1.332,0.558,1.447,1.305c0.181,1.287-0.781,3.132-1.423,3.465
									C137.288,122.174,137.222,122.201,136.737,122.282 M137.667,116.551c-0.515,0-0.702,0.124-1.152,0.402l-0.153,0.095
									l0.025,5.85l0.079,0.032h0.042l0.115-0.018c0.724-0.126,0.74-0.126,1.455-0.432c0.838-0.432,1.981-2.493,1.743-4.113
									c-0.148-1.008-0.823-1.656-1.933-1.809C137.808,116.554,137.735,116.551,137.667,116.551"/>
								<path fill="#C1C1C1" d="M94.402,148.382l-0.074-4.113l5.871-0.126l0.082,4.104L94.402,148.382 M105.584,148.13l-0.074-4.104
									l5.878-0.135l0.074,4.104L105.584,148.13 M92.388,135.737l-0.024-1.719l5.574-0.126l0.033,1.719L92.388,135.737
									 M99.59,135.575l-0.033-1.719l5.566-0.126l0.032,1.719L99.59,135.575 M107.212,135.404l-0.033-1.719l5.575-0.126
									l0.033,1.728L107.212,135.404 M91.591,129.779l-0.066-0.009c-0.707-0.18-3.025-0.981-3.165-3.591
									c-0.066-3.15,2.836-4.68,2.959-4.743c0.036-0.02,0.074-0.029,0.113-0.029c0.051,0,0.103,0.016,0.15,0.047
									c0.074,0.045,0.124,0.144,0.132,0.243l0.148,7.776c0.008,0.099-0.033,0.18-0.099,0.243L91.591,129.779 M94.929,122.282
									l-0.115-6.084l15.054-0.333l0.115,6.084h-0.002l0.159,8.523l-14.997,0.333l-0.158-8.524L94.929,122.282 M110.836,111.828
									c-0.293,0-0.534,0.06-0.697,0.185c-1.48,1.044-4.473,1.665-8.008,1.665c-3.116,0-5.829-0.495-7.243-1.323
									c-0.083-0.045-0.263-0.108-0.592-0.108c-1.924,0-6.824,2.079-9.447,6.885c-1.899,3.483-2.195,6.12-1.027,9.405
									c1.208,3.447,5.253,4.725,7.515,4.725c0.115,0,0.222,0,0.321,0l0.206,0.081l0.082,0.207l0.124,6.255l0.567-0.009
									c0.083,0,0.14,0.027,0.189,0.081l0.09,0.207l0.173,10.971l-0.074,0.207c-1.258,1.539-1.299,2.241-1.349,3.204
									c-0.016,0.279-0.024,0.576-0.073,0.909l0.024,1.241l0.519-0.012l-0.009-0.455l1.348-0.036l0.008,0.46l1.077-0.024
									l-0.008-0.454l1.34-0.036l0.01,0.459l1.192-0.027l-0.01-0.459l1.349-0.027l0.007,0.456l1.324-0.03l-0.007-0.453l1.332-0.036
									l0.01,0.458l1.046-0.024c-0.061-3.318-0.201-10.909-0.208-11.288c-0.008-0.468,0.058-1.044,0.69-1.359l0.107-0.027
									l0.641-0.018h0.008l0.115,0.018c0.707,0.342,0.781,1.872,0.79,2.043l0.18,11.447l0.346-0.008l-0.007-0.459l1.34-0.027
									l0.009,0.455l1.324-0.03l-0.009-0.461l1.348-0.027l0.008,0.458l1.26-0.029l-0.01-0.456l1.34-0.027l0.009,0.453l1.184-0.027
									l-0.009-0.453l1.349-0.036l0.007,0.458l1.045-0.024c-0.011-0.534-0.021-1.086-0.025-1.388
									c-0.033-0.252-0.049-0.513-0.066-0.756c-0.057-1.008-0.107-1.674-1.62-3.132l-0.09-0.216
									c-0.024-0.99-0.206-11.835-0.206-11.835l0.074-0.216l0.197-0.09l0.691-0.009c-0.049-2.232-0.346-16.038-0.378-17.892v-0.009
									c0-0.162,0.123-0.297,0.271-0.297l0.148,0.045c0.074,0.054,2.056,1.314,5.533,1.863c0.822,0.126,1.998,0.189,3.495,0.189
									c1.965,0,4.448-0.117,7.013-0.324v-4.716c-0.74,0.027-1.497,0.045-2.253,0.045c-1.677,0-10.104-0.108-11.289-2.196
									c-0.542-0.999-1.998-2.556-2.853-3.168C112.646,112.205,111.575,111.828,110.836,111.828"/>
								<path fill="#AFAFAF" d="M91.311,129.085c-0.888-0.306-2.302-1.071-2.401-2.925c-0.049-2.115,1.521-3.438,2.261-3.951
									L91.311,129.085 M91.432,121.407c-0.039,0-0.078,0.009-0.113,0.029c-0.123,0.063-3.025,1.593-2.959,4.743
									c0.14,2.61,2.458,3.411,3.165,3.591l0.066,0.009l0.172-0.063c0.066-0.063,0.107-0.144,0.099-0.243l-0.148-7.776
									c-0.008-0.099-0.058-0.198-0.132-0.243C91.535,121.423,91.483,121.407,91.432,121.407 M102.131,113.678
									c3.536,0,6.528-0.621,8.008-1.665c0.163-0.125,0.404-0.185,0.697-0.185c0.739,0,1.81,0.377,2.805,1.021
									c0.855,0.612,2.311,2.169,2.853,3.168c1.184,2.088,9.611,2.196,11.289,2.196c0.756,0,1.513-0.018,2.253-0.045v4.716
									c-2.565,0.207-5.048,0.324-7.013,0.324c-1.497,0-2.672-0.063-3.495-0.189c-3.478-0.549-5.459-1.809-5.533-1.863
									l-0.148-0.045c-0.148,0-0.271,0.135-0.271,0.297v0.009c0.032,1.854,0.329,15.66,0.378,17.892l-0.691,0.009l-0.197,0.09
									l-0.074,0.216c0,0,0.181,10.845,0.206,11.835l0.09,0.216c1.513,1.458,1.562,2.124,1.62,3.132
									c0.017,0.243,0.033,0.504,0.066,0.756c0.004,0.302,0.014,0.854,0.025,1.388l0.099-0.002l0.033,1.521l-1.151,0.026v0.001
									l-1.34,0.036v-0.006l-1.184,0.027v0.006l-1.34,0.027v-0.003l-1.266,0.029v0.001l-0.498,0.01l-2.167,0.049v0.004
									l-1.348,0.027l-0.797,0.018l-0.025-1.521l0.451-0.01l-0.18-11.447c-0.008-0.171-0.083-1.701-0.79-2.043l-0.115-0.018h-0.008
									l-0.641,0.018l-0.107,0.027c-0.633,0.315-0.698,0.891-0.69,1.359c0.007,0.379,0.148,7.97,0.208,11.288l0.104-0.002
									l0.025,1.53l-7.199,0.158l-0.489,0.013v-0.002l-1.75,0.039l-0.668,0.018v-0.003l-0.97,0.021l-0.024-1.521l0.444-0.01
									l-0.024-1.241c0.049-0.333,0.058-0.63,0.073-0.909c0.05-0.963,0.091-1.665,1.349-3.204l0.074-0.207l-0.173-10.971
									l-0.09-0.207c-0.049-0.054-0.107-0.081-0.189-0.081l-0.567,0.009l-0.124-6.255l-0.082-0.207l-0.206-0.081
									c-0.099,0-0.206,0-0.321,0c-2.261,0-6.306-1.278-7.515-4.725c-1.167-3.285-0.872-5.922,1.027-9.405
									c2.623-4.806,7.523-6.885,9.447-6.885c0.329,0,0.51,0.063,0.592,0.108C96.302,113.183,99.015,113.678,102.131,113.678
									 M110.854,111.221c-0.031,0-0.061,0-0.09,0.001c-0.379,0.014-0.693,0.111-0.929,0.287c-1.365,0.972-4.317,1.575-7.704,1.575
									c-2.984,0-5.665-0.486-6.997-1.269c-0.206-0.108-0.494-0.162-0.839-0.162c-0.068,0-0.141,0.002-0.217,0.007
									c-0.202,0.013-0.428,0.044-0.674,0.094c-0.486,0.098-1.051,0.268-1.662,0.513c-2.38,0.956-5.46,3.062-7.363,6.549
									c-1.981,3.618-2.286,6.498-1.069,9.936c1.311,3.744,5.508,5.113,8.017,5.113c0.024,0,0.049,0,0.073,0l0.123,6.255
									c0.009,0.162,0.115,0.27,0.28,0.288l0.567-0.009l0.163,10.443l0.001,0.105c-0.028,0.035-0.055,0.069-0.082,0.104
									c-1.243,1.579-1.284,2.41-1.332,3.379c-0.017,0.261-0.033,0.54-0.074,0.909l0.049,2.817l0.082,0.207l0.197,0.081
									l11.075-0.243l0.189-0.09l0.074-0.216c0,0-0.23-12.33-0.238-12.825c-0.009-0.423,0.082-0.63,0.329-0.774l0.51-0.009
									c0.238,0.18,0.403,0.882,0.419,1.476l0.205,12.834l0.083,0.207l0.189,0.081h0.008l11.083-0.243l0.198-0.09l0.074-0.216
									c0,0-0.041-2.079-0.049-2.817c-0.041-0.27-0.058-0.522-0.065-0.756c-0.066-1.053-0.124-1.89-1.719-3.447
									c-0.024-1.413-0.164-9.711-0.197-11.403l0.699-0.009l0.189-0.09l0.074-0.216c0,0-0.304-14.301-0.37-17.685
									c0.954,0.558,3.018,1.332,5.32,1.701c0.847,0.135,2.047,0.198,3.568,0.198c2.032,0,4.599-0.124,7.25-0.346
									c-0.009-2.025-0.017-4.012-0.026-5.907c-0.806,0.035-1.635,0.052-2.464,0.052c-5.73,0-10.187-0.783-10.82-1.899
									c-0.584-1.08-2.097-2.7-3.034-3.375c-0.849-0.549-1.739-0.922-2.488-1.059c-0.204-0.037-0.397-0.056-0.577-0.057
									C110.861,111.221,110.857,111.221,110.854,111.221"/>
								<polyline fill="#9B9B9B" points="100.199,144.143 94.328,144.269 94.402,148.382 100.281,148.247 100.199,144.143 								
									"/>
								<polyline fill="#9B9B9B" points="111.389,143.891 105.51,144.026 105.584,148.13 111.463,147.995 111.389,143.891 								
									"/>
								<path fill="#8E8E8E" d="M97.346,128.941l-0.041-1.827l4.423-0.099l0.033,1.827L97.346,128.941 M97.28,125.594l-0.033-1.827
									l4.423-0.099l0.033,1.827L97.28,125.594 M103.381,128.807l-0.099-5.175l4.793-0.108l0.09,5.175L103.381,128.807
									 M109.98,121.949l-14.997,0.332l0.158,8.524l14.997-0.333L109.98,121.949"/>
								<path fill="#BABABA" d="M98.235,120.527c-0.585,0-1.062-0.51-1.07-1.143c-0.016-0.648,0.453-1.179,1.037-1.188
									c0.01,0,0.02,0,0.03,0c0.578,0,1.039,0.506,1.055,1.144c0.008,0.639-0.452,1.17-1.036,1.188
									C98.245,120.527,98.24,120.527,98.235,120.527 M102.354,120.437c-0.585,0-1.054-0.509-1.07-1.143
									c-0.009-0.648,0.452-1.179,1.044-1.197c0.005,0,0.011,0,0.016,0c0.585,0,1.062,0.509,1.07,1.143
									c0.017,0.648-0.452,1.179-1.044,1.197C102.364,120.437,102.359,120.437,102.354,120.437 M106.736,120.338
									c-0.585,0-1.062-0.51-1.078-1.143c-0.008-0.648,0.46-1.179,1.052-1.188c0.01,0,0.02,0,0.03,0c0.57,0,1.04,0.506,1.056,1.143
									c0.008,0.639-0.46,1.17-1.044,1.188C106.747,120.338,106.741,120.338,106.736,120.338 M109.868,115.865l-15.054,0.333
									l0.115,6.084l0.055-0.001l14.997-0.332h0.002L109.868,115.865"/>
								<path fill="#D0D0D0" d="M98.231,118.195c-0.01,0-0.021,0-0.03,0c-0.584,0.009-1.053,0.54-1.037,1.188
									c0.009,0.633,0.485,1.143,1.07,1.143c0.005,0,0.01,0,0.015,0c0.584-0.018,1.044-0.549,1.036-1.188
									C99.27,118.702,98.809,118.195,98.231,118.195"/>
								<path fill="#D0D0D0" d="M102.344,118.097c-0.005,0-0.01,0-0.016,0c-0.592,0.018-1.053,0.549-1.044,1.197
									c0.016,0.634,0.485,1.143,1.07,1.143c0.005,0,0.01,0,0.015,0c0.592-0.018,1.061-0.549,1.044-1.197
									C103.405,118.606,102.929,118.097,102.344,118.097"/>
								<path fill="#D0D0D0" d="M106.74,118.006c-0.01,0-0.02,0-0.03,0c-0.592,0.009-1.061,0.54-1.052,1.188
									c0.016,0.633,0.493,1.143,1.078,1.143c0.005,0,0.01,0,0.015,0c0.584-0.018,1.052-0.549,1.044-1.188
									C107.78,118.513,107.311,118.006,106.74,118.006"/>
								<polyline fill="#D0D0D0" points="101.67,123.667 97.247,123.767 97.28,125.594 101.704,125.495 101.67,123.667 								"/>
								<polyline fill="#D0D0D0" points="101.728,127.016 97.305,127.115 97.346,128.941 101.761,128.843 101.728,127.016 								
									"/>
								<polyline fill="#D0D0D0" points="108.076,123.523 103.282,123.632 103.381,128.807 108.166,128.699 108.076,123.523 
																	"/>
								<polyline fill="#939393" points="97.938,133.892 92.363,134.018 92.388,135.737 97.971,135.611 97.938,133.892 								"/>
								<polyline fill="#939393" points="105.124,133.729 99.558,133.855 99.59,135.575 105.156,135.449 105.124,133.729 								
									"/>
								<polyline fill="#939393" points="112.754,133.559 107.179,133.685 107.212,135.404 112.787,135.287 112.754,133.559 
																	"/>
								<path fill="#B7B7B7" d="M92.134,156.604l-0.519,0.012l-0.444,0.01l0.024,1.521l0.97-0.021L92.134,156.604 M94.558,156.549
									l-1.077,0.024l0.025,1.52l-0.672,0.018l1.75-0.039L94.558,156.549 M102.246,156.374l-0.104,0.002l-1.046,0.024l0.032,1.522
									l-1.34,0.036l-0.025-1.527l-1.324,0.03l0.025,1.524l-1.34,0.027l-0.031-1.521l-1.192,0.027l0.032,1.521l-0.859,0.023
									l7.199-0.158L102.246,156.374"/>
								<path fill="#B7B7B7" d="M104.811,157.184l-0.346,0.008l-0.451,0.01l0.025,1.521l0.797-0.018L104.811,157.184
									 M107.477,157.123l-1.324,0.03l0.032,1.521l2.167-0.049l-0.842,0.017L107.477,157.123 M110.083,157.063l-1.26,0.029
									l0.025,1.521l1.266-0.029L110.083,157.063 M112.606,157.006l-1.184,0.027l0.032,1.521l1.184-0.027L112.606,157.006
									 M115.097,156.95l-0.099,0.002l-1.045,0.024l0.025,1.521l1.151-0.026L115.097,156.95"/>
								<polyline fill="#A8A8A8" points="93.473,156.113 92.125,156.148 92.134,156.604 92.166,158.125 92.166,158.129 
									92.834,158.111 93.506,158.093 93.481,156.573 93.473,156.113 								"/>
								<polyline fill="#A8A8A8" points="95.89,156.059 94.55,156.095 94.558,156.549 94.583,158.072 94.583,158.075 
									95.072,158.062 95.932,158.039 95.9,156.518 95.89,156.059 								"/>
								<polyline fill="#A8A8A8" points="98.431,156.005 97.083,156.032 97.092,156.491 97.124,158.012 98.464,157.985 
									98.438,156.46 98.431,156.005 								"/>
								<polyline fill="#A8A8A8" points="101.086,155.941 99.755,155.978 99.762,156.43 99.788,157.958 101.128,157.922 
									101.096,156.4 101.086,155.941 								"/>
								<polyline fill="#A8A8A8" points="106.143,156.698 104.803,156.725 104.811,157.184 104.836,158.705 106.184,158.678 
									106.184,158.674 106.152,157.153 106.143,156.698 								"/>
								<polyline fill="#A8A8A8" points="108.815,156.635 107.467,156.662 107.477,157.123 107.508,158.642 108.351,158.625 
									108.848,158.615 108.848,158.613 108.823,157.092 108.815,156.635 								"/>
								<polyline fill="#A8A8A8" points="111.414,156.581 110.073,156.607 110.083,157.063 110.114,158.584 110.114,158.588 
									111.455,158.561 111.455,158.554 111.423,157.033 111.414,156.581 								"/>
								<polyline fill="#A8A8A8" points="113.946,156.518 112.597,156.554 112.606,157.006 112.638,158.527 112.638,158.534 
									113.979,158.498 113.979,158.497 113.953,156.976 113.946,156.518 								"/>
								<polyline fill="#A5A5A5" points="90.751,96.758 90.745,96.794 90.744,96.803 90.745,96.801 90.751,96.787 90.751,96.785 
									90.751,96.758 								"/>
								<path fill="#A5A5A5" d="M90.744,96.803c-0.001,0.012-0.002,0.024-0.003,0.037c-0.002,0.03-0.005,0.061-0.007,0.091
									c0,0.008-0.001,0.017-0.002,0.025c-0.022,0.329-0.029,0.663-0.029,0.99l0.041-1.132L90.744,96.803"/>
								<path fill="#AAAAAA" d="M102.356,87.098c-0.091,0-0.182,0.001-0.274,0.003l-0.797,0.018
									c-0.08,0.002-0.161,0.005-0.241,0.008c-0.031,0.001-0.062,0.003-0.093,0.005c-0.051,0.002-0.101,0.006-0.151,0.009
									c-0.034,0.002-0.068,0.004-0.102,0.007c-0.055,0.004-0.108,0.009-0.163,0.014c-0.063,0.006-0.126,0.012-0.189,0.019
									c-0.028,0.003-0.056,0.006-0.084,0.009c-0.053,0.006-0.106,0.013-0.158,0.02c-0.01,0.001-0.021,0.003-0.031,0.004
									c-3.763,0.504-6.907,2.916-8.409,6.196c0.312,0.12,0.641,0.233,0.986,0.34c2.154,0.668,4.941,1.079,8.012,1.107
									c0.115,0.001,0.23,0.001,0.346,0.001c0.277,0,0.555-0.003,0.835-0.009c4.078-0.09,7.712-0.828,10.17-1.917
									c-1.553-3.233-4.703-5.38-8.423-5.771c-0.029-0.003-0.058-0.006-0.086-0.009c-0.042-0.004-0.083-0.008-0.125-0.012
									c-0.043-0.003-0.087-0.007-0.13-0.01c-0.033-0.002-0.066-0.005-0.1-0.007c-0.074-0.005-0.149-0.009-0.223-0.013
									c-0.024-0.001-0.05-0.002-0.074-0.003c-0.059-0.003-0.118-0.005-0.177-0.006c-0.025,0-0.05-0.001-0.075-0.002
									c-0.08-0.001-0.16-0.002-0.24-0.002C102.359,87.098,102.357,87.098,102.356,87.098
									C102.356,87.098,102.356,87.098,102.356,87.098"/>
								<path fill="#A5A5A5" d="M113.058,97.164l0.016,0.287l-0.008-0.189C113.063,97.229,113.061,97.196,113.058,97.164"/>
								<path fill="#999999" d="M113.058,97.164c0.002,0.032,0.005,0.064,0.008,0.098l0.008,0.189L113.058,97.164 M112.014,92.933
									c-2.458,1.089-6.092,1.827-10.17,1.917c-0.28,0.006-0.559,0.009-0.835,0.009c-0.115,0-0.231,0-0.346-0.001
									c-3.071-0.029-5.858-0.439-8.012-1.107c-0.345-0.107-0.674-0.221-0.986-0.34c-0.484,1.043-0.805,2.176-0.912,3.372
									c0,0.001,0,0.002,0,0.003c0.009,0.567,0.025,2.079,0.074,2.763c0.033,0.189,0.074,0.369,0.107,0.549
									c0.296,0.101,0.599,0.198,0.907,0.29c2.522,0.753,5.452,1.202,8.585,1.261c0.234,0.004,0.47,0.007,0.707,0.007
									c0.139,0,0.277-0.001,0.417-0.002s0.279-0.003,0.419-0.007c4.176-0.09,8.008-0.855,11.099-2.079l0.041-0.225
									c0.002-0.015,0.004-0.029,0.005-0.044c0.046-0.441-0.001-1.256-0.041-1.935c-0.002-0.034-0.004-0.067-0.006-0.1
									c0-0.001,0-0.002,0-0.004C113.008,95.667,112.638,94.219,112.014,92.933"/>
								<path fill="#8E8E8E" d="M113.066,99.565c-3.091,1.224-6.923,1.989-11.099,2.079c-0.14,0.003-0.28,0.005-0.419,0.007
									s-0.278,0.002-0.417,0.002c-0.237,0-0.473-0.002-0.707-0.007c-3.133-0.059-6.062-0.507-8.585-1.261
									c-0.309-0.092-0.611-0.188-0.907-0.29c0.493,2.396,0.915,3.316,2.535,5.002c0.029,0.031,0.058,0.061,0.088,0.092
									c2.208,1.888,4.72,2.776,7.646,2.776c0.115,0,0.229-0.001,0.346-0.004l0.913-0.018c3.207-0.072,5.862-0.72,7.794-2.943
									C111.528,103.543,112.729,101.654,113.066,99.565"/>
								<path opacity="0.902" fill="#C2C2C2" d="M130.18,102.579c0.01,1.988,0.036,7.846,0.068,14.98
									c0.017,0,0.035-0.001,0.051-0.002l0.206,0.081l0.082,0.216v5.301c0,0.162-0.107,0.288-0.255,0.306
									c-0.019,0.002-0.039,0.003-0.059,0.005c0.066,14.909,0.141,32.053,0.141,32.053l6.109-0.027l-0.136-32.594l-0.102-0.041
									l-0.099-0.225v-5.301c0-0.108,0.058-0.207,0.14-0.261l0.036-0.022l-0.054-12.909c-1.969-0.296-3.848-0.76-5.664-1.397
									L130.18,102.579"/>
								<path fill="#C0C0C0" d="M136.362,117.048l-0.036,0.022c-0.082,0.054-0.14,0.153-0.14,0.261v5.301l0.099,0.225l0.102,0.041
									L136.362,117.048"/>
								<path fill="#C0C0C0" d="M130.299,117.557c-0.017,0.001-0.034,0.001-0.051,0.002c0.009,1.895,0.017,3.881,0.026,5.907
									c0.02-0.001,0.04-0.003,0.059-0.005c0.148-0.018,0.255-0.144,0.255-0.306v-5.301l-0.082-0.216L130.299,117.557"/>
								<path fill="#498CF3" d="M156.839,83.312l-2.795,0.009L153,88.396l2.82-0.009L156.839,83.312 M161.444,73.403l-1.447,7.128
									l3.206-0.009l-0.534,2.772l-3.248,0.009l-1.003,5.085l3.248-0.009l-0.567,2.763l-3.264,0.009l-1.439,7.164l-2.582,0.009
									l1.431-7.164l-2.787,0.009l-1.464,7.164h-2.59l1.464-7.155l-3.231,0.009l0.534-2.772l3.248-0.009l1.028-5.085l-3.125,0.009
									l0.535-2.763l3.157-0.009l1.456-7.128l2.59-0.009l-1.464,7.128l2.82-0.009l1.431-7.128L161.444,73.403 M173.119,68.759
									c-5.155,0-10.425,0.981-15.522,1.926c-5.164,0.954-10.5,1.944-15.778,1.944c-3.75,0-7.153-0.495-10.352-1.521l0.123,30.285
									c3.149,1.035,6.504,1.539,10.229,1.539c5.155,0,10.434-0.972,15.531-1.917c5.155-0.963,10.491-1.953,15.769-1.953
									c3.758,0,7.153,0.504,10.352,1.521l-0.123-30.285C180.198,69.263,176.843,68.759,173.119,68.759"/>
								<path fill="#1E6AD8" d="M141.818,72.629c5.278,0,10.614-0.99,15.778-1.944c5.097-0.945,10.367-1.926,15.522-1.926
									c3.725,0,7.079,0.504,10.229,1.539l0.123,30.285c-3.198-1.017-6.594-1.521-10.352-1.521c-5.278,0-10.614,0.99-15.769,1.953
									c-5.098,0.945-10.376,1.917-15.531,1.917c-3.725,0-7.079-0.504-10.229-1.539l-0.123-30.285
									C134.665,72.134,138.069,72.629,141.818,72.629 M173.119,67.157c-5.278,0-10.614,0.99-15.769,1.944
									c-5.098,0.945-10.376,1.926-15.531,1.926c-3.972,0-7.531-0.576-10.861-1.764l-0.962-0.342l0.14,33.642l0.045,0.016
									l0.465,0.164c1.816,0.637,3.694,1.101,5.664,1.397c1.757,0.264,3.587,0.394,5.51,0.394h0.008
									c5.271,0,10.606-0.99,15.77-1.944c5.097-0.945,10.367-1.926,15.522-1.926c3.979,0,7.532,0.576,10.861,1.764l0.962,0.342
									l-0.14-33.642l-0.501-0.18C180.856,67.742,177.205,67.157,173.119,67.157"/>
								<path fill="#F3F3F3" d="M153,88.396l1.044-5.076l2.795-0.009l-1.02,5.076L153,88.396 M161.444,73.403l-2.598,0.009
									l-1.431,7.128l-2.82,0.009l1.464-7.128l-2.59,0.009l-1.456,7.128l-3.157,0.009l-0.535,2.763l3.125-0.009l-1.028,5.085
									l-3.248,0.009l-0.534,2.772l3.231-0.009l-1.464,7.155h2.59l1.464-7.164l2.787-0.009l-1.431,7.164l2.582-0.009l1.439-7.164
									l3.264-0.009l0.567-2.763l-3.248,0.009l1.003-5.085l3.248-0.009l0.534-2.772l-3.206,0.009L161.444,73.403"/>
							</g>
						</g>
					</g>
				</g>
			</g>
		</g>
	</g>
	<g id="s1">
		<path fill="#95979F" d="M160.2,380.956c0,0.664-0.536,1.201-1.202,1.201l0,0c-0.664,0-1.198-0.537-1.198-1.201v-4.525
			c0-0.663,0.535-1.201,1.198-1.201l0,0c0.666,0,1.202,0.538,1.202,1.201V380.956z"/>
		<path fill="#95979F" d="M161.265,377.493c0.664,0,1.2,0.538,1.2,1.199l0,0c0,0.665-0.537,1.203-1.2,1.203h-4.53
			c-0.662,0-1.199-0.538-1.199-1.203l0,0c0-0.661,0.537-1.199,1.199-1.199H161.265z"/>
	</g>
	<g id="s2">
		
			<line fill="none" stroke="#909499" stroke-width="3" stroke-miterlimit="10" x1="772.425" y1="504.396" x2="776.276" y2="504.396"/>
		
			<line fill="none" stroke="#909499" stroke-width="3" stroke-miterlimit="10" x1="761.901" y1="504.396" x2="765.658" y2="504.396"/>
		
			<line fill="none" stroke="#909499" stroke-width="3" stroke-miterlimit="10" x1="769.089" y1="501.14" x2="769.089" y2="497.209"/>
		
			<line fill="none" stroke="#909499" stroke-width="3" stroke-miterlimit="10" x1="769.089" y1="511.584" x2="769.089" y2="507.625"/>
	</g>
	<circle opacity="0.4" fill="#95989F" cx="685.117" cy="563.646" r="4.5"/>
	<circle fill="#95989F" cx="64.038" cy="465.612" r="3.25"/>
	<circle fill="none" stroke="#95979F" stroke-width="2" stroke-miterlimit="10" cx="4.422" cy="121.125" r="5.522"/>
	<circle fill="none" stroke="#95989F" stroke-width="2" stroke-miterlimit="10" cx="95.922" cy="511.582" r="4.75"/>
	
		<ellipse fill="none" stroke="#989BA0" stroke-width="1.6" stroke-miterlimit="10" cx="646.155" cy="46.108" rx="3.075" ry="3.212"/>
	<g opacity="0.7">
		<path fill="#8D8F91" d="M44.044,62.284c0,0.692-0.452,1.251-1.012,1.251H32.305c-0.559,0-1.011-0.56-1.011-1.251l0,0
			c0-0.69,0.452-1.248,1.011-1.248h10.727C43.592,61.036,44.044,61.593,44.044,62.284L44.044,62.284z"/>
		<path fill="#8D8F91" d="M37.669,55.401c0.591,0,1.071,0.481,1.071,1.078v11.444c0,0.596-0.479,1.078-1.071,1.078l0,0
			c-0.593,0-1.073-0.482-1.073-1.078V56.479C36.597,55.882,37.076,55.401,37.669,55.401L37.669,55.401z"/>
		<path fill="#8D8F91" d="M41.149,61.782c0.208,1.921-1.184,3.648-3.105,3.855c-1.921,0.21-3.645-1.184-3.853-3.104
			c-0.208-1.924,1.18-3.648,3.101-3.855C39.215,58.472,40.94,59.86,41.149,61.782z"/>
	</g>
	<g opacity="0.7">
		<path fill="#7E8084" d="M573.551,62.041c0,0.499-0.326,0.903-0.73,0.903h-7.745c-0.403,0-0.73-0.404-0.73-0.903l0,0
			c0-0.499,0.327-0.901,0.73-0.901h7.745C573.225,61.14,573.551,61.542,573.551,62.041L573.551,62.041z"/>
		<path fill="#7E8084" d="M568.948,57.071c0.427,0,0.773,0.347,0.773,0.778v8.263c0,0.43-0.347,0.778-0.773,0.778l0,0
			c-0.429,0-0.775-0.349-0.775-0.778V57.85C568.173,57.418,568.52,57.071,568.948,57.071L568.948,57.071z"/>
		<circle fill="#7E8084" cx="568.949" cy="61.95" r="2.527"/>
	</g>
	<g id="s1_1_">
		<path fill="#95979F" d="M740.416,237.661c0,0.814-0.574,1.473-1.286,1.473l0,0c-0.71,0-1.282-0.659-1.282-1.473v-5.551
			c0-0.813,0.572-1.473,1.282-1.473l0,0c0.712,0,1.286,0.66,1.286,1.473V237.661z"/>
		<path fill="#95979F" d="M741.909,233.603c0.814,0,1.473,0.575,1.473,1.282l0,0c0,0.711-0.658,1.286-1.473,1.286h-5.557
			c-0.812,0-1.47-0.575-1.47-1.286l0,0c0-0.707,0.658-1.282,1.47-1.282H741.909z"/>
	</g>
	<g opacity="0.7">
		<path fill="#7E8084" d="M645.896,468.749c0,0.601-0.393,1.087-0.879,1.087h-9.323c-0.485,0-0.879-0.486-0.879-1.087l0,0
			c0-0.602,0.394-1.085,0.879-1.085h9.323C645.504,467.664,645.896,468.147,645.896,468.749L645.896,468.749z"/>
		<path fill="#7E8084" d="M640.356,462.767c0.514,0,0.931,0.419,0.931,0.937v9.946c0,0.517-0.417,0.937-0.931,0.937l0,0
			c-0.516,0-0.934-0.42-0.934-0.937v-9.946C639.423,463.186,639.841,462.767,640.356,462.767L640.356,462.767z"/>
		<path fill="#7E8084" d="M643.381,468.312c0.18,1.669-1.029,3.169-2.698,3.35c-1.671,0.184-3.17-1.028-3.35-2.696
			c-0.182-1.671,1.024-3.171,2.694-3.351C641.7,465.435,643.2,466.641,643.381,468.312z"/>
	</g>
	<g id="s1_2_">
		<path fill="#95979F" d="M272.096,566.534c0,0.814-0.574,1.473-1.286,1.473l0,0c-0.71,0-1.282-0.658-1.282-1.473v-5.551
			c0-0.813,0.572-1.474,1.282-1.474l0,0c0.712,0,1.286,0.66,1.286,1.474V566.534z"/>
		<path fill="#95979F" d="M273.589,562.476c0.814,0,1.473,0.575,1.473,1.282l0,0c0,0.711-0.658,1.286-1.473,1.286h-5.557
			c-0.812,0-1.47-0.575-1.47-1.286l0,0c0-0.707,0.658-1.282,1.47-1.282H273.589z"/>
	</g>
	<circle fill="none" stroke="#94979B" stroke-width="2" stroke-miterlimit="10" cx="716.733" cy="409.698" r="5.499"/>
</g>
</svg>
