<?xml version="1.0" encoding="utf-8"?>
<!-- Generator: Adobe Illustrator 16.0.0, SVG Export Plug-In . SVG Version: 6.00 Build 0)  -->
<!DOCTYPE svg PUBLIC "-//W3C//DTD SVG 1.1//EN" "http://www.w3.org/Graphics/SVG/1.1/DTD/svg11.dtd">
<svg version="1.1" id="Capa_1" xmlns="http://www.w3.org/2000/svg" xmlns:xlink="http://www.w3.org/1999/xlink" x="0px" y="0px"
	 width="509.054px" height="509.054px" viewBox="0 0 509.054 509.054" enable-background="new 0 0 509.054 509.054"
	 xml:space="preserve">
<g>
	<g>
		<path fill="#36393E" d="M75.377,0H45.111L6.284,36.258l20.268,21.7c7.994-7.041,12.753-12.185,14.277-15.417H41.4v3.427
			c0,7.613-0.05,19.126-0.144,34.545c-0.096,15.417-0.144,27.027-0.144,34.831h-30.55v28.266h95.646v-28.266H75.377V0z"/>
		<path fill="#36393E" d="M505.49,73.232c-1.816-1.809-3.953-2.712-6.432-2.712H151.886c-2.474,0-4.611,0.903-6.423,2.712
			c-1.805,1.809-2.708,3.949-2.708,6.424v54.817c0,2.475,0.9,4.615,2.708,6.424c1.812,1.807,3.949,2.712,6.423,2.712h347.176
			c2.479,0,4.617-0.905,6.428-2.712c1.807-1.809,2.707-3.949,2.707-6.424V79.656C508.201,77.182,507.296,75.041,505.49,73.232z"/>
		<path fill="#36393E" d="M73.664,420.833l27.123-32.832v-25.125H5.712v43.396h30.262V391.14c3.046,0,7.661-0.086,13.85-0.277
			c6.182-0.195,10.8-0.287,13.846-0.287v0.287c-3.621,3.426-7.139,7.088-10.566,10.992s-7.471,9.041-12.135,15.408
			c-4.661,6.379-7.751,10.521-9.275,12.424l7.421,15.988c19.985-1.525,29.979,3.801,29.979,15.988c0,5.328-2.046,9.373-6.139,12.127
			c-4.089,2.766-8.897,4.145-14.417,4.145c-10.848,0-20.937-4.279-30.262-12.85L1.998,490.21
			c12.562,12.562,28.931,18.844,49.109,18.844c15.416,0,28.31-4.375,38.688-13.131c10.373-8.758,15.559-20.75,15.559-35.975
			c0-9.709-2.859-18.082-8.562-25.129C91.08,427.785,83.375,423.117,73.664,420.833z"/>
		<path fill="#36393E" d="M75.942,298.066h-36.26c0.193-4.76,3.571-9.756,10.138-14.984c6.567-5.232,13.747-10.037,21.555-14.418
			c7.801-4.381,14.939-10.514,21.412-18.412c6.472-7.9,9.707-16.608,9.707-26.125c0-13.515-4.757-24.222-14.273-32.121
			c-9.514-7.898-21.223-11.849-35.117-11.849c-11.042,0-21.083,2.712-30.124,8.138c-9.04,5.424-15.843,12.991-20.412,22.701
			l24.27,16.844c6.663-11.042,14.371-16.56,23.125-16.56c4.762,0,8.52,1.285,11.281,3.854c2.757,2.574,4.141,6.235,4.141,10.994
			c0,4.377-2.238,8.66-6.711,12.847c-4.475,4.187-9.851,8.326-16.134,12.419c-6.28,4.093-12.563,8.615-18.842,13.562
			c-6.28,4.949-11.661,11.418-16.134,19.412c-4.471,7.993-6.708,16.846-6.708,26.553c0,3.425,0.571,8.564,1.711,15.416H105.92
			v-45.401v-0.004H75.942V298.066z"/>
		<path fill="#36393E" d="M499.06,362.876H151.886c-2.663,0-4.853,0.857-6.563,2.568c-1.713,1.713-2.568,3.901-2.568,6.564v54.818
			c0,2.475,0.9,4.617,2.708,6.424c1.812,1.807,3.949,2.711,6.423,2.711h347.176c2.479,0,4.617-0.896,6.428-2.711
			c1.807-1.807,2.707-3.949,2.707-6.424v-54.818c0-2.471-0.906-4.612-2.707-6.42C503.675,363.783,501.537,362.876,499.06,362.876z"
			/>
		<path fill="#36393E" d="M499.06,216.698H151.886c-2.663,0-4.853,0.855-6.563,2.568c-1.713,1.713-2.568,3.903-2.568,6.567v54.818
			c0,2.476,0.9,4.613,2.708,6.425c1.812,1.809,3.949,2.713,6.423,2.713h347.176c2.479,0,4.617-0.904,6.428-2.713
			c1.807-1.812,2.707-3.949,2.707-6.425v-54.818c0-2.474-0.906-4.615-2.707-6.423C503.675,217.602,501.537,216.698,499.06,216.698z"
			/>
	</g>
</g>
</svg>
