<?xml version="1.0" encoding="utf-8"?>
<!-- Generator: Adobe Illustrator 16.0.0, SVG Export Plug-In . SVG Version: 6.00 Build 0)  -->
<!DOCTYPE svg PUBLIC "-//W3C//DTD SVG 1.1//EN" "http://www.w3.org/Graphics/SVG/1.1/DTD/svg11.dtd">
<svg version="1.1" id="Capa_1" xmlns="http://www.w3.org/2000/svg" xmlns:xlink="http://www.w3.org/1999/xlink" x="0px" y="0px"
	 width="465.951px" height="465.951px" viewBox="0 0 465.951 465.951" enable-background="new 0 0 465.951 465.951"
	 xml:space="preserve">
<g>
	<path fill="#36393E" d="M441.962,284.364l-59.389-59.383c-15.984-15.985-35.396-23.982-58.238-23.982
		c-23.223,0-43.014,8.375-59.385,25.125l-25.125-25.125c16.751-16.368,25.125-36.256,25.125-59.671
		c0-22.841-7.898-42.157-23.698-57.958l-58.815-59.097c-15.798-16.178-35.212-24.27-58.242-24.27c-22.841,0-42.16,7.902-57.958,23.7
		l-41.97,41.683C8.088,81.188,0,100.504,0,123.343c0,22.841,7.996,42.258,23.982,58.245l59.385,59.384
		c15.99,15.987,35.404,23.981,58.245,23.981c23.219,0,43.015-8.374,59.383-25.126l25.125,25.126
		c-16.75,16.371-25.125,36.258-25.125,59.672c0,22.843,7.898,42.153,23.697,57.958l58.821,59.094
		c15.801,16.177,35.207,24.271,58.237,24.271c22.844,0,42.154-7.897,57.958-23.698l41.973-41.682
		c16.178-15.805,24.271-35.118,24.271-57.959C465.947,319.771,457.953,300.358,441.962,284.364z M200.999,162.178
		c-0.571-0.571-2.334-2.378-5.28-5.424c-2.948-3.046-4.995-5.092-6.136-6.14c-1.143-1.047-2.952-2.474-5.426-4.286
		c-2.478-1.809-4.902-3.044-7.28-3.711c-2.38-0.666-4.998-0.998-7.854-0.998c-7.611,0-14.084,2.666-19.414,7.993
		c-5.33,5.327-7.992,11.799-7.992,19.414c0,2.853,0.332,5.471,0.998,7.851c0.666,2.382,1.903,4.808,3.711,7.281
		c1.809,2.474,3.237,4.283,4.283,5.426c1.044,1.141,3.09,3.188,6.136,6.139c3.046,2.95,4.853,4.709,5.424,5.281
		c-5.711,5.898-12.563,8.848-20.555,8.848c-7.804,0-14.277-2.568-19.414-7.705l-59.39-59.386c-5.327-5.33-7.992-11.802-7.992-19.417
		c0-7.421,2.662-13.796,7.992-19.126l41.971-41.687c5.523-5.14,11.991-7.705,19.417-7.705c7.611,0,14.083,2.663,19.414,7.993
		l58.813,59.097c5.33,5.33,7.992,11.801,7.992,19.414C210.418,149.321,207.278,156.27,200.999,162.178z M403.147,361.731
		l-41.974,41.687c-5.332,4.945-11.8,7.423-19.418,7.423c-7.809,0-14.27-2.565-19.41-7.707l-58.812-59.101
		c-5.331-5.332-7.99-11.8-7.99-19.41c0-7.994,3.138-14.94,9.421-20.841c0.575,0.566,2.334,2.381,5.284,5.42
		c2.95,3.046,4.996,5.093,6.14,6.14c1.144,1.052,2.949,2.478,5.42,4.288c2.479,1.811,4.9,3.049,7.282,3.713
		c2.382,0.667,4.997,0.999,7.851,0.999c7.619,0,14.087-2.665,19.419-7.993c5.323-5.328,7.994-11.801,7.994-19.41
		c0-2.854-0.34-5.473-1-7.852c-0.671-2.382-1.902-4.809-3.721-7.281c-1.811-2.472-3.229-4.285-4.281-5.429
		c-1.047-1.136-3.094-3.183-6.139-6.14c-3.046-2.949-4.853-4.709-5.428-5.276c5.715-6.092,12.565-9.138,20.554-9.138
		c7.617,0,14.085,2.662,19.41,7.994l59.388,59.381c5.332,5.332,7.995,11.808,7.995,19.418
		C411.132,350.032,408.469,356.415,403.147,361.731z"/>
</g>
</svg>
