<?xml version="1.0" encoding="utf-8"?>
<!-- Generator: Adobe Illustrator 16.0.0, SVG Export Plug-In . SVG Version: 6.00 Build 0)  -->
<!DOCTYPE svg PUBLIC "-//W3C//DTD SVG 1.1//EN" "http://www.w3.org/Graphics/SVG/1.1/DTD/svg11.dtd">
<svg version="1.1" id="Capa_1" xmlns="http://www.w3.org/2000/svg" xmlns:xlink="http://www.w3.org/1999/xlink" x="0px" y="0px"
	 width="511.629px" height="511.631px" viewBox="0 0 511.629 511.631" enable-background="new 0 0 511.629 511.631"
	 xml:space="preserve">
<g>
	<g>
		<path fill="#36393E" d="M18.274,237.548h438.543c4.947,0,9.229-1.812,12.846-5.429c3.615-3.612,5.422-7.898,5.422-12.845v-36.547
			c0-4.952-1.807-9.231-5.422-12.847c-3.617-3.617-7.896-5.424-12.846-5.424H18.274c-4.952,0-9.233,1.807-12.851,5.424
			C1.809,173.495,0,177.778,0,182.727v36.547c0,4.947,1.809,9.233,5.424,12.845C9.044,235.736,13.326,237.548,18.274,237.548z"/>
		<path fill="#36393E" d="M18.274,127.909H347.17c4.949,0,9.236-1.809,12.855-5.424c3.611-3.617,5.424-7.898,5.424-12.847V73.091
			c0-4.948-1.812-9.229-5.424-12.85c-3.617-3.612-7.906-5.424-12.855-5.424H18.274c-4.952,0-9.233,1.812-12.851,5.424
			C1.809,63.858,0,68.143,0,73.091v36.547c0,4.948,1.809,9.229,5.424,12.847C9.044,126.1,13.326,127.909,18.274,127.909z"/>
		<path fill="#36393E" d="M506.206,389.147c-3.617-3.617-7.904-5.428-12.85-5.428H18.274c-4.952,0-9.233,1.811-12.851,5.428
			C1.809,392.763,0,397.046,0,401.994v36.546c0,4.948,1.809,9.231,5.424,12.854c3.621,3.61,7.904,5.422,12.851,5.422h475.083
			c4.943,0,9.23-1.812,12.85-5.422c3.613-3.62,5.424-7.904,5.424-12.854v-36.546C511.629,397.046,509.821,392.763,506.206,389.147z"
			/>
		<path fill="#36393E" d="M18.274,347.179h365.449c4.947,0,9.232-1.811,12.848-5.428c3.617-3.614,5.428-7.898,5.428-12.848v-36.541
			c0-4.945-1.811-9.233-5.428-12.848c-3.613-3.617-7.898-5.428-12.848-5.428H18.274c-4.952,0-9.233,1.811-12.851,5.428
			C1.809,283.129,0,287.417,0,292.362v36.545c0,4.947,1.809,9.236,5.424,12.847C9.044,345.371,13.326,347.179,18.274,347.179z"/>
	</g>
</g>
</svg>
