<?xml version="1.0" encoding="utf-8"?>
<!-- Generator: Adobe Illustrator 16.0.0, SVG Export Plug-In . SVG Version: 6.00 Build 0)  -->
<!DOCTYPE svg PUBLIC "-//W3C//DTD SVG 1.1//EN" "http://www.w3.org/Graphics/SVG/1.1/DTD/svg11.dtd">
<svg version="1.1" id="Capa_1" xmlns="http://www.w3.org/2000/svg" xmlns:xlink="http://www.w3.org/1999/xlink" x="0px" y="0px"
	 width="475.082px" height="475.082px" viewBox="0 0 475.082 475.082" enable-background="new 0 0 475.082 475.082"
	 xml:space="preserve">
<g>
	<g>
		<path fill="#36393E" d="M107.067,317.195c1.713-1.709,2.568-3.898,2.568-6.563c0-2.663-0.855-4.853-2.568-6.571
			c-1.714-1.707-3.905-2.562-6.567-2.562H9.135c-2.666,0-4.853,0.854-6.567,2.562C0.859,305.771,0,307.962,0,310.632
			c0,2.665,0.855,4.854,2.568,6.563c1.714,1.711,3.905,2.565,6.567,2.565H100.5C103.166,319.766,105.353,318.91,107.067,317.195z"/>
		<path fill="#36393E" d="M310.629,109.634c2.669,0,4.859-0.855,6.563-2.568c1.718-1.711,2.573-3.901,2.573-6.567V9.138
			c0-2.659-0.855-4.85-2.573-6.565c-1.704-1.711-3.896-2.57-6.563-2.57c-2.662,0-4.854,0.859-6.562,2.57
			c-1.711,1.713-2.566,3.903-2.566,6.565v91.361c0,2.666,0.855,4.856,2.566,6.567C305.784,108.779,307.974,109.634,310.629,109.634z
			"/>
		<path fill="#36393E" d="M118.771,347.184c-2.478,0-4.664,0.855-6.567,2.563l-73.089,73.087c-1.713,1.902-2.568,4.093-2.568,6.567
			c0,2.474,0.855,4.664,2.568,6.565c2.096,1.708,4.283,2.57,6.567,2.57c2.475,0,4.665-0.862,6.567-2.57l73.089-73.087
			c1.714-1.901,2.568-4.093,2.568-6.569c0-2.472-0.854-4.662-2.568-6.563C123.436,348.039,121.245,347.184,118.771,347.184z"/>
		<path fill="#36393E" d="M356.315,127.905c2.282,0,4.473-0.855,6.57-2.565l73.087-73.089c1.707-1.903,2.562-4.093,2.562-6.567
			c0-2.475-0.855-4.665-2.562-6.567c-1.909-1.709-4.093-2.568-6.57-2.568c-2.472,0-4.66,0.859-6.563,2.568l-73.087,73.089
			c-1.708,1.903-2.57,4.093-2.57,6.567s0.862,4.661,2.57,6.567C351.846,127.05,354.037,127.905,356.315,127.905z"/>
		<path fill="#36393E" d="M350.607,193.005c-4-3.999-9.328-7.994-15.988-11.991l-5.141,68.238l78.23,78.508
			c5.328,5.328,7.987,11.807,7.987,19.417c0,7.423-2.662,13.802-7.987,19.13l-41.977,41.687c-5.146,5.146-11.608,7.666-19.417,7.565
			c-7.811-0.1-14.271-2.707-19.411-7.854l-77.946-78.225l-68.234,5.144c3.999,6.656,7.993,11.987,11.991,15.985l95.362,95.643
			c15.803,16.18,35.207,24.271,58.238,24.271c22.846,0,42.153-7.898,57.957-23.695l41.977-41.686
			c16.173-15.8,24.27-35.114,24.27-57.958c0-22.459-7.993-41.877-23.981-58.248L350.607,193.005z"/>
		<path fill="#36393E" d="M472.518,157.889c-1.711-1.709-3.9-2.565-6.562-2.565H374.59c-2.662,0-4.853,0.855-6.562,2.565
			c-1.715,1.713-2.57,3.903-2.57,6.567c0,2.666,0.855,4.856,2.57,6.567c1.711,1.712,3.9,2.568,6.562,2.568h91.365
			c2.662,0,4.853-0.856,6.562-2.568c1.708-1.711,2.563-3.901,2.563-6.567C475.082,161.792,474.226,159.602,472.518,157.889z"/>
		<path fill="#36393E" d="M109.348,67.099c5.523-5.14,11.991-7.705,19.417-7.705c7.611,0,14.084,2.663,19.414,7.993l77.943,78.227
			l68.233-5.142c-4-6.661-7.989-11.991-11.99-15.987l-95.358-95.643c-15.798-16.178-35.212-24.27-58.242-24.27
			c-22.841,0-42.16,7.902-57.958,23.7l-41.97,41.683C12.659,85.756,4.57,105.073,4.57,127.912c0,22.463,7.996,41.877,23.982,58.245
			l95.93,95.93c3.995,4.001,9.325,7.995,15.986,11.991l5.139-68.521l-78.23-78.227c-5.327-5.33-7.992-11.801-7.992-19.417
			c0-7.421,2.662-13.796,7.992-19.126L109.348,67.099z"/>
		<path fill="#36393E" d="M164.454,365.451c-2.667,0-4.854,0.855-6.567,2.562c-1.711,1.711-2.568,3.901-2.568,6.57v91.358
			c0,2.669,0.854,4.853,2.568,6.569c1.713,1.707,3.9,2.566,6.567,2.566c2.666,0,4.853-0.859,6.567-2.566
			c1.713-1.718,2.568-3.9,2.568-6.569v-91.358c0-2.662-0.855-4.854-2.568-6.57C169.306,366.307,167.116,365.451,164.454,365.451z"/>
	</g>
</g>
</svg>
