<?xml version="1.0" encoding="utf-8"?>
<!-- Generator: Adobe Illustrator 16.0.0, SVG Export Plug-In . SVG Version: 6.00 Build 0)  -->
<!DOCTYPE svg PUBLIC "-//W3C//DTD SVG 1.1//EN" "http://www.w3.org/Graphics/SVG/1.1/DTD/svg11.dtd">
<svg version="1.1" id="Capa_1" xmlns="http://www.w3.org/2000/svg" xmlns:xlink="http://www.w3.org/1999/xlink" x="0px" y="0px"
	 width="511.629px" height="511.631px" viewBox="0 0 511.629 511.631" enable-background="new 0 0 511.629 511.631"
	 xml:space="preserve">
<g>
	<path fill="#36393E" d="M511.629,401.994v36.546c0,4.948-1.811,9.231-5.424,12.854c-3.617,3.61-7.906,5.422-12.85,5.422H18.274
		c-4.947,0-9.23-1.812-12.851-5.422C1.809,447.772,0,443.488,0,438.54v-36.546c0-4.948,1.809-9.231,5.424-12.847
		c3.618-3.617,7.898-5.428,12.851-5.428h475.083c4.943,0,9.23,1.811,12.85,5.428C509.821,392.763,511.629,397.046,511.629,401.994z
		 M127.91,274.088c-4.952,0-9.233,1.812-12.85,5.429c-3.618,3.612-5.424,7.9-5.424,12.847v36.545c0,4.948,1.807,9.235,5.424,12.847
		c3.62,3.617,7.901,5.432,12.85,5.432h255.813c4.947,0,9.232-1.813,12.848-5.432c3.617-3.609,5.428-7.898,5.428-12.847v-36.545
		c0-4.945-1.811-9.233-5.428-12.847c-3.613-3.617-7.898-5.429-12.848-5.429H127.91L127.91,274.088z M54.821,237.548h401.988
		c4.949,0,9.234-1.812,12.85-5.429c3.613-3.612,5.42-7.898,5.42-12.845v-36.547c0-4.952-1.807-9.231-5.42-12.847
		c-3.615-3.617-7.898-5.424-12.85-5.424H54.821c-4.952,0-9.235,1.807-12.85,5.424c-3.617,3.615-5.424,7.898-5.424,12.847v36.547
		c0,4.947,1.807,9.233,5.424,12.845C45.59,235.736,49.869,237.548,54.821,237.548z M164.457,127.909H347.17
		c4.949,0,9.236-1.809,12.855-5.424c3.611-3.617,5.424-7.898,5.424-12.847V73.091c0-4.948-1.812-9.229-5.418-12.85
		c-3.619-3.612-7.904-5.424-12.854-5.424H164.457c-4.952,0-9.235,1.812-12.85,5.424c-3.617,3.617-5.426,7.902-5.426,12.85v36.547
		c0,4.948,1.809,9.229,5.426,12.847C155.226,126.1,159.508,127.909,164.457,127.909z"/>
</g>
</svg>
