<?xml version="1.0" encoding="utf-8"?>
<!-- Generator: Adobe Illustrator 16.0.0, SVG Export Plug-In . SVG Version: 6.00 Build 0)  -->
<!DOCTYPE svg PUBLIC "-//W3C//DTD SVG 1.1//EN" "http://www.w3.org/Graphics/SVG/1.1/DTD/svg11.dtd">
<svg version="1.1" id="Capa_1" xmlns="http://www.w3.org/2000/svg" xmlns:xlink="http://www.w3.org/1999/xlink" x="0px" y="0px"
	 width="100px" height="100px" viewBox="0 0 100 100" enable-background="new 0 0 100 100" xml:space="preserve">
<g>
	<g>
		<path fill="#36393E" d="M100,16.737C100,7.508,92.494,0,83.266,0c-4.471,0-8.674,1.74-11.834,4.903L55.682,20.65l-1.803-1.802
			c-0.887-0.888-2.326-0.888-3.213,0l-9.091,9.091c-0.888,0.888-0.888,2.326,0,3.214l2.938,2.938L12.42,66.185
			c-2.148,2.146-3.329,5.001-3.329,8.036c0,3.029-0.888,5.967-2.57,8.494l-6.139,9.207c-0.6,0.9-0.484,2.102,0.284,2.867
			l4.545,4.545C5.65,99.773,6.232,100,6.818,100c0.435,0,0.875-0.124,1.261-0.382l9.606-6.403c2.259-1.509,4.892-2.306,7.613-2.306
			c3.116,0,6.121-1.292,8.248-3.544c4.164-4.428,29.162-28.852,32.33-31.913l2.973,2.974c0.443,0.443,1.025,0.666,1.607,0.666
			c0.581,0,1.162-0.223,1.606-0.666l9.091-9.091c0.888-0.888,0.888-2.326,0-3.214l-1.803-1.802L95.1,28.571
			C98.26,25.411,100,21.209,100,16.737z M44.364,63.637H27.823l23.119-23.118l8.504,8.504
			C55.699,52.642,50.388,57.783,44.364,63.637z"/>
	</g>
</g>
</svg>
