<?xml version="1.0" encoding="utf-8"?>
<!-- Generator: Adobe Illustrator 16.0.0, SVG Export Plug-In . SVG Version: 6.00 Build 0)  -->
<!DOCTYPE svg PUBLIC "-//W3C//DTD SVG 1.1//EN" "http://www.w3.org/Graphics/SVG/1.1/DTD/svg11.dtd">
<svg version="1.1" id="Capa_1" xmlns="http://www.w3.org/2000/svg" xmlns:xlink="http://www.w3.org/1999/xlink" x="0px" y="0px"
	 width="100px" height="100px" viewBox="0 0 100 100" enable-background="new 0 0 100 100" xml:space="preserve">
<g>
	<path fill="#36393E" d="M96.098,3.904C90.894-1.3,82.457-1.301,77.25,3.902L73.652,7.5c-1.932-1.932-5.062-1.932-6.994,0
		c-1.933,1.93-1.933,5.063,0,6.994l1.166,1.166L28.965,54.521h-0.003L15.474,68.01c-1.072,1.072-1.704,2.506-1.772,4.021
		l-0.032,0.719c0,0.004,0,0.006,0,0.01l-0.544,12.201c-0.022,0.566,0.19,1.116,0.589,1.518c0.376,0.378,0.892,0.588,1.426,0.588
		c0.029,0,0.058,0,0.09-0.001l6.469-0.286h0.003l3.941-0.176l1.79-0.078c1.98-0.09,3.861-0.917,5.265-2.319l51.835-51.834
		l0.97,0.969c0.966,0.966,2.231,1.449,3.497,1.449c1.265,0,2.531-0.483,3.497-1.449c1.932-1.931,1.932-5.064,0-6.994l3.597-3.597
		C101.301,17.546,101.301,9.109,96.098,3.904z M58.666,48.916L40.461,52.35l29.694-29.694l7.388,7.384L58.666,48.916z"/>
	<path fill="#36393E" d="M13.879,91.207C6.215,91.207,0,93.175,0,95.604S6.215,100,13.879,100s13.876-1.968,13.876-4.396
		S21.543,91.207,13.879,91.207z"/>
</g>
</svg>
