<?xml version="1.0" encoding="utf-8"?>
<!-- Generator: Adobe Illustrator 16.0.0, SVG Export Plug-In . SVG Version: 6.00 Build 0)  -->
<!DOCTYPE svg PUBLIC "-//W3C//DTD SVG 1.1//EN" "http://www.w3.org/Graphics/SVG/1.1/DTD/svg11.dtd">
<svg version="1.1" id="Capa_1" xmlns="http://www.w3.org/2000/svg" xmlns:xlink="http://www.w3.org/1999/xlink" x="0px" y="0px"
	 width="100px" height="100px" viewBox="0 2.408 100 100" enable-background="new 0 2.408 100 100" xml:space="preserve">
<g>
	<g>
		<path fill="#36393E" d="M97.336,36.698L67.791,7.125c-1.717-1.719-4.071-2.579-6.426-2.58c-2.355,0-4.711,0.859-6.43,2.58
			L2.664,59.447C0.945,61.167,0,63.451,0,65.881c0,2.431,0.939,4.707,2.684,6.453l20.35,19.884c2.135,2.086,4.954,3.237,7.941,3.237
			h15.292c3.007,0,5.841-1.164,7.985-3.281l43.084-42.608c1.719-1.719,2.664-4.003,2.664-6.434
			C100,40.702,99.055,38.418,97.336,36.698z M47.867,85.707c-0.438,0.43-0.99,0.656-1.6,0.656H30.975
			c-0.606,0-1.154-0.222-1.589-0.648L9.091,65.909l23.588-23.588l29.37,29.373L47.867,85.707z"/>
	</g>
</g>
<path fill="#36393E" d="M21.883,100.271c-0.428,0-0.789-0.143-1.071-0.425c-0.284-0.284-0.427-0.645-0.427-1.072v-2.082
	c0-0.428,0.143-0.788,0.426-1.071s0.644-0.426,1.071-0.426h56.231c0.428,0,0.787,0.143,1.071,0.425
	c0.283,0.283,0.426,0.644,0.426,1.072v2.082c0,0.428-0.143,0.788-0.426,1.072c-0.284,0.282-0.644,0.425-1.071,0.425H21.883z"/>
</svg>
