<?xml version="1.0" encoding="utf-8"?>
<!-- Generator: Adobe Illustrator 16.0.0, SVG Export Plug-In . SVG Version: 6.00 Build 0)  -->
<!DOCTYPE svg PUBLIC "-//W3C//DTD SVG 1.1//EN" "http://www.w3.org/Graphics/SVG/1.1/DTD/svg11.dtd">
<svg version="1.1" id="Capa_1" xmlns="http://www.w3.org/2000/svg" xmlns:xlink="http://www.w3.org/1999/xlink" x="0px" y="0px"
	 width="511.625px" height="511.625px" viewBox="0 0 511.625 511.625" enable-background="new 0 0 511.625 511.625"
	 xml:space="preserve">
<g>
	<g>
		<path fill="#36393E" d="M502.491,383.722H9.135c-2.474,0-4.615,0.896-6.423,2.707C0.903,388.238,0,390.377,0,392.854v54.82
			c0,2.471,0.903,4.609,2.712,6.42c1.809,1.812,3.949,2.713,6.423,2.713h493.356c2.477,0,4.615-0.902,6.426-2.713
			s2.711-3.949,2.711-6.42v-54.82c0-2.477-0.904-4.616-2.711-6.426C507.106,384.625,504.967,383.722,502.491,383.722z"/>
		<path fill="#36393E" d="M100.5,347.168c2.473,0,4.615-0.896,6.423-2.707c1.807-1.807,2.712-3.948,2.712-6.426V173.589
			c0-2.475-0.905-4.617-2.712-6.427c-1.809-1.806-3.951-2.709-6.423-2.709c-2.667,0-4.854,0.854-6.567,2.568l-82.226,82.224
			c-1.709,1.715-2.568,3.901-2.568,6.567c0,2.665,0.855,4.854,2.568,6.565l82.226,82.229
			C95.646,346.317,97.833,347.168,100.5,347.168z"/>
		<path fill="#36393E" d="M502.491,164.453H191.86c-2.474,0-4.615,0.9-6.423,2.709c-1.809,1.81-2.712,3.952-2.712,6.427v54.817
			c0,2.473,0.903,4.615,2.712,6.424c1.809,1.803,3.949,2.712,6.423,2.712h310.631c2.477,0,4.615-0.905,6.426-2.712
			c1.811-1.809,2.711-3.951,2.711-6.424v-54.817c0-2.475-0.904-4.617-2.711-6.427C507.106,165.356,504.967,164.453,502.491,164.453z
			"/>
		<path fill="#36393E" d="M502.491,274.083H191.86c-2.474,0-4.615,0.91-6.423,2.713c-1.808,1.805-2.712,3.953-2.712,6.425v54.815
			c0,2.478,0.903,4.619,2.712,6.426c1.809,1.809,3.949,2.707,6.423,2.707h310.631c2.477,0,4.615-0.896,6.426-2.707
			c1.811-1.807,2.711-3.948,2.711-6.426V283.22c0-2.472-0.904-4.613-2.711-6.425C507.106,274.993,504.967,274.083,502.491,274.083z"
			/>
		<path fill="#36393E" d="M508.917,57.529c-1.811-1.805-3.949-2.712-6.426-2.712H9.135c-2.474,0-4.615,0.903-6.423,2.712
			C0.904,59.338,0,61.479,0,63.953v54.817c0,2.475,0.903,4.615,2.712,6.424s3.949,2.712,6.423,2.712h493.356
			c2.477,0,4.615-0.9,6.426-2.712c1.811-1.809,2.711-3.949,2.711-6.424V63.953C511.625,61.479,510.723,59.338,508.917,57.529z"/>
	</g>
</g>
</svg>
