<?xml version="1.0" encoding="utf-8"?>
<!-- Generator: Adobe Illustrator 16.0.0, SVG Export Plug-In . SVG Version: 6.00 Build 0)  -->
<!DOCTYPE svg PUBLIC "-//W3C//DTD SVG 1.1//EN" "http://www.w3.org/Graphics/SVG/1.1/DTD/svg11.dtd">
<svg version="1.1" id="Capa_1" xmlns="http://www.w3.org/2000/svg" xmlns:xlink="http://www.w3.org/1999/xlink" x="0px" y="0px"
	 width="511.629px" height="511.631px" viewBox="0 0 511.629 511.631" enable-background="new 0 0 511.629 511.631"
	 xml:space="preserve">
<g>
	<g>
		<path fill="#36393E" d="M493.356,274.088H18.274c-4.952,0-9.233,1.812-12.851,5.429C1.809,283.129,0,287.417,0,292.362v36.545
			c0,4.947,1.809,9.236,5.424,12.847c3.621,3.617,7.904,5.433,12.851,5.433h475.083c4.943,0,9.23-1.814,12.85-5.433
			c3.613-3.61,5.424-7.897,5.424-12.847v-36.545c0-4.945-1.811-9.233-5.424-12.848C502.588,275.896,498.299,274.088,493.356,274.088
			z"/>
		<path fill="#36393E" d="M493.356,383.722H18.274c-4.952,0-9.233,1.81-12.851,5.426C1.809,392.763,0,397.046,0,401.994v36.546
			c0,4.948,1.809,9.231,5.424,12.854c3.621,3.61,7.904,5.422,12.851,5.422h475.083c4.943,0,9.23-1.812,12.85-5.422
			c3.613-3.62,5.424-7.904,5.424-12.854v-36.546c0-4.948-1.811-9.231-5.424-12.847C502.588,385.53,498.299,383.722,493.356,383.722z
			"/>
		<path fill="#36393E" d="M506.206,60.241c-3.617-3.612-7.904-5.424-12.85-5.424H18.274c-4.952,0-9.233,1.812-12.851,5.424
			C1.809,63.858,0,68.143,0,73.091v36.547c0,4.948,1.809,9.229,5.424,12.847c3.621,3.616,7.904,5.424,12.851,5.424h475.083
			c4.943,0,9.23-1.809,12.85-5.424c3.613-3.617,5.424-7.898,5.424-12.847V73.091C511.629,68.143,509.821,63.861,506.206,60.241z"/>
		<path fill="#36393E" d="M493.356,164.456H18.274c-4.952,0-9.233,1.807-12.851,5.424C1.809,173.495,0,177.778,0,182.727v36.547
			c0,4.947,1.809,9.233,5.424,12.845c3.621,3.617,7.904,5.429,12.851,5.429h475.083c4.943,0,9.23-1.812,12.85-5.429
			c3.613-3.612,5.424-7.898,5.424-12.845v-36.547c0-4.952-1.811-9.231-5.424-12.847
			C502.588,166.263,498.299,164.456,493.356,164.456z"/>
	</g>
</g>
</svg>
